<?xml version="1.0" standalone="no"?>
<!DOCTYPE svg PUBLIC "-//W3C//DTD SVG 1.1//EN" "http://www.w3.org/Graphics/SVG/1.1/DTD/svg11.dtd" >
<svg xmlns="http://www.w3.org/2000/svg" xmlns:xlink="http://www.w3.org/1999/xlink" version="1.1">
<metadata>
Created by FontForge 20170731 at Sat Dec  1 17:35:51 2001
 By Aleksey,,,
(c)2001 Kat - www.katsfunfonts.com
</metadata>
<defs>
<font id="KRARound" horiz-adv-x="1000" >
  <font-face 
    font-family="KR A Round"
    font-weight="400"
    font-stretch="normal"
    units-per-em="1000"
    panose-1="0 0 4 0 0 0 0 0 0 0"
    ascent="800"
    descent="-200"
    x-height="536"
    cap-height="783"
    bbox="0 -192 1000 816"
    underline-thickness="20"
    underline-position="-163"
    unicode-range="U+0020-0071"
  />
<missing-glyph horiz-adv-x="500" 
d="M63 0v800h375v-800h-375zM125 63h250v675h-250v-675z" />
    <glyph glyph-name=".notdef" horiz-adv-x="500" 
d="M63 0v800h375v-800h-375zM125 63h250v675h-250v-675z" />
    <glyph glyph-name=".null" horiz-adv-x="0" 
 />
    <glyph glyph-name="nonmarkingreturn" 
 />
    <glyph glyph-name="space" unicode=" " 
 />
    <glyph glyph-name="A" unicode="A" 
d="M797 409q0 -45 -40 -85t-85 -40q-26 0 -60.5 18t-46.5 39q-9 16 -18 72l3 -19v47q-1 -10 -1 -19q0 -39 31.5 -65t71.5 -26q39 0 68.5 29.5t29.5 68.5q0 31 -26.5 69.5t-56.5 38.5q-9 0 -19 -4h50q35 0 67 -44t32 -80zM719 429q0 -23 -24 -44.5t-47 -21.5q-21 0 -41.5 22
t-20.5 44q0 28 17.5 47t44.5 19q28 0 49.5 -19.5t21.5 -46.5zM891 363q0 -86 -67 -152.5t-152 -66.5q-86 0 -156.5 66.5t-70.5 152.5q0 106 124 193q-77 -67 -77 -147q0 -67 54 -119t122 -52q76 0 126 48t50 123q0 41 -19 82q-20 45 -51 65q43 -23 80 -84t37 -109zM953 304
q0 -135 -98.5 -233.5t-233.5 -98.5q-143 0 -241.5 98t-98.5 242t98 238t242 94q26 0 98 -18q-9 5 -20 4q-132 -8 -211 -71q-90 -72 -90 -200q0 -112 81 -191t193 -79q102 0 187 78.5t85 179.5q0 30 -9 59q18 -66 18 -102zM935 104q-52 -122 -172 -197.5t-255 -75.5
q-197 0 -337 140t-140 337q0 196 140.5 336t336.5 140q139 0 250 -71q108 -69 174 -195q-42 80 -134 128q-86 45 -181 45q-164 0 -277 -110t-113 -273q0 -161 112.5 -272t273.5 -111q97 0 186.5 48.5t135.5 130.5z" />
    <glyph glyph-name="B" unicode="B" 
d="M688 476q0 -74 -55 -125t-129 -51q-75 0 -129.5 52.5t-54.5 127.5q0 84 77 140l-18 -58q-12 -41 -12 -55q0 -63 37 -96t100 -33t100 35t37 98q0 15 -13 53q-8 28 -17 55q31 -13 55 -61q22 -44 22 -82zM813 421q0 -125 -92 -216.5t-217 -91.5t-217 91.5t-92 216.5
q0 74 35.5 142t96.5 111q-33 -89 -36 -99q-18 -57 -18 -103q0 -99 65.5 -163t165.5 -64q97 0 167.5 67t70.5 164q0 42 -27.5 97t-25.5 94q65 -54 93 -108q31 -57 31 -138zM984 351q0 -203 -138.5 -342t-341.5 -139q-194 0 -337.5 143t-143.5 338q0 109 61 219
q58 105 149 175q-8 -32 -56 -157q-36 -95 -36 -159q0 -147 108 -255t255 -108q148 0 255.5 107.5t107.5 255.5q0 60 -44 159q-44 96 -41 149q94 -66 148 -169t54 -217z" />
    <glyph glyph-name="C" unicode="C" 
d="M711 429q0 -82 -62.5 -140.5t-144.5 -58.5q-84 0 -141.5 55.5t-57.5 139.5q0 83 58 143t141 60q76 0 141.5 -61.5t65.5 -137.5zM984 351q0 -203 -138.5 -342t-341.5 -139q-194 0 -337.5 143t-143.5 338q0 109 61 219q58 105 149 175q-8 -32 -56 -157q-36 -95 -36 -159
q0 -147 108 -255t255 -108q148 0 255.5 107.5t107.5 255.5q0 60 -44 159q-44 96 -41 149q94 -66 148 -169t54 -217z" />
    <glyph glyph-name="D" unicode="D" 
d="M977 257q-79 -19 -207 -28q-166 -13 -208 -19l399 -38l-9 -27l-350 -36q106 -8 319 -30q-65 -113 -178.5 -180.5t-242.5 -67.5q-127 0 -241.5 68.5t-172.5 179.5q76 13 281 30q-32 10 -165 19q-106 7 -155 44l390 38l-414 39q57 26 172 41l180 22q-56 11 -176 22
q-116 11 -176 25q168 32 415 47l-391 38l351 63q-204 14 -312 29q58 112 172.5 180t241.5 68q130 0 242.5 -67t178.5 -181l-366 -29l397 -36l9 -26l-398 -40l414 -38q-62 -27 -173 -37q-173 -17 -179 -18q89 -9 178 -19q110 -12 174 -36z" />
    <glyph glyph-name="E" unicode="E" 
d="M968 434h-119q-158 0 -244 45q-46 25 -130.5 114t-177.5 141q45 27 58 27q34 0 73 -43q36 -38 45 -74q15 19 15 49q0 32 -19 91h89q119 0 253.5 -116.5t156.5 -233.5zM983 285h-189q-77 0 -189 51q-128 58 -128 124q0 7 2 20q92 -88 237 -121q80 -18 267 -29v-45z
M467 472q-43 52 -97 80q-42 22 -108 37q-60 13 -121 26q22 44 50 44q54 0 160 -47q116 -52 116 -96v-44zM968 181l-16 -53h-96q-216 0 -304 79q-66 77 -133 154q-107 89 -364 105l17 52h64q161 0 260 -88l164 -164q117 -88 321 -88q41 0 87 3zM890 32q-24 -52 -62 -52
q-201 0 -283 79q-67 76 -134 153q-114 89 -386 105l8 53h71q186 0 273 -74l146 -150q118 -89 367 -114zM742 -101q-65 -44 -86 -44q-50 0 -115.5 57t-68.5 107q-11 -34 -11 -71q0 -39 16 -64q10 -16 46 -50q-22 -4 -45 -4q-147 0 -283 120q-131 116 -163 262l32 2
q215 7 313 -61l128 -142q81 -89 237 -112z" />
    <glyph glyph-name="F" unicode="F" 
d="M913 457q-62 23 -147 23q-98 0 -259.5 -70.5t-256.5 -70.5q-53 0 -90 10q-29 7 -81 31q34 161 150 259.5t279 98.5q130 0 244 -80q111 -78 161 -201zM928 387q-24 16 -78 27q-50 11 -84 11q-93 0 -259.5 -74t-260.5 -74q-33 0 -174 40v37q48 -38 178 -38q83 0 182 38
l164 72q95 38 166 38q52 0 95 -16q52 -21 71 -61zM936 324q-78 39 -132 39q-91 0 -197 -37l-176 -68q-104 -36 -193 -36q-122 0 -167 69q92 -38 179 -38q79 0 176 39q83 35 165 71q97 39 175 39q29 0 86 -15q53 -13 84 -26v-37zM936 270q-84 38 -178 38q-74 0 -168 -39
q-81 -35 -162 -71q-98 -39 -182 -39q-47 0 -94 14q-61 19 -73 51q124 -26 175 -26q96 0 256.5 70.5t255.5 70.5q129 0 170 -69zM929 209q0 -128 -150 -230q-136 -93 -271 -93t-243.5 73.5t-162.5 198.5q129 -22 148 -22q79 0 178 38q85 36 169 72q98 38 176 38q32 0 156 -40
v-35z" />
    <glyph glyph-name="G" unicode="G" 
d="M984 308q0 -201 -139.5 -339t-340.5 -138q-190 0 -335.5 143.5t-145.5 333.5t145.5 333t335.5 143q201 0 340.5 -137.5t139.5 -338.5zM969 308q0 192 -136.5 326.5t-328.5 134.5t-328.5 -134.5t-136.5 -326.5t136.5 -326.5t328.5 -134.5q194 0 329.5 133.5t135.5 327.5z
M938 308q0 -178 -128 -304t-306 -126q-177 0 -305.5 126.5t-128.5 303.5q0 185 124.5 307.5t309.5 122.5q186 0 310 -122.5t124 -307.5z" />
    <glyph glyph-name="H" unicode="H" 
d="M984 312q0 -82 -55 -137t-136 -55q-84 0 -137.5 52.5t-53.5 135.5t53.5 135t137.5 52q78 0 134.5 -53t56.5 -130zM722 519q-12 0 -36.5 -12t-33.5 -12l-425 24h495zM648 476q-12 -6 -24 -13q-15 -7 -26 -7l-403 20h453zM609 437q-59 -21 -74 -20l-410 20h484zM577 383
h-466v14h466v-14zM561 346h-419v14h419v-14zM561 309h-388v14h388v-14zM561 256h-458v14h458v-14zM594 182h-391l317 16q47 3 74 -16zM727 97h-500l429 23q9 1 31.5 -11.5t34.5 -12.5zM648 135h-437l421 23q0 -15 16 -23zM577 219h-458v14h458v-14z" />
    <glyph glyph-name="I" unicode="I" 
d="M886 662l-51 -59l-10 8l50 58zM800 718l-42 -67l-11 5l41 66zM705 767l-24 -83h-12l25 83h11zM605 783l-8 -83h-14l8 83h14zM510 692h-12l-16 83h12zM425 671l-12 -4l-33 77h12zM347 626l-11 -8l-50 75l11 7zM922 -16l-35 -36l-59 57q0 9 36 45q9 -17 58 -66zM291 579
l-8 -7l-66 65l8 9zM835 -97q-14 -4 -44 -9q-12 25 -32 76q9 1 26 17q39 -38 50 -84zM228 507l-7 -11l-67 54l8 11zM749 -136q-9 1 -43 -17q-17 49 -25 92q24 0 25 9q29 -30 43 -84zM194 415l-87 24v12l87 -24v-12zM648 -159q-15 -4 -45 -9q-2 11 -5 33q-3 26 -3 59h45
q0 -59 8 -83zM179 354v-6q0 -25 -19 -25q-74 0 -74 24q0 9 32 9q10 0 30.5 -1t30.5 -1zM546 -76q0 -30 -3 -56l-5 -36q-9 0 -27 4t-26 5q2 5 10 42q5 27 15 41h36zM179 267q-5 -18 -36 -28q-24 -8 -48 -8q0 3 1.5 9.5t1.5 10.5q0 6 -4 6h2q-2 0 83 10zM461 -70
q-9 -28 -24 -66q-3 -5 -19 -5t-27 6q9 29 34 83q13 -4 36 -18zM204 167l-85 -41v11l80 41zM375 -30l-50 -76q-17 17 -27 17q10 31 40 76q5 0 18.5 -8.5t18.5 -8.5zM242 95q-15 -30 -67 -61q-5 10 -19 28q18 11 37.5 22t39.5 11h9zM295 34q-1 -14 -22 -42t-36 -36l-18 20z
" />
    <glyph glyph-name="J" unicode="J" 
d="M867 616q-9 -19 -51 -58l-58 58l58 59q21 -21 51 -59zM937 505q-37 -14 -67 -33q-9 19 -42 67q12 6 67 42q25 -25 42 -76zM781 695q-10 -10 -23 -32q-18 -32 -19 -35q-10 11 -32 23q-32 17 -35 19q13 22 33 67q26 -8 76 -42zM976 396l-75 -25q-5 25 -18 75l76 25
q4 -25 17 -75zM671 759l-12 -44q-10 -32 -22 -32q-13 0 -66 18l25 75q50 -17 75 -17zM983 270h-76v76h76v-76zM546 707h-84v76h84v-76zM976 228q-4 -28 -17 -84q-2 1 -76 25q4 13 9 38.5t9 37.5q49 -17 75 -17zM437 700q-8 0 -75 -17q-3 5 -26 68l76 25q8 -25 25 -76z
M937 111q0 -20 -33 -68q-18 0 -68 33q10 23 34 68q22 -13 67 -33zM336 679q-17 -17 -68 -51q-5 12 -41 67q24 17 75 42q9 -21 34 -58zM875 -1l-50 -51q-38 20 -59 51q8 19 50 59zM250 616l-59 -58q-21 20 -50 58q7 16 20 32q17 19 30 19t32 -20q14 -15 27 -31zM781 -79
q-11 -11 -58 -43q-15 10 -29 31q-11 18 -22 37q14 6 67 41q8 -15 42 -66zM180 539q-7 -14 -42 -67q-22 13 -67 33q7 23 42 76q11 -10 32 -22q30 -17 35 -20zM671 -144q-3 1 -7 1q-17 0 -68 -17q-4 13 -25 76q14 0 38 6q32 9 38 10q8 -25 24 -76zM132 446q-8 -25 -25 -75
q-45 17 -75 17q8 28 25 83zM546 -168h-84v84h84v-84zM108 270h-83v76h83v-76zM437 -85q-16 -48 -17 -75q-25 8 -75 16q3 27 17 76q26 -3 75 -17zM132 169q-33 -10 -75 -25l-25 76l75 25zM336 -54q-23 -68 -39 -68q-10 0 -31 14q-16 9 -31 19q0 19 33 68q18 0 68 -33zM180 77
q-23 -14 -67 -43q-10 8 -23 32q-19 34 -20 35q10 11 33 23q31 17 35 20q9 -18 42 -67zM250 -1q-38 -40 -58 -51q-14 5 -51 43q19 38 50 59q17 -8 59 -51z" />
    <glyph glyph-name="K" unicode="K" 
d="M937 505q-37 -14 -67 -33q-9 19 -42 67q12 6 67 42q25 -25 42 -76zM781 695q-10 -10 -23 -32q-18 -32 -19 -35q-10 11 -32 23q-32 17 -35 19q13 22 33 67q26 -8 76 -42zM983 270h-76v76h76v-76zM546 707h-84v76h84v-76zM937 111q0 -20 -33 -68q-18 0 -68 33q10 23 34 68
q22 -13 67 -33zM336 679q-17 -17 -68 -51q-5 12 -41 67q24 17 75 42q9 -21 34 -58zM781 -79q-11 -11 -58 -43q-15 10 -29 31q-11 18 -22 37q14 6 67 41q8 -15 42 -66zM180 539q-7 -14 -42 -67q-22 13 -67 33q7 23 42 76q11 -10 32 -22q30 -17 35 -20zM546 -168h-84v84h84
v-84zM108 270h-83v76h83v-76zM336 -54q-23 -68 -39 -68q-10 0 -31 14q-16 9 -31 19q0 19 33 68q18 0 68 -33zM180 77q-23 -14 -67 -43q-10 8 -23 32q-19 34 -20 35q10 11 33 23q31 17 35 20q9 -18 42 -67z" />
    <glyph glyph-name="L" unicode="L" 
d="M952 346q7 -95 -59 -168t-163 -73q-81 0 -147 54.5t-74 133.5h-26q32 -115 79 -170q61 -73 165 -73q138 0 208 125q-12 -68 -79.5 -120t-136.5 -52q-106 0 -176 86q-66 80 -64 188q-19 -14 -19 -68q0 -108 62 -182q67 -79 173 -79q30 0 76.5 17t62.5 37
q-25 -38 -73 -61.5t-97 -23.5q-93 0 -163.5 68.5t-70.5 162.5q0 15 17 71l24 74q-88 -80 -88 -180q0 -80 69 -160q72 -84 152 -84q28 0 53 12q-54 -19 -79 -19q-97 0 -165.5 65.5t-68.5 161.5q0 65 15 97q10 22 41 50q38 33 59 62q-79 -6 -127 -73q-43 -61 -43 -144
q0 -173 164 -223q-86 4 -148.5 68.5t-62.5 150.5q0 107 66 167q63 56 165 56q35 0 35 55q0 86 -73.5 152t-161.5 66q-62 0 -116 -30q-57 -32 -84 -87q10 68 82 118q67 46 138 46q94 0 164 -86q66 -81 66 -179q0 -12 -2 -24q26 30 26 106q0 108 -78 172q-72 59 -182 59
q-42 0 -106 -39q16 25 71.5 51t87.5 26q92 0 165 -69.5t73 -160.5q0 -16 -17 -71l-24 -74q88 61 88 176q0 108 -76 174q-72 63 -182 60q11 1 33 6.5t34 5.5q96 0 163 -65t67 -161q0 -99 -102 -202q69 17 107 77q34 54 34 128q0 86 -44.5 146.5t-127.5 82.5h34q74 0 132 -77
q53 -71 53 -148q0 -55 -61 -143q-65 -94 -121 -94q-23 0 -41 19l-13 -17q11 0 33.5 -3.5t34.5 -3.5q97 0 160 67t63 164q0 106 -78 173q46 -15 85.5 -76.5t39.5 -112.5q0 -128 -86 -181q-64 -40 -190 -40q-24 0 -53 1q65 -49 145 -49q93 0 161.5 68.5t68.5 161.5
q0 16 -18 90q42 -52 42 -129q0 -94 -66.5 -158.5t-160.5 -64.5q-85 0 -181 71q55 -125 205 -125q94 0 166.5 70.5t63.5 163.5zM492 334q-12 -18 -27 -18q-9 0 -27.5 3.5t-27.5 3.5q-97 0 -159.5 -66t-62.5 -164t77 -174q-117 70 -117 194q0 93 67 163.5t160 70.5
q17 0 50.5 -9t51.5 -9q-24 24 -66.5 40.5t-78.5 16.5q-93 0 -163 -70t-70 -163q0 -52 24 -103q-28 48 -35 67q-10 28 -10 74q0 95 64 160.5t159 65.5q54 0 82 -12q13 -6 41 -28.5t61 -34.5q-67 130 -208 130q-92 0 -157.5 -63.5t-68.5 -155.5q-12 15 -12 35q0 88 73 159.5
t161 71.5q71 0 144 -58t75 -127z" />
    <glyph glyph-name="M" unicode="M" 
d="M999 471l-24 -61q-220 -8 -327 -85q40 -1 116.5 14.5t114.5 15.5q15 0 42 -4.5t39 -5.5q-10 -33 -139 -58l-166 -28q-40 -116 -124 -187q-90 -77 -207 -77q-127 0 -225.5 95t-98.5 222q0 128 103 223q100 93 229 93q104 0 193 -73q85 -68 121 -169q114 44 173 60
q93 26 180 25zM984 455h-65q-69 0 -254.5 -77.5t-199.5 -77.5q-32 0 -40 47q0 -8 -5.5 -25t-5.5 -26q0 -15 18 -27h40q9 0 127 52q129 56 148 62q65 15 129 31q103 25 108 41zM944 338h-88q-79 0 -228 -54t-194 -54q-48 0 -48 48q0 7 2 14q-8 -31 -8 -60q0 -20 4 -33h56
q13 0 75 26q71 30 84 33q197 55 337 51zM451 417v46h-34q-17 0 -95 -63t-86 -83q74 46 131 46q31 0 45 -16v46h-48q-9 0 -21 -6.5t-18 -6.5q-2 0 -5 2q68 51 94 51q21 0 37 -16z" />
    <glyph glyph-name="N" unicode="N" 
d="M991 572l-207 -324l207 207l-215 -316l191 199l-278 -373q45 90 45 187q0 158 -113.5 266.5t-272.5 108.5q-117 0 -207 -61l366 309l-176 -183l261 199q-15 -30 -89 -101q-65 -63 -75 -102q82 60 266 211q-28 -34 -195 -254l312 230l-199 -254l270 200l-200 -262l270 191
l-207 -285zM703 152q0 -142 -104.5 -243t-246.5 -101t-243 101t-101 243q0 138 104.5 240.5t242.5 102.5q143 0 245.5 -100.5t102.5 -242.5zM664 152q0 132 -89.5 218t-222.5 86q-131 0 -218 -89t-87 -219q0 -123 91.5 -216t213.5 -93q128 0 220 92t92 221z" />
    <glyph glyph-name="O" unicode="O" 
d="M1000 609q-45 -53 -117 -127q-118 -122 -120 -125q5 -40 5 -78q0 -170 -109.5 -277.5t-279.5 -107.5q-157 0 -264 109t-107 266q0 156 111 265.5t268 109.5q120 0 257 -86l204 195q50 -42 152 -144zM953 609q-34 34 -106 97l-484 -469q-51 51 -156 149q-62 -50 -113 -114
l269 -261z" />
    <glyph glyph-name="P" unicode="P" 
d="M820 316q0 -129 -91.5 -221t-220.5 -92q-58 0 -95 14q-18 7 -85 46q112 -36 156 -36q107 0 182.5 75.5t75.5 181.5q0 44 -18 87q-12 27 -34 59q-18 26 -18 30q0 14 23 37q18 19 36 30q41 -29 66 -95q23 -59 23 -116zM1000 308q0 -207 -144.5 -353.5t-351.5 -146.5
q-81 0 -166 31.5t-150 83.5q116 -76 269 -76q173 0 295.5 117t122.5 289q0 162 -117 293q34 44 97 106q67 -37 109 -153q36 -100 36 -191zM689 565q-12 13 -67 27q-50 13 -75 13q-109 0 -187.5 -75t-78.5 -183q0 -45 19 -94q20 -52 52 -81q-26 -42 -59 -75
q-41 40 -65.5 98.5t-24.5 116.5q0 132 92 224t225 92q40 0 90 -18t79 -45zM819 692q-48 38 -127 59q-70 18 -141 18q-175 0 -296.5 -118t-121.5 -292q0 -148 117 -289q-33 -43 -98 -106q-67 57 -107 156q-37 93 -37 188q0 206 145 353t351 147q82 0 168.5 -31.5t146.5 -84.5
z" />
    <glyph glyph-name="Q" unicode="Q" 
d="M1000 296q0 -164 -135 -315q-139 -155 -302 -155h-112q-109 0 -217 75q-102 71 -167 180q-67 113 -67 219q0 195 153 339t349 144q206 0 352 -141t146 -346zM948 313q0 146 -119 278q-122 136 -267 136h-121q-143 0 -266 -137q-119 -133 -119 -277q0 -145 119 -285
q124 -146 267 -146h112q156 0 278 140q116 134 116 291zM823 508h-107q-43 93 -104 149q119 -35 211 -149zM887 344h-123q-12 53 -27 115h115q3 -10 19 -50t16 -42v-23zM642 507h-107v155q56 -59 107 -131v-24zM887 258q0 -10 -24 -70q-3 -8 -10 -24q-1 -1 -1 -2h-106
q17 78 17 124h124v-28zM698 344h-163v115h141q7 -39 22 -115zM477 508h-115q67 113 115 154v-154zM400 657q-79 -92 -104 -149h-106q55 95 210 149zM698 237l-22 -74h-141v123h163v-49zM478 344h-163v22q0 10 10.5 44.5t11.5 48.5h141v-115zM831 118q-28 -50 -96 -99
q-63 -46 -123 -67q3 4 62 77q34 43 47 89h110zM659 118q-37 -83 -124 -171v171h124zM478 162h-141q-7 9 -10.5 43.5t-11.5 44.5v36h163v-124zM276 439q0 -10 -13.5 -44t-13.5 -51h-124v44q0 3 14.5 31.5t16.5 39.5h120v-20zM477 -53q-39 32 -70 80q-27 45 -53 91h123v-171z
M267 162h-115l-27 58v66h124q-1 -7 -1 -16q0 -16 9.5 -45.5t9.5 -38.5v-24zM400 -46q-83 31 -126 60q-58 39 -93 104h107q40 -92 112 -164z" />
    <glyph glyph-name="R" unicode="R" 
d="M766 304q0 -45 -10 -74h-497q-17 47 -17 74q0 102 80 182t182 80t182 -80t80 -182zM741 184h-466v13h466v-13zM710 141h-412v13h412v-13zM681 114q-71 -64 -177 -64q-40 0 -86 19l-82 34h328q11 0 17 11zM742 309v35q0 74 -84 134q-77 56 -154 56q-76 0 -150 -53
q-80 -58 -80 -131v-41h468zM616 317h-217q5 38 38 69t71 31t70 -32q29 -29 38 -68z" />
    <glyph glyph-name="S" unicode="S" 
d="M578 308q0 -29 -22.5 -49.5t-51.5 -20.5q-27 0 -50.5 20t-23.5 46q0 23 25 48.5t49 25.5q26 0 50 -22t24 -48zM716 386q-8 -91 -63 -159q-62 -75 -149 -75q-71 0 -142 72t-71 143v50q57 -211 217 -211q148 0 208 180z" />
    <glyph glyph-name="T" unicode="T" 
d="M844 304q0 -152 -94 -242t-246 -90q-150 0 -245 91.5t-95 240.5q0 137 101.5 238.5t238.5 101.5q149 0 244.5 -95.5t95.5 -244.5zM790 273l-3 27q-69 -31 -107 -31q-37 0 -65.5 23t-28.5 59q0 35 26 70t60 35q19 0 37 -18t18 -36q0 -22 -54 -29q-3 -9 -3 -20q0 -12 3 -21
h49q19 0 32 26q12 23 12 44q0 74 -100 134q-90 53 -170 53q-33 0 -97 -28q-68 -30 -78 -56q117 -39 117 -107q0 -47 -29 -72.5t-77 -25.5q-24 0 -45 14t-21 37q0 27 36 58q19 -14 56 -30l9 34q-3 9 -26.5 26t-31.5 17q-40 0 -68 -58q-22 -49 -22 -94q0 -71 57 -159
q63 -96 129 -94q-2 16 -2 33q0 52 20 90q26 48 73 48q35 0 70.5 -33.5t35.5 -68.5q0 -54 -59 -54q-31 0 -31 39q0 7 2 30l-35 8q-26 -25 -26 -46q0 -27 24 -48.5t50 -21.5q86 0 174.5 80.5t88.5 165.5z" />
    <glyph glyph-name="U" unicode="U" horiz-adv-x="734" 
d="M711 242q0 -29 -40 -68q-31 -29 -61 -58q-48 -5 -70 -25h-78q-10 17 -70 24q-5 13 -33 37q-31 28 -45 51q-23 39 -23 95q0 80 56.5 144t133.5 64l50 8q6 -10 70 -24q45 -42 95 -95q0 -1 4 -20q3 -13 11 -17v-116zM612 445q-32 15 -66 37q-77 -8 -99 -8q-18 0 -41 -17
q-27 -19 -38 -22q1 -24 -24 -30l-8 -34q-6 -21 -15 -31v-83q3 -5 16 -41q10 -27 24 -30q0 18 3 23h45v47h47v47h47v47h44v47h47v48h18z" />
    <glyph glyph-name="V" unicode="V" horiz-adv-x="749" 
d="M555 497h-6q-1 -2 -1 -8h-8q-1 -2 -1 -8h-6q-1 -1 -1 -7h-6q-1 -3 -1 -9h-8q-1 -1 -1 -7h-6q-1 -4 -1 -16h-16v8q-1 1 -7 1v6q-3 1 -9 1v6q-2 1 -8 1v8q-1 1 -7 1v6q-3 1 -9 1v7q-1 1 -7 1v7q-1 2 -7 2v7h29q2 1 1 7h56v-7q15 -1 30 0v-8zM704 248h-7q-1 -5 -1 -17h-6
q-2 -4 -2 -16h-6l-1 -14h-7q-2 -4 -2 -16h-6q-1 -4 -1 -16h-7v7l-9 1v14l-7 1v15l-9 1v15l-7 1v14l-7 1v15l-9 1v15l-8 1v13l-7 2v14l-9 2v6l-7 1v15l-7 1v15l-9 1v14l-7 1v7l-8 2v13l-8 1v8l-8 1v6l-7 1v7h13l2 9h7q1 4 1 16h7l1 7h6l1 8h8l1 8h6l1 8h6l1 7h8l1 9h23v-8
l8 -1v-6l7 -1v-6l9 -2v-7l7 -1v-6l9 -2v-6l7 -1v-8l7 -1v-6l9 -1v-8l7 -1v-22l8 -1v-30l8 -1v-100zM618 129h-15l-1 -7h-6l-1 -8h-22l-2 -8h-22l-1 -8h-102v7h-23v8q-4 2 -16 2v6l-15 1v6q-4 1 -16 1v9h6l1 14h9v32h6q1 4 1 16h6l2 15h7q1 4 1 16h6q2 6 2 16h6l1 15h7l2 9h6
q1 4 1 14h6q1 4 1 16h8q1 6 1 16h6l1 8h6q2 4 2 16h7l2 7h6l1 7h16v-13l7 -1v-8l9 -1v-13l7 -2v-7l7 -1v-14l9 -1v-15l7 -1v-15l8 -1v-6l8 -2v-14l8 -2v-13l7 -1v-15l9 -1v-15l7 -1v-30l7 -1v-15l9 -1v-16zM469 388h-6l-1 -9h-8l-1 -7h-6l-1 -8h-6q-2 -4 -2 -16h-7
q-1 -4 -1 -16h-6l-2 -14h-6l-1 -9h-7q-2 -5 -2 -15h-6q-1 -4 -1 -16h-6q-1 -4 -1 -16h-8l-1 -14h-6q-2 -5 -2 -17h-5q-2 -4 -2 -16h-7l-2 -14h-6q-1 -4 -1 -16h-7q-2 -4 -2 -16h-7v7l-7 1v14l-9 1v15l-7 1v15l-7 1v13l-9 2v38l-7 1v54h7v23h8v33h7l1 7h6q1 4 1 16h8
q1 5 1 16h6l1 7h7l1 8h7l2 8h6l1 8h7l2 7h13l1 9h16v-8l7 -1v-6q4 -1 16 -1v-6l8 -2v-14l8 -2v-6l8 -1v-8l7 -1v-6l9 -1v-8l7 -1v-14z" />
    <glyph glyph-name="W" unicode="W" horiz-adv-x="723" 
d="M711 304q0 -88 -59.5 -143.5t-147.5 -55.5q-89 0 -148 55t-59 144q0 82 62.5 144.5t144.5 62.5q81 0 144 -63t63 -144zM672 312q0 31 -6 47q-4 13 -24 42q16 -28 16 -62q0 -73 -58 -126q33 83 33 95q0 20 -21 50q1 -37 -2 -52q-5 -25 -26 -45q0 53 -11 94q2 -8 2 -15
q0 -63 -71 -63q-70 0 -70 78q-20 -40 -20 -47q0 -11 8.5 -27.5t9.5 -23.5q-38 24 -38 74q0 5 1 20v19q-4 -28 -7 -57q-5 -39 -17 -52q-18 30 -16 93l1 32q-1 -4 -16 -40q-12 -27 -12 -38q0 -68 54 -120t122 -52q79 0 123.5 48t44.5 128z" />
    <glyph glyph-name="X" unicode="X" 
d="M1000 300q0 -198 -152 -336q-148 -133 -348 -133q-210 0 -347 137.5t-137 347.5q0 206 143 353t349 147q200 0 348 -159q144 -155 144 -357zM904 458q-23 114 -156 206q-128 89 -248 89q-112 0 -244 -93q-135 -96 -161 -201h292q35 104 49 137q31 76 71 126
q45 -90 64 -130q35 -74 57 -134h276zM938 316q0 23 -10 69.5t-11 70.5q-41 -35 -113 -83q-93 -62 -116 -78q16 -49 57 -145t58 -147q53 55 94 147.5t41 165.5zM797 -4q-75 51 -150 101q-120 78 -147 78q-24 0 -146 -79q-76 -50 -151 -100q58 -42 146 -78q98 -40 159 -40
q70 0 156 33q91 36 133 85zM312 311q-137 82 -230 128q0 -22 -9.5 -65.5t-9.5 -65.5q0 -65 44 -161q41 -88 89 -144q65 130 116 308z" />
    <glyph glyph-name="Y" unicode="Y" horiz-adv-x="812" 
d="M789 308q0 -127 -81 -204t-208 -77q-117 0 -203 82t-86 199q0 109 86 199t195 90q126 0 211.5 -82t85.5 -207zM734 308q0 90 -72 162t-162 72q-12 0 -31 -5q-23 -5 -31 -6q86 -5 155 -70q71 -68 71 -153q0 -93 -74.5 -157t-167.5 -57q38 -13 70 -13q100 0 171 64t71 163z
M617 308q0 55 -42 112.5t-96 57.5h-80q91 -54 101 -63q39 -37 39 -107q0 -69 -44 -114t-112 -46l77 -4q69 0 113 47t44 117zM508 308q0 51 -41 92t-92 41t-88 -40.5t-37 -92.5q0 -55 35 -90t90 -35q53 0 93 36t40 89z" />
    <glyph glyph-name="Z" unicode="Z" 
d="M1000 43l-883 -13q39 6 117 17q-13 9 -39 13q-40 6 -41 7q-25 47 -72 105q-44 54 -58 86q-24 54 -24 140q0 183 142 282q123 87 311 87q-110 -15 -182 -91q-76 -79 -76 -188q0 -103 76.5 -184.5t177.5 -81.5q58 0 112 16q65 20 96 56q-20 0 -60.5 -8.5t-61.5 -8.5
q-76 0 -141.5 63.5t-65.5 139.5q0 79 67 141t148 62q106 0 171 -90q59 -81 59 -191q0 -127 -78 -238l55 -16q-40 0 -78 -10q6 -9 32 -11q19 -2 51 -1q43 2 39 2q74 0 112 -22h-268l-29 -21q52 -10 129 -10q38 0 109.5 3t101.5 3l35 -21h-430l-15 -17h461zM999 -15h-880v13
h880v-13zM984 -46q-19 -19 -32 -19h-804zM914 -94q-41 -20 -52 -20h-607q-11 0 -22.5 7t-21.5 13h703zM727 -133q-140 -20 -168 -20q-38 0 -215 20h383z" />
    <glyph glyph-name="a" unicode="a" horiz-adv-x="737" 
d="M710 278h-138v224q41 -15 87 -61q51 -51 51 -89v-74zM703 244q-15 -28 -60 -76q-50 -53 -72 -54v130h132zM538 278h-248v48q0 62 65 127t126 65h57v-240zM538 105h-88q-34 0 -91.5 52.5t-60.5 86.5h240v-139z" />
    <glyph glyph-name="b" unicode="b" horiz-adv-x="731" 
d="M718 317l-9 1q-27 2 -42 -26q-8 46 -11 64q-8 35 -19 61q-24 -73 -55 -211l-47 297q-46 -121 -62 -195q-12 42 -31 70q-29 -57 -40 -94q-7 43 -31 125q-15 -31 -45 -92h-36q9 83 70 142.5t144 59.5q63 0 136 -52q78 -55 78 -115v-35zM717 291q-15 -126 -137 -185l57 217
q0 -50 24 -109q10 23 20 45q12 26 36 32zM570 107q-30 -10 -74 -10q-172 0 -205 194q3 -1 9 -1q20 0 40 14.5t23 34.5q8 -45 32 -133q12 23 47 110q12 -37 38 -86q20 53 47 164z" />
    <glyph glyph-name="c" unicode="c" horiz-adv-x="734" 
d="M711 304q0 -88 -59.5 -143.5t-147.5 -55.5q-89 0 -148 55t-59 144q0 82 62.5 144.5t144.5 62.5q81 0 144 -63t63 -144zM678 316v36q0 39 -62.5 83.5t-111.5 44.5q-69 0 -116 -49q-42 -43 -59 -114q28 10 39 30q19 32 26 39l24 -102q13 40 39 79q11 -19 23 -55q6 34 21 82
q26 80 26 82q29 -146 39 -242l47 164q10 -34 23 -102q13 25 35 25q4 0 7 -1zM678 264v36q-27 -27 -42 -70q-22 45 -22 86l-43 -171q29 5 68 48t39 71zM562 137q-21 136 -34 241l-16 -72q-11 -43 -24 -69q-14 20 -31 71q-10 -30 -39 -86q-12 30 -31 109q-7 -37 -58 -32v-41
q0 -29 50 -75t79 -46h104z" />
    <glyph glyph-name="d" unicode="d" horiz-adv-x="746" 
d="M710 325h-68q2 31 -40 67q-34 30 -70 42v76q70 -22 118 -67q56 -53 60 -118zM578 325h-45v53q25 -13 45 -53zM710 283q0 -64 -56 -117t-121 -60v68q29 -4 69 37.5t40 71.5h68zM578 283q-15 -30 -45 -45v45h45zM484 434q-30 -5 -68 -37q-43 -35 -43 -63q0 -5 1 -9h-76
q10 67 61 118q48 49 116 67zM483 325h-53q21 42 53 52v-52zM483 238q-37 11 -53 45h53v-45zM483 105h-33q-47 0 -98 66q-47 60 -54 112h76q-1 -3 -1 -7q0 -29 41 -69t69 -33v-69z" />
    <glyph glyph-name="e" unicode="e" horiz-adv-x="746" 
d="M710 290l-6 -1q-24 0 -67 26q-37 23 -59 45q41 -3 47 -3q21 0 47 3q-18 31 -83 67.5t-101 36.5q-57 0 -108 -24q-62 -29 -70 -78q34 76 64 104q39 37 110 37q88 0 137.5 -39t70.5 -125q6 14 16 39q0 -14 1 -43.5t1 -44.5zM674 230q-44 -74 -83 -99q-42 -26 -122 -26
q-46 0 -90 29.5t-63 71.5q-8 -7 -14 -22q-9 -23 -10 -24q0 94 9 148q3 -25 47 -56q33 -22 66 -43q-23 1 -55 -15q59 -42 161 -42q122 0 154 78z" />
    <glyph glyph-name="f" unicode="f" horiz-adv-x="723" 
d="M680 123h-366v368h366v-368zM619 373v23q-16 12 -40 39q-10 2 -25 14h-21q-13 1 -17 9h-22q18 -14 32 -41t16 -50q9 0 20.5 -11.5t17.5 -13.5q4 13 15.5 19t23.5 12zM650 256v93q-10 11 -12 14q-6 8 -6 17q-5 -20 -19 -43q-16 -26 -32 -36q-7 -15 -17 -45q8 0 18.5 -7
t13.5 -7h45q0 9 9 14zM502 381v54q-7 11 -19 22l-5 -7h-11q-27 0 -50 -20q-26 -23 -42 -25v-2q0 1 -3 -31q4 9 27 9q9 0 27.5 -4.5t27.5 -4.5q7 0 23 5t25 4zM627 209v16h-78q-3 3 -3 8l-12 -8h-39v-30q7 -4 10 -18q3 -19 4 -21h37q16 0 81 53zM430 350q-4 -2 -7 -2
q-10 0 -24 18h-38q0 -12 -8.5 -35t-8.5 -35q0 -13 8.5 -36.5t8.5 -34.5h14q2 43 46 79zM503 148q-47 49 -42 85q-36 15 -31 30h-16q-13 -26 -39 -39v-23q2 -2 24 -13q15 -7 15 -18q38 0 65 -22h24z" />
    <glyph glyph-name="g" unicode="g" 
d="M1000 292q0 -54 -51 -54q-46 0 -46 45q0 15 6 41q-28 -42 -71 -148q-38 -92 -73 -135q-53 -65 -143 -90q-54 -7 -107 -14q-77 -14 -77 -55q0 -21 14.5 -36t35.5 -15q23 0 43 21l-5 34l-3 -30q-15 -7 -33 -7l-37 16q1 19 15 39.5t32 20.5q12 0 33.5 -20t21.5 -31
q0 -28 -19 -43t-48 -15q-27 0 -46.5 14t-19.5 41q0 28 24 64q-117 20 -211.5 122t-107.5 220q-34 -24 -57 -24q-22 0 -42 21.5t-20 45.5q0 25 16.5 41.5t41.5 16.5q26 0 35.5 -20.5t18.5 -41.5q27 124 94 216q78 107 188 132q51 8 103 15q65 15 65 59q0 21 -14.5 33.5
t-35.5 12.5q-22 0 -44 -20l5 -34q12 24 47 47q27 -24 27 -43q0 -36 -47 -36q-19 0 -37 14.5t-18 32.5q0 22 26 42.5t48 20.5q27 0 43 -25.5t16 -54.5q0 -38 -31 -56q108 -11 214.5 -117.5t119.5 -215.5q12 7 26 15.5t26 8.5q26 0 42.5 -22.5t16.5 -48.5zM967 320v14l-44 8
v-13zM964 289l-19 29l-10 -8l18 -27zM538 725h-54q6 1 18 -1t16 -2q8 7 9 31zM981 303l-1 9q0 -22 -31 -51q0 1 -21 14q-7 10 -8 10t-1 -1q0 -9 12 -30h35q15 14 15 49zM852 292q0 156 -212 147q32 39 32 68q0 60 -48 102.5t-108 42.5q-56 0 -102.5 -47t-46.5 -102
q0 -10 6.5 -29.5t6.5 -30.5l-2 -10q-53 39 -85 39q-53 0 -95 -47.5t-42 -101.5q0 -93 61 -123q40 -19 138 -17q-6 -28 -6 -65q0 -154 139 -154q152 0 152 174q0 18 -1 38q50 -24 84 -24q56 0 92.5 41.5t36.5 98.5zM93 318q0 10 -4 24.5t-4 19.5h-36q-15 -15 -15 -30
q11 11 31 23q11 -9 22 -25l-24 -9q5 -10 14 -10t16 7zM522 -113q0 7 -35 14q-9 -9 -9 -25q0 -8 3 -9q15 21 33 21q4 0 8 -1zM111 308q-12 -24 -37 -24q-7 0 -18.5 3t-16.5 3q7 -8 13 -14.5t18 -6.5q18 0 41 39zM42 293l-9 37h-13l9 -37h13zM836 280q0 -50 -37 -81.5
t-88 -31.5q-45 0 -77 30.5t-32 75.5q0 44 28.5 74.5t72.5 30.5q29 0 57.5 -32.5t28.5 -61.5q0 -23 -27 -46.5t-51 -23.5q-16 0 -39.5 21.5t-23.5 37.5q0 22 14.5 40t36.5 18q12 0 25 -13l18 -22q-20 -22 -46 -30l12 33h-22q-6 0 -6 -22q0 -25 28 -25q30 0 36 4.5t6 31.5
q0 22 -15 40.5t-36 18.5q-26 0 -46 -23.5t-20 -50.5q0 -36 23 -55.5t59 -19.5q40 0 65 25.5t25 64.5q0 47 -27.5 76.5t-74.5 29.5q-51 0 -88 -37t-37 -88q0 -25 27.5 -82.5t27.5 -81.5q0 -41 -48 -83t-89 -42q-54 0 -94 35q-43 37 -43 90q0 39 33.5 78t72.5 39
q42 0 77.5 -32t35.5 -74q0 -32 -25 -57t-57 -25q-42 0 -67.5 25t-22.5 66l1 10q32 32 62 32q21 0 41.5 -15t20.5 -36q0 -16 -23 -24l-38 -10q-8 18 -7 34l1 12q8 -13 17 -13l11 2l-27 27q-27 0 -27 -39q0 -40 45 -40q28 0 46 16t18 43q0 59 -78 59t-78 -78q0 -86 97 -86
q47 0 76.5 26t29.5 71q0 48 -37 85t-84 37q-30 0 -90.5 -23.5t-89.5 -23.5q-50 0 -85.5 42.5t-35.5 93.5q0 48 37 84.5t84 36.5q45 0 83 -35.5t38 -81.5q0 -30 -35.5 -61.5t-65.5 -31.5q-33 0 -63.5 28.5t-30.5 60.5q0 23 26 49t48 26q27 0 46.5 -18t19.5 -45
q0 -23 -12.5 -39t-33.5 -16q-22 0 -47 26q12 28 36 45q3 -7 1 -16q-3 -14 -3 -17l2 -7l27 6v30q0 6 -12.5 12.5t-19.5 6.5q-16 0 -27.5 -15t-11.5 -32q0 -54 51 -54q28 0 47 19t19 47q0 39 -23.5 60.5t-62.5 21.5q-32 0 -59 -32t-27 -65q0 -42 31.5 -70t74.5 -28
q52 0 82.5 30.5t30.5 82.5q0 27 -15.5 82t-15.5 82q0 59 35.5 98t93.5 39q50 0 89 -37t39 -88q0 -48 -32.5 -78.5t-80.5 -30.5q-97 0 -97 89q0 90 82 90q29 0 55.5 -21t26.5 -49q0 -25 -17 -44t-42 -19q-23 0 -58 18v59q27 9 52 9q8 -19 8 -37l-1 -9q-6 15 -22 20
q-2 -31 12 -31q5 0 9 3q20 0 28 12v30q-24 28 -51 28q-25 0 -42 -18.5t-17 -43.5q0 -55 74 -55q82 0 82 82q0 40 -30 62q-26 20 -67 20q-44 0 -75 -27t-31 -71q0 -52 34 -82.5t87 -30.5q48 0 103 23.5t69 23.5q57 0 94 -49q35 -45 35 -104z" />
    <glyph glyph-name="h" unicode="h" 
d="M953 304q0 -154 -107 -293v586q57 -74 81 -137q26 -70 26 -156zM789 646h-570q50 46 134.5 76.5t154.5 30.5t149 -30q75 -30 132 -77zM671 153h-334v318h334v-318zM812 -15q-122 -123 -304 -123q-186 0 -312 123h616zM169 11q-47 52 -80.5 138t-33.5 155q0 154 114 293
v-586z" />
    <glyph glyph-name="i" unicode="i" 
d="M875 308q0 -159 -109.5 -259.5t-269.5 -100.5q-146 0 -254.5 107t-108.5 253t112.5 256.5t258.5 110.5q148 0 259.5 -109.5t111.5 -257.5zM828 308q0 107 -81 210q-86 110 -189 110h-65v-116q89 -6 148 -60q62 -58 62 -144q0 -77 -55.5 -137.5t-130.5 -60.5q-12 0 -24 2
v-116h72q102 0 185 107q78 100 78 205zM491 113v397q-82 -12 -136 -65q-58 -57 -58 -137q0 -66 47 -128q51 -67 114 -67h33z" />
    <glyph glyph-name="j" unicode="j" horiz-adv-x="737" 
d="M688 300q0 -86 -94 -86q-39 0 -78 26q3 12 11 21q33 -31 67 -31q32 0 55 21t23 53q0 27 -28 49q-36 29 -42 39h9q30 2 53.5 -29t23.5 -63zM586 390q0 -90 -98 -90q-45 0 -77 37q55 -21 81 -21q32 0 55 21.5t23 52.5q0 38 -31 58q-26 16 -66 16q-35 0 -61 -30
q8 14 33.5 34t38.5 20q43 0 72.5 -28t29.5 -70zM484 251q-10 -10 -38 -27.5t-40 -17.5q-35 0 -64 29t-29 65q0 40 31.5 67t71.5 27q35 0 67 -42q-51 26 -73 26q-29 0 -51.5 -24.5t-22.5 -53.5q0 -70 74 -70q9 0 74 21zM495 137h-14v91h14v-91z" />
    <glyph glyph-name="k" unicode="k" horiz-adv-x="757" 
d="M718 106h-428v412h428v-412zM695 308q0 33 -15 52l-42 40h-36q25 -18 70 -57v-69q-57 -36 -74 -36t-82 21q7 -6 43 -25.5t43 -19.5q31 0 62 28.5t31 65.5zM594 394q0 29 -28 62q-33 39 -78 39q-17 0 -44 -21q-23 -18 -33 -32q15 11 40.5 20.5t40.5 9.5q78 0 78 -74
q0 -75 -78 -75q-20 0 -35 8q-1 0 -41 23q-1 -22 28 -36q23 -10 48 -10q34 0 61 15q41 22 41 71zM492 356q-39 46 -74 46q-38 0 -71.5 -30.5t-33.5 -63.5q0 -29 21 -58q28 -36 72 -36q21 0 47 12q32 14 33 34q-39 -22 -80 -22q-35 0 -47 7q-23 14 -23 63q0 26 20 50
q22 28 54 28q12 0 39 -12q39 -16 43 -18zM503 145v91h-14v-91h14z" />
    <glyph glyph-name="l" unicode="l" 
d="M979 352q0 -168 -167 -290q33 -9 102 -6q-34 -37 -69 -73q-41 -43 -74 -66l-225 -6q21 -30 71 -78h-201l-161 162q-8 -30 -7 -101q-47 45 -138 135v240l-77 -62q5 27 2 68q-4 61 -4 68q0 39 32 80q17 22 68 69q47 43 65 68q-32 10 -94 8q41 47 127 137h232l-62 76l151 4
q45 1 110 -64q47 -51 93 -101q10 33 7 102q83 -84 138 -127l6 -241q19 12 70 63q5 -35 5 -65zM875 334v245q-31 29 -91 88v-421zM749 464v130l-165 166h-138zM954 330q0 17 -4 32l-293 -295h130q167 153 167 263zM570 591q-91 92 -114 92h-219q-42 -55 -80 -92h413zM758 201
v222q-143 143 -161 143h-178q-18 0 -169 -151v-214q48 -47 143 -143h222zM859 32h-421q43 -58 88 -91h245q29 30 88 91zM351 556h-122l-173 -172v-123zM562 -143l-303 294v-130q79 -84 116 -112q73 -55 147 -55q19 0 40 3zM224 -51v421l-91 -88v-245q31 -29 91 -88z" />
    <glyph glyph-name="m" unicode="m" 
d="M968 541q-28 -31 -56 -61q-45 -47 -58 -47h-48q0 4 -4.5 12.5t-4.5 18.5q0 12 42 46q-13 -12 -13 -43q47 25 142 74zM914 316q0 -45 -41 -75q-37 -27 -84 -27q-34 0 -62 20q-32 22 -32 54q0 50 73 112h36q-25 -25 -49 -50q-28 -33 -28 -62q0 -25 20 -41.5t46 -16.5
q33 0 61.5 26.5t28.5 59.5q0 19 -10.5 36.5t-28.5 17.5q-19 0 -46 -14q29 30 50 30q24 0 45 -23t21 -47zM648 548q-32 -35 -63 -71q-40 -44 -77 -44q-13 0 -26 11t-13 24q0 15 19 27t35 13q-31 -14 -31 -31q5 -5 7 -5q25 0 75 30zM617 323q0 -37 -45 -69t-84 -32t-66 19
q-31 21 -31 59q0 42 34 75t75 32l8 -1q-86 -44 -86 -106q0 -36 17 -47q12 -8 49 -8q90 0 90 78q0 55 -31 55q-11 0 -31.5 -6t-31.5 -6q5 1 36 16q23 12 35 12q24 0 43 -23t19 -48zM320 548q-106 -108 -123 -108q-11 0 -24 4.5t-16 5.5v43q22 23 38 24q-16 -20 -17 -42
q24 12 71 37t71 36zM991 240q-30 -51 -79 -102q-63 -65 -103 -65t-73 31l-50 56q-28 31 -53 31q-12 0 -86 -59t-86 -59q-34 0 -63 31q-5 5 -42 56q-22 31 -40 31q-4 0 -34 -33q-38 -40 -64 -60q-41 -32 -73 -32q-45 0 -86 50q-32 39 -49 90l33 -31l7 31q18 -28 47 -48
q33 -22 63 -22q37 0 73 28q8 7 53 53q28 28 46 28q29 0 66.5 -54.5t70.5 -54.5q37 0 85 54.5t91 54.5q32 0 85 -62.5t75 -62.5q17 0 84 53q74 58 102 67zM297 308q0 -94 -117 -94q-94 0 -94 70q0 40 29 73.5t69 33.5q5 0 11 -1q-30 -6 -54 -38.5t-24 -63.5q0 -32 12.5 -45
t42.5 -13q94 0 94 90q0 22 -7 32.5t-29 10.5t-50 -15q30 30 58 30q29 0 44 -20.5t15 -49.5z" />
    <glyph glyph-name="n" unicode="n" 
d="M851 525q-9 -45 -71 -77q-52 -23 -103 -46q6 25 55 78.5t68 53.5q12 0 28 -4t23 -5zM960 329q-7 -45 -62 -45q-23 0 -69.5 9.5t-70.5 9.5q35 26 52 33q25 11 60 11q38 0 90 -18zM609 620q0 -18 -83 -164q2 92 3 100q6 58 28 95h42q10 -8 10 -31zM391 567q0 -92 -33 -111
q-53 129 -53 160q0 18 12.5 30.5t30.5 12.5q43 0 43 -92zM703 195q0 -93 -68 -148q-64 -52 -158 -52q-120 0 -156 77l60 -14q37 -8 60 -8q82 0 141 51.5t59 132.5q0 57 -18 83q-7 11 -33 27q-18 11 -18 33q53 -7 93 -69q38 -57 38 -113zM554 381q-15 5 -35 5q-78 0 -150 -62
q-75 -64 -75 -140q0 -44 26 -86q-22 7 -39 53q-15 40 -15 67q0 68 72 127q69 57 139 57q35 0 77 -21zM241 402q-103 52 -171 81q29 36 51 36q44 0 78 -36t42 -81zM172 260q0 -7 -2 -14q-56 24 -107 24q-28 0 -55 41q8 17 25 30.5t33 13.5q31 0 68.5 -32.5t37.5 -62.5z" />
    <glyph glyph-name="o" unicode="o" 
d="M696 528l-153 -144l-5 9l152 143zM750 113q0 -99 -84.5 -175t-185.5 -76q-98 0 -176 60q-85 64 -85 159q0 85 64 158q67 77 151 77q11 0 30.5 -5.5t27.5 -6.5q-108 -26 -155 -69q-56 -53 -56 -154q0 -66 52 -108q49 -40 116 -40q94 0 155 48q68 52 68 143q0 64 -35 105
q-25 32 -90 70h42q68 0 116 -60q45 -57 45 -126z" />
    <glyph glyph-name="p" unicode="p" 
d="M922 539l-12 -161q-3 81 -34 161q-14 37 -71 150q17 7 53 17q64 -150 64 -167zM849 484q-17 38 -110 112t-137 89q9 42 34 68q57 -33 124 -120q65 -83 89 -149zM826 195q-5 10 -42 66q-34 49 -34 59q0 26 37 26q12 -51 39 -151zM709 363q-156 111 -215 102v37q11 3 24 32
q61 -26 112 -69q61 -50 79 -102zM992 30q0 -60 -47.5 -106t-108.5 -46q-45 0 -89 34.5t-44 78.5q0 52 58 106.5t110 54.5q45 0 83 -38.5t38 -83.5zM109 704q-60 -47 -100 -75v75h100zM857 308q-51 106 -153 176q-106 74 -220 74q-119 0 -164 -50q21 -4 63 -4.5t62 -3.5
q-48 -18 -97 -36q-55 -22 -90 -49q17 0 52 5t53 5q101 0 199 -46q113 -53 139 -137q-62 67 -125 88q-50 17 -149 17q-17 0 -44 -5q14 -19 69 -35q39 -10 79 -19q-121 6 -127 6q-69 0 -113 -17l-14 39q-91 -76 -136 -130l5 -27q15 6 137 41q95 27 126 53q101 -11 154 -35
q66 -30 123 -100q-32 23 -89 47q-85 37 -94 41l-34 -4q84 -42 132 -96q-35 14 -81 14q-82 0 -147.5 -50.5t-81.5 -129.5q9 4 94 47q56 29 95 40l43 -13q-44 -5 -97 -52q-56 -48 -60 -91h-365v387l109 170l-9 1q-11 0 -50 -43q-24 -27 -49 -54v17q-4 108 134 209
q128 94 243 94q173 0 300 -90t178 -254zM625 -25q-16 1 -49 -32q-26 -27 -39 -49q-13 0 -30 8.5t-23 19.5q21 23 55 39t65 16q11 0 21 -2z" />
    <glyph glyph-name="q" unicode="q" 
 />
    </font>
</defs>
</svg>
