<?xml version="1.0" standalone="no"?>
<!DOCTYPE svg PUBLIC "-//W3C//DTD SVG 1.1//EN" "http://www.w3.org/Graphics/SVG/1.1/DTD/svg11.dtd" >
<svg xmlns="http://www.w3.org/2000/svg" xmlns:xlink="http://www.w3.org/1999/xlink" version="1.1">
<metadata>
Created by FontForge 20170731 at Fri Nov  1 15:48:42 2002
 By Aleksey,,,
(c)2002 Nght - NghtMvs101@aol.com
</metadata>
<defs>
<font id="101ChineseZodiac" horiz-adv-x="500" >
  <font-face 
    font-family="101! Chinese Zodiac"
    font-weight="400"
    font-stretch="normal"
    units-per-em="1000"
    panose-1="0 0 4 0 0 0 0 0 0 0"
    ascent="802"
    descent="-198"
    x-height="801"
    cap-height="802"
    bbox="-0.0533333 -198.004 1228 802"
    underline-thickness="20"
    underline-position="-163"
    unicode-range="U+0020-0079"
  />
<missing-glyph 
d="M63 0v800h375v-800h-375zM125 63h250v675h-250v-675z" />
    <glyph glyph-name=".notdef" 
d="M63 0v800h375v-800h-375zM125 63h250v675h-250v-675z" />
    <glyph glyph-name=".null" horiz-adv-x="0" 
 />
    <glyph glyph-name="nonmarkingreturn" 
 />
    <glyph glyph-name="space" unicode=" " 
 />
    <glyph glyph-name="zero" unicode="0" horiz-adv-x="1036" 
d="M1000 97l-297 -295h-408l-295 295v408l297 297h404l299 -297v-408zM963 114v377l-274 276h-378l-276 -276v-377l274 -277h382zM947 120l-265 -265h-364l-267 265v362l269 267h360l267 -267v-362zM934 126v352l-260 261h-350l-261 -261v-352l259 -258h354zM822 391h-298
v63h298v-63zM822 269h-298v62h298v-62zM822 146h-298v65h298v-65zM456 391h-298v63h298v-63zM456 269h-298v62h298v-62zM456 146h-298v65h298v-65z" />
    <glyph glyph-name="one" unicode="1" horiz-adv-x="1036" 
d="M1000 97l-297 -295h-408l-295 295v408l297 297h404l299 -297v-408zM963 114v377l-274 276h-378l-276 -276v-377l274 -275h382zM947 120l-265 -265h-364l-267 265v362l269 267h360l267 -267v-362zM934 126v352l-260 261h-350l-261 -261v-352l259 -258h354zM822 269h-298
v62h298v-62zM822 391h-664v63h664v-63zM822 146h-298v65h298v-65zM456 269h-298v62h298v-62zM456 146h-298v65h298v-65z" />
    <glyph glyph-name="two" unicode="2" horiz-adv-x="1036" 
d="M1000 97l-297 -295h-408l-295 295v408l297 297h404l299 -297v-408zM963 114v377l-274 276h-378l-276 -276v-377l274 -277h382zM947 120l-265 -265h-364l-267 265v362l269 267h360l267 -267v-362zM934 126v352l-260 258h-350l-261 -258v-352l259 -258h354zM822 269h-298
v62h298v-62zM822 391h-664v63h664v-63zM822 146h-664v63h664v-63zM456 269h-298v62h298v-62z" />
    <glyph glyph-name="three" unicode="3" horiz-adv-x="1036" 
d="M1000 97l-297 -295h-408l-295 295v408l297 297h404l299 -297v-408zM963 114v377l-274 276h-378l-276 -276v-377l274 -277h382zM947 120l-265 -265h-364l-267 265v362l269 267h360l267 -267v-362zM934 126v352l-260 258h-350l-261 -258v-352l259 -258h354zM822 391h-298
v63h298v-63zM822 269h-298v62h298v-62zM456 391h-298v63h298v-63zM822 146h-664v63h664v-63zM456 269h-298v62h298v-62z" />
    <glyph glyph-name="four" unicode="4" horiz-adv-x="1036" 
d="M1000 97l-297 -295h-408l-295 295v408l297 297h404l299 -297v-408zM963 114v377l-274 276h-378l-276 -276v-377l274 -277h382zM947 120l-265 -265h-364l-267 265v362l269 267h360l267 -267v-362zM934 126v352l-260 258h-350l-261 -258v-352l259 -258h354zM822 391h-298
v63h298v-63zM822 146h-298v63h298v-63zM822 269h-664v62h664v-62zM456 391h-298v63h298v-63zM456 146h-298v63h298v-63z" />
    <glyph glyph-name="five" unicode="5" horiz-adv-x="1036" 
d="M1000 97l-297 -295h-408l-295 295v408l297 297h404l299 -297v-408zM963 114v377l-274 276h-378l-276 -276v-377l274 -277h382zM947 120l-265 -265h-364l-267 265v362l269 267h360l267 -267v-362zM934 126v352l-260 258h-350l-261 -258v-352l259 -258h354zM822 391h-664
v63h664v-63zM822 146h-298v63h298v-63zM822 269h-664v62h664v-62zM456 146h-298v63h298v-63z" />
    <glyph glyph-name="six" unicode="6" horiz-adv-x="1036" 
d="M1000 97l-297 -295h-408l-295 295v408l297 297h404l299 -297v-408zM963 114v377l-274 276h-378l-276 -276v-377l274 -277h382zM947 120l-265 -265h-364l-267 265v362l269 267h360l267 -267v-362zM934 126v352l-260 261h-350l-261 -261v-352l259 -258h354zM822 391h-298
v63h298v-63zM822 269h-664v64h664v-64zM456 391h-298v63h298v-63zM822 146h-664v63h664v-63z" />
    <glyph glyph-name="seven" unicode="7" horiz-adv-x="1036" 
d="M1000 97l-297 -295h-408l-295 295v408l297 297h404l299 -297v-408zM963 114v377l-274 276h-378l-276 -276v-377l274 -275h382zM947 120l-265 -265h-364l-267 265v362l269 267h360l267 -267v-362zM934 126v352l-260 261h-350l-261 -261v-352l259 -258h354zM822 391h-664
v63h664v-63zM822 269h-664v64h664v-64zM822 146h-664v63h664v-63z" />
    <glyph glyph-name="at" unicode="@" 
 />
    <glyph glyph-name="C" unicode="C" horiz-adv-x="1036" 
d="M1000 97l-297 -295h-408l-295 295v408l297 297h404l299 -297v-408zM934 122v356l-260 261h-350l-261 -261v-352l259 -258h358q44 42 87 84q69 69 69 81q0 7 -58 79q-62 78 -74 109l-3 -54q-1 -21 9 -45.5t25 -36.5q4 -27 4 -40q0 -71 -64 -71l-19 18q0 11 15 19l22 12
q-5 41 -34 84q-32 47 -50 135q-36 -40 -65 -55t-68 -15q-21 0 -52 4q16 -45 16 -68q0 -28 -15 -77q-18 -64 -21 -78q-14 -14 -34 -14h-7l-19 11q0 10 16 29.5t16 43.5q0 16 -9 53l-12 -84q-12 -43 -64 -43q-19 0 -19 13q0 12 12 21q17 12 23 23q12 21 12 65q0 19 2 58t2 59
q0 12 -11.5 53.5t-11.5 68.5q0 18 -11 61.5t-11 69.5l-17 26q-20 -1 -40 -23l-13 8l-15 -4q-33 22 -33 39q0 5 3 13.5t3 13.5q0 7 -4 14q34 14 46 45q11 26 49 31l5 15l-21 24l20 2l37 -35l7 14l-19 23l10 2q14 0 26.5 -13t13.5 -27q69 -44 87 -106q21 -75 25 -80
q28 -31 135 -31q36 0 84 3q28 2 83 -26q11 17 49 25l3 -10q0 -22 -27 -47q39 -47 48 -86q5 -24 5 -101q48 -42 50 -84zM963 109v382l-274 276h-378l-276 -276v-377l274 -275h382l121 117l-7 20l-123 -121h-364l-267 265v362l269 267h360l267 -267v-366l-66 -65l5 -18z
M648 663v-10q-22 12 -22 21v13q1 0 3 1.5t5 1.5q5 0 9.5 -10.5t4.5 -16.5zM714 439q-4 -3 -10 -3q-12 0 -62.5 48.5t-50.5 61.5v13q22 -27 60 -62q56 -52 63 -58zM663 640q-4 -9 -30 -18q-35 -12 -38 -14q-4 -39 -21 -87q-21 -61 -44 -70q48 106 47 143v7l-78 -24l-8 5v11
q3 -2 8 -2q3 0 38 12q40 14 44 15q1 15 4 47q11 -7 12 -18.5t2 -22.5q46 21 54 21q6 0 10 -5z" />
    <glyph glyph-name="D" unicode="D" horiz-adv-x="1036" 
d="M1000 97l-297 -295h-408l-295 295v408l297 297h404l299 -297v-408zM963 114v377l-274 276h-378l-276 -276v-377l274 -277h382zM947 120l-265 -265h-364l-267 265v362l269 267h360l267 -267v-362zM934 126v352l-260 258h-350l-261 -258v-352l259 -258h354zM732 168
q0 -113 -59 -186q-64 -78 -175 -78q-74 0 -131 44q-26 20 -76 80q-35 41 -55 38q4 10 4 23q0 44 -32 44q-17 0 -36 -18l-17 7q11 -3 41 23l-11 -1q-18 0 -29 9l24 17l-3 8l-19 -4l-23 18v11l26 -17l11 12q-25 22 -37 36v14q35 -3 109 -98q-4 14 -4 28q0 43 28 81
q26 34 67 54v11l-6 4q-28 -15 -49 -15q-33 0 -28 30l-7 1q-14 0 -24.5 -29.5t-41.5 -29.5q-20 0 -37 28l29 -14q23 0 37 39q14 36 33 32l-8 12l12 13l-8 17l5 9q46 -5 45 -5q25 0 52 13q-87 30 -87 102q0 63 49 109.5t112 46.5q99 0 172 -43q86 -52 86 -145q0 -48 -37 -77
l-6 6q10 21 10 51q0 81 -71 120q-56 31 -145 31q-85 0 -85 -95q0 -9 11.5 -23t20.5 -15l43 66l7 -49q25 15 34 45q0 -34 -5 -58l9 -4q29 21 41 35l3 -17q0 -21 -20 -35l58 11l-54 -30q7 -1 87 -1q-16 -17 -71 -25q231 -58 231 -267zM468 418q-4 10 -15.5 19t-22.5 9
q-12 0 -22.5 -16.5t-31.5 -14.5q33 -12 52 -12q14 0 40 15zM622 179q0 86 -123 146q3 -6 3 -13q0 -17 -10 -27q-1 3 -1 13t-7 19.5t-6 12.5q-5 -7 -24 -7q-2 -9 -27 -69q-18 -44 -18 -71q0 -44 29 -78q30 -37 73 -37q51 0 81 30.5t30 80.5zM450 423q0 -16 -16 -16
q-15 0 -15 16q0 15 15 15q16 0 16 -15zM603 159q0 -33 -33 -55q-29 -20 -64 -20q-34 0 -57 28.5t-23 62.5v26q24 -6 29 -6q31 0 31 32q0 3 -1.5 10t-1.5 10q9 8 28 23q2 -6 2 -11q0 -4 -6 -18t-6 -18q0 -12 14 -12q13 0 25 4q-12 -20 -12 -35q0 -20 12 -20q21 0 15 19
q13 -25 24 -25q10 0 10 9q0 21 -25 33h7q13 1 22.5 -11t9.5 -26zM442 421q-2 2 -5 7q-6 -5 -6 -9q0 -1 1 -1.5t3 -0.5q3 0 7 4z" />
    <glyph glyph-name="E" unicode="E" 
 />
    <glyph glyph-name="F" unicode="F" horiz-adv-x="1036" 
d="M1000 97l-297 -295h-408l-295 295v408l297 297h404l299 -297v-408zM675 578l-2 9q-19 2 -41 2q-86 0 -164 -33q-10 -4 -150 -76q93 10 187 20q100 19 170 78zM963 252v239l-274 276h-378l-276 -276v-335l16 4v322l269 267h360l267 -267v-228zM934 260v218l-260 261h-350
l-260 -261v-318q70 21 206 74q-43 31 -43 63q0 18 14 40h-10q-29 0 -50.5 21.5t-41.5 43.5q2 45 40 76.5t80 31.5q18 0 71 39q71 53 112 74q78 40 154 40q10 0 25 -7t15 -16q0 -15 -43 -33q11 1 48 1q64 0 64 -20q0 -61 -169 -99q-34 -7 -221 -33q35 -49 97 -49q46 0 129 39
t130 39q84 0 140 -58q30 -31 71 -108q31 -58 52 -59zM269 462q-6 0 -25 6q2 -3 2 -7q0 -8 -7 -14h11q-1 0 19 15zM241 470l-11 3q-4 -6 -11 -18q9 -5 12 -4v2q-1 16 10 17zM934 126v56q-23 6 -75 9q-46 3 -68 13q-34 15 -54 56q-50 -82 -194 -82q-72 0 -121 33
q-21 -33 -147 -69q-161 -47 -177 -55l224 -219h354zM963 114v64h-16v-58l-265 -265h-364l-233 225l-15 -7l239 -234h382zM192 167l-128 -36v-9q9 -11 14 -11q12 0 56 24zM61 106q-9 9 -10 19q-11 0 -16 2v-18q4 -5 13 -12q7 6 13 9z" />
    <glyph glyph-name="G" unicode="G" horiz-adv-x="1036" 
d="M1000 97l-297 -295h-408l-295 295v408l297 297h404l299 -297v-408zM963 114v377l-274 276h-378l-276 -276v-377l274 -277h382zM947 120l-265 -265h-364l-267 265v362l269 267h360l267 -267v-362zM934 126v352l-260 258h-350l-175 -171l4 1q38 1 166 -85q26 11 75 40
l-70 23l-35 -10l-15 14l12 13l-14 17q0 44 120 44v12l-14 23l7 2q10 0 37 -33q91 86 140 86q21 0 42.5 -19.5t21.5 -39.5q0 -24 -25 -35q3 7 3 15q0 26 -44 26q-46 0 -72 -47q39 24 55 24q24 0 56.5 -23.5t32.5 -46.5q0 -27 -21 -46q-6 65 -61 65q-3 0 -55 -17
q13 -13 37 -17q-7 -12 -30 -17l42 -9l-24 -17l30 -8l-26 -13l34 -23l-32 -12v-14l34 -13l-14 -7l-12 4q-15 -67 -15 -58q0 -35 38 -51l78 -21q48 -13 64 -38q9 39 63 39l19 -13l-6 1q-15 0 -28 -21q-15 -24 -39 -29q17 -23 24 -75l32 6q23 0 30 -12q6 -8 6 -33
q0 -33 -10 -78q-8 -39 -16 -77zM767 -47q-25 0 -33 -2l-10 23q0 14 11 52t11 60q-10 -1 -41 -12l-11 16q-9 -11 -26 -22q-26 33 -28 33q1 0 -12 -3.5t-32 -3.5q-27 0 -48 21q-22 0 -67.5 -38t-54.5 -60l-10 14q-29 -26 -41 -78h-40l-4 23q0 39 29 65q27 19 55.5 39.5
t28.5 48.5l-11 -1h-8q23 43 62 47q-87 42 -114 72q-14 16 -25 56t-44 79q-15 17 -31 17q-28 0 -28 -40q0 -6 17 -40l-46 -16q-4 21 -16 60q23 81 52 81q13 0 61 -12q-61 54 -119 81l-40 8q-28 7 -28 21l-63 -60v-356l259 -258h358zM808 572q-9 -10 -18 -21q-12 -14 -12 -22
q0 -3 1 -5h-10q9 26 29 53q5 0 10 -5zM869 433l-2 -7q-12 7 -17 6l-71 -10v-16q1 -80 -25 -80q-4 0 -14 5q27 4 27 63l-2 23q-6 -1 -38 -11q-24 -7 -37 -7q-4 0 -17 5v11q1 0 5 -4t7 -4t38.5 11.5t41.5 12.5q-5 25 -6 25q-3 0 -9.5 -3t-10.5 -3q-8 0 -15 9q-3 -1 12 -1
q27 0 27 40h-2q-6 0 -17 -3.5t-16 -3.5q-15 0 -18 10q21 1 52 12t36 11q2 0 14 -12l-6 1q-15 1 -35 -11q0 -9 3 -27q1 0 31 12q5 -7 7 -12q-18 -5 -39 -16q2 -7 2 -23l7 -1q10 -1 29.5 4t28.5 5q18 0 29 -11z" />
    <glyph glyph-name="H" unicode="H" horiz-adv-x="1036" 
d="M1000 97l-297 -295h-408l-295 295v408l297 297h404l299 -297v-408zM934 126v352l-260 258h-350l-260 -258v-132q31 27 62 53q47 37 66 37l94 -14l15 41l-12 16l-1 -17l-13 -14l-19 30q2 21 14 33l-25 8l23 23l-13 19l-12 -4l-6 5l27 33l-19 4v9q8 10 31 10l10 3l-10 20
l21 9l-3 9q0 10 6 16l14 -10q39 19 70 19q10 0 15 -3l21 9q7 -14 20 -16l-2 -7q0 -33 47 -127q-12 -32 -31 -32q-9 0 -18.5 24.5t-26.5 24.5l-10 -17q0 -133 309 -133q25 0 59.5 38t66.5 38t57 -26t25 -58q0 -33 -14 -53q-8 -11 -32 -27.5t-34 -29.5l21 -15l24 2
q17 2 32 -6.5t15 -24.5q0 -24 -15 -24l-7 3l2 14q0 14 -14 14l-24 -25l-7 2q-5 13 -42.5 20.5t-37.5 40.5q0 22 24 47q30 33 36 43l-31 23q-25 -12 -76 -35q12 -75 22 -100q18 -48 62 -81q-3 -56 8 -133q2 -11 -10 -24.5t-12 -22.5l3 -11zM963 114v377l-274 276h-378
l-276 -276v-190l16 27v154l269 267h360l267 -267v-362l-265 -265h-364l-267 265v177h-16v-183l274 -277h382zM795 71q0 67 -17 95q-22 35 -85 41q9 -20 29 -46q-1 -12 -98 -153l4 -12l-39 -1h-14q6 12 57 83q35 50 49 87q-28 24 -92 88q-8 4 -27 4q-16 0 -48.5 -3.5
t-39.5 -3.5q-55 0 -160.5 43t-96.5 43q-20 0 -38 -36q-25 -49 -27 -51l3 -30q-11 -9 -28 -20l-4 3v27q0 15 39 81t51 65l45 -6q-57 28 -75 28q-22 0 -54 -27q-43 -37 -51 -41q1 -11 -2.5 -20t-11.5 -8v-175l258 -258h354l119 116h-28v16l14 27.5t14 43.5zM415 132
q-17 -12 -53 -25v-4q0 -16 -3 -31q-7 5 -7 12q-1 13 -2 15q-13 -7 -14 -7q-2 0 -11 10q31 16 31 34q-1 1 -3 1q-5 0 -11 -4q-2 4 -9 12q10 3 20 7q5 3 5 23q-35 -3 -42 -27q-2 -6 -2 -52q0 -12 -2 -20l-7 7v55q0 -5 6 34q3 -2 8 -2q3 0 35.5 16.5t36.5 16.5q-2 0 16 -9
q-13 -6 -39 -15v-17q6 2 8 2q1 0 12 -10q-23 -1 -23 -23q0 -3 1 -7q12 1 35 19q3 0 14 -11zM456 59q0 -34 -12 -63q-15 -36 -44 -36q-14 0 -19.5 14.5t-10.5 27.5q8 -3 15 -17.5t12 -14.5q23 0 37 36q10 27 10 57q0 21 -4 21q-1 0 -45.5 -17.5t-58.5 -17.5q-8 0 -19 15
q11 -2 19 -2q18 0 59 18t54 18q7 -7 7 -39zM397 45q-6 -12 -13 -36q-10 6 -10 11q0 3 11 29q3 0 12 -4zM354 22q0 -2 -1.5 -5.5t-1.5 -5.5q-6 0 -7 12q-2 17 -4 20q14 -9 14 -21zM321 17q0 -8 -4 -13q-4 13 -14 37h1q17 1 17 -24zM278 16q0 -13 -5 -13q-2 0 -11 4q5 7 5 14
q0 6 -3 12q14 -6 14 -17z" />
    <glyph glyph-name="I" unicode="I" 
 />
    <glyph glyph-name="J" unicode="J" 
 />
    <glyph glyph-name="K" unicode="K" horiz-adv-x="1036" 
d="M1000 97l-297 -295h-408l-295 295v408l297 297h404l299 -297v-408zM963 114v377l-277 276h-375l-276 -276v-377l274 -277h380zM947 120l-265 -265h-364l-267 265v362l269 267h360l267 -267v-362zM934 126v352l-260 258h-350l-261 -258v-352l259 -258h354zM892 325
q0 -85 -45 -123q-24 -20 -84 -35q-45 -11 -45 -33q0 -38 47 -50q-17 -40 -17 -63q0 -17 13 -53l-18 -25q-15 37 -15 121q-60 20 -119 41q-52 26 -49 113q-136 41 -196 106l-12 -3q-21 0 -77 16q-52 14 -91 11l-12 24q48 5 169 0q0 46 -31 94l-62 80q-14 -17 -24 -38l-5 7
l25 53q-12 0 -27 -18t-22 -21q17 34 44 50l-1 8l-52 -35q15 21 45 36l-12 16v12h9q34 -1 52 49q-7 -21 -7 -43l42 53l10 -2l-38 -47q14 12 45 28l-52 -43q36 -18 61 -18q9 0 32.5 3.5t44.5 3.5q54 0 107 -41h-7q-27 1 -46 -4l41 -28l-28 -3q-26 0 -64 12q-30 11 -61 21
q14 -12 129 -58q121 -47 182 -91q92 -68 92 -153q0 -28 -11 -65l14 -1q52 0 79 45q22 37 22 93q0 67 -55.5 117.5t-124.5 50.5q-47 0 -95 -26l-28 11q69 40 127 40q79 0 140 -58.5t61 -136.5zM730 -50q-8 -7 -24 -19l-8 130q-4 0 19 -2q3 -44 13 -109zM487 167q-6 -1 -21 -6
t-32 -5q-42 0 -73.5 27t-31.5 68q0 21 11.5 35t24.5 27q7 -5 19 -17q-10 -13 -21 -26q-11 -16 -11 -31q0 -38 38 -57q32 -16 76 -16q11 0 21 1zM481 539q-35 24 -67 24q-17 0 -28 -3q42 -21 95 -21zM321 573q0 18 -19 18q-20 0 -20 -17q0 -15 20 -15h4q15 0 15 14zM315 572
q-6 -7 -13 -7q-5 0 -11 2v14q1 0 5 1t6 1q8 0 13 -11z" />
    <glyph glyph-name="L" unicode="L" 
 />
    <glyph glyph-name="M" unicode="M" horiz-adv-x="1036" 
d="M1000 97l-297 -295h-408l-295 295v408l297 297h404l299 -297v-408zM728 498v15q-7 7 -14 7q-15 0 -15 -15q0 -14 15 -14q7 0 14 7zM963 109v382l-274 276h-378l-276 -276v-377l274 -275h382l203 199l-14 11l-198 -194h-364l-267 265v362l269 267h360l267 -267v-366
l-39 -37l9 -17zM934 122v356l-260 261h-350l-261 -261v-352l259 -258h354l195 189q-9 5 -118 27q-90 19 -90 44v26q1 22 1 39q0 147 -60 147l-78 -53q-82 -55 -106 -63q-41 -13 -41 -39q0 -5 1 -10l34 -7q58 0 104 35q11 8 82 78q19 -24 16 -47q-6 -29 -11 -57
q-6 -36 -6 -57q0 -29 55 -50q36 -15 81 -21l22 -18l-13 -10l-136 2q-40 1 -49 32q-14 47 -26 58q-19 -24 -124 -59q-100 -33 -138 -33q-65 0 -93 87q-18 57 -18 141q0 20 7 60t7 59q0 13 -19 42.5t-30 29.5q-17 0 -20 -22q-2 -26 -12 -31q-21 12 -21 48q0 16 20.5 30
t37.5 14q83 0 83 -128q0 -18 -4 -75q-4 -44 11 -106q19 -78 53 -78l17 13q-28 34 -28 76q0 36 31 60q16 13 62 34t121 95q70 70 102 79q11 65 21 83q19 31 74 31q42 0 80 -47t38 -88q0 -32 -104 -39v-18q31 -36 39 -97q1 -1 6 -108l90 -30q53 -19 81 -46zM478 623
q-3 -4 -40 -22q-25 -13 -27 -43q29 15 47 21q-4 -10 -31 -25q-34 -19 -38 -22q-1 1 -1 4q0 2 21 48q-9 0 -30 -9l-5 9q2 1 39 17q26 11 26 27q0 4 -1 7l-45 -17l-4 16q10 0 31 11.5t22 11.5q-1 0 16 -8v-2q0 -6 -5.5 -16t-5.5 -15v-2q25 10 27 10zM389 652q0 -3 -35 -39
l-40 -42q7 18 28 52q24 40 35 40q12 0 12 -11zM493 535q-8 -8 -34 -18t-34 -16q-2 -2 -16 -35.5t-32 -45.5l28 73h-3q-8 -5 -26 -8h-3l-3 10q1 0 27 12q17 8 17 20q0 4 -2 10q3 -4 12 -21l59 26q3 -2 10 -7zM491 410q-11 -3 -8 -3q-12 0 -37 29t-25 40q0 -2 3 9
q3 -4 35 -33.5t32 -32.5v-9zM360 416l-10 -2q-10 54 -10 115v56q1 1 5 1q9 0 9 -10v-47q0 -9 3 -34q3 -21 3 -33v-46zM317 496q0 -36 -17 -85q-6 4 -20 22l11 -1q10 38 10 50q0 9 -4 22l-37 -25q39 46 39 56q0 26 -18 48q-9 -9 -43 -38q13 26 34 53q-20 13 -24 27
q16 -5 31 -17q4 4 22 26h10q2 -4 2 -9q0 -3 -23 -31q27 -36 27 -98z" />
    <glyph glyph-name="N" unicode="N" 
 />
    <glyph glyph-name="O" unicode="O" horiz-adv-x="1036" 
d="M1000 97l-297 -295h-408l-295 295v408l297 297h404l299 -297v-408zM963 114v377l-274 276h-378l-276 -276v-377l274 -275h382zM947 120l-265 -265h-364l-267 265v362l269 267h360l267 -267v-362zM934 126v352l-260 261h-350l-261 -261v-352l259 -258h354zM499 590
q-22 -5 -82 -15q-2 -37 -16 -112v106q-14 -6 -92 -29q-6 0 -8 5v9q33 12 100 31v8q0 35 -7 35q-5 0 -15 -4t-15 -4t-7 4q-4 -3 -19 -24q-11 -16 -23 -18q19 32 22 42q5 14 5 46q0 8 4 13h10q0 -30 4 -49q13 4 39 10l-6 72q15 -8 20 -65l30 10l5 -10q-5 -2 -37 -18
q1 -13 4 -40h3q12 -1 36.5 5t35.5 6q5 0 9 -5v-9zM877 140q0 -3 -4 -17.5t-5 -17.5l-4 8q-10 -8 2 -29l-7 4l-14 -12l-8 15l-14 -19l-7 6l-8 37l-10 -10q5 65 5 62l-1 13q-5 -9 -26 -118q-18 -92 -41 -92l-21 11q13 14 24.5 40t11.5 44l-11 44l-8 -6l-4 10l-6 -12l-2 16
q-18 -38 -36 -75q-27 -58 -44 -58l-19 9q61 97 61 113l-7 23q-6 -12 -17 -18q-18 -10 -21 -12l-1 10l-10 -19l-2 19l-4 -16l-15 -5l-9 7l-16 -17l-1 8q-12 -13 -62 -99q-46 -81 -49 -81l-19 5l20 101l-1 29q-22 -19 -26 -47q-1 -8 -1 -56l-28 -13l-23 6q10 32 34 95
q-14 23 -64 83q-48 57 -50 61q-17 -4 -63 -30q-38 -21 -67 -21q-31 0 -31 17q0 3 1 7l31 83l-13 38l-7 -1l10 16l-6 4q2 2 2 6q0 10 -22.5 49.5t-22.5 55.5q0 53 52 91q-28 -52 -28 -75q0 -19 16 -43q17 -27 34 -27l51 20l26 -16q13 0 40 22l38 30q-1 5 -12 66l29 -44l58 38
q34 21 65 21q20 0 63 -10.5t64 -10.5q18 0 53.5 9.5t53.5 9.5q62 0 98 -68q31 -57 31 -124q0 -13 -5 -36t-5 -34q0 -20 17 -31t17 -42zM372 368q0 44 -26 77v-4q0 -5 6 -29t6 -37q0 -38 -21 -52q-29 -11 -57 -23q9 -3 23 -3q69 0 69 71zM184 333q-45 44 -45 74q0 22 6 39
q-20 -43 -20 -51q0 -23 44 -80q9 10 15 18zM272 255q-11 5 -15 5q-2 0 -11 -10q9 5 26 5zM270 239q-7 -2 -22 -2q1 0 4 -1.5t6 -1.5q1 0 12 5z" />
    <glyph glyph-name="P" unicode="P" horiz-adv-x="1036" 
d="M1000 97l-297 -295h-408l-295 295v408l297 297h404l299 -297v-408zM963 114v377l-277 276h-375l-276 -276v-377l274 -277h380zM947 120l-265 -265h-364l-267 265v362l269 267h360l267 -267v-362zM934 126v352l-260 258h-350l-261 -258v-352l259 -258h354zM699 658
q0 -2 -18 -17q-1 -11 -7 -31q-4 4 -9 4q0 1 2 4t2 5v9q-31 -12 -26 -12q3 0 -11 7q12 8 37 23v3l-10 30h9q3 -7 6 -15q4 -11 7 -11q2 0 7 1t7 1t4 -1zM746 621h-5q-34 0 -74 -59q-27 -44 -55 -87q8 24 28 58l33 57q-6 0 -16 -4.5t-15 -4.5q-9 0 -16 15l14 -5q29 0 53 32
q38 51 39 52v-11q0 -4 -23 -42q5 0 13.5 3t10.5 3t13 -7zM739 530q0 -75 -10 -86q-7 4 -18 17.5t-11 21.5q7 -9 23 -27q7 9 7 25q0 14 -2 38q-2 30 -2 39q-4 -1 -20 -7.5t-19 -6.5q-4 0 -10 8q56 17 48 17q14 0 14 -39zM712 511q-15 -20 -25 -20q-1 0 -2 1q0 6 17 24
q5 -1 10 -5zM705 458q-6 -12 -19 -12t-18 43q-3 28 -5 55q9 -13 13 -42q5 -34 9 -45q5 3 16 7q0 -3 4 -6zM605 613q0 -2 -24 -33q20 -22 20 -103q0 -5 -1 -13.5t-1 -12.5q-6 -3 -11 -3q-19 0 -19 22v13q8 -25 12 -25q2 0 6 6.5t4 8.5q0 18 -3 39q-29 -41 -58 -45
q59 59 59 65q0 5 -16 41q-24 -23 -29 -27q-17 -15 -33 -22q2 8 29 34q24 25 24 29q0 12 -22 22.5t-22 20.5q33 -4 54 -35q9 10 27 29q4 -6 4 -11z" />
    <glyph glyph-name="Q" unicode="Q" 
 />
    <glyph glyph-name="R" unicode="R" horiz-adv-x="1036" 
d="M1000 97l-297 -295h-408l-295 295v408l297 297h404l299 -297v-408zM963 114v377l-274 276h-378l-276 -276v-377l274 -275h382zM947 120l-265 -265h-364l-267 265v362l269 267h360l267 -267v-362zM934 126v352l-260 261h-350l-261 -261v-352l259 -258h354zM863 380v-15
q0 -12 -3 -54q-7 6 -25 25q9 -4 15 -15q3 3 3 10l-2 46q-48 -21 -46 -21q-2 0 -11 5q2 6 2 16q0 18 -6 30q11 -10 17 -39q43 19 46 19q4 0 10 -7zM847 355q-21 -15 -28 -15q-1 0 -11 5q11 6 34 17q2 -5 5 -7zM842 316q-8 -4 -25 -11l-7 7q20 14 22 14q6 0 10 -10zM751 613
q-21 -14 -43 -28q-26 -17 -46 -22q-62 -13 -87 -30q-39 -27 -39 -82l1 -9q31 108 122 108q40 0 40 -23q0 -9 -13 -18.5t-13 -17.5l20 -32q-39 10 -50 10q-30 0 -52 -21t-31 -51q42 61 93 61q20 0 37.5 -18t17.5 -38q0 -21 -13 -36.5t-33 -15.5q-8 0 -32 9l18 27
q-1 17 -18 17q-8 0 -16.5 -8t-8.5 -16q0 -21 24.5 -38t45.5 -14q-3 -10 -23 -48q-17 -33 -17 -44v-4q17 10 36 16q-13 -20 -33 -61q25 8 40 14q-71 -77 -105 -135l49 -73l-13 -19l10 -14v-20q-13 -8 -33 -29q-40 18 -75 15q13 29 56 42q-38 73 -62 74q-17 -23 -10 -78l6 -9
q-16 1 -23 -27l-29 6l-42 -16l-39 18q-31 -10 -46 -16q0 35 30 44q29 4 58.5 9t29.5 30q0 39 -58 70q-93 50 -107 62q-58 48 -58 130q0 61 32 110q36 56 94 56q8 0 27 -5t27 -6q-4 42 -51 55q-43 9 -86 19q-45 16 -45 67q0 33 34 47l-2 -39q-1 -19 14 -35q5 -5 31 -25l13 1
q-11 7 -11 32q0 16 11.5 36t25.5 22l-10 -43q0 -14 19 -30q16 -14 31 -19q4 18 8.5 35.5t27.5 23.5l-4 -21q0 -23 28.5 -69.5t28.5 -67.5q0 -50 -53 -72q4 -6 4 -11q0 -27 -30 -44v31q0 16 -10 23q-5 -4 -14 -22q-6 -12 -23 -12q-10 0 -13 8.5t-6 17.5q13 7 35 26l-10 1
q-46 0 -46 -34q0 -28 22 -47t51 -19q110 0 110 152q0 15 -1.5 43t-1.5 38q0 69 67 104q53 29 129 29q52 0 81 -7zM411 371q0 16 -15 16q-18 0 -18 -15q0 -16 19 -16q14 0 14 15zM405 371q0 -4 -5 -9l-10 1l-1 13q2 2 7 5q9 -7 9 -10z" />
    <glyph glyph-name="S" unicode="S" horiz-adv-x="1036" 
d="M1000 97l-297 -295h-408l-295 295v408l297 297h404l299 -297v-408zM963 114v377l-274 276h-378l-276 -276v-377l274 -275h382zM947 120l-265 -265h-364l-267 265v362l269 267h360l267 -267v-362zM934 126v352l-260 261h-350l-261 -261v-352l259 -258h354zM728 308l-9 -13
q-20 8 -72 22q-48 12 -72 23q-5 3 -29 34h13q29 0 89.5 -23t79.5 -43zM843 184q0 -29 -33 -56.5t-33 -33.5q0 -9 12 -21l-3 -1q-6 0 -12.5 7t-6.5 13q0 15 24.5 41t24.5 43q0 6 -4 17.5t-4 16.5q0 -2 13 24q22 -22 22 -50zM832 301q0 -119 -132 -119q-84 0 -152 61
q-34 30 -93 114q-44 61 -67 61q-9 0 -27 -5.5t-27 -5.5l-85 11q-7 0 -13.5 -5.5t-11.5 -5.5q-11 0 -21 19l22 -8l18 10l13 -4q60 71 118 71q53 0 106 -56l92 -104q58 -56 124 -56q15 0 27.5 11t12.5 25q0 43 -81 63q-64 16 -118 11l-56 63q9 1 66 14q38 9 67 9q78 0 145 -48
q73 -52 73 -126zM478 310q-14 -4 -44 -9v19q0 3 15 24q9 -12 29 -34zM757 73q0 -83 -85 -132q-71 -41 -161 -41q-131 0 -212 49q-99 61 -99 186q0 112 104 178v-17q-1 -43 21 -63q-30 -29 -39 -44q-14 -22 -14 -55q0 -80 75 -125q63 -37 150 -37q50 0 94 14q63 19 63 56
q0 42 -89 67q-140 40 -165 52q-89 46 -89 138q0 34 26.5 70t59.5 36q14 0 53 -50q-27 -19 -27 -46q0 -68 87 -103q80 -23 160 -47q87 -30 87 -86zM356 456q0 13 -13 13q-3 0 -7 -2t-5 -2v-16q5 -5 12 -5q13 0 13 12z" />
    <glyph glyph-name="T" unicode="T" 
 />
    <glyph glyph-name="U" unicode="U" 
 />
    <glyph glyph-name="V" unicode="V" 
 />
    <glyph glyph-name="W" unicode="W" 
 />
    <glyph glyph-name="X" unicode="X" 
 />
    <glyph glyph-name="Y" unicode="Y" horiz-adv-x="1036" 
d="M1000 97l-297 -295h-408l-295 295v408l297 297h404l299 -297v-408zM935 333q0 24 -33 49q-28 22 -55 29q22 -21 40 -54q21 -37 19 -64q29 16 29 40zM943 299q0 4 -1.5 10.5t-1.5 9.5q-12 -29 -33 -90q2 7 20 35q16 23 16 35zM951 230q0 -2 -7 32q-8 -9 -24 -28
q8 -9 26 -23q5 14 5 19zM816 310q0 96 -57 113q44 -85 54 -159q0 8 1.5 23.5t1.5 22.5zM963 152v30q0 8 -15 23q-5 -2 -11 -5q4 -13 9 -25.5t17 -22.5zM963 131v10q-17 12 -30 36q-15 29 -24 38q-5 -15 -5 -21q0 -18 22 -36q19 -13 37 -27zM934 362v116l-260 258h-350
l-191 -187l21 -9l63 23l61 -29l27 6q20 0 20 -38q90 -49 99 -53q26 -11 62 -11q8 0 45.5 1t70.5 1h153q51 0 102 -18q64 -22 77 -60zM896 196q-23 9 -44 9h-7q-11 0 -18 -24q22 7 69 15z" />
    <glyph glyph-name="c" unicode="c" horiz-adv-x="816" 
d="M619 661l-7 -8q-26 17 -53 45q-34 36 -34 56q0 17 13 32t29 15q12 0 32 -33t20 -46v-61zM875 -176q-4 -8 -15.5 -15t-20.5 -7q-56 0 -252 196.5t-196 247.5q0 -7 4 43q145 -189 480 -465zM673 594q0 -25 -113 -65q-74 -23 -147 -47q-14 -138 -87 -355q-92 -273 -180 -273
q66 144 120 285q79 210 75 283l-2 31l-308 -100l-29 32l-2 43l34 -14l318 103l18 179h7q44 0 44 -66q0 -45 -12 -93l222 79q7 2 24.5 -6t17.5 -16z" />
    <glyph glyph-name="d" unicode="d" horiz-adv-x="859" 
d="M239 704q-1 0 -46 -17q-8 14 -24 57q-13 35 -31 57h13q33 0 55 -35q17 -31 33 -62zM429 729q-31 -24 -174 -100q-147 -79 -173 -82q-26 18 -42 28q51 34 175 89q118 52 175 92zM336 588q0 -38 -14 -73q-18 -47 -49 -47q-11 0 -17 21q37 21 37 87v24q-1 16 -1 23
q26 -15 43 -27q1 -2 1 -8zM723 499q-25 -4 -132 -12q-81 -6 -130 -23l-3 -25l1 -41q36 6 136 42l43 -27q-26 -13 -26 -47q0 -35 21 -68q-118 -3 -157 -56q-11 7 -41 28q29 33 70 45q18 6 83 14q-7 8 -19 56q-35 -13 -107 -26l-46 27l-2 63q-136 -31 -371 -135l-43 29
q39 12 105 44q74 35 105 47q38 14 102 31q84 22 104 28q15 40 27 101q9 51 19 102q6 -3 41 -27q-14 -53 -38 -161l202 19q14 1 28.5 -8.5t27.5 -19.5zM651 196q-16 -4 -92 -59l-41 27q13 12 50 29t52 17q3 0 31 -14zM921 -90q0 -63 -26 -72q-39 -14 -156 -26
q-102 -10 -163 -10q-85 0 -117 49q-26 38 -26 128q0 48 7 123q5 62 11 123l40 -28v-44q0 -28 -4.5 -84.5t-4.5 -84.5q0 -143 65 -143q107 0 192 15q140 25 140 82q0 50 -84 131q60 -44 81 -67q45 -46 45 -92zM237 456q-36 -14 -45 -14q-16 0 -70 101q27 15 43 21
q15 -29 29 -58q18 -32 43 -50zM683 110q-8 -14 -55 -49t-59 -35q2 0 -42 25l72 32q50 23 63 41q7 -3 21 -14zM702 -3q-7 -12 -77 -59.5t-82 -47.5q-2 0 -40 28q12 7 93 42q55 24 86 53zM294 189q-27 -3 -52.5 -29t-29.5 -53q-8 5 -39 27q4 25 31 47t53 22q8 0 37 -14z" />
    <glyph glyph-name="e" unicode="e" 
 />
    <glyph glyph-name="f" unicode="f" horiz-adv-x="965" 
d="M949 -126q-164 -72 -310 -72q-230 0 -230 265q0 36 16 86q13 41 27 83l52 -26q-33 -110 -33 -157q0 -116 50 -152q41 -30 162 -30q33 0 90.5 19t84.5 39q39 105 39 168t-27 152q-25 84 -58 144q76 -102 104 -168q27 -61 31 -143q0 -2 2 -208zM694 56q0 -20 -18 -32
q-1 -1 -35 -17q11 9 11 26q0 32 -9 49t-34 38q38 24 37 24q12 0 30 -36.5t18 -51.5zM111 608q0 -52 -15.5 -79t-59.5 -60q-12 9 -36 26q43 34 55 49q19 26 19 68q0 95 -25 157q15 -7 40 -28q8 -12 15 -64q7 -45 7 -69zM659 441q0 -42 -32 -99q-31 -53 -67 -81l-132 75
l100 -15q63 31 63 96l-5 37h-7q-11 0 -195 -57q-11 -37 -9 -117l50 16l17 -34l-40 -10q-23 -6 -36 -18q-54 -196 -80 -246q-53 -106 -180 -186l-13 15q90 87 136 182q30 61 76 212l-4 1l-134 -38q-48 20 -84 109q-26 72 -52 145q56 -5 92 -78l48 -120q26 11 77 18
q41 6 55 19q20 19 20 71q0 39 -13 36l-86 -23l-18 57q69 25 207 71q46 160 68 244l-30 13l-322 -146l12 73l292 139l114 -63q-2 -90 -59 -239q19 1 59 11.5t59 10.5q26 0 41 -29q12 -24 12 -52z" />
    <glyph glyph-name="g" unicode="g" horiz-adv-x="779" 
d="M535 774q-37 -41 -74 -81q-46 -57 -46 -97q0 -8 2 -15q-11 4 -34 6v7q0 50 40 111l74 96q13 -8 38 -27zM315 566q-7 -9 -15 -9q-41 0 -111 77l-94 112h6q14 -5 32 -11q43 -10 99 -71q41 -49 83 -98zM770 227l-2 -24l-59 19q-54 0 -147 -14l-148 -24l2 -74q1 -51 1 -64
q0 -245 -106 -244l-45 29h16q58 -1 77 98q9 49 9 151v92l-5 1q-48 0 -146.5 -41.5t-145.5 -41.5q-73 0 -71 42l2 36q11 -12 23.5 -24.5t26.5 -12.5q4 0 135 41q138 42 174 48l-14 106q-47 -32 -82 -32q-42 0 -67 47q25 -7 52 -7t53 14q23 16 46 31q3 33 4 113l-4 1
q-69 -35 -130 -35q-51 0 -77 49q40 -11 59 -11q52 0 152 44t153 44l50 -44h-8q-88 1 -155 -30v-50l6 -63l123 52l29 -52q-64 -22 -153 -65l8 -98q71 13 142 25q84 15 143 15q23 0 49 -13q31 -15 30 -34z" />
    <glyph glyph-name="h" unicode="h" horiz-adv-x="822" 
d="M621 510q-77 -61 -210 -116q-3 -45 -10 -136l-41 29q9 42 9 81l-72 -31l-36 46q15 6 113 56l5 84l-40 -14l-45 45q55 15 72 27q26 20 26 68v29q-98 -36 -150 -62q-10 -85 -19 -170q-10 -98 -10 -170l-42 28v102q0 68 30 263l23 -14l313 146q30 -25 52 -48
q-19 -3 -75.5 -24t-77.5 -32q-6 -53 -5 -58l1 -17q13 6 42 16l46 -43q-45 -15 -92 -44q-6 -44 -7 -89q77 25 162 95q4 -3 38 -47zM796 210q0 -141 -47 -256q-63 -152 -182 -152q-48 0 -72 31q-17 22 -29 72q-15 59 -24 77q42 -28 56 -59l35 -77h38q86 0 135 159
q36 118 36 230q0 42 -13 77q-59 -27 -218 -83q-176 -62 -208 -62q-62 0 -78 74q13 -8 27.5 -16.5t26.5 -8.5q75 0 170 39q79 36 159 72q92 39 160 39q28 -50 28 -156zM550 138q0 -12 -24 -64q-27 -58 -31 -70q-13 9 -40 26q16 42 36 129q24 5 25 5q12 0 23 -7t11 -19z
M372 58q0 -14 -7 -49l-40 26q4 20 4 53t-12 61q33 -17 44 -35t11 -56zM243 1q-4 -4 -12 -13q-26 23 -29 32q-3 21 -5 42q-7 31 -39 79q51 -16 64 -27q21 -18 21 -63v-50zM65 30q0 -32 -25 -57q-8 4 -40 28q17 17 21 28q2 7 2 34q0 22 -18 40h24q12 -17 24 -35t12 -38z" />
    <glyph glyph-name="i" unicode="i" 
 />
    <glyph glyph-name="j" unicode="j" 
 />
    <glyph glyph-name="k" unicode="k" horiz-adv-x="852" 
d="M573 709l-131 -350q-77 63 -93 156q19 -52 69 -82l95 265q-29 49 -77 49q-45 0 -103 -47l-23 45q27 16 69 35q51 22 72 22q68 0 122 -93zM455 600q-51 -4 -115 -54q-8 14 -22 43q58 64 114 64q8 0 15.5 -10.5t7.5 -19.5v-23zM885 -105q0 -41 -21 -67t-61 -26
q-83 0 -187 132q-84 107 -124 211q-12 31 -21 93q-8 58 -8 95q0 14 2 35l44 -22q2 -72 48 -188q49 -121 112 -204q73 -96 137 -96q39 0 39 94q0 17 -1.5 43t-1.5 32l43 -30v-102zM263 548q-63 -18 -110 -60q-8 10 -19 28l92 90q10 -16 37 -58zM354 407q-48 -4 -152 -64
q-6 13 -13 39l122 75q9 -6 43 -50zM201 772q2 -50 -46 -101q-44 -46 -97 -62l118 -266q-10 -8 -36 -22l-140 297q48 15 92 64q48 54 43 101q22 0 66 -3v-8zM414 191q-21 -26 -47 -46q-13 10 -31 28q9 3 20 20q9 13 17 26zM439 111q-6 -12 -25 -27q-15 -11 -30 -23
q-11 7 -45 28q16 11 32.5 23.5t24.5 26.5q24 -13 43 -28zM479 38q-6 -32 -26 -94q-8 -18 -61 -76q-55 -61 -66 -61q-16 0 -25 62q-7 43 -7 75v291l6 84q10 -13 28 -39l-3 -343q0 -23 14 -48q50 38 62 58q8 12 32 84q25 7 46 7zM241 186q-5 -4 -34 -41q-27 -33 -30 -33
q2 0 -43 28q20 28 67 76z" />
    <glyph glyph-name="l" unicode="l" 
 />
    <glyph glyph-name="m" unicode="m" horiz-adv-x="1027" 
d="M943 619q-101 -38 -105 -39q-59 -24 -101 -47l-36 -68q-22 -43 -29 -72l86 50q56 32 90 32q22 0 22 -22l-2 -19q-111 -44 -274 -140v48l85 160q-24 -4 -60 -20q-57 -25 -59 -26q-6 7 -25 36l112 46q75 30 103 55q18 15 28 48q9 27 17 54l-16 1q-79 -40 -80 -41
q-47 -23 -83 -32q-22 35 -20 67l27 -8q176 96 178 96q18 0 42.5 -22.5t24.5 -38.5q0 -9 -25 -52q-27 -47 -30 -56l102 49q29 -6 29 -27q0 -5 -1 -12zM587 752l-1 -15q-6 -7 -52 -50q-58 -54 -228 -247l-11 10q1 37 113 194.5t139 157.5q18 0 30 -16t10 -34zM996 305
q0 -30 -120 -74q-136 -49 -148 -61q-32 -114 -66 -180q-49 -97 -121 -145l122 302l-115 -46q-28 14 -28 34l5 20q25 13 149 63q3 75 3 95q18 -14 30 -41q9 -24 19 -47l228 101q42 -5 42 -21zM992 -170q0 -28 -33 -28q-43 0 -139.5 111t-96.5 157q0 -6 5 45q26 -35 53 -69
q30 -39 60 -63l94 -62q57 -42 57 -91zM484 -88q0 -21 -5 -47q-8 -37 -22 -37q-22 0 -26 28q-31 230 -31 613q0 34 29 34q6 0 14 -5.5t8 -11.5q2 -98 16 -287q14 -194 17 -287zM317 165q0 -156 -65 -338l-8 -1q-17 0 -43 37l-34 52q14 -3 43 -13q36 86 36 219q0 36 -10 61
l-133 -101l-12 9q42 52 83 104q68 87 68 96q0 44 -19.5 108.5t-44.5 96.5l-171 -158l-7 2q69 124 138 208q-36 22 -82 46q-4 22 -11 64q60 -19 121 -68q86 103 100 103q10 0 20.5 -10t10.5 -19q0 -20 -36 -64l-52 -60q60 -96 84 -179t24 -195z" />
    <glyph glyph-name="n" unicode="n" 
 />
    <glyph glyph-name="o" unicode="o" horiz-adv-x="774" 
d="M780 325l-13 -29l-162 -16q-94 -12 -159 -35l2 -122q2 -113 -44 -297l-24 -24l24 429l-5 1q-39 0 -182 -51q-107 -38 -186 -72l-31 33v23q134 47 196 67q111 35 200 57l-12 167l-4 1l-130 -38l-32 33q-15 -48 -68 -110q-59 -70 -102 -70q82 119 92 138q26 50 26 120
q0 39 -7 113q-1 11 17 22t31 11l8 -2q13 -88 13 -141q0 -37 -7 -55l162 47l-17 276q43 -20 59 -69q11 -33 11 -96v-46q1 -31 3 -50l118 51l23 -29l-9 -29q-56 -24 -134 -62l9 -158l310 47z" />
    <glyph glyph-name="p" unicode="p" horiz-adv-x="1009" 
d="M819 670q-23 1 -97 -46q-5 -90 -28 -139q-9 6 -42 29q17 23 17 81q-30 -15 -59 -30q-33 -18 -52 -39q-9 7 -42 39q86 62 155 96v6q1 29 -15 69l-28 66q83 -17 89 -122q62 22 67 22q4 0 35 -32zM994 537q-55 -17 -110 -33q-69 -22 -102 -46q-4 -3 -59 -91
q-79 -123 -296 -445v32q0 5 125 219q73 124 145 247q-22 -3 -66 -26t-70 -23q-69 0 -69 71q40 -30 73 -30q5 0 80.5 32.5t86.5 38.5q24 14 96 153q67 131 94 131q15 0 15 -24q0 -35 -40 -108q-30 -54 -59 -107l111 38zM961 258l-2 -364q0 -25 -8 -53q-11 -39 -29 -39
q-28 0 -82 72q-52 68 -55 99q28 -19 61 -61q27 -35 53 -69q24 17 24 99q0 310 1 173q-1 134 -13 165h-3q-23 0 -163 -63l-44 29l104 42q72 28 102 28q55 0 54 -58zM855 63q-18 -8 -58.5 -42t-39.5 -34q-8 0 -21 11.5t-13 18.5q0 19 96 78q10 -1 22 -11.5t14 -20.5zM825 -142
q-37 -56 -83 -56t-61 71q-5 51 -10 103l-28 245q16 -10 43 -29q9 -91 18 -181q14 -141 31 -166l6 -1q15 0 42 41q13 -6 42 -27zM406 509q-44 -82 -101 -137q79 -117 79 -294v-192q0 -23 -15 -48q-16 -28 -38 -28q-40 0 -66 57q-21 47 -21 94q16 -34 50 -100l15 -1
q19 -2 27 23q7 19 5 40l-13 166q-59 -96 -234 -212l-3 13q136 150 240 275q0 32 -21 88q-18 49 -39 86q-92 -89 -127 -118q-80 -68 -144 -92q13 41 126 141q109 96 110 118q-51 64 -75 81q-6 4 -91 49q-25 13 -25 35l2 17h23q45 0 113 -52q60 -47 88 -92q37 31 108 136z" />
    <glyph glyph-name="q" unicode="q" 
 />
    <glyph glyph-name="r" unicode="r" horiz-adv-x="818" 
d="M608 570q0 -101 -19 -167q-53 35 -106 115q47 -27 70 -68q16 30 14 135l-1 85q-51 -24 -102 -49q-78 -37 -98 -37l-40 25q14 38 14 67q0 76 -38 125q49 -33 65 -71q12 -30 12 -93l1 -8q36 23 93 49q68 32 93 33l40 -25zM541 583q-9 -4 -59 -36q-44 -29 -53 -29l-42 26
q42 27 131 71q8 -11 23 -32zM530 437q-16 -1 -59 -28l-43 -27q-4 0 -31 31q22 16 45 31q33 22 46 22q-3 0 42 -29zM559 373l-91 -69l-39 25l92 70zM629 205q0 -110 -14 -147q-14 3 -25 3q-5 41 -26 170q11 3 18 3q15 0 29 -7q18 -8 18 -22zM387 223q0 -49 -10 -73l-38 27
q9 40 8 71q-10 224 -10 241q0 26 7 72l40 -24q-7 -58 -7 -89q0 -37 5 -112.5t5 -112.5zM792 295q0 -57 -35 -173q-39 -129 -89 -215q-61 -105 -117 -105q-30 0 -80.5 69t-52.5 101l16 16q71 -143 123 -143q55 0 125 219q63 196 63 276l-6 1q-76 0 -176 -58
q-89 -51 -151 -117q-17 -1 -17 20q0 52 123 129q117 73 180 73q94 0 94 -93zM525 84q0 -10 -1.5 -29t-1.5 -28q0 -13 3 -18h-12q-10 0 -20 11.5t-11 21.5t0 26q1 20 1 25q0 54 -19 84q61 -33 61 -93zM266 179q-56 -3 -80 5q-94 -152 -124 -152q-25 0 -31 25l102 139
q-54 18 -94 52l40 33q22 -22 77 -40q53 99 53 204q0 44 -8 95q-80 -40 -158 -107l-43 34q29 26 193 146l57 -29q8 -142 8 -134q0 -105 -52 -221l51 -5zM361 -20q-13 11 -28 21q-4 28 -40 142q17 -4 50 -15q18 -41 18 -92v-56z" />
    <glyph glyph-name="s" unicode="s" horiz-adv-x="1250" 
d="M1158 669q0 -62 -29 -134q-35 -89 -85 -89q-7 0 -25 12q-12 8 -24 17q105 27 120 197l-21 2q-84 0 -213 -37q-90 -26 -198 -69q-93 -37 -90 -37q-19 0 -38 44l172 74q-7 69 -61 153q43 -12 75.5 -47t44.5 -79q182 58 331 58q13 -15 25 -31q16 -19 16 -34zM1228 140
q0 -35 -6 -107t-6 -108q0 -30 -19 -79q-9 -25 -166 -36q-94 -7 -167 -7q-89 0 -135 60q-33 45 -51 138q-13 75 -27 151l-118 -98l-3 11q20 33 59 79q34 40 45 63q18 37 18 89q0 -6 4 114q40 -21 42 -69l5 -99q7 5 113 80q89 64 103 66l43 -29q-52 -29 -133 -84
q-100 -68 -131 -87q10 -143 39 -215q47 -120 155 -120q63 0 237 20l20 19q13 42 30 160q18 123 14 160q28 -8 33 -26q2 -7 2 -46zM429 -52q-33 10 -54 13v15q0 20 -7 34q-9 -6 -119 -91q-93 -73 -108 -74l-46 29q57 19 136 93l-26 177l-42 -22l-14 10l-12 -16l-137 203
q16 4 48 13l-10 17q105 86 153 86q-4 80 -12 169q22 -13 43 -25q9 -7 9 -44v-87q79 23 139 23q10 0 25 -12q11 -10 22 -19v-7q1 -35 -38.5 -108t-37.5 -104l-47 44l44 80q26 50 36 84l-10 1q-22 0 -72 -10q-59 -13 -58 -26l12 -160l18 11l35 -19l-53 -53l25 -177l40 34
q24 20 46 23l-53 88q1 0 35 -11q20 -6 29 -19q62 -87 61 -163zM203 207l-10 183h-13q-8 0 -55 -31q-42 -27 -57 -40l84 -157q52 30 51 45z" />
    <glyph glyph-name="t" unicode="t" horiz-adv-x="1038" 
d="M1002 97l-297 -295h-408l-297 295v408l299 297h404l299 -297v-408zM965 114v377l-276 276h-375l-277 -276v-377l274 -275h380zM949 120l-267 -265h-362l-265 265v362l267 267h358l269 -267v-362zM936 126v352l-260 261h-350l-260 -261v-352l258 -258h354zM822 54h-124
l-212 229q0 -4 3.5 -52.5t3.5 -85.5q0 -181 -76 -181l-33 9q15 19 15 23q0 22 -8 48q-8 23 -17 46l44 -8v215q-37 -66 -113.5 -110.5t-152.5 -44.5q-18 0 -54 11q132 70 180 104q94 67 139 150l-37 -15q-55 -23 -86 -70q-22 -35 -68 -35q-42 0 -42 60l11 35q28 17 107 53
q93 41 117 54v93l-37 60l57 31q53 -23 53 -168q0 -31 -3 -74.5t-3 -49.5q61 15 94 53q21 30 42.5 60t61.5 30q12 0 25 -10t13 -22q0 -46 -80 -94q-62 -32 -125 -63q107 -120 305 -281z" />
    <glyph glyph-name="u" unicode="u" horiz-adv-x="1036" 
d="M1000 97l-297 -295h-408l-295 295v408l297 297h404l299 -297v-408zM963 114v377l-274 276h-378l-276 -276v-377l274 -277h382zM947 120l-265 -265h-364l-267 265v362l269 267h360l267 -267v-362zM934 126v352l-260 261h-350l-261 -261v-352l259 -258h354zM836 531
l-23 -21l-50 50q6 7 19 21zM771 592l-19 -19l-53 50l20 20zM793 488l-21 -21l-116 113l22 22zM904 217h-31v165h31v-165zM572 678h-167v30h167v-30zM750 447l-21 -23l-116 115q4 4 11.5 10t10.5 10z" />
    <glyph glyph-name="v" unicode="v" horiz-adv-x="1038" 
d="M1002 97l-297 -295h-410l-295 295v408l297 297h406l299 -297v-408zM965 114v377l-276 276h-375l-279 -276v-377l276 -277h380zM947 120l-265 -265h-362l-267 265v362l269 267h358l267 -267v-362zM934 126v352l-258 261h-350l-260 -261v-352l258 -258h354zM881 402h-766
v10q0 86 124 187q121 99 213 99v-235h-229q21 49 70 94.5t99 64.5v-96h-35l1 21l-1 14l-56 -60h120v150l-7 2q-61 0 -144 -77q-79 -73 -100 -135h310v261h35v-260h311q-24 66 -103 136q-84 75 -148 75v-150h120l-59 58l1 -35h-35v96q128 -59 169 -159h-229v237h21
q87 0 199 -105.5t119 -192.5zM889 295h-32v55h-716v-55h-32v39l6 44h768q6 -44 6 -45v-38zM887 273v-41h-772q-2 9 -6 39h112v23h-53v35h658v-35h-57v-21h118zM891 197q0 -83 -122 -183.5t-215 -100.5v236h229q-19 -48 -71 -95q-48 -45 -100 -66v100h38l-2 -21l1 -18l59 61
h-121l2 -152q73 8 149 76q72 65 101 138h-313v-261h-33v258h-313q31 -72 102 -136q79 -72 149 -76v152h-122l61 -60q1 13 -1 39h36v-100q-125 61 -172 161h231v-234h-21q-84 0 -203 107q-123 110 -115 191h766v-16zM740 271v24h-488v-24h488z" />
    <glyph glyph-name="w" unicode="w" horiz-adv-x="1037" 
d="M1005 303q0 -207 -147.5 -353.5t-354.5 -146.5t-355 146.5t-148 353.5q0 206 148 352.5t355 146.5q204 0 353 -147.5t149 -351.5zM983 307q0 128 -76 248q-85 135 -203 135q-93 0 -163 -67.5t-70 -160.5q0 -92 77 -148q72 -45 143 -89q77 -60 77 -163q0 -95 -103 -209
q144 61 229 179q89 123 89 275zM774 701q-138 82 -263 82q-163 0 -310 -108q-160 -118 -160 -276q0 -88 64 -156t151 -68q79 0 142 51q67 55 67 132q0 19 -6.5 57.5t-6.5 57.5q0 109 79 174q73 60 180 60q32 0 63 -6zM752 56q0 78 -62.5 143.5t-140.5 65.5q-42 0 -137 -56
t-153 -56q-98 0 -160 63q-57 59 -70 160q-4 -52 -4 -79q0 -213 150 -346q144 -128 359 -128q87 0 152.5 72t65.5 161zM853 536h-76v32h76v-32zM853 478h-76v29h76v-29zM757 536h-76v29h76v-29zM853 420h-76v30h76v-30zM757 478h-76v29h76v-29zM853 362h-76v30h76v-30z" />
    <glyph glyph-name="x" unicode="x" 
 />
    <glyph glyph-name="y" unicode="y" horiz-adv-x="762" 
d="M588 728l-78 -48q-47 -29 -82 -42q-5 9 -11 27q20 3 82.5 45l62.5 42q3 0 26 -24zM384 684l-5 -103q-11 4 -38 11l3 119q0 44 -35 90q42 -22 58.5 -47t16.5 -70zM628 547l-117 -93l-10 18l38 36q27 27 27 38q0 10 -16 10q-11 0 -99 -21q-78 -18 -104 -26q-17 -4 -91 -39
q-61 -28 -86 -28q-33 0 -33 33q291 123 435 123q52 0 56 -51zM572 298q0 -30 -10 -47t-96 -46q-81 -27 -109 -27q-33 0 -40 57q-1 40 -2 79q-14 -9 -40 -19l-45 29q13 1 44 16q35 17 35 26v105l41 -26v-65l112 57l41 -27q-81 -43 -151 -77v-13l9 -101l10 -1q19 0 84.5 25.5
t70.5 37.5q6 16 6 37q0 16 -5 55q-5 35 -4 55q13 -8 41 -28q1 -11 5 -51q3 -32 3 -51zM756 -97q0 -44 -95 -56q-35 -5 -121 -5q-88 0 -109 73q-8 27 -8 143l-1 9l-17 -9l-41 27q13 8 62 31q25 -16 39 -26q0 -18 -3 -52.5t-3 -51.5q0 -57 15 -78q19 -25 73 -25q140 0 167 34
v50q0 41 -14 159q-15 130 -27 144q10 -6 27 -21q16 -27 37 -169q19 -130 19 -177zM339 80q-25 -71 -50 -113q-33 -52 -85 -91l-3 11q51 77 63 109q16 40 22 123zM221 396q0 -67 -24 -190q-22 -116 -46 -189q-11 -31 -64 -119q-58 -94 -75 -96l-12 10q96 176 131 292
q37 126 43 316l13 2q12 0 23 -7.5t11 -18.5z" />
    </font>
</defs>
</svg>
