<?xml version="1.0" standalone="no"?>
<!DOCTYPE svg PUBLIC "-//W3C//DTD SVG 1.1//EN" "http://www.w3.org/Graphics/SVG/1.1/DTD/svg11.dtd" >
<svg xmlns="http://www.w3.org/2000/svg" xmlns:xlink="http://www.w3.org/1999/xlink" version="1.1">
<metadata>
Created by FontForge 20170731 at Fri Jan  1 02:30:17 1904
 By Aleksey,,,
</metadata>
<defs>
<font id="RomanCatholic" horiz-adv-x="1162" >
  <font-face 
    font-family="Roman Catholic"
    font-weight="400"
    font-stretch="normal"
    units-per-em="2048"
    panose-1="2 11 6 3 5 3 2 2 2 4"
    ascent="1638"
    descent="-410"
    x-height="1160"
    cap-height="1548"
    bbox="77.9952 -812 1926 1852"
    underline-thickness="0"
    underline-position="0"
    unicode-range="U+0008-00A5"
  />
<missing-glyph horiz-adv-x="2048" 
d="M167 1043v89h345v227v191h89v-191v-227h344v-89h-344v-958h-89v958h-345z" />
    <glyph glyph-name=".notdef" unicode="&#xa5;" horiz-adv-x="2048" 
d="M167 1043v89h345v227v191h89v-191v-227h344v-89h-344v-958h-89v958h-345z" />
    <glyph glyph-name=".notdef" unicode="&#xe01e;" horiz-adv-x="2048" 
d="M167 1043v89h345v227v191h89v-191v-227h344v-89h-344v-958h-89v958h-345z" />
    <glyph glyph-name=".notdef" unicode="&#x25ca;" horiz-adv-x="2048" 
d="M167 1043v89h345v227v191h89v-191v-227h344v-89h-344v-958h-89v958h-345z" />
    <glyph glyph-name=".notdef" unicode="&#x2260;" horiz-adv-x="2048" 
d="M167 1043v89h345v227v191h89v-191v-227h344v-89h-344v-958h-89v958h-345z" />
    <glyph glyph-name=".notdef" unicode="&#x2248;" horiz-adv-x="2048" 
d="M167 1043v89h345v227v191h89v-191v-227h344v-89h-344v-958h-89v958h-345z" />
    <glyph glyph-name=".notdef" unicode="&#x222b;" horiz-adv-x="2048" 
d="M167 1043v89h345v227v191h89v-191v-227h344v-89h-344v-958h-89v958h-345z" />
    <glyph glyph-name=".notdef" unicode="&#x221e;" horiz-adv-x="2048" 
d="M167 1043v89h345v227v191h89v-191v-227h344v-89h-344v-958h-89v958h-345z" />
    <glyph glyph-name=".notdef" unicode="&#x221a;" horiz-adv-x="2048" 
d="M167 1043v89h345v227v191h89v-191v-227h344v-89h-344v-958h-89v958h-345z" />
    <glyph glyph-name=".notdef" unicode="&#x2211;" horiz-adv-x="2048" 
d="M167 1043v89h345v227v191h89v-191v-227h344v-89h-344v-958h-89v958h-345z" />
    <glyph glyph-name=".notdef" unicode="&#x220f;" horiz-adv-x="2048" 
d="M167 1043v89h345v227v191h89v-191v-227h344v-89h-344v-958h-89v958h-345z" />
    <glyph glyph-name=".notdef" unicode="&#x2202;" horiz-adv-x="2048" 
d="M167 1043v89h345v227v191h89v-191v-227h344v-89h-344v-958h-89v958h-345z" />
    <glyph glyph-name=".notdef" unicode="&#x2122;" horiz-adv-x="2048" 
d="M167 1043v89h345v227v191h89v-191v-227h344v-89h-344v-958h-89v958h-345z" />
    <glyph glyph-name=".notdef" unicode="&#x20ac;" horiz-adv-x="2048" 
d="M167 1043v89h345v227v191h89v-191v-227h344v-89h-344v-958h-89v958h-345z" />
    <glyph glyph-name=".notdef" unicode="&#x2044;" horiz-adv-x="2048" 
d="M167 1043v89h345v227v191h89v-191v-227h344v-89h-344v-958h-89v958h-345z" />
    <glyph glyph-name=".notdef" unicode="&#x2030;" horiz-adv-x="2048" 
d="M167 1043v89h345v227v191h89v-191v-227h344v-89h-344v-958h-89v958h-345z" />
    <glyph glyph-name=".notdef" unicode="&#x2026;" horiz-adv-x="2048" 
d="M167 1043v89h345v227v191h89v-191v-227h344v-89h-344v-958h-89v958h-345z" />
    <glyph glyph-name=".notdef" unicode="&#x3c0;" horiz-adv-x="2048" 
d="M167 1043v89h345v227v191h89v-191v-227h344v-89h-344v-958h-89v958h-345z" />
    <glyph glyph-name=".notdef" unicode="&#x3a9;" horiz-adv-x="2048" 
d="M167 1043v89h345v227v191h89v-191v-227h344v-89h-344v-958h-89v958h-345z" />
    <glyph glyph-name=".notdef" unicode="&#x394;" horiz-adv-x="2048" 
d="M167 1043v89h345v227v191h89v-191v-227h344v-89h-344v-958h-89v958h-345z" />
    <glyph glyph-name=".notdef" unicode="&#x192;" horiz-adv-x="2048" 
d="M167 1043v89h345v227v191h89v-191v-227h344v-89h-344v-958h-89v958h-345z" />
    <glyph glyph-name=".notdef" unicode="&#x178;" horiz-adv-x="2048" 
d="M167 1043v89h345v227v191h89v-191v-227h344v-89h-344v-958h-89v958h-345z" />
    <glyph glyph-name=".notdef" unicode="&#x131;" horiz-adv-x="2048" 
d="M167 1043v89h345v227v191h89v-191v-227h344v-89h-344v-958h-89v958h-345z" />
    <glyph glyph-name=".notdef" unicode="&#xff;" horiz-adv-x="2048" 
d="M167 1043v89h345v227v191h89v-191v-227h344v-89h-344v-958h-89v958h-345z" />
    <glyph glyph-name=".null" horiz-adv-x="0" 
 />
    <glyph glyph-name="nonmarkingreturn" horiz-adv-x="682" 
 />
    <glyph glyph-name="uni001D" horiz-adv-x="0" 
 />
    <glyph glyph-name="uni001D" horiz-adv-x="0" 
 />
    <glyph glyph-name="uni001D" horiz-adv-x="0" 
 />
    <glyph glyph-name="space" unicode="&#x9;" horiz-adv-x="2048" 
 />
    <glyph glyph-name="space" unicode=" " horiz-adv-x="2048" 
 />
    <glyph glyph-name="uni00A0" unicode="&#xd;" horiz-adv-x="2048" 
 />
    <glyph glyph-name="uni00A0" unicode="&#xa0;" horiz-adv-x="2048" 
 />
    <glyph glyph-name="exclam" unicode="!" horiz-adv-x="1925" 
d="M1654 717q21 -84 -70 -204.5t-143 -172.5q-124 -125 -242.5 -183t-160.5 -15q-42 42 15.5 160t182.5 243q108 108 213 166.5t162 46.5l22 82q5 21 -2.5 48.5t-5.5 50.5l93 -121q22 -30 55.5 -45.5t60.5 -41.5l-93 7q-23 2 -44 -9t-43 -12zM1152 167q13 0 13 12
q0 13 -13 13q-12 0 -12 -13q0 -12 12 -12zM761 308q22 -2 43 -13t44 -8l93 7q-27 -27 -60.5 -42.5t-54.5 -44.5l-93 -122q-3 23 5 50t2 50l-22 82q-57 -14 -162 45t-213 168q-124 123 -182 241.5t-16 161.5q42 42 160.5 -16.5t242.5 -181.5q52 -53 143 -173.5t70 -203.5z
M259 858q-12 0 -12 -13q0 -12 12 -12q13 0 13 12q0 13 -13 13zM682 1166q106 0 181.5 -59.5t75.5 -143.5t-75.5 -144t-181.5 -60q-107 0 -182.5 60t-75.5 144t75.5 143.5t182.5 59.5zM792 996h-77v77h-66v-77h-77v-66h77v-77h66v77h77v66zM1263 1166q106 0 181.5 -59.5
t75.5 -143.5t-75.5 -144t-181.5 -60q-107 0 -182.5 60t-75.5 144t75.5 143.5t182.5 59.5zM1373 996h-77v77h-66v-77h-77v-66h77v-77h66v77h77v66zM386 1563q106 0 181.5 -60t75.5 -144t-75.5 -144t-181.5 -60q-107 0 -182.5 60t-75.5 144t75.5 144t182.5 60zM496 1392h-77
v77h-66v-77h-77v-66h77v-77h66v77h77v66zM967 1563q106 0 181.5 -60t75.5 -144t-75.5 -144t-181.5 -60q-107 0 -182.5 60t-75.5 144t75.5 144t182.5 60zM1077 1392h-77v77h-66v-77h-77v-66h77v-77h66v77h77v66zM1537 1563q106 0 182 -60t76 -144t-76 -144t-182 -60
q-107 0 -182.5 60t-75.5 144t75.5 144t182.5 60zM1647 1392h-77v77h-66v-77h-77v-66h77v-77h66v77h77v66z" />
    <glyph glyph-name="quotedbl" unicode="&#x22;" horiz-adv-x="1816" 
d="M1496 912q28 29 66 43.5t62 49.5l101 139q0 -72 -20.5 -140.5t-11.5 -139.5l37 -296q-30 28 -54 75.5t-57 70.5l-124 82q-51 -96 -246 -162.5t-452 -68.5q-297 -3 -507.5 77.5t-211.5 197.5t208.5 202.5t505.5 89.5q62 0 165.5 -7.5t210.5 -30.5t198.5 -66.5
t129.5 -115.5zM1495 869q-34 61 -125.5 101.5t-198.5 65t-209.5 34.5t-158.5 10q-266 -3 -466 -76.5t-198 -172.5q0 -100 201 -153t468 -50q231 2 440.5 65.5t256.5 145.5l101 -70q29 -21 32 -34t30 -37l-14 152q-6 61 11.5 91t17.5 92l-72 -93q-30 -38 -60 -42.5t-56 -28.5
zM518 696h-7.5h-6.5h-6.5h-6.5q39 85 38 151q-2 64 -44 150h6.5h6.5h6.5h6.5q42 -82 44 -150q1 -68 -37 -151zM366 952q36 0 36 -44t-36 -44q-37 0 -37 44t37 44zM366 937q-25 0 -25 -29t25 -29q24 0 24 29t-24 29z" />
    <glyph glyph-name="numbersign" unicode="#" horiz-adv-x="1883" 
d="M301 930l-62 128q12 5 53.5 28.5t51.5 32.5q6 0 9.5 -16t6.5 -22q6 -47 2 -94.5t2 -95.5v-92q-2 -19 -11 -46t-9 -38q-10 -7 -22 -7q-15 13 -121 81t-112 74v37q6 3 24 30l73 -5v-38q9 -18 10.5 -23.5t16.5 -17.5q26 -17 68 0q13 27 16.5 37.5t3.5 46.5zM407 1144v2
q72 12 142.5 30t147.5 27l-9 -176h-231v-90h215v-87h-215v-108h235l-7 -135q-66 0 -145.5 15.5t-138.5 45.5l4 476h2zM1101 1124q-1 -17 -5.5 -87.5t-8 -149t-4 -142.5t7.5 -67q60 7 155.5 78.5t148.5 71.5q21 15 11 36q-15 15 -69 102t-66 75q5 -5 -23.5 -4t-19.5 -9
q4 -12 46 -65.5t42 -89.5q-14 -27 -68 -48t-54 1q-6 4 -14.5 17.5l-8.5 13.5q-6 15 -2 41t-2 39q0 41 -2.5 79.5t-2.5 77.5zM1777 1196q4 4 4.5 -102.5t-2.5 -123.5l-27 10q0 1 -55 21.5t-65 25.5q-61 0 -89 -40q-11 0 103.5 -54.5t123.5 -72.5q0 -21 3.5 -43.5t3.5 -45.5
v-155q-21 0 -132 54t-215 157q-4 3 -0.5 18t3.5 21q55 -15 137.5 -63.5t128.5 -69.5q30 28 21.5 57t-15.5 52q-34 22 -97 36t-83 35q-12 0 -26 10.5t-23 17.5q2 16 56 68t114 102t104 80t27 5zM1069 1135q-35 -70 -45.5 -102.5t-16.5 -38.5q-4 -4 -40 18.5t-51 28.5
q-42 0 -73.5 -9.5t-20.5 -68.5q40 -42 84.5 -43t68.5 -24q24 0 45 -28t25 -49q0 -14 -1.5 -26.5t-1.5 -25.5q-9 -18 -14 -41t-20 -38q-23 -47 -121 -66.5t-152 -19.5q0 54 3.5 109t3.5 110h50q0 -37 16 -46t29 -33q45 0 71.5 -8t68.5 24q6 9 13 29t-2 30q0 18 -21 17t-29 8
q-45 0 -87 20t-78 20q0 3 -7.5 23.5t-10.5 44.5q0 63 0.5 111t24.5 104q0 10 9 16t14 15q39 0 140.5 -18.5t125.5 -42.5zM199 1004q19 0 19 -19q0 -20 -19 -20q-20 0 -20 20q0 19 20 19z" />
    <glyph glyph-name="dollar" unicode="$" horiz-adv-x="1654" 
d="M367 1174q-30 78 -46.5 88.5t-92.5 45.5l111 -13l4 9h5q21 28 59 28l65 107l-28 -116q48 -18 91.5 -42.5t98.5 -24.5q21 21 42 43.5t42 43.5l-100 59l116 -7q11 31 20.5 53t33.5 46q39 38 57.5 7.5t47.5 -3.5l39 63q-30 -78 -34.5 -89t22.5 -77q0 -56 36 -29.5t63 41.5
l-76 -75q0 -32 37 -58t70 -14q32 0 72 24q81 18 71 50.5t-27 96.5l64 -103q21 7 32 1t28 -6l87 55l-63 -87q9 -36 -6.5 -67.5t-26.5 -63.5l111 -39h-131q0 -12 -7.5 -24.5t-7.5 -27.5q-14 -36 10.5 -68t57.5 -44q51 -26 42 9.5t-10 86.5l39 -124q9 -3 27.5 -8t23.5 -11
q19 -10 31 -37t25 -42l84 -4l-67 -26q-12 -4 -98.5 -36.5t-92.5 -37.5l63 -103l-100 80q-53 -32 -35.5 -96.5t44.5 -103.5q0 -9 7.5 -22t11.5 -22l96 77q-28 -39 -51.5 -75t-44.5 -78l68 -102l-96 76q-21 -13 -53 -6t-50 21l-56 -107l13 127q-2 0 -28 13q-88 33 -120 7
q-33 -12 -31.5 -20.5t-7.5 -27.5l102 19l-118 -78q0 6 -16 -41t-10 -68l33 -70l-70 59q-24 -8 -65.5 -6.5t-41.5 42.5q-12 15 -21 48l-119 -36l107 67v5l-4 4q0 27 -20 54t-35 46q-21 0 -31 11.5t-45 -0.5l44 -115l-79 104q-30 -10 -68.5 -23t-59.5 -34l-16 -115l-28 111
q-17 29 -26.5 52t-12.5 64l-131 59q26 -5 66.5 -21t64.5 9q36 39 43 57t-14 125q-12 0 -30.5 19t-27.5 19l5 -117l-20 72q-18 51 -47 83.5t-88 14.5l-80 -50l106 95q1 42 0.5 56t41.5 32q17 11 5 32.5t-18 39.5q54 -42 65 -36t70 12q14 12 45 54.5t-1 63.5l-88 -48l44 61
q12 18 20.5 37t-12.5 40zM463 1011l44 -106l-78 69q-12 -19 -50 -32q-25 -7 -58 -19t-54 -26q-35 -15 -43 -51q0 -52 80 -79q12 -7 25.5 -11t26.5 -8l47 91q-29 -104 -3.5 -115t25.5 -92q-11 -31 5 -27.5t49 -3.5l76 -1l-92 -45q-55 -23 -46 -1t-21 -50q-21 -35 -2 -76.5
t61 -26.5q8 0 25 11t23 18v102q22 -93 40 -103t37 6t43 30.5t59 -29.5q17 -15 24 -17.5t28 13.5l48 52q-55 -93 -48 -108t35 -98q20 -18 37 -37t53 17l-49 104l78 -76q6 11 8.5 25t11.5 23q0 27 21 63.5t38 55.5l-39 99l68 -87q40 0 67 -9l63 72q-12 -24 -28 -56.5t24 -42.5
q4 -5 22 -11.5t23 -10.5q39 0 84 -5.5t6 98.5l-67 4l47 41q-27 74 -42.5 78t-100.5 1l108 35q0 44 44 65.5t79 34.5l-55 92l91 -79q22 9 50.5 30.5t13.5 52.5q-11 27 -30 36.5t-42 22.5q-20 0 -43 15.5t-49 15.5l-126 -40l59 40q66 66 -28 152l-59 39l111 -39q9 12 28 59
q27 27 20 63.5t-33 60.5q-45 0 -79 -13l31 -98l-59 87q-62 -39 -115 -39q-56 0 -36.5 20t-41.5 20l-69 -10l39 53q45 0 -0.5 73t-51.5 73q-43 32 -58 -7.5t-35 -60.5q-16 -40 -33 -91l44 -59l60 -68l-76 57q-67 39 -104 12.5t-70 -113.5l11 107q-37 14 -75 30t-76 31
q-26 -7 -45 -14t-7 -37l4 -49l107 56l-91 -91q15 -38 40 -66t16 -72z" />
    <glyph glyph-name="percent" unicode="%" horiz-adv-x="1843" 
d="M781 1478l129 129l129 -129l-51 -51l-38 -659l-40 -691l-40 691l-38 659zM1533 1355l176 47l47 -176l-69 -19l-363 -552l-380 -578l311 619l296 589zM89 1226l47 176l177 -47l-19 -70l296 -589l311 -619l-380 578l-363 552z" />
    <glyph glyph-name="ampersand" unicode="&#x26;" horiz-adv-x="1612" 
d="M813 1561l328 -568l328 -568h-656h-657l329 568zM813 1479l-299 -504l-299 -504h598h597l-298 504zM813 384q60 0 102.5 -42.5t42.5 -102.5t-42.5 -102.5t-102.5 -42.5t-103 42.5t-43 102.5t43 102.5t103 42.5zM813 344q-105 0 -105 -105t105 -105t105 105t-105 105z
M234 1138q60 0 102.5 -42.5t42.5 -102.5t-42.5 -102.5t-102.5 -42.5t-102.5 42.5t-42.5 102.5t42.5 102.5t102.5 42.5zM234 1098q-105 0 -105 -105t105 -105t105 105t-105 105zM1391 1138q60 0 102.5 -42.5t42.5 -102.5t-42.5 -102.5t-102.5 -42.5t-102.5 42.5t-42.5 102.5
t42.5 102.5t102.5 42.5zM1391 1098q-105 0 -105 -105t105 -105t105 105t-105 105z" />
    <glyph glyph-name="quotesingle" unicode="'" horiz-adv-x="830" 
d="M349 191v1016h182v-1016h229v-106h-640v106h229zM576 385l175 -162h-175v162zM316 385v-162h-176zM89 1380h702v-144h-702v144zM166 1426q33 19 86.5 57.5t85.5 21.5l91 -51l-5 -45h-259zM714 1426v-17h-258l3 45l83 51q30 18 84.5 -21t87.5 -58zM536 1668l10 8
q13 12 26 -2l99 -117q10 -14 -2 -26l-10 -8q-14 -13 -26 2l-99 117q-12 14 2 26zM473 1753q28 23 62 -15q32 -40 4 -63q-30 -24 -61 15q-33 39 -5 63zM680 1527q33 -31 59 -60q18 -22 50 -68q-2 -2 -3.5 -3t-2.5 -2q-2 -1 -3.5 -2.5t-2.5 -1.5q-27 39 -49 68q-26 29 -59 60
q1 0 2.5 1.5t3.5 2.5z" />
    <glyph glyph-name="parenleft" unicode="(" horiz-adv-x="1793" 
d="M1173 1044l13 20l-153 64v149q22 69 43.5 122.5t84.5 89.5q62 36 104.5 54t108.5 18q132 0 232 -76q102 -75 102 -231q0 -314 -183 -567q-123 -168 -230.5 -316.5t-261.5 -285.5v149l119 192l-119 106l127 98l-126 189h357v225h-218zM763 466v-116l-70 -116v-149
q-179 193 -259 332t-164 274q-84 133 -132.5 271.5t-48.5 291.5q0 154 102 228q102 75 233 77q66 0 91.5 -17.5t87.5 -53.5q53 -31 53.5 -76t24.5 -101q4 -12 12 -34v0v0v0v0v0v0v0v0v-149l70 -47v-27l-374 -10v-225h306l68 -91v-125l-121 -71zM823 1005v453h151v-453h379
v-147h-379v-773h-151v773h-379v147h379z" />
    <glyph glyph-name="parenright" unicode=")" horiz-adv-x="2022" 
d="M1837 845h-172v88h172v88h89v-438h-89v262zM1579 757h169v-84h-169v-89h-88v435h88v-262zM1231 1019v-435h-87l-1 89v172h-172v88h172v86h88zM1317 673v-2v348h86v-346h-86zM882 584h-86v89h-174v88h174v86l-174 -2v88h174v86h86v-260h175v-86h-175v-89zM534 584h-86v435
h86v-435zM186 673v-89l-90 -1v436h264v-346h-86v86h-88v-86z" />
    <glyph glyph-name="asterisk" unicode="*" horiz-adv-x="1467" 
d="M1088 1169h310v-101h-310v101zM986 1461h-205v-393h-412v-206h-102v307h412v392h307v-100zM679 761h102v-676h-102v676z" />
    <glyph glyph-name="plus" unicode="+" horiz-adv-x="711" 
d="M637 887l41 -70h-81z" />
    <glyph glyph-name="comma" unicode="," horiz-adv-x="711" 
d="M637 887l41 -70h-81z" />
    <glyph glyph-name="hyphen" unicode="-" horiz-adv-x="1326" 
d="M443 641q-61 99 -61 178q0 78 61 178q159 -65 282 -80q-18 130 -81 282q100 60 178 60q76 0 179 -60q-63 -152 -81 -282q122 15 282 80q61 -100 61 -178q-2 -81 -61 -178q-158 63 -282 81q17 -130 81 -283q-100 -60 -179 -60q-76 0 -178 60q62 151 81 283
q-125 -18 -282 -81z" />
    <glyph glyph-name="period" unicode="." horiz-adv-x="1433" 
d="M312 1458q46 0 46 -47q0 -46 -46 -46q-47 0 -47 46q0 47 47 47zM426 1531q46 0 46 -47q0 -46 -46 -46q-47 0 -47 46q0 47 47 47zM602 1542q47 0 47 -47t-47 -47t-47 47t47 47zM726 1458q47 0 47 -47q0 -46 -47 -46q-46 0 -46 46q0 47 46 47zM840 1354q47 0 47 -47
q0 -46 -47 -46q-46 0 -46 46q0 47 46 47zM975 1385q47 0 47 -46q0 -47 -47 -47q-46 0 -46 47q0 46 46 46zM1038 1261q46 0 46 -47t-46 -47q-47 0 -47 47t47 47zM1006 1115q47 0 47 -47q0 -46 -47 -46q-46 0 -46 46q0 47 46 47zM965 948q47 0 47 -46q0 -47 -47 -47t-47 47
q0 46 47 46zM1038 813q46 0 46 -46q0 -47 -46 -47q-47 0 -47 47q0 46 47 46zM892 668q47 0 47 -47t-47 -47q-46 0 -46 47t46 47zM706 574q46 0 46 -47q0 -46 -46 -46q-47 0 -47 46q0 47 47 47zM509 595q46 0 46 -47t-46 -47q-47 0 -47 47t47 47zM384 699q47 0 47 -47
t-47 -47q-46 0 -46 47t46 47zM405 834q47 0 47 -47q0 -46 -47 -46t-47 46q0 47 47 47zM260 928q46 0 46 -47t-46 -47q-47 0 -47 47t47 47zM260 1073q46 0 46 -46q0 -47 -46 -47q-47 0 -47 47q0 46 47 46zM135 1188q47 0 47 -47t-47 -47q-46 0 -46 47t46 47zM229 1344
q46 0 46 -47t-46 -47q-47 0 -47 47t47 47zM986 532q46 0 46 -46q0 -47 -46 -47q-47 0 -47 47q0 46 47 46zM1019 365l66 65l62 -62l63 63l66 -66l-62 -63l151 -150l-66 -67l-151 151l-63 -63l-66 66l63 63z" />
    <glyph glyph-name="slash" unicode="/" 
d="M1067 1102l40 -70h-81z" />
    <glyph glyph-name="zero" unicode="0" horiz-adv-x="1643" 
d="M89 602v187v69v187h68v-187h636v635h-187v68h187h68h187v-68h-187v-635h635v187h69v-187v0v-69v0v-187h-69v187h-635v-635h187v-69h-187v0h-68v0h-187v69h187v635h-636v-187h-68zM1168 410h-186v68h186v187h69v-187h187v-68h-187v-187h-69v187zM1168 1143h-186v69h186
v187h69v-187h187v-69h-187v-187h-69v187zM429 1143h-187v69h187v187h68v-187h187v-69h-187v-187h-68v187zM429 410h-187v68h187v187h68v-187h187v-68h-187v-187h-68v187z" />
    <glyph glyph-name="one" unicode="1" horiz-adv-x="1638" 
d="M821 824l-185 733l188 -155l189 155l-185 -733l732 186l-155 -189l155 -189l-732 186l185 -733l-189 155l-188 -155l185 733l-732 -186l155 189l-155 189z" />
    <glyph glyph-name="two" unicode="2" horiz-adv-x="977" 
d="M341 1160q21 0 65 -19.5t44 -2.5q20 15 20 38q0 19 -10 37t-10 49q-76 -27 -109 -102zM269 1160q42 138 181 172l-60 229h239l-60 -229q140 -34 181 -172l181 68v-235l-175 48q-32 -159 -187 -196l60 -760h-239l60 760q-156 38 -187 196l-174 -48v235zM333 1041
q25 -93 117 -125q0 34 10 62.5t10 50.5q0 23 -20 38v0q-14 6 -23 6q-27 0 -38.5 -16t-55.5 -16zM592 1073q-48 0 -48 -44q0 -22 12.5 -48t12.5 -65q91 32 117 125q-45 0 -56 16t-38 16zM678 1160q-32 75 -109 102q0 -37 -12.5 -50t-12.5 -36q0 -11 2 -16h3q4 -15 20 -25v0v0
v0q27 -16 49.5 4.5t59.5 20.5z" />
    <glyph glyph-name="three" unicode="3" horiz-adv-x="1728" 
d="M1283 1048v12v12q0 171 -122.5 293.5t-293.5 122.5q-172 0 -294 -122.5t-122 -293.5q0 -16 1 -24q61 17 126 17q160 0 289 -95q128 95 289 95q63 0 127 -17zM1354 1023q129 -58 210.5 -178.5t81.5 -269.5q0 -203 -144 -346.5t-346 -143.5q-159 0 -289 95
q-131 -95 -289 -95q-202 0 -345.5 143.5t-143.5 346.5q0 149 81 269.5t210 178.5q-3 24 -3 49q0 201 143.5 345t346.5 144q202 0 346 -144t144 -345q0 -25 -3 -49zM810 229q-144 144 -144 346q0 25 3 49q-217 96 -276 324q-102 -51 -166.5 -151t-64.5 -222q0 -172 122 -294
t294 -122q125 0 232 70zM810 921q-107 70 -232 70q-63 0 -116 -16q45 -190 220 -276q35 130 128 222zM925 921q94 -96 127 -222q174 86 220 276q-54 16 -116 16q-126 0 -231 -70zM1341 948q-60 -228 -275 -324q2 -32 2 -49q0 -202 -143 -346q105 -70 231 -70
q171 0 293.5 122t122.5 294q0 122 -64.5 222t-166.5 151zM867 276q128 123 128 299q0 16 -1 24q-62 -17 -127 -17q-64 0 -127 17v-12v-12q0 -176 127 -299zM867 874q-88 -85 -116 -202q53 -16 116 -16q62 0 116 16q-29 117 -116 202z" />
    <glyph glyph-name="four" unicode="4" horiz-adv-x="861" 
d="M89 700h731v-77h-42v-538h-647v538h-42v77zM180 598v-471h549v471h-549zM449 195q-31 0 -31 36q0 38 31 38q30 0 30 -38q0 -36 -30 -36v0zM472 560q21 -17 41 -21.5t28 -20.5q16 -37 19 -73q4 -44 10 -81q6 -46 41 -67q-41 0 -81.5 -8t-80.5 -5l-162 13q37 25 42 67
q5 45 5 81q1 40 14 73q6 16 25 20.5t40 21.5q12 10 13.5 21.5t16.5 11.5t15 -11.5t14 -21.5zM331 1711v34h106v107h34v-107h107v-34h-107v-199l127 -369l144 -418h-288h-287l144 418l126 369v199h-106z" />
    <glyph glyph-name="five" unicode="5" horiz-adv-x="762" 
d="M108 998h599q19 0 19 -19v-47q0 -19 -19 -19h-45v-427v0q-3 -166 -77 -283.5t-177 -117.5q-105 0 -179 117.5t-76 283.5v0v8v0.5v0.5v0v0v418h-45q-19 0 -19 19v47q0 19 19 19zM413 898q-24 -31 -31 -86q-13 -95 -46.5 -103t-33.5 -56t20.5 -141.5t89.5 -93.5q47 0 76 66
t29 164q0 97 -46 180t-58 70zM462 1447l-16 -10l-31 54l16 9zM513 1361l-16 -9l-31 54l16 9zM564 1276l-16 -10l-31 54l16 10zM615 1191l-16 -10l-31 54l16 9zM667 1105l-17 -9l-30 54l16 9zM718 1020l-16 -9l-31 54l16 9zM353 1447l31 53l17 -9l-32 -54zM302 1361l31 54
l16 -9l-31 -54zM251 1276l31 54l16 -10l-31 -54zM200 1191l31 53l16 -9l-31 -54zM148 1105l31 54l17 -9l-31 -54zM97 1020l31 54l17 -9l-32 -54zM408 1681q81 0 81 -81t-81 -81q-82 0 -82 81t82 81zM408 1652q-52 0 -52 -52t52 -52q51 0 51 52t-51 52z" />
    <glyph glyph-name="six" unicode="6" horiz-adv-x="1678" 
d="M485 638q133 0 214 -76q79 -76 79 -203q0 -133 -79 -202q-79 -70 -214 -70h-127h-106h-72h-91v551h396v0zM708 358q0 74 -42 127q-43 52 -168 52h-335v-354h335q128 0 169 51q41 53 41 124zM242 1165l-73 -154h-75l266 550h75l325 -723h-74l-146 327h-298zM496 1264h-205
l107 218zM1585 87h-61l-228 -1q-93 -1 -207.5 50.5t-114.5 165.5q0 74 75.5 140t177.5 115t205 76.5t158 25.5q-117 -84 -274 -147.5t-234 -198.5q0 -67 79 -98.5t137 -31.5h226v58h-225v99h286v-253zM863 839v722h75l293 -260l292 260h76v-551h-76v385l-294 -258l-291 255
v-553h-75zM776 591v72h86v85h71v-85h85v-72h-85v-168h-71v168h-86z" />
    <glyph glyph-name="seven" unicode="7" horiz-adv-x="1896" 
d="M1422 657q-15 -2 -30 -3.5t-30 -2.5q-17 -2 -59 -8q-33 18 -96 106q-28 36 -43 52q-24 25 -31 29q-8 4 -26 0q-5 -2 -9.5 -3t-8.5 -2v-54v-53q0 -15 -1.5 -45t7.5 -44q3 -6 9 -8q5 -4 15 -2q5 0 25 4q5 1 10 2.5t11 3.5v-9v-7q-70 -20 -106 -30q-27 -9 -53 -17l-52 -16v8
v9q4 2 7 2q4 2 7 2q10 3 24 10q8 3 16 11q11 11 14 29q3 33 3 79v60v60q1 40 1 120q0 64 -2 75q-1 5 -5 13q-2 3 -8 7q-4 1 -16 1q-21 -3 -28 -5q-3 0 -4.5 -0.5t-3.5 -0.5v7.5v8.5q22 6 32 9q22 6 32 9q31 9 56.5 15t43.5 11q64 13 103 9q39 -5 64 -29q24 -24 24 -64
q0 -47 -32 -86q-35 -41 -94 -61q28 -10 88 -85q20 -28 45 -53q20 -22 34 -30q11 -10 31 -14q19 -6 36 -4v-9v-7zM1089 842q17 4 51 14q31 11 45 19q19 10 32 26q10 12 19 35q7 24 7 51q0 49 -23 76q-23 24 -102 8q-2 -1 -27 -8q-1 -37 -1 -110q0 -74 -1 -111zM89 1253
q215 -94 429 -113q219 -20 429 37q108 28 215 51t215 36q232 26 429 -11v-385.5v-384.5q-108 21 -215 23t-214 -10q-109 -13 -216.5 -37t-213.5 -52q-211 -58 -428 -38q-216 19 -430 114v384.5v385.5zM118 1201v-351v-350q206 -84 415 -99q211 -16 414 41q102 27 206 51
t210 38q222 28 414 -3v349v350q-194 30 -414 2q-105 -13 -208.5 -36.5t-207.5 -50.5q-207 -57 -414 -40q-209 15 -415 99zM219 1056v8v9q53 -21 101 -35q47 -15 101 -27v-8.5v-8.5q6 -2 -10 2q-9 1 -27 4q-12 0 -15 -1q-10 -5 -14 -21q-3 -15 -3 -80q0 -64 -0.5 -127.5
t-0.5 -126.5q0 -54 2 -80q1 -9 5 -18q2 -8 8 -14q5 -6 16 -10q3 -2 25 -8q3 0 13 -2v-9.5v-7.5q-42 8 -101 26q-48 13 -101 36v8.5v8.5q3 -1 7 -3t6 -2q12 -6 24 -8q10 -2 16 0q9 4 13 21q3 16 3 82q0 63 0.5 126.5t0.5 126.5q0 61 -3 81q-1 7 -5 17q-2 5 -8 13
q-11 7 -16 11q-3 1 -28 13q-3 0 -5 1.5t-4 2.5zM847 508q-84 106 -155 210q-39 56 -78 115.5t-78 121.5v-90v-90t-0.5 -89.5t-0.5 -89.5q0 -40 4 -58q0 -4 7 -14q8 -8 14 -12q9 -7 22 -9q15 -4 31 -2v-9.5v-8.5q-55 0 -82 2q-26 0 -83 5v8.5v9.5q11 -2 28 1q14 4 20 7t14 11
q4 4 6 11q3 12 3 59v68.5t1 68.5v68v69q0 61 -4 80q-2 7 -6 17q-6 8 -9 10q-7 3 -17 6q4 -1 -29 5v8v9q16 -2 32 -3.5t33 -2.5q44 -2 65 -2q33 -51 65.5 -99.5t65.5 -94.5q65 -93 130 -175v74.5v76.5q0 37 0.5 74.5t0.5 75.5q0 34 -6 46q-4 6 -9 11q-11 5 -15 6q-2 0 -21 3
q-6 0 -24 -2v8.5v8.5q31 4 80 14q20 3 40 7t41 8v-8.5v-8.5q-14 -3 -26 -9q-7 -4 -19 -12q-16 -15 -20 -28q-5 -15 -5 -46q0 -53 -0.5 -105t-0.5 -103v-53v-51q0 -27 -0.5 -53t-0.5 -51q-4 -2 -7 -2q2 1 -7 -2zM1444 1124v7.5v9.5q17 1 51 1q25 1 51 0q16 0 50 -2
q17 -1 51 -5q-1 -5 -1 -17q-3 0 -5 0.5t-4 1.5q-22 2 -27 2q-10 -2 -16 -3q-11 -7 -13 -21q-4 -15 -4 -78q-1 -30 -1 -60.5v-60.5q-1 -30 -1 -60.5v-60.5q-2 -48 1 -77q1 -11 4 -16q2 -7 9 -13q6 -5 15 -9q7 -3 25 -7q5 -1 13 -3v-9v-8q-34 6 -50 9q-13 1 -26 2.5t-25 3.5
q-16 2 -50 4t-50 2v8v9h6h6q12 0 24 2q8 1 16 5q11 7 14 24q2 14 4 78q0 80 1 120v60v60q1 56 -2 75q0 6 -4 14q-6 7 -9 9q-4 2 -16 4q-11 1 -27 0q-3 0 -5.5 -0.5t-4.5 -0.5z" />
    <glyph glyph-name="eight" unicode="8" horiz-adv-x="1643" 
d="M827 867q43 0 43 -43q0 -44 -43 -44t-43 44q0 43 43 43zM827 1494q-278 0 -474.5 -197t-196.5 -473q0 -278 196.5 -475t474.5 -197q276 0 473.5 197t197.5 475q0 276 -197.5 473t-473.5 197zM827 1561q304 0 521 -216.5t217 -520.5q0 -306 -217 -522.5t-521 -216.5
q-306 0 -522 216.5t-216 522.5q0 304 216 520.5t522 216.5zM614 1421q10 3 22.5 5.5t31.5 -28.5q19 -32 46 -113t41 -134q13 -59 35 -144t20 -123q-27 27 -63.5 109.5t-66.5 130.5q-25 52 -53 128.5t-39 115.5q-11 35 2.5 42t23.5 11zM423 1313q8 6 18.5 12t39.5 -16
q29 -24 82 -90.5t85 -111.5q32 -51 81.5 -123.5t60.5 -108.5q-34 16 -97 81t-107 99q-42 42 -94 104t-76 95q-22 29 -12 40t19 19zM280 1145q5 9 13 18.5t43 -2.5t107.5 -56.5t117.5 -75.5q48 -37 119.5 -88.5t94.5 -81.5q-39 4 -120 43t-134 57q-53 24 -123.5 64.5
t-104.5 63.5q-30 20 -24.5 34t11.5 24zM203 938q1 11 5.5 22.5t41.5 12.5q36 0 120 -16.5t137 -31.5q57 -18 142 -41.5t117 -44.5q-38 -9 -127.5 0.5t-145.5 6.5q-58 6 -138 19.5t-119 23.5q-36 9 -36 23.5t3 25.5zM201 718q-3 10 -2.5 23t35.5 26q34 13 118.5 25.5
t139.5 17.5q60 3 147.5 9.5t124.5 -2.5q-32 -21 -119.5 -43t-138.5 -43q-57 -15 -137.5 -29.5t-119.5 -18.5q-37 -5 -41.5 9.5t-6.5 25.5zM275 510q-6 9 -10 21.5t24 36.5q27 24 102 64.5t126 63.5q54 23 134 59.5t119 40.5q-23 -30 -97.5 -81t-115.5 -89
q-49 -33 -119 -73.5t-106 -58.5q-33 -17 -42.5 -5t-14.5 21zM415 340q-9 7 -16.5 16.5t10.5 42.5q17 32 74 96t96 103q44 40 106.5 101.5t97.5 78.5q-12 -36 -64.5 -109.5t-78.5 -122.5q-34 -48 -86 -110.5t-80 -91.5q-25 -27 -38 -19t-21 15zM605 229q-10 3 -21 9.5
t-5 43.5q6 36 37 115.5t55 129.5q27 53 65 132t65 107q2 -38 -23 -125t-32 -142q-15 -57 -43 -133.5t-44 -112.5q-15 -34 -29.5 -31t-24.5 7zM822 189q-11 0 -23.5 2.5t-19.5 38.5t-5 121t8 140q7 60 15.5 147t24.5 123q15 -36 21.5 -126t18.5 -144q5 -59 5 -140t-2 -121
q-3 -37 -18 -39t-25 -2zM1039 225q-10 -3 -23 -5.5t-31 29.5q-19 31 -46.5 112t-40.5 135q-14 58 -35.5 143t-18.5 124q26 -28 63 -110.5t67 -129.5q24 -54 52 -129.5t40 -114.5q9 -36 -4 -43.5t-23 -10.5zM1231 334q-9 -7 -20 -13.5t-39 17.5q-29 23 -82.5 90t-83.5 112
q-33 50 -82.5 122.5t-59.5 109.5q33 -17 95.5 -82t107.5 -98q41 -42 93.5 -104t76.5 -95q21 -30 11.5 -41t-17.5 -18zM1374 502q-6 -9 -14.5 -19t-42.5 2q-35 12 -108 56.5t-117 76.5q-48 36 -119.5 87.5t-93.5 82.5q37 -5 118 -44t135 -56q53 -25 123.5 -65.5t104.5 -62.5
q30 -21 24.5 -35t-10.5 -23zM1451 709q-3 -12 -7.5 -23.5t-40.5 -11.5q-37 -1 -120.5 16t-136.5 32q-58 17 -142.5 40.5t-115.5 45.5q36 9 125.5 -0.5t146.5 -6.5q58 -6 138 -20t120 -23q36 -9 35 -24t-2 -25zM1452 929q2 -11 1.5 -24t-33.5 -25q-35 -14 -119.5 -26.5
t-138.5 -16.5q-60 -3 -148 -10t-124 3q31 20 118.5 42.5t139.5 43.5q56 15 136 29t121 19q36 4 40.5 -10.5t6.5 -24.5zM1379 1136q5 -9 9 -21t-23 -36q-28 -24 -103.5 -65t-124.5 -63q-56 -24 -136 -60.5t-117 -39.5q22 30 96.5 80.5t116.5 89.5q48 33 118 73.5t107 58.5
q33 16 42 4t15 -21zM1238 1306q8 -7 16 -17t-9 -41q-18 -33 -74.5 -97t-95.5 -102q-45 -41 -107.5 -102.5t-96.5 -77.5q10 36 63 109t79 123q33 47 85.5 109.5t80.5 92.5q25 26 37.5 18t21.5 -15zM1048 1418q10 -4 21 -10.5t5 -42.5t-37 -116t-54 -129q-28 -54 -66 -133
t-64 -106q-3 37 21.5 124t32.5 143q15 56 42.5 132.5t44.5 113.5q15 33 29.5 30t24.5 -6zM831 1458q11 0 23.5 -2.5t19.5 -38.5t5 -121.5t-7 -139.5q-8 -60 -17 -147.5t-24 -122.5q-15 35 -21.5 125t-18.5 145q-5 58 -5 139t3 122q2 36 16.5 38.5t25.5 2.5z" />
    <glyph glyph-name="nine" unicode="9" horiz-adv-x="1513" 
d="M650 379q-85 0 -59 -34.5t66.5 -75t46.5 -74.5t-118 -34q-36 -14 -54.5 -25t-46.5 -30q-7 -3 -62 -11t-67 1q1 7 27.5 47.5t49 77.5t25.5 51.5t-43 -31.5q-11 0 -10 -10t-20 14q-6 21 -20 77t-20 64q-5 17 2 31q6 22 12.5 105.5t1.5 108.5q-8 60 -18 112.5t-10 110.5
q26 69 42 159t54 156q6 36 33.5 146t44.5 116q12 0 38 18q33 21 58 43t62 42q19 6 68 22t56 -19q14 -20 30 -20q8 3 12.5 5.5t22.5 25.5l25 12q6 3 11.5 -5.5t11.5 -6.5q111 20 194 -145.5t104 -252.5q8 -87 13 -120t12.5 -50.5t20 -38t35.5 -80.5q5 -5 7 -6v-1
q3 -13 12.5 -62.5t-8.5 -58.5q-12 -53 -20.5 -103t15.5 -104q54 -43 104 -103.5t-2 -132.5l-24 -99q11 -34 -54.5 9t-118.5 10q0 -25 -34.5 -34.5t-10.5 14.5q0 31 -22.5 6t-9.5 122l2 115l-11 93q-17 5 -36 -4q-28 -57 -62.5 -103t-91.5 -68l-178 4q-9 3 -18.5 8.5
t-18.5 8.5q-13 7 -51 7zM1091 856q4 13 -4 22q-44 -3 -22.5 40t21.5 55l2 18l-41 73h-12q-12 -12 -42.5 -37t-48.5 -10l-3 45q-42 0 -58 -46t14 -75q-5 -4 -1.5 -22t4.5 -23l6 -4q27 9 28.5 -19t3.5 -45l28 -26l5 -29q23 -16 36 -20q42 -13 57.5 45t26.5 58zM765 844
q20 6 31 17l18 -13l6 -20l5 -5l26 11q0 5 9.5 6t4.5 11h-30q0 1 -0.5 2t-0.5 3q0 3 4.5 13t4.5 11l9 2q-7 17 -6 16q-15 44 -8 94t7 97l16 45q94 34 92.5 18t80.5 -16q18 18 13.5 58t10.5 67q0 40 -55.5 76.5t-82.5 60.5q-63 -32 -75 -11t-51 21q-15 -15 -45.5 -16.5
t-52.5 -4.5q-25 -15 -45 -25t-41 -31q-12 -81 -29 -153.5t-47 -146.5q0 -99 1 -130.5t20 -124.5q76 -54 80.5 -65.5t-1 4.5t11.5 51.5t119 77.5zM812 575l-9 28q-10 0 -25 5q-20 10 -16 49q0 14 9 18l8 -6v-12q8 -8 26 6l6 21l14 -8q12 12 14.5 10t31.5 -5q0 -5 3 -8l28 -8
q9 -12 5 -27t-20 -15l-13 -14q0 -8 -12 -14q-5 -14 0 -26q26 -7 53 -33.5t27 59.5q3 20 27 11q0 7 5 17l-23 45q-3 3 -9 13q-15 0 -29 12q-14 2 -28.5 5t-28.5 3l-45 -1q-12 -3 -22.5 -4.5t-21.5 -4.5q-19 -6 -19 -23q-4 -14 -19 -14q-22 -8 -30 -24q-15 -10 -19 -15
q-4 -9 24 -57t50 -4h12q30 -57 38 -56.5t8 77.5zM694 1022q-49 0 -71 13q-2 0 17 33q-2 5 -18.5 13l-16.5 8q9 3 45.5 16t36.5 22q10 13 12 16q11 2 31 -2q28 -9 49 19q12 0 12 -30q-3 -16 -3.5 -32.5t-1.5 -32.5l-25 -35h-19q-22 7 -38 -5q-1 0 -10 -3z" />
    <glyph glyph-name="colon" unicode=":" 
d="M1067 1102l40 -70h-81z" />
    <glyph glyph-name="semicolon" unicode=";" 
d="M1067 1102l40 -70h-81z" />
    <glyph glyph-name="less" unicode="&#x3c;" 
d="M1067 1102l40 -70h-81z" />
    <glyph glyph-name="equal" unicode="=" 
d="M1067 1102l40 -70h-81z" />
    <glyph glyph-name="greater" unicode="&#x3e;" 
d="M1067 1102l40 -70h-81z" />
    <glyph glyph-name="question" unicode="?" 
d="M1067 1102l40 -70h-81z" />
    <glyph glyph-name="at" unicode="@" horiz-adv-x="1977" 
d="M316 1554q56 0 111 -38q55 -39 85 -108t30 -146q0 -75 -30 -144q-28 -69 -83 -108q-54 -39 -113 -39t-113 39q-54 37 -84 107t-30 145q0 77 30 146q29 69 85 108q54 38 112 38v0zM316 1505q-49 0 -93 -31q-46 -33 -71 -90q-26 -60 -26 -122q0 -61 25 -120q25 -60 70 -90
q45 -33 95 -33q49 0 94 33q44 30 70 90q25 59 25 120q0 62 -26 122q-26 59 -70 90q-46 31 -93 31v0zM389 1215l36 -14q-10 -50 -38 -77q-31 -29 -71 -29q-53 0 -86 45q-33 43 -33 121q0 51 15 89q15 37 43 57q28 19 63 19q40 0 67 -25q27 -26 36 -66l-36 -11q-9 27 -27 43
t-41 16q-35 0 -57 -32q-22 -31 -22 -91q0 -59 21 -89t55 -30q28 0 47 20q21 19 27 54h1zM771 978h-54v443q-18 -22 -52 -48q-32 -24 -57 -36v67q45 27 80 67q35 42 48 75h35v-568zM918 1109l52 6q6 -48 25 -68q18 -21 48 -21q24 0 43 14q18 14 31 39q12 27 20 67q8 44 8 84
v6v8q-17 -34 -44 -53q-29 -21 -61 -21q-54 0 -93 51q-38 51 -38 134q0 85 40 139q38 52 99 52q42 0 78 -29q36 -31 54 -85q19 -55 19 -159q0 -109 -18 -173t-55 -98q-38 -34 -85 -34q-51 0 -84 37t-39 104v0zM1139 1359q0 57 -25 95q-25 35 -59 35q-36 0 -63 -38t-27 -98
q0 -55 25 -88q26 -34 63 -34t62 34q24 34 24 94v0zM1260 1109l52 6q5 -46 25 -68q18 -21 48 -21q24 0 43 14q18 14 31 39q12 27 20 67q9 42 9 84q0 3 -0.5 6t-0.5 8q-16 -34 -44 -53q-29 -21 -61 -21q-54 0 -93 51q-37 50 -37 134q0 86 39 139q38 52 99 52q42 0 79 -29
q36 -31 54 -85q19 -59 19 -159q0 -105 -19 -173q-19 -66 -54 -98q-39 -34 -85 -34q-52 0 -85 37t-39 104v0zM1481 1359q0 59 -24 95q-26 35 -60 35q-36 0 -63 -38t-27 -98q0 -53 26 -88q24 -34 62 -34q37 0 62 34q24 34 24 94v0zM1875 1406l-54 -6q-8 39 -20 60
q-23 29 -54 29q-27 0 -46 -18q-25 -23 -40 -70q-15 -45 -16 -131q19 37 48 57q28 18 59 18q54 0 93 -51q38 -52 38 -132q0 -54 -18 -99q-19 -46 -49 -70q-33 -25 -71 -25q-67 0 -111 64q-42 64 -42 211q0 165 47 239q40 64 111 64q52 0 85 -37q32 -37 40 -104v1zM1654 1161
q0 -35 12 -68q12 -34 33 -50q21 -17 45 -17q33 0 59 35q24 36 24 97q0 59 -24 92q-25 34 -61 34q-37 0 -63 -34q-25 -33 -25 -89v0zM415 95v566h195q60 0 90 -15q31 -16 49 -54q18 -39 18 -85q0 -60 -30 -102t-94 -52q25 -17 35 -29q24 -29 49 -75l76 -154h-73l-58 118
q-13 25 -24 44.5t-18 33.5q-21 30 -30 38q-14 10 -27 15q-12 2 -32 2h-68v-251h-58zM473 411h125q39 0 63 11t34 34q12 22 12 51q0 38 -23 66q-23 25 -71 25h-140v-187zM1065 317v66l186 1v-210q-44 -46 -88 -66q-48 -23 -94 -23q-66 0 -118 36q-54 36 -80 103
q-27 69 -27 151q0 83 27 155t77 106q51 35 117 35q46 0 86 -20q38 -20 60 -56q21 -34 34 -92l-53 -19q-9 40 -24 68q-15 25 -43 40q-30 15 -60 15q-39 0 -69 -16q-28 -14 -47 -41q-20 -28 -28 -56q-17 -55 -17 -114q0 -75 20 -127q22 -53 59 -75q38 -25 83 -25q37 0 74 19
q35 18 54 40v105h-129zM1335 95v566h58v-499h217v-67h-275z" />
    <glyph glyph-name="A" unicode="A" horiz-adv-x="992" 
d="M167 1043v89h345v227v191h89v-191v-227h344v-89h-344v-958h-89v958h-345z" />
    <glyph glyph-name="B" unicode="B" horiz-adv-x="983" 
d="M503 1314v45.5v43.5h-66v85h66v28.5v33.5h89v-33.5v-28.5h66v-85h-66v-43.5v-45.5h177v-85h-177v-45v-52h345v-89h-345v-958h-89v958h-344v89h344v52v45h-176v85h176z" />
    <glyph glyph-name="C" unicode="C" horiz-adv-x="983" 
d="M503 660v383h-344v89h344v113v76h-114v85h114v59.5v84.5h89v-84.5v-59.5h115v-85h-115v-75v-114h345v-89h-345v-434l169 -97l-43 -74l-126 72v-425h-89v477l-168 97l43 74z" />
    <glyph glyph-name="D" unicode="D" horiz-adv-x="973" 
d="M198 171v82h121v82h143v705h-345v88h345v228v191h89v-191.5v-227.5h344v-88h-344v-705h142v-82h122v-82h112v-86h-421h-421v86h113z" />
    <glyph glyph-name="E" unicode="E" horiz-adv-x="997" 
d="M641 1043q18 -10 36 -10l71 -28q15 -1 30 12.5t27 25.5h-164zM861 1043q-19 -26 -29 -28l-84 -59q-47 -5 -107 -6l-36 -25v-78q4 -15 10.5 -26.5t6.5 -32.5q1 -30 -17 -73v-630h-89v304q-14 53 -38.5 113.5t-28.5 123.5q-4 39 25.5 84t26.5 87q-2 21 -24.5 46.5
t-23.5 41.5q-2 24 -4 38q-12 0 -19 1l-133 37q-24 1 -32 28.5t-20 30.5q-8 2 -8 23h-65v89h299q-2 18 -4 26q-8 34 -7 41q0 33 1 39q0 3 11 24q3 6 15 9.5t18 6.5t11 3v116.5v152.5h89v-191v-227h345v-89h-89zM516 546q-4 32 -6 54q-1 9 -6 11.5t-5 0.5q-1 -33 4 -78.5
t13 -90.5v103zM269 1043l46 -44q22 1 29 0.5t37 1.5q9 0 21 15.5t24 21.5q0 1 0.5 2l1.5 3h-159z" />
    <glyph glyph-name="F" unicode="F" horiz-adv-x="1224" 
d="M466 851h-381v318h381v381h319v-381h381v-318h-381v-766h-319v766zM660 1112q6 4 18.5 3t15.5 8q2 8 -2.5 21t-4.5 23q-1 10 -5 20.5t-7 22.5q-8 22 -18 38q-10 15 -24 29q-6 4 -28 9q-11 3 -25 -1q-12 -4 -21 -16q-14 -18 -15 -24q-3 -9 -2.5 -19t0.5 -20q-1 -7 10 -40
q2 -10 3.5 -20.5t4.5 -19.5q2 -2 14 -22q-21 -5 -36 -17q-23 -20 -26 -47q-37 -12 -61 -13q-42 -1 -55 -11t-44 -11l-103 52q-18 -3 -24 11t-6 11t6 -22t24 -21q18 -3 45 -35.5t58 -34.5l150 -27h13h12q3 -14 7 -38q1 -16 2.5 -37.5t4.5 -42.5q3 -42 -2.5 -99.5t-0.5 -96.5
q8 -68 21.5 -132.5t28.5 -119.5q6 -26 9 -40t12 -50q0 -4 8 -4t7 4q-2 6 -6.5 127.5t-1.5 196.5q0 3 9 0t10 -12q3 -37 -2 -152.5t-3 -157.5q0 -9 6.5 -8.5t7.5 5.5q12 60 19 90q14 66 27.5 131t24.5 125q8 49 0.5 96.5t-7.5 87.5q-1 29 4.5 48t7.5 49q0 6 0.5 12.5
t0.5 12.5h11.5h15.5q41 0 95.5 17.5t85.5 20.5l103 59q17 2 29 21t12 22t-12 -11t-29 -11q-18 3 -45 -20.5t-58 -21.5l-124 17q-23 0 -42.5 9t-39.5 18q-2 52 -41 52z" />
    <glyph glyph-name="G" unicode="G" horiz-adv-x="962" 
d="M571 137q-14 -52 -67 -52q-55 0 -68 52q-69 1 -69 70q0 66 67 70v686h-157q-4 -67 -70 -67q-67 0 -70 67h-2v3q-50 15 -50 67q0 51 50 67v3h2q3 66 70 66q66 0 70 -66h157v256q-67 1 -67 70q0 68 69 70q14 51 68 51q52 0 67 -51q69 -2 69 -70q0 -69 -66 -70v-256h151
q3 66 70 66q66 0 70 -66v0v-3q52 -14 52 -67q0 -55 -52 -68v-2v0q-4 -67 -70 -67q-67 0 -70 67h-151v-686q66 -4 66 -70q0 -69 -69 -70z" />
    <glyph glyph-name="H" unicode="H" horiz-adv-x="1639" 
d="M793 1087v-151h-188v-82h188v-331h92v331h188v82h-188v151h-92zM775 1108h128v-159h184v-110h-184v-332h-128v332h-185v110h185v159zM824 1451q258 0 442.5 -184.5t184.5 -442.5q0 -260 -184.5 -444t-442.5 -184q-260 0 -444 184t-184 444q0 258 184 442.5t444 184.5z
M824 1419q-247 0 -421.5 -174.5t-174.5 -420.5q0 -247 174.5 -421.5t421.5 -174.5q246 0 420.5 174.5t174.5 421.5q0 246 -174.5 420.5t-420.5 174.5zM824 1561q304 0 520.5 -216.5t216.5 -520.5q0 -306 -216.5 -522.5t-520.5 -216.5q-306 0 -522.5 216.5t-216.5 522.5
q0 304 216.5 520.5t522.5 216.5zM824 1525q-291 0 -496.5 -206t-205.5 -495q0 -291 205.5 -496.5t496.5 -205.5q289 0 495 205.5t206 496.5q0 289 -206 495t-495 206z" />
    <glyph glyph-name="I" unicode="I" horiz-adv-x="995" 
d="M85 211q68 49 173 113t170 189q59 114 56 223.5t-6 189.5q-163 15 -275.5 131.5t-112.5 276.5h858q0 -163 -117 -281.5t-285 -127.5q-3 -75 -2 -186.5t47 -225.5q50 -127 183.5 -220t144.5 -93q18 0 -29.5 -18t-121 -38t-154 -35t-128.5 -9q-126 13 -221.5 21t-179.5 90z
M526 1548q106 0 182 -64t76 -154t-76 -154t-182 -64q-107 0 -182 64t-75 154t75 154t182 64zM492 1468v-109h-129v-58h129v-109h69v109h128v58h-128v109h-69z" />
    <glyph glyph-name="J" unicode="J" horiz-adv-x="1317" 
d="M780 640l88 -171l198 -384h-396h-396l198 384l88 171l-182 354l-293 567h585h585l-292 -567zM555 290h85v-85h60v85h85v60h-85v85h-60v-85h-85v-60z" />
    <glyph glyph-name="K" unicode="K" horiz-adv-x="1239" 
d="M85 234q86 59 194 135t190 225q75 135 60.5 169.5t-18.5 129.5q-207 18 -313.5 253.5t-106.5 425.5h1089q0 -195 -112.5 -431t-325.5 -248q-3 -90 -20 -126.5t41 -172.5q63 -151 214.5 -261.5t164.5 -110.5q23 0 -37 -21.5t-153 -45.5t-195 -42t-163 -11
q-160 16 -281.5 25.5t-227.5 106.5zM602 478v-71h-83v-37h83v-124h44v124h83v37h-83v71h-44z" />
    <glyph glyph-name="L" unicode="L" horiz-adv-x="1507" 
d="M658 1005q96 0 96 -50t-96 -50q-95 0 -95 50t95 50zM659 969q-35 0 -35 -25t35 -25t35 25t-35 25zM775 927q12 11 27 25.5t27 42.5q11 25 10 49t-1 42q-62 7 -62 90h158q0 -86 -67 -90v-41.5t9 -49.5q9 -28 29.5 -49t23.5 -21q6 0 -28 -12.5t-52 -9.5q-24 3 -41.5 4.5
t-32.5 19.5zM1318 949q23 -23 15 -17q-2 0 22 -3q13 -4 15 -5q6 -3 6 -6q0 -16 -69 -16q-8 0 -38.5 2.5t-30.5 13.5q0 3 6 6q1 0 14 5q25 4 22 3q3 1 16 16q2 72 2 94q-7 37 -26.5 40t-19.5 30h110q0 -25 -19.5 -31t-25.5 -39zM1307 1431q3 0 6 -9q3 -6 3 -15q0 -8 -3 -14
q-1 -2 -3 -4h12v-274h-30v274h10q-2 2 -3 4q-2 4 -2 13q0 -4 7 10q7 15 3 15zM226 949q18 -19 16 -17q-1 0 22 -3q13 -5 14 -5q6 -3 6 -6q0 -16 -69 -16q-8 0 -38.5 2.5t-30.5 13.5q0 3 6 6q1 0 14 5l22 3q1 0 17 16q0 27 0.5 59t0.5 35q-7 37 -26.5 40t-19.5 30h110
q0 -25 -19.5 -31t-24.5 -39v-93zM215 1431q3 0 6 -9q3 -6 3 -15q0 -8 -3 -14q0 -2 -2 -4h11v-274h-30v274h10q-2 2 -3 4q-2 8 -2 13q0 3 3 5t4 5q7 15 3 15zM85 858h1351v-146h-1351v146zM210 681h275.5h275.5h274.5h275.5q-22 -75 -44 -149.5t-44 -148.5q-22 -75 -44 -149
t-43 -149h-188h-187h-188h-187q-22 75 -44.5 149t-43.5 149q-22 74 -44.5 148.5t-43.5 149.5zM738 1561h46v-67h88v-46h-88v-202h-46v202h-88v46h88v67z" />
    <glyph glyph-name="M" unicode="M" horiz-adv-x="1084" 
d="M553 780l-11 -1l-9 -2l-10 -4l-9 -4l-9 -6l-8 -6l-8 -6l-6 -8l-6 -8l-6 -9l-4 -9l-4 -10l-2 -9l-2 -11v-10v-11l2 -10l2 -11l4 -10l4 -9l6 -9l6 -7l6 -7l8 -8l8 -6l9 -6l9 -4l10 -3l9 -2l11 -2l11 -1l10 1l10 2l10 2l10 3l9 4l9 6l8 6l8 8l6 7l6 7l6 9l4 9l3 10l3 11
l1 10l1 11l-1 10l-1 11l-3 9l-3 10l-4 9l-6 9l-6 8l-6 8l-8 6l-8 6l-9 6l-9 4l-10 4l-10 2l-10 1l-10 2zM490 1212l64 366l73 -366h-137zM495 1188h136v-110h-136v110zM364 918h412l-137 146h-144zM793 736l240 -201h-240v201zM325 524h-240l240 201v-201zM844 96h-51v409
h233v-409h-51v200h-131v-200zM140 85h-51v409h232v-409h-51v211h-130v-211zM557 395h8l9 -2l8 -1l9 -4l6 -4l7 -4l7 -5l5 -6l6 -6l4 -6l4 -8l4 -7l2 -9l2 -8l1 -9v-8v-8v-6v-6v-8v-6v-8v-6v-7v-7v-7v-6v-8v-6v-8v-7v-6v-8v-7v-6v-8v-6v-8v-7v-6v-8v-7v-7v-7v-7v-7v-7v-7h128
v811h-421v-811h120v7v7v7v7v7v7v7v8v6v7v8v6v8v6v7v8v6v7v8v6v8v6v7v7v7v6v8v6v8v6v6v8v8l3 9l2 8l3 9l3 7l5 8l5 6l6 6l6 6l7 5l8 4l7 4l9 4l9 1l9 2h9z" />
    <glyph glyph-name="N" unicode="N" horiz-adv-x="1235" 
d="M1082 1399v-239h59v239h-59zM1010 1399v-239h60v239h-60zM929 1399v-239h59v239h-59zM280 1399v-239h60v239h-60zM209 1399v-239h59v239h-59zM127 1399v-239h59v239h-59zM287 302q-6 48 -54 48t-53 -48h-1v-217h109v211v0v0v0v0v6h-1zM773 395q-13 97 -139 97
q-127 0 -139 -98v0v-309h279v299v0v0v0v0v10h-0.5t-0.5 1zM1089 302q-8 48 -54 48q-47 0 -54 -48v0v-217h108v211v0v0v0v0v6v0zM637 1531l109 -188l108 -188h-217h-217l109 188zM412 1143h459v-1058h-459v1058zM893 1559h284v-1474h-284v1474zM91 1561h285v-1473h-285v1473z
M619 1023l-15 -2l-13 -3l-14 -6l-13 -6l-12 -7l-12 -9l-11 -9l-9 -11l-9 -12l-7 -12l-6 -13l-6 -14l-3 -13l-3 -15v-15v-15l3 -15l3 -15l6 -14l6 -13l7 -12l9 -11l9 -10l11 -11l12 -9l12 -7l13 -6l14 -5l13 -3l15 -3l15 -1l15 1l14 3l15 3l13 5l14 6l12 7l12 9l10 11l9 10
l9 11l8 12l6 13l4 14l5 15l1 15l2 15l-2 15l-1 15l-5 13l-4 14l-6 13l-8 12l-9 12l-9 11l-10 9l-12 9l-12 7l-14 6l-13 6l-15 3l-14 2l-15 1z" />
    <glyph glyph-name="O" unicode="O" horiz-adv-x="1601" 
d="M85 402l22 75l5 1l9 16h19l6 -17l-26 -24l23 -79q44 76 131 134t102 140q-6 3 -54.5 -25t-70.5 -28q-28 32 -28 78q33 -8 27 -27.5t22 -16.5q-4 33 -10 83.5t10 79.5q4 -35 8 -82t32 -71q15 21 7.5 44t-7.5 49q4 10 13 30t6 32h-3q-3 3 0.5 19.5t4.5 24.5
q-37 45 -25.5 116t-36.5 110q-12 21 -13 62t14 62l16 -21l2 10q27 -12 29 -26.5t9 -41.5q-3 19 -1 47.5t34 10.5v-25q0 29 6 59.5t9 60.5q-22 -20 -31 -26.5t-36 -12.5q-6 65 58.5 167.5t132.5 108.5q117 36 209 44.5t217 -14.5q44 0 140 -67t111 -110q5 -15 26 -55.5
t31 -46.5q24 -27 25.5 -70.5t20.5 -76.5l-23 -9q-9 -84 10.5 -167.5t19.5 -167.5q4 -56 21.5 -86t37.5 -78q-17 0 -37 -61.5t-20 -75.5q6 -50 -46 -75q-14 27 -13 35t13 35q35 79 24 173q-14 6 -40 -12t-38 -27l11 -22l-19 -26q-5 9 -23.5 26t-27.5 30q-12 -30 14 -42.5
t27 -34.5l-6 -7l3 -3l21 5l20 -36q-38 -17 -58 -22v8q-19 9 -35.5 6t-37.5 -3l-4 -11l24 -9q-4 -11 -41 -11q-21 52 -2.5 78.5t2.5 74.5h5l7 21l-28 5l-10 18q-40 -16 -113.5 -38t-105.5 20q-37 0 -58.5 2.5t-54.5 17.5v19q32 0 65.5 -16t71.5 8q48 9 134.5 52t114.5 90
l19 7l-11 19q18 40 15 71t43 40q32 19 38 46.5t-43 31.5q-50 18 -48.5 60t15.5 83q0 25 -40 43.5t-43 42.5q-23 98 -61.5 130t-86 39t-99.5 10t-101 44q-15 -3 -19 -19t-22 -20q-107 -27 -156.5 -78t-54.5 -170q12 -6 23 -3t26 0q6 -29 -34.5 -50.5t20.5 -67.5l27 44
q29 16 89 16.5t70 -42.5q-45 -37 -80.5 -21t-70.5 -35l-25 -2q0 -25 12 -109t52 -84q16 -27 37.5 -50t21.5 -53l-17 4q-21 -40 -29.5 -83.5t-59.5 -43.5q-48 -27 -93.5 -51.5t-72.5 -77.5l-19 36l-19 -8q0 -42 6 -99.5t53 -73.5q69 -74 163 -67.5t175 -35.5l-9 -17
q-41 0 -75 12.5t-78 1.5q-33 13 -62 10.5t-55 15.5q-16 18 -66 47.5t-72 32.5l-17 133q-15 -33 -11 -66.5t13 -66.5h5q28 -50 16 -98q-18 0 -23 39q0 -12 5.5 -27t5.5 -18l-78 11v0q-24 45 -50.5 89.5t-48.5 92.5zM1277 85l-64 10l-1 -3v1l-99 19q29 59 96 91l10 -13l-4 -42
q22 -6 39.5 10t47.5 14l-22 12q10 48 61.5 75t72.5 75q-35 24 -23 56.5t0 62.5q17 13 23 16q15 -21 18 -36t7 -42q16 29 5 47.5t-11 47.5q36 15 41 21q-9 39 10.5 64t-14.5 82q-18 0 -28 -10.5t-31 -5.5l9 36q-15 8 -33 2.5t-34 -7.5l-4 5q9 15 26.5 23.5t34.5 17.5
q3 48 0.5 68t32.5 54q-6 18 -14.5 34.5t-14.5 34.5q0 53 -9 76q-12 -51 6.5 -159t-58.5 -108q-56 98 -45 227.5t-28 237.5q-33 90 -58 167t-118 126q-17 12 -35.5 18.5t-27.5 27.5l2 7q30 6 98.5 -35t92.5 -62q0 -23 25 -58t43 -50q-7 45 -33 74.5t-43 67.5l18 7
q35 -19 63 -81t49 -100q0 -84 20 -153t57 -139q6 -90 35 -174t42 -174l6 27q9 -45 4.5 -167.5t-55.5 -143.5q-33 -87 -78.5 -150.5t-109.5 -128.5zM710 111q18 25 11.5 36.5t14.5 33.5q44 -15 74 0l1 -9q-8 -2 -52.5 -28.5t-48.5 -32.5zM989 101l-2 5l33 13l4 -12
q-20 -6 -35 -6zM940 241h-5q28 13 87 31l-42 -14t-40 -17zM736 740v13q24 0 39 8t36 15q-21 -11 -35.5 -19.5t-39.5 -16.5zM660 792l-9 2q8 0 64 18t59 21q22 0 40.5 -8t39.5 -16q-51 -4 -97 -10.5t-97 -6.5zM845 811v0l8 -4l2 4l-8 3v-1l-2 -2v0v0zM673 882l-13 11
q42 1 74.5 13.5t72.5 6.5l-59 -31h-75zM797 1074l-9 10q27 38 82.5 67.5t90.5 -36.5q-26 11 -36 -1t-34 -30q-51 27 -51.5 15.5t-42.5 -25.5zM645 1128q-4 -3 -59 15t-73 24v7q15 1 74.5 -2.5t59.5 -40.5l-2 -1v-2zM804 1196q-8 -8 -12 -8l-8 22q37 18 90 17.5t90 -21.5
q-24 10 -81.5 4.5t-78.5 -14.5z" />
    <glyph glyph-name="P" unicode="P" horiz-adv-x="1622" 
d="M640 1146q225 0 385.5 -88t160.5 -211t-160.5 -210.5t-385.5 -87.5q-226 0 -386 87.5t-160 210.5t160 211t386 88zM1362 1030q75 0 129 -54t54 -129t-54 -128.5t-129 -53.5q-76 0 -129.5 53.5t-53.5 128.5t53.5 129t129.5 54zM1362 994q-61 0 -104 -43.5t-43 -103.5
t43 -103t104 -43q60 0 103 43t43 103t-43 103.5t-103 43.5z" />
    <glyph glyph-name="Q" unicode="Q" horiz-adv-x="1622" 
d="M999 1146q225 0 385.5 -88t160.5 -211t-160.5 -210.5t-385.5 -87.5q-226 0 -386 87.5t-160 210.5t160 211t386 88zM277 1030q75 0 129 -54t54 -129t-54 -128.5t-129 -53.5q-76 0 -129.5 53.5t-53.5 128.5t53.5 129t129.5 54zM277 994q-61 0 -104 -43.5t-43 -103.5
t43 -103t104 -43q60 0 103 43t43 103t-43 103.5t-103 43.5z" />
    <glyph glyph-name="R" unicode="R" horiz-adv-x="1615" 
d="M812 674h374v-171h-28v-232h381v-318h-381v-765h-319v765h-381v318h381v232h-27v171zM837 640v-85h315v85h-315zM1033 214q6 3 18.5 2.5t15.5 7.5q2 9 -2.5 21.5t-4.5 22.5q-1 10 -5 21t-7 22q-10 25 -18 39q-10 15 -24 28q-4 2 -28 10q-14 2 -25 -1q-11 -4 -21 -17
q-14 -18 -15 -24q-3 -9 -2.5 -19t0.5 -19q-1 -5 10 -41q3 -10 4 -20.5t4 -19.5q2 -1 14 -22q-21 -4 -36 -17q-23 -20 -26 -47q-37 -12 -61 -13q-42 -1 -55 -10.5t-44 -11.5l-102 53q-18 -3 -24.5 11t-6.5 11t6.5 -22.5t24.5 -21.5q17 -3 44 -35.5t58 -34.5l151 -26
q9 -1 25 -1q4 -22 6 -38q1 -15 2.5 -36t4.5 -43q3 -41 -2.5 -98.5t0.5 -97.5q7 -67 21 -131.5t29 -120.5q6 -25 8.5 -39.5t11.5 -50.5q0 -3 8 -3t8 3q-3 8 -7.5 129t-1.5 195q0 3 9 0.5t10 -12.5q3 -36 -2 -152t-3 -158q0 -8 6.5 -7.5t7.5 4.5q12 60 19 90q14 67 27.5 132
t23.5 124q9 50 1.5 97.5t-7.5 86.5q-1 30 4.5 48.5t7.5 47.5q0 17 1 25h11.5h15.5q41 0 95.5 17.5t85.5 20.5l103 59q17 2 29 21.5t12 22.5q0 2 -12 -12t-29 -11q-18 3 -45.5 -20.5t-57.5 -20.5l-124 16q-23 0 -42.5 9t-39.5 18q-2 52 -41 52zM999 1051q75 0 128.5 -53.5
t53.5 -128.5q0 -76 -53.5 -129.5t-128.5 -53.5q-76 0 -129.5 53.5t-53.5 129.5q0 75 53.5 128.5t129.5 53.5zM999 1015q-61 0 -103.5 -43t-42.5 -103q0 -61 42.5 -104t103.5 -43q60 0 103 43t43 104q0 60 -43 103t-103 43z" />
    <glyph glyph-name="S" unicode="S" horiz-adv-x="1636" 
d="M604 734l-258 258l-128 -128l258 -258l-379 -379q-19 448 30 713q54 299 269 514q104 107 228 85q121 -23 209 -121q87 -99 115 -243q22 -121 -32 -237l-54 54zM224 98l380 379l258 -257l129 128l-258 258l258 258l-54 53q112 52 232 30q145 -28 243 -113
q97 -88 123 -209q24 -122 -82 -228q-215 -215 -514 -269q-263 -50 -715 -30z" />
    <glyph glyph-name="T" unicode="T" horiz-adv-x="1580" 
d="M802 1561q48 -52 83 -104.5t35 -131.5q0 -80 -44.5 -131.5t-99.5 -51.5q-79 39 -76.5 91.5t2.5 100.5q0 47 19 52t38 31q18 26 16 68.5t27 75.5zM1315 777q-13 -41 -23 -64l-4 -3l-51 66l13 68l-31 -41l-50 63l-1 -4l-12 14l-29 -54l-38 87l24 -115l-82 -153l1 1l-35 66
l53 96l-73 -56l-52 96l12 97l-27 -73l-2 5l-2 4l-3 4l-2 4l-3 5l-2 4l-3 5l-2 3l-3 6l-2 3l-3 5l-3 3l-1 5l-3 4l-2 4l-3 4l-52 -61l-79 -10l36 -40l-79 -80l-51 46l17 -98l-29 -33l-102 147l28 62l-55 -25l-4 7l-5 7l-5 7l-4 7l-6 6l-5 7l-4 7l-5 7l-56 -77l-58 88l20 -141
l-31 -45l-41 52l8 -89q-22 50 -35 98l15 29l-29 26q-19 84 -19 181q-2 121 75 178q73 56 173 50q96 -6 188 -73q90 -68 119 -192q27 121 117 189q91 67 187 73q95 7 173 -49q77 -55 77 -176q0 -73 -10 -135h-1l-69 -53zM1022 897l-87 -60l29 -28l56 39l57 -26l18 38z
M650 904l-89 -60l29 -27l47 31l42 -27l27 54zM467 493l56 30l-27 53l-42 -27l-47 32l-25 -24q-8 12 -13 18q-9 16 -27 46l37 46l80 -39l-53 74l55 69l71 -109l-68 -76l96 34l67 -100l18 23l-1 1l21 22l22 -65l-2 92l59 67l40 -37l-12 68l86 99l33 -59h-3l-8 -117l37 69
l49 -91l-24 -112l52 61l33 -59l22 44h-3l42 78l29 -69l-7 113l49 96v7l61 -71l-13 -72l35 45l15 -17q-20 -37 -35 -61q-5 -7 -9.5 -14t-8.5 -13l-53 26l-12 -42l41 -19q-132 -184 -384 -428q-277 268 -407 461zM830 511l74 38l-18 37l-58 -26l-56 40l-29 -29zM1219 496
l-40 17l22 37l20 -10l45 47l32 -35zM310 680l32 -58l-24 -30l20 -75l-50 28v8l-33 -44l-78 78l-22 -61l-5 84h7l-72 101l46 -14l41 49l-12 -68l94 -78zM1291 710l61 -124l153 222l-31 -69l-43 -78l16 -86l-43 40l-53 -87l-89 105q7 18 14 37.5t15 39.5zM215 881l45 -45
l11 -60l-56 57l-123 -35zM1380 853l-63 -78l22 111l31 23l126 -66z" />
    <glyph glyph-name="U" unicode="U" horiz-adv-x="1930" 
d="M913 1500v22h40v39h22v-39h39v-22h-39v-22h14.5h15.5q-15 -38 -15 -59q0 -12 6 -36q113 -12 190.5 -90.5t77.5 -185.5q0 -23 -2 -34h35v-190h66v-121h37v-31h439v-646h-1750v646h438v31h37v121h66v190h35q-2 22 -2 34q0 107 77.5 185.5t190.5 90.5q6 18 6 36q0 25 -15 59
h14.5h16.5v22h-40zM134 684v-32h1659v32h-1659zM144 593v-467h53v467h-53zM302 593v-467h53v467h-53zM460 593v-467h52v467h-52zM617 472v-346h53v346h-53zM723 472v-346h52v346h-52zM838 472v-346h53v346h-53zM1049 472v-346h52v346h-52zM1153 472v-346h53v346h-53z
M1259 472v-346h52v346h-52zM1416 593v-467h53v467h-53zM1574 593v-467h53v467h-53zM1732 593v-467h52v467h-52zM964 625l-214 -65l-213 -66h427h427l-214 66zM917 265v-128h102v128h-102zM917 449v-99h102v99h-102z" />
    <glyph glyph-name="V" unicode="V" horiz-adv-x="1792" 
d="M1173 1075q-70 92 -79.5 191t50.5 159q67 68 184.5 46.5t215.5 -118.5q97 -99 118.5 -216t-45.5 -184q-60 -60 -159.5 -50.5t-191.5 79.5q-26 -28 -100.5 -103.5t-170.5 -172.5q74 -75 136 -134.5t90 -78.5l131 130l-28 27l89 89l127 -126l-67 -67l-76 75l-41 -41l76 -76
l-76 -75l41 -41l76 75l75 -75l41 41l-76 75l68 68l126 -127l-89 -89l-27 28l-131 -131l40 -39q34 -35 0 -69l-41 -41q-28 -28 -62 7q-40 39 -190 188.5t-309 309.5q-160 -160 -310 -309.5t-189 -188.5q-35 -35 -62 -7l-41 41q-35 34 0 69l39 39l-130 131l-27 -28l-89 89
l126 127l67 -68l-75 -75l41 -41l75 75l76 -75l41 41l-76 75l76 76l-41 41l-76 -75l-67 67l126 126l89 -89l-27 -27l130 -130q28 19 90 78.5t137 134.5q-98 97 -172.5 172.5t-98.5 103.5q-93 -70 -192.5 -79.5t-158.5 50.5q-68 67 -47 184t119 216q98 97 215.5 118.5
t185.5 -46.5q59 -60 49.5 -159t-78.5 -191q29 -24 106.5 -102t168.5 -169q90 91 167.5 169t107.5 102zM1186 1363q-50 -50 -30.5 -139.5t95.5 -164.5q76 -77 165 -96t139 31q49 49 30 138t-95 166q-76 75 -165.5 94t-138.5 -29zM610 1363q-50 48 -139.5 29t-164.5 -94
q-77 -77 -96 -166t31 -138q48 -50 137.5 -31t166.5 96q75 75 94 164.5t-29 139.5z" />
    <glyph glyph-name="W" unicode="W" horiz-adv-x="1472" 
d="M1379 1562l5 -8l-599 -277l-41 -7zM1391 1509l6 -8l-630 -283l-6 8zM1398 1469l4 -7l-601 -267l-5 8zM98 1562l653 -286l-56 13l-602 265zM96 1511l634 -266l-5 -8l-634 266zM94 1480l601 -267l-5 -7l-601 266zM97 1443v-1087l549 -253v1088zM1392 1443v-1087l-548 -253
v1088zM988 775l99 45v-343l102 46v342l99 45v121l-99 -44v99l-102 -46v-99l-99 -45v-121zM667 1176h162v-1091h-162v1091zM676 850v-17h143v17h-143zM676 952v-16h143v16h-143z" />
    <glyph glyph-name="X" unicode="X" horiz-adv-x="967" 
d="M760 1559q21 0 36 -25q8 -12 15.5 -24.5t15.5 -24.5q37 -66 37 -139q0 -36 -8 -58q-6 -17 -22 -45q-33 -52 -74 -52q-21 0 -33 21q-6 10 -13 21.5t-13 23.5q-14 21 -19 38q-4 18 -4 51q0 35 25 58q26 21 41 45q14 25 10 59q-5 34 6 51zM621 1076h300v-991h-300v991z
M746 1174h50v-86h-50v86z" />
    <glyph glyph-name="Y" unicode="Y" horiz-adv-x="1065" 
d="M746 1174h50v-86h-50v86zM621 1076h74.5h75.5h74.5h75.5q12 -124 23.5 -248t23.5 -247q11 -124 23 -248.5t24 -247.5h-123h-121h-122h-121q11 123 22.5 247.5t23.5 248.5q12 123 23.5 247t23.5 248zM737 927v-111h-111v-69h111v-512h68v512h111v69h-111v111h-68z
M760 1559q21 0 36 -25q8 -12 15.5 -24.5t15.5 -24.5q37 -66 37 -139q0 -36 -8 -58q-6 -17 -22 -45q-33 -52 -74 -52q-21 0 -33 21q-6 10 -13 21.5t-13 23.5q-14 21 -19 38q-4 18 -4 51q0 35 25 58q26 21 41 45q14 25 10 59q-5 34 6 51z" />
    <glyph glyph-name="Z" unicode="Z" horiz-adv-x="1436" 
d="M212 942h144h144h144.5h145.5h143.5h144.5h145h145q-13 -54 -26 -107t-26 -107t-26 -107.5t-25 -107.5q-13 -54 -26 -107t-26 -107t-26 -107t-25 -107h-93.5h-92.5h-93.5h-92.5h-93.5h-92.5h-94.5h-91.5q-14 54 -27.5 107t-25.5 107q-31 126 -50 214q-14 54 -27.5 107.5
t-25.5 107.5q-13 54 -25.5 107t-24.5 107v0zM764 1074h62v-107h-63zM786 1550q26 0 44 -31q9 -15 19 -30.5t19 -29.5q17 -33 32 -79q15 -48 15 -94q0 -45 -11 -71q-11 -27 -27 -57q-39 -64 -91 -64q-27 0 -42 26q-8 12 -15.5 26.5t-16.5 29.5q-18 32 -23 48q-5 18 -5 62
q0 46 32 71q32 27 50 57q17 30 11 73q-5 43 9 63z" />
    <glyph glyph-name="bracketleft" unicode="[" 
d="M1067 1102l40 -70h-81z" />
    <glyph glyph-name="backslash" unicode="\" 
d="M1067 1102l40 -70h-81z" />
    <glyph glyph-name="bracketright" unicode="]" 
d="M1067 1102l40 -70h-81z" />
    <glyph glyph-name="asciicircum" unicode="^" horiz-adv-x="1442" 
d="M197 1137q-71 101 -79.5 203t53.5 153q60 51 159 25t187 -112l26 21q23 20 44 -4l26 -32q20 -23 -3 -43l-26 -22q59 -85 74.5 -172.5t-16.5 -144.5q22 0 36 -15l667 -796q29 -35 -11 -68l-31 -26q-40 -35 -69 1l-667 796q-16 16 -7 42q-140 -40 -297 114l-25 -21
q-24 -21 -44 4l-27 32q-20 23 4 43zM271 1318q-17 -15 -3 -31q14 -17 31 -2q16 13 2 30q-13 18 -30 3zM210 1267q-16 -13 -3 -31q14 -17 31 -2q17 12 3 31q-15 16 -31 2zM165 1321q-18 -16 -3 -31q14 -17 31 -2q17 13 3 31q-15 16 -31 2zM386 1415q-16 -14 -2 -31
q12 -17 31 -2q16 12 2 31q-14 15 -31 2zM326 1364q-18 -14 -3 -31q14 -17 31 -2q15 13 3 31q-15 16 -31 2zM341 1469q-17 -15 -2 -31q12 -17 30 -3q17 15 3 31q-15 17 -31 3zM225 1372q-17 -15 -2 -31q14 -17 31 -3q16 14 2 31q-13 17 -31 3zM281 1418q-17 -14 -3 -31
q13 -16 31 -2q15 12 3 31q-15 16 -31 2zM183 1423q-18 -16 -3 -31q15 -18 31 -3q17 15 3 31q-16 17 -31 3zM238 1469q-17 -15 -3 -31q14 -17 31 -3q17 15 3 31q-16 17 -31 3zM187 962q14 0 21.5 -40t7.5 -65q0 -63 -34 -63t-34 63q0 25 12.5 65t26.5 40zM281 740
q14 0 21.5 -40t7.5 -65q0 -63 -34 -63t-34 63q0 25 12 65t27 40z" />
    <glyph glyph-name="underscore" unicode="_" horiz-adv-x="1633" 
d="M190 522q-45 74 -73 148t-28 149t28 148.5t73 148.5q117 -48 234.5 -83.5t235.5 -50.5q-16 117 -51.5 234.5t-83.5 235.5q74 44 148 72.5t149 28.5t149 -28.5t148 -72.5q-48 -118 -83.5 -235.5t-50.5 -234.5q117 15 235 50.5t235 83.5q45 -75 73 -148.5t28 -148.5
t-28 -149t-73 -148q-117 48 -235 83t-235 52q15 -118 50.5 -236t83.5 -235q-74 -45 -148 -73t-149 -28t-149 28t-148 73q48 117 83.5 235t51.5 236q-118 -17 -235.5 -52t-234.5 -83z" />
    <glyph glyph-name="grave" unicode="`" 
d="M1067 1102l40 -70h-81z" />
    <glyph glyph-name="a" unicode="a" horiz-adv-x="1590" 
d="M214 1174h50v-86h-50v86zM89 1076h300v-991h-300v991zM582 1174h50v-86h-50v86zM457 1076h300v-991h-300v991zM961 1174h50v-86h-50v86zM836 1076h300v-991h-300v991zM871 1050v-922h221v922h-221zM1340 1174h50v-86h-50v86zM1215 1076h300v-991h-300v991zM228 1559
q21 0 36 -25q7 -12 15 -24.5t16 -24.5q37 -68 37 -139q0 -36 -8 -58q-12 -27 -23 -45q-31 -52 -73 -52q-21 0 -33 21q-6 10 -13 21.5t-13 23.5q-17 26 -19 38q-4 12 -4 51q0 35 25 58q26 21 41 45q13 24 9 59q-5 35 7 51z" />
    <glyph glyph-name="b" unicode="b" horiz-adv-x="1590" 
d="M228 1559q21 0 36 -25q7 -12 15 -24.5t16 -24.5q37 -68 37 -139q0 -36 -8 -58q-12 -27 -23 -45q-31 -52 -73 -52q-21 0 -33 21q-6 10 -13 21.5t-13 23.5q-17 26 -19 38q-4 12 -4 51q0 35 25 58q26 21 41 45q13 24 9 59q-5 35 7 51zM596 1559q20 0 37 -25q24 -39 30 -49
q37 -66 37 -139q0 -36 -8 -58q-6 -17 -22 -45q-31 -52 -74 -52q-21 0 -33 21q-6 10 -12.5 21.5t-13.5 23.5q-14 21 -19 38q-4 18 -4 51q0 35 26 58q26 22 40 45q14 25 10 59q-5 34 6 51zM1215 1076h300v-991h-300v991zM1340 1174h50v-86h-50v86zM871 1050v-922h221v922h-221
zM836 1076h300v-991h-300v991zM961 1174h50v-86h-50v86zM457 1076h300v-991h-300v991zM582 1174h50v-86h-50v86zM89 1076h300v-991h-300v991zM214 1174h50v-86h-50v86z" />
    <glyph glyph-name="c" unicode="c" horiz-adv-x="1590" 
d="M228 1559q21 0 36 -25q7 -12 15 -24.5t16 -24.5q37 -68 37 -139q0 -36 -8 -58q-12 -27 -23 -45q-31 -52 -73 -52q-21 0 -33 21q-6 10 -13 21.5t-13 23.5q-17 26 -19 38q-4 12 -4 51q0 35 25 58q26 21 41 45q13 24 9 59q-5 35 7 51zM975 1559q20 0 37 -25
q7 -12 14.5 -24.5t15.5 -24.5q37 -66 37 -139q0 -36 -8 -58q-6 -17 -22 -45q-31 -52 -74 -52q-21 0 -33 21q-6 10 -13 21.5t-13 23.5q-14 21 -19 38q-4 18 -4 51q0 35 26 58q26 22 40 45q14 25 10 59q-5 34 6 51zM596 1559q20 0 37 -25q24 -39 30 -49q37 -66 37 -139
q0 -36 -8 -58q-6 -17 -22 -45q-31 -52 -74 -52q-21 0 -33 21q-6 10 -12.5 21.5t-13.5 23.5q-14 21 -19 38q-4 18 -4 51q0 35 26 58q26 22 40 45q14 25 10 59q-5 34 6 51zM1215 1076h300v-991h-300v991zM1340 1174h50v-86h-50v86zM871 1050v-922h221v922h-221zM836 1076h300
v-991h-300v991zM961 1174h50v-86h-50v86zM457 1076h300v-991h-300v991zM582 1174h50v-86h-50v86zM89 1076h300v-991h-300v991zM214 1174h50v-86h-50v86z" />
    <glyph glyph-name="d" unicode="d" horiz-adv-x="1590" 
d="M214 1174h50v-86h-50v86zM89 1076h300v-991h-300v991zM582 1174h50v-86h-50v86zM457 1076h300v-991h-300v991zM961 1174h50v-86h-50v86zM836 1076h300v-991h-300v991zM871 1050v-922h221v922h-221zM1340 1174h50v-86h-50v86zM1215 1076h300v-991h-300v991zM596 1559
q20 0 37 -25q24 -39 30 -49q37 -66 37 -139q0 -36 -8 -58q-6 -17 -22 -45q-31 -52 -74 -52q-21 0 -33 21q-6 10 -12.5 21.5t-13.5 23.5q-14 21 -19 38q-4 18 -4 51q0 35 26 58q26 22 40 45q14 25 10 59q-5 34 6 51zM975 1559q20 0 37 -25q7 -12 14.5 -24.5t15.5 -24.5
q37 -66 37 -139q0 -36 -8 -58q-6 -17 -22 -45q-31 -52 -74 -52q-21 0 -33 21q-6 10 -13 21.5t-13 23.5q-14 21 -19 38q-4 18 -4 51q0 35 26 58q26 22 40 45q14 25 10 59q-5 34 6 51zM1343 1559q22 0 37 -25q24 -39 30 -49q38 -67 38 -139q0 -36 -8 -58q-12 -27 -23 -45
q-31 -52 -74 -52q-20 0 -32 21q-6 10 -13 21.5t-13 23.5q-17 26 -19 38q-4 12 -4 51q0 35 25 58q26 21 41 45q13 24 9 59q-5 34 6 51zM228 1559q21 0 36 -25q7 -12 15 -24.5t16 -24.5q37 -68 37 -139q0 -36 -8 -58q-12 -27 -23 -45q-31 -52 -73 -52q-21 0 -33 21
q-6 10 -13 21.5t-13 23.5q-17 26 -19 38q-4 12 -4 51q0 35 25 58q26 21 41 45q13 24 9 59q-5 35 7 51z" />
    <glyph glyph-name="e" unicode="e" horiz-adv-x="1131" 
d="M495 535l-248 -232h-158l385 350l-340 320h157l181 -172h1v-1l1 -1l1 -1l2 -1l1 -1v0v-1l1 -1h1v-1l2 -1h1v-1l1 -1h1v-1l1 -1v0v-1l2 -1h1l1 -1v-1l2 -1l1 -1l1 -1l1 -1v791h289h4h4h5h5h4h4h6h4h4h4h4l4 -1h4h3l4 -1h4h3h4h4l3 -1h3l3 -1h4l2 -1h4h3l2 -1l3 -1h4h2
l2 -1h4l3 -1l4 -1l3 -1h3l3 -1l4 -1l3 -1l3 -1l3 -1l3 -1l4 -1l3 -1l3 -1l3 -2l3 -1l3 -1l3 -2l2 -1l3 -1l3 -2l3 -2l2 -1l4 -1l2 -2l2 -2l4 -2l3 -1l2 -3l3 -1l2 -1l3 -3l2 -2l2 -1l2 -3l3 -2l2 -2l2 -2l2 -2l3 -3l2 -2l2 -2l2 -3l2 -2l2 -3l2 -2l2 -3l2 -2l2 -3l2 -3l2 -2
l1 -4l2 -3l2 -2l2 -3l2 -4l1 -2l2 -4l2 -4l1 -2l2 -3l1 -4l2 -4l2 -3l1 -4l1 -3l1 -4l2 -3l1 -4l2 -4l1 -3v-3l3 -4v-4l1 -4v-3l2 -4v-4l2 -4v-3l1 -4l1 -5v-3v-4l2 -5l1 -4v-4v-4v-4v-4l1 -3v-4v-4v-5v-4v-4v-5v-6v-7v-8v-7l-1 -7v-7v-7l-3 -6v-7l-2 -6v-7l-2 -6l-2 -6
l-1 -7l-1 -6l-2 -6l-3 -6l-1 -7l-3 -5l-1 -7l-4 -6l-3 -5l-2 -6l-3 -5l-3 -6l-3 -5l-3 -5l-4 -6l-3 -5l-3 -5l-4 -6l-4 -5l-4 -4l-4 -6l-4 -4l-5 -5l-5 -4l-4 -4l-6 -4l-5 -4l-6 -4l-6 -3l-6 -3l-6 -4l-6 -2l-7 -3l-6 -3l-7 -3l-7 -2l-7 -3l-8 -2l-7 -2l-8 -1l-9 -2l-9 -1
l-8 -2h-8l-9 -2h-9l-9 -1l-11 -1h-10h-9h-10h-196v-270l1 2h1l1 2l1 1l1 1h1l1 1l1 2h1l1 2l2 1v1l2 1l1 1l1 1l1 1l1 1l1 1l2 1v1l2 1l1 1l1 1l1 1l1 1l1 1l1 1l1 1h1l2 2l2 2l201 177h143l-350 -316l378 -354h-163l-244 233v-451h-101v450zM596 1139h198h7l4 1h6h6l7 1h5
h5l6 1l5 1l5 1l5 1h5l4 2h4l5 2l4 1l5 1l4 2l4 2l5 1l3 2l4 2l3 2l5 2l3 2l3 2l3 2l4 3l2 2l3 2l3 3l2 2l3 3l2 3l3 3l2 4l2 2l2 4l2 3l2 3l2 3l2 4l2 3l1 4l2 3l2 4l1 3l1 4l2 4v4l2 4v4l2 4v4l2 4v4v5l1 4v5l1 5v5v4v5v5v3v4v3v4v3l-1 4v3v3l-1 4v2v4v3l-2 3v3l-1 4l-1 2
v3l-1 3l-1 4l-1 2l-1 4l-1 3l-1 3l-1 3l-2 2v3l-2 2l-1 3l-1 3l-2 2l-1 3l-1 2l-2 3l-2 3l-1 2l-1 2l-3 2l-1 2l-2 2l-1 3l-2 2l-3 2l-1 2l-2 2l-2 2l-1 1l-2 2l-2 2l-2 3h-2l-3 1l-2 3h-2l-2 1l-2 3h-3l-1 3l-2 1h-4l-1 1l-4 2l-2 1l-3 1h-2l-2 1v0l-3 1h-2h-2l-2 1l-2 1
h-3h-2h-2l-2 1h-3l-3 1h-3h-2h-3h-3h-3l-3 1h-3h-4h-3l-3 1h-4h-4h-3h-6h-2l-5 1h-3h-5h-4h-196v-326z" />
    <glyph glyph-name="f" unicode="f" horiz-adv-x="1520" 
d="M849 1113q-82 -9 -148 -36l-104 249l-183 -436h367l-36 91q56 45 138 54l186 -434q14 -35 33.5 -69.5t91.5 -34.5v-29h-406v29q21 0 74 11.5t22 98.5l-80 215h-421l-78 -215q-32 -87 21 -98.5t75 -11.5v-29h-312v29q72 0 91 34.5t34 69.5l405 960h42zM463 802h168
q-22 -92 -13.5 -180.5t32.5 -143.5q43 -100 90.5 -126.5t83.5 -41.5l24 -225h-436v239h23q21 -90 97 -90h233l-3 42q-85 25 -143 59.5t-103 101.5q-65 94 -73 189t20 176zM664 904l-153 1q41 63 81.5 89t67.5 42q110 65 271 65q159 0 270 -65q29 -18 76 -50.5t92 -113.5
q46 -84 49.5 -202.5t-73.5 -232.5q-45 -67 -103.5 -101.5t-142.5 -59.5l-3 -42h233q75 0 97 90h22v-239h-435l24 225q35 15 82.5 41.5t91.5 126.5q36 84 34 242t-101 257q-45 45 -101 61t-112 16q-57 0 -113 -16t-101 -61q-33 -33 -53 -73z" />
    <glyph glyph-name="g" unicode="g" horiz-adv-x="1771" 
d="M1577 805l4 -1v-3l99 -57l-4 -73q-33 -273 -169 -447q-17 -15 -33 -29.5t-31 -28.5q-41 -35 -67 -51l-56 -23l-39 -6q-23 -2 -66 6q-9 4 -42 16l-18 12q-10 5 -16 11q-11 12 -26 24q-18 16 -25 26q-12 5 -26 31q-8 12 -13.5 23t-8.5 18q-2 5 -4.5 10t-3.5 11q-6 12 -8 23
q10 -12 12 -20q8 0 19 -23q10 -24 17 -24q15 -19 33 -31q9 -7 18 -13.5t18 -11.5l135 -29l79 31l68 74q100 153 134 372q8 43 10 79q1 45 7 82q0 120 -8 210q-18 167 -86 339q-8 12 -16 25.5t-16 28.5q-20 32 -38 47q-28 38 -67 49q-19 4 -73 21q-167 0 -265 -181
q-14 -41 -18 -57q-13 -41 -19 -56v-254h271v-203h-282v-635h-117v631h-278v212l278 -5l1 254q-17 124 -50 187q-22 25 -50 47q-92 46 -148 54q-140 0 -230 -123q-29 -41 -67 -106q-12 -30 -21 -52t-15 -36q-25 -88 -37 -165q-21 -190 -7 -312q27 -351 221 -502
q82 -48 125 -31q60 4 89 16q32 10 73 44q9 14 27 30q11 10 28 34q-33 -68 -51 -89q-13 -5 -46 -43q-11 -6 -35 -22q-8 -3 -15 -5.5t-14 -4.5q-9 -3 -29 -9q-40 -6 -126 2q-51 12 -114 55q-22 20 -34 32q-18 16 -34 34q-19 24 -60 86q-9 15 -27 49q-9 18 -25 52
q-11 24 -21 55q-12 38 -19 58q-8 51 -32 181q-2 26 -2 39q-2 26 -2 40q-7 149 35 327q10 28 17 50q4 12 8.5 26t10.5 28q15 27 27.5 50t21.5 41q8 10 22.5 30t35.5 48q59 57 102 88q9 4 18 8.5t18 9.5q24 12 37 18q56 17 112 24q27 5 57 1q37 -6 58 -7q21 -7 74 -27
q54 -22 95 -86q33 -57 38 -92q6 -37 26 -75q11 56 52 106q27 32 66 82q28 25 57 41q24 15 60 35q68 26 129 26q16 -3 34 -7t37 -7q36 -9 67 -33q28 -18 82 -68q88 -102 137 -238q3 -9 10.5 -33.5t20.5 -63.5l29 -216l-2 -2v-4z" />
    <glyph glyph-name="h" unicode="h" horiz-adv-x="1543" 
d="M1348 981l-61 -76l-46 56l98 75l122 -65zM212 1008l72 -66l-25 -46l-47 65l-120 -34zM130 828l40 49l-12 -66l92 -77l55 78l-9 94l39 -51l31 44l-19 138l56 -87l55 76l5 -7l4 -7l5 -6l5 -7l4 -7l5 -6l5 -7l4 -7l53 25l-26 -61l99 -143l28 32l-16 95l49 -44l77 78l-35 38
l77 10l51 60l2 -4l3 -3l3 -5l1 -4l2 -4l3 -4l3 -3l2 -6l3 -3l2 -5l3 -4l2 -5l1 -4l4 -3l2 -5l2 -4l26 71l-12 -95l51 -94l72 56l-53 -95l35 -64l-1 -1l80 150l-23 112l37 -86l28 54l11 -14l2 3l48 -61l31 40l-13 -66l50 -64l69 37l-51 -62l45 -61l-1 -35l3 33l146 183
l-30 -68l-42 -75l16 -84l-42 38l-42 -73v5l-10 -16l-106 122l-34 -44l12 70l-60 69v-6l-47 -95l7 -109l-28 68l-41 -77h2l-21 -43l-32 57l-51 -59l24 109l-48 89l-36 -68l8 115h2l-32 57l-84 -96l12 -67l-39 37l-57 -66l1 -89l-22 63l-20 -21l1 -1l-18 -23l-65 98l-93 -33
l67 74l-71 107l-53 -68l52 -72l-78 37l-60 -73l20 -73l-49 28v8l-32 -44l-76 77l-22 -60l-5 82h7l-70 99zM1191 633l-78 34l12 41l69 -33l43 47l32 -35zM812 647l-85 59l28 28l55 -39l56 26l18 -37zM458 630l-87 59l28 26l46 -31l41 27l27 -52z" />
    <glyph glyph-name="i" unicode="i" horiz-adv-x="1315" 
d="M696 284q16 -16 29 -32q28 -36 43 -53q36 -35 67 -48q44 -21 141 -40q-82 -15 -152 -20q-39 -3 -77 -4.5t-76 -1.5q-39 0 -77 1.5t-76 4.5q-72 5 -153 20q98 20 141 40q30 13 67 48q15 17 43 53q12 16 29 32v93q-55 8 -55 33q0 23 55 32v245l-82 -285l35 388l-235 -310
l172 348l-331 -203l287 262l-382 -70l361 141l-381 73l388 1l-330 205l363 -139l-233 311l288 -261l-105 374l174 -347l37 386l37 -386l174 347l-105 -374l288 261l-234 -311l363 139l-330 -205l389 -1l-382 -73l362 -141l-382 70l286 -262l-331 203l172 -348l-235 310
l35 -388l-82 285v-245q55 -9 55 -32q0 -25 -55 -33v-93zM671 1105q-51 0 -87.5 -36t-36.5 -87t36.5 -87t87.5 -36t87 36t36 87t-36 87t-87 36z" />
    <glyph glyph-name="j" unicode="j" horiz-adv-x="1639" 
d="M579 1539l502 -166q51 -18 88 -55.5t37 -73.5v-126q0 -36 -37 -49.5t-88 3.5l-221 73q-44 -116 -44 -221q7 -66 15.5 -120t30.5 -129q-18 4 -34.5 -7t-33.5 -2q-28 14 -72 47q49 121 49 234q0 103 -37 240l-155 51q-52 17 -88.5 55t-36.5 74v126q0 36 36.5 49t88.5 -3z
M739 1218l316 -105q112 -37 112 32v99q0 69 -112 107l-450 148q-112 37 -112 -31v-100q0 -70 112 -106l119 -40q0 4 -2 8l8 -6t9 -6zM701 161h89q10 -12 10 -28q0 -48 -55 -48q-54 0 -54 48q0 16 10 28zM284 408h90q10 -12 10 -27q0 -48 -55 -48t-55 48q0 15 10 27z
M1168 425h90q10 -12 10 -27q0 -48 -55 -48t-55 48q0 15 10 27zM686 777q-112 102 -268 111q101 147 294 161q19 -62 19 -113q0 -79 -45 -159zM887 1022q113 -37 182 -141q-101 -33 -177 -119q-37 93 -37 147q0 32 9.5 58t22.5 55zM1115 216h-698q0 160 102.5 274t246.5 114
t246.5 -114t102.5 -274zM720 658q-96 -6 -166.5 -72.5t-118.5 -150.5h-346q0 162 103 277t249 115q190 0 279 -169zM1098 470q-95 125 -216 146q39 114 121.5 188.5t197.5 74.5q148 0 254 -120.5t106 -288.5h-463z" />
    <glyph glyph-name="k" unicode="k" horiz-adv-x="1527" 
d="M1455 1412v-71h-140v-482l118 -100v-674h-1344v674l870 412l287 -251v421h-139v71h139v149h69v-149h140z" />
    <glyph glyph-name="l" unicode="l" horiz-adv-x="1768" 
d="M317 429q305 -68 565 -64.5t567 64.5q-3 -21 -6.5 -45t-3.5 -45q-282 -66 -524.5 -65.5t-524.5 51.5q-54 15 -63.5 18t-9.5 86zM830 1167h-88v97h94v94h96v-94h94v-97h-94l2 -136q12 -20 22.5 -40t22.5 -39q24 -33 47.5 -64.5t53.5 -58.5q30 30 50 43q14 14 27 30t28 31
q13 18 8.5 17t-12.5 17q-15 12 -19 44q-8 51 28.5 86.5t88.5 17.5q58 -35 48 -106q-14 -42 -51 -67q-52 -12 -30.5 -35.5t45.5 -61.5q19 -23 38 -45t42 -41q12 -9 22 -19q13 0 69 20t69 33q-30 50 -12 95l31 41q34 16 45 16q20 3 56 -16q21 -21 27 -57.5t-17 -58.5
q-18 -35 -77 -45q-6 0 -13.5 2t-13.5 2q-9 -17 -18 -33t-17 -31q-13 -33 -26.5 -64.5t-21.5 -64.5q-14 -31 -22 -91q-279 -62 -562 -50.5t-576 50.5q-6 24 -12.5 49t-10.5 50q-9 21 -15 42.5t-16 42.5q-8 18 -37 71q-7 17 -14 29q-17 0 -29 -3t-30 6q-74 30 -60 114l15 29
q16 22 57 28l52 -14l30 -43q25 -44 -10 -96q29 -17 42 -21q64 -22 95 -32q98 76 157 193q-40 0 -65.5 30t-25.5 68q0 31 22.5 60t56.5 29q27 0 38 -7q21 -8 35.5 -35.5t14.5 -47.5q0 -33 -20.5 -56t-2.5 -39q15 -23 35.5 -43t40.5 -38q26 -31 53 -1q21 26 41.5 53.5
t41.5 54.5q23 35 38 71v3z" />
    <glyph glyph-name="m" unicode="m" horiz-adv-x="888" 
d="M461 672h-7l-7 -2l-5 -2l-7 -2l-5 -4l-6 -2l-5 -4l-5 -4l-2 -6l-5 -4l-2 -5l-3 -4l-2 -6v-6v-6v-6v-6l2 -6l3 -6l2 -4l5 -6l2 -3l5 -5l5 -3l6 -2l5 -4l7 -2l5 -2l7 -2h7l7 -2l7 2h8l4 2l7 2l7 2l5 4l5 2l4 3l5 5l5 3l5 6l2 4l2 6l3 6v6v6v6v6l-3 6l-2 4l-2 5l-5 4l-5 6
l-5 4l-4 4l-5 2l-5 4l-7 2l-7 2l-4 2h-8l-7 2zM388 568h7l7 -2h7l7 -2l5 -4l7 -2l5 -4l5 -4l4 -4l5 -4l2 -6l3 -4l2 -6l2 -6v-6l3 -5l-3 -6v-6l-2 -4l-2 -6l-3 -6l-2 -4l-5 -4l-4 -4l-5 -4l-5 -4l-7 -4l-5 -2l-7 -2l-7 -2h-7h-7h-7h-7l-7 2l-5 2l-7 2l-5 4l-7 4l-4 4l-5 4
l-2 4l-5 4l-3 6l-2 6l-2 4v6v6v5v6l2 6l2 6l3 4l5 6l2 4l5 4l4 4l7 4l5 2l7 4l5 2h7l7 2h7zM541 552h-7l-7 -2l-7 -2l-5 -2l-7 -4l-4 -2l-5 -4l-5 -4l-5 -6l-2 -4l-4 -5l-3 -5v-5l-2 -6v-6v-6l2 -6v-6l3 -6l4 -4l2 -6l5 -4l5 -4l5 -3l4 -4l7 -2l5 -2l7 -2l7 -2l7 -2h7h8l4 2
l7 2l7 2l7 2l5 2l5 4l5 3l4 4l5 4l2 6l5 4l2 6v6l3 6v6v6l-3 6v5l-2 5l-5 5l-2 4l-5 6l-4 4l-5 4l-5 2l-5 4l-7 2l-7 2l-7 2h-4h-8h-7zM614 426h8h7l4 -2l7 -2l8 -2l4 -4l5 -2l5 -4l4 -4l5 -6l5 -4l2 -5l3 -5v-5l2 -6v-6v-6l-2 -6v-6l-3 -6l-2 -4l-5 -6l-5 -4l-4 -4l-5 -3
l-5 -4l-4 -2l-8 -2l-7 -2l-4 -2h-7l-8 -2l-9 2h-5l-7 2l-7 2l-7 2l-5 2l-4 4l-5 3l-5 4l-4 4l-3 6l-5 4l-2 6v6l-2 6v6v6l2 6v5l2 5l5 5l3 4l4 6l5 4l5 4l4 2l5 4l7 2l7 2l7 2h5h9zM697 544h7l7 -2h7l7 -2l5 -4l7 -2l5 -4l4 -4l5 -4l5 -4l2 -6l3 -3l2 -6l2 -6v-6l3 -6l-3 -6
v-6l-2 -4l-2 -6l-3 -6l-2 -4l-5 -3l-5 -4l-4 -4l-5 -4l-7 -2l-5 -4l-7 -2h-7l-7 -2h-7h-7l-7 2h-7l-5 2l-7 4l-5 2l-7 4l-4 4l-5 4l-3 3l-4 4l-3 6l-2 6l-2 4v6v6v6v6l2 6l2 6l3 3l4 6l3 4l5 4l4 4l7 4l5 2l7 4l5 2h7l7 2h7zM626 660h7h7l8 -2l7 -2l4 -2l7 -4l5 -2l5 -4
l5 -4l4 -6l3 -3l4 -6l3 -4v-6l2 -6v-6v-6l-2 -6v-6l-3 -6l-4 -4l-3 -5l-4 -4l-5 -4l-5 -4l-5 -2l-7 -4l-4 -2l-7 -2l-8 -2h-7l-7 -2l-7 2h-5l-7 2l-7 2l-7 2l-4 4l-5 2l-5 4l-5 4l-4 4l-3 5l-4 4l-3 6v6l-2 6v6v6l2 6v6l3 4l4 6l3 3l4 6l5 4l5 4l5 2l4 4l7 2l7 2l7 2h5h7z
M513 310l-7 -2h-7l-7 -2l-5 -4l-7 -2l-5 -4l-4 -4l-5 -4l-2 -4l-5 -6l-3 -4l-2 -6l-2 -5v-6v-6v-6v-6l2 -4l2 -6l3 -6l5 -4l2 -4l5 -6l4 -2l5 -4l7 -1l5 -4l7 -2h7l7 -2h7h7l7 2h5l7 2l7 4l5 1l5 4l7 2l2 6l5 4l4 4l3 6l2 6l3 4v6v6v6v6l-3 5l-2 6l-3 4l-4 6l-5 4l-2 4l-7 4
l-5 4l-5 2l-7 4l-7 2h-5l-7 2h-7h-7zM433 202h7l7 -3l7 -1l7 -2l5 -2l5 -2l7 -4l5 -4l4 -4l2 -4l5 -6l3 -4l2 -6l2 -6v-6v-5v-6v-6l-2 -4l-2 -6l-3 -6l-5 -4l-2 -6l-4 -4l-5 -4l-7 -2l-5 -4l-5 -2l-7 -2l-7 -2h-7h-7h-7h-7l-7 2l-5 2l-7 2l-5 4l-4 2l-8 4l-2 4l-5 6l-4 4
l-3 6l-2 6l-2 4v6v6v5v6l2 6l2 6l3 4l4 6l5 4l2 4l8 4l4 4l5 2l7 2l5 2l7 1l7 3h7zM461 442l-7 -2h-7l-5 -4l-7 -2l-7 -2l-4 -4l-5 -4l-5 -4l-5 -4l-2 -6l-2 -4l-3 -6l-2 -6v-5l-2 -6l2 -6v-6l2 -6l3 -4l2 -6l2 -4l5 -4l5 -6l5 -2l4 -4l7 -4l7 -1l5 -3h7l7 -2h7h7l5 2h7l7 3
l7 1l5 4l5 4l4 2l5 6l5 4l2 4l5 6l2 4v6l3 6v6v6l-3 5v6l-2 6l-5 4l-2 6l-5 4l-5 4l-4 4l-5 4l-5 2l-7 2l-7 4h-7l-5 2h-7h-7zM317 455h10h5l7 -2l7 -2l7 -1l4 -4l5 -4l5 -2l5 -4l4 -6l3 -4l4 -6l3 -6v-4l2 -6v-6v-6l-2 -6v-5l-3 -6l-4 -4l-3 -6l-4 -4l-5 -4l-5 -4l-5 -4
l-4 -2l-7 -4h-7l-7 -2l-5 -2h-10h-7l-4 2l-7 2h-8l-7 4l-4 2l-5 4l-5 4l-5 4l-4 4l-3 6l-4 4l-3 6v5l-2 6v6v6l2 6v4l3 6l4 6l3 4l4 6l5 4l5 2l5 4l4 4l7 1l8 2l7 2h4h7zM367 330h7h7l7 -3l7 -2l5 -1l7 -4l5 -2l4 -4l5 -4l5 -6l2 -4l2 -6l3 -4l2 -6l3 -6v-6v-6l-3 -5l-2 -6
l-3 -6l-2 -4l-2 -6l-5 -4l-5 -4l-4 -4l-5 -4l-7 -2l-5 -4h-7l-7 -2l-7 -2h-7h-7l-7 2l-7 2h-5l-7 4l-5 2l-7 4l-5 4l-4 4l-3 4l-4 6l-3 4l-2 6l-2 6v5v6v6v6l2 6l2 4l3 6l4 4l3 6l4 4l5 4l7 2l5 4l7 1l5 2l7 3h7h7zM577 1506l21 -122l205 -31l-94 -160l28 -61l-101 -86
l-182 -93l-87 55l-14 124l-52 -80l-191 25l89 128l210 49l-94 160l132 147zM666 1016l-89 91l-26 37l-26 37h-3h-4l-5 3h-5h-4h-5h-5h-5l-6 1h-5h-5h-5h-2h-5h-2h-5l-59 -1l-80 -14l7 2l7 2l5 2l7 2l7 2l5 1h7l5 3l7 1h7l4 2l8 2h4l5 2h7l5 2h7h5h6h8h4h7h7h8h4h7h5h7h7h5h7
h5v4v4v2l-3 4v4v4v2l-2 4v4v4l-2 2v4v4l-3 2v4v3l-2 4v2v4l-2 4v4v2l-3 4v4v2l-2 4v4v4v2l-3 4v4v4v2v3l-2 4v2v4v4v2v4v4v2v4v2v4v4v2v4v4v2v4v2v4v3v2v4v4v2v4v4v2v4l-2 2v4l2 -6v-6v-6v-6l2 -6v-5v-6v-6v-4v-8v-6l3 -4v-6v-6v-6l2 -6v-4l3 -3v-4v-4l2 -2v-4l2 -4v-2v-4
l3 -4v-4v-2l2 -4v-4l2 -4v-2v-4l3 -3v-5l2 -3v-2v-4l2 -4v-4v-2l3 -4v-4l2 -2v-4v-4l2 -4v-4l3 4l2 6l3 4l2 6v4l2 6l3 6l2 6v5l2 6l3 6v4l2 6l2 4l3 4l2 4l5 2l5 2l2 2l5 2h4l5 2l5 2l2 2l5 2h5l4 2l3 2l4 2l5 2l2 1l5 2l-5 -3l-2 -2l-5 -2l-4 -4l-3 -2l-4 -2l-5 -2l-5 -2
l-5 -4l-4 -2l-5 -2l-2 -2l-5 -4l-2 -2l-5 -4l-2 -2l-15 -81l161 -147l4 4l5 2l5 4l5 2l4 4l5 2l5 2l5 4l2 3l4 2l5 4l5 2l5 2l4 4l5 2l5 4l4 2l5 4l5 2l2 4l5 2l5 2l4 4l5 2l5 4l5 2l4 2l5 3l5 3l4 2l3 3l5 2v-4v-3v-3v-3v-2l-3 -2v-2v-4l-2 -2v-2v-2v-4v-2l-3 -4v-4v-4
l-4 -2l-7 -4l-5 -4l-7 -2l-5 -4l-7 -3l-4 -2l-8 -4l-4 -4l-8 -4l-4 -2l-7 -4l-7 -4l-5 -4l-7 -4l-5 -2l-4 -4l-8 -4l-4 -4l-7 -4l-5 -4l-5 -3l-7 -4l-5 -4l-4 -4l-5 -4l-5 -4l-4 -6l-5 -4l-5 -4l-5 -4l-4 -6l-3 -2l-2 -4l-2 -4l-5 -4l-2 -3l-3 -6l-2 -4l-3 -4l-2 -6l-5 -4
l-2 -4l-2 -6l-3 -4l-2 -6l-2 -4l-3 -6l-2 -5l-3 -5v-3l-2 -6l-2 -4l-3 -6l-2 -4l-2 -4l-3 -6v-4l-2 -4l-2 -4l-3 -4l-2 -4v-3l-2 -2l-5 -6l-3 -6l-4 -6l-3 -4l-2 -6l-2 -4l-3 -4v-2l-2 -4v-2l-2 -4v-2v-2l-3 -2v-2v-2v-1v-3v-2v-1l-2 -2v-2v-4v-2v-2v-4v-4v-4v-4l-2 -6v-6
v-6l-3 -2h3v-4v0v-4v-2v-3v-2v-4v-6v-4v-6l-3 -6l-2 -8v-8l-3 -8l-2 -4v-2h-2v0v0h-3v2v2l-2 4v2v4v4v6l-2 6v4v6v6v8v5v6v8l2 6v8v8v6v8l2 6v7l3 6v6l2 8v6l2 4v4l3 4l2 4l3 4v4l2 6l2 3l3 5l4 3l3 6l2 4l2 6l3 4l2 6l5 4l2 6l3 4l2 6l2 4l3 3l4 6l3 4v4l2 6l2 4l3 4l2 6v4
l2 4v4l3 4l-5 -2l-5 -2l-4 -4l-3 -2l-4 -2l-5 -4l-5 -2l-5 -4l-4 -2l-5 -4l-5 -4l-4 -2l-5 -4l-5 -4l-5 -2l-4 -3l-5 -4l-5 -2l-4 -4l-5 -4l-5 -2l-5 -4l-4 -4l-5 -2l-5 -4l-4 -2l-5 -4l-5 -2l-4 -2l-3 -4l-5 -2l-4 -2l-10 -6l-12 -5l-9 -5l-10 -5l-9 -6l-9 -4l-7 -6l-10 -4
l-7 -6l-9 -4l-7 -4l-7 -6l-10 -4l-7 -6l-9 -6l-7 -5l-10 -6l-7 -6l-9 -6l-10 -8l-12 -8l-9 -8l-12 -10l-12 -7l-11 -10l-12 -12l-14 -10l-17 -12l-14 -13l-16 -14l-19 -14l-19 -16v0l-3 -2l-4 2h-3l-2 2l-5 2l-2 4l-2 2l-5 4l-3 4l-2 4l-2 4l-3 4l-2 4l-2 5v5v1l2 4l2 4v2
l5 2l2 2l3 2l5 4l4 2l5 2l2 2l5 2l5 2l5 2l2 2l4 4l5 4l7 4l5 6l7 4l5 3l7 4l5 6l4 4l7 4l5 4l7 4l5 6l7 4l5 4l4 4l7 4l5 4l5 4l7 4l5 3l7 4l4 4l5 4l7 4l5 4l5 4l7 4l5 4l7 4l4 4l5 4l7 2l-5 2l-4 2l-7 2h-5l-5 2l-5 2h-7l-4 2l-7 1l-8 3h-7l-4 2l-7 1l-10 2l-7 2l-7 2h-2
l-3 2l-2 2l-5 2l-4 4l-5 4l-5 2l-2 4l-3 2l-2 2h-2l-5 2l-2 2l-3 2l-5 2l-2 2h-2v2l-2 2h-3v2l-2 2l-3 2v0v2l-2 2v1h-2v3l-3 2v1l-2 2v2v2l-2 2v2v2v2l-3 2v2v2v0v4v2l-2 2v2v2v2v2v2v2v2l2 2v2v4v2h3v2v2v2l2 1v0l2 5v0l3 1v2l2 2v2v2h2v2v2h3v2l2 2v0l3 2v2l2 2v2h2v0v2
l2 2v0v2h3v0v2v0v0l2 2v0v0l3 2v0v2h2v0l2 2v0v2h3v2h2v2h2l3 2v0l2 2v0l2 2v0l3 2h2v1h3l2 2v0l2 3h3h2h2h3l4 1h5h5h5h4l3 -1l4 -3l3 -2l2 -1l2 -2l3 -4l2 -4v-2l2 -4v-4l3 -4v-2v-4l2 -2v-2v-4l-2 -4l-3 -6l-4 -6l-5 -6l-2 -5l-7 -6l-5 -8l-5 -6l-5 -4l-4 -6l-5 -4l-2 -2
l-3 -2h-2v2v2h2v2l3 2v2l2 2l2 2l3 2l2 2v2h2l3 2v2h2v2h3v0v2v2l2 2l2 2v4l3 2l2 3v2l2 4l3 2v2l2 2v0v0v0v-2v0v0v2v2v0v4l2 2v2v4v2v2v4v2v2l-2 2v4l-2 4l-3 2l-2 2v2l-2 2h-3l-4 2h-3h-5l-2 -2h-2h-5h-2v-2h-3l-4 -2l-5 -4l-2 -2l-5 -2h-3l-2 -2l-2 -2h-3v-2l-2 -2v-2
l-2 -2l-3 -2l-2 -4l-2 -2v-2l-3 -2v0v-2l-2 -2l-3 -2v-2l-2 -2l-2 -2v-3l-2 -3l-3 -2v-1l-2 -2v-2h-3v-2v-4v-2v-2v-2v-4v-2v-2v0v-4v-2v-4v-2l3 -2v-2v-2v-4h2v-2l3 -2v-2l2 -2l2 -2v0l2 -2l10 -6l9 -5l7 -4l8 -4l7 -4l4 -4l7 -2l5 -2l5 -2l2 -2l5 -2l5 -2h2l5 -2h2l5 -2
l7 -2l7 -2h7l7 -2h7l7 -2h5h7l5 -2h7h5h7h4h7l5 -2h7l7 4l7 4l5 4l7 4l7 4l7 4l7 4l7 4l5 4l7 4l7 4l7 4l10 4l4 3l10 4l5 4l7 4l5 4l6 2l5 4l7 4l5 4l7 4l7 2l5 4l7 4l5 4l7 4l4 4l8 2l7 3l4 4l7 4l5 4l7 4l7 4l5 4l7 4l5 4l7 4l7 4l5 4l7 4l4 4l8 4l7 3l4 5z" />
    <glyph glyph-name="n" unicode="n" horiz-adv-x="1807" 
d="M1215 1031q17 -12 36 -22.5t37 -21.5q22 -11 52.5 -29.5t48.5 -36.5q21 -18 43 -36.5t40 -39.5l249 -242l-3 -253h-586q-117 7 -234 18q-69 0 -151.5 4t-148.5 26q-42 15 -85 30t-85 30l-170 122q-48 49 -72 111q-18 26 -38.5 54.5t-31.5 58.5q-10 12 -11.5 31.5
t-3.5 34.5l-12 101v111l33 77q31 12 67 3q50 -15 40 -72q-6 -33 8 -64t26 -61q27 -70 38 -104.5t57 -94.5l6 -4l-35 75q0 21 -3.5 42.5t-3.5 43.5q-13 110 -2 204l32 69q49 31 93 -4l12 -68l51 -230q0 -16 -1.5 -25t6.5 -23q5 -8 19 -29.5t14 -6.5q-12 12 -21.5 81t-11.5 90
l-2 98l92 24q11 -16 8.5 -33.5t1.5 -34.5q9 -38 29 -79q7 -19 18 -40t11 -41q8 -36 18 -47.5t36 -36.5q-17 31 -27.5 76t-14.5 80q-25 71 10 111q50 32 75 -7l24 -83l85 -131q13 -21 49 -34t60 -7q17 4 36 16t34 22q29 29 -13.5 82t-66.5 74q-27 9 -39 26t-27 39
q-24 23 -39 28t-37 47l-13 50q-6 29 29 43t57 20q47 11 64 -30q14 -24 21.5 -35.5t29.5 -26.5q48 -14 98 -53.5t95 -66.5z" />
    <glyph glyph-name="o" unicode="o" horiz-adv-x="1807" 
d="M595 1031q45 27 95 66.5t98 53.5q21 15 28.5 26.5t22.5 35.5q16 41 65 30q21 -6 56 -20t29 -43l-13 -50q-23 -42 -37.5 -47t-37.5 -28q-16 -22 -28 -39t-39 -26q-25 -21 -67 -74t-12 -82q14 -10 32.5 -22t36.5 -16q24 -6 59.5 7t50.5 34l84 131l24 83q24 39 75 7
q34 -40 10 -111q-5 -35 -15.5 -80t-26.5 -76q25 25 35.5 36.5t19.5 47.5q0 20 10 41t18 40q19 41 29 79q3 17 0.5 34.5t9.5 33.5l92 -24l-2 -98q-3 -21 -12 -90t-21 -81q0 -15 13.5 6.5t19.5 29.5q7 14 6 23t-1 25l51 230l12 68q43 35 93 4l32 -69q10 -94 -2 -204
q0 -22 -3.5 -43.5t-3.5 -42.5l-35 -75l6 4q45 60 56 94.5t39 104.5q12 30 26 61t8 64q-11 57 40 72q35 9 67 -3l33 -77v-111l-12 -101q-3 -15 -4.5 -34.5t-10.5 -31.5q-12 -30 -32.5 -58.5t-37.5 -54.5q-26 -64 -73 -111l-169 -122q-43 -15 -85.5 -30t-84.5 -30
q-66 -22 -148.5 -26t-150.5 -4q-124 -11 -235 -18h-586l-3 253l249 242q18 21 40 39.5t43 36.5q18 18 48 36.5t53 29.5q18 11 36.5 21.5t36.5 22.5z" />
    <glyph glyph-name="p" unicode="p" horiz-adv-x="1832" 
d="M782 891q3 -14 8.5 -28t10.5 -27q21 -51 24 -79q3 -20 6.5 -39.5t3.5 -37.5l24 -238l-113 -132l-308 259q-30 28 -59 56t-57 57q-36 30 -78 68.5t-66 79.5q-16 27 -32 53.5t-31 53.5l-36 139q-4 43 12 90q1 21 3 45.5t9 45.5q0 8 22 41l38 59l49 58l51 26q23 -8 37 -28
q20 -30 -11 -56q-18 -15 -24.5 -37.5t-12.5 -42.5q-17 -50 -26 -72.5t-12 -74.5l1 -5l15 55q9 11 16.5 23.5t17.5 24.5q44 66 90 109l47 22q38 -6 47 -43l-24 -41l-74 -144q-18 -20 -19 -27t-3 -24.5t4 -9.5q-1 12 24.5 52.5t34.5 52.5l42 52l59 -28q-1 -14 -10 -21.5
t-15 -18.5q-14 -27 -20 -55q-5 -13 -8.5 -28.5t-12.5 -26.5q-11 -23 -11 -33.5t3 -34.5q5 24 19.5 52t27.5 49q18 48 54 54q41 -5 37 -37l-24 -54l-14 -106q-5 -48 40 -70q12 -6 53 -11q28 2 29 48.5t-2 68.5q-10 16 -6 64q-3 22 -8 31t1 41l15 32q9 18 34 10t39 -14
q30 -16 21 -45q-6 -35 0 -54q18 -29 27 -72t21 -77zM1039 891q12 34 20.5 77t27.5 72q5 19 0 54q-10 29 21 45q13 6 38 14t34 -10l15 -32q6 -32 1 -41t-7 -31q3 -48 -6 -64q-5 -22 -3.5 -68.5t30.5 -48.5q40 5 53 11q44 22 40 70l-14 106l-24 54q-5 32 37 37q35 -6 54 -54
q12 -21 26.5 -49t20.5 -52q2 24 2 34.5t-11 33.5q-9 11 -12.5 26.5t-7.5 28.5q-7 28 -20 55q-6 11 -15.5 18.5t-9.5 21.5l59 28l42 -52q8 -12 33.5 -52.5t25.5 -52.5q6 -8 3.5 9.5t-2.5 24.5q-2 7 -19 27l-74 144l-24 41q6 37 47 43l47 -22q45 -43 90 -109q9 -12 16.5 -24.5
t17.5 -23.5l15 -55l1 5q-3 52 -13 74.5t-25 72.5q-7 20 -13.5 42.5t-23.5 37.5q-32 26 -11 56q13 20 37 28l51 -26l49 -58l38 -59q21 -33 22 -41q6 -21 7.5 -45.5t4.5 -45.5q15 -48 11 -90l-35 -139q-16 -27 -32 -53.5t-31 -53.5q-25 -41 -66.5 -79.5t-77.5 -68.5
q-29 -29 -58 -57l-58 -56l-308 -259l-113 132l24 238q0 18 3.5 37.5t6.5 39.5q2 28 24 79q4 13 9.5 27t9.5 28z" />
    <glyph glyph-name="q" unicode="q" horiz-adv-x="1463" 
d="M547 133h400q24 0 24 -19v-10q0 -19 -24 -19h-400q-23 0 -23 19v10q0 19 23 19zM756 147q-246 3 -393 36q-150 33 -205 76q-58 43 -58 82v38h162v-40q7 -41 66 -72q58 -30 143 -48q85 -17 180 -20v180h195v-180q48 1 76 5t75 12q95 15 158 43q66 28 77 67v53h162v-45
q0 -33 -42 -66q-44 -33 -126 -60q-79 -27 -203 -44t-267 -17v0zM166 1232q8 0 16 -15q3 -7 6.5 -15t6.5 -14q16 -38 16 -82q0 -23 -4 -35q-4 -14 -9 -26q-14 -31 -32 -31q-10 0 -14 12q-3 6 -5.5 13t-5.5 14q-8 18 -8 22q-2 6 -2 31q0 19 11 34q11 13 17 27q6 15 4 34
q-2 20 3 31zM106 993h130v-587h-130v587zM1308 1232q9 0 15 -15q3 -7 6.5 -15t7.5 -14q15 -39 15 -82q0 -22 -3 -35q-2 -8 -10 -26q-12 -31 -31 -31q-10 0 -14 12l-12 27q-8 18 -8 22q-2 12 -2 31t11 34q12 12 18 27q5 12 4 34q-2 20 3 31zM1248 993h129v-587h-129v587z
M592 1415h77h78h78h78q12 -129 24 -257l24 -256q12 -129 24.5 -257.5t24.5 -256.5h-126.5h-126.5h-126h-126q12 128 24 256.5t24 257.5l24 256t25 257zM731 1561h34v-133h-34v133z" />
    <glyph glyph-name="r" unicode="r" horiz-adv-x="1409" 
d="M313 85q22 81 30.5 154t77.5 134q-62 59 -74 68t-8 5t7.5 -3.5t-26.5 43.5q-14 32 -28 63.5t-28 64.5q-48 189 14 382l52 112t53 113q36 53 78.5 98t86.5 92q-27 -51 -45 -112q-4 -22 -7.5 -44t-6.5 -43q4 -58 19 -105q64 -115 206 -67q54 27 85 59.5t77 75.5
q18 28 26 42q67 125 48 251q-19 54 -51 93q101 -62 202 -123t203 -122q-32 8 -63 10q-21 -5 -41.5 -9.5t-41.5 -8.5q-43 -25 -75 -49q-32 -45 -63 -89.5t-62 -88.5q-6 -18 -11 -35.5t-10 -34.5q-12 -78 -0.5 -130.5t70.5 -104.5q43 -23 76.5 -19t78.5 19q50 28 100 70
q54 60 80 101q-15 -68 -44 -151q-8 -19 -16 -37l-16 -36q-33 -61 -59 -101q-45 -49 -89.5 -97.5t-89.5 -96.5q-44 -32 -91 -61q-24 -12 -47.5 -22.5t-47.5 -21.5q-76 -21 -167 -30q-25 2 -50.5 4.5t-50.5 5.5q-22 7 -68 21q-15 -83 -76.5 -132.5t-116.5 -106.5z" />
    <glyph glyph-name="s" unicode="s" horiz-adv-x="1725" 
d="M775 375q3 27 -1 56t-6 57q-12 36 -22 55.5t-22 54.5l-89 68q-46 3 -91.5 7.5t-90.5 7.5l-146 37l-101 70q-42 39 -77 91l-40 207l97 -72l190 -71l114 -3q95 13 195 42q18 8 39.5 18.5t41.5 13.5q4 36 7.5 61.5t0.5 63.5q-15 82 -30.5 165t-37.5 164q90 -61 158 -59
t157 57q-22 -90 -39.5 -163.5t-32.5 -163.5l16 -126l87 -34q39 -16 83 -23.5t86 -14.5q37 -3 92 -3t90 18q30 18 66.5 28t70.5 26l103 76q-17 -50 -23.5 -106t-21.5 -109l-85 -98l-115 -67q-46 -18 -95.5 -22t-97.5 -10q-64 -6 -97 -7l-111 -69q-12 -39 -22.5 -55t-13.5 -55
l-12 -101l5 -76l-34 -82q-39 -53 -58 -75l-55 70l-31 57z" />
    <glyph glyph-name="t" unicode="t" horiz-adv-x="1195" 
d="M590 1231q31 -5 38 -5q24 -7 52.5 -0.5t50.5 -3.5l408 13l-440 -167l-2 -395v-590q-14 53 -38.5 136.5t-36.5 137.5q-7 20 -35.5 124.5t-44.5 113.5q-11 -33 -37.5 -122t-54 -179.5t-48.5 -156.5t-21 -54q3 18 2 52t2 52q0 66 2.5 132t-2.5 132q0 36 -0.5 72t-3.5 72
q-4 45 -6.5 91.5t-7.5 92.5q-3 64 -10.5 99t-7.5 96q0 -43 -79 -138.5t-130 -146.5l207 533q60 -8 126 5q14 0 26 2t27 2v-41h50v41h14zM553 1559q47 0 81 -44t34 -105q0 -62 -34 -105.5t-81 -43.5q-48 0 -81.5 43.5t-33.5 105.5q0 61 33.5 105t81.5 44z" />
    <glyph glyph-name="u" unicode="u" horiz-adv-x="1569" 
d="M1006 1234q6 -2 38 -6q23 -7 51.5 -0.5t50.5 -3.5l349 337l-373 -585l-10 -301v-590q-14 53 -38 136.5t-36 137.5q-7 20 -35.5 124.5t-45.5 113.5q-11 -33 -37 -121.5t-54 -179.5t-49 -157t-21 -54q3 18 2 52.5t2 52.5q0 65 2.5 131t-2.5 132q0 36 -0.5 72t-3.5 72
q-4 45 -6 92t-8 93q-3 63 -10 98t-7 96q0 -22 -51.5 61t-115 194t-118.5 212.5t-61 117.5l344 -337q61 -8 125 6q14 0 26 2t27 2v-42h51v42h14zM968 1561q48 0 81.5 -44t33.5 -105q0 -62 -33.5 -105.5t-81.5 -43.5t-81 43.5t-33 105.5q0 61 33 105t81 44z" />
    <glyph glyph-name="v" unicode="v" horiz-adv-x="1263" 
d="M318 1357l229 204v-1476h-229v1272zM357 270h52v-98h47v98h52v41h-52v47h-47v-47h-52v-41zM1203 1357v-1272h-229v1476zM1164 270v41h-52v47h-47v-47h-52v-41h52v-98h47v98h52zM537 1520v26q75 -56 210 -56q157 0 227 71v-31q-88 -57 -227 -57q-126 0 -210 47zM537 1326
q104 -19 210 -19q119 0 227 23v10q-115 -23 -227 -23q-109 0 -210 20v-11z" />
    <glyph glyph-name="w" unicode="w" horiz-adv-x="1699" 
d="M1016 785q75 11 150.5 27t150.5 44q76 28 151.5 69.5t150.5 89.5v-102v-102v-103v-102q-192 -106 -382.5 -172.5t-382.5 -66.5t-383 65.5t-383 170.5v102.5v102.5v102v103q75 -48 150 -89.5t152 -69.5q74 -27 150.5 -42.5t151.5 -26.5v-71v-70v-71v-70q165 -11 324 1v70
v71v70v70zM84 1135v12.5v12.5q192 -106 383 -172t383 -66q192 -1 382.5 65t382.5 171v-13.5v-12.5q-192 -105 -382.5 -170.5t-382.5 -65.5t-383 66.5t-383 172.5z" />
    <glyph glyph-name="x" unicode="x" horiz-adv-x="1412" 
d="M782 1464q-41 -24 12 -36t62 -12l185 -109q61 -39 107 -83t96 -86q-18 -256 -52 -495.5t-92 -493.5q-173 -57 -331 -57q-85 0 -155 9.5t-159 39.5q-29 123 -71 255t-60 256q-18 123 -29 247t-19 248q55 40 123 93.5t138 101.5q18 12 65 41.5t43 28.5q42 26 122.5 87
t137.5 59q59 -37 127 -91t125 -93q56 -40 99.5 -91t88.5 -94q-18 -123 -38.5 -247t-47.5 -246q-60 -246 -86 -323.5t-25 -45.5t25 145.5t63 250.5q25 114 44 229.5t36 231.5q-42 40 -82 83.5t-92 81.5q-53 37 -117.5 88t-118.5 86q-33 1 -66.5 -26t-57.5 -33zM667 728v-570
q28 0 56.5 -8t57.5 -8l115 16v570l247 1l19 192h-266v277q-29 0 -58 8t-57 8l-114 -16v-277l-310 -1l9 -192h301z" />
    <glyph glyph-name="y" unicode="y" horiz-adv-x="1780" 
d="M1402 451q-25 -48 -55 -95q-31 -46 -55 -71q-29 -31 -52 -44q-27 -14 -47 -14q-53 3 -53 72q0 65 40 125q25 33 55 56q31 25 69 39q33 14 71 14q21 0 51 -7l46 100q-92 28 -126 43q-43 18 -67 52q-27 34 -27 83q0 36 19 73l11 -6q-4 -14 -4 -26q0 -31 20 -54
q18 -21 52 -37q40 -20 67 -27q21 -7 85 -27l19 43q5 -2 -34 11q-12 3 -50 16q-35 14 -41 17q-45 19 -68 51q-24 31 -24 86q0 46 23 80q22 31 57 49q32 16 64 16q79 0 136 -64l45 45l8 -14l-113 -114q-19 41 -36 65q-18 23 -36 34q-18 9 -38 11q-35 0 -57 -21
q-22 -20 -22 -55q1 -34 31 -58q16 -16 42 -28q32 -16 48 -21q15 -6 57 -19q31 -9 43 -14q14 22 25.5 40.5t21.5 33.5q21 31 40 50q21 23 45 37l5 -14q-23 -17 -45 -40q-18 -20 -35 -46q-21 -32 -41 -65q71 -27 98 -67q26 -42 26 -110q0 -38 -19 -77q-20 -38 -45 -66
q-23 -27 -60 -64q-36 -36 -44 -48h-21q-44 41 -105 71zM1389 457q-10 4 -34 10q-25 5 -35 5q-35 -2 -74 -23q-40 -21 -67 -62q-27 -39 -27 -91q0 -49 38 -49q30 0 65 27q32 25 68 75q34 48 66 108v0zM1586 517q13 15 13 32q0 18 -18 30q-24 14 -54 25q-35 13 -42 18l-45 -99
q53 -15 121 -85q51 50 79 92q25 38 25 74q0 51 -30 81q-30 31 -101 52l-18 -39q9 -4 19.5 -8.5t22.5 -8.5q23 -10 37 -21q16 -12 25 -28q10 -18 10 -43q0 -47 -36 -81zM794 491v820q0 65 -15 107l15 9q3 -5 36 -62q28 45 81 85l14 -14q-44 -51 -44 -108v-413l182 68l12 -42
q72 -55 80 -56q16 0 40 14l13 -14l-69 -44v-324l38 -27l-7 -14q-28 8 -42 8q-27 0 -49 -15q-12 -8 -32 -18t-20 -21q0 -16 9 -29q4 -7 31 -35q21 -22 32 -38q11 -18 11 -35q0 -23 -20 -47q-21 -24 -66 -34l-16 15q32 17 32 52q0 18 -5 30t-14 31q-10 19 -15 34q-5 18 -5 40
q0 18 4 28q1 5 17.5 10t19.5 10q4 7 9 17q2 10 2 20v342l-58 34l-114 -65v-317l12 -125l36 21l11 -14l-89 18h-14q-32 32 -43 41q-15 13 -36 13q-10 0 -21 -13l-16 17zM324 224q-60 1 -109 22q-53 21 -84 60q-32 39 -32 90q0 36 12 71q14 35 37 61q20 25 55 43q35 16 71 16
q81 0 160 -89q34 -38 60 -51q29 -13 54 -13q37 0 55 21q18 20 22 51q5 26 5 81v369q0 32 13 58q13 27 38 47q25 19 54 25v-17q-15 -12 -19 -30q-4 -24 -4 -60v-384q0 -85 -54 -130q-56 -47 -152 -47q-102 0 -165 52q-38 34 -63 45q-24 11 -59 11q-27 0 -51 -15
q-25 -16 -38 -42q-14 -26 -14 -61q0 -74 55 -115q53 -43 140 -49zM272 895q-32 0 -51 23q-19 21 -19 55q0 33 24 59q25 26 59 40q37 14 67 14q24 0 48 -5q16 -4 48 -14q8 -4 40 -14q13 -3 29 -3q39 0 84 36l12 -8q-80 -99 -149 -99q-19 1 -37 6q-8 2 -46 16q-32 11 -49 17
q-18 5 -40 5q-73 0 -73 -56q0 -21 15 -36q12 -16 38 -19v-17zM483 733h-27q-28 0 -43 -11q-14 -10 -20 -38h-17q0 50 13 82q13 33 53 33h41v88q0 34 35 65q36 31 78 48l7 -15q-23 -15 -31 -29q-7 -13 -7 -36v-293q0 -67 -37 -89q-24 -17 -74 -27v13q29 16 29 40v169z" />
    <glyph glyph-name="z" unicode="z" horiz-adv-x="1882" 
d="M1350 526q68 -35 22 -24.5t-76 -19.5q-9 -3 -17 -10t-17 -10q-7 -7 -44 -28q-18 -9 -34.5 -17.5t-33.5 -16.5q-17 -6 -33.5 -11.5t-32.5 -10.5q-59 -20 -113 -15.5t-111 4.5q20 -12 51.5 -22t55.5 -15q54 -14 123 2t120 37q15 6 28.5 17t26.5 15l16 18t17 18
q7 15 32.5 32.5t46.5 7.5q15 0 28.5 -5t29.5 -1q8 16 -40 73t-68 72q-28 28 -68 43t-76 25q-10 0 -20 3t-19 3q-9 1 -18.5 1.5t-18.5 3.5q-21 0 -42 2t-40 -1q-13 0 -26 -1.5t-25 -1.5q-16 -3 -32.5 -4t-32.5 -4q-12 0 -23 -3t-22 -3q-43 -9 -86 -20t-80 -35q-9 -3 -16.5 -8
t-15.5 -8q-54 -38 -120 -15q-24 3 -47 7l-46 8q0 -31 59 -35.5t59 -17.5q-8 -3 -13.5 -6t-12.5 -6q-27 -14 -69.5 -19t-9.5 -36v0.5v0.5q5 0 44 11q19 0 37.5 9t39.5 6q0 -3 19.5 -26.5t23.5 -30.5q13 0 25.5 -6.5t25.5 -8.5q-13 12 -43 41.5t-18 48.5h1.5h2.5v0.5v1.5
q7 0 14 -2t14 -2q37 -13 75 -21.5t77 -17.5q20 0 65 -10q20 0 40.5 -4.5t41.5 -4.5q24 -6 68 -4.5t68 7.5q10 0 20 2.5t21 2.5q18 4 38 6.5t39 7.5q8 3 32.5 6.5t30.5 9.5q10 3 18 8.5t21 5.5v0.5v0.5h21.5h21.5zM1298 559q9 9 -9 26t-22 17q-16 15 -44 20.5t-49 11.5
q-20 0 -39.5 0.5t-38.5 0.5v-1v0h-0.5h-0.5v-1.5v-0.5h-1v0l-2 -2h-0.5h-0.5q-1 -18 -1.5 -35t-0.5 -34q-9 -9 -23.5 -23t-15.5 -24q13 -9 40.5 -8t42.5 7q21 0 41.5 7t39.5 7q15 5 46 11.5t38 20.5zM1049 618q0 15 -20.5 13t-17.5 -2q4 -12 11.5 -27t3.5 -27h-0.5h-0.5
q-22 -42 -3 -30.5t20 11.5v0.5v1.5h0.5h1.5v0v1q1 -10 6 19.5t-1 39.5zM924 553q1 -4 21 -14.5t20 -4.5q-13 18 -33 58q4 8 5 12h0.5h1.5q0 3 1 4h0.5h0.5q9 17 -17 17v-0.5v-0.5h-1v0v-1v0h-1.5h-0.5q0 -6 -6.5 -38t9.5 -32zM669 574q-30 -12 6.5 -22t44.5 -13q13 -5 29 -6
t30 -5q9 0 19 -3.5t19 -3.5q9 -4 46.5 -9t40.5 -2q33 3 11.5 17.5t-30.5 28.5q0 6 -2.5 20.5t3.5 20.5q-3 21 -11 21q-21 -1 -40.5 -1.5t-39.5 -0.5q-33 -8 -64 -19t-62 -23zM1271 708q-63 21 -113 33l-82 8q-60 0 -118.5 -4t-115.5 -19q-10 0 -33 -7q-23 -6 -52 -16
t-51 -10q-6 -5 -27 -5t-29 -3q-6 0 -32.5 -5.5t-17.5 15.5q0 2 22 10v1q5 0 17 2q46 5 90.5 16t89.5 23q23 6 49 13t50 7q15 5 40.5 6.5t43.5 1.5l68 2q12 -5 42 -8t43 -3q17 -5 35 -8.5t36 -8.5q16 -5 53 -15t43 -31h-1v-1q-14 -7 -50 6zM941 1561l426 -737l426 -739h-852
h-852l426 739zM941 1464l-395 -666l-396 -666h791h790l-395 666z" />
    <glyph glyph-name="braceleft" unicode="{" 
d="M1067 1102l40 -70h-81z" />
  </font>
</defs>
</svg>
