<?xml version="1.0" standalone="no"?>
<!DOCTYPE svg PUBLIC "-//W3C//DTD SVG 1.1//EN" "http://www.w3.org/Graphics/SVG/1.1/DTD/svg11.dtd" >
<svg xmlns="http://www.w3.org/2000/svg" xmlns:xlink="http://www.w3.org/1999/xlink" version="1.1">
<metadata>
Created by FontForge 20170731 at Sun Mar 10 16:34:52 2002
 By Aleksey,,,
Fonted by Su. Dedicated to Apostrophe and  all my other friends at SimplyFonts.
</metadata>
<defs>
<font id="SLWash" horiz-adv-x="532" >
  <font-face 
    font-family="SL Wash"
    font-weight="400"
    font-stretch="normal"
    units-per-em="1000"
    panose-1="0 0 4 0 0 0 0 0 0 0"
    ascent="800"
    descent="-200"
    x-height="800"
    cap-height="579"
    bbox="35 -254 1621 993"
    underline-thickness="20"
    underline-position="-163"
    unicode-range="U+0020-00A0"
  />
<missing-glyph horiz-adv-x="500" 
d="M63 0v800h375v-800h-375zM125 63h250v675h-250v-675z" />
    <glyph glyph-name=".notdef" horiz-adv-x="500" 
d="M63 0v800h375v-800h-375zM125 63h250v675h-250v-675z" />
    <glyph glyph-name=".null" horiz-adv-x="0" 
 />
    <glyph glyph-name="nonmarkingreturn" 
 />
    <glyph glyph-name="space" unicode=" " horiz-adv-x="400" 
 />
    <glyph glyph-name="A" unicode="A" horiz-adv-x="916" 
d="M876 799l-123 -799h-589l-124 799h64l17 -98h53q66 0 104 98h45q14 -58 34 -76q5 0 41.5 -10t59.5 -10h44q34 4 57 20q5 5 17 31q6 13 15 45h47q35 -98 104 -98h50q11 42 19 98h65zM784 654h-66q-24 0 -73 32q-8 6 -16 16q-10 15 -13 18q-27 -47 -74 -61q-25 -7 -84 -7
q-61 0 -85 7q-46 14 -75 61q-15 -25 -28 -34q-48 -32 -71 -32h-67l88 -587h478z" />
    <glyph glyph-name="B" unicode="B" horiz-adv-x="841" 
d="M801 798l-113 -721h-536l-112 721h59l16 -89h46q38 0 62 27q17 19 34 62h40q13 -52 31 -68q2 -1 21 -10t72 -9h42q28 4 49 19q8 4 17.5 30t11.5 38h44q32 -89 94 -89h45q10 38 18 89h59zM768 0h-691v46h691v-46zM717 667h-60q-16 0 -50 19q-37 21 -36 35q-4 6 -7 6
q-24 -43 -67 -55q-23 -7 -76 -7q-57 0 -79 7q-40 12 -68 55q-5 -18 -37.5 -39t-52.5 -21h-60l80 -529h436z" />
    <glyph glyph-name="C" unicode="C" horiz-adv-x="830" 
d="M790 799l-111 -656h-528l-111 656h58l15 -81h47q37 0 61 24q16 17 32 57h40q12 -54 46 -70q19 -9 75 -9h41q28 3 51 16q3 2 15 26q7 13 13 37h43q31 -81 92 -81h46q9 35 16 81h59zM757 72h-680v42h680v-42zM757 -1h-680v42h680v-42zM708 680h-60q-16 0 -50.5 18t-34.5 31
q-3 5 -8 5q-22 -40 -65 -51q-21 -5 -76 -5q-56 0 -76 5q-41 11 -67 51q-6 -17 -38 -35.5t-52 -18.5h-59l79 -482h430z" />
    <glyph glyph-name="D" unicode="D" horiz-adv-x="795" 
d="M755 692l-106 -692h-503l-106 692h56l15 -86h44q58 0 88 86h40q4 -14 13 -39q35 33 51 51v6q-1 1 -6 1q-8 0 -27.5 -7.5t-27.5 -7.5q-28 0 -28 17q0 2 3.5 7.5t3.5 6.5q28 11 80 35q29 19 47 35q37 31 92 97q26 33 81 99l155 -125q-43 -44 -77 -86q-9 -12 -42 -64
q-35 -56 -35 -61t16.5 -23t20.5 -19q13 -3 37 -9h42q12 51 17 86h56zM676 566h-57q-11 0 -42 16.5t-34 26.5q-35 -83 -51 -143q-20 -50 -44 -50q-12 0 -12 23q0 12 11.5 45t11.5 45q0 2 -1 5t-1 4q-7 -3 -16 -5q-46 -46 -68 -105q-12 -29 -23 -29q-24 0 -24 28q0 17 31 67.5
t31 58.5q-3 2 -8 2q-9 0 -34 -29q-21 -22 -29.5 -36.5l-25.5 -43.5q-4 -6 -15 -6q-3 0 -18 9q0 27 2 35q10 26 31 56q10 12 27 33q-24 8 -18 8q-6 0 -52 -47q-7 -13 -22 -34q-5 -5 -17 -5q-24 0 -24 23q0 7 27 40q15 19 31 40q-53 -32 -67 -32h-57l74 -507h411z" />
    <glyph glyph-name="E" unicode="E" horiz-adv-x="1028" 
d="M988 649l-98 -69q-17 -73 -58 -373l71 -49l-33 -42l-53 35l-26 -151h-582l-22 136l-49 -31l-35 43l79 49l-54 388l-88 58l23 42l53 -35l-20 150h64l16 -103l53 1q67 0 106 102h45q14 -62 33 -78q25 -20 97 -20q57 1 79 12q42 19 50 86h48q34 -99 104 -99h50l21 99h65
l-27 -142q19 7 54 32zM812 539l-255 -163l212 -131zM832 654h-67q-18 0 -56 22t-38 39q-3 5 -8 5q-22 -45 -70 -60q-28 -9 -84 -10q-56 0 -84 9q-44 14 -71 59q-6 -19 -43 -43t-58 -24l-67 -1q9 -49 13 -52l306 -196q3 1 316 202zM455 373l-251 162l38 -299zM757 187
l-250 153q-173 -109 -258 -164l17 -109h472z" />
    <glyph glyph-name="F" unicode="F" horiz-adv-x="1661" 
d="M1621 186h-331l110 -88l-54 -60l-267 206q-99 -52 -165 -67q-52 -12 -157 -12h-87q-9 0 -47 7q-5 1 -19 7t-18 6q-8 0 -186 -152q-4 0 -32.5 30t-27.5 35l160 138q-45 41 -87 90q-96 -96 -159 -106q-59 -6 -62 -5h-152v511h418l-138 108l59 64l260 -204q21 8 47.5 21.5
t62.5 25.5l69 10l141 -1q24 1 103 -19l203 172l57 -67l-174 -153l101 -97q39 38 88 67q58 34 75 38.5t35.5 5.5t21.5 1h152v-512zM1559 257v371h-73q-53 0 -104 -20q-55 -23 -85 -62q-14 -18 -29 -49q-10 -22 -25 -50q-52 -85 -95 -149q10 -6 34 -25q20 -16 24 -16h353z
M1211 515q-51 60 -56 66q-37 39 -64 54l-176 -156l176 -136q60 71 120 172zM1000 674l-154 1q-64 2 -137 -26l135 -112zM1023 288l-172 133l-222 -190q80 -1 217 -1q97 4 177 58zM777 479l-163 127q-52 -38 -94 -101q-21 -32 -69 -108q33 -40 53 -62q34 -38 54 -48zM513 614
q-50 41 -64 41h-346v-371h73q58 0 112 24.5t86 70.5q21 45 45 86q37 63 94 149z" />
    <glyph glyph-name="G" unicode="G" horiz-adv-x="731" 
d="M631 492q0 -25 -18.5 -44t-43.5 -19t-44 19t-19 44t19 43.5t44 18.5t43.5 -18.5t18.5 -43.5zM631 311q0 -25 -18.5 -44t-43.5 -19q-26 0 -44.5 18.5t-18.5 44.5q0 24 19.5 43t43.5 19t43 -19t19 -43zM431 492q0 -25 -18.5 -44t-43.5 -19q-26 0 -44.5 18.5t-18.5 44.5
t18.5 44t44.5 18q25 0 43.5 -18.5t18.5 -43.5zM431 311q0 -25 -18.5 -44t-43.5 -19q-26 0 -44.5 18.5t-18.5 44.5t18.5 44t44.5 18q24 0 43 -19t19 -43zM225 492q0 -26 -18.5 -44.5t-44.5 -18.5q-25 0 -43.5 19t-18.5 44t18.5 43.5t43.5 18.5q26 0 44.5 -18t18.5 -44z
M225 311q0 -26 -18.5 -44.5t-44.5 -18.5t-44 18.5t-18 44.5q0 25 18.5 43.5t43.5 18.5q24 0 43.5 -19t19.5 -43z" />
    <glyph glyph-name="H" unicode="H" horiz-adv-x="712" 
d="M612 494q0 -25 -17.5 -42.5t-42.5 -17.5q-24 0 -42 18t-18 42q0 25 17.5 43t42.5 18t42.5 -18t17.5 -43zM419 494q0 -25 -17.5 -42.5t-42.5 -17.5t-42.5 17.5t-17.5 42.5q0 24 18 42.5t42 18.5q25 0 42.5 -18t17.5 -43zM528 314q0 -25 -17.5 -43t-42.5 -18t-43 18t-18 43
q0 24 18.5 42t42.5 18t42 -18t18 -42zM221 494q0 -25 -18 -42.5t-43 -17.5t-42.5 17.5t-17.5 42.5q0 24 18 42.5t42 18.5q25 0 43 -18t18 -43zM329 314q0 -25 -17.5 -43t-42.5 -18t-42.5 18t-17.5 43q0 23 18.5 41.5t41.5 18.5q24 0 42 -18t18 -42z" />
    <glyph glyph-name="I" unicode="I" horiz-adv-x="703" 
d="M538 509q0 -28 -21 -49.5t-49 -21.5t-49.5 21.5t-21.5 49.5q0 29 21 49.5t50 20.5q28 0 49 -21t21 -49zM538 304q0 -28 -21 -49t-49 -21q-29 0 -50 20.5t-21 49.5t21 50t50 21q28 0 49 -21.5t21 -49.5zM306 509q0 -29 -21 -50t-50 -21q-28 0 -49 21.5t-21 49.5
q0 29 20.5 49.5t49.5 20.5t50 -20.5t21 -49.5zM306 304q0 -29 -21 -49.5t-50 -20.5t-49.5 20.5t-20.5 49.5t20.5 50t49.5 21q28 0 49.5 -21.5t21.5 -49.5z" />
    <glyph glyph-name="J" unicode="J" horiz-adv-x="752" 
d="M652 401q0 -26 -19.5 -45.5t-45.5 -19.5t-45.5 19.5t-19.5 45.5q0 27 19 45.5t46 18.5q26 0 45.5 -19t19.5 -45zM444 401q0 -27 -19 -46t-46 -19q-26 0 -45.5 19.5t-19.5 45.5q0 27 19 45.5t46 18.5q26 0 45.5 -19t19.5 -45zM230 401q0 -26 -19.5 -45.5t-45.5 -19.5
t-45.5 19.5t-19.5 45.5q0 27 19 45.5t46 18.5q26 0 45.5 -19t19.5 -45z" />
    <glyph glyph-name="K" unicode="K" horiz-adv-x="708" 
d="M543 404q0 -28 -21.5 -50t-49.5 -22q-29 0 -50.5 21.5t-21.5 50.5q0 28 22 49.5t50 21.5q29 0 50 -21t21 -50zM307 404q0 -28 -21.5 -50t-49.5 -22t-49.5 22t-21.5 50t21.5 49.5t49.5 21.5q29 0 50 -21t21 -50z" />
    <glyph glyph-name="L" unicode="L" horiz-adv-x="680" 
d="M415 401q0 -31 -22 -53t-53 -22q-30 0 -52.5 22.5t-22.5 52.5q0 31 22 53t53 22t53 -22t22 -53z" />
    <glyph glyph-name="M" unicode="M" horiz-adv-x="849" 
d="M809 0h-769v801h769v-801zM730 81v638h-611v-638h611z" />
    <glyph glyph-name="N" unicode="N" horiz-adv-x="866" 
d="M826 0h-786v801h786v-801zM746 82v638h-624v-638h624zM734 400q0 -128 -87.5 -220t-215.5 -92t-215.5 91.5t-87.5 220.5q0 128 87.5 219.5t215.5 91.5t215.5 -92t87.5 -219zM665 400q0 96 -68.5 164t-164.5 68t-164.5 -68t-68.5 -164q0 -97 68 -165t165 -68
q96 0 164.5 68.5t68.5 164.5z" />
    <glyph glyph-name="O" unicode="O" horiz-adv-x="870" 
d="M830 0h-790v800h790v-800zM830 -109h-790v73h790v-73zM748 81v641h-627v-641h627zM735 400q0 -130 -87.5 -221.5t-215.5 -91.5q-129 0 -216 91.5t-87 221.5t87.5 221t215.5 91t215.5 -91.5t87.5 -220.5zM667 400q0 97 -68 165.5t-165 68.5q-99 0 -167 -68.5t-68 -165.5
q0 -96 68.5 -164.5t166.5 -68.5q96 0 164.5 68.5t68.5 164.5z" />
    <glyph glyph-name="P" unicode="P" horiz-adv-x="870" 
d="M830 0h-790v798h790v-798zM830 -108h-790v72h790v-72zM830 -219h-790v72h790v-72zM750 82v640h-627v-640h627zM737 400q0 -129 -88 -219.5t-215 -90.5t-215.5 90.5t-88.5 219.5t88.5 221t215.5 92q126 0 214.5 -92t88.5 -221zM668 400q0 97 -68 164.5t-166 67.5
q-97 0 -164.5 -68.5t-67.5 -163.5t67.5 -164.5t164.5 -69.5q98 0 166 69t68 165z" />
    <glyph glyph-name="Q" unicode="Q" horiz-adv-x="1153" 
d="M1113 677l-154 -91v-353l139 -79l-32 -73l-105 55v-136h-793v114l-84 -52l-44 67l130 81v367l-121 66l31 67q4 2 6 2l84 -45v133h791v-127l111 68zM877 278v260q-18 -9 -32 -20q22 -53 22 -118q0 -38 -18 -108q21 -9 28 -14zM878 627v95h-627v-102l66 -34q42 58 108 92
t137 34q152 0 248 -126zM796 400q0 35 -12 78q-1 1 -5 2l-128 -78l133 -75q12 49 12 73zM745 549q-33 38 -82.5 61.5t-98.5 23.5q-108 0 -181 -85l188 -105zM747 257l-176 97l-181 -109q69 -79 174 -79q51 0 102 25.5t81 65.5zM491 399l-146 81q-15 -50 -15 -80
q0 -29 18 -87zM878 81v103l-68 36q-99 -133 -248 -133q-69 0 -133.5 32.5t-106.5 88.5l-71 -44v-83h627zM285 275q-27 50 -27 125q0 58 22 116q-11 6 -29 14v-272z" />
    <glyph glyph-name="R" unicode="R" horiz-adv-x="871" 
d="M831 402q0 -168 -115 -284.5t-281 -116.5q-165 0 -280 116.5t-115 284.5t115 284.5t280 116.5t280.5 -117t115.5 -284zM779 402q0 145 -99 245.5t-241 100.5q-143 0 -242.5 -100.5t-99.5 -245.5q0 -144 99.5 -244t242.5 -100q142 0 241 100t99 244z" />
    <glyph glyph-name="S" unicode="S" horiz-adv-x="886" 
d="M846 401q0 -168 -117 -285.5t-285 -117.5t-286 117.5t-118 285.5t118 285.5t286 117.5t285 -118t117 -285zM794 401q0 146 -101 247t-247 101q-144 0 -245 -101t-101 -247q0 -145 101 -246t245 -101q146 0 247 101t101 246zM706 401q0 -29 -20.5 -50t-50.5 -21
q-29 0 -49.5 21t-20.5 50q0 30 20.5 50t49.5 20q30 0 50.5 -20t20.5 -50zM518 401q0 -29 -21 -50t-51 -21q-28 0 -49 21t-21 50q0 30 21 50t49 20q30 0 51 -20t21 -50zM320 396q0 -30 -21 -50.5t-50 -20.5q-28 0 -49.5 20.5t-21.5 50.5q0 28 21.5 48.5t49.5 20.5
q29 0 50 -20.5t21 -48.5z" />
    <glyph glyph-name="T" unicode="T" horiz-adv-x="885" 
d="M845 402q0 -169 -117.5 -286.5t-286.5 -117.5q-168 0 -284.5 117.5t-116.5 286.5q0 167 117 284.5t284 117.5q169 0 286.5 -117t117.5 -285zM792 402q0 144 -101 245.5t-246 101.5q-146 0 -247 -101.5t-101 -245.5q0 -146 101 -247t247 -101q145 0 246 101t101 247z
M608 398q0 -30 -21.5 -50.5t-49.5 -20.5q-29 0 -49.5 20t-20.5 51q0 29 20.5 49t49.5 20t50 -20t21 -49zM419 398q0 -30 -21.5 -50.5t-48.5 -20.5q-28 0 -49 20.5t-21 50.5q0 29 20.5 49t49.5 20q28 0 49 -20t21 -49z" />
    <glyph glyph-name="U" unicode="U" horiz-adv-x="881" 
d="M841 400q0 -168 -116.5 -285t-284.5 -117q-167 0 -283.5 117t-116.5 285q0 167 116.5 284.5t283.5 117.5q168 0 284.5 -117.5t116.5 -284.5zM790 400q0 145 -100.5 245.5t-245.5 100.5t-245.5 -100.5t-100.5 -245.5t100.5 -245.5t245.5 -100.5t245.5 100.5t100.5 245.5z
M514 400q0 -30 -20 -50t-50 -20q-29 0 -49 20t-20 50q0 29 20 49t49 20q30 0 50 -20t20 -49z" />
    <glyph glyph-name="V" unicode="V" horiz-adv-x="875" 
d="M835 398q0 -166 -116 -282t-282 -116q-167 0 -282 116t-115 282t115 282.5t282 116.5t282.5 -116.5t115.5 -282.5z" />
    <glyph glyph-name="W" unicode="W" horiz-adv-x="1146" 
d="M1106 682l-153 -98v-351l139 -79l-32 -73l-106 55v-136h-788v114l-90 -52l-36 67l128 80v364l-120 68q34 68 36 68l84 -46v136h787v-128l111 66zM873 275v255l-226 -129zM873 623v94h-624v-101l317 -171zM873 81v101l-306 170l-318 -190v-81h624zM487 396l-238 132v-268z
" />
    <glyph glyph-name="X" unicode="X" horiz-adv-x="868" 
d="M828 0h-788v800h788v-800zM711 721h-562q73 -22 125 -37q87 -25 142 -25q67 0 144 20q14 4 151 42zM747 81v591q-51 -16 -152 -45t-174 -29q-68 0 -151 24q-37 11 -149 47v-588h626z" />
    <glyph glyph-name="Y" unicode="Y" horiz-adv-x="895" 
d="M855 0h-815v800h815v-800zM772 82v635h-650v-635h650zM648 172h-86v460h86v-460zM493 170h-86v460h86v-460zM340 170h-86v460h86v-460z" />
    <glyph glyph-name="Z" unicode="Z" horiz-adv-x="868" 
d="M828 0h-788v801h788v-801zM745 81v640h-624v-640h624zM659 361h-451v85h451v-85z" />
    <glyph glyph-name="a" unicode="a" horiz-adv-x="864" 
d="M824 0h-784v798h784v-798zM169 718h-48v-51zM305 718h-50l-134 -134v-53zM742 80v638h-365l-257 -279v-359h622z" />
    <glyph glyph-name="b" unicode="b" horiz-adv-x="947" 
d="M908 0h-868l433 800zM784 77l-311 567l-311 -567h622z" />
    <glyph glyph-name="c" unicode="c" horiz-adv-x="953" 
d="M913 0h-873l436 800zM789 78l-108 202l-109 -202h217zM633 366l-55 96l-210 -384h106zM531 551l-55 98l-312 -571h104z" />
    <glyph glyph-name="d" unicode="d" horiz-adv-x="1127" 
d="M1087 176l-38 -62l-162 84l-2 -1l106 -198h-864l105 198l-1 1l-162 -84l-29 71l255 134q67 116 70 121l-267 137l36 67l265 -132l160 289l158 -291l264 134l39 -67l-267 -136l63 -115q269 -150 271 -150z" />
    <glyph glyph-name="e" unicode="e" horiz-adv-x="1062" 
d="M1022 0h-982v12q0 4 4 15t4 16q9 33 30 123q9 36 37 118q1 4 26 49q11 18 37 69q0 1 26 29q17 17 40 39q17 15 54 26q34 10 59 10h529l-28 226h-544q-20 0 -37 7q-21 9 -21 26q0 36 63 36l586 -1zM919 741h-4v-6zM947 63l-49 372h-557q-38 0 -84 -35q-49 -38 -83 -137
q-18 -53 -57 -176q-1 -9 -5 -24h835zM279 483v4h-7v-4h7z" />
    <glyph glyph-name="f" unicode="f" horiz-adv-x="1062" 
d="M1022 0h-982q44 196 74 284q0 1 23 52q12 23 40 66q23 31 67 67q14 16 52 27q36 11 60 11h530l-29 224h-544q-20 0 -37 7q-20 9 -20 27q0 36 62 36h595zM920 734v6h-5v-6h5zM946 62l-48 373h-557q-39 0 -85 -35q-50 -41 -84 -138q-16 -57 -51 -203zM277 483v4h-6v-4h6z
M718 245q0 -14 -12 -26t-28 -12t-26.5 12t-10.5 26t10.5 26t26.5 12t28 -12t12 -26zM603 245q0 -14 -11.5 -26t-27.5 -12q-14 0 -25 12t-11 26q0 15 10.5 26.5t25.5 11.5q16 0 27.5 -12t11.5 -26zM481 246q0 -12 -12.5 -24t-24.5 -12q-15 0 -27 11.5t-12 24.5q0 15 12 27
t27 12q13 0 25 -12t12 -27z" />
    <glyph glyph-name="g" unicode="g" horiz-adv-x="1051" 
d="M1019 0h-984q45 202 60 245.5t39 89.5q14 30 38 67q1 2 26 30q32 31 43 39q14 14 52 25t58 11h531l-28 226h-546q-58 0 -58 34q0 36 63 36h597zM915 735v6h-3v-6h3zM942 61l-48 374h-558q-22 0 -38.5 -5.5t-47.5 -28.5q-48 -39 -88 -139q-16 -59 -34.5 -122t-22.5 -79
h837zM272 483v5h-6v-5h6zM647 245q0 -14 -10.5 -26t-25.5 -12q-16 0 -28 12t-12 26t12 26t28 12q15 0 25.5 -12t10.5 -26zM534 245q0 -14 -11 -26t-27 -12t-28 12t-12 26t12 26t28 12t27 -12t11 -26z" />
    <glyph glyph-name="h" unicode="h" horiz-adv-x="1065" 
d="M1025 0h-985q41 195 75 282q1 3 21 45q14 28 43 73q3 5 25 30q46 50 93 65q36 10 62 10h529l-28 227h-546q-55 0 -55 33q0 35 60 35h596zM921 734v6h-4v-6h4zM950 60l-50 373h-558q-28 0 -46 -8q-12 -6 -37 -26q-51 -39 -85 -138q-19 -59 -36.5 -113t-25.5 -88h838z
M279 481v5h-7v-5h7zM605 244q0 -15 -12 -27t-27 -12q-14 0 -25.5 11.5t-11.5 27.5q0 13 12 25t25 12q16 0 27.5 -11.5t11.5 -25.5z" />
    <glyph glyph-name="i" unicode="i" horiz-adv-x="1160" 
d="M1120 145l-30 -38l-42 24l17 -131h-982l28 120l-40 -22l-31 41l82 52q37 99 74 164q17 32 23 39q13 23 28 37q25 25 66 57l-226 108l34 51l287 -141h260l247 143q-9 51 -12 85h-542q-18 0 -36 3q-25 8 -25 29q-10 35 61 35h595l18 -119l43 27l29 -38l-65 -45l58 -427z
M963 734v7h-5v-7h5zM932 507l-11 83l-143 -83h154zM969 232l-27 202h-285l-50 -25zM991 64q-10 61 -13 97l-432 212l-361 -212l-31 -97h837zM488 401q-14 7 -118 52q-42 -18 -88 -71q-40 -46 -73 -145z" />
    <glyph glyph-name="j" unicode="j" horiz-adv-x="995" 
d="M955 58h-28h-327l29 -77l145 40l11 -33l-145 -42l33 -61l120 -37l-8 -29l-97 25l38 -80l-37 -18l-61 122l-134 38l-158 -44l-54 -116l-38 18l36 82l-70 -29l-8 32l94 36l34 69l-109 34l15 33l107 -33l35 70h-338l65 256l32 70q32 49 48.5 69t42.5 42q39 33 106 33h487
l-26 208h-503q-52 0 -52 32t57 32h548zM850 738v7h-3v-7h3zM877 121l-46 341h-513q-36 0 -76 -31q-47 -36 -78 -127l-58 -183h771zM261 507v4h-6v-4h6zM608 -92l-12 27l-42 -9zM581 -33l-44 91h-108l-40 -83l106 -32zM432 -74l-58 16l-17 -39z" />
    <glyph glyph-name="k" unicode="k" horiz-adv-x="883" 
d="M843 400q0 -168 -116.5 -285t-284.5 -117t-285 117t-117 285t117 284.5t285 116.5q167 0 284 -117t117 -284zM791 400q0 144 -100.5 245t-245.5 101q-144 0 -245 -101t-101 -245q0 -145 101 -245.5t245 -100.5q145 0 245.5 100.5t100.5 245.5z" />
    <glyph glyph-name="l" unicode="l" horiz-adv-x="880" 
d="M840 403q0 -167 -116.5 -283.5t-283.5 -116.5t-283.5 116.5t-116.5 283.5t116.5 283.5t283.5 116.5t283.5 -116.5t116.5 -283.5zM788 403q0 145 -100 245t-245 100q-144 0 -244 -100.5t-100 -244.5t100 -244.5t244 -100.5t244.5 100.5t100.5 244.5zM605 259h-66l-29 73
h-140l-29 -73h-66l134 343h62zM486 395l-46 116l-47 -116h93z" />
    <glyph glyph-name="m" unicode="m" horiz-adv-x="880" 
d="M840 400q0 -167 -116.5 -283.5t-283.5 -116.5t-283.5 116.5t-116.5 283.5t116.5 283.5t283.5 116.5t283.5 -116.5t116.5 -283.5zM789 400q0 144 -100.5 244.5t-244.5 100.5q-145 0 -245 -100t-100 -245t100 -245t245 -100q144 0 244.5 100.5t100.5 244.5zM585 458
q0 -100 -138 -100q-11 0 -24 1v-147h-72v343h114q13 0 23 -3q43 -3 70 -27.5t27 -66.5zM514 458q0 15 -15.5 25t-31.5 10h-45v-71h46q46 0 46 36z" />
    <glyph glyph-name="n" unicode="n" horiz-adv-x="880" 
d="M840 399q0 -167 -116.5 -283.5t-284.5 -116.5q-166 0 -282.5 116.5t-116.5 283.5q0 168 116 284.5t283 116.5q168 0 284.5 -116.5t116.5 -284.5zM788 399q0 144 -100 244.5t-244 100.5t-244.5 -100.5t-100.5 -244.5t100.5 -244t244.5 -100t244 100t100 244zM534 371h-108
v-155h-63v343h171v-63h-108v-62h108v-63z" />
    <glyph glyph-name="o" unicode="o" horiz-adv-x="1100" 
d="M1060 673q0 -7 -58 -40q-72 -40 -86 -52q43 -81 43 -180q0 -107 -62 -217l161 -106l-31 -57l-170 113q-127 -132 -296 -132q-100 0 -186 47t-146 130l-156 -90q-10 3 -30 48l157 95q-38 83 -38 169q0 90 38 169l-160 104l31 54l158 -103q61 83 145 127q87 48 187 48
q97 0 183.5 -45t141.5 -125l141 84q4 0 33 -41zM836 603q-50 66 -123.5 104t-155.5 38q-85 0 -160.5 -40t-122.5 -110l259 -171zM900 401q0 79 -35 151l-278 -163l259 -172q54 82 54 184zM809 167l-282 187l-253 -149q48 -70 122.5 -108.5t160.5 -38.5q148 0 252 109z
M472 389l-227 154q-32 -66 -32 -142q0 -82 32 -144z" />
    <glyph glyph-name="p" unicode="p" horiz-adv-x="946" 
d="M906 401q0 -166 -116 -282.5t-283 -116.5q-166 0 -282.5 116.5t-116.5 282.5q0 167 116.5 283t282.5 116q167 0 283 -116t116 -283zM320 791l-239 -244q-15 18 -41 45l236 242q14 -14 44 -43zM847 401q0 145 -99.5 244.5t-244.5 99.5q-144 0 -243.5 -100t-99.5 -244
q0 -143 99.5 -243t243.5 -100t244 100t100 243z" />
    <glyph glyph-name="q" unicode="q" horiz-adv-x="951" 
d="M911 398q0 -168 -116.5 -284.5t-284.5 -116.5t-284.5 116.5t-116.5 284.5t117 285t284 117t284 -117t117 -285zM322 5q-8 -6 -44 -43l-238 242q13 16 37 47zM852 398q0 145 -100.5 245.5t-245.5 100.5q-144 0 -244.5 -100.5t-100.5 -245.5q0 -144 100.5 -244.5
t244.5 -100.5q145 0 245.5 100.5t100.5 244.5z" />
    <glyph glyph-name="r" unicode="r" horiz-adv-x="951" 
d="M911 594q-13 -16 -37 -48l-245 247l44 42zM842 400q0 -167 -117 -284t-284 -117t-284 117t-117 284t117 284t284 117q168 0 284.5 -116.5t116.5 -284.5zM790 400q0 145 -100.5 245t-245.5 100t-245 -100t-100 -245t100 -245.5t245 -100.5t245.5 100.5t100.5 245.5z" />
    <glyph glyph-name="s" unicode="s" horiz-adv-x="953" 
d="M913 206l-239 -244l-43 43l240 247q16 -18 42 -46zM843 398q0 -168 -117 -285t-285 -117t-284.5 117t-116.5 285t116.5 285t284.5 117t285 -117t117 -285zM791 398q0 145 -100.5 246t-244.5 101q-146 0 -246.5 -100.5t-100.5 -246.5q0 -145 100.5 -245.5t246.5 -100.5
q144 0 244.5 101t100.5 245z" />
    <glyph glyph-name="nonbreakingspace" unicode="&#xa0;" 
 />
    <glyph glyph-name="glyph50" 
 />
    <glyph glyph-name="glyph51" 
 />
    <glyph glyph-name="glyph52" horiz-adv-x="0" 
 />
    </font>
</defs>
</svg>
