<?xml version="1.0" standalone="no"?>
<!DOCTYPE svg PUBLIC "-//W3C//DTD SVG 1.1//EN" "http://www.w3.org/Graphics/SVG/1.1/DTD/svg11.dtd" >
<svg xmlns="http://www.w3.org/2000/svg" xmlns:xlink="http://www.w3.org/1999/xlink" version="1.1">
<metadata>
Created by FontForge 20170731 at Fri Feb 27 17:11:07 2015
 By Aleksey,,,
Typeface (c) Jamel E. Robin 2015. All Rights Reserved
</metadata>
<defs>
<font id="TreesGo2" horiz-adv-x="1014" >
  <font-face 
    font-family="Trees Go 2"
    font-weight="400"
    font-stretch="normal"
    units-per-em="2048"
    panose-1="2 0 5 0 0 0 0 0 0 0"
    ascent="1638"
    descent="-410"
    x-height="1412"
    cap-height="1430"
    bbox="-342 -418 2048 1716"
    underline-thickness="150"
    underline-position="-442"
    unicode-range="U+0020-F002"
  />
<missing-glyph horiz-adv-x="1024" 
d="M100 0v1434h824v-1434h-824zM150 50h724v1334h-724v-1334zM325 1148q31 28 58 43q53 30 112 30q92 0 148 -47.5t56 -127.5q0 -49 -23 -98.5t-87 -129.5q-63 -80 -99 -132t-36 -99q0 -38 24 -133h-32q-35 97 -35 148q0 76 81.5 218t81.5 217q0 57 -33 90t-91 33
q-38 0 -69 -17q-26 -15 -56 -40v45zM389 334l57 58q11 10 20 10q10 0 22 -11l56 -60q9 -11 9 -20q0 -11 -10 -22l-56 -62q-14 -14 -21 -14q-11 0 -20 10l-61 71q-7 9 -7 18q0 10 11 22z" />
    <glyph glyph-name=".notdef" horiz-adv-x="1024" 
d="M100 0v1434h824v-1434h-824zM150 50h724v1334h-724v-1334zM325 1148q31 28 58 43q53 30 112 30q92 0 148 -47.5t56 -127.5q0 -49 -23 -98.5t-87 -129.5q-63 -80 -99 -132t-36 -99q0 -38 24 -133h-32q-35 97 -35 148q0 76 81.5 218t81.5 217q0 57 -33 90t-91 33
q-38 0 -69 -17q-26 -15 -56 -40v45zM389 334l57 58q11 10 20 10q10 0 22 -11l56 -60q9 -11 9 -20q0 -11 -10 -22l-56 -62q-14 -14 -21 -14q-11 0 -20 10l-61 71q-7 9 -7 18q0 10 11 22z" />
    <glyph glyph-name=".null" horiz-adv-x="0" 
 />
    <glyph glyph-name="nonmarkingreturn" horiz-adv-x="508" 
 />
    <glyph glyph-name="space" unicode=" " horiz-adv-x="508" 
 />
    <glyph glyph-name="space" unicode="&#xa0;" horiz-adv-x="508" 
 />
    <glyph glyph-name="exclam" unicode="!" horiz-adv-x="672" 
d="M313 328l-49 1036q0 46 21 69t62 23q42 0 62.5 -23t20.5 -69l-80 -1036h-37zM223 167l82 84q15 14 29 14q13 0 31 -16l80 -86q12 -16 12 -29q0 -15 -14 -31l-80 -88q-20 -20 -29 -20q-16 0 -29 14l-88 101q-10 13 -10 26q0 15 16 31z" />
    <glyph glyph-name="quotedbl" unicode="&#x22;" horiz-adv-x="672" 
d="M197 1108h-30l-62 359q-4 23 -4 33q0 37 20.5 57t59.5 20t60.5 -19.5t21.5 -56.5q0 -8 -4 -34zM509 1108h-30l-62 359q-4 23 -4 33q0 37 20.5 57t59.5 20t60.5 -19.5t21.5 -56.5q0 -8 -4 -34z" />
    <glyph glyph-name="numbersign" unicode="#" horiz-adv-x="1336" 
d="M596 859l-85 -290h242l86 290h-243zM673 1434h93l-141 -477h242l142 477h92l-141 -477h259l-29 -97h-259l-83 -290h279l-30 -98h-280l-140 -472h-92l139 472h-240l-142 -472h-92l140 472h-273l30 98h271l86 290h-295l29 97h295z" />
    <glyph glyph-name="dollar" unicode="$" 
d="M577 1552v-102q68 -8 141 -35q10 -6 19 -6q25 0 41 45h50l103 -282h-49q-60 134 -168 179q-74 30 -137 39v-540q241 -93 322.5 -183t81.5 -264q0 -197 -119.5 -300t-284.5 -120v-239h-73v237q-188 3 -266 38q-10 6 -19 6q-25 0 -41 -45h-50v331h49q50 -183 152.5 -226
t174.5 -43v635q-214 67 -299 153q-92 91 -92 249q0 166 125 271q105 88 266 102v100h73zM577 655v-610q125 17 211.5 96t86.5 219q0 116 -69 183q-62 59 -229 112zM504 873v520q-119 -5 -199 -72q-86 -73 -86 -182q0 -98 55 -153q52 -54 230 -113z" />
    <glyph glyph-name="percent" unicode="%" horiz-adv-x="1610" 
d="M449 1459q98 0 190.5 -49t144.5 -139.5t52 -190.5q0 -99 -50.5 -188.5t-143 -140t-193.5 -50.5q-100 0 -192.5 50.5t-143.5 140t-51 188.5q0 100 52 190.5t144.5 139.5t190.5 49zM206 1066q13 -92 55.5 -173.5t106.5 -124.5q57 -40 114 -40q7 0 13 1q63 3 115 53t73 136
q13 54 13 111q0 32 -4 65q-12 93 -56 175.5t-107 124.5q-58 38 -115 38h-11q-61 -3 -113 -52t-73 -135q-15 -58 -15 -117q0 -31 4 -62zM297 -29l940 1461h84l-938 -1461h-86zM1161 738q97 0 190 -49.5t145 -140t52 -189.5q0 -100 -50.5 -189.5t-143 -139.5t-193.5 -50
t-193 50t-143 139.5t-51 189.5q0 99 52 189.5t144.5 140t190.5 49.5zM918 344q13 -92 55.5 -173.5t106.5 -124.5q59 -39 116 -39h11q63 3 115 53t73 136q13 54 13 111q0 32 -4 65q-12 93 -56 175.5t-107 124.5q-58 38 -115 38h-11q-61 -3 -113 -52t-73 -135
q-15 -58 -15 -117q0 -31 4 -62z" />
    <glyph glyph-name="ampersand" unicode="&#x26;" horiz-adv-x="1683" 
d="M1051 196l-554 683q-118 0 -179.5 -86t-61.5 -204q0 -91 35.5 -181.5t101.5 -164.5q72 -83 165 -127t194 -44q88 0 169 33.5t130 90.5zM1394 0q-56 0 -139 25t-167 132q-67 -74 -175 -123.5t-241 -49.5q-229 0 -374.5 150.5t-145.5 385.5q0 161 76 266.5t225 151.5
q-42 61 -62.5 116t-20.5 111q0 105 77 197t182 92q68 0 142 -39q9 -6 18 -6q23 0 38 45h46l96 -281h-46q-55 133 -155 178q-85 37 -141 37q-65 0 -106 -45.5t-41 -117.5q0 -131 102 -267l531 -670q98 146 121 244q17 78 17 130q0 97 -62 97h-90v50h443v-50h-90
q-95 0 -145 -227q-31 -132 -155 -292q109 -136 248 -136h16q143 17 192 128l49 -1l-103 -231h-160z" />
    <glyph glyph-name="quotesingle" unicode="'" horiz-adv-x="346" 
d="M197 1108h-30l-62 359q-4 23 -4 33q0 37 20.5 57t59.5 20t60.5 -19.5t21.5 -56.5q0 -8 -4 -34z" />
    <glyph glyph-name="parenleft" unicode="(" horiz-adv-x="758" 
d="M252 601q2 277 99.5 530t268.5 442h80q-172 -242 -230 -438q-57 -193 -57 -523v-22q0 -330 57 -522q58 -196 230 -438h-80q-171 189 -268.5 441.5t-99.5 529.5z" />
    <glyph glyph-name="parenright" unicode=")" horiz-adv-x="758" 
d="M138 -370h-80q172 242 230 438q57 192 57 522v22q0 330 -57 523q-58 196 -230 438h80q171 -189 268.5 -442t99.5 -530q-2 -277 -99.5 -529.5t-268.5 -441.5z" />
    <glyph glyph-name="asterisk" unicode="*" horiz-adv-x="1024" 
d="M498 1294q-4 71 -37 130q-37 66 -37 84q0 32 23.5 51.5t62.5 19.5q37 0 61.5 -18t24.5 -47q0 -21 -36 -89q-33 -61 -37 -130q66 25 113 75q51 55 69 61q11 3 21 3q18 0 35 -10q26 -17 38 -53q6 -19 6 -36q0 -15 -4 -28q-10 -30 -38 -38q-6 -2 -19 -2q-25 0 -76 9
q-28 5 -55 5q-41 0 -81 -11q44 -55 105 -83q68 -32 79 -47q13 -18 13 -38q0 -9 -2 -17q-8 -30 -39 -53q-29 -22 -59 -22q-1 0 -1 1q-31 0 -48 23q-12 17 -22 94q-10 67 -47 125q-38 -58 -46 -124q-9 -75 -20 -90q-19 -25 -49 -27h-5q-28 0 -57 21q-30 21 -39 51q-4 10 -4 20
q0 17 11 32q13 17 83 51q61 29 105 82q-41 11 -80 11q-27 0 -53 -5q-54 -11 -78 -11q-9 0 -14 2q-30 9 -41 38q-6 13 -6 29q0 17 6 36q11 35 36 53q17 12 34 12q9 0 18 -3q20 -6 74 -62q47 -49 112 -75z" />
    <glyph glyph-name="plus" unicode="+" 
d="M437 647h-350v140h350v369l1 1h139v-370h349l1 -1v-139h-350v-370h-140v370z" />
    <glyph glyph-name="comma" unicode="," horiz-adv-x="557" 
d="M238 258q44 0 88.5 -65.5t44.5 -151.5q0 -109 -71 -226.5t-139 -117.5v43q73 43 87 190q0 119 -129 161v42z" />
    <glyph glyph-name="hyphen" unicode="-" horiz-adv-x="670" 
d="M156 409q-40 0 -40 28v83q0 29 41 29h356q41 0 41 -29v-83q0 -28 -40 -28h-358z" />
    <glyph glyph-name="hyphen" unicode="&#xad;" horiz-adv-x="670" 
d="M156 409q-40 0 -40 28v83q0 29 41 29h356q41 0 41 -29v-83q0 -28 -40 -28h-358z" />
    <glyph glyph-name="period" unicode="." horiz-adv-x="557" 
d="M145 167l82 84q15 14 29 14q13 0 31 -16l80 -86q12 -16 12 -29q0 -15 -14 -31l-80 -88q-20 -20 -29 -20q-16 0 -29 14l-88 101q-10 13 -10 26q0 15 16 31z" />
    <glyph glyph-name="slash" unicode="/" horiz-adv-x="569" 
d="M93 -50h-80l541 1484h80z" />
    <glyph glyph-name="zero" unicode="0" 
d="M507 1459q108 0 211 -96t161 -274t58 -372t-56.5 -370t-159 -274t-214.5 -98t-214.5 98t-159 274t-56.5 370t57.5 372t160.5 274t212 96zM237 689q14 -180 61.5 -340t118.5 -244q65 -78 129 -78q6 0 12 1q70 7 127.5 104.5t81.5 265.5q15 107 15 220q0 62 -5 126
q-14 181 -62.5 343t-119.5 244q-65 76 -128 76q-6 0 -11 -1q-68 -7 -126 -102.5t-82 -264.5q-16 -110 -16 -225q0 -62 5 -125z" />
    <glyph glyph-name="one" unicode="1" 
d="M234 0v50h96q103 0 103 235v794q0 129 -117 129h-98v50q292 63 327 176h50v-1149q0 -235 103 -235h96v-50h-560z" />
    <glyph glyph-name="two" unicode="2" 
d="M722 1036q0 148 -86 245t-186 97q-170 0 -275 -131h-22v49q39 50 115 104t185 54q183 0 306.5 -121t123.5 -297q0 -262 -627 -916h422q130 0 209 112h49l-103 -232h-719l1 50q607 675 607 986z" />
    <glyph glyph-name="three" unicode="3" 
d="M435 22q151 0 218 116.5t67 280.5q0 104 -44.5 205.5t-176.5 148.5v19q81 45 144 120.5t63 209.5q0 110 -55 189.5t-166 92.5q-68 0 -123.5 -45t-55.5 -111h-42v159q0 20 73.5 33.5t155.5 13.5q155 0 257 -84t102 -249q0 -87 -61 -166t-193 -139q93 -14 195 -134.5
t102 -278.5q0 -163 -144 -294t-325 -131q-152 0 -247.5 39t-95.5 88v100h49q0 -83 86 -133t217 -50z" />
    <glyph glyph-name="four" unicode="4" 
d="M600 438v686l-424 -686h424zM737 338v-171q0 -117 72 -117h76v-50h-442v50h76q81 0 81 120v168h-557v35l660 1061h34v-996h19q133 0 193 132h49l-103 -232h-158z" />
    <glyph glyph-name="five" unicode="5" 
d="M229 852l144 582h396q103 0 112 52h50l-63 -172h-429l-104 -415q226 0 388 -124.5t162 -300.5q0 -234 -143.5 -365t-324.5 -131q-152 0 -248 39q-92 37 -92 82v106h46q0 -88 86 -135.5t217 -47.5q151 0 217.5 116.5t66.5 347.5q0 159 -110 265t-285 106q-40 0 -86 -5z
" />
    <glyph glyph-name="six" unicode="6" 
d="M558 11q101 0 163 98.5t62 247.5q0 203 -100 333.5t-216 130.5q-91 0 -163 -101.5t-72 -250.5q0 -153 95.5 -305.5t230.5 -152.5zM801 1459v-48q-177 -12 -326.5 -179.5t-233.5 -467.5q96 93 266 93q108 0 211 -57t161 -162.5t58 -221.5t-56.5 -220.5t-144 -162.5
t-169.5 -58q-243 0 -366.5 162.5t-123.5 372.5q0 320 209 634.5t515 314.5z" />
    <glyph glyph-name="seven" unicode="7" 
d="M737 1314h-399q-133 0 -192 -112h-50l103 232h719l-1 -50q-370 -866 -370 -1205q0 -129 67 -129h117v-50h-411v50h67q72 0 72 131q19 296 278 1133z" />
    <glyph glyph-name="eight" unicode="8" 
d="M552 830q121 25 156 124q27 75 27 140q0 20 -3 39q-12 81 -52.5 154t-99.5 110q-55 33 -106 33h-9q-57 -3 -105.5 -46t-68.5 -119q-13 -49 -13 -100q0 -28 4 -57q12 -80 51.5 -152t218.5 -126zM472 785q-114 -21 -181 -157q-56 -115 -56 -206q0 -18 2 -35
q14 -104 61.5 -196.5t118.5 -140.5q64 -44 128 -44h13q70 4 127.5 60t81.5 153q15 62 15 127q0 36 -5 73q-11 112 -73.5 212.5t-231.5 153.5zM636 811q42 -14 82 -35q103 -56 161 -158.5t58 -214.5t-56.5 -213.5t-159 -158t-214.5 -56.5t-214.5 56.5t-159 158t-56.5 213.5
t57.5 214.5t160.5 158.5q41 21 82 35q-24 9 -48 21q-86 44 -133 123t-47 166t48 167t133.5 123t176.5 43q90 0 176 -43t134 -123t48 -167t-47 -166t-132 -123q-25 -13 -50 -21z" />
    <glyph glyph-name="nine" unicode="9" 
d="M456 1423q-101 0 -162.5 -98.5t-61.5 -247.5q0 -203 100 -333.5t215 -130.5q91 0 163.5 101.5t72.5 250.5q0 153 -96 305.5t-231 152.5zM213 -25v48q177 12 326.5 179.5t233.5 467.5q-95 -93 -266 -93q-108 0 -211 57t-161 162.5t-58 221.5t56.5 220.5t144 162.5
t169.5 58q243 0 366.5 -162.5t123.5 -372.5q0 -320 -209 -634.5t-515 -314.5z" />
    <glyph glyph-name="colon" unicode=":" horiz-adv-x="557" 
d="M145 167l82 84q15 14 29 14q13 0 31 -16l80 -86q12 -16 12 -29q0 -15 -14 -31l-80 -88q-20 -20 -29 -20q-16 0 -29 14l-88 101q-10 13 -10 26q0 15 16 31zM145 860l82 84q15 14 29 14q13 0 31 -16l80 -86q12 -16 12 -29q0 -15 -14 -31l-80 -88q-20 -20 -29 -20
q-16 0 -29 14l-88 101q-10 13 -10 26q0 15 16 31z" />
    <glyph glyph-name="semicolon" unicode=";" horiz-adv-x="557" 
d="M145 859l82 84q15 14 29 14q13 0 31 -16l80 -86q12 -16 12 -29q0 -15 -14 -31l-80 -88q-20 -20 -29 -20q-16 0 -29 14l-88 101q-10 13 -10 26q0 15 16 31zM238 258q44 0 88.5 -65.5t44.5 -151.5q0 -109 -71 -226.5t-139 -117.5v43q73 43 87 190q0 119 -129 161v42z" />
    <glyph glyph-name="semicolon" unicode="&#x37e;" horiz-adv-x="557" 
d="M145 859l82 84q15 14 29 14q13 0 31 -16l80 -86q12 -16 12 -29q0 -15 -14 -31l-80 -88q-20 -20 -29 -20q-16 0 -29 14l-88 101q-10 13 -10 26q0 15 16 31zM238 258q44 0 88.5 -65.5t44.5 -151.5q0 -109 -71 -226.5t-139 -117.5v43q73 43 87 190q0 119 -129 161v42z" />
    <glyph glyph-name="less" unicode="&#x3c;" 
d="M927 1074l-625 -359l625 -355v-167l-840 481v83l840 484v-167z" />
    <glyph glyph-name="equal" unicode="=" 
d="M87 631h840v-140h-840v140zM87 943h840v-140h-840v140z" />
    <glyph glyph-name="greater" unicode="&#x3e;" 
d="M87 1241l840 -484v-83l-840 -481v167l625 355l-625 359v167z" />
    <glyph glyph-name="question" unicode="?" horiz-adv-x="748" 
d="M132 1330q128 104 242 104q132 0 212 -68t80 -182q0 -69 -32.5 -140t-124.5 -186q-90 -113 -141.5 -187.5t-51.5 -142.5q0 -63 35 -189h-47q-50 138 -50 211q0 109 116.5 312t116.5 309q0 82 -47 129t-130 47q-84 0 -178 -81v64zM223 167l82 84q15 14 29 14q13 0 31 -16
l80 -86q12 -16 12 -29q0 -15 -14 -31l-80 -88q-20 -20 -29 -20q-16 0 -29 14l-88 101q-10 13 -10 26q0 15 16 31z" />
    <glyph glyph-name="at" unicode="@" horiz-adv-x="2019" 
d="M972 622q-83 -10 -151 -80t-68 -199q0 -107 64 -194t183 -87q97 5 126 167v476q-54 -63 -154 -83zM1360 29q-63 1 -100.5 18t-61.5 54q-29 -37 -82 -64.5t-133 -27.5q-144 0 -256.5 100.5t-112.5 233.5q1 87 53 166.5t132.5 115t173.5 49.5q67 16 110 42.5t43 74.5
q-2 69 -41 125t-129 56q-72 0 -121.5 -59t-50.5 -125h-45v159q0 20 72 40q73 20 178 20q109 -2 193.5 -64.5t84.5 -157.5v-589q0 -117 94 -117q185 35 267 191.5t82 382.5q-20 335 -232 540q-197 188 -480 188q-205 0 -392.5 -137.5t-269.5 -355.5q-67 -178 -67 -361
q0 -313 129.5 -511.5t305 -290.5t318.5 -92q274 0 575 208v-75q-263 -184 -571 -184q-240 0 -461 122.5t-343 342t-122 461.5t124 464.5t345.5 342t456.5 119.5q362 0 609 -230t247 -566q0 -270 -176 -439q-175 -168 -346 -170z" />
    <glyph glyph-name="A" unicode="A" horiz-adv-x="1089" 
d="M1006 3q4 0 4 3q0 44 -147 72q-135 25 -318 25h-1q-5 45 -2 78q2 23 16 65q14 41 17 63q3 32 -6 66q-2 8 -5 17l1 1q5 4 7 5q12 9 19 8q9 0 13 -10q2 -8 -3 -13q-9 -8 -16 -1q-2 2 -2 6q0 1 -1 2q-2 0 -2 -2q-2 -5 2 -9q4 -6 13 -6q19 0 20 15q1 11 -6 20q-9 10 -22 10
q-4 0 -15 -5q-11 -6 -14 -5q-4 9 -12 24q-16 35 -20 54q-4 20 3 41q9 23 27 33q3 1 8 1q17 0 21 -10q2 -4 -3 -9q-5 -6 -11 -6q-4 0 -5 2q-3 3 -1 9q0 2 -1 2q-1 1 -2 0q-5 -6 -3 -12q5 -9 17 -9q8 0 12 4q10 12 5 23q-7 16 -30 19q36 43 58 79q33 53 37 85l1 6q5 42 26 41
q11 0 13 -10q2 -6 -3 -9q-3 -2 -6 -2q-7 0 -7 6v2q1 2 -1 2q-2 1 -3 -1v-3q0 -6 3 -9q9 -9 20 -1q10 7 6 18q-5 16 -20 17q-7 0 -19 -2q-2 0 -4 -1q-2 0 -6 18q-2 7 -2 9q-10 29 -36 64q-23 32 -42 53l-6 6q-23 23 -19 36q4 11 11 11q4 0 5 -6q2 -6 -1 -9l-1 -1q-2 0 -5 2
q-1 2 -2 1t-1 -3q3 -5 8 -5t9 5t3 10q-1 13 -12 13q-14 0 -23 -14q-40 57 -66 123q-7 18 0 28q4 5 12 2q8 -2 7 -7q-1 -8 -8 -8q-3 0 -4 4q-1 2 -2 2q-2 -1 -2 -2q1 -9 9 -9q12 0 14 10q1 8 -2 13q-4 5 -13 5q-10 0 -19 -5q-19 84 -4 150q5 21 17 21q4 0 9 -4q1 -2 1 -3
q-2 -5 -8 -5h-1q-1 1 -1 4q0 1 -2 1q-1 1 -2 -1q-1 -5 2 -7q6 -8 14 1q4 4 3 10q-2 10 -10 10q-2 0 -8 -2q-6 -1 -9 -1q13 56 43 108q0 2 -1 3q-2 1 -3 -1q-12 -17 -25 -42q-3 4 -8 4q-6 0 -9 -5q-2 -3 0 -7q3 -5 7 -3q2 0 3 2v0v0l1 1v0v0q0 2 -1 2q-2 1 -3 -1q-1 5 0 7
q3 0 5 -6q1 -6 -5 -17q-1 -1 -1 -3q-25 -47 -31 -127q-2 0 -4 1q-4 1 -11 1q-15 0 -20 -8q-4 -6 -1 -15q2 -7 11 -7q8 0 11 5q2 4 0 8q-1 1 -2 0q-2 0 -2 -2q1 -3 0 -4t-3 -1q-9 0 -10 7q0 2 2 4q5 6 12 5q11 -1 15 -16q2 -6 2 -21v-11q2 -23 6 -45q9 -43 27 -84
q-18 -2 -25 -12q-4 -6 -2 -13q3 -14 14 -14q9 0 13 7q2 4 0 8q-1 2 -5 5q-1 1 -2 -1t0 -3q3 -1 4 -2v-1q-2 -2 -9 -2q-3 0 -5 1q-6 2 -6 5q2 11 19 11h1q9 0 17 -17l1 -2q10 -19 26 -43q15 -22 48 -66q7 -9 11 -15q-26 1 -34 -29q-4 -15 8 -22q4 -2 8 -2q18 0 21 12
q1 8 -10 13q-2 1 -3 -1q-1 -1 1 -2q4 -2 3 -7q-1 -9 -9 -7q-6 2 -8 8q-2 7 3 13q8 9 17 9q16 0 32 -27q47 -75 -10 -164q-3 13 -15 23t-26 10t-22 -10t-4 -19q6 -11 20 -11q6 0 9 3t3 7q0 2 -2 2q-1 0 -2 -2q-2 -6 -10 -6q-6 0 -8 5q-3 7 0 12q4 6 12 7q12 2 21 -9
q12 -16 7 -37q-3 -8 -21 -27q-7 -8 -9 -10q-10 -12 -31 -36l-6 -7q-35 -40 -37 -76q-13 6 -28 6q-19 0 -33 -10q-16 -11 -13 -31q2 -18 19 -24q17 -4 25 12q4 8 -2 16q-1 2 -2 1q-2 -1 -1 -3q3 -5 0 -9q-3 -7 -13 -7q-4 0 -7 2q-10 7 -8 18q4 15 20 16q35 3 47 -28
q13 -34 20 -78l1 -9q8 -51 7 -75q-1 -10 -8 -28l-1 -3q-10 -27 -13 -54q-5 -44 11 -108q0 -1 1 -2v-2q-169 -4 -287 -29q-129 -27 -129 -67q0 -4 4 -4h922z" />
    <glyph glyph-name="B" unicode="B" horiz-adv-x="1073" 
d="M469 455l-65 20q-19 6 -16 5q-5 2 -6 12l-2 16q-2 8 -3 17q44 -9 91 -16q1 -28 1 -54zM686 500q-1 -13 -3 -28q-2 -16 -3 -29q-5 -51 -15 -63q-13 -16 -64 -34l-10 -3q1 85 0 156q48 -1 95 1zM150 1342q-64 -62 -69 -180q-2 -39 3 -99q7 -80 7 -99q1 -19 1 -83
q0 -52 3 -82q7 -95 47 -151q38 -52 111 -85q-1 -6 0 -13q7 -84 9 -93q12 -49 52 -75q41 -25 154 -57q-2 -169 -6 -258q-1 -28 17 -44q16 -15 41 -15t43 15q20 16 21 44q1 20 2 71q2 64 2 71q18 9 49 21q39 16 50 20q57 26 83 65q27 43 40 196v5q64 17 102 53q57 55 67 160
q4 34 2 88q-2 76 -2 89q1 16 2 47q4 79 0 114q-9 95 -62 144q-48 44 -164 58q-148 19 -299 16q-111 -2 -153 -46q-39 -41 -40 -152l-3 -196q-1 -85 20 -122q35 -61 167 -93q118 -28 179 -24q108 6 158 78q37 52 38 178q0 79 -20 114q-37 65 -180 85q-120 16 -169 -23
q-32 -26 -43 -70q-11 -45 8 -91q18 -47 57 -72q44 -28 117 -20q80 10 59 72q-10 30 -51 40q-33 9 -71 3q0 18 1 53q126 35 162 -30q7 -13 16 -98q7 -68 -28 -93q-18 -13 -58 -14q-129 -1 -245 53q-11 174 4 347q188 25 375 -8q72 -12 97 -44q23 -29 22 -102l-3 -212
q-2 -110 -42 -150q-38 -36 -131 -39q-145 -4 -289 20q-130 22 -174 85q-31 43 -37 138q-11 160 -1 320q5 85 68 110q19 8 140 21q61 6 196 6q129 0 195 9q26 3 46 26q22 24 15 50q-7 28 -45 34q-18 4 -64 1q-58 -2 -179 -8q-119 -6 -180 -9q-175 -8 -240 -70z" />
    <glyph glyph-name="C" unicode="C" horiz-adv-x="1399" 
d="M702 775h24q73 -3 73 -69q0 -57 -45 -88q-27 -19 -56 -19q-19 0 -37 8q-10 4 -20 10q-35 23 -53 63l-1 1v2v2v3q-5 35 13 57q26 30 102 30zM610 542q7 -3 5 -2q21 -11 43 -16q-4 1 5 -1l2 -1h2q19 -4 35 -4q8 0 17 1q-4 0 5 1q2 0 4 1q23 3 43 12q7 3 5 2q1 0 2 1
q2 1 3 1q20 11 36 25q39 33 56 84q16 52 4 101q-20 85 -105 105q-27 6 -55 8h-9v9q-2 33 -32 33q-3 0 -6 -1q-114 -14 -160 -98q-40 -72 1 -158q31 -65 94 -100q-1 0 5 -3zM585 1294q-18 9 -27 29v3q-6 35 57 33q28 -1 28 -26q0 -23 -18 -36q-19 -13 -40 -3zM590 1424
q-48 -6 -71 -40q-24 -36 -3 -80q20 -41 62 -54q45 -14 80 16t30 77q-6 48 -52 59q-12 3 -25 3q-1 21 -21 19zM1211 1118q0 -16 -13 -25q-14 -9 -28 -2q-13 6 -19 20q-1 3 -1 2q-3 25 41 24q20 -1 20 -19zM1242 1125q-4 34 -36 42q-9 2 -18 2q-1 15 -15 13q-34 -4 -50 -28
q-17 -25 -2 -56q14 -29 44 -39q32 -9 56 12q25 21 21 54zM337 1307q-4 25 40 23q20 0 20 -18q0 -17 -13 -25q-13 -10 -28 -3q-13 6 -19 21v2zM428 1319q-4 34 -36 41q-9 2 -18 3q-1 14 -15 13q-34 -4 -50 -28q-16 -25 -2 -57q14 -29 44 -38q32 -10 56 11q25 22 21 55z
M483 471q-19 -13 -40 -4q-18 9 -27 29v3q-6 35 57 33q28 -1 28 -26q0 -23 -18 -35zM1028 628q0 -23 -18 -35q-16 -11 -33 -6q-5 4 -12 6q-15 9 -22 26v2q-6 36 57 33q28 0 28 -26zM377 557q-24 -36 -3 -80q24 -50 76 -57v-90q0 -8 4 -15q4 -9 14 -14q80 -37 164 -69v-185
q0 -30 31 -30t31 30v184l57 41q13 1 21 10q9 9 9 21q0 2 -1 5q1 3 1 4v59h172q11 0 19 7q16 8 16 27v28q110 28 215 52q11 3 17 10q12 9 12 25v169l-4 -3q-6 -3 -5 -3q-21 -10 -43 -14q-4 -1 -5 -1l-5 -1v-126q-94 -21 -182 -44v44q31 0 55 20q35 30 30 77q-6 48 -52 59
q-12 3 -25 4q-1 21 -21 18q-48 -6 -71 -40q-24 -35 -3 -79q9 -19 25 -34v-2v-131h-145v93q0 1 -5 -2q-1 0 -5 -2q-21 -8 -43 -11q-1 0 -4 -1q-7 -1 -5 -1v-73h-52v76q-1 0 -4 1q-8 2 -5 1q-22 5 -43 15q-1 1 -5 2l-5 3v-125q0 -11 7 -19q8 -17 27 -17h80v-41l-54 -41
q-3 -1 -5 -1q-3 -1 -5 -1q-72 28 -143 60v87q5 4 4 3q35 30 30 77q-6 48 -52 59q-12 3 -25 4q-1 20 -21 18q-48 -6 -71 -40zM250 1066q0 -23 -19 -35q-19 -13 -39 -4q-19 9 -28 29v3q-5 36 57 33q29 -1 29 -26zM185 983q45 -14 80 16t29 77q-5 48 -51 59q-13 3 -26 4
q-1 20 -21 18q-48 -6 -71 -40q-24 -36 -3 -80q20 -41 63 -54zM811 904q-18 9 -28 29v3q-5 35 57 33q29 -1 29 -26q0 -23 -18 -36q-19 -13 -40 -3zM837 1015q-1 21 -22 19q-48 -6 -70 -40q-24 -36 -3 -80q19 -41 62 -54q45 -14 80 16t29 77q-5 48 -51 59q-12 3 -25 3z
M1138 756q-73 0 -110 80v1v2l-1 2v3q-5 35 13 57q26 30 103 30h23q74 -3 74 -69q0 -57 -45 -88q-27 -18 -57 -18zM1212 1008q-27 6 -55 8h-9v9q-2 33 -32 33q-2 0 -6 -1q-114 -14 -160 -97q-39 -73 2 -159q27 -57 79 -92q53 -34 112 -34q13 0 27 2q3 0 5 1q-2 -1 5 1
q22 5 43 15q3 2 5 3l4 3q14 8 25 18q39 34 56 85t5 100q-21 85 -106 105zM903 1120q-74 0 -110 81v1l-1 2v2v3q-5 35 13 57q26 30 103 30q11 0 23 -1q74 -2 74 -68q0 -57 -45 -88q-27 -19 -57 -19zM977 1373q-27 6 -55 8h-9v9q-2 33 -32 33q-2 0 -6 -1q-114 -14 -160 -98
q-39 -72 2 -158q27 -57 79 -92q53 -35 112 -35q64 0 114 44q39 33 56 84q16 51 4 101q-20 85 -105 105zM525 1141q10 0 24 -1q73 -2 73 -69q0 -57 -45 -88q-27 -18 -57 -18q-73 0 -109 80l-1 2v2v2v2q-6 36 13 57q26 31 102 31zM640 927q39 34 55 85q17 51 5 101
q-21 84 -106 105q-26 6 -54 7l-9 1l-1 8q-2 33 -31 33h-6q-114 -14 -160 -98q-40 -72 1 -158q27 -57 80 -92q52 -35 111 -35q64 0 115 43zM292 835h24q73 -3 73 -69q0 -57 -45 -88q-27 -18 -57 -18q-73 0 -109 80l-1 2v1v3v2q-6 35 13 57q26 30 102 30zM181 614
q52 -35 111 -35q64 0 115 43q39 34 55 85q17 51 5 100q-21 85 -106 105q-26 7 -55 8h-8l-1 9q-2 33 -31 33h-6q-114 -14 -160 -98q-40 -72 1 -159q27 -56 80 -91z" />
    <glyph glyph-name="D" unicode="D" horiz-adv-x="1289" 
d="M639 27q12 -11 30 -11q17 0 30 11q14 12 14 32v203q20 31 77 80q25 23 35 33q55 52 71 140q10 53 8 159v45v254q0 20 -14 32q-13 11 -30 11q-18 0 -30 -11q-14 -12 -14 -32v-164l-33 22q-44 31 -57 76q-8 28 -8 97v191q0 20 -13 32q-13 11 -31 11q-17 0 -30 -11
q-14 -12 -14 -32v-265q0 -1 1 -3q-6 -67 50 -126q32 -34 115 -87q11 -7 20 -13v-140l-3 -32v-9q-7 -48 -85 -115l-5 -5q1 1 -5 -4q1 35 -4 66q-5 33 -42 77q-9 11 -13 16l-183 235v228q0 20 -14 32q-12 11 -30 11t-30 -11q-14 -12 -14 -32q0 -22 -3 -70q-12 -168 37 -230
l157 -202q2 -4 13 -15q32 -34 33 -41v-88q-11 8 -34 22q-36 23 -40 27q-32 31 -41 66q-5 23 -5 80v4q0 20 -14 32q-13 11 -30 11q-18 0 -31 -11q-13 -12 -13 -32v-7q-1 -121 49 -181q53 -63 160 -114q9 -18 0 -174q-1 -30 -1 -36q0 -20 14 -32zM635 1418q-161 0 -298 -87
q-141 -89 -207 -245q-67 -156 -45 -343q24 -199 128 -355q125 -188 326 -237q7 -2 13 -2q22 0 37 16q14 14 16 33q6 46 -39 57q-174 42 -277 213q-86 142 -101 324q-15 190 81 330q86 124 243 173q57 18 117 18q122 0 233 -68q110 -68 168 -179q79 -152 44 -354
q-35 -203 -164 -337q-62 -65 -145 -99q-42 -18 -33 -65q8 -41 46 -41q10 0 20 4q155 64 256 210q102 146 127 342q24 192 -42 350q-65 158 -209 254q-133 88 -295 88z" />
    <glyph glyph-name="E" unicode="E" horiz-adv-x="1583" 
d="M1174 396q31 -30 54 -41q23 -10 35 11q13 22 -9 33q-20 9 -45 32q-31 28 -41 35q8 9 15 21q11 21 -10 34q-22 13 -34 -9q-11 -20 -35 -29h-1q-23 -9 -68 -8q-55 0 -66 -1h-1q22 13 81 41q127 60 152 148q7 23 -18 30q-24 7 -31 -17q-13 -46 -60 -80q2 62 20 82
q17 18 -1 36t-34 0q-28 -30 -34 -66q-1 -7 0 -41q1 -25 -7 -38l-2 -6q-9 -4 -34 -16q-21 -10 -33 -16q-27 -14 -50 -31q55 170 120 215q30 22 120 54q78 27 114 63q17 18 -1 36t-35 0q-29 -29 -81 -51q13 25 21 69q4 24 -21 31q-24 7 -28 -17q-11 -65 -42 -85
q-116 -75 -157 -150q-17 -30 -33 -75q-25 -69 -25 -74q-1 8 -3 23q-1 15 -2 22v2q-5 53 14 87q129 238 128 216q1 24 -25 24q-25 0 -25 -24q-1 -51 -79 -136q-2 9 -5 16q-3 6 -15 26q-9 15 -12 26q-5 17 -2 66q2 24 -24 24q-25 0 -27 -24q-4 -64 14 -104q2 -7 12 -21
q8 -13 10 -22q6 -17 -6 -50q-23 17 -55 25q-92 24 -105 30q-55 23 -78 73q-10 22 -32 9t-12 -35q8 -18 21 -34l-12 1q-44 2 -56 37q-34 104 -42 112q-17 17 -35 -1t-1 -35q15 -15 25 -72q7 -40 32 -67q19 -20 59 -24q18 -1 96 -6q11 -5 23 -10q33 -13 83 -22q69 -13 76 -41
q-29 2 -90 -22q-31 -12 -65 -14q-4 3 -8 4q-16 4 -42 33q-21 23 -50 43q-23 16 -61 28q-51 17 -60 29q-15 19 -37 6q-22 -12 -7 -32q19 -25 56 -40q5 -2 32 -11q21 -7 33 -13q19 -9 40 -30q-14 6 -26 13q-21 12 -34 -10t8 -34q69 -38 149 -37q35 0 76 13q4 1 19 8
q17 8 26 11q34 12 46 0q1 -10 2 -21q9 -64 -1 -125q-33 36 -118 57q-167 43 -199 68q-19 15 -37 -3t2 -33q29 -23 67 -39q-40 -18 -73 -12q-23 5 -30 -20q-7 -24 17 -29q42 -8 81 3q17 4 41 19q19 11 52 9q4 0 8 1q90 -19 96 -21q58 -20 69 -58q2 -6 5 -10l-12 -330h120
l-13 347v5q3 4 5 7q15 31 45 45q29 -8 75 -57q31 -33 79 -45q24 -6 30 19q7 24 -17 30q-35 8 -83 63l-5 5q72 3 91 7h3q24 -1 60 -38zM330 599q-12 -15 -12 -36q0 -22 12 -37q14 -16 39 -16q24 0 38 16q13 15 13 37q0 21 -13 36q-14 17 -38 17q-25 0 -39 -17zM365 748
q12 15 12 36q0 22 -12 37q-15 16 -39 16t-38 -16q-13 -15 -13 -37q0 -21 13 -36q14 -16 38 -16t39 16zM225 694q-13 -15 -13 -36q0 -22 13 -36q14 -17 38 -17t38 17q13 14 13 36q0 21 -13 36q-14 17 -38 17t-38 -17zM531 932q-13 -15 -13 -37q0 -21 13 -36q14 -16 38 -16
t38 16q13 15 13 36q0 22 -13 37q-14 16 -38 16t-38 -16zM391 901q13 15 13 37q0 21 -13 36q-14 16 -38 16t-39 -16q-12 -15 -12 -36q0 -22 12 -37q15 -16 39 -16t38 16zM512 986q13 15 13 36t-13 36q-14 17 -38 17t-38 -17q-13 -15 -13 -36t13 -36q14 -17 38 -17t38 17z
M610 1053q-13 -15 -13 -36q0 -22 13 -37q14 -16 38 -16t39 16q12 15 12 37q0 21 -12 36q-15 17 -39 17t-38 -17zM739 785q13 15 13 36q0 22 -13 37q-14 16 -38 16t-38 -16q-13 -15 -13 -37q0 -21 13 -36q14 -16 38 -16t38 16zM834 938q13 15 13 37q0 21 -13 36
q-14 16 -38 16t-38 -16q-13 -15 -13 -36q0 -22 13 -37q14 -16 38 -16t38 16zM531 1174q-13 -14 -13 -36q0 -21 13 -36q14 -17 38 -17t38 17q13 15 13 36q0 22 -13 36q-14 17 -38 17t-38 -17zM716 1164q-13 -15 -13 -36q0 -22 13 -37q14 -16 38 -16t38 16q13 15 13 37
q0 21 -13 36q-14 16 -38 16t-38 -16zM412 1097q13 14 13 36q0 21 -13 36q-14 17 -38 17t-38 -17q-13 -15 -13 -36q0 -22 13 -36q14 -17 38 -17t38 17zM233 843q12 15 12 36q0 22 -12 37q-14 16 -39 16q-24 0 -38 -16q-13 -15 -13 -37q0 -21 13 -36q14 -16 38 -16q25 0 39 16
zM198 1090q-12 -15 -12 -36q0 -22 12 -37q15 -16 39 -16t38 16q13 15 13 37q0 21 -13 36q-14 16 -38 16t-39 -16zM639 299q13 15 13 37q0 21 -13 36q-14 17 -38 17t-38 -17q-13 -15 -13 -36q0 -22 13 -37q14 -16 38 -16t38 16zM454 257q13 15 13 37q0 21 -13 36
q-14 16 -38 16t-38 -16q-13 -15 -13 -36q0 -22 13 -37q14 -16 38 -16t38 16zM354 373q13 15 13 37q0 21 -13 36q-14 16 -38 16t-38 -16q-13 -15 -13 -36q0 -22 13 -37q14 -16 38 -16t38 16zM233 474q12 15 12 36t-12 36q-14 17 -39 17q-24 0 -38 -17q-13 -15 -13 -36t13 -36
q14 -17 38 -17q25 0 39 17zM977 965q13 14 13 36q0 21 -13 36q-14 17 -38 17t-39 -17q-12 -15 -12 -36q0 -22 12 -36q15 -17 39 -17t38 17zM169 685q13 15 13 36q0 22 -13 36q-14 17 -38 17t-38 -17q-13 -14 -13 -36q0 -21 13 -36q14 -17 38 -17t38 17zM858 1174
q-13 -14 -13 -36q0 -21 13 -36q14 -17 38 -17q25 0 39 17q13 15 13 36q0 22 -13 36q-14 17 -39 17q-24 0 -38 -17zM703 1207q12 15 12 37q0 21 -12 36q-15 17 -39 17t-38 -17q-13 -15 -13 -36q0 -22 13 -37q14 -16 38 -16t39 16zM1043 1127q-13 -15 -13 -36q0 -22 13 -37
q14 -16 38 -16t39 16q12 15 12 37q0 21 -12 36q-15 16 -39 16t-38 -16zM1093 912q13 15 13 36q0 22 -13 36q-14 17 -38 17t-38 -17q-13 -14 -13 -36q0 -21 13 -36q14 -17 38 -17t38 17zM1257 954q13 15 13 36q0 22 -13 37q-14 16 -39 16q-24 0 -38 -16q-13 -15 -13 -37
q0 -21 13 -36q14 -16 38 -16q25 0 39 16zM1399 748q13 15 13 36q0 22 -13 37q-14 16 -38 16t-38 -16q-13 -15 -13 -37q0 -21 13 -36q14 -16 38 -16t38 16zM1362 611q13 15 13 36q0 22 -13 37q-14 16 -38 16t-38 -16q-13 -15 -13 -37q0 -21 13 -36q14 -17 38 -17t38 17z
M1233 546q-13 -15 -13 -36t13 -36q14 -17 38 -17t39 17q12 15 12 36t-12 36q-15 17 -39 17t-38 -17zM1397 546q-13 -15 -13 -36t13 -36q14 -17 38 -17t38 17q13 15 13 36t-13 36q-14 17 -38 17t-38 -17zM1416 705q-13 -15 -13 -37q0 -21 13 -36q14 -16 38 -16t39 16
q12 15 12 36q0 22 -12 37q-15 16 -39 16t-38 -16zM1390 321q13 14 13 36q0 21 -13 36q-14 17 -38 17t-38 -17q-13 -15 -13 -36q0 -22 13 -36q14 -17 38 -17t38 17zM1259 204q12 15 12 37q0 21 -12 36q-15 17 -39 17t-38 -17q-13 -15 -13 -36q0 -22 13 -37q14 -16 38 -16
t39 16zM1410 917q13 15 13 36q0 22 -13 37q-14 16 -38 16q-25 0 -39 -16q-12 -15 -12 -37q0 -21 12 -36q14 -16 39 -16q24 0 38 16zM1175 1190q-13 -15 -13 -36t13 -36q14 -17 38 -17t39 17q12 15 12 36t-12 36q-15 17 -39 17t-38 -17zM1006 1285q-13 -15 -13 -36t13 -36
q14 -17 38 -17t39 17q12 15 12 36t-12 36q-15 17 -39 17t-38 -17zM827 1338q-13 -15 -13 -36q0 -22 13 -36q14 -17 38 -17t38 17q13 14 13 36q0 21 -13 36q-14 17 -38 17t-38 -17zM436 1317q-13 -15 -13 -36q0 -22 13 -37q14 -16 38 -16t38 16q13 15 13 37q0 21 -13 36
q-14 16 -38 16t-38 -16zM697 1408q-12 -15 -12 -37q0 -21 12 -36q14 -17 39 -17q24 0 38 17q13 15 13 36q0 22 -13 37q-14 16 -38 16q-25 0 -39 -16zM1410 1081q13 15 13 36t-13 36q-14 17 -38 17q-25 0 -39 -17q-12 -15 -12 -36t12 -36q14 -17 39 -17q24 0 38 17z" />
    <glyph glyph-name="F" unicode="F" horiz-adv-x="1301" 
d="M487 1022q-1 -1 -2 -3q-2 -2 -3 -2l-3 -3q-1 7 -2 13q6 -1 13 -2zM654 1086h-4h-7h-4q4 7 7 11q4 -5 8 -11zM636 332v1q5 -8 -147 184q-140 178 -136 397q1 35 37 35q37 0 36 -35q-3 -140 54 -250q30 -57 141 -188q32 -37 56 -75v476q0 35 37 35q36 0 36 -35v-255
q26 43 40 82q53 141 34 289q-2 17 8 26q9 9 24 9q37 0 41 -35q19 -149 -26 -280q-27 -79 -61 -133q-51 -82 -50 -81q-10 -24 -10 -98v-324q0 -24 -44 -24q-42 0 -38 17q32 150 -32 262zM112 732q1 -8 9 -15q3 -6 10 -10q-27 -49 -14 -69q4 -23 59 -39q-2 -8 0 -15
q-1 -9 4 -16q-15 -24 -7 -38q9 -15 41 -12q0 -28 15 -36q28 -14 80 55q5 3 9 6q7 0 16 2q-2 -8 -2 -16q-3 -4 -6 -9q-69 -52 -55 -80q8 -15 37 -15q-4 -32 12 -41q14 -8 37 7q7 -5 17 -5q6 -2 14 1q16 -55 40 -59q19 -13 68 14q4 -7 10 -10q7 -8 15 -9q6 -28 22 -32
q17 -4 37 21q10 -10 19 -14q47 -96 21 -218q-6 -26 12 -48q23 -28 74 -28q38 0 64 17q29 21 29 56v263q47 -25 66 -12q24 4 40 59q8 -3 14 -1q10 0 17 5q23 -15 38 -7q15 9 11 41q29 0 37 15q14 28 -55 80q-3 5 -6 9q0 7 -2 16q9 -2 16 -2q4 -3 9 -6q52 -69 80 -55
q15 8 15 36q32 -3 41 12q8 14 -7 38q5 7 4 16q2 7 0 15q55 16 59 39q13 20 -14 69q7 4 10 10q8 7 9 15q27 6 31 22q5 17 -20 37q20 20 15 36q-10 30 -95 18q-6 2 -11 3q-5 5 -13 9q8 5 13 10q6 1 11 2q85 -12 95 19q5 15 -15 35q25 21 20 38q-4 15 -31 21q-1 8 -9 16
q-3 6 -10 9q27 49 14 69q-4 24 -59 40q2 8 0 14q1 10 -4 17q15 23 7 37q-9 16 -41 12q0 29 -15 36q-28 15 -80 -54q-4 -3 -9 -6q-7 0 -16 -3q2 9 2 16l6 10q69 52 55 80q-8 15 -37 15q4 32 -11 41q-15 8 -38 -7q-7 4 -17 4q-6 2 -14 0q-16 55 -40 59q-19 13 -68 -14
q-4 7 -10 10q-7 8 -15 9q-6 27 -22 31q-17 5 -37 -20q-21 20 -36 15q-30 -10 -18 -95q-2 -5 -3 -11q-5 -5 -9 -13q-5 8 -10 13q-1 5 -3 11q13 85 -18 95q-15 5 -35 -15q-21 25 -38 20q-16 -4 -22 -31q-8 -1 -15 -9q-6 -3 -9 -10q-50 27 -69 14q-24 -4 -40 -59q-8 2 -14 0
q-10 0 -17 -4q-23 15 -37 7q-16 -9 -12 -41q-29 0 -36 -15q-15 -28 54 -80l6 -10q0 -7 2 -16q-8 3 -16 3q-5 3 -9 6q-52 69 -80 54q-15 -7 -15 -36q-32 4 -41 -12q-8 -14 7 -37q-5 -7 -4 -17q-2 -6 0 -14q-55 -16 -59 -40q-13 -20 14 -69q-7 -4 -10 -9q-8 -8 -9 -16
q-27 -6 -31 -21q-5 -17 20 -38q-20 -20 -15 -35q10 -31 95 -19q5 -1 11 -2q5 -5 13 -10q-8 -4 -13 -9q-6 -2 -11 -3q-85 12 -95 -18q-5 -16 15 -36q-25 -20 -20 -37q4 -16 31 -22z" />
    <glyph glyph-name="G" unicode="G" horiz-adv-x="1085" 
d="M852 529q29 -16 57 -10q38 7 59 41q20 33 12 71q-6 33 -31 50q-22 16 -52 15q-69 -3 -89 -66q-91 -4 -157 -65q-9 48 -21 92q62 49 187 145q5 4 35 6q32 1 40 5q39 17 59 51q24 40 16 79q-6 37 -37 64q-68 61 -150 32q-53 -19 -76 -65t-2 -93q1 -4 41 -61
q-83 -64 -124 -96q-21 77 -51 152q-6 29 -8 57l51 176q16 -1 27 1q62 7 94 56q33 50 12 104q-15 41 -56 64t-88 19q-48 -4 -82 -33q-33 -29 -41 -72q-15 -78 60 -120q9 -6 14 -12q-7 -23 -19 -63q-13 -48 -18 -64q-63 117 -150 217q66 63 35 135q-18 40 -59 61
q-42 21 -92 15q-46 -6 -77 -34q-32 -29 -39 -71q-10 -60 41 -105t117 -32q11 2 20 1q45 -50 82 -104q4 -6 15 -23q-39 21 -82 32q-13 44 -54 68q-42 24 -91 15t-77 -43q-27 -33 -22 -79q8 -70 86 -92q38 -11 77 1q39 11 62 41q2 2 18 27q80 -25 133 -86q12 -37 33 -100
q24 -74 33 -100q3 -9 10 -25l-1 -1q-67 62 -149 103q10 70 -61 99q-37 15 -76 6q-38 -9 -61 -38q-40 -50 -4 -107q7 -13 18 -23q40 -36 91 -23q31 5 69 31q107 -55 182 -144q8 -43 13 -90q-72 51 -156 74q-2 37 -26 65q-26 31 -62 31q-32 0 -60 -25q-27 -23 -35 -57
q-8 -37 12 -70q21 -35 66 -40q44 -4 75 23q7 7 13 15q101 -27 177 -98q5 -204 -55 -392q-5 -17 7 -28q10 -11 26 -9q5 -2 12 -2h80q28 0 28 29q2 4 2 7q37 221 6 443q53 80 147 83q13 -26 41 -41z" />
    <glyph glyph-name="H" unicode="H" horiz-adv-x="1579" 
d="M567 783q0 -12 -9 -18q-10 -7 -20 -2q-9 5 -14 15q0 2 0 1q-3 18 29 17q14 0 14 -13zM590 788q-3 24 -26 30q-6 2 -13 2q-1 10 -11 9q-24 -3 -36 -20q-12 -18 -1 -41q10 -21 31 -27q23 -7 41 8t15 39zM669 726q0 -12 -9 -18q-10 -7 -21 -2q-9 5 -14 15v1q-2 19 29 17
q15 0 15 -13zM692 731q-3 25 -27 30q-6 2 -13 2q0 11 -10 9q-25 -3 -36 -20q-13 -18 -2 -40q10 -21 32 -28q23 -7 40 8q18 15 16 39zM442 803q0 -11 -9 -18q-10 -6 -20 -1q-10 4 -14 14v2q-3 18 29 17q14 -1 14 -14zM409 761q23 -7 41 8q18 16 15 39q-3 25 -26 31
q-6 1 -13 1q-1 11 -11 10q-24 -3 -36 -21t-1 -40q10 -21 31 -28zM604 1081q0 -12 -10 -18q-9 -7 -20 -2q-9 5 -14 15v1q-3 18 29 17q15 0 15 -13zM626 1086q-3 24 -26 30q-6 1 -13 2q0 10 -11 9q-24 -3 -35 -20q-13 -18 -2 -41q10 -21 32 -27q22 -7 40 8t15 39zM757 1095
q0 -12 -9 -18q-10 -7 -20 -2q-9 4 -14 15v1q-3 18 29 17q14 -1 14 -13zM780 1100q-3 24 -26 30q-6 1 -13 1q-1 11 -11 10q-24 -3 -36 -21t-1 -40q10 -21 31 -28q23 -7 41 8q18 16 15 40zM947 1108q-10 -6 -20 -2q-10 5 -14 15v2q-3 18 29 17q14 -1 14 -14q0 -11 -9 -18z
M893 1152q-12 -18 -2 -40q10 -21 32 -28q23 -7 41 8q18 16 15 39q-3 25 -26 30q-7 2 -13 2q-1 11 -11 9q-24 -3 -36 -20zM802 1201q-9 5 -14 15q0 2 0 1q-3 18 29 17q15 0 15 -13q0 -12 -10 -18q-9 -7 -20 -2zM804 1267q-24 -3 -36 -20q-12 -18 -1 -41q10 -21 32 -27
q22 -7 40 8t15 39t-26 30q-6 2 -13 2q0 10 -11 9zM656 1167q-10 -6 -21 -2q-9 5 -14 15v2q-2 18 29 17q15 -1 15 -14q0 -11 -9 -18zM602 1211q-12 -18 -2 -40q10 -21 32 -28q23 -7 40 8q18 16 16 39q-3 25 -27 30q-6 2 -12 2q-1 11 -11 9q-25 -3 -36 -20zM367 1075
q-10 4 -14 15l-1 1q-2 18 30 17q14 -1 14 -13t-9 -18q-10 -7 -20 -2zM380 1131q-1 11 -11 10q-25 -3 -36 -21q-12 -18 -2 -40q10 -21 32 -28q23 -7 41 8q17 16 15 40q-3 24 -27 30q-6 1 -12 1zM320 1196q0 -11 -9 -18q-10 -6 -21 -1q-9 4 -14 14v2q-2 18 29 17q15 -1 15 -14
zM287 1154q23 -7 40 8q18 16 15 39q-2 25 -26 30q-6 2 -13 2q0 11 -10 10q-25 -3 -36 -21q-13 -18 -2 -40q10 -21 32 -28zM286 1036q0 -12 -9 -18q-10 -7 -20 -2q-9 4 -14 15q0 2 0 1q-3 18 29 17q14 -1 14 -13zM253 993q23 -7 41 8q18 16 15 40t-26 30q-6 1 -13 1
q-1 11 -11 10q-24 -3 -36 -21t-1 -40q10 -21 31 -28zM240 912q0 -11 -9 -18q-10 -6 -20 -1q-10 4 -14 14v2q-3 18 29 17q14 -1 14 -14zM207 870q23 -7 41 8q18 16 15 39q-3 25 -26 30q-7 2 -13 2q-1 11 -11 10q-24 -3 -36 -21t-2 -40q10 -21 32 -28zM170 803q0 -11 -9 -18
q-10 -6 -20 -1q-10 4 -14 14q-1 2 0 2q-3 18 29 17q14 -1 14 -14zM193 808q-3 25 -26 31q-7 1 -13 1q-1 11 -11 10q-24 -3 -36 -21t-2 -40q10 -21 32 -28q23 -7 41 8q18 16 15 39zM895 495q-10 4 -14 15l-1 1q-2 18 30 17q14 -1 14 -13t-9 -18q-10 -7 -20 -2zM908 551
q-1 11 -11 10q-25 -3 -36 -20q-12 -19 -2 -41q10 -21 32 -28q23 -7 41 9q17 15 15 39q-3 24 -27 30q-6 1 -12 1zM1318 770q-9 5 -14 15v1q-3 18 29 17q14 0 14 -13q0 -12 -9 -18q-10 -7 -20 -2zM1331 827q0 10 -11 9q-24 -3 -36 -20q-12 -18 -1 -41q10 -21 31 -27
q23 -7 41 8t15 39t-26 30q-6 1 -13 2zM1272 1098q-9 4 -14 14v2q-3 18 29 17q15 -1 15 -14q0 -11 -9 -18q-10 -6 -21 -1zM1285 1154q0 11 -10 9q-25 -3 -36 -20q-13 -18 -2 -40q10 -21 32 -28q23 -7 40 8q18 16 15 39q-2 25 -26 30q-6 2 -13 2zM1158 1061q-9 5 -14 15v1
q-3 18 29 17q14 0 14 -13q0 -12 -9 -18q-10 -7 -20 -2zM1160 1127q-24 -3 -36 -20q-12 -18 -1 -41q10 -21 31 -27q23 -7 41 8t15 39t-26 30q-7 1 -13 2q-1 10 -11 9zM1104 1149q0 -12 -9 -18q-10 -7 -20 -2t-15 15v1q-2 18 30 17q14 0 14 -13zM1071 1107q23 -7 41 8
q17 15 15 39q-3 24 -27 30q-6 2 -12 2q-1 10 -11 9q-25 -3 -36 -20q-12 -18 -2 -41q10 -21 32 -27zM1039 1031q-9 -6 -20 -2q-9 5 -14 15q0 2 0 1q-3 19 29 18q15 -1 15 -14q0 -12 -10 -18zM985 1075q-12 -18 -1 -40q10 -21 32 -28t40 8t15 39q-3 25 -26 30q-6 2 -13 2
q0 11 -11 9q-24 -3 -36 -20zM1177 1175q-9 4 -14 14v1v1q-3 18 29 17q14 -1 14 -14q0 -11 -9 -18q-10 -6 -20 -1zM1190 1231q-1 11 -11 10q-24 -3 -36 -21t-1 -40q10 -21 31 -28q23 -7 41 8q18 16 15 39q-3 25 -26 30q-7 2 -13 2zM1016 1231q0 -12 -9 -18q-10 -7 -20 -2
q-9 4 -14 15v1q-3 18 29 17q14 -1 14 -13zM984 1188q22 -7 40 8q18 16 15 40t-26 30q-6 1 -13 1q-1 11 -11 10q-24 -3 -36 -21t-1 -40q10 -21 32 -28zM1079 770q-9 5 -14 15q0 2 0 1q-2 18 29 17q15 0 15 -13q0 -12 -9 -18q-10 -7 -21 -2zM1093 827q-1 10 -11 9
q-25 -3 -36 -20q-12 -18 -2 -41q10 -21 32 -27q23 -7 40 8q18 15 16 39q-3 24 -27 30zM1158 495q-9 4 -14 15v1q-3 18 29 17q14 -1 14 -13t-9 -18q-10 -7 -20 -2zM1160 561q-24 -3 -36 -20q-12 -19 -1 -41q10 -21 31 -28q23 -7 41 9q18 15 15 39t-26 30q-6 1 -13 1
q-1 11 -11 10zM1291 661q-9 4 -14 15q0 2 0 1q-3 18 29 17q15 0 15 -13q0 -12 -10 -18q-9 -7 -20 -2zM1304 718q0 10 -11 9q-24 -3 -35 -20q-13 -18 -2 -41q10 -21 32 -28q23 -7 40 9q18 15 15 39q-2 24 -26 30q-6 1 -13 2zM1277 511q-3 18 29 17q15 -1 15 -13t-10 -18
q-9 -7 -20 -2q-9 4 -14 15q0 2 0 1zM1343 520q-2 24 -26 30q-6 1 -13 1q0 11 -11 10q-24 -3 -35 -20q-13 -19 -2 -41q10 -21 32 -28q23 -7 40 9q18 15 15 39zM1384 570q-10 5 -14 15q0 2 0 1q-3 18 29 17q14 0 14 -13q0 -12 -9 -18q-10 -7 -20 -2zM1397 627q-1 10 -11 9
q-24 -3 -36 -20q-12 -18 -2 -41q10 -21 32 -27q23 -7 41 8t15 39t-26 30q-7 2 -13 2zM1353 874q-10 5 -14 15v1q-3 19 29 17q14 0 14 -13q0 -12 -9 -18q-10 -7 -20 -2zM1366 931q-1 11 -11 9q-24 -3 -36 -20q-12 -18 -2 -41q10 -20 32 -27q23 -7 41 8t15 39q-3 25 -26 30
q-7 2 -13 2zM1430 718q-9 4 -14 15v1q-3 18 29 17q14 -1 14 -13t-9 -18q-10 -7 -20 -2zM1443 774q-1 11 -11 10q-24 -3 -36 -20q-12 -19 -1 -41q10 -21 31 -28q23 -7 41 9q18 15 15 39t-26 30q-6 1 -13 1zM1353 993q-10 4 -14 14v2q-3 18 29 17q14 -1 14 -14q0 -11 -9 -18
q-10 -6 -20 -1zM1366 1049q-1 11 -11 10q-24 -3 -36 -21t-2 -40q10 -21 32 -28q23 -7 41 8q18 16 15 39q-3 25 -26 30q-7 2 -13 2zM1195 816q-8 18 -9 33q0 10 24 145q4 22 -19 29q-24 6 -28 -17q-21 -119 -24 -143q-4 -29 9 -60q22 -55 21 -60l1 -3q-11 -4 -98 -15
q-78 -9 -127 -20q-46 -10 -80 -24q23 27 128 111q117 93 136 218q3 23 -20 29q-23 7 -27 -16q-14 -97 -103 -178q1 24 -12 87q-10 56 -5 90q3 23 -20 29q-23 7 -27 -16q-7 -45 5 -103q20 -93 0 -129q-3 -5 -4 -10q-81 -63 -116 -118q-15 42 -32 75q63 108 85 177
q24 77 7 210q-3 23 -27 23t-22 -23q16 -121 -5 -197q-15 -55 -66 -142q3 9 -1 17q-17 37 -3 98q21 92 22 100q1 23 -23 23t-26 -23q-1 -26 -14 -80q-12 -49 -12 -77q-84 79 -80 139q1 24 -23 24t-25 -24q-3 -50 29 -99q-30 5 -48 13q-29 13 -34 56q-1 8 0 71q2 96 -8 128
q-7 21 -35 44q-30 24 -36 40q-9 21 -32 15t-15 -28q8 -19 39 -47q29 -27 36 -48q11 -32 4 -121q-10 8 -21 14q-22 11 -33 -9q-5 -8 -3 -18q3 -11 12 -15q23 -12 36 -31q4 -6 10 -9q8 -49 47 -78q-9 7 130 -35h1v-1q6 -5 18 -17q67 -63 108 -176q-23 8 -51 11q-14 1 -67 4
q-40 3 -64 7q-72 14 -111 65q-13 18 -34 6t-7 -30q23 -31 53 -52q-2 -1 -5 -1q-15 -2 -52 -11q-18 -4 -27 14q1 -2 -10 31q-15 43 -43 82q1 2 0 5q0 2 5 92q2 53 -25 86q-14 18 -31 1t-3 -35q20 -23 9 -98q-8 8 -16 14q-17 15 -34 -2q-18 -17 0 -32q48 -40 78 -95
q5 -9 17 -47q10 -30 22 -44q25 -26 71 -19q113 18 131 19q4 0 7 1q-10 1 68 -4q-7 -6 -20 -21q-12 -14 -19 -21q-23 -21 -52 -22q-23 -1 -23 -26q0 -24 23 -23q61 3 104 56q20 24 35 30q19 7 45 -9q42 -25 42 -86q0 -7 4 -13v-440q0 -24 24 -24t24 24v534q-1 -1 31 14
q45 20 82 -2q50 -30 119 -33q24 -1 24 23t-24 25q-55 3 -106 33q-21 13 -37 17q6 1 28 7q27 7 63 13q5 -4 13 -4q22 -1 105 -58q47 -33 132 -27q23 2 23 26t-23 22q-75 -5 -134 39q-10 8 -20 14q65 8 94 21q48 23 43 74q0 6 -4 11q19 90 58 170q10 21 -11 33t-31 -9
q-39 -80 -58 -164zM1365 1159q-10 4 -14 14v2q-3 18 29 17q14 -1 14 -14q0 -11 -9 -18q-10 -6 -20 -1zM1378 1215q-1 11 -11 10q-24 -3 -36 -21t-1 -40q10 -21 31 -28q23 -7 41 8q18 16 15 39q-3 25 -26 30q-7 2 -13 2zM240 713q0 -12 -9 -18q-10 -7 -20 -2q-10 4 -14 15v1
q-3 18 29 17q14 0 14 -13zM207 670q23 -7 41 9q18 15 15 39t-26 30q-7 1 -13 2q-1 10 -11 9q-24 -3 -36 -20q-12 -18 -2 -41q10 -21 32 -28zM279 570q-9 5 -14 15v1q-3 18 29 17q15 0 15 -13q0 -12 -9 -18q-10 -7 -21 -2zM292 627q0 10 -10 9q-25 -3 -36 -20q-13 -18 -2 -41
q10 -21 32 -27q23 -7 40 8q18 15 15 39q-2 24 -26 30q-6 2 -13 2zM383 495q-10 4 -14 15v1q-3 18 29 17q14 -1 14 -13t-9 -18q-10 -7 -20 -2zM396 551q-1 11 -11 10q-24 -3 -36 -20q-12 -19 -1 -41q10 -21 31 -28q23 -7 41 9q18 15 15 39t-26 30q-6 1 -13 1zM187 1120
q-9 5 -14 15v1v0q-3 18 29 17q14 0 14 -13q0 -12 -9 -18q-10 -7 -20 -2zM200 1177q-1 10 -11 9q-24 -3 -36 -20q-12 -18 -1 -41q10 -21 31 -27q23 -8 41 8q18 15 15 39t-26 30q-7 1 -13 2zM106 1006q-3 18 29 17q14 0 14 -13q0 -12 -9 -18q-10 -7 -20 -2q-9 4 -14 15v1z
M172 1015q-3 24 -26 30q-6 1 -13 2q-1 10 -11 9q-24 -3 -36 -20q-12 -18 -1 -41q10 -21 31 -27q23 -8 41 8q18 15 15 39zM548 1224q-10 -7 -20 -2q-9 4 -14 15v0v1q-3 18 29 17q14 0 14 -13q0 -12 -9 -18zM494 1268q-12 -18 -1 -41q10 -21 32 -28t40 9q18 15 15 39t-26 30
q-6 1 -13 2q-1 10 -11 9q-24 -3 -36 -20zM326 1313q-10 4 -14 14l-1 2q-2 18 30 17q14 -1 14 -14q0 -11 -9 -18q-10 -6 -20 -1zM339 1369q-1 11 -11 10q-25 -3 -36 -21q-12 -18 -2 -40q10 -21 32 -28q23 -7 41 8q17 16 15 39q-3 25 -27 30q-6 2 -12 2zM695 1269
q-10 5 -14 15q0 2 0 1q-3 19 29 17q14 0 14 -13q0 -12 -9 -18q-10 -7 -20 -2zM697 1335q-24 -3 -36 -20q-12 -18 -2 -40q10 -21 32 -28q23 -7 41 8t15 39q-3 25 -26 30q-7 2 -13 2q-1 11 -11 9zM589 1331q-9 4 -14 15v0v1q-3 18 29 17q15 -1 15 -13t-10 -18q-9 -7 -20 -2z
M602 1387q0 11 -11 10q-24 -3 -35 -20q-13 -19 -2 -41q10 -21 32 -28t40 8q18 16 15 40q-2 24 -26 30q-6 1 -13 1zM488 1365q0 -12 -9 -18q-10 -7 -20 -2q-9 4 -14 15v1q-3 18 29 17q14 -1 14 -13zM511 1370q-3 24 -26 30q-6 1 -13 1q0 11 -11 10q-24 -3 -36 -21t-1 -40
q10 -21 31 -28q23 -7 41 8q18 16 15 40zM881 1299q-10 5 -15 15v1q-2 19 30 18q14 -1 14 -14q0 -11 -9 -18q-10 -6 -20 -2zM894 1356q-1 11 -11 9q-25 -3 -36 -20q-12 -18 -2 -40q10 -21 32 -28q23 -7 41 8q17 15 15 39q-3 25 -27 30q-6 2 -12 2zM1114 1287q0 -12 -9 -18
q-10 -7 -21 -2q-9 5 -14 15v1q-2 19 29 17q15 0 15 -13zM1081 1245q23 -7 40 8q18 15 16 39q-3 25 -27 30q-6 2 -12 2q-1 11 -11 9q-25 -3 -36 -20q-12 -18 -2 -40q10 -21 32 -28zM1272 1243q-10 5 -14 15q0 2 0 1q-3 19 29 17q14 0 14 -13q0 -12 -9 -18q-10 -7 -20 -2z
M1285 1300q-1 11 -11 9q-24 -3 -36 -20q-12 -18 -1 -41q10 -21 31 -27q23 -7 41 8t15 39q-3 25 -26 30q-7 2 -13 2zM1016 1365q0 -12 -9 -18q-10 -7 -20 -2q-9 4 -14 15v1q-3 18 29 17q14 -1 14 -13zM984 1322q22 -7 40 8q18 16 15 40t-26 30q-6 1 -13 1q-1 11 -11 10
q-24 -3 -36 -21t-1 -40q10 -21 32 -28zM762 1358q-9 4 -14 15v1q-3 18 29 17q15 0 15 -13q0 -12 -10 -18q-9 -7 -20 -2zM775 1415q0 10 -11 9q-24 -3 -36 -20q-12 -18 -1 -41q10 -21 32 -28t40 9q18 15 15 39t-26 30q-6 1 -13 2z" />
    <glyph glyph-name="I" unicode="I" horiz-adv-x="1271" 
d="M550 771q11 -12 25 -22q12 -9 25 -16v290q0 19 12 29q11 10 28 10q16 0 27 -10q12 -10 12 -29v-59q68 39 81 120q5 29 33 29q18 0 32 -14q15 -15 12 -36q-11 -64 -54 -115q-42 -50 -104 -72v-299q13 4 25 11q14 7 25 16q80 61 66 159q-5 38 33 49q16 4 28 -2
q13 -7 16 -25q12 -90 -27 -164q-39 -73 -116 -108q-12 -6 -25 -10q-12 -4 -25 -7v-408q0 -18 -12 -29q-11 -9 -27 -9q-17 0 -28 9q-12 11 -12 29v557q-13 6 -25 11q-13 7 -25 14q-98 62 -134 174q-5 17 3 31q8 12 24 16q38 11 50 -26q17 -54 57 -94zM103 903
q-23 -14 -23 -33t23 -32l77 -46q3 -15 6 -28l-54 -72q-15 -22 -8 -39q7 -18 34 -21l89 -12q6 -10 13 -19l-23 -87q-7 -26 7 -39q13 -14 39 -7l87 22l24 -16l13 -89q4 -26 22 -33q17 -7 38 9l72 55q1 -1 11 -3v-325q0 -37 26 -63q25 -25 64 -25q38 0 63 25q26 26 26 63v325
q13 3 17 4l72 -54q22 -16 39 -8q18 7 21 33l12 90q10 6 19 12l87 -22q26 -7 39 7q14 13 7 39l-22 87l16 24l89 13q26 4 33 22q7 17 -9 38l-54 72l4 22l77 46q23 13 23 32t-23 33l-77 45q-3 16 -6 29l54 72q16 21 8 39q-7 17 -33 21l-90 12q-6 10 -12 19l22 87q7 26 -7 39
q-13 14 -39 7l-87 -23q-13 9 -24 17l-13 89q-4 26 -22 33q-17 7 -38 -9l-72 -55q-11 3 -22 5l-46 77q-13 23 -32 23t-33 -23l-45 -77q-15 -3 -29 -6l-72 54q-21 15 -39 8q-17 -7 -21 -34l-12 -89q-9 -5 -19 -13l-87 23q-26 7 -39 -7q-14 -13 -7 -39l23 -87q-9 -12 -17 -24
l-89 -13q-26 -4 -33 -22q-7 -17 9 -38l55 -72q-3 -10 -5 -23z" />
    <glyph glyph-name="J" unicode="J" horiz-adv-x="1301" 
d="M1036 1249q-147 133 -337 163q-42 6 -84 6q-163 0 -300 -88q-137 -87 -197 -230q-68 -160 -13 -328q54 -168 211 -281q166 -119 451 -138q19 -1 30 11q11 11 11 27q1 18 -10 31q-11 15 -31 16q-277 19 -439 152q-104 86 -145 204q-52 151 25 297q93 175 289 227
q58 15 117 15q143 0 273 -80t205 -215q90 -160 30 -332q-58 -165 -218 -233v12q12 19 37 55q46 65 62 103q41 97 32 207q-2 19 -16 30q-13 10 -30 10q-20 0 -31 -12q-10 -11 -9 -29q9 -97 -26 -179q-9 -21 -25 -46v527q0 20 -14 31q-12 11 -29 11t-29 -11q-14 -11 -14 -31
v-500q-122 190 -124 416q0 19 -14 31q-12 10 -29 10q-19 0 -32 -12q-11 -12 -11 -29q2 -236 124 -438q-127 97 -184 242q-11 29 -43 29q-24 0 -37 -18q-10 -15 -2 -34q102 -260 358 -370l1 -1v-425q0 -19 13 -31q12 -11 29 -11q18 0 30 11q13 12 13 31v155l88 69
q12 10 13 27q2 23 -13 37q-28 29 -64 1l-24 -19v60q173 59 263 219q91 161 53 341q-37 175 -184 307z" />
    <glyph glyph-name="K" unicode="K" horiz-adv-x="1517" 
d="M906 409q-2 -7 -4 0q-1 4 -2 13q-6 29 -4 33l8 16q1 2 3 7q3 7 6 0q1 -5 1 -21q0 -29 -8 -48zM909 522v-1q-1 1 0 2q0 1 0 -1zM760 349q-26 22 -36 36q-15 21 -22 56q-3 14 -4 16q0 7 7 6q28 -2 71 -48q7 -8 13 -13q3 -3 6 -32q1 -8 5 -54q1 -7 -3 -2q-10 13 -37 35z
M716 498q1 1 3 5q3 6 7 0q12 -21 33 -44q4 -5 -1 -2q-25 12 -53 8q-6 -1 -6 2q1 1 1 3q-1 -4 16 28zM1093 716q-7 1 1 2q165 15 244 100q21 23 33 49q-1 -1 8 24q4 11 3 16q0 2 -3 -1q-3 -2 -4 -5q-3 -10 -5 -14q-5 -12 -15 -27q-4 -6 -7 0q-18 29 -20 40q-2 7 -2 0
q-4 -80 1 -71q-14 -24 -70 -49q-32 -14 -93 -27q-84 -18 -98 -22q-96 -27 -134 -93q-3 -6 -4 0q0 5 -1 8q-23 130 -23 137q2 68 57 111q13 11 29 20q23 13 32 15q146 36 207 130q16 25 23 52q0 1 5 26q2 11 1 15q-1 2 -3 0q-3 -3 -3 -6q-1 -10 -3 -15q-3 -12 -10 -28
q-3 -6 -7 -1q-18 26 -22 37q-2 7 -2 0q1 -5 9 -36q6 -22 1 -35q-10 -25 -57 -57q-28 -18 -80 -39q-73 -28 -85 -34q-142 -66 -117 -221q0 -7 -5 -3l-4 2q-6 3 -11 8q-19 19 -45 34q-11 7 -81 44q-50 26 -75 48q-43 37 -50 63q3 -10 18 69q1 7 -2 1q-5 -11 -26 -35
q-5 -5 -7 2q-5 16 -7 29q-1 5 -1 15q0 3 -2 6t-3 1q-2 -4 -1 -16l2 -25q4 -28 17 -55q50 -100 190 -153q7 -2 0 -2q-25 -1 -60 11q-6 2 -1 -3q21 -22 53 -23q7 -1 21 4q8 2 17 -5q16 -11 27 -23q50 -50 44 -117v-5q-1 -5 -3 -11q-5 -11 -14 -26q-3 -5 -9 -2q-9 5 -15 10
q-5 4 -1 0q5 -8 12 -16q4 -5 1 -11q-22 -35 -24 -58q-1 -7 -1 -14q0 -6 -3 -1q-10 12 -37 35q-26 21 -36 35q-6 8 -10 18q-3 6 -2 8t0 0q-2 -1 -4 5q-4 11 -6 25q-5 21 -2 29q-1 -3 16 28q12 22 27 54q3 5 -1 1q-6 -9 -22 -22q-16 -14 -22 -21q-4 -5 -5 1q-24 156 -179 176
q-13 2 -92 7q-56 3 -88 12q-55 16 -72 37q7 -7 -12 71q-2 6 -2 -1q0 -11 -10 -42q-2 -6 -6 -1q-12 12 -19 24q-2 4 -7 13q-1 2 -4 4q-4 2 -3 0q0 -4 5 -15l13 -22q15 -24 38 -43q86 -71 236 -61q7 1 1 -3q-23 -11 -59 -14q-7 -1 -1 -3q29 -11 58 0q7 3 18 13q6 5 18 2
q18 -3 34 -9q66 -25 88 -89q2 -7 20 -138q3 -21 11 -42q2 -6 -3 -11q-7 -6 -12 -11q-4 -5 -5 1q-24 156 -179 176q-13 1 -91 6q-57 4 -88 13q-55 16 -72 37q6 -8 -12 70q-2 7 -2 0q0 -12 -10 -42q-2 -6 -6 -1q-12 12 -19 24q-3 4 -7 12q-1 3 -4 5q-4 2 -4 -1q1 -4 6 -14
l12 -22q16 -24 38 -43q87 -71 237 -61q10 1 35 -5q18 -4 34 -9q65 -25 88 -89q2 -7 19 -138q8 -58 59 -115q4 -5 -1 -2q-27 12 -56 8q-6 -1 1 -2q29 -1 72 -48q8 -9 13 -13q4 -3 7 -33q1 -8 3 -32q3 -104 -13 -177q-1 -7 5 -5q14 3 36 -2q16 -4 86 -4q72 -1 67 4
q-4 5 -20 107t-14 107q13 33 10 76q0 7 4 12q20 26 49 31q6 1 0 1q-27 0 -50 -11q-6 -4 -6 0q0 3 3 8q35 58 31 112q0 2 -7 64q-1 7 4 11q9 7 18 15q4 4 -1 1t-13 -6q-3 -1 -3 0l3 1q2 2 5 3q6 2 0 1q-4 -1 -9 -2q-6 -1 -7 5q-1 26 2 46q11 67 77 103q16 8 35 15q13 4 20 0
q14 -8 22 -9q35 -7 64 9q6 4 -1 3q-42 -3 -69 5zM869 1025q-14 -15 -35 -15q-20 0 -34 15q-15 14 -15 34t15 35q14 14 34 14q21 0 35 -14q14 -15 14 -35t-14 -34zM756 1002q-14 -14 -35 -14q-20 0 -34 14q-15 14 -15 34q0 21 15 35q14 14 34 14q21 0 35 -14t14 -35
q0 -20 -14 -34zM515 973q-15 -14 -35 -14t-34 14q-15 15 -15 35t15 35q14 14 34 14t35 -14q14 -15 14 -35t-14 -35zM560 868q-14 -14 -35 -14q-20 0 -34 14q-15 14 -15 34q0 21 15 35q14 14 34 14q21 0 35 -14t14 -35q0 -20 -14 -34zM646 1036q-15 -14 -35 -14t-35 14
q-14 15 -14 35t14 35q15 14 35 14t35 -14q14 -15 14 -35t-14 -35zM1007 1046q-14 -14 -34 -14q-21 0 -35 14t-14 35q0 20 14 34q14 15 35 15q20 0 34 -15q14 -14 14 -34q0 -21 -14 -35zM905 1138q-14 -14 -35 -14q-20 0 -34 14q-15 14 -15 35q0 20 15 34q14 15 34 15
q21 0 35 -15q14 -14 14 -34q0 -21 -14 -35zM1053 824q-14 -15 -34 -15q-21 0 -35 15q-14 14 -14 34t14 35q14 14 35 14q20 0 34 -14t14 -35q0 -20 -14 -34zM1004 730q-14 -15 -34 -15q-21 0 -35 15q-14 14 -14 34q0 21 14 35t35 14q20 0 34 -14q15 -14 15 -35q0 -20 -15 -34
zM523 1087q-14 -14 -35 -14q-20 0 -34 14q-15 15 -15 35t15 35q14 14 34 14q21 0 35 -14q14 -15 14 -35t-14 -35zM382 999q-14 -14 -34 -14q-21 0 -35 14t-14 35q0 20 14 34t35 14q20 0 34 -14q15 -14 15 -34q0 -21 -15 -35zM431 886q-14 -14 -34 -14q-21 0 -35 14t-14 35
q0 20 14 34q14 15 35 15q20 0 34 -15q15 -14 15 -34q0 -21 -15 -35zM400 1118q-14 -14 -35 -14q-20 0 -34 14q-15 15 -15 35t15 35q14 14 34 14q21 0 35 -14q14 -15 14 -35t-14 -35zM1022 1170q-14 -14 -34 -14q-21 0 -35 14q-14 15 -14 35t14 34q14 15 35 15q20 0 34 -15
q15 -14 15 -34t-15 -35zM1198 879q-14 -14 -34 -14q-21 0 -35 14q-14 15 -14 35t14 34q14 15 35 15q20 0 34 -15q14 -14 14 -34t-14 -35zM1153 774q-14 -15 -35 -15q-20 0 -34 15q-15 14 -15 34q0 21 15 35q14 14 34 14q21 0 35 -14t14 -35q0 -20 -14 -34zM1309 966
q-15 -14 -35 -14t-35 14q-14 14 -14 34q0 21 14 35q15 14 35 14t35 -14q14 -14 14 -35q0 -20 -14 -34zM1300 838q-15 -15 -35 -15t-35 15q-14 14 -14 34t14 35q15 14 35 14t35 -14q14 -15 14 -35t-14 -34zM282 624q-14 -15 -35 -15q-20 0 -34 15q-15 14 -15 34q0 21 15 35
q14 14 34 14q21 0 35 -14t14 -35q0 -20 -14 -34zM184 710q-14 -15 -35 -15q-20 0 -34 15q-14 14 -14 34t14 35q14 14 34 14q21 0 35 -14q14 -15 14 -35t-14 -34zM855 591q-15 -15 -35 -15t-35 15q-14 14 -14 34q0 21 14 35q15 14 35 14t35 -14q14 -14 14 -35q0 -20 -14 -34z
M1394 1055q-14 -14 -35 -14q-20 0 -34 14q-14 15 -14 35t14 35q14 14 34 14q21 0 35 -14q14 -15 14 -35t-14 -35zM1417 936q-14 -15 -35 -15q-20 0 -34 15q-15 14 -15 34q0 21 15 35q14 14 34 14q21 0 35 -14t14 -35q0 -20 -14 -34zM1095 575q-15 -14 -35 -14t-35 14
q-14 14 -14 34q0 21 14 35q15 14 35 14t35 -14q14 -14 14 -35q0 -20 -14 -34zM988 1291q-15 -14 -35 -14t-34 14q-15 15 -15 35t15 35q14 14 34 14t35 -14q14 -15 14 -35t-14 -35zM1221 598q-15 -14 -35 -14t-35 14q-14 15 -14 35t14 35q15 14 35 14t35 -14q14 -15 14 -35
t-14 -35zM1335 673q-14 -14 -35 -14q-20 0 -34 14q-15 15 -15 35t15 34q14 15 34 15q21 0 35 -15q14 -14 14 -34t-14 -35zM1433 752q-14 -14 -35 -14q-20 0 -34 14q-15 14 -15 35q0 20 15 34q14 15 34 15q21 0 35 -15q14 -14 14 -34q0 -21 -14 -35zM338 1225
q-14 -15 -35 -15q-20 0 -34 15q-15 14 -15 34q0 21 15 35q14 14 34 14q21 0 35 -14t14 -35q0 -20 -14 -34zM628 1285q-14 -14 -34 -14t-35 14q-14 14 -14 35q0 20 14 34q15 15 35 15t34 -15q15 -14 15 -34q0 -21 -15 -35zM790 1340q-14 -14 -35 -14q-20 0 -34 14
q-15 15 -15 35t15 35q14 14 34 14q21 0 35 -14q14 -15 14 -35t-14 -35zM969 941q-14 -14 -35 -14q-20 0 -34 14q-15 14 -15 34q0 21 15 35q14 14 34 14q21 0 35 -14t14 -35q0 -20 -14 -34zM609 704q-14 -14 -34 -14t-35 14q-14 14 -14 35q0 20 14 34q15 15 35 15t34 -15
q15 -14 15 -34q0 -21 -15 -35zM349 752q-14 -14 -35 -14q-20 0 -34 14t-14 35q0 20 14 34q14 15 34 15q21 0 35 -15q14 -14 14 -34q0 -21 -14 -35zM456 717q-14 -14 -34 -14q-21 0 -35 14q-14 15 -14 35t14 34q14 15 35 15q20 0 34 -15q15 -14 15 -34t-15 -35zM554 545
q-14 -15 -34 -15q-21 0 -35 15q-14 14 -14 34q0 21 14 35t35 14q20 0 34 -14q15 -14 15 -35q0 -20 -15 -34zM417 554q-14 -14 -35 -14q-20 0 -34 14q-15 15 -15 35t15 35q14 14 34 14q21 0 35 -14q14 -15 14 -35t-14 -35zM212 849q-14 -14 -34 -14t-35 14q-14 14 -14 35
q0 20 14 34q15 15 35 15t34 -15q15 -14 15 -34q0 -21 -15 -35zM276 988q-14 -15 -34 -15t-35 15q-14 14 -14 34t14 35q15 14 35 14t34 -14q15 -15 15 -35t-15 -34zM164 960q-15 -15 -35 -15t-35 15q-14 14 -14 34q0 21 14 35q15 14 35 14t35 -14q14 -14 14 -35
q0 -20 -14 -34zM284 1104q-14 -14 -35 -14q-20 0 -34 14q-15 14 -15 35q0 20 15 34q14 15 34 15q21 0 35 -15q14 -14 14 -34q0 -21 -14 -35zM628 1167q-14 -14 -34 -14t-35 14q-14 15 -14 35t14 34q15 15 35 15t34 -15q15 -14 15 -34t-15 -35zM875 1245q-15 -14 -35 -14
t-34 14q-15 15 -15 35t15 35q14 14 34 14t35 -14q14 -15 14 -35t-14 -35zM1136 1134q-14 -15 -35 -15q-20 0 -34 15q-15 14 -15 34q0 21 15 35q14 14 34 14q21 0 35 -14t14 -35q0 -20 -14 -34zM1128 1021q-14 -15 -34 -15t-35 15q-14 14 -14 34q0 21 14 35q15 14 35 14
t34 -14q15 -14 15 -35q0 -20 -15 -34zM1245 1197q-15 -15 -35 -15t-35 15q-14 14 -14 34t14 35q15 14 35 14t35 -14q14 -15 14 -35t-14 -34zM1368 1167q-14 -14 -35 -14q-20 0 -34 14q-14 15 -14 35t14 34q14 15 34 15q21 0 35 -15q14 -14 14 -34t-14 -35zM1117 1258
q-14 -15 -34 -15q-21 0 -35 15q-14 14 -14 34t14 35q14 14 35 14q20 0 34 -14q14 -15 14 -35t-14 -34zM726 878q-14 -14 -34 -14q-21 0 -35 14q-14 15 -14 35t14 35q14 14 35 14q20 0 34 -14q15 -15 15 -35t-15 -35zM628 442q-14 -14 -34 -14t-35 14q-14 14 -14 35
q0 20 14 34q15 15 35 15t34 -15q15 -14 15 -34q0 -21 -15 -35zM741 1236q-14 -14 -35 -14q-20 0 -34 14q-15 14 -15 35q0 20 15 34q14 15 34 15q21 0 35 -15q14 -14 14 -34q0 -21 -14 -35zM764 1123q-15 -14 -35 -14t-35 14q-14 14 -14 35q0 20 14 34q15 15 35 15t35 -15
q14 -14 14 -34q0 -21 -14 -35zM505 1198q-14 -14 -34 -14q-21 0 -35 14q-14 15 -14 35t14 35q14 14 35 14q20 0 34 -14q15 -15 15 -35t-15 -35zM449 1307q-15 -15 -35 -15t-34 15q-15 14 -15 34t15 35q14 14 34 14t35 -14q14 -15 14 -35t-14 -34zM855 790q-15 -14 -35 -14
t-35 14q-14 14 -14 35q0 20 14 34q15 15 35 15t35 -15q14 -14 14 -34q0 -21 -14 -35zM847 903q-14 -14 -35 -14q-20 0 -34 14q-15 14 -15 35q0 20 15 34q14 15 34 15q21 0 35 -15q14 -14 14 -34q0 -21 -14 -35z" />
    <glyph glyph-name="L" unicode="L" horiz-adv-x="1565" 
d="M849 398q0 -1 -5 -9q-12 36 -68 164q177 82 226 324q5 1 12 3q-16 -182 58 -274q-23 -23 -50 -45q-139 -111 -173 -163zM507 552q20 -13 61 -40q42 -26 62 -39q81 -53 149 -136q1 -1 2 -5q-100 20 -265 163q4 27 -9 57zM470 721q55 -55 107 -39q42 13 60 68
q3 -57 17 -105q16 -51 55 -137q-49 37 -161 109q-49 32 -93 67q9 18 15 37zM831 785q48 47 75 127q9 -10 18 -17q-39 -205 -179 -269q-4 11 -4 10q-17 46 -22 101h5q58 0 107 48zM1407 913q19 137 -16 239q-35 104 -108 118q-57 11 -115 -38q-9 65 -39 108t-73 51
q-44 8 -88 -25q-43 -33 -73 -94q-62 146 -171 146q-65 0 -118 -61q-52 -60 -75 -156q-29 64 -74 98q-46 34 -87 22q-40 -12 -59 -63q-19 -50 -9 -117q-77 49 -139 22q-67 -29 -80 -128t35 -210q35 -79 89 -134q-57 -12 -74 -53q-19 -47 22 -103q42 -56 120 -89
q111 -46 190 -11q198 -168 334 -186q4 -30 4 -58q-1 -6 1 -12q1 -87 3 -127q2 -38 42 -38q16 0 26 10q12 10 11 28q-14 265 69 353q29 30 93 78q65 50 92 78h1h1q86 -17 167 95q31 -11 71 12t70 69q32 51 34 101q1 49 -29 69q-20 12 -48 6z" />
    <glyph glyph-name="M" unicode="M" horiz-adv-x="1475" 
d="M813 322q-41 -37 -47 -42q26 158 79 253q7 13 18 16q44 -21 83 -29q-25 -87 -87 -153q-17 -18 -46 -45zM616 483q19 1 77 5q50 3 80 5q-3 -10 -4 -11q2 2 -25 -75q-19 -54 -44 -58q-17 -3 -84 134zM539 494q14 -17 34 -82q-52 80 -110 161q51 -47 76 -79zM1328 1150
q-21 83 -91 128q-68 43 -151 31q-50 64 -129 91q-62 22 -127 3q-62 -18 -105 -68q-120 98 -268 55q-150 -43 -200 -197q-2 -4 -6 -15q-4 -9 -6 -15q0 1 0 -1q-55 -14 -95 -52q-43 -41 -47 -91v-13q-56 -143 24 -269q86 -134 245 -136q147 -200 272 -419q-5 -28 -22 -77
q-36 -101 70 -104q22 -1 33 0q31 3 46 24q14 21 6 51q-2 6 -14 40q-9 24 -11 40q0 3 1 18q22 42 87 99q73 64 95 93q50 68 70 149q51 4 98 33q73 46 85 140q9 18 32 22q151 23 171 176q11 85 -41 184v5q-4 39 -22 75z" />
    <glyph glyph-name="N" unicode="N" horiz-adv-x="1307" 
d="M146 689q4 79 5 158h198v-158h-203zM110 619q11 0 19 5h2h250q14 0 23 9l1 1q9 9 9 22v220q0 15 -11 24q-9 11 -25 11h-262q-16 0 -25 -12q-10 -13 -5 -30q0 -110 -6 -218q-1 -14 7 -23q9 -9 23 -9zM405 1003q4 80 5 158h198v-158h-203zM370 933q10 0 18 5h3h250
q13 0 22 10h1q9 9 9 23v219q0 15 -11 24q-9 12 -24 12h-263q-16 0 -25 -12q-9 -14 -5 -31q0 -110 -6 -218q-1 -14 8 -22q8 -10 23 -10zM772 1153q4 80 4 158h199v-158h-203zM736 1084q10 0 19 5h2h250q14 0 22 8l1 1l1 1q8 9 8 22v220q0 15 -11 24q-9 11 -24 11h-262
q-16 0 -25 -12q-10 -13 -5 -30q-1 -111 -7 -219q0 -13 8 -22q9 -9 23 -9zM735 947l2 78h99v-78h-101zM714 906q5 0 10 3v0v0h131q8 0 13 5l-3 4l4 -3q5 5 5 13v115q0 9 -6 14q-5 7 -14 7h-137q-10 0 -15 -8q-6 -7 -4 -17q0 -56 -3 -114q0 -8 5 -13q5 -6 14 -6zM178 1003
q2 38 3 78h99v-78h-102zM157 962q6 0 11 2h131q8 0 13 6l-3 3l4 -3q5 6 5 14v114q0 9 -6 15t-15 6h-137q-9 0 -15 -7q-5 -8 -3 -18q0 -57 -3 -113q-1 -8 4 -14q6 -5 14 -5zM541 1302l2 78h99v-78h-101zM520 1261q5 0 10 2v0h131q8 0 13 5l-3 4l4 -3q5 5 5 13v115q0 9 -6 14
q-5 7 -14 7h-138q-9 0 -14 -7q-6 -8 -3 -18q-1 -58 -4 -113q0 -9 5 -14t14 -5zM374 1274q1 27 1 55h70v-55h-71zM357 1242q4 0 8 2h95q7 0 11 4h1q4 5 4 11v84q0 7 -5 11q-5 5 -12 5h-100q-8 0 -12 -5q-4 -6 -2 -14q-1 -42 -3 -83q0 -7 4 -11t11 -4zM1159 1142v-54h-71
q1 28 1 54h70zM1073 1173q-7 0 -12 -6q-4 -6 -2 -14q-1 -42 -3 -82q0 -7 4 -11q4 -5 11 -5q4 0 8 2h96q6 0 10 4l1 1q4 4 4 11v83q0 8 -5 12q-4 5 -12 5h-100zM364 480h-8q-6 2 -13 2q-6 0 -12 -2h-68q2 40 2 77h99v-77zM707 813v-158h-203q3 78 4 158h199zM538 591h54v-140
h-54v140zM840 617q1 40 2 78h99v-78h-101zM961 816q3 80 4 158h199v-158h-203zM1131 540v212h65q13 0 22 8l1 1v1q9 9 9 22v219q0 16 -11 25q-9 11 -24 11h-263q-16 0 -24 -12q-10 -13 -6 -30q0 -110 -6 -219q-1 -13 8 -22q8 -9 23 -9q10 0 19 5h2h120v-190
q-96 -22 -192 -47v64h86q8 0 13 5l-3 4l4 -3q5 5 5 13v115q0 9 -6 14q-6 7 -14 7h-137q-10 0 -15 -7q-6 -8 -3 -18q-1 -58 -4 -114q0 -8 5 -13q2 -2 5 -4v-129h-153v142h82q13 0 22 8l1 1v1q9 9 9 22v219q0 16 -11 25q-9 11 -24 11h-263q-16 0 -24 -12q-10 -13 -6 -30
q0 -111 -6 -219q-1 -13 8 -22t23 -9h5v-163q0 -11 7 -20q8 -17 28 -17h84v-44l-56 -43q-3 0 -6 -1q-2 0 -5 -1q-77 30 -149 63v81h8q7 0 13 5l-4 4l4 -3q6 5 6 13v115q0 9 -7 14q-5 7 -14 7h-137q-10 0 -15 -7q-6 -8 -3 -18q0 -58 -3 -114q-1 -8 4 -13q5 -6 14 -6q5 0 10 3
h59v-100q0 -9 4 -16q4 -10 15 -14q82 -39 171 -74v-194q0 -31 32 -31q33 0 33 31v194l60 43q13 1 22 10q9 10 9 22v5v5v62h180q12 0 20 7q17 8 17 27v30q114 30 226 55q11 3 17 11q14 9 14 26z" />
    <glyph glyph-name="O" unicode="O" horiz-adv-x="1337" 
d="M829 608q61 22 103 72q44 50 54 114q6 38 -32 49q-16 4 -28 -3q-14 -7 -17 -25q-13 -81 -80 -120v60q0 18 -13 29q-11 9 -27 9t-27 -9q-13 -11 -13 -29v-705q0 -18 13 -29q11 -9 27 -9t27 9q13 11 13 29v558zM690 616q0 18 -13 29q-11 9 -27 9t-27 -9q-13 -11 -13 -29
v-24q-44 27 -60 74q-12 37 -51 26q-15 -4 -23 -16q-9 -13 -3 -31q36 -105 137 -141v-135l-66 48q-13 10 -30 5q-16 -5 -24 -19q-18 -31 14 -54q62 -46 100 -73q3 -2 6 -3v-228q0 -18 13 -29q11 -9 27 -9t27 9q13 11 13 29v571zM345 1350q-4 -48 5 -89q15 -71 69 -59
q55 11 41 82q-9 41 -31 83q-28 53 -54 48t-30 -65zM989 894q42 -38 90 16q28 31 49 74q27 54 7 71q-20 18 -71 -14q-40 -25 -68 -56q-48 -54 -7 -91zM1175 831q-46 12 -88 11q-72 -2 -71 -58t73 -54q43 1 88 15q57 18 57 44q-1 27 -59 42zM1096 559q58 -14 71 8
q14 23 -28 67q-33 34 -69 55q-63 36 -91 -12t34 -85q37 -21 83 -33zM855 1061q-4 1 -7 1q-36 0 -52 -98q-6 -23 -8 -40q-9 -72 46 -79h7l1 -1h6q56 0 56 72q0 17 -3 42q-4 99 -39 103q-4 1 -7 0zM536 865q-8 -47 -3 -89q8 -71 64 -65t47 78q-5 42 -23 86q-23 55 -49 52
t-36 -62zM413 909q-47 37 -68 21q-22 -15 -1 -72q16 -44 41 -78q43 -59 88 -26t3 92q-25 34 -63 63zM271 1292q-41 44 -65 32q-23 -12 -12 -71q9 -46 28 -84q33 -64 83 -39t17 90q-19 37 -51 72zM222 611q46 9 84 29q64 34 37 83q-26 50 -89 16q-38 -20 -72 -52
q-44 -42 -31 -65q12 -24 71 -11zM375 449q37 29 61 64q42 59 -4 91t-87 -27q-25 -34 -40 -79q-20 -57 2 -72q21 -15 68 23zM298 862q-1 56 -73 55q-43 -1 -88 -15q-58 -18 -57 -44q1 -27 59 -42q46 -12 88 -11q72 1 71 57zM230 1092q-29 31 -70 55q-52 31 -71 13t9 -72
q21 -42 50 -73q49 -52 90 -14q41 39 -8 91zM518 1213q-8 -46 -4 -88q8 -72 63 -67q56 6 49 78q-5 42 -22 86q-23 56 -49 53t-37 -62zM743 1273q-1 42 -14 87q-18 58 -44 58t-42 -58q-13 -46 -12 -88q0 -72 56 -72q56 1 56 73zM922 1076q42 -38 90 16q28 31 49 74q27 54 7 72
q-19 17 -71 -15q-40 -25 -68 -56q-48 -54 -7 -91zM808 1295q-24 -41 -35 -82q-19 -69 35 -84q55 -14 73 56q11 41 10 88q-1 60 -27 67q-25 7 -56 -45zM368 1048q18 -44 43 -77q44 -57 89 -23q44 34 0 91q-26 33 -64 62q-48 35 -69 19t1 -72zM746 1032q-17 58 -43 58
q-27 0 -43 -58q-13 -46 -13 -88q0 -72 56 -72t56 72q0 42 -13 88z" />
    <glyph glyph-name="P" unicode="P" horiz-adv-x="826" 
d="M410 1072q-1 1 -1 2h4l-2 -5q-1 1 -1 3zM692 1139q-50 49 -120 49h-9q9 27 9 55q0 70 -49 119q-50 50 -120 50t-119 -50q-50 -49 -50 -119q0 -28 9 -55q-68 -2 -115 -51q-48 -49 -48 -118q0 -51 28 -93q27 -41 72 -61q-45 -20 -72 -61q-28 -42 -28 -93q0 -89 73 -139
q-73 -51 -73 -139q0 -70 50 -120q49 -49 119 -49q58 0 104 36v-201h-14q-23 0 -37 -15q-12 -14 -12 -34t12 -34q14 -16 37 -16h129q22 0 36 16q12 14 12 34t-12 34q-14 15 -36 15h-15v214q49 -49 119 -49t120 49q49 50 49 120q0 88 -73 139q73 50 73 139q0 51 -28 93
q-27 41 -72 61q45 20 72 61q28 42 28 93q0 70 -49 120z" />
    <glyph glyph-name="Q" unicode="Q" horiz-adv-x="910" 
d="M500 89q0 -19 -12 -30q-11 -10 -28 -10q-16 0 -27 10q-12 11 -12 30v259q-59 5 -105 44t-66 99q-7 21 7 36q12 14 32 14q29 0 38 -28q23 -70 94 -81v110q-59 6 -105 45q-46 38 -66 98q-7 22 7 37q12 14 32 14q4 0 9 -2q22 -5 29 -27q23 -69 94 -81v109q-75 7 -127 66
q-29 33 -44 77q-7 21 7 36q12 14 32 14q12 0 21 -6q12 -7 17 -22q23 -70 94 -81v161q0 19 12 30q11 10 27 10q17 0 28 -10q12 -11 12 -30v-161q71 11 94 81q2 7 7 13q11 15 31 15t32 -14q14 -15 7 -36q-18 -53 -56 -90q-49 -47 -115 -53v-109q71 12 94 81q4 14 15 22
q10 7 23 7q20 0 32 -14q14 -15 7 -37q-20 -60 -66 -98q-46 -39 -105 -45v-110q71 11 94 81q9 28 38 28q20 0 32 -14q14 -15 7 -36q-20 -60 -66 -99t-105 -44v-259zM372 89q0 -38 25 -64q26 -25 63 -25q38 0 64 25q25 26 25 64v177q142 33 214 166q66 121 66 306
q0 242 -88 440q-105 240 -287 240q-181 0 -287 -240q-87 -198 -87 -440q0 -189 69 -311q75 -134 223 -163v-175z" />
    <glyph glyph-name="R" unicode="R" horiz-adv-x="1577" 
d="M973 632q45 59 83 120q51 -37 113 -22q-12 -15 -26 -28q-60 -54 -170 -70zM313 427q-15 46 -12 104q17 -1 52 3q-16 -60 -25 -123zM1365 1344q-50 63 -140 36q-42 43 -104 38q-61 -5 -98 -52q-66 1 -115 -51q-42 -46 -45 -112q-2 -63 30 -117q-71 -72 -36 -164
q29 -79 122 -90q-172 -354 -538 -500q3 106 45 201q55 15 89 70q88 -37 143 22q41 45 6 114q71 45 73 106t-64 109q51 71 27 119q-25 48 -122 70q-22 72 -24 76q-33 55 -104 61q-71 5 -116 -43q-18 -18 -43 -28q-90 -33 -84 -126v-21q-74 -15 -104 -63q-30 -47 -5 -110
q-30 -6 -50 -30q-19 -24 -21 -55q-16 -41 3 -82q19 -42 63 -63q23 -11 25 -24q11 -50 44 -76q-19 -183 97 -285q-1 -50 3 -95q-3 -76 15 -145q1 -5 4 -10q10 -23 42 -18q8 1 108 26q0 1 -1 1q0 1 -1 2q19 14 9 35q-31 63 -46 132q254 127 446 341q22 1 45 3q119 -2 221 59
q100 60 155 162q14 6 28 14q61 37 55 109q83 59 94 167q6 55 -24 108q-28 48 -77 81q5 53 -30 98z" />
    <glyph glyph-name="S" unicode="S" horiz-adv-x="1445" 
d="M861 595h4v9q17 37 34 68q27 -24 51 -38q-45 -40 -100 -65q7 18 11 26zM549 719q16 6 32 -6q14 -11 32 -28q1 -3 0 -2q15 -48 47 -156q5 -37 7 -78q-127 105 -119 270h1zM1229 1071q10 92 -40 162q-52 70 -142 84q-27 4 -62 23q-59 31 -114 16q-29 -9 -51 12
q-73 65 -166 45q-93 -19 -129 -108q-19 -48 -65 -66q-14 -6 -19 -12q-17 -18 -50 -5q-92 40 -174 -13t-86 -153q-1 -28 -18 -56q-55 -88 -19 -178q-13 -34 -2 -70q11 -38 43 -61q65 -47 145 17q18 2 36 7q50 16 68 7q4 -3 10 -7q4 -3 3 -2h1q10 -5 21 -8q62 -220 247 -357
q-12 -136 -74 -257q-32 -20 -78 -14q-19 2 -80 19q-76 21 -134 3q-13 -4 -14 -18v0q-2 -8 -5 -22q-4 -16 -5 -22q-5 -21 17 -25q3 -1 6 -1h828q10 0 15 8q8 6 8 16v30q0 15 -14 19q-5 5 -13 5h-250q-21 25 -38 43q-58 64 -36 138q9 28 12 58q7 57 20 173q130 13 219 105
q36 0 65 19l7 3q62 -50 148 -19q34 13 57 42q24 30 25 65q0 5 -1 13q26 65 5 137t-77 113q-56 40 -50 92z" />
    <glyph glyph-name="T" unicode="T" horiz-adv-x="1463" 
d="M1196 880q3 -29 -16 -43q-101 -71 -204 -136q-37 -23 -44 24q-1 8 0 32q4 164 4 175q-1 29 10 52q59 34 125 52q55 -48 115 -13q31 18 42 52q12 34 -2 69q-12 31 -42 47q-31 16 -65 10q-37 -7 -57 -34q-21 -26 -21 -66q0 -7 -4 -26q-60 -19 -115 -51q-19 -3 -34 3
q-8 8 -24 25t-24 25q51 86 -3 139q-24 23 -58 26q-33 3 -62 -14q-29 -19 -39 -52q-11 -32 2 -65q13 -35 40 -47q28 -12 87 -6q55 -59 71 -75q25 -47 27 -90q1 -25 1 -55q-168 117 -198 138q-143 102 -155 214q23 6 41 21q16 13 25 29q14 13 15 33q3 91 -89 130
q-65 27 -129 -31l-4 -4q-9 -9 -16 -18q-10 -14 -6 -33q-7 -48 33 -88q39 -38 92 -42q13 -109 120 -202q27 -23 266 -188q1 -2 4 -2q-2 -30 -5 -70q-6 -80 -32 -149q-21 16 -31 41q22 16 28 44q5 27 -7 52q-11 24 -40 34q-28 9 -53 0q-44 -16 -45 -63q-5 -32 18 -59
q19 -23 54 -23q16 -44 56 -69q-15 -29 -33 -55q-46 -65 -98 -11q-47 50 -126 151q-22 29 -14 73q2 4 6 13q58 5 86 22q27 17 35 53q7 34 -7 64q-13 30 -43 45q-23 11 -49 10q-34 2 -64 -21q-28 -21 -39 -54q-9 -27 3 -55q11 -27 36 -43l-15 -31q-14 0 -29 12q-16 14 -49 47
q-31 31 -49 47q-40 33 -50 77q24 110 31 147q7 3 14 5q45 12 62 56q16 44 -8 85q-34 55 -97 45q-66 -11 -80 -78q-13 -61 44 -100q11 -8 17 -14l-32 -152q-16 5 -28 7q-13 91 -77 101q-35 5 -65 -10q-29 -15 -42 -45q-13 -31 -5 -64q8 -32 35 -52q30 -24 61 -18q32 5 81 43
q20 -4 39 -11q86 -77 112 -100q155 -136 246 -322q-162 24 -242 168q13 12 22 27q17 30 5 65q-11 33 -40 51q-15 9 -32 11q-13 5 -26 6q-52 1 -75 -46q-8 -4 -11 -14v-1v0q-5 -9 -2 -19q-3 -68 58 -96q29 -13 60 -5q45 -85 128 -138q82 -53 178 -59q24 -53 27 -69
q-17 -107 -55 -212q-8 -22 9 -37q4 -7 7 -8q111 -24 178 0q10 4 11 16q8 13 4 29q-32 117 -30 234q2 7 5 21t5 21l2 1q26 13 71 35q50 25 71 35q-2 2 1 0q21 -19 49 -17q27 1 48 20q22 18 21 49q-1 28 -18 51q-18 23 -51 22q-30 0 -52 -19q-3 -3 -5 -7q-3 -2 -5 -5
q-15 -23 -10 -52l-1 -1h-1q-49 -24 -105 -52q7 28 14 47q3 10 7 24q107 129 277 133h1q3 -25 18 -43q24 -29 63 -35q41 -5 69 19q29 24 33 64q5 41 -20 69q-26 30 -67 31q-40 2 -70 -25q-8 -7 -7 -17q-7 -8 -12 -17q-4 1 -8 1q-121 -3 -220 -69q16 23 34 41q97 99 248 174
q22 11 51 6q75 -12 108 47q14 27 10 60q-4 32 -25 54q-22 24 -54 29q-33 5 -62 -11q-57 -31 -48 -107z" />
    <glyph glyph-name="U" unicode="U" horiz-adv-x="1529" 
d="M837 69h-131l11 368l3 94q-4 4 -6 11q-12 41 -76 63q-6 2 -104 23q-4 -1 -8 -1h-1h-14q-25 0 -43 -10q-25 -16 -44 -21q-24 -7 -49 -7q-20 0 -40 4q-24 5 -19 30q5 24 28 24h6q11 -3 22 -3q24 0 57 16q-41 17 -74 42q-15 12 -6 29t28 17q9 0 18 -7q34 -27 217 -74
q92 -23 128 -62q11 67 1 136q-1 12 -2 23q-7 7 -19 7q8 0 -81 -28q-45 -13 -83 -14h-5q-83 0 -156 40q-19 11 -12 32q7 20 26 20q7 0 14 -4q13 -7 28 -13q-23 22 -43 32q-14 7 -36 14q-30 11 -36 13q-40 16 -61 43q-11 14 -1 27q9 13 26 13q14 0 23 -12q10 -13 66 -31
q42 -14 66 -30q33 -23 54 -47q29 -32 46 -37q5 -1 10 -4q37 2 70 15q61 24 91 24h8q-8 31 -83 45q-55 9 -91 24q-12 5 -25 11q-86 5 -105 7q-43 4 -64 25q-27 29 -35 74q-12 62 -27 78q-14 14 -5 31q8 16 25 16q11 0 19 -8q21 -21 30 -58q2 -6 7 -31q5 -20 9 -33
q13 -38 61 -41h6h7q-14 17 -23 37q-7 16 3 29t24 13t21 -14q25 -54 85 -80q14 -6 115 -32q35 -9 60 -27q12 36 6 54q-3 10 -11 24q-10 16 -13 23q-19 44 -15 113q2 27 30 27q27 0 25 -27q-3 -53 3 -71q3 -12 13 -29q13 -22 16 -28q3 -8 6 -17q84 92 85 147q1 27 28 27
q28 0 28 -27q-2 -62 -54 -125q-79 -95 -87 -110q-20 -37 -15 -94q0 -3 0 -2q1 -9 3 -25q2 -17 3 -25q-1 5 27 81q18 49 36 82q45 81 171 163q34 22 46 92q3 20 23 20q13 0 22 -9q11 -11 8 -26q-8 -48 -23 -75q57 24 89 56q8 8 19 8q16 0 25 -16q9 -17 -5 -31
q-39 -39 -124 -70q-98 -34 -131 -58q-50 -35 -84 -105q-15 -33 -47 -130q25 20 55 35q12 6 35 17q28 12 38 17q1 4 2 7q9 14 8 42q-1 36 0 43q6 41 36 73q8 8 19 8q16 0 25 -16q9 -17 -5 -32q-20 -21 -22 -89q51 37 66 87q5 20 25 20q14 0 23 -9q9 -11 5 -25
q-27 -96 -165 -161q-66 -31 -89 -45h1q12 2 30 2q8 0 24 -1h25q43 0 67 9h1q26 10 38 32q8 13 22 13q15 0 24 -12q10 -14 2 -29q-7 -12 -16 -22q11 -8 45 -39q27 -25 49 -35q20 -9 12 -30q-7 -21 -28 -21q-6 0 -12 3q-26 13 -59 45q-40 41 -66 41l-3 1q-21 -5 -100 -8l6 -6
q53 -59 91 -68q23 -6 19 -30t-27 -24h-7q-52 13 -86 49q-50 54 -82 63q-32 -15 -49 -49q-2 -4 -5 -8v-6l4 -112zM666 437l-11 -367q-1 -21 14 -37q15 -15 37 -15h131q22 0 37 15q15 16 14 37l-10 367h455q42 0 72 30t30 72v783q0 42 -30 72t-72 30h-1151q-42 0 -72 -30
t-30 -72v-783q0 -42 30 -72t72 -30h484z" />
    <glyph glyph-name="V" unicode="V" horiz-adv-x="1391" 
d="M1071 1118q15 -7 24 -15q0 -1 6 -8q-21 -57 -27 -162q-45 116 -25 160q7 16 22 25zM709 537q-2 4 -3 7q8 53 29 96q1 -43 -10 -90q-8 -6 -16 -13zM660 606q-55 82 -40 137q10 34 59 80q21 -45 32 -72q14 -31 20 -64q-19 -21 -32 -42q-15 -25 -24 -56q-8 9 -15 17z
M582 893q7 15 24 52q7 16 13 27q8 18 10 29q3 1 4 1q4 1 10 2q8 1 11 1q12 3 21 9q11 8 9 10l-10 -1q-4 -1 -11 -1q-17 -1 -23 -4q-6 -1 -10 -5v1q4 4 5 4q9 5 27 6q19 1 27 5q12 4 17 16q1 2 2 5q1 4 -1 4l-4 -4q-8 -7 -25 -6q-22 1 -27 0q-16 -4 -24 -19q-4 8 -11 14
q-3 2 -5 0q-3 -3 0 -5q17 -18 -10 -65q-5 -8 -7 -11q-50 -93 -56 -142t20 -115q-7 7 -8 7q-109 99 -91 217q3 18 9 37q2 1 1 1q6 4 15 6q5 2 14 3q12 1 15 2q18 3 31 12q15 11 12 14l-13 -1q-6 -1 -16 -2q-24 -1 -33 -4q-10 -4 -18 -12q4 8 2 5q7 5 9 6q12 7 38 8q27 2 39 7
q16 7 23 23q2 4 3 7q1 5 -1 6l-6 -5q-12 -11 -36 -9q-31 2 -38 0q-4 -1 -9 -4q19 32 68 94q15 19 23 29q29 37 39 71q4 -29 30 -62q7 -9 15 -19q66 -84 73 -129q12 -78 -60 -144q-4 -3 -6 -4l-2 4q-41 71 -15 98q3 3 0 6q-2 2 -5 0q-35 -30 -3 -99q4 -8 10 -23
q-74 -66 -89 -104q-25 80 4 150zM1201 630q-42 40 -54 46q-28 12 -59 7q6 7 15 16q71 80 154 81q4 1 4 4q0 4 -4 4q-9 1 -18 1q-74 0 -149 -68q-7 -6 -13 -11q27 54 29 145l8 6q5 3 14 7q11 5 14 7q17 9 26 22q11 15 8 18l-13 -6q-5 -3 -16 -7q-23 -9 -30 -15q-6 -4 -11 -11
v4q3 4 4 4q10 11 35 21q27 10 36 19q14 12 16 30q1 4 1 9q-1 5 -3 5l-4 -7q-9 -15 -33 -21q-32 -8 -38 -12q-8 -5 -14 -13q0 3 -1 7v7q-3 105 7 154q5 3 10 3q5 1 12 1q10 1 13 1q14 1 25 8q13 7 11 10q0 1 -11 0h-13q-20 0 -27 -2q-10 -2 -18 -9q1 4 1 3q9 6 11 7
q11 4 32 4q22 -1 32 2q13 5 21 17l2 6q2 4 0 5q0 -1 -5 -4q-10 -8 -30 -5q-25 4 -31 3q-15 -2 -26 -15q4 12 8 21q1 3 -2 5t-5 -2q-7 -12 -14 -28q-6 22 -24 33q-6 4 -38 12q-24 6 -33 20l-4 7q-2 0 -2 -5q-1 -4 0 -8q2 -19 16 -30q10 -9 37 -20q-13 -8 -22 -21
q-10 -16 -12 -40q-7 12 -18 18q-7 5 -38 13q-25 6 -33 20l-4 7q-3 0 -3 -5v-8q3 -19 16 -31q10 -8 37 -19q25 -10 35 -20q2 -2 8 -11q2 -17 6 -35q1 -4 8 -31q34 -137 17 -196q-28 -101 -151 -141q-10 -3 -34 -11q-68 -21 -98 -34q4 30 0 57q-2 14 -5 30h8q11 -1 28 -4
q22 -4 28 -5q33 -4 60 4q32 12 30 19l-25 4q-10 2 -29 7q-43 10 -60 10q-22 -1 -42 -12q2 3 6 7q18 7 23 8q25 4 72 -7q49 -12 72 -10q32 3 54 27q5 6 9 12q6 8 2 10l-13 -6q-27 -12 -69 4q-53 22 -67 22q-9 1 -20 -1q6 5 13 12q21 17 30 25q51 44 33 81q-1 3 -5 2
q-3 -1 -2 -5q12 -30 -47 -73q-10 -7 -14 -10q-61 -47 -89 -74q-11 30 -30 68q5 6 5 7q11 10 36 20q26 10 36 19q14 12 16 31q1 3 0 8q0 5 -2 5l-4 -7q-9 -14 -33 -21q-32 -8 -38 -12q-19 -11 -25 -33q-8 17 -21 40q3 3 10 9q53 47 71 73q9 14 17 35h6q6 -1 15 -3l16 -4
q19 -3 34 1q18 5 17 9l-14 4q-5 1 -16 4q-24 7 -33 8q-10 0 -20 -4q-1 -3 1 3q9 2 11 3q15 1 41 -6q27 -9 40 -8q18 1 32 14q3 3 5 6q3 4 1 5l-7 -2q-16 -6 -39 4q-30 14 -37 15q-22 2 -41 -12q22 64 77 90q3 2 2 5q-2 3 -5 2q-62 -23 -95 -98q-2 -5 -3 -8q0 53 -49 156
q-30 61 -39 92q4 6 10 10l14 7q12 5 15 7q17 9 26 22q11 16 8 18l-13 -6q-5 -2 -16 -6q-23 -10 -31 -16q-11 -8 -17 -23q0 2 -1 4q6 11 11 17q11 10 36 20q26 11 36 19q14 12 16 31q1 4 0 8q0 5 -2 5l-4 -7q-9 -14 -33 -20q-32 -8 -38 -12q-21 -14 -26 -40q-1 11 -1 21
q0 4 -4 4q-3 0 -3 -3q-6 -60 30 -156q-64 63 -64 99q0 18 15 32q3 3 1 6q-3 2 -5 0q-11 -7 -17 -17v11q-5 31 -33 52q-3 2 -5 0q-2 -3 0 -6q23 -22 23 -50q1 -56 -102 -156q49 127 50 204q7 12 11 16q10 10 36 20q26 11 36 20q14 11 16 30v8q0 6 -2 5l-4 -7q-9 -14 -33 -20
q-32 -8 -38 -12q-16 -10 -23 -28v5q-1 4 -4 3q-4 0 -4 -3q0 -62 -34 -145q-4 21 -17 35q-7 6 -39 22q-26 13 -32 31l-2 9q-3 0 -4 -5q-2 -5 -2 -9q-2 -22 10 -38q9 -12 35 -30q25 -17 34 -31q1 -1 5 -11q-2 -4 -2 -3q-3 11 -10 19t-30 24q-10 7 -16 11l-12 10q-5 -2 4 -22
q7 -17 23 -31q3 -2 14 -11q9 -6 14 -11q3 -3 5 -7q-5 -11 -17 -35q-18 -37 -28 -59q-5 49 -25 79q-21 31 -87 77q-2 1 -8 5q-23 15 -28 25q5 11 12 18q10 10 35 20q27 11 37 20q13 11 16 30v8q0 5 -2 5l-5 -7q-8 -14 -32 -20q-32 -8 -39 -12q-23 -15 -26 -43q-3 1 -4 -2
q-9 -23 22 -48q6 -5 17 -14q24 -17 34 -27q43 -35 54 -96q-23 20 -95 38l-20 5q-70 20 -89 76q-11 32 5 111l3 18q8 43 -7 65q-9 13 -27 16q-4 1 -5 -3q-1 -3 3 -4q14 -4 21 -16q12 -24 -8 -84q-8 74 -33 111q-2 3 -5 2q-3 -2 -1 -5q17 -35 19 -119v-20q-8 10 -19 15
q-8 3 -44 8q-28 3 -40 18l-5 8q-3 0 -2 -6q0 -5 1 -10q5 -20 22 -31q12 -9 43 -17q30 -8 43 -18l4 -4v-4q-6 6 -12 10q-10 6 -37 13q-12 3 -18 5q-15 5 -16 5q-3 -3 12 -19q12 -13 32 -21q4 -1 17 -6q10 -3 17 -6q4 -2 10 -6q4 -18 11 -32l-2 1q-43 35 -82 35q-8 0 -17 -1
q-3 -1 -3 -4q0 -4 4 -4q47 2 89 -41q23 -23 38 -31q21 -12 73 -25q72 -19 92 -41q29 -31 20 -104q-7 -29 -8 -55q-2 -13 -2 -19q-2 3 -7 15q-46 105 -125 140q-20 27 -54 21q-7 -1 -36 -16q-23 -11 -39 -6l-7 2q-2 -1 1 -5t6 -6q14 -13 32 -13q13 0 40 10q25 9 40 8
q2 0 9 -2q50 -26 77 -68q16 -26 34 -82q5 -16 4 -13q-33 42 -84 39q-14 -1 -68 -22q-41 -17 -68 -5l-13 6q-4 -2 1 -9q4 -7 10 -12q22 -24 53 -28q24 -2 73 10q47 12 72 7q11 -1 33 -12q2 -4 3 -7q-23 15 -49 16q-17 0 -60 -10q-19 -4 -29 -6l-25 -5q-3 -7 30 -18
q27 -9 60 -5q6 1 28 5q17 4 27 4q15 1 28 -3q6 -11 12 -19q26 -39 106 -110q51 -45 73 -69q22 -39 49 -74l3 -4q1 -5 2 -9q20 -69 -21 -229q-40 -155 -90 -225q-26 -36 -39 -55q-1 -2 0 -4t4 -2l72 -1q2 0 3 2q11 15 26 34q30 41 79 238q27 111 39 138q25 58 37 99
q34 35 152 72q67 21 97 35q13 -2 27 -8q10 -4 25 -14q18 -11 23 -14q30 -17 58 -18q34 -2 35 5q0 1 -22 14q-8 5 -25 17q-35 25 -52 31q-16 6 -36 5q4 3 6 4q17 0 20 -1q25 -5 64 -33q41 -30 64 -36q30 -9 60 5q7 4 13 8q7 5 5 8h-15q-29 -1 -62 29z" />
    <glyph glyph-name="W" unicode="W" horiz-adv-x="1505" 
d="M719 994l-200 161l197 -201l-21 -226l-338 147l331 -216l-17 -192l-436 167l423 -305l-30 -329h253l-31 329l425 305l-437 -168l-18 192l332 217l-338 -147l-21 225l198 202l-202 -162l-35 382zM329 327l1 4q6 31 7 36q-59 -43 -57 -42q3 1 32 1q11 0 17 1zM359 383
q-13 -9 -13 -10q-3 -19 -8 -46q27 1 28 5q0 4 1 10q1 7 2 10q0 5 2 15q2 9 2 14l3 15q-12 -9 -17 -13zM414 423q-14 -10 -24 -17q-4 -3 -5 -14q-5 -29 -9 -58q24 9 25 15q2 10 5 26q3 21 8 48zM420 411q-1 -9 -5 -29q-3 -19 -4 -30q52 39 35 94q-4 -3 -12 -8q-7 -5 -11 -8z
M289 379q-2 -6 -5 -17q-7 -27 -9 -30q-5 -4 55 43q-6 1 -18 2t-19 1zM353 407q-21 2 -28 3q-13 2 -21 2q-4 1 -12 -25q8 0 23 -2q15 -1 23 -2q1 0 14 10l16 13zM366 415q12 -1 16 2q6 5 22 18q-34 4 -49 5q-3 0 -12 1t-13 2q-6 0 -21 -21q29 -3 57 -7zM395 445q19 -3 19 -2
q14 11 21 17q-49 31 -100 -9q42 -5 60 -6zM109 522q9 -5 15 -7l3 3q4 5 12 14t12 14q-23 -3 -70 -8q3 -1 28 -16zM199 551q-6 0 -21 -2q-16 -2 -16 -3l-15 -18q-10 -11 -15 -17q24 -13 27 -9q2 2 6 8q4 5 6 7q9 11 19 23zM217 553q-5 0 -12 -10q-8 -9 -36 -45q25 -4 29 0
l16 20q6 7 16 19q12 15 15 19q-21 -2 -28 -3zM245 543q-9 -11 -37 -46q64 7 77 64q-20 -2 -28 -3zM115 580l-12 -12q-20 -20 -23 -22q23 3 69 10q-12 9 -30 21zM197 564l-12 9q-14 10 -23 17q-3 2 -9 5q-5 4 -8 6q-4 3 -23 -15q17 -12 38 -27q1 -1 17 2q19 3 20 3zM243 572
q-9 6 -40 28q-18 13 -21 15q-4 3 -28 -8q27 -19 47 -34q9 -7 14 -6q9 1 28 5zM282 578q-27 51 -91 41q27 -19 49 -35l15 -11zM317 738q-3 2 -10 6q-18 10 -20 11q4 -7 11 -22q7 -16 10 -23l4 12q3 8 4 13zM326 689q2 3 4 9q2 7 3 10q1 2 3 7q1 4 2 7t-15 12q-2 -5 -5 -15
q-4 -10 -6 -16l5 -11l3 -6q2 -5 3 -7zM344 717q-9 -26 -14 -39q-3 -8 -2 -11q4 -7 9 -18q9 24 12 33q4 11 6 17q1 4 -11 18zM359 694q-2 -7 -7 -20q-4 -13 -7 -20l-4 -13q1 -3 4 -9l4 -8q30 28 10 70zM275 719l3 -1q21 -10 23 -11q-8 19 -19 46q0 -2 -5 -22q-2 -7 -2 -12z
M296 683q6 -2 9 -4l10 -4q-4 8 -6 14q-4 10 -5 11q-37 16 -30 12q-4 -18 -1 -19q7 -3 13 -6q3 -1 10 -4zM295 658q36 -15 32 -13q-4 10 -7 18q-2 4 -10 7q-12 5 -38 15q2 -18 6 -20q4 -1 17 -7zM331 637l-13 5q-16 7 -39 16q18 -42 59 -39zM196 769q-4 3 -11 6
q-18 10 -19 12q4 -9 10 -23q8 -16 11 -23q5 15 8 25zM198 717q3 -5 3 -7l4 10q4 12 7 19q3 11 5 14q1 3 -16 13q-5 -15 -10 -31q-1 -1 4 -11q1 -3 3 -7zM216 681q2 6 11 32q6 16 6 18q1 4 -11 17q-7 -21 -14 -38q-3 -8 -1 -11q3 -7 9 -18zM231 705q-5 -13 -7 -20l-5 -12
q7 -15 9 -18q29 29 10 70q-2 -6 -7 -20zM160 784q0 -2 -5 -22q-1 -7 -2 -12l3 -1q16 -7 24 -11q-16 39 -20 46zM174 715q6 -3 10 -4l9 -4q-3 6 -6 13q-4 11 -5 11q-15 7 -30 13q-4 -19 -1 -20q5 -2 14 -5q3 -2 9 -4zM151 716q2 -18 6 -19q4 -2 17 -8q27 -11 31 -13
q-4 13 -7 19q-1 3 -9 6q-12 5 -38 15zM209 668l-12 5q-17 7 -39 17q17 -43 58 -40zM636 896q-4 3 -11 6q-18 10 -19 11q3 -7 10 -22t11 -23q3 9 8 25zM636 877q-4 -10 -5 -15q-1 -1 4 -11q1 -3 3 -7q3 -5 3 -7l4 10q3 9 7 19q3 8 5 14q1 3 -16 13q-2 -6 -5 -16zM647 826
q2 -5 9 -18q2 5 6 16q3 11 5 16q6 15 6 18q2 3 -11 17q-8 -22 -14 -38q-3 -8 -1 -11zM664 791q2 -6 4 -9q29 29 10 70q-2 -6 -7 -20q-5 -13 -7 -20l-5 -12q2 -3 5 -9zM593 877l3 -1q-6 3 24 -11q-5 11 -20 46q0 -2 -4 -22q-2 -7 -3 -12zM624 838l9 -4l-3 6q-2 5 -3 7
q-4 10 -5 11q-3 1 -15 6q-9 4 -15 7q-4 -19 -1 -20q-1 0 14 -5q8 -4 19 -8zM605 820q7 -3 9 -4q21 -9 32 -13q-5 12 -8 19q-1 3 -9 6q-13 5 -38 16q2 -19 6 -20q3 -2 8 -4zM649 795l-12 5q-29 12 -39 17q17 -43 58 -40zM509 943q-4 3 -11 7q-18 9 -19 11q20 -43 21 -45l4 12
q2 8 4 13zM518 894q1 3 3 10q2 6 4 10q3 9 4 13q1 3 -15 13q-7 -21 -10 -31q-1 -1 4 -11q1 -2 3 -7l3 -6zM535 923q-8 -23 -14 -39q-3 -8 -1 -11q3 -7 9 -18q1 5 5 16t6 17q5 12 6 17q1 4 -11 18zM551 900q-3 -7 -7 -20q-5 -14 -7 -20l-5 -13l9 -18q29 29 10 71zM466 924
q0 1 3 -1q11 -5 24 -10q-9 20 -20 45q0 -2 -5 -21q-2 -8 -2 -13zM487 889q6 -3 9 -4l10 -4q-6 13 -6 14q-4 10 -5 10q-6 3 -15 7q-11 5 -15 6q-4 -18 -1 -20q1 0 13 -5q3 -1 10 -4zM487 864q22 -10 31 -14q-3 10 -7 19q-1 3 -9 6q-11 5 -38 16q2 -18 6 -20q6 -3 17 -7z
M522 842l-12 6q-7 2 -40 16q18 -42 59 -40zM448 724q4 -19 12 -56q4 7 15 25l2 3q-3 4 -10 10q-18 16 -19 18zM463 659q-1 -1 2 -13q2 -11 4 -17l6 10q5 8 13 20q1 3 4 7q3 5 4 7q3 4 -14 18q-19 -31 -19 -32zM472 615q2 -10 5 -23q20 32 21 34q7 10 11 18q3 4 -7 22
q-15 -23 -26 -39q-5 -9 -4 -12zM482 571q2 -8 2 -11q41 25 29 77q-12 -19 -26 -42q-8 -12 -8 -13q1 -4 3 -11zM425 686l2 -2q4 -3 25 -18q-2 9 -6 28q-3 19 -5 28q0 -2 -11 -23q-4 -8 -5 -13zM429 648q17 -12 20 -14q10 -7 9 -7q0 2 -3 17q-2 12 -3 13q-14 11 -30 22
q-9 -20 -6 -22q4 -3 13 -9zM432 613q20 -14 33 -23q-2 12 -4 22q-1 4 -9 10q-7 5 -39 27q-2 -21 2 -24q1 0 17 -12zM414 617q10 -52 56 -59l-3 22l-13 9q-5 3 -40 28zM576 695q3 -11 7 -32q5 -21 7 -31l9 15t8 14l2 3q-3 5 -11 11q-20 17 -22 20zM593 623q-1 -2 2 -15
q1 -4 3 -10q1 -6 2 -9l7 11q1 3 14 23q5 8 10 15q2 4 -16 20q-19 -31 -22 -35zM603 573q2 -6 6 -25q18 27 24 37q9 14 12 21q3 4 -8 25q-20 -31 -29 -45q-6 -9 -5 -13zM614 524l3 -12q45 28 33 85l-29 -46q-10 -15 -10 -14q1 -4 3 -13zM550 653q0 -1 3 -3q16 -11 27 -20
q-6 35 -11 63q-1 -2 -12 -26q-5 -9 -7 -14zM556 610q2 -2 10 -8q7 -5 11 -8l11 -7q0 3 -2 9q-1 6 -1 9q-3 15 -4 15q-23 17 -34 25q-10 -22 -7 -25q5 -3 16 -10zM559 571q6 -5 18 -13q12 -9 18 -13q-2 16 -4 25q-1 5 -10 11q-16 11 -43 30q-3 -23 2 -27t19 -13zM561 560
q-15 10 -22 15q10 -58 62 -66q-3 18 -4 25l-14 10q-7 5 -22 16zM671 1145q-3 3 -9 5q-14 8 -16 9l9 -18t8 -18q1 3 4 10q2 6 3 10zM678 1106q1 2 3 8q2 4 3 7q0 2 1 6q2 3 2 5q1 3 -12 10q-1 -4 -4 -12q-3 -9 -4 -13q-1 0 3 -8l3 -6q1 -3 2 -5zM692 1128q-7 -19 -11 -31
q-3 -6 -1 -9q2 -5 7 -14q9 25 9 26q3 9 5 14q1 3 -9 14zM705 1110q-7 -18 -12 -32q-3 -10 -3 -11q8 -17 6 -14q24 23 9 57zM636 1130l3 -1q3 -2 9 -4q7 -3 10 -5q-3 7 -8 19q-6 14 -8 18q0 -1 -4 -17q-1 -7 -2 -10zM661 1098l8 -3q-1 2 -3 5q-1 4 -2 6l-4 8q-10 4 -25 11
q-3 -15 0 -16q1 -1 5 -2q3 -2 5 -3q10 -3 16 -6zM653 1081q4 -2 13 -6q8 -3 13 -5q-5 11 -6 15q-2 3 -8 5q-12 5 -31 13q2 -15 5 -16q1 0 14 -6zM681 1064l-10 4l-15 6q-11 5 -16 7q14 -34 47 -32q-6 17 -6 15zM706 1408q3 11 4 12v2q-2 1 -5 3q-9 4 -10 5zM708 1405
q-1 -1 2 -5q0 -2 1 -4t2 -3l1 5q2 3 4 9q0 1 1 3q1 3 1 4q1 1 -7 6q-1 -2 -5 -15zM723 1411q-3 -8 -7 -18q-1 -4 -1 -6q2 -3 5 -8l5 15q3 7 3 9q1 2 -5 8zM727 1391q-2 -7 -3 -10l-3 -6l4 -9q15 14 5 34zM689 1412q0 1 2 0l11 -5q-2 5 -9 22q0 -1 -3 -11q0 -3 -1 -6z
M692 1398q2 0 3 -1q7 -3 9 -4l5 -2l-3 7q-2 5 -3 5l-14 6q-2 -9 -1 -9q1 -1 4 -2zM707 1389q-11 4 -19 7q1 -9 3 -10q3 -1 8 -3q3 -1 8 -3t8 -4q-3 6 -4 9q-1 2 -4 4zM691 1383q9 -20 29 -19q-1 3 -4 9q0 -1 -6 2q-15 6 -19 8zM614 1338q-10 1 -11 1q-1 2 18 -16v6
q-1 5 -1 6v2q-2 0 -6 1zM632 1333q0 2 -9 3q1 -9 1 -16l4 -4l2 -2l3 -3v5q0 7 -1 10v7zM645 1300q-1 13 -1 17v9q0 2 -8 6v-20q0 -4 2 -5q1 -2 7 -7zM648 1297l7 -6q8 18 -8 33v-10v-10zM604 1321h2l12 -1q-10 11 -17 17q1 -1 2 -10q1 -4 1 -6zM613 1317q-6 1 -8 1
q1 -9 3 -9q3 0 7 -1h10h5l-5 5l-4 4h-8zM609 1305q4 -8 6 -8h9q11 0 17 -1q-4 5 -7 8q-1 1 -5 1h-20zM644 1294q0 -1 -7 0h-20q15 -16 33 -7zM575 1291q-10 2 -11 2q7 -7 18 -17q0 2 -1 7v6v1q-2 1 -6 1zM593 1287q0 1 -9 3v-8q1 -5 1 -8l4 -4q1 -1 2 -3q2 -1 3 -2v5
q-1 7 -1 10v7zM598 1261q3 -3 8 -7q-1 13 -1 17v9q0 2 -8 6v-20q0 -4 1 -5zM608 1257l1 -6l7 -6q8 18 -8 33v-21zM565 1274h2h12l-8 8q-5 6 -9 9q1 -1 2 -11q0 -3 1 -6zM566 1271q1 -9 3 -9h7q11 0 10 0h5q-1 0 -3 2q-1 2 -2 3l-4 4h-16zM570 1259q4 -8 6 -8q14 -1 9 -1h8h9
l-7 7q-1 1 -5 1q-14 1 -20 1zM578 1248q15 -16 33 -8l-6 7h-7zM700 1343v1q-2 2 -6 4q-11 6 -11 7q2 -5 6 -14t6 -13q2 7 5 15zM709 1327q1 1 2 4q1 2 1 4q1 2 -9 7q2 4 -6 -18l2 -6l4 -8l2 6t4 11zM716 1332q-5 -14 -9 -23q-2 -4 -1 -6q2 -3 5 -11q2 4 4 10q2 7 3 9t2 5
q1 4 2 6t-6 10zM716 1295l-3 -7l3 -6q1 -3 2 -5q18 17 6 41zM675 1333q0 1 2 0t7 -4q4 -2 7 -3q-1 3 -11 27q0 -1 -4 -13q-1 -4 -1 -7zM682 1315q3 -2 11 -5l5 -2q0 1 -1 4q-2 2 -2 4l-3 6q-3 1 -9 4q-6 2 -9 4q-2 -11 0 -12zM677 1302q6 -2 10 -4q3 -2 9 -4q6 -3 9 -4
q-2 6 -4 11q-1 2 -5 4q-9 3 -22 9q1 -11 3 -12zM677 1298q10 -25 34 -24l-4 11l-7 3q-4 2 -23 10zM606 1204q-5 11 -5 13q-4 -18 -7 -29q2 1 13 9l1 1q0 2 -2 6zM612 1183q2 1 -2 11q-3 -2 -8 -5q-6 -4 -8 -5q-1 -1 -2 -7q0 -2 -1 -4q-1 -3 -1 -5l5 4q2 1 5 3t5 3q6 4 7 5z
M593 1166q-4 -3 -5 -5l-2 -12q6 4 17 12q1 1 4 3t5 2q2 2 1 13q-11 -7 -20 -13zM591 1149l-6 -4q-1 -3 -1 -6q-1 -4 -2 -6q24 3 30 29q-5 -3 -21 -13zM587 1209l-5 -5l1 -1q1 -3 3 -7q3 -5 4 -7q1 5 4 14q2 10 3 14q-1 -1 -10 -8zM574 1189l2 -4t6 -10l3 -5l2 8q2 6 1 7
q1 -1 -9 17q-8 -7 -7 -9q0 -2 2 -4zM581 1169q-2 3 -12 20q-6 -9 -5 -11q1 -1 6 -9q0 -2 10 -18q2 10 3 11q0 2 -2 7zM578 1146l-3 7q-9 14 -13 21q-7 -25 13 -39zM407 977q-2 2 -8 5q-15 8 -17 10q13 -28 18 -38q1 4 3 10q2 7 4 11v2zM415 937q2 6 5 16q1 1 2 5q2 4 2 6
q1 3 -12 10q-2 -4 -5 -13q-3 -8 -4 -12q0 -1 4 -9q6 -13 5 -12zM429 960q-11 -31 -11 -32q-3 -7 -2 -9q2 -3 8 -15q11 33 9 27q4 10 5 14q1 3 -9 15zM442 941q-3 -9 -12 -33l-3 -11q2 -5 7 -14q24 23 8 58zM372 961l2 -1q2 0 20 -8q-7 17 -16 38q0 -2 -4 -19q-2 -6 -2 -10z
M389 932q5 -2 8 -3l8 -4q-1 2 -2 6l-3 6q-3 8 -4 8l-12 6q-9 4 -13 5q-3 -15 -1 -16t6 -2q3 -2 5 -3q3 -1 8 -3zM389 911q4 -2 13 -5q9 -4 13 -6q-4 11 -6 16q-1 2 -7 5q-11 4 -32 13q2 -15 5 -17q5 -2 14 -6zM418 893l-10 5q-23 9 -32 13q14 -35 48 -32q-2 5 -6 14z
M262 903l-1 2q-4 -2 -9 -5q-13 -10 -14 -11q10 0 37 -1zM301 888l-5 6q-4 5 -10 12l-4 4q-2 3 -3 4q-2 2 -14 -6l16 -19q1 -1 9 -1h11zM326 888q-13 16 -17 20q-5 6 -9 11q-2 2 -16 -2q14 -17 20 -24q4 -5 7 -5h15zM347 888q-8 32 -42 32q13 -15 21 -24l7 -8h14zM257 867
l2 1q5 5 16 14l-38 2q2 -1 13 -11q4 -4 7 -6zM271 872q-7 -5 -10 -8q11 -10 13 -8l8 8q3 3 12 11l7 6h-6h-6q-8 1 -8 0q-4 -3 -10 -9zM278 853q13 -5 16 -3l5 5q4 4 6 5q3 3 10 9l10 10q-8 1 -15 1q-2 0 -7 -5q-8 -7 -25 -22zM346 878q-3 0 -14 1l-8 -8q-2 -1 -25 -23
q34 -2 47 30zM497 1234q-2 2 -7 4q-10 6 -11 7q2 -4 6 -14q4 -8 6 -13q3 8 5 15q0 2 1 1zM497 1223q-2 -5 -3 -9q-1 0 2 -6q2 -3 4 -8l2 6q2 6 4 11l3 8q0 2 -9 7q-1 -2 -3 -9zM508 1183q4 10 7 19q2 7 3 10q1 2 -6 10q-5 -13 -8 -22q-2 -5 -1 -7q2 -5 5 -10zM513 1185
l-3 -7l5 -10q17 16 6 41zM476 1243q0 -1 -3 -13q-1 -4 -1 -7h1q1 -1 14 -7zM484 1202q4 -1 5 -2l6 -2l-3 8l-3 6q-3 1 -9 4q-6 2 -9 4q-2 -11 -1 -12q4 -2 8 -3zM474 1192q2 -1 10 -4q-1 0 18 -8q-3 7 -4 11q-1 2 -6 4q-9 3 -22 9q1 -11 4 -12zM504 1175l-7 3q-4 2 -11 5
q-9 4 -12 5q11 -25 35 -23zM365 1063q-2 -2 -4 -6q-7 -10 -8 -11q20 8 28 10l-15 6zM399 1063l-5 3q-8 3 -11 5q-1 0 -4 1q-2 2 -4 2q-2 1 -8 -8q3 -1 9 -4q6 -2 9 -4l6 2q5 2 8 3zM417 1070q-3 2 -9 4q-6 3 -9 4q-7 4 -10 5q-2 1 -11 -6q15 -7 22 -10q4 -2 6 -1q2 0 11 4z
M433 1076q-16 19 -41 9q4 -1 12 -5q7 -3 11 -5l7 -3q4 1 11 4zM374 1037l1 2q6 11 7 13q-12 -4 -28 -9q2 0 13 -4q4 -1 7 -2zM382 1045q-3 -6 -5 -9q11 -3 12 -1q1 1 4 7l3 6q1 3 2 5q3 6 3 5q-1 0 -4 -1t-4 -1q-6 -2 -7 -3q-1 -3 -4 -8zM393 1034q11 0 12 3l5 9q2 3 5 9
t5 9q-9 -2 -12 -3q-2 -1 -4 -5q-7 -15 -11 -22zM424 1066l-3 -7q-2 -4 -6 -11q-4 -8 -6 -11q26 8 26 32zM327 1008q-2 2 -6 4q-10 7 -11 8q-2 5 10 -28q4 10 6 14zM327 973l3 6q-2 -5 5 11q-1 -1 3 8q1 1 -8 8q-2 -5 -8 -18q0 -1 2 -7q-1 5 3 -8zM334 955q3 7 9 19q2 6 4 10
q1 2 -5 11q-2 -3 -6 -11q-3 -7 -5 -11q-2 -5 -1 -7t4 -11zM340 940q19 15 9 40q-2 -6 -10 -22q-3 -7 -3 -8q3 -6 4 -10zM307 1018q0 -1 -4 -12q-1 -5 -2 -7l2 -1q9 -5 13 -7zM317 974l5 -2q0 1 -1 4q-1 2 -1 4q-2 6 -3 6q-3 2 -8 5q-6 3 -9 4q-3 -10 -1 -11q1 -1 4 -2
q2 -1 3 -2q11 -5 11 -6zM310 962q3 -1 9 -4t9 -5q-1 4 -3 11q-1 2 -5 5q0 -1 -22 10q1 -10 3 -11q8 -5 9 -6zM323 952q-4 2 -11 6q-7 3 -11 5q8 -25 32 -26q-2 9 -3 11zM686 1250l1 2q-3 2 -8 5q-13 7 -15 8q10 -21 16 -34q4 13 6 19zM691 1250q0 -1 -8 -24l3 -8l5 -10l3 7
q1 3 2 7q2 6 3 8q1 1 2 5q1 3 2 5q1 3 -12 10zM707 1236q-9 -25 -11 -29q-2 -6 -1 -8l7 -14q5 15 9 25q2 7 4 13q1 3 -8 13zM708 1189l-3 -10q5 -10 6 -13q22 22 8 53q-3 -9 -11 -30zM655 1238l2 -1q12 -5 18 -8l-15 35q0 -2 -4 -17q-1 -6 -1 -9zM665 1228q-7 3 -11 5
q-3 -14 -1 -15l10 -4q3 -1 15 -6l7 -3q-2 3 -4 10l-4 8q-4 2 -12 5zM653 1212q2 -14 4 -15q3 -1 7 -2q5 -3 6 -3q4 -2 12 -5q8 -4 12 -5q-3 8 -5 14q-1 2 -7 5q-13 5 -29 11zM688 1180q-19 7 -30 12q14 -32 45 -30q-4 9 -6 14zM464 1057q-2 -3 -5 -9q-6 -15 -7 -17
q4 2 35 21q-4 1 -10 2q-7 2 -11 2zM502 1068q-2 1 -8 2q-5 1 -8 2q-2 1 -5 1q-4 1 -6 2q-3 0 -9 -14q5 -1 13 -2q9 -3 13 -3q1 -1 8 4q2 1 5 3l6 3zM478 1080q25 -6 32 -8t9 0q4 2 14 8q-4 2 -13 4t-14 3q-9 2 -15 3q-3 1 -13 -10zM512 1090q12 -2 17 -4l10 -2q2 1 7 4
q4 3 7 4q-26 21 -58 2q6 -1 17 -4zM483 1024v3q6 17 7 20q-11 -6 -35 -20q2 0 18 -2q6 -1 10 -1zM507 1036q4 12 5 16l2 8q-13 -7 -10 -6q-8 -4 -8 -5q-2 -4 -4 -12q-3 -9 -4 -13q15 -2 16 1zM523 1065q-2 -1 -4 -8q-2 -6 -5 -16q-3 -11 -4 -16q14 4 15 7q1 2 5 14q1 5 4 13
q3 10 4 14q-10 -5 -15 -8zM541 1066q-6 -19 -10 -33q32 18 27 51q-8 -5 -14 -8zM415 1144q-3 -2 -7 -5q-11 -9 -12 -10q14 1 34 1q-8 7 -13 12zM454 1131q0 -1 -5 5q-8 7 -11 9q-1 1 -3 4q-3 2 -4 3q-2 2 -12 -6l17 -15q0 -1 8 0h10zM477 1132q-3 2 -9 8q-6 5 -9 8
q-6 5 -9 9q-2 1 -14 -2l20 -20q4 -4 7 -4t14 1zM496 1132q-10 27 -41 26q2 -3 10 -10q7 -6 11 -10l7 -6h13zM415 1111l2 2q9 8 13 12h-34q2 0 12 -9q5 -3 7 -5zM439 1110l5 5l5 5l5 5h-10q-8 0 -8 -1q-7 -6 -17 -15q11 -8 12 -6zM477 1124h-14q-3 0 -7 -4q-7 -7 -20 -19
q12 -4 14 -2q0 -1 9 9q-1 -2 18 16zM476 1118l-21 -21q32 0 41 27h-7h-6zM548 975q-11 -13 -12 -14q29 7 39 9l-18 11l-2 1q-3 -2 -7 -7zM581 972q1 0 10 2q10 2 11 2l-7 5q-9 6 -14 8q-2 2 -5 4t-5 3t-12 -10q7 -5 22 -14zM604 982q6 -4 9 -3q4 1 15 4q-25 15 -24 14l-12 8
t-16 -6q7 -4 28 -17zM626 990l9 -6q3 1 8 2t7 2q-17 28 -53 20q18 -11 29 -18zM577 964q-23 -4 -40 -7q2 -1 17 -8q5 -3 9 -4l1 2q3 4 13 17zM590 949q1 2 4 7q4 4 5 6l5 7q-2 0 -6 -1t-6 -1l-9 -2q-3 -4 -8 -11t-8 -11q14 -6 16 -4q3 5 7 10zM614 951q7 9 16 23
q-7 -1 -16 -3q-3 0 -7 -6q-6 -10 -18 -28q15 -1 17 2q3 5 8 12zM611 938q37 7 42 40q-9 -2 -16 -3l-6 -9q-9 -12 -20 -28zM312 788q-6 -15 -7 -17q4 3 35 21q-15 3 -21 4l-2 1q-2 -3 -5 -9zM363 806q1 0 -8 2q-2 1 -8 2q-5 1 -8 2q-2 1 -6 2q-3 0 -5 1q-3 1 -9 -14
q7 -1 26 -5l8 4q7 4 10 6zM386 821q-20 4 -27 6q-8 2 -15 3q-3 1 -13 -10l32 -8q7 -2 9 0zM382 826l10 -2q2 1 7 4q4 3 7 4q-26 21 -58 2q36 -8 34 -8zM326 765q6 -1 10 -1v3q6 16 7 20q-13 -7 -35 -20q1 0 18 -2zM360 776q3 11 5 16l2 8l-10 -6q-8 -4 -8 -5q-2 -4 -4 -12
q-3 -9 -4 -13q15 -2 16 1zM383 786q1 4 4 13q2 9 4 14q-10 -6 -15 -8q-2 -1 -4 -8q-3 -10 -9 -32q14 4 15 7t5 14zM397 816q-1 0 -3 -10q-2 -6 -5 -17q-4 -11 -5 -16q32 18 27 51q-18 -10 -14 -8zM463 182l1 5q3 11 9 43q-28 -21 -68 -49q4 1 38 0q13 0 20 1zM510 256
q-7 -5 -10 -8q-15 -10 -16 -12q-6 -31 -10 -54q32 0 33 6q2 15 4 24q4 22 6 34l3 17q-3 -3 -10 -7zM531 258q-4 -21 -12 -68q29 10 31 17q2 11 5 30q4 23 11 57q-18 -12 -28 -19q-5 -3 -7 -17zM573 281q-2 -13 -6 -35q-5 -26 -6 -35q62 44 43 111q-4 -4 -13 -10t-14 -9z
M417 245q-3 -7 -7 -20q-9 -33 -11 -36q26 20 67 51q-32 3 -44 4zM436 284q-6 1 -15 -29q40 -5 54 -6q2 -1 16 11q4 2 10 8q7 5 10 7l-17 2q-4 1 -35 4q-8 1 -23 3zM509 287q14 -2 19 1q9 7 26 21q-10 2 -28 4q-20 2 -29 3q-28 3 -31 4q-7 0 -25 -24q47 -7 68 -9zM579 328
q9 7 13 10q-58 38 -119 -9q14 -1 35 -4q28 -3 36 -4l22 -3q5 4 13 10zM1176 327q6 -1 17 -1q29 0 32 -1q-10 7 -29 21t-28 21q3 -16 7 -36q1 -5 1 -4zM1129 396l2 -15q6 -34 5 -29q1 -5 3 -20q1 -4 28 -5l-8 46q0 1 -13 10q-6 4 -17 13zM1091 423q9 -54 8 -48q3 -18 4 -26
q1 -6 26 -15q-5 29 -9 58q-2 11 -6 14q-9 7 -23 17zM1081 430q-6 5 -22 16q-17 -55 35 -94q-3 19 -10 59q-2 19 -3 19zM1211 378q-6 0 -18 -1q-13 -1 -19 -2q10 -7 28 -21q18 -15 28 -22q-2 2 -9 30q-3 11 -6 17zM1180 410l-29 -3q-15 -2 -14 -1q2 -2 8 -7q5 -4 8 -6
q12 -10 14 -10l45 4q-7 26 -12 25q-14 -1 -20 -2zM1196 422q-15 21 -21 21q-5 -1 -13 -2q-10 -1 -13 -1q-16 -1 -48 -5q16 -13 22 -18q4 -3 15 -2q20 3 58 7zM1169 451q-50 40 -99 9q5 -4 21 -17l19 2zM1380 515q7 2 16 7q25 15 28 16q-10 1 -35 4q-22 2 -35 4
q21 -25 24 -28zM1306 551q0 1 9 -11q9 -11 18 -23q9 -10 13 -15q3 -4 26 9l-29 35q-1 1 -16 3q-14 2 -21 2zM1260 556q17 -21 30 -38q11 -13 17 -20q3 -4 29 0l-36 45q-7 10 -12 10q-7 1 -28 3zM1220 561q13 -57 77 -64q-31 38 -38 46l-12 15q-8 1 -27 3zM1389 580l-3 -3
l-31 -20q47 -8 70 -11q-3 1 -23 22q-8 8 -13 12zM1307 564l21 -3q16 -3 17 -2q7 5 19 13q15 11 18 14q-19 18 -23 15q-21 -15 -16 -11q-7 -5 -24 -17zM1351 607q-24 11 -28 8q-4 -2 -22 -15q-28 -20 -39 -28q19 -4 28 -5q5 -1 14 6q20 15 47 34zM1250 573q-1 0 15 11
q4 4 48 35q-63 10 -91 -41zM1198 744q-7 -4 -11 -6l1 -3q2 -5 4 -13l4 -12q4 7 21 45q-1 -1 -19 -11zM1182 679q1 2 3 7l3 6q5 10 4 11q-5 16 -10 31q-17 -9 -15 -12q0 -2 2 -7q2 -4 2 -7q8 -22 7 -19zM1175 678q-3 8 -14 39q-12 -14 -11 -18q2 -5 6 -17l11 -33l9 18
q2 3 -1 11zM1159 654q-1 3 -14 40q-19 -42 10 -70q5 10 9 17q0 1 -5 13zM1228 731q-5 20 -5 22q-9 -21 -20 -46q6 2 24 11l3 1q0 4 -2 12zM1201 700q-1 -1 -5 -11q-3 -6 -6 -14l10 4q5 3 19 8q7 3 13 6q3 1 -1 19q-37 -16 -30 -12zM1194 670q-8 -3 -9 -7q-3 -8 -7 -18
q28 12 31 13q13 5 17 7t6 20q-23 -9 -38 -15zM1186 642l-12 -5l-7 -18q41 -3 59 39zM1339 787q-2 -2 -20 -12q-7 -3 -10 -6l1 -3q1 -4 4 -12q2 -8 4 -13q17 37 21 46zM1303 710q4 9 7 14q4 10 4 11q-2 5 -5 15q-4 11 -5 16q-17 -10 -16 -13q1 -2 3 -7q1 -4 2 -7q2 -6 7 -19z
M1283 697q4 -11 6 -16l9 18q1 3 -2 11q-6 17 -14 38q-12 -13 -11 -17q1 -2 7 -18q1 -5 5 -16zM1267 725q-19 -41 10 -70q2 4 8 18l-4 12q-13 37 -14 40zM1351 750q0 5 -2 12q-5 20 -5 22q-3 -7 -9 -23q-7 -15 -10 -23l12 6v0v0v0q2 1 0 0v0h1q1 1 0 0v0q1 0 0 0q1 1 0 0t1 0
v0v1h1q-2 -1 0 0v0q2 1 0 0q1 0 0 0v0h1v0v0v1h1v0v0v0v0q-1 -1 0 0q1 0 0 0q1 0 0 0q-2 -1 1 0v0l3 2l3 1q3 1 2 1zM1312 707l9 4q4 1 10 4q6 2 9 4q16 6 13 5q4 1 -1 20q-25 -11 -30 -13l-5 -11q-3 -8 -5 -13zM1354 716q-25 -10 -38 -15q-8 -3 -9 -6q-2 -4 -8 -19
q13 5 32 13q12 6 17 8q4 1 6 19zM1288 650q41 -3 59 40q-24 -11 -39 -17l-12 -5zM870 893q5 -16 8 -25q3 8 10 23t11 22q-2 -1 -20 -11q-7 -3 -10 -6zM851 873q1 -4 2 -7l3 -9q3 -7 4 -10l3 -10q1 2 3 7q2 4 4 7q4 10 4 11q-4 12 -11 31q-16 -10 -15 -13q1 -2 3 -7zM856 837
q-6 16 -14 38q-12 -13 -11 -17q2 -5 6 -18q2 -5 6 -16t6 -16l9 18q1 3 -2 11zM845 800l-4 12q-15 41 -14 40q-20 -41 10 -70q2 4 8 18zM909 889q-5 20 -5 22q-10 -24 -19 -46q3 1 12 6q7 3 12 5l2 1q0 5 -2 12zM897 864q-11 -5 -15 -6q-1 -1 -5 -11q-1 -2 -3 -7q-2 -4 -2 -6
l9 4q10 4 19 8q6 2 13 5q4 1 -1 20q-5 -3 -15 -7zM876 828q-8 -3 -9 -6q-4 -9 -8 -19q12 5 32 13q13 6 17 8q4 1 6 19q-11 -4 -38 -15zM868 800l-12 -5l-8 -18q41 -3 59 40q-7 -3 -39 -17zM997 941q3 -9 8 -25q4 7 11 22t10 23q-2 -2 -20 -11q-6 -4 -10 -7zM990 885q1 2 4 6
q2 5 3 7q4 10 4 11q-7 22 -10 31q-17 -9 -16 -13q4 -10 5 -13q3 -9 7 -20zM983 884q-3 9 -14 39q-12 -14 -10 -18q1 -4 6 -17q2 -8 11 -33q6 11 9 18q1 3 -2 11zM968 860q-6 15 -14 40q-19 -42 10 -71q2 5 8 18zM1036 937q-5 19 -5 21q-11 -26 -19 -45q13 5 24 10q3 2 3 1
q-1 5 -3 13zM1010 905q-1 0 -6 -10q3 5 -5 -14l9 4q4 1 10 4t9 4q12 5 14 5q3 2 -1 20q-19 -8 -30 -13zM1003 875q-8 -3 -9 -6q-2 -3 -8 -19q17 7 32 14q11 5 17 7q4 2 6 20q-17 -7 -38 -16zM995 848q-12 -5 -12 -6l-8 -18q41 -2 59 40q-34 -14 -39 -16zM1027 696l2 -3
q11 -18 16 -25l12 56q-2 -2 -19 -18q-7 -6 -11 -10zM1040 646q2 12 2 13t-20 32q-16 -14 -14 -18l9 -14q2 -2 6 -10q4 -6 7 -10l6 -10zM1028 627q-11 17 -25 39q-10 -18 -8 -22q4 -7 11 -18q13 -20 21 -34q5 18 6 23q1 3 -5 12zM1023 571q2 7 2 11q0 1 -8 13q-12 19 -26 42
q-11 -52 29 -77q1 4 3 11zM1053 666q-5 -4 24 18l3 2q-2 5 -6 13q-10 21 -11 23zM1046 627l10 7q9 6 19 14q7 4 14 9q3 2 -6 22q-5 -3 -31 -22q0 -1 -3 -13q1 2 -3 -17zM1052 622q-8 -6 -8 -10q-2 -10 -4 -22q12 8 32 23q11 7 18 12q3 3 1 24q-21 -15 -39 -27zM1051 589
l-13 -9l-4 -22q47 7 56 59zM896 664l2 -3q3 -5 8 -14q6 -11 9 -15q10 47 13 63q-1 -3 -21 -20q-8 -6 -11 -11zM907 598q2 6 2 10q3 14 3 15q-12 19 -22 35q-18 -16 -16 -20q12 -18 10 -15q9 -15 14 -23l7 -11q1 3 2 9zM897 586q-9 14 -29 45q-11 -21 -9 -25q4 -7 13 -21
q6 -10 23 -37q5 17 6 25q2 4 -4 13zM893 537q0 -1 -9 14l-29 46q-12 -57 33 -85zM924 630q5 4 14 10q9 7 13 10q3 2 3 3q-1 5 -6 14q-12 24 -12 26q-7 -35 -12 -63zM917 587q-1 0 10 7q5 3 11 8q8 6 11 8l15 10q4 3 -7 25q-18 -14 -34 -25l-3 -15q-3 -16 -3 -18zM923 581
q-8 -6 -9 -11q-2 -9 -4 -25q6 4 18 13t18 13q14 10 19 13q4 4 2 27q-21 -15 -44 -30zM944 560q-15 -11 -23 -16l-14 -10q-1 -7 -4 -25q52 8 63 66q-7 -5 -22 -15zM835 1143q1 -3 3 -10t3 -10q10 21 17 36q-1 -1 -16 -9q-5 -3 -8 -5zM829 1098q0 -2 6 11l3 8q-1 5 -4 13
t-4 12q-14 -7 -13 -10q2 -4 4 -11q1 -2 3 -7t3 -8q3 -8 2 -8zM824 1097q-5 13 -11 31q-10 -11 -9 -14q2 -5 5 -14q4 -12 9 -26q4 7 7 14q1 3 -1 9zM811 1078q-1 4 -5 16q-4 10 -6 16q-16 -34 8 -57q-1 -3 7 14q0 1 -4 11zM867 1140q-4 16 -4 17q-3 -6 -8 -18q-6 -12 -8 -19
q-2 0 19 9l2 1q0 3 -1 10zM857 1120q-7 -4 -12 -6q-1 0 -4 -8l-3 -6q-1 -3 -2 -5l8 3q6 3 15 6l6 3q3 1 5 2q3 1 -1 16q-3 -1 -12 -5zM840 1090q-7 -2 -8 -5l-6 -15q25 10 26 11l14 6q3 1 4 16q-16 -7 -30 -13zM849 1074q-10 -4 -16 -6l-10 -4q1 2 -6 -15q33 -2 48 32
q-5 -2 -16 -7zM795 1420q1 -2 2 -6t2 -6l10 22q-1 -1 -9 -5q-4 -2 -5 -3v-2zM787 1407q3 -7 3 -9l2 -5q0 1 2 3q1 2 1 4q2 4 2 5l-5 15q-8 -5 -7 -6q2 -6 2 -7zM779 1394q1 -2 3 -7q2 -6 3 -8l4 8t0 6q-4 9 -7 18q-6 -6 -5 -8q0 -3 2 -9zM783 1375l-2 6q-4 11 -7 19
q-9 -20 5 -34zM802 1407l12 5h1q0 3 -1 6q-2 10 -2 11q-5 -12 -10 -22zM799 1398l-3 -7l5 2q4 2 9 4q1 1 3 1q2 1 3 2q2 0 0 9q-6 -2 -15 -6zM816 1396q-8 -4 -18 -7q-4 -2 -4 -4q-2 -4 -4 -9q4 2 15 7l9 3q1 1 2 10zM813 1383l-19 -8l-6 -2l-3 -9q20 -1 28 19zM890 1338
q-3 -1 -5 -1l-1 -2v-6v-6l17 16q-1 0 -11 -1zM872 1326v-10v-5q4 5 5 5l4 4v8q0 6 1 8q-10 -1 -10 -3v-7zM861 1317q-1 -4 -1 -17l7 7q1 1 1 5q1 2 1 20q-8 -4 -8 -6v-9zM857 1297v7q0 6 1 20q-16 -15 -8 -33zM900 1321q1 2 2 6q1 9 1 10l-17 -17h7q4 1 6 1h1zM875 1308h5h5
h5l7 1q2 0 3 9q-3 0 -8 -1h-8l-4 -4q-4 -3 -5 -5zM881 1297h9q1 0 6 8h-20q-4 0 -6 -1q0 -1 -6 -8q5 1 17 1zM861 1294l-7 -7q18 -9 34 7h-10h-11h-6zM930 1291q-4 0 -6 -1q0 1 0 -1q-1 -2 -1 -6v-7l9 9l8 8q-1 0 -10 -2zM911 1280v-10v-5l5 5q4 3 4 4q0 7 1 16q-9 -2 -9 -3
zM900 1271q0 -4 -1 -17q5 4 7 7q2 1 2 5v20q-8 -4 -8 -6v-9zM896 1251v6q0 4 1 11v10q-16 -15 -8 -33zM941 1280q1 10 1 11l-17 -17h13q2 1 2 0q0 2 1 6zM914 1262h5h10h3h4q2 0 3 9h-8h-8l-4 -4zM911 1250h9q-5 0 9 1q2 0 6 8q-7 0 -20 -1q-4 0 -5 -1q-3 -2 -7 -7h8z
M900 1247l-7 -7q18 -8 34 8q-3 0 -10 -1h-11h-6zM805 1343q1 -3 3 -8q1 -4 2 -7l12 27q-1 -1 -11 -7q-4 -2 -6 -4q-1 0 0 -1zM793 1335l2 -8l3 -6q1 -4 2 -5l2 -6l3 8l3 6q-2 6 -7 18q-9 -5 -8 -7zM785 1316q1 -3 2 -5l3 -9q2 -7 3 -10q4 7 5 11q1 2 0 6q-4 9 -9 23
q-7 -8 -6 -10q0 -2 2 -6zM789 1295l-9 23q-11 -24 7 -41q2 6 4 11zM814 1326q18 9 14 7h2q-1 3 -2 8q-3 11 -3 12q-9 -21 -11 -27zM810 1316q-2 -6 -3 -8l5 2l6 3q3 1 5 2l8 3q2 1 -1 12q-6 -3 -17 -8q-1 0 -3 -6zM809 1294q6 2 9 4q4 2 10 4q2 1 3 12q-16 -7 -22 -9
q-5 -2 -5 -4l-5 -11q4 1 10 4zM816 1293q-7 -3 -11 -5l-8 -3l-4 -11q24 -1 34 24q-3 -1 -11 -5zM898 1197q11 -8 12 -9q0 4 -3 14q-2 9 -3 15q0 -2 -5 -13l-3 -6zM900 1178q1 -1 5 -3q3 -2 5 -3l5 -4q-1 2 -1 5q-1 2 -1 4q-1 6 -2 7q-3 1 -8 5q-5 3 -8 5q-4 -10 -3 -11
q3 -2 8 -5zM919 1149q-1 6 -3 12q0 2 -4 5l-21 13q0 -11 2 -13q2 -1 9 -5q11 -8 17 -12zM920 1145q0 -1 -7 4q-16 11 -21 13q6 -26 30 -29q-1 4 -2 12zM918 1209q-10 7 -11 8l8 -28q5 9 7 14l1 1zM923 1175q1 2 6 10l4 8q1 1 -7 9l-10 -17q0 -1 2 -7q0 -3 2 -8zM938 1173
q1 3 2 5q2 2 -4 11l-12 -20q-3 -5 -2 -7q0 -1 3 -11q9 16 10 18q1 1 3 4zM930 1153l-4 -7l3 -11q20 14 14 39zM1106 982q-6 -3 -9 -5l1 -2q1 -4 4 -11q2 -6 3 -10q3 7 9 19q6 13 8 19q-1 -2 -16 -10zM1082 958q2 -3 2 -5q3 -9 6 -16l3 -9q2 6 5 12q4 8 4 9q-1 3 -5 12
q-2 8 -4 13q-14 -7 -13 -10q1 -2 2 -6zM1087 928q-4 11 -12 32q-10 -11 -8 -15q1 -4 4 -14q2 -5 5 -14t5 -13q6 12 7 15q1 2 -1 9zM1074 908l-11 33q-16 -35 8 -58q7 15 7 14zM1131 971q-4 17 -4 19q-2 -6 -16 -38q3 1 9 4q7 3 10 4l3 1q-1 4 -2 10zM1121 951q-9 -4 -12 -6
q-1 0 -5 -8q0 -2 -2 -6t-2 -6l8 4q2 1 7 3t8 3l6 3q4 1 5 2q3 1 0 16q-5 -2 -13 -5zM1103 921q-6 -3 -7 -5q-1 -3 -7 -16q4 2 27 11q9 4 14 6q3 1 5 17q-23 -10 -32 -13zM1121 908q-1 0 0 0v0v0h-1v0v0l-1 -1v0h-1q2 1 0 0q2 1 0 0l-1 -1v0q1 1 0 0v0l-4 -1l-8 -4l-8 -3
l-11 -5q-3 -9 -6 -14q34 -3 49 32zM1252 899q-5 4 -8 6l-1 -2q-8 -9 -14 -15q29 1 38 1q-2 1 -15 10zM1203 888h12t8 1l17 19q-12 8 -14 6l-4 -4q-2 -2 -3 -4q-6 -7 -10 -12zM1187 898q-6 -7 -9 -10h16q2 0 7 5q8 10 20 24q-14 4 -16 2q-4 -5 -9 -11q-3 -3 -9 -10zM1172 888
l7 8q2 3 21 24q-35 0 -43 -32h15zM1248 867q2 2 7 6q11 10 12 11l-37 -2q10 -9 16 -14zM1215 881h-5h-6l6 -6q10 -8 13 -11q1 -2 4 -4l4 -4q2 -2 13 8q-4 3 -10 8q-7 6 -10 9q-1 1 -9 0zM1179 879q12 -11 21 -19t11 -10q3 -2 15 3q-15 14 -24 22q-5 5 -8 5q-2 0 -15 -1z
M1158 878q14 -32 48 -30l-25 23l-8 8q-12 -1 -15 -1zM1009 1233q2 -7 4 -15q2 4 7 13q3 9 6 14q-1 -1 -12 -7q-4 -2 -6 -4zM999 1217q1 -2 2 -6q1 -3 2 -5l2 -6q2 5 4 8l2 6l-6 18q-10 -5 -9 -7zM988 1207q1 -4 2 -5q1 -4 3 -10q3 -7 3 -9q4 7 6 10q1 2 -1 7q-3 6 -8 22
q-7 -8 -7 -10q1 -2 2 -5zM994 1178l-2 7q-4 10 -8 24q-12 -25 5 -41zM1017 1216q16 7 14 7h2q0 3 -1 7q-3 12 -3 13q-6 -13 -12 -27zM1013 1206l-3 -8l5 2q9 4 11 5q4 1 8 3q2 1 0 12q-11 -5 -18 -8zM1034 1204q-13 -6 -22 -9q-4 -2 -5 -4q-2 -5 -4 -11l18 8q9 4 10 4
q2 1 3 12zM996 1165q24 -2 35 23q-13 -5 -23 -10l-8 -3zM1144 1057q-2 4 -4 6l-2 -1l-14 -6q4 -1 14 -5q9 -3 14 -5q-1 1 -8 11zM1105 1063q13 -4 8 -3l7 -2q10 5 18 8q-7 9 -8 8q-4 -2 -8 -3q-10 -5 -11 -5zM1098 1066q2 -1 7 1q-1 0 22 10q-9 7 -11 6l-10 -5
q-11 -4 -19 -8q7 -3 11 -4zM1082 1072q1 0 8 3q17 8 22 10q-25 10 -40 -9q7 -3 10 -4zM1123 1052q1 -2 3 -7q3 -4 4 -6l1 -2q2 1 7 2q11 4 12 4q-11 4 -27 9zM1104 1058l2 -5q5 -8 6 -11q3 -6 4 -7q1 -2 11 1q-4 8 -9 17q0 1 -6 3q1 -1 -8 2zM1085 1064q2 -3 5 -9t5 -9
q5 -11 5 -9q1 -3 11 -3q-1 4 -5 11t-5 11q-3 4 -5 5q-3 1 -11 3zM1069 1069q1 -24 26 -32q-2 3 -5 11q-4 7 -6 11l-4 7zM1194 1020q0 -1 -11 -8q-3 -2 -5 -4v-2q2 -4 6 -14q6 15 10 28zM1177 973q2 5 3 8q3 7 2 7q-4 11 -7 18q-9 -7 -9 -8l4 -8q3 -7 5 -11zM1170 955
q3 8 5 11q0 2 -2 7q-1 2 -10 21q-6 -8 -5 -10q1 -3 4 -10q5 -12 8 -19zM1169 950l-4 8q-1 4 -5 11q-3 8 -5 11q-9 -25 10 -40q1 3 4 10zM1203 999q0 2 -1 7q-4 11 -4 12q-2 -4 -10 -27q5 2 14 7zM1182 972l6 2q4 3 10 6q5 2 8 4q2 1 -2 11l-8 -4q-5 -3 -9 -5l-2 -6z
M1180 964q0 -1 -4 -11l18 9q4 2 10 6q2 1 2 11q-14 -7 -21 -10q-4 -3 -5 -5zM1175 948l-4 -11q24 1 33 26q-24 -12 -22 -11zM818 1250l7 -19q2 5 8 17q5 11 7 17q-1 -1 -14 -8q-6 -3 -8 -5v-2zM802 1240q1 -2 2 -5q1 -4 2 -5q1 -3 2 -8q2 -5 3 -7l2 -7l5 10q4 7 4 8
q-2 4 -4 12q-3 8 -4 12q-13 -7 -12 -10zM794 1210q4 -11 9 -25q5 11 6 14q1 2 -1 8q0 1 -10 29q-10 -10 -9 -13t5 -13zM797 1189l-6 15q-3 10 -5 15q-15 -31 8 -53l3 6q2 5 3 7zM848 1237l2 1q0 3 -2 9q-3 15 -3 17q-3 -6 -8 -18q-5 -11 -7 -17q6 3 18 8zM824 1215
q-5 -12 -4 -10l7 3q2 1 7 3t7 3q8 3 10 4q3 1 0 15q-4 -2 -12 -5q-7 -3 -11 -5q-1 0 -4 -8zM822 1187q8 3 13 5q1 1 6 3q4 1 6 2q3 2 5 15q-16 -6 -29 -11q-6 -3 -7 -5q-1 -4 -6 -14q4 1 12 5zM817 1180l-9 -4q-4 -10 -6 -14q31 -2 45 30q-13 -5 -30 -12zM1041 1057l-2 -1
q-8 -1 -21 -4q6 -4 17 -10q12 -7 17 -11q-1 2 -7 17q-2 6 -4 9zM1024 1073q-4 0 -5 -1q5 1 -17 -4l-8 -2q-1 1 10 -6q8 -5 9 -4q3 0 13 3q8 1 13 2q-6 14 -9 14q-2 -1 -6 -2zM1026 1080q-10 11 -13 10q-5 -1 -14 -3q-4 -1 -14 -3q-9 -2 -13 -4q8 -5 13 -8q3 -2 9 0q7 2 32 8
zM959 1088q4 -3 6 -4q1 0 11 2q11 3 33 8q-31 19 -57 -2q2 -1 7 -4zM1015 1047q1 -3 6 -20l1 -3q4 0 10 1q16 2 18 2q-25 14 -35 20zM990 1060l3 -8q1 -3 2 -8q2 -5 3 -8l3 -11q1 -3 16 -1q-2 5 -8 25q0 1 -8 5t-11 6zM979 1032q1 -4 16 -7q-6 21 -9 32q-2 7 -5 8
q-4 2 -14 8q3 -10 8 -27q3 -11 4 -14zM964 1066l-3 10q-6 3 -14 8q-6 -33 27 -51q-6 18 -10 33zM1088 1142l-14 -12q21 0 35 -1q-1 1 -13 10q-4 3 -7 5zM1066 1145q-7 -7 -10 -9l-5 -5h5h5q8 -1 8 0l17 15q-11 8 -12 6q-3 -2 -8 -7zM1045 1148q-21 -20 -17 -16q11 -1 14 -1
q2 0 6 4q-1 -2 21 20q-12 3 -14 2q-3 -3 -10 -9zM1022 1132l7 6q17 16 21 20q-31 1 -41 -26h13zM1096 1116q11 9 13 9h-35q14 -13 14 -12l1 -2q3 2 7 5zM1056 1125h-5l5 -5q13 -13 10 -10l7 -7q2 -2 13 6q-3 3 -9 8q-5 5 -8 7q0 1 -8 1h-5zM1048 1120q-4 4 -6 4h-14
q16 -15 17 -16q9 -9 10 -9q2 -2 14 2q-14 13 -21 19zM1022 1124h-7h-6q9 -27 41 -27q-4 4 -11 10q-7 7 -10 11zM957 975l-7 7l-2 -1l-19 -11q27 -6 40 -9q-2 1 -12 14zM929 993q-4 -2 -5 -4q-3 -1 -7 -4q-5 -3 -8 -4l-7 -5q4 0 12 -2l9 -2q29 17 23 14q-10 11 -12 10t-5 -3z
M900 997q-10 -6 -24 -14l16 -4q3 -1 9 3q9 6 28 17q-13 8 -16 6q1 0 -13 -8zM862 986q5 -1 8 -2l9 6q8 5 29 18q-36 8 -54 -20q3 -1 8 -2zM951 949q15 7 17 8q-18 3 -40 7q6 -8 13 -17l1 -2q3 1 9 4zM930 954q-5 7 -8 11q-1 0 -9 2q-2 0 -6 1t-6 1l5 -7q6 -9 9 -13
q1 -2 3 -5q3 -3 4 -5t15 4q-2 4 -7 11zM891 971l-16 3l16 -23q7 -10 8 -12q2 -3 17 -2q-12 18 -19 28q-4 6 -6 6zM874 966l-6 9q-8 2 -16 3q5 -33 41 -40q-13 20 -19 28zM1192 788q-2 6 -4 9l-2 -1q-4 0 -11 -2q-7 -1 -10 -2q6 -3 17 -10q12 -7 17 -11q-1 2 -7 17zM1171 814
q-3 -1 -5 -2q-3 0 -8 -2q-6 -1 -9 -2l-8 -2q1 0 11 -6q7 -4 8 -4q17 4 26 5q-6 15 -9 14q-2 -1 -6 -1zM1132 812q3 -2 9 0q8 2 33 8q-10 11 -14 10q-6 -1 -14 -3t-27 -6q10 -7 13 -9zM1106 828q5 -3 7 -4l10 3q15 3 33 7q-31 19 -57 -2q3 -1 7 -4zM1179 765q16 2 18 2
q-22 13 -35 20q1 -4 3 -10q2 -7 3 -10l1 -3q4 0 10 1zM1145 776l3 -11q1 -3 16 -1q-5 17 -8 25q0 1 -8 5q-6 4 -10 6l2 -8q1 -5 5 -16zM1142 765q-6 21 -9 32q-2 7 -5 8q-3 2 -14 8q3 -9 8 -27q5 -15 4 -14q1 -3 16 -7zM1116 789q-3 11 -5 17l-3 10q3 -2 -14 8
q-5 -33 27 -51q-2 5 -5 16zM1041 182q8 -1 21 -1q34 1 38 0q-76 54 -68 49q5 -28 8 -43zM985 263l3 -17q0 -1 6 -34q5 -30 4 -24q1 -6 33 -6l-11 54q0 2 -15 12q3 -2 -20 15zM939 294q4 -20 10 -57q5 -26 6 -30q1 -7 30 -17q-7 44 -11 68q-2 14 -7 17q-9 7 -28 19zM914 312
q-9 6 -13 10q-20 -67 43 -111q-2 12 -6 35t-7 35l-4 22q-4 3 -13 9zM1083 244q-8 -1 -22 -2q-15 -1 -22 -2q-8 6 66 -51q-1 3 -11 36q-3 12 -6 20zM1084 255q-9 30 -15 29q-19 -2 -24 -3q-35 -4 -34 -4q-18 -2 -17 -2l19 -15q15 -12 17 -11q22 2 54 6zM1064 296
q-19 24 -25 24q-11 -1 -31 -4q-30 -3 -58 -7q19 -15 27 -21q4 -3 18 -1zM926 328q9 -7 13 -10l22 3q12 1 35 4q25 3 35 4q-60 47 -118 9q5 -3 13 -10z" />
    <glyph glyph-name="X" unicode="X" horiz-adv-x="1505" 
d="M972 519q-1 -16 -4 -30q-4 -21 -34 -32q4 1 -50 -14q-23 -6 -65 -18q-46 -12 -66 -18v172q-58 5 -113 30v-176q-52 51 -97 96q0 15 1 45v44q-48 -33 -106 -48q-1 0 -7 -2q0 -11 -1 -33v-34q0 -35 30 -49q25 -24 92 -91q58 -57 92 -90v-208q0 -25 18 -41q15 -13 38 -13
t39 13q18 16 18 41v228q178 45 243 73q68 29 81 120q-57 8 -109 35zM1144 1409q-110 0 -190 -75q-65 38 -141 38q-37 0 -74 -10q-76 62 -173 62q-35 0 -69 -9q-90 -23 -148 -96q-57 -72 -60 -163q-111 -28 -169 -127q-59 -98 -31 -209q24 -93 100 -151q74 -58 168 -58
q34 0 68 9q-3 -1 6 2q65 17 114 63q17 16 31 34q28 -31 64 -52q53 -31 113 -37q14 -1 27 -1q35 0 68 8q24 6 47 17q30 -44 74 -74q7 -5 14 -9q47 -28 101 -36q20 -3 40 -3q72 0 135 35q65 36 103 100q41 69 39 148q-2 77 -43 142q13 16 23 34q59 98 31 209q-29 111 -127 170
q-66 39 -141 39z" />
    <glyph glyph-name="Y" unicode="Y" horiz-adv-x="1079" 
d="M547 1303q9 28 33 43q-1 -1 2 1q27 9 51 -1q23 -9 34 -31q12 -22 7 -44q-5 -26 -30 -43q-21 -14 -49 -6q-26 7 -41 28q-17 23 -7 53zM805 1063q43 32 80 0q18 -15 17 -41q-1 -30 -23 -47q-17 -13 -35 -13q-33 0 -51 35q-17 32 1 61q5 1 11 5zM675 694q-12 0 -22 12
q-9 12 -9 25q0 11 11 21q12 9 25 10q32 -4 32 -37q0 -12 -11 -21q-12 -10 -26 -10zM217 630q14 0 26 -12t13 -27q2 -16 -11 -29q-12 -12 -27 -14h-1q-17 1 -29 13q-12 11 -13 28q-1 15 12 28q12 12 28 13h2zM517 928q25 -27 22 -66q-2 -33 -33 -54q-29 -19 -60 -14
q-11 2 -22 -2q-50 26 -49 81q1 36 28 59q25 21 59 21h5q30 -2 50 -25zM205 1158q9 1 16 6q42 -9 47 -54q6 -44 -37 -61q-8 -3 -16 -3q-34 0 -55 36q-11 18 0 41q16 31 45 35zM153 1217q-37 -20 -57 -55q-23 -39 -13 -84q18 -82 102 -102l4 -185q1 -17 13 -28q1 -2 3 -3
q85 -84 197 -124v-292q-48 18 -85 60t-45 87q58 35 58 101q0 47 -37 80q-36 31 -80 32h-1q-42 0 -75 -32q-35 -34 -36 -84q-1 -42 30 -74q28 -30 69 -38q12 -71 69 -130q57 -58 133 -78v-222q0 -16 11 -26q10 -11 26 -11t27 11q10 10 10 26v276q142 58 194 133q25 35 35 58
q103 32 153 127q42 82 22 255q21 5 39 16q46 28 55 85q9 54 -18 99q-35 58 -109 58q-20 0 -39 -5q-15 5 -30 -4q-49 -30 -64 -83t12 -103q25 -49 78 -63v-1q16 -136 -6 -203q-19 -57 -78 -90q-1 10 -1 26q61 28 67 96q4 43 -27 76q-29 30 -70 36q-3 1 -7 1t-8 -1
q-42 -2 -71 -31t-33 -72q-3 -36 20 -66q21 -28 55 -40q1 -49 -3 -65q-5 -17 -31 -61q-33 -55 -135 -98v318q50 6 87 38q37 33 48 81q14 63 -22 117l38 40q8 8 10 19q4 8 4 17v120q12 2 22 6q51 20 73 74q22 53 3 105q-19 51 -72 74t-105 5q-4 -1 -8 -4q-6 -1 -10 -4
q-45 -27 -63 -77q-18 -51 2 -99q24 -57 86 -76v-3v-114l-32 -34q-26 16 -55 20q-12 2 -24 2q-57 0 -101 -38q-43 -37 -54 -95q-9 -53 19 -103q28 -49 80 -70v-4q-77 32 -138 91l-4 171q46 15 69 64q22 46 14 94q-10 54 -64 83q-48 26 -100 17q-20 -4 -26 -20z" />
    <glyph glyph-name="Z" unicode="Z" horiz-adv-x="1301" 
d="M149 34q4 1 14 4t16 5q39 10 72 16q4 0 10 1q7 2 11 2q6 1 21 3q16 3 45 6q-2 0 48 5q7 1 25 2q16 2 25 2q61 4 105 6q51 1 109 2q61 -1 109 -2q39 -1 105 -6q10 0 26 -1q18 -2 24 -3q50 -5 48 -5q28 -3 45 -5q12 -2 22 -4q7 -1 20 -3q34 -6 73 -16l15 -5q11 -3 14 -4
q2 -1 25 -10q29 -14 33 -17l12 -7q-3 4 -9 10q-9 10 -11 12q-13 12 -17 15q-24 17 -23 16q-19 11 -29 16q-36 19 -71 31l-21 7q1 0 -22 7q-12 4 -46 12q-10 3 -24 6l-25 5q-21 4 -51 9q-38 5 -54 7q-11 1 -27 3q-6 0 -14 1q-11 1 -14 1q-28 2 -64 3q-3 54 -35 122
q-6 13 -20 41t-20 42q-16 33 -14 39q2 7 5 22q10 48 13 56q12 32 41 48q-44 -14 -66 -54q20 101 -11 171q-66 152 -68 161q-18 84 37 154q13 15 30 32q12 11 21 9q19 -4 28 -2q45 8 68 44q-52 -27 -89 -27q174 87 222 224q12 35 14 70q0 1 -2 33q-1 32 -9 18q1 -25 1 -27
q0 -19 -6 -46q-42 38 -48 52q2 -13 20 -46q16 -29 14 -47q-5 -33 -53 -86q-28 -31 -87 -71q-81 -57 -94 -67q-158 -125 -76 -313q-13 5 -46 11q-31 5 -45 12q42 -29 71 -46q39 -22 35 -19q9 -7 18 -33q15 -42 12 -75q-1 -19 -21 -76q-16 -47 -11 -76q7 -48 52 -125
q51 -89 62 -124q-66 -1 -104 -4q-8 -1 -28 -2q-11 -1 -27 -3q-17 -2 -54 -7q-32 -5 -52 -9q-52 -11 -49 -11q-34 -8 -46 -12q-14 -4 -21 -7q-11 -3 -21 -7q-36 -13 -72 -31q-10 -5 -28 -16q-2 -1 -23 -16q-20 -17 -28 -27q-6 -6 -9 -10q4 2 11 7q5 3 33 17q30 11 25 10z
M800 641q17 17 17 32q6 8 -101 -39q-36 -16 -58 -55q-4 -8 -10 -26q-7 -24 -1 -24q1 0 5 14q3 9 11 16q13 14 35 20q64 17 73 28q7 8 5 16q0 1 8 6q9 6 16 12zM328 830q-1 -8 5 -16q9 -11 73 -28q22 -6 35 -19q8 -8 11 -17q5 -14 6 -13q6 0 -2 23q-6 19 -10 26
q-22 40 -57 55q-107 47 -101 40q0 -16 17 -32q6 -7 15 -13q8 -5 8 -6zM849 1207q3 5 8 10q9 7 23 8q41 5 48 11q4 5 4 10l5 3q6 2 11 6q12 8 13 18q4 4 -65 -15q-23 -7 -40 -29q-3 -4 -9 -15q-6 -14 -2 -15zM715 1021q-5 -1 -16 -4q-15 -4 -13 -7l9 2q6 1 12 0q12 -3 22 -12
q30 -28 39 -29q7 0 10 3q1 0 6 -2q6 -3 12 -4q14 -3 22 2q6 -1 -54 39q-20 13 -49 12zM763 1384q-1 -5 2 -11q5 -7 43 -22q13 -5 20 -15q4 -5 6 -11q2 -8 2 -9q4 0 1 15q-2 12 -4 17q-11 26 -32 38q-62 36 -59 31q-1 -9 8 -20q4 -5 9 -9zM722 1181q8 -11 8 -23q1 -7 -1 -12
l-3 -9q3 -2 9 12q5 11 5 16q6 27 -5 49q-31 65 -31 59q-6 -7 -5 -22q1 -5 2 -12q2 -5 2 -6q-4 -3 -4 -9q-1 -9 23 -43zM330 500q10 -5 10 -6q0 -11 9 -19q13 -13 95 -22q28 -4 47 -18q11 -9 16 -19q8 -16 9 -16q8 2 -5 29q-11 22 -17 30q-35 45 -81 58q-140 39 -131 31
q2 -19 26 -36q9 -7 22 -12z" />
    <glyph glyph-name="bracketleft" unicode="[" horiz-adv-x="758" 
 />
    <glyph glyph-name="backslash" unicode="\" horiz-adv-x="569" 
 />
    <glyph glyph-name="bracketright" unicode="]" horiz-adv-x="758" 
 />
    <glyph glyph-name="asciicircum" unicode="^" 
 />
    <glyph glyph-name="underscore" unicode="_" horiz-adv-x="1024" 
d="M0 -100h1024v-60h-1024v60z" />
    <glyph glyph-name="grave" unicode="`" horiz-adv-x="1024" 
d="M673 1079h-69l-330 202q-31 20 -46.5 40t-15.5 42q0 31 20.5 51t53.5 20q20 0 40.5 -12t55.5 -47z" />
    <glyph glyph-name="a" unicode="a" horiz-adv-x="1089" 
d="M1006 3q4 0 4 3q0 44 -147 72q-135 25 -318 25h-1q-5 45 -2 78q2 23 16 65q14 41 17 63q3 32 -6 66q-2 8 -5 17l1 1q5 4 7 5q12 9 19 8q9 0 13 -10q2 -8 -3 -13q-9 -8 -16 -1q-2 2 -2 6q0 1 -1 2q-2 0 -2 -2q-2 -5 2 -9q4 -6 13 -6q19 0 20 15q1 11 -6 20q-9 10 -22 10
q-4 0 -15 -5q-11 -6 -14 -5q-4 9 -12 24q-16 35 -20 54q-4 20 3 41q9 23 27 33q3 1 8 1q17 0 21 -10q2 -4 -3 -9q-5 -6 -11 -6q-4 0 -5 2q-3 3 -1 9q0 2 -1 2q-1 1 -2 0q-5 -6 -3 -12q5 -9 17 -9q8 0 12 4q10 12 5 23q-7 16 -30 19q36 43 58 79q33 53 37 85l1 6q5 42 26 41
q11 0 13 -10q2 -6 -3 -9q-3 -2 -6 -2q-7 0 -7 6v2q1 2 -1 2q-2 1 -3 -1v-3q0 -6 3 -9q9 -9 20 -1q10 7 6 18q-5 16 -20 17q-7 0 -19 -2q-2 0 -4 -1q-2 0 -6 18q-2 7 -2 9q-10 29 -36 64q-23 32 -42 53l-6 6q-23 23 -19 36q4 11 11 11q4 0 5 -6q2 -6 -1 -9l-1 -1q-2 0 -5 2
q-1 2 -2 1t-1 -3q3 -5 8 -5t9 5t3 10q-1 13 -12 13q-14 0 -23 -14q-40 57 -66 123q-7 18 0 28q4 5 12 2q8 -2 7 -7q-1 -8 -8 -8q-3 0 -4 4q-1 2 -2 2q-2 -1 -2 -2q1 -9 9 -9q12 0 14 10q1 8 -2 13q-4 5 -13 5q-10 0 -19 -5q-19 84 -4 150q5 21 17 21q4 0 9 -4q1 -2 1 -3
q-2 -5 -8 -5h-1q-1 1 -1 4q0 1 -2 1q-1 1 -2 -1q-1 -5 2 -7q6 -8 14 1q4 4 3 10q-2 10 -10 10q-2 0 -8 -2q-6 -1 -9 -1q13 56 43 108q0 2 -1 3q-2 1 -3 -1q-12 -17 -25 -42q-3 4 -8 4q-6 0 -9 -5q-2 -3 0 -7q3 -5 7 -3q2 0 3 2v0v0l1 1v0v0q0 2 -1 2q-2 1 -3 -1q-1 5 0 7
q3 0 5 -6q1 -6 -5 -17q-1 -1 -1 -3q-25 -47 -31 -127q-2 0 -4 1q-4 1 -11 1q-15 0 -20 -8q-4 -6 -1 -15q2 -7 11 -7q8 0 11 5q2 4 0 8q-1 1 -2 0q-2 0 -2 -2q1 -3 0 -4t-3 -1q-9 0 -10 7q0 2 2 4q5 6 12 5q11 -1 15 -16q2 -6 2 -21v-11q2 -23 6 -45q9 -43 27 -84
q-18 -2 -25 -12q-4 -6 -2 -13q3 -14 14 -14q9 0 13 7q2 4 0 8q-1 2 -5 5q-1 1 -2 -1t0 -3q3 -1 4 -2v-1q-2 -2 -9 -2q-3 0 -5 1q-6 2 -6 5q2 11 19 11h1q9 0 17 -17l1 -2q10 -19 26 -43q15 -22 48 -66q7 -9 11 -15q-26 1 -34 -29q-4 -15 8 -22q4 -2 8 -2q18 0 21 12
q1 8 -10 13q-2 1 -3 -1q-1 -1 1 -2q4 -2 3 -7q-1 -9 -9 -7q-6 2 -8 8q-2 7 3 13q8 9 17 9q16 0 32 -27q47 -75 -10 -164q-3 13 -15 23t-26 10t-22 -10t-4 -19q6 -11 20 -11q6 0 9 3t3 7q0 2 -2 2q-1 0 -2 -2q-2 -6 -10 -6q-6 0 -8 5q-3 7 0 12q4 6 12 7q12 2 21 -9
q12 -16 7 -37q-3 -8 -21 -27q-7 -8 -9 -10q-10 -12 -31 -36l-6 -7q-35 -40 -37 -76q-13 6 -28 6q-19 0 -33 -10q-16 -11 -13 -31q2 -18 19 -24q17 -4 25 12q4 8 -2 16q-1 2 -2 1q-2 -1 -1 -3q3 -5 0 -9q-3 -7 -13 -7q-4 0 -7 2q-10 7 -8 18q4 15 20 16q35 3 47 -28
q13 -34 20 -78l1 -9q8 -51 7 -75q-1 -10 -8 -28l-1 -3q-10 -27 -13 -54q-5 -44 11 -108q0 -1 1 -2v-2q-169 -4 -287 -29q-129 -27 -129 -67q0 -4 4 -4h922z" />
    <glyph glyph-name="b" unicode="b" horiz-adv-x="1073" 
d="M469 455l-65 20q-19 6 -16 5q-5 2 -6 12l-2 16q-2 8 -3 17q44 -9 91 -16q1 -28 1 -54zM686 500q-1 -13 -3 -28q-2 -16 -3 -29q-5 -51 -15 -63q-13 -16 -64 -34l-10 -3q1 85 0 156q48 -1 95 1zM150 1342q-64 -62 -69 -180q-2 -39 3 -99q7 -80 7 -99q1 -19 1 -83
q0 -52 3 -82q7 -95 47 -151q38 -52 111 -85q-1 -6 0 -13q7 -84 9 -93q12 -49 52 -75q41 -25 154 -57q-2 -169 -6 -258q-1 -28 17 -44q16 -15 41 -15t43 15q20 16 21 44q1 20 2 71q2 64 2 71q18 9 49 21q39 16 50 20q57 26 83 65q27 43 40 196v5q64 17 102 53q57 55 67 160
q4 34 2 88q-2 76 -2 89q1 16 2 47q4 79 0 114q-9 95 -62 144q-48 44 -164 58q-148 19 -299 16q-111 -2 -153 -46q-39 -41 -40 -152l-3 -196q-1 -85 20 -122q35 -61 167 -93q118 -28 179 -24q108 6 158 78q37 52 38 178q0 79 -20 114q-37 65 -180 85q-120 16 -169 -23
q-32 -26 -43 -70q-11 -45 8 -91q18 -47 57 -72q44 -28 117 -20q80 10 59 72q-10 30 -51 40q-33 9 -71 3q0 18 1 53q126 35 162 -30q7 -13 16 -98q7 -68 -28 -93q-18 -13 -58 -14q-129 -1 -245 53q-11 174 4 347q188 25 375 -8q72 -12 97 -44q23 -29 22 -102l-3 -212
q-2 -110 -42 -150q-38 -36 -131 -39q-145 -4 -289 20q-130 22 -174 85q-31 43 -37 138q-11 160 -1 320q5 85 68 110q19 8 140 21q61 6 196 6q129 0 195 9q26 3 46 26q22 24 15 50q-7 28 -45 34q-18 4 -64 1q-58 -2 -179 -8q-119 -6 -180 -9q-175 -8 -240 -70z" />
    <glyph glyph-name="c" unicode="c" horiz-adv-x="1399" 
d="M702 775h24q73 -3 73 -69q0 -57 -45 -88q-27 -19 -56 -19q-19 0 -37 8q-10 4 -20 10q-35 23 -53 63l-1 1v2v2v3q-5 35 13 57q26 30 102 30zM610 542q7 -3 5 -2q21 -11 43 -16q-4 1 5 -1l2 -1h2q19 -4 35 -4q8 0 17 1q-4 0 5 1q2 0 4 1q23 3 43 12q7 3 5 2q1 0 2 1
q2 1 3 1q20 11 36 25q39 33 56 84q16 52 4 101q-20 85 -105 105q-27 6 -55 8h-9v9q-2 33 -32 33q-3 0 -6 -1q-114 -14 -160 -98q-40 -72 1 -158q31 -65 94 -100q-1 0 5 -3zM585 1294q-18 9 -27 29v3q-6 35 57 33q28 -1 28 -26q0 -23 -18 -36q-19 -13 -40 -3zM590 1424
q-48 -6 -71 -40q-24 -36 -3 -80q20 -41 62 -54q45 -14 80 16t30 77q-6 48 -52 59q-12 3 -25 3q-1 21 -21 19zM1211 1118q0 -16 -13 -25q-14 -9 -28 -2q-13 6 -19 20q-1 3 -1 2q-3 25 41 24q20 -1 20 -19zM1242 1125q-4 34 -36 42q-9 2 -18 2q-1 15 -15 13q-34 -4 -50 -28
q-17 -25 -2 -56q14 -29 44 -39q32 -9 56 12q25 21 21 54zM337 1307q-4 25 40 23q20 0 20 -18q0 -17 -13 -25q-13 -10 -28 -3q-13 6 -19 21v2zM428 1319q-4 34 -36 41q-9 2 -18 3q-1 14 -15 13q-34 -4 -50 -28q-16 -25 -2 -57q14 -29 44 -38q32 -10 56 11q25 22 21 55z
M483 471q-19 -13 -40 -4q-18 9 -27 29v3q-6 35 57 33q28 -1 28 -26q0 -23 -18 -35zM1028 628q0 -23 -18 -35q-16 -11 -33 -6q-5 4 -12 6q-15 9 -22 26v2q-6 36 57 33q28 0 28 -26zM377 557q-24 -36 -3 -80q24 -50 76 -57v-90q0 -8 4 -15q4 -9 14 -14q80 -37 164 -69v-185
q0 -30 31 -30t31 30v184l57 41q13 1 21 10q9 9 9 21q0 2 -1 5q1 3 1 4v59h172q11 0 19 7q16 8 16 27v28q110 28 215 52q11 3 17 10q12 9 12 25v169l-4 -3q-6 -3 -5 -3q-21 -10 -43 -14q-4 -1 -5 -1l-5 -1v-126q-94 -21 -182 -44v44q31 0 55 20q35 30 30 77q-6 48 -52 59
q-12 3 -25 4q-1 21 -21 18q-48 -6 -71 -40q-24 -35 -3 -79q9 -19 25 -34v-2v-131h-145v93q0 1 -5 -2q-1 0 -5 -2q-21 -8 -43 -11q-1 0 -4 -1q-7 -1 -5 -1v-73h-52v76q-1 0 -4 1q-8 2 -5 1q-22 5 -43 15q-1 1 -5 2l-5 3v-125q0 -11 7 -19q8 -17 27 -17h80v-41l-54 -41
q-3 -1 -5 -1q-3 -1 -5 -1q-72 28 -143 60v87q5 4 4 3q35 30 30 77q-6 48 -52 59q-12 3 -25 4q-1 20 -21 18q-48 -6 -71 -40zM250 1066q0 -23 -19 -35q-19 -13 -39 -4q-19 9 -28 29v3q-5 36 57 33q29 -1 29 -26zM185 983q45 -14 80 16t29 77q-5 48 -51 59q-13 3 -26 4
q-1 20 -21 18q-48 -6 -71 -40q-24 -36 -3 -80q20 -41 63 -54zM811 904q-18 9 -28 29v3q-5 35 57 33q29 -1 29 -26q0 -23 -18 -36q-19 -13 -40 -3zM837 1015q-1 21 -22 19q-48 -6 -70 -40q-24 -36 -3 -80q19 -41 62 -54q45 -14 80 16t29 77q-5 48 -51 59q-12 3 -25 3z
M1138 756q-73 0 -110 80v1v2l-1 2v3q-5 35 13 57q26 30 103 30h23q74 -3 74 -69q0 -57 -45 -88q-27 -18 -57 -18zM1212 1008q-27 6 -55 8h-9v9q-2 33 -32 33q-2 0 -6 -1q-114 -14 -160 -97q-39 -73 2 -159q27 -57 79 -92q53 -34 112 -34q13 0 27 2q3 0 5 1q-2 -1 5 1
q22 5 43 15q3 2 5 3l4 3q14 8 25 18q39 34 56 85t5 100q-21 85 -106 105zM903 1120q-74 0 -110 81v1l-1 2v2v3q-5 35 13 57q26 30 103 30q11 0 23 -1q74 -2 74 -68q0 -57 -45 -88q-27 -19 -57 -19zM977 1373q-27 6 -55 8h-9v9q-2 33 -32 33q-2 0 -6 -1q-114 -14 -160 -98
q-39 -72 2 -158q27 -57 79 -92q53 -35 112 -35q64 0 114 44q39 33 56 84q16 51 4 101q-20 85 -105 105zM525 1141q10 0 24 -1q73 -2 73 -69q0 -57 -45 -88q-27 -18 -57 -18q-73 0 -109 80l-1 2v2v2v2q-6 36 13 57q26 31 102 31zM640 927q39 34 55 85q17 51 5 101
q-21 84 -106 105q-26 6 -54 7l-9 1l-1 8q-2 33 -31 33h-6q-114 -14 -160 -98q-40 -72 1 -158q27 -57 80 -92q52 -35 111 -35q64 0 115 43zM292 835h24q73 -3 73 -69q0 -57 -45 -88q-27 -18 -57 -18q-73 0 -109 80l-1 2v1v3v2q-6 35 13 57q26 30 102 30zM181 614
q52 -35 111 -35q64 0 115 43q39 34 55 85q17 51 5 100q-21 85 -106 105q-26 7 -55 8h-8l-1 9q-2 33 -31 33h-6q-114 -14 -160 -98q-40 -72 1 -159q27 -56 80 -91z" />
    <glyph glyph-name="d" unicode="d" horiz-adv-x="1289" 
d="M639 27q12 -11 30 -11q17 0 30 11q14 12 14 32v203q20 31 77 80q25 23 35 33q55 52 71 140q10 53 8 159v45v254q0 20 -14 32q-13 11 -30 11q-18 0 -30 -11q-14 -12 -14 -32v-164l-33 22q-44 31 -57 76q-8 28 -8 97v191q0 20 -13 32q-13 11 -31 11q-17 0 -30 -11
q-14 -12 -14 -32v-265q0 -1 1 -3q-6 -67 50 -126q32 -34 115 -87q11 -7 20 -13v-140l-3 -32v-9q-7 -48 -85 -115l-5 -5q1 1 -5 -4q1 35 -4 66q-5 33 -42 77q-9 11 -13 16l-183 235v228q0 20 -14 32q-12 11 -30 11t-30 -11q-14 -12 -14 -32q0 -22 -3 -70q-12 -168 37 -230
l157 -202q2 -4 13 -15q32 -34 33 -41v-88q-11 8 -34 22q-36 23 -40 27q-32 31 -41 66q-5 23 -5 80v4q0 20 -14 32q-13 11 -30 11q-18 0 -31 -11q-13 -12 -13 -32v-7q-1 -121 49 -181q53 -63 160 -114q9 -18 0 -174q-1 -30 -1 -36q0 -20 14 -32zM635 1418q-161 0 -298 -87
q-141 -89 -207 -245q-67 -156 -45 -343q24 -199 128 -355q125 -188 326 -237q7 -2 13 -2q22 0 37 16q14 14 16 33q6 46 -39 57q-174 42 -277 213q-86 142 -101 324q-15 190 81 330q86 124 243 173q57 18 117 18q122 0 233 -68q110 -68 168 -179q79 -152 44 -354
q-35 -203 -164 -337q-62 -65 -145 -99q-42 -18 -33 -65q8 -41 46 -41q10 0 20 4q155 64 256 210q102 146 127 342q24 192 -42 350q-65 158 -209 254q-133 88 -295 88z" />
    <glyph glyph-name="e" unicode="e" horiz-adv-x="1583" 
d="M1174 396q31 -30 54 -41q23 -10 35 11q13 22 -9 33q-20 9 -45 32q-31 28 -41 35q8 9 15 21q11 21 -10 34q-22 13 -34 -9q-11 -20 -35 -29h-1q-23 -9 -68 -8q-55 0 -66 -1h-1q22 13 81 41q127 60 152 148q7 23 -18 30q-24 7 -31 -17q-13 -46 -60 -80q2 62 20 82
q17 18 -1 36t-34 0q-28 -30 -34 -66q-1 -7 0 -41q1 -25 -7 -38l-2 -6q-9 -4 -34 -16q-21 -10 -33 -16q-27 -14 -50 -31q55 170 120 215q30 22 120 54q78 27 114 63q17 18 -1 36t-35 0q-29 -29 -81 -51q13 25 21 69q4 24 -21 31q-24 7 -28 -17q-11 -65 -42 -85
q-116 -75 -157 -150q-17 -30 -33 -75q-25 -69 -25 -74q-1 8 -3 23q-1 15 -2 22v2q-5 53 14 87q129 238 128 216q1 24 -25 24q-25 0 -25 -24q-1 -51 -79 -136q-2 9 -5 16q-3 6 -15 26q-9 15 -12 26q-5 17 -2 66q2 24 -24 24q-25 0 -27 -24q-4 -64 14 -104q2 -7 12 -21
q8 -13 10 -22q6 -17 -6 -50q-23 17 -55 25q-92 24 -105 30q-55 23 -78 73q-10 22 -32 9t-12 -35q8 -18 21 -34l-12 1q-44 2 -56 37q-34 104 -42 112q-17 17 -35 -1t-1 -35q15 -15 25 -72q7 -40 32 -67q19 -20 59 -24q18 -1 96 -6q11 -5 23 -10q33 -13 83 -22q69 -13 76 -41
q-29 2 -90 -22q-31 -12 -65 -14q-4 3 -8 4q-16 4 -42 33q-21 23 -50 43q-23 16 -61 28q-51 17 -60 29q-15 19 -37 6q-22 -12 -7 -32q19 -25 56 -40q5 -2 32 -11q21 -7 33 -13q19 -9 40 -30q-14 6 -26 13q-21 12 -34 -10t8 -34q69 -38 149 -37q35 0 76 13q4 1 19 8
q17 8 26 11q34 12 46 0q1 -10 2 -21q9 -64 -1 -125q-33 36 -118 57q-167 43 -199 68q-19 15 -37 -3t2 -33q29 -23 67 -39q-40 -18 -73 -12q-23 5 -30 -20q-7 -24 17 -29q42 -8 81 3q17 4 41 19q19 11 52 9q4 0 8 1q90 -19 96 -21q58 -20 69 -58q2 -6 5 -10l-12 -330h120
l-13 347v5q3 4 5 7q15 31 45 45q29 -8 75 -57q31 -33 79 -45q24 -6 30 19q7 24 -17 30q-35 8 -83 63l-5 5q72 3 91 7h3q24 -1 60 -38zM330 599q-12 -15 -12 -36q0 -22 12 -37q14 -16 39 -16q24 0 38 16q13 15 13 37q0 21 -13 36q-14 17 -38 17q-25 0 -39 -17zM365 748
q12 15 12 36q0 22 -12 37q-15 16 -39 16t-38 -16q-13 -15 -13 -37q0 -21 13 -36q14 -16 38 -16t39 16zM225 694q-13 -15 -13 -36q0 -22 13 -36q14 -17 38 -17t38 17q13 14 13 36q0 21 -13 36q-14 17 -38 17t-38 -17zM531 932q-13 -15 -13 -37q0 -21 13 -36q14 -16 38 -16
t38 16q13 15 13 36q0 22 -13 37q-14 16 -38 16t-38 -16zM391 901q13 15 13 37q0 21 -13 36q-14 16 -38 16t-39 -16q-12 -15 -12 -36q0 -22 12 -37q15 -16 39 -16t38 16zM512 986q13 15 13 36t-13 36q-14 17 -38 17t-38 -17q-13 -15 -13 -36t13 -36q14 -17 38 -17t38 17z
M610 1053q-13 -15 -13 -36q0 -22 13 -37q14 -16 38 -16t39 16q12 15 12 37q0 21 -12 36q-15 17 -39 17t-38 -17zM739 785q13 15 13 36q0 22 -13 37q-14 16 -38 16t-38 -16q-13 -15 -13 -37q0 -21 13 -36q14 -16 38 -16t38 16zM834 938q13 15 13 37q0 21 -13 36
q-14 16 -38 16t-38 -16q-13 -15 -13 -36q0 -22 13 -37q14 -16 38 -16t38 16zM531 1174q-13 -14 -13 -36q0 -21 13 -36q14 -17 38 -17t38 17q13 15 13 36q0 22 -13 36q-14 17 -38 17t-38 -17zM716 1164q-13 -15 -13 -36q0 -22 13 -37q14 -16 38 -16t38 16q13 15 13 37
q0 21 -13 36q-14 16 -38 16t-38 -16zM412 1097q13 14 13 36q0 21 -13 36q-14 17 -38 17t-38 -17q-13 -15 -13 -36q0 -22 13 -36q14 -17 38 -17t38 17zM233 843q12 15 12 36q0 22 -12 37q-14 16 -39 16q-24 0 -38 -16q-13 -15 -13 -37q0 -21 13 -36q14 -16 38 -16q25 0 39 16
zM198 1090q-12 -15 -12 -36q0 -22 12 -37q15 -16 39 -16t38 16q13 15 13 37q0 21 -13 36q-14 16 -38 16t-39 -16zM639 299q13 15 13 37q0 21 -13 36q-14 17 -38 17t-38 -17q-13 -15 -13 -36q0 -22 13 -37q14 -16 38 -16t38 16zM454 257q13 15 13 37q0 21 -13 36
q-14 16 -38 16t-38 -16q-13 -15 -13 -36q0 -22 13 -37q14 -16 38 -16t38 16zM354 373q13 15 13 37q0 21 -13 36q-14 16 -38 16t-38 -16q-13 -15 -13 -36q0 -22 13 -37q14 -16 38 -16t38 16zM233 474q12 15 12 36t-12 36q-14 17 -39 17q-24 0 -38 -17q-13 -15 -13 -36t13 -36
q14 -17 38 -17q25 0 39 17zM977 965q13 14 13 36q0 21 -13 36q-14 17 -38 17t-39 -17q-12 -15 -12 -36q0 -22 12 -36q15 -17 39 -17t38 17zM169 685q13 15 13 36q0 22 -13 36q-14 17 -38 17t-38 -17q-13 -14 -13 -36q0 -21 13 -36q14 -17 38 -17t38 17zM858 1174
q-13 -14 -13 -36q0 -21 13 -36q14 -17 38 -17q25 0 39 17q13 15 13 36q0 22 -13 36q-14 17 -39 17q-24 0 -38 -17zM703 1207q12 15 12 37q0 21 -12 36q-15 17 -39 17t-38 -17q-13 -15 -13 -36q0 -22 13 -37q14 -16 38 -16t39 16zM1043 1127q-13 -15 -13 -36q0 -22 13 -37
q14 -16 38 -16t39 16q12 15 12 37q0 21 -12 36q-15 16 -39 16t-38 -16zM1093 912q13 15 13 36q0 22 -13 36q-14 17 -38 17t-38 -17q-13 -14 -13 -36q0 -21 13 -36q14 -17 38 -17t38 17zM1257 954q13 15 13 36q0 22 -13 37q-14 16 -39 16q-24 0 -38 -16q-13 -15 -13 -37
q0 -21 13 -36q14 -16 38 -16q25 0 39 16zM1399 748q13 15 13 36q0 22 -13 37q-14 16 -38 16t-38 -16q-13 -15 -13 -37q0 -21 13 -36q14 -16 38 -16t38 16zM1362 611q13 15 13 36q0 22 -13 37q-14 16 -38 16t-38 -16q-13 -15 -13 -37q0 -21 13 -36q14 -17 38 -17t38 17z
M1233 546q-13 -15 -13 -36t13 -36q14 -17 38 -17t39 17q12 15 12 36t-12 36q-15 17 -39 17t-38 -17zM1397 546q-13 -15 -13 -36t13 -36q14 -17 38 -17t38 17q13 15 13 36t-13 36q-14 17 -38 17t-38 -17zM1416 705q-13 -15 -13 -37q0 -21 13 -36q14 -16 38 -16t39 16
q12 15 12 36q0 22 -12 37q-15 16 -39 16t-38 -16zM1390 321q13 14 13 36q0 21 -13 36q-14 17 -38 17t-38 -17q-13 -15 -13 -36q0 -22 13 -36q14 -17 38 -17t38 17zM1259 204q12 15 12 37q0 21 -12 36q-15 17 -39 17t-38 -17q-13 -15 -13 -36q0 -22 13 -37q14 -16 38 -16
t39 16zM1410 917q13 15 13 36q0 22 -13 37q-14 16 -38 16q-25 0 -39 -16q-12 -15 -12 -37q0 -21 12 -36q14 -16 39 -16q24 0 38 16zM1175 1190q-13 -15 -13 -36t13 -36q14 -17 38 -17t39 17q12 15 12 36t-12 36q-15 17 -39 17t-38 -17zM1006 1285q-13 -15 -13 -36t13 -36
q14 -17 38 -17t39 17q12 15 12 36t-12 36q-15 17 -39 17t-38 -17zM827 1338q-13 -15 -13 -36q0 -22 13 -36q14 -17 38 -17t38 17q13 14 13 36q0 21 -13 36q-14 17 -38 17t-38 -17zM436 1317q-13 -15 -13 -36q0 -22 13 -37q14 -16 38 -16t38 16q13 15 13 37q0 21 -13 36
q-14 16 -38 16t-38 -16zM697 1408q-12 -15 -12 -37q0 -21 12 -36q14 -17 39 -17q24 0 38 17q13 15 13 36q0 22 -13 37q-14 16 -38 16q-25 0 -39 -16zM1410 1081q13 15 13 36t-13 36q-14 17 -38 17q-25 0 -39 -17q-12 -15 -12 -36t12 -36q14 -17 39 -17q24 0 38 17z" />
    <glyph glyph-name="f" unicode="f" horiz-adv-x="1301" 
d="M487 1022q-1 -1 -2 -3q-2 -2 -3 -2l-3 -3q-1 7 -2 13q6 -1 13 -2zM654 1086h-4h-7h-4q4 7 7 11q4 -5 8 -11zM636 332v1q5 -8 -147 184q-140 178 -136 397q1 35 37 35q37 0 36 -35q-3 -140 54 -250q30 -57 141 -188q32 -37 56 -75v476q0 35 37 35q36 0 36 -35v-255
q26 43 40 82q53 141 34 289q-2 17 8 26q9 9 24 9q37 0 41 -35q19 -149 -26 -280q-27 -79 -61 -133q-51 -82 -50 -81q-10 -24 -10 -98v-324q0 -24 -44 -24q-42 0 -38 17q32 150 -32 262zM112 732q1 -8 9 -15q3 -6 10 -10q-27 -49 -14 -69q4 -23 59 -39q-2 -8 0 -15
q-1 -9 4 -16q-15 -24 -7 -38q9 -15 41 -12q0 -28 15 -36q28 -14 80 55q5 3 9 6q7 0 16 2q-2 -8 -2 -16q-3 -4 -6 -9q-69 -52 -55 -80q8 -15 37 -15q-4 -32 12 -41q14 -8 37 7q7 -5 17 -5q6 -2 14 1q16 -55 40 -59q19 -13 68 14q4 -7 10 -10q7 -8 15 -9q6 -28 22 -32
q17 -4 37 21q10 -10 19 -14q47 -96 21 -218q-6 -26 12 -48q23 -28 74 -28q38 0 64 17q29 21 29 56v263q47 -25 66 -12q24 4 40 59q8 -3 14 -1q10 0 17 5q23 -15 38 -7q15 9 11 41q29 0 37 15q14 28 -55 80q-3 5 -6 9q0 7 -2 16q9 -2 16 -2q4 -3 9 -6q52 -69 80 -55
q15 8 15 36q32 -3 41 12q8 14 -7 38q5 7 4 16q2 7 0 15q55 16 59 39q13 20 -14 69q7 4 10 10q8 7 9 15q27 6 31 22q5 17 -20 37q20 20 15 36q-10 30 -95 18q-6 2 -11 3q-5 5 -13 9q8 5 13 10q6 1 11 2q85 -12 95 19q5 15 -15 35q25 21 20 38q-4 15 -31 21q-1 8 -9 16
q-3 6 -10 9q27 49 14 69q-4 24 -59 40q2 8 0 14q1 10 -4 17q15 23 7 37q-9 16 -41 12q0 29 -15 36q-28 15 -80 -54q-4 -3 -9 -6q-7 0 -16 -3q2 9 2 16l6 10q69 52 55 80q-8 15 -37 15q4 32 -11 41q-15 8 -38 -7q-7 4 -17 4q-6 2 -14 0q-16 55 -40 59q-19 13 -68 -14
q-4 7 -10 10q-7 8 -15 9q-6 27 -22 31q-17 5 -37 -20q-21 20 -36 15q-30 -10 -18 -95q-2 -5 -3 -11q-5 -5 -9 -13q-5 8 -10 13q-1 5 -3 11q13 85 -18 95q-15 5 -35 -15q-21 25 -38 20q-16 -4 -22 -31q-8 -1 -15 -9q-6 -3 -9 -10q-50 27 -69 14q-24 -4 -40 -59q-8 2 -14 0
q-10 0 -17 -4q-23 15 -37 7q-16 -9 -12 -41q-29 0 -36 -15q-15 -28 54 -80l6 -10q0 -7 2 -16q-8 3 -16 3q-5 3 -9 6q-52 69 -80 54q-15 -7 -15 -36q-32 4 -41 -12q-8 -14 7 -37q-5 -7 -4 -17q-2 -6 0 -14q-55 -16 -59 -40q-13 -20 14 -69q-7 -4 -10 -9q-8 -8 -9 -16
q-27 -6 -31 -21q-5 -17 20 -38q-20 -20 -15 -35q10 -31 95 -19q5 -1 11 -2q5 -5 13 -10q-8 -4 -13 -9q-6 -2 -11 -3q-85 12 -95 -18q-5 -16 15 -36q-25 -20 -20 -37q4 -16 31 -22z" />
    <glyph glyph-name="g" unicode="g" horiz-adv-x="1085" 
d="M852 529q29 -16 57 -10q38 7 59 41q20 33 12 71q-6 33 -31 50q-22 16 -52 15q-69 -3 -89 -66q-91 -4 -157 -65q-9 48 -21 92q62 49 187 145q5 4 35 6q32 1 40 5q39 17 59 51q24 40 16 79q-6 37 -37 64q-68 61 -150 32q-53 -19 -76 -65t-2 -93q1 -4 41 -61
q-83 -64 -124 -96q-21 77 -51 152q-6 29 -8 57l51 176q16 -1 27 1q62 7 94 56q33 50 12 104q-15 41 -56 64t-88 19q-48 -4 -82 -33q-33 -29 -41 -72q-15 -78 60 -120q9 -6 14 -12q-7 -23 -19 -63q-13 -48 -18 -64q-63 117 -150 217q66 63 35 135q-18 40 -59 61
q-42 21 -92 15q-46 -6 -77 -34q-32 -29 -39 -71q-10 -60 41 -105t117 -32q11 2 20 1q45 -50 82 -104q4 -6 15 -23q-39 21 -82 32q-13 44 -54 68q-42 24 -91 15t-77 -43q-27 -33 -22 -79q8 -70 86 -92q38 -11 77 1q39 11 62 41q2 2 18 27q80 -25 133 -86q12 -37 33 -100
q24 -74 33 -100q3 -9 10 -25l-1 -1q-67 62 -149 103q10 70 -61 99q-37 15 -76 6q-38 -9 -61 -38q-40 -50 -4 -107q7 -13 18 -23q40 -36 91 -23q31 5 69 31q107 -55 182 -144q8 -43 13 -90q-72 51 -156 74q-2 37 -26 65q-26 31 -62 31q-32 0 -60 -25q-27 -23 -35 -57
q-8 -37 12 -70q21 -35 66 -40q44 -4 75 23q7 7 13 15q101 -27 177 -98q5 -204 -55 -392q-5 -17 7 -28q10 -11 26 -9q5 -2 12 -2h80q28 0 28 29q2 4 2 7q37 221 6 443q53 80 147 83q13 -26 41 -41z" />
    <glyph glyph-name="h" unicode="h" horiz-adv-x="1579" 
d="M567 783q0 -12 -9 -18q-10 -7 -20 -2q-9 5 -14 15q0 2 0 1q-3 18 29 17q14 0 14 -13zM590 788q-3 24 -26 30q-6 2 -13 2q-1 10 -11 9q-24 -3 -36 -20q-12 -18 -1 -41q10 -21 31 -27q23 -7 41 8t15 39zM669 726q0 -12 -9 -18q-10 -7 -21 -2q-9 5 -14 15v1q-2 19 29 17
q15 0 15 -13zM692 731q-3 25 -27 30q-6 2 -13 2q0 11 -10 9q-25 -3 -36 -20q-13 -18 -2 -40q10 -21 32 -28q23 -7 40 8q18 15 16 39zM442 803q0 -11 -9 -18q-10 -6 -20 -1q-10 4 -14 14v2q-3 18 29 17q14 -1 14 -14zM409 761q23 -7 41 8q18 16 15 39q-3 25 -26 31
q-6 1 -13 1q-1 11 -11 10q-24 -3 -36 -21t-1 -40q10 -21 31 -28zM604 1081q0 -12 -10 -18q-9 -7 -20 -2q-9 5 -14 15v1q-3 18 29 17q15 0 15 -13zM626 1086q-3 24 -26 30q-6 1 -13 2q0 10 -11 9q-24 -3 -35 -20q-13 -18 -2 -41q10 -21 32 -27q22 -7 40 8t15 39zM757 1095
q0 -12 -9 -18q-10 -7 -20 -2q-9 4 -14 15v1q-3 18 29 17q14 -1 14 -13zM780 1100q-3 24 -26 30q-6 1 -13 1q-1 11 -11 10q-24 -3 -36 -21t-1 -40q10 -21 31 -28q23 -7 41 8q18 16 15 40zM947 1108q-10 -6 -20 -2q-10 5 -14 15v2q-3 18 29 17q14 -1 14 -14q0 -11 -9 -18z
M893 1152q-12 -18 -2 -40q10 -21 32 -28q23 -7 41 8q18 16 15 39q-3 25 -26 30q-7 2 -13 2q-1 11 -11 9q-24 -3 -36 -20zM802 1201q-9 5 -14 15q0 2 0 1q-3 18 29 17q15 0 15 -13q0 -12 -10 -18q-9 -7 -20 -2zM804 1267q-24 -3 -36 -20q-12 -18 -1 -41q10 -21 32 -27
q22 -7 40 8t15 39t-26 30q-6 2 -13 2q0 10 -11 9zM656 1167q-10 -6 -21 -2q-9 5 -14 15v2q-2 18 29 17q15 -1 15 -14q0 -11 -9 -18zM602 1211q-12 -18 -2 -40q10 -21 32 -28q23 -7 40 8q18 16 16 39q-3 25 -27 30q-6 2 -12 2q-1 11 -11 9q-25 -3 -36 -20zM367 1075
q-10 4 -14 15l-1 1q-2 18 30 17q14 -1 14 -13t-9 -18q-10 -7 -20 -2zM380 1131q-1 11 -11 10q-25 -3 -36 -21q-12 -18 -2 -40q10 -21 32 -28q23 -7 41 8q17 16 15 40q-3 24 -27 30q-6 1 -12 1zM320 1196q0 -11 -9 -18q-10 -6 -21 -1q-9 4 -14 14v2q-2 18 29 17q15 -1 15 -14
zM287 1154q23 -7 40 8q18 16 15 39q-2 25 -26 30q-6 2 -13 2q0 11 -10 10q-25 -3 -36 -21q-13 -18 -2 -40q10 -21 32 -28zM286 1036q0 -12 -9 -18q-10 -7 -20 -2q-9 4 -14 15q0 2 0 1q-3 18 29 17q14 -1 14 -13zM253 993q23 -7 41 8q18 16 15 40t-26 30q-6 1 -13 1
q-1 11 -11 10q-24 -3 -36 -21t-1 -40q10 -21 31 -28zM240 912q0 -11 -9 -18q-10 -6 -20 -1q-10 4 -14 14v2q-3 18 29 17q14 -1 14 -14zM207 870q23 -7 41 8q18 16 15 39q-3 25 -26 30q-7 2 -13 2q-1 11 -11 10q-24 -3 -36 -21t-2 -40q10 -21 32 -28zM170 803q0 -11 -9 -18
q-10 -6 -20 -1q-10 4 -14 14q-1 2 0 2q-3 18 29 17q14 -1 14 -14zM193 808q-3 25 -26 31q-7 1 -13 1q-1 11 -11 10q-24 -3 -36 -21t-2 -40q10 -21 32 -28q23 -7 41 8q18 16 15 39zM895 495q-10 4 -14 15l-1 1q-2 18 30 17q14 -1 14 -13t-9 -18q-10 -7 -20 -2zM908 551
q-1 11 -11 10q-25 -3 -36 -20q-12 -19 -2 -41q10 -21 32 -28q23 -7 41 9q17 15 15 39q-3 24 -27 30q-6 1 -12 1zM1318 770q-9 5 -14 15v1q-3 18 29 17q14 0 14 -13q0 -12 -9 -18q-10 -7 -20 -2zM1331 827q0 10 -11 9q-24 -3 -36 -20q-12 -18 -1 -41q10 -21 31 -27
q23 -7 41 8t15 39t-26 30q-6 1 -13 2zM1272 1098q-9 4 -14 14v2q-3 18 29 17q15 -1 15 -14q0 -11 -9 -18q-10 -6 -21 -1zM1285 1154q0 11 -10 9q-25 -3 -36 -20q-13 -18 -2 -40q10 -21 32 -28q23 -7 40 8q18 16 15 39q-2 25 -26 30q-6 2 -13 2zM1158 1061q-9 5 -14 15v1
q-3 18 29 17q14 0 14 -13q0 -12 -9 -18q-10 -7 -20 -2zM1160 1127q-24 -3 -36 -20q-12 -18 -1 -41q10 -21 31 -27q23 -7 41 8t15 39t-26 30q-7 1 -13 2q-1 10 -11 9zM1104 1149q0 -12 -9 -18q-10 -7 -20 -2t-15 15v1q-2 18 30 17q14 0 14 -13zM1071 1107q23 -7 41 8
q17 15 15 39q-3 24 -27 30q-6 2 -12 2q-1 10 -11 9q-25 -3 -36 -20q-12 -18 -2 -41q10 -21 32 -27zM1039 1031q-9 -6 -20 -2q-9 5 -14 15q0 2 0 1q-3 19 29 18q15 -1 15 -14q0 -12 -10 -18zM985 1075q-12 -18 -1 -40q10 -21 32 -28t40 8t15 39q-3 25 -26 30q-6 2 -13 2
q0 11 -11 9q-24 -3 -36 -20zM1177 1175q-9 4 -14 14v1v1q-3 18 29 17q14 -1 14 -14q0 -11 -9 -18q-10 -6 -20 -1zM1190 1231q-1 11 -11 10q-24 -3 -36 -21t-1 -40q10 -21 31 -28q23 -7 41 8q18 16 15 39q-3 25 -26 30q-7 2 -13 2zM1016 1231q0 -12 -9 -18q-10 -7 -20 -2
q-9 4 -14 15v1q-3 18 29 17q14 -1 14 -13zM984 1188q22 -7 40 8q18 16 15 40t-26 30q-6 1 -13 1q-1 11 -11 10q-24 -3 -36 -21t-1 -40q10 -21 32 -28zM1079 770q-9 5 -14 15q0 2 0 1q-2 18 29 17q15 0 15 -13q0 -12 -9 -18q-10 -7 -21 -2zM1093 827q-1 10 -11 9
q-25 -3 -36 -20q-12 -18 -2 -41q10 -21 32 -27q23 -7 40 8q18 15 16 39q-3 24 -27 30zM1158 495q-9 4 -14 15v1q-3 18 29 17q14 -1 14 -13t-9 -18q-10 -7 -20 -2zM1160 561q-24 -3 -36 -20q-12 -19 -1 -41q10 -21 31 -28q23 -7 41 9q18 15 15 39t-26 30q-6 1 -13 1
q-1 11 -11 10zM1291 661q-9 4 -14 15q0 2 0 1q-3 18 29 17q15 0 15 -13q0 -12 -10 -18q-9 -7 -20 -2zM1304 718q0 10 -11 9q-24 -3 -35 -20q-13 -18 -2 -41q10 -21 32 -28q23 -7 40 9q18 15 15 39q-2 24 -26 30q-6 1 -13 2zM1277 511q-3 18 29 17q15 -1 15 -13t-10 -18
q-9 -7 -20 -2q-9 4 -14 15q0 2 0 1zM1343 520q-2 24 -26 30q-6 1 -13 1q0 11 -11 10q-24 -3 -35 -20q-13 -19 -2 -41q10 -21 32 -28q23 -7 40 9q18 15 15 39zM1384 570q-10 5 -14 15q0 2 0 1q-3 18 29 17q14 0 14 -13q0 -12 -9 -18q-10 -7 -20 -2zM1397 627q-1 10 -11 9
q-24 -3 -36 -20q-12 -18 -2 -41q10 -21 32 -27q23 -7 41 8t15 39t-26 30q-7 2 -13 2zM1353 874q-10 5 -14 15v1q-3 19 29 17q14 0 14 -13q0 -12 -9 -18q-10 -7 -20 -2zM1366 931q-1 11 -11 9q-24 -3 -36 -20q-12 -18 -2 -41q10 -20 32 -27q23 -7 41 8t15 39q-3 25 -26 30
q-7 2 -13 2zM1430 718q-9 4 -14 15v1q-3 18 29 17q14 -1 14 -13t-9 -18q-10 -7 -20 -2zM1443 774q-1 11 -11 10q-24 -3 -36 -20q-12 -19 -1 -41q10 -21 31 -28q23 -7 41 9q18 15 15 39t-26 30q-6 1 -13 1zM1353 993q-10 4 -14 14v2q-3 18 29 17q14 -1 14 -14q0 -11 -9 -18
q-10 -6 -20 -1zM1366 1049q-1 11 -11 10q-24 -3 -36 -21t-2 -40q10 -21 32 -28q23 -7 41 8q18 16 15 39q-3 25 -26 30q-7 2 -13 2zM1195 816q-8 18 -9 33q0 10 24 145q4 22 -19 29q-24 6 -28 -17q-21 -119 -24 -143q-4 -29 9 -60q22 -55 21 -60l1 -3q-11 -4 -98 -15
q-78 -9 -127 -20q-46 -10 -80 -24q23 27 128 111q117 93 136 218q3 23 -20 29q-23 7 -27 -16q-14 -97 -103 -178q1 24 -12 87q-10 56 -5 90q3 23 -20 29q-23 7 -27 -16q-7 -45 5 -103q20 -93 0 -129q-3 -5 -4 -10q-81 -63 -116 -118q-15 42 -32 75q63 108 85 177
q24 77 7 210q-3 23 -27 23t-22 -23q16 -121 -5 -197q-15 -55 -66 -142q3 9 -1 17q-17 37 -3 98q21 92 22 100q1 23 -23 23t-26 -23q-1 -26 -14 -80q-12 -49 -12 -77q-84 79 -80 139q1 24 -23 24t-25 -24q-3 -50 29 -99q-30 5 -48 13q-29 13 -34 56q-1 8 0 71q2 96 -8 128
q-7 21 -35 44q-30 24 -36 40q-9 21 -32 15t-15 -28q8 -19 39 -47q29 -27 36 -48q11 -32 4 -121q-10 8 -21 14q-22 11 -33 -9q-5 -8 -3 -18q3 -11 12 -15q23 -12 36 -31q4 -6 10 -9q8 -49 47 -78q-9 7 130 -35h1v-1q6 -5 18 -17q67 -63 108 -176q-23 8 -51 11q-14 1 -67 4
q-40 3 -64 7q-72 14 -111 65q-13 18 -34 6t-7 -30q23 -31 53 -52q-2 -1 -5 -1q-15 -2 -52 -11q-18 -4 -27 14q1 -2 -10 31q-15 43 -43 82q1 2 0 5q0 2 5 92q2 53 -25 86q-14 18 -31 1t-3 -35q20 -23 9 -98q-8 8 -16 14q-17 15 -34 -2q-18 -17 0 -32q48 -40 78 -95
q5 -9 17 -47q10 -30 22 -44q25 -26 71 -19q113 18 131 19q4 0 7 1q-10 1 68 -4q-7 -6 -20 -21q-12 -14 -19 -21q-23 -21 -52 -22q-23 -1 -23 -26q0 -24 23 -23q61 3 104 56q20 24 35 30q19 7 45 -9q42 -25 42 -86q0 -7 4 -13v-440q0 -24 24 -24t24 24v534q-1 -1 31 14
q45 20 82 -2q50 -30 119 -33q24 -1 24 23t-24 25q-55 3 -106 33q-21 13 -37 17q6 1 28 7q27 7 63 13q5 -4 13 -4q22 -1 105 -58q47 -33 132 -27q23 2 23 26t-23 22q-75 -5 -134 39q-10 8 -20 14q65 8 94 21q48 23 43 74q0 6 -4 11q19 90 58 170q10 21 -11 33t-31 -9
q-39 -80 -58 -164zM1365 1159q-10 4 -14 14v2q-3 18 29 17q14 -1 14 -14q0 -11 -9 -18q-10 -6 -20 -1zM1378 1215q-1 11 -11 10q-24 -3 -36 -21t-1 -40q10 -21 31 -28q23 -7 41 8q18 16 15 39q-3 25 -26 30q-7 2 -13 2zM240 713q0 -12 -9 -18q-10 -7 -20 -2q-10 4 -14 15v1
q-3 18 29 17q14 0 14 -13zM207 670q23 -7 41 9q18 15 15 39t-26 30q-7 1 -13 2q-1 10 -11 9q-24 -3 -36 -20q-12 -18 -2 -41q10 -21 32 -28zM279 570q-9 5 -14 15v1q-3 18 29 17q15 0 15 -13q0 -12 -9 -18q-10 -7 -21 -2zM292 627q0 10 -10 9q-25 -3 -36 -20q-13 -18 -2 -41
q10 -21 32 -27q23 -7 40 8q18 15 15 39q-2 24 -26 30q-6 2 -13 2zM383 495q-10 4 -14 15v1q-3 18 29 17q14 -1 14 -13t-9 -18q-10 -7 -20 -2zM396 551q-1 11 -11 10q-24 -3 -36 -20q-12 -19 -1 -41q10 -21 31 -28q23 -7 41 9q18 15 15 39t-26 30q-6 1 -13 1zM187 1120
q-9 5 -14 15v1v0q-3 18 29 17q14 0 14 -13q0 -12 -9 -18q-10 -7 -20 -2zM200 1177q-1 10 -11 9q-24 -3 -36 -20q-12 -18 -1 -41q10 -21 31 -27q23 -8 41 8q18 15 15 39t-26 30q-7 1 -13 2zM106 1006q-3 18 29 17q14 0 14 -13q0 -12 -9 -18q-10 -7 -20 -2q-9 4 -14 15v1z
M172 1015q-3 24 -26 30q-6 1 -13 2q-1 10 -11 9q-24 -3 -36 -20q-12 -18 -1 -41q10 -21 31 -27q23 -8 41 8q18 15 15 39zM548 1224q-10 -7 -20 -2q-9 4 -14 15v0v1q-3 18 29 17q14 0 14 -13q0 -12 -9 -18zM494 1268q-12 -18 -1 -41q10 -21 32 -28t40 9q18 15 15 39t-26 30
q-6 1 -13 2q-1 10 -11 9q-24 -3 -36 -20zM326 1313q-10 4 -14 14l-1 2q-2 18 30 17q14 -1 14 -14q0 -11 -9 -18q-10 -6 -20 -1zM339 1369q-1 11 -11 10q-25 -3 -36 -21q-12 -18 -2 -40q10 -21 32 -28q23 -7 41 8q17 16 15 39q-3 25 -27 30q-6 2 -12 2zM695 1269
q-10 5 -14 15q0 2 0 1q-3 19 29 17q14 0 14 -13q0 -12 -9 -18q-10 -7 -20 -2zM697 1335q-24 -3 -36 -20q-12 -18 -2 -40q10 -21 32 -28q23 -7 41 8t15 39q-3 25 -26 30q-7 2 -13 2q-1 11 -11 9zM589 1331q-9 4 -14 15v0v1q-3 18 29 17q15 -1 15 -13t-10 -18q-9 -7 -20 -2z
M602 1387q0 11 -11 10q-24 -3 -35 -20q-13 -19 -2 -41q10 -21 32 -28t40 8q18 16 15 40q-2 24 -26 30q-6 1 -13 1zM488 1365q0 -12 -9 -18q-10 -7 -20 -2q-9 4 -14 15v1q-3 18 29 17q14 -1 14 -13zM511 1370q-3 24 -26 30q-6 1 -13 1q0 11 -11 10q-24 -3 -36 -21t-1 -40
q10 -21 31 -28q23 -7 41 8q18 16 15 40zM881 1299q-10 5 -15 15v1q-2 19 30 18q14 -1 14 -14q0 -11 -9 -18q-10 -6 -20 -2zM894 1356q-1 11 -11 9q-25 -3 -36 -20q-12 -18 -2 -40q10 -21 32 -28q23 -7 41 8q17 15 15 39q-3 25 -27 30q-6 2 -12 2zM1114 1287q0 -12 -9 -18
q-10 -7 -21 -2q-9 5 -14 15v1q-2 19 29 17q15 0 15 -13zM1081 1245q23 -7 40 8q18 15 16 39q-3 25 -27 30q-6 2 -12 2q-1 11 -11 9q-25 -3 -36 -20q-12 -18 -2 -40q10 -21 32 -28zM1272 1243q-10 5 -14 15q0 2 0 1q-3 19 29 17q14 0 14 -13q0 -12 -9 -18q-10 -7 -20 -2z
M1285 1300q-1 11 -11 9q-24 -3 -36 -20q-12 -18 -1 -41q10 -21 31 -27q23 -7 41 8t15 39q-3 25 -26 30q-7 2 -13 2zM1016 1365q0 -12 -9 -18q-10 -7 -20 -2q-9 4 -14 15v1q-3 18 29 17q14 -1 14 -13zM984 1322q22 -7 40 8q18 16 15 40t-26 30q-6 1 -13 1q-1 11 -11 10
q-24 -3 -36 -21t-1 -40q10 -21 32 -28zM762 1358q-9 4 -14 15v1q-3 18 29 17q15 0 15 -13q0 -12 -10 -18q-9 -7 -20 -2zM775 1415q0 10 -11 9q-24 -3 -36 -20q-12 -18 -1 -41q10 -21 32 -28t40 9q18 15 15 39t-26 30q-6 1 -13 2z" />
    <glyph glyph-name="i" unicode="i" horiz-adv-x="1271" 
d="M550 771q11 -12 25 -22q12 -9 25 -16v290q0 19 12 29q11 10 28 10q16 0 27 -10q12 -10 12 -29v-59q68 39 81 120q5 29 33 29q18 0 32 -14q15 -15 12 -36q-11 -64 -54 -115q-42 -50 -104 -72v-299q13 4 25 11q14 7 25 16q80 61 66 159q-5 38 33 49q16 4 28 -2
q13 -7 16 -25q12 -90 -27 -164q-39 -73 -116 -108q-12 -6 -25 -10q-12 -4 -25 -7v-408q0 -18 -12 -29q-11 -9 -27 -9q-17 0 -28 9q-12 11 -12 29v557q-13 6 -25 11q-13 7 -25 14q-98 62 -134 174q-5 17 3 31q8 12 24 16q38 11 50 -26q17 -54 57 -94zM103 903
q-23 -14 -23 -33t23 -32l77 -46q3 -15 6 -28l-54 -72q-15 -22 -8 -39q7 -18 34 -21l89 -12q6 -10 13 -19l-23 -87q-7 -26 7 -39q13 -14 39 -7l87 22l24 -16l13 -89q4 -26 22 -33q17 -7 38 9l72 55q1 -1 11 -3v-325q0 -37 26 -63q25 -25 64 -25q38 0 63 25q26 26 26 63v325
q13 3 17 4l72 -54q22 -16 39 -8q18 7 21 33l12 90q10 6 19 12l87 -22q26 -7 39 7q14 13 7 39l-22 87l16 24l89 13q26 4 33 22q7 17 -9 38l-54 72l4 22l77 46q23 13 23 32t-23 33l-77 45q-3 16 -6 29l54 72q16 21 8 39q-7 17 -33 21l-90 12q-6 10 -12 19l22 87q7 26 -7 39
q-13 14 -39 7l-87 -23q-13 9 -24 17l-13 89q-4 26 -22 33q-17 7 -38 -9l-72 -55q-11 3 -22 5l-46 77q-13 23 -32 23t-33 -23l-45 -77q-15 -3 -29 -6l-72 54q-21 15 -39 8q-17 -7 -21 -34l-12 -89q-9 -5 -19 -13l-87 23q-26 7 -39 -7q-14 -13 -7 -39l23 -87q-9 -12 -17 -24
l-89 -13q-26 -4 -33 -22q-7 -17 9 -38l55 -72q-3 -10 -5 -23z" />
    <glyph glyph-name="j" unicode="j" horiz-adv-x="1301" 
d="M1036 1249q-147 133 -337 163q-42 6 -84 6q-163 0 -300 -88q-137 -87 -197 -230q-68 -160 -13 -328q54 -168 211 -281q166 -119 451 -138q19 -1 30 11q11 11 11 27q1 18 -10 31q-11 15 -31 16q-277 19 -439 152q-104 86 -145 204q-52 151 25 297q93 175 289 227
q58 15 117 15q143 0 273 -80t205 -215q90 -160 30 -332q-58 -165 -218 -233v12q12 19 37 55q46 65 62 103q41 97 32 207q-2 19 -16 30q-13 10 -30 10q-20 0 -31 -12q-10 -11 -9 -29q9 -97 -26 -179q-9 -21 -25 -46v527q0 20 -14 31q-12 11 -29 11t-29 -11q-14 -11 -14 -31
v-500q-122 190 -124 416q0 19 -14 31q-12 10 -29 10q-19 0 -32 -12q-11 -12 -11 -29q2 -236 124 -438q-127 97 -184 242q-11 29 -43 29q-24 0 -37 -18q-10 -15 -2 -34q102 -260 358 -370l1 -1v-425q0 -19 13 -31q12 -11 29 -11q18 0 30 11q13 12 13 31v155l88 69
q12 10 13 27q2 23 -13 37q-28 29 -64 1l-24 -19v60q173 59 263 219q91 161 53 341q-37 175 -184 307z" />
    <glyph glyph-name="k" unicode="k" horiz-adv-x="1517" 
d="M906 409q-2 -7 -4 0q-1 4 -2 13q-6 29 -4 33l8 16q1 2 3 7q3 7 6 0q1 -5 1 -21q0 -29 -8 -48zM909 522v-1q-1 1 0 2q0 1 0 -1zM760 349q-26 22 -36 36q-15 21 -22 56q-3 14 -4 16q0 7 7 6q28 -2 71 -48q7 -8 13 -13q3 -3 6 -32q1 -8 5 -54q1 -7 -3 -2q-10 13 -37 35z
M716 498q1 1 3 5q3 6 7 0q12 -21 33 -44q4 -5 -1 -2q-25 12 -53 8q-6 -1 -6 2q1 1 1 3q-1 -4 16 28zM1093 716q-7 1 1 2q165 15 244 100q21 23 33 49q-1 -1 8 24q4 11 3 16q0 2 -3 -1q-3 -2 -4 -5q-3 -10 -5 -14q-5 -12 -15 -27q-4 -6 -7 0q-18 29 -20 40q-2 7 -2 0
q-4 -80 1 -71q-14 -24 -70 -49q-32 -14 -93 -27q-84 -18 -98 -22q-96 -27 -134 -93q-3 -6 -4 0q0 5 -1 8q-23 130 -23 137q2 68 57 111q13 11 29 20q23 13 32 15q146 36 207 130q16 25 23 52q0 1 5 26q2 11 1 15q-1 2 -3 0q-3 -3 -3 -6q-1 -10 -3 -15q-3 -12 -10 -28
q-3 -6 -7 -1q-18 26 -22 37q-2 7 -2 0q1 -5 9 -36q6 -22 1 -35q-10 -25 -57 -57q-28 -18 -80 -39q-73 -28 -85 -34q-142 -66 -117 -221q0 -7 -5 -3l-4 2q-6 3 -11 8q-19 19 -45 34q-11 7 -81 44q-50 26 -75 48q-43 37 -50 63q3 -10 18 69q1 7 -2 1q-5 -11 -26 -35
q-5 -5 -7 2q-5 16 -7 29q-1 5 -1 15q0 3 -2 6t-3 1q-2 -4 -1 -16l2 -25q4 -28 17 -55q50 -100 190 -153q7 -2 0 -2q-25 -1 -60 11q-6 2 -1 -3q21 -22 53 -23q7 -1 21 4q8 2 17 -5q16 -11 27 -23q50 -50 44 -117v-5q-1 -5 -3 -11q-5 -11 -14 -26q-3 -5 -9 -2q-9 5 -15 10
q-5 4 -1 0q5 -8 12 -16q4 -5 1 -11q-22 -35 -24 -58q-1 -7 -1 -14q0 -6 -3 -1q-10 12 -37 35q-26 21 -36 35q-6 8 -10 18q-3 6 -2 8t0 0q-2 -1 -4 5q-4 11 -6 25q-5 21 -2 29q-1 -3 16 28q12 22 27 54q3 5 -1 1q-6 -9 -22 -22q-16 -14 -22 -21q-4 -5 -5 1q-24 156 -179 176
q-13 2 -92 7q-56 3 -88 12q-55 16 -72 37q7 -7 -12 71q-2 6 -2 -1q0 -11 -10 -42q-2 -6 -6 -1q-12 12 -19 24q-2 4 -7 13q-1 2 -4 4q-4 2 -3 0q0 -4 5 -15l13 -22q15 -24 38 -43q86 -71 236 -61q7 1 1 -3q-23 -11 -59 -14q-7 -1 -1 -3q29 -11 58 0q7 3 18 13q6 5 18 2
q18 -3 34 -9q66 -25 88 -89q2 -7 20 -138q3 -21 11 -42q2 -6 -3 -11q-7 -6 -12 -11q-4 -5 -5 1q-24 156 -179 176q-13 1 -91 6q-57 4 -88 13q-55 16 -72 37q6 -8 -12 70q-2 7 -2 0q0 -12 -10 -42q-2 -6 -6 -1q-12 12 -19 24q-3 4 -7 12q-1 3 -4 5q-4 2 -4 -1q1 -4 6 -14
l12 -22q16 -24 38 -43q87 -71 237 -61q10 1 35 -5q18 -4 34 -9q65 -25 88 -89q2 -7 19 -138q8 -58 59 -115q4 -5 -1 -2q-27 12 -56 8q-6 -1 1 -2q29 -1 72 -48q8 -9 13 -13q4 -3 7 -33q1 -8 3 -32q3 -104 -13 -177q-1 -7 5 -5q14 3 36 -2q16 -4 86 -4q72 -1 67 4
q-4 5 -20 107t-14 107q13 33 10 76q0 7 4 12q20 26 49 31q6 1 0 1q-27 0 -50 -11q-6 -4 -6 0q0 3 3 8q35 58 31 112q0 2 -7 64q-1 7 4 11q9 7 18 15q4 4 -1 1t-13 -6q-3 -1 -3 0l3 1q2 2 5 3q6 2 0 1q-4 -1 -9 -2q-6 -1 -7 5q-1 26 2 46q11 67 77 103q16 8 35 15q13 4 20 0
q14 -8 22 -9q35 -7 64 9q6 4 -1 3q-42 -3 -69 5zM869 1025q-14 -15 -35 -15q-20 0 -34 15q-15 14 -15 34t15 35q14 14 34 14q21 0 35 -14q14 -15 14 -35t-14 -34zM756 1002q-14 -14 -35 -14q-20 0 -34 14q-15 14 -15 34q0 21 15 35q14 14 34 14q21 0 35 -14t14 -35
q0 -20 -14 -34zM515 973q-15 -14 -35 -14t-34 14q-15 15 -15 35t15 35q14 14 34 14t35 -14q14 -15 14 -35t-14 -35zM560 868q-14 -14 -35 -14q-20 0 -34 14q-15 14 -15 34q0 21 15 35q14 14 34 14q21 0 35 -14t14 -35q0 -20 -14 -34zM646 1036q-15 -14 -35 -14t-35 14
q-14 15 -14 35t14 35q15 14 35 14t35 -14q14 -15 14 -35t-14 -35zM1007 1046q-14 -14 -34 -14q-21 0 -35 14t-14 35q0 20 14 34q14 15 35 15q20 0 34 -15q14 -14 14 -34q0 -21 -14 -35zM905 1138q-14 -14 -35 -14q-20 0 -34 14q-15 14 -15 35q0 20 15 34q14 15 34 15
q21 0 35 -15q14 -14 14 -34q0 -21 -14 -35zM1053 824q-14 -15 -34 -15q-21 0 -35 15q-14 14 -14 34t14 35q14 14 35 14q20 0 34 -14t14 -35q0 -20 -14 -34zM1004 730q-14 -15 -34 -15q-21 0 -35 15q-14 14 -14 34q0 21 14 35t35 14q20 0 34 -14q15 -14 15 -35q0 -20 -15 -34
zM523 1087q-14 -14 -35 -14q-20 0 -34 14q-15 15 -15 35t15 35q14 14 34 14q21 0 35 -14q14 -15 14 -35t-14 -35zM382 999q-14 -14 -34 -14q-21 0 -35 14t-14 35q0 20 14 34t35 14q20 0 34 -14q15 -14 15 -34q0 -21 -15 -35zM431 886q-14 -14 -34 -14q-21 0 -35 14t-14 35
q0 20 14 34q14 15 35 15q20 0 34 -15q15 -14 15 -34q0 -21 -15 -35zM400 1118q-14 -14 -35 -14q-20 0 -34 14q-15 15 -15 35t15 35q14 14 34 14q21 0 35 -14q14 -15 14 -35t-14 -35zM1022 1170q-14 -14 -34 -14q-21 0 -35 14q-14 15 -14 35t14 34q14 15 35 15q20 0 34 -15
q15 -14 15 -34t-15 -35zM1198 879q-14 -14 -34 -14q-21 0 -35 14q-14 15 -14 35t14 34q14 15 35 15q20 0 34 -15q14 -14 14 -34t-14 -35zM1153 774q-14 -15 -35 -15q-20 0 -34 15q-15 14 -15 34q0 21 15 35q14 14 34 14q21 0 35 -14t14 -35q0 -20 -14 -34zM1309 966
q-15 -14 -35 -14t-35 14q-14 14 -14 34q0 21 14 35q15 14 35 14t35 -14q14 -14 14 -35q0 -20 -14 -34zM1300 838q-15 -15 -35 -15t-35 15q-14 14 -14 34t14 35q15 14 35 14t35 -14q14 -15 14 -35t-14 -34zM282 624q-14 -15 -35 -15q-20 0 -34 15q-15 14 -15 34q0 21 15 35
q14 14 34 14q21 0 35 -14t14 -35q0 -20 -14 -34zM184 710q-14 -15 -35 -15q-20 0 -34 15q-14 14 -14 34t14 35q14 14 34 14q21 0 35 -14q14 -15 14 -35t-14 -34zM855 591q-15 -15 -35 -15t-35 15q-14 14 -14 34q0 21 14 35q15 14 35 14t35 -14q14 -14 14 -35q0 -20 -14 -34z
M1394 1055q-14 -14 -35 -14q-20 0 -34 14q-14 15 -14 35t14 35q14 14 34 14q21 0 35 -14q14 -15 14 -35t-14 -35zM1417 936q-14 -15 -35 -15q-20 0 -34 15q-15 14 -15 34q0 21 15 35q14 14 34 14q21 0 35 -14t14 -35q0 -20 -14 -34zM1095 575q-15 -14 -35 -14t-35 14
q-14 14 -14 34q0 21 14 35q15 14 35 14t35 -14q14 -14 14 -35q0 -20 -14 -34zM988 1291q-15 -14 -35 -14t-34 14q-15 15 -15 35t15 35q14 14 34 14t35 -14q14 -15 14 -35t-14 -35zM1221 598q-15 -14 -35 -14t-35 14q-14 15 -14 35t14 35q15 14 35 14t35 -14q14 -15 14 -35
t-14 -35zM1335 673q-14 -14 -35 -14q-20 0 -34 14q-15 15 -15 35t15 34q14 15 34 15q21 0 35 -15q14 -14 14 -34t-14 -35zM1433 752q-14 -14 -35 -14q-20 0 -34 14q-15 14 -15 35q0 20 15 34q14 15 34 15q21 0 35 -15q14 -14 14 -34q0 -21 -14 -35zM338 1225
q-14 -15 -35 -15q-20 0 -34 15q-15 14 -15 34q0 21 15 35q14 14 34 14q21 0 35 -14t14 -35q0 -20 -14 -34zM628 1285q-14 -14 -34 -14t-35 14q-14 14 -14 35q0 20 14 34q15 15 35 15t34 -15q15 -14 15 -34q0 -21 -15 -35zM790 1340q-14 -14 -35 -14q-20 0 -34 14
q-15 15 -15 35t15 35q14 14 34 14q21 0 35 -14q14 -15 14 -35t-14 -35zM969 941q-14 -14 -35 -14q-20 0 -34 14q-15 14 -15 34q0 21 15 35q14 14 34 14q21 0 35 -14t14 -35q0 -20 -14 -34zM609 704q-14 -14 -34 -14t-35 14q-14 14 -14 35q0 20 14 34q15 15 35 15t34 -15
q15 -14 15 -34q0 -21 -15 -35zM349 752q-14 -14 -35 -14q-20 0 -34 14t-14 35q0 20 14 34q14 15 34 15q21 0 35 -15q14 -14 14 -34q0 -21 -14 -35zM456 717q-14 -14 -34 -14q-21 0 -35 14q-14 15 -14 35t14 34q14 15 35 15q20 0 34 -15q15 -14 15 -34t-15 -35zM554 545
q-14 -15 -34 -15q-21 0 -35 15q-14 14 -14 34q0 21 14 35t35 14q20 0 34 -14q15 -14 15 -35q0 -20 -15 -34zM417 554q-14 -14 -35 -14q-20 0 -34 14q-15 15 -15 35t15 35q14 14 34 14q21 0 35 -14q14 -15 14 -35t-14 -35zM212 849q-14 -14 -34 -14t-35 14q-14 14 -14 35
q0 20 14 34q15 15 35 15t34 -15q15 -14 15 -34q0 -21 -15 -35zM276 988q-14 -15 -34 -15t-35 15q-14 14 -14 34t14 35q15 14 35 14t34 -14q15 -15 15 -35t-15 -34zM164 960q-15 -15 -35 -15t-35 15q-14 14 -14 34q0 21 14 35q15 14 35 14t35 -14q14 -14 14 -35
q0 -20 -14 -34zM284 1104q-14 -14 -35 -14q-20 0 -34 14q-15 14 -15 35q0 20 15 34q14 15 34 15q21 0 35 -15q14 -14 14 -34q0 -21 -14 -35zM628 1167q-14 -14 -34 -14t-35 14q-14 15 -14 35t14 34q15 15 35 15t34 -15q15 -14 15 -34t-15 -35zM875 1245q-15 -14 -35 -14
t-34 14q-15 15 -15 35t15 35q14 14 34 14t35 -14q14 -15 14 -35t-14 -35zM1136 1134q-14 -15 -35 -15q-20 0 -34 15q-15 14 -15 34q0 21 15 35q14 14 34 14q21 0 35 -14t14 -35q0 -20 -14 -34zM1128 1021q-14 -15 -34 -15t-35 15q-14 14 -14 34q0 21 14 35q15 14 35 14
t34 -14q15 -14 15 -35q0 -20 -15 -34zM1245 1197q-15 -15 -35 -15t-35 15q-14 14 -14 34t14 35q15 14 35 14t35 -14q14 -15 14 -35t-14 -34zM1368 1167q-14 -14 -35 -14q-20 0 -34 14q-14 15 -14 35t14 34q14 15 34 15q21 0 35 -15q14 -14 14 -34t-14 -35zM1117 1258
q-14 -15 -34 -15q-21 0 -35 15q-14 14 -14 34t14 35q14 14 35 14q20 0 34 -14q14 -15 14 -35t-14 -34zM726 878q-14 -14 -34 -14q-21 0 -35 14q-14 15 -14 35t14 35q14 14 35 14q20 0 34 -14q15 -15 15 -35t-15 -35zM628 442q-14 -14 -34 -14t-35 14q-14 14 -14 35
q0 20 14 34q15 15 35 15t34 -15q15 -14 15 -34q0 -21 -15 -35zM741 1236q-14 -14 -35 -14q-20 0 -34 14q-15 14 -15 35q0 20 15 34q14 15 34 15q21 0 35 -15q14 -14 14 -34q0 -21 -14 -35zM764 1123q-15 -14 -35 -14t-35 14q-14 14 -14 35q0 20 14 34q15 15 35 15t35 -15
q14 -14 14 -34q0 -21 -14 -35zM505 1198q-14 -14 -34 -14q-21 0 -35 14q-14 15 -14 35t14 35q14 14 35 14q20 0 34 -14q15 -15 15 -35t-15 -35zM449 1307q-15 -15 -35 -15t-34 15q-15 14 -15 34t15 35q14 14 34 14t35 -14q14 -15 14 -35t-14 -34zM855 790q-15 -14 -35 -14
t-35 14q-14 14 -14 35q0 20 14 34q15 15 35 15t35 -15q14 -14 14 -34q0 -21 -14 -35zM847 903q-14 -14 -35 -14q-20 0 -34 14q-15 14 -15 35q0 20 15 34q14 15 34 15q21 0 35 -15q14 -14 14 -34q0 -21 -14 -35z" />
    <glyph glyph-name="l" unicode="l" horiz-adv-x="1565" 
d="M849 398q0 -1 -5 -9q-12 36 -68 164q177 82 226 324q5 1 12 3q-16 -182 58 -274q-23 -23 -50 -45q-139 -111 -173 -163zM507 552q20 -13 61 -40q42 -26 62 -39q81 -53 149 -136q1 -1 2 -5q-100 20 -265 163q4 27 -9 57zM470 721q55 -55 107 -39q42 13 60 68
q3 -57 17 -105q16 -51 55 -137q-49 37 -161 109q-49 32 -93 67q9 18 15 37zM831 785q48 47 75 127q9 -10 18 -17q-39 -205 -179 -269q-4 11 -4 10q-17 46 -22 101h5q58 0 107 48zM1407 913q19 137 -16 239q-35 104 -108 118q-57 11 -115 -38q-9 65 -39 108t-73 51
q-44 8 -88 -25q-43 -33 -73 -94q-62 146 -171 146q-65 0 -118 -61q-52 -60 -75 -156q-29 64 -74 98q-46 34 -87 22q-40 -12 -59 -63q-19 -50 -9 -117q-77 49 -139 22q-67 -29 -80 -128t35 -210q35 -79 89 -134q-57 -12 -74 -53q-19 -47 22 -103q42 -56 120 -89
q111 -46 190 -11q198 -168 334 -186q4 -30 4 -58q-1 -6 1 -12q1 -87 3 -127q2 -38 42 -38q16 0 26 10q12 10 11 28q-14 265 69 353q29 30 93 78q65 50 92 78h1h1q86 -17 167 95q31 -11 71 12t70 69q32 51 34 101q1 49 -29 69q-20 12 -48 6z" />
    <glyph glyph-name="m" unicode="m" horiz-adv-x="1475" 
d="M813 322q-41 -37 -47 -42q26 158 79 253q7 13 18 16q44 -21 83 -29q-25 -87 -87 -153q-17 -18 -46 -45zM616 483q19 1 77 5q50 3 80 5q-3 -10 -4 -11q2 2 -25 -75q-19 -54 -44 -58q-17 -3 -84 134zM539 494q14 -17 34 -82q-52 80 -110 161q51 -47 76 -79zM1328 1150
q-21 83 -91 128q-68 43 -151 31q-50 64 -129 91q-62 22 -127 3q-62 -18 -105 -68q-120 98 -268 55q-150 -43 -200 -197q-2 -4 -6 -15q-4 -9 -6 -15q0 1 0 -1q-55 -14 -95 -52q-43 -41 -47 -91v-13q-56 -143 24 -269q86 -134 245 -136q147 -200 272 -419q-5 -28 -22 -77
q-36 -101 70 -104q22 -1 33 0q31 3 46 24q14 21 6 51q-2 6 -14 40q-9 24 -11 40q0 3 1 18q22 42 87 99q73 64 95 93q50 68 70 149q51 4 98 33q73 46 85 140q9 18 32 22q151 23 171 176q11 85 -41 184v5q-4 39 -22 75z" />
    <glyph glyph-name="n" unicode="n" horiz-adv-x="1307" 
d="M146 689q4 79 5 158h198v-158h-203zM110 619q11 0 19 5h2h250q14 0 23 9l1 1q9 9 9 22v220q0 15 -11 24q-9 11 -25 11h-262q-16 0 -25 -12q-10 -13 -5 -30q0 -110 -6 -218q-1 -14 7 -23q9 -9 23 -9zM405 1003q4 80 5 158h198v-158h-203zM370 933q10 0 18 5h3h250
q13 0 22 10h1q9 9 9 23v219q0 15 -11 24q-9 12 -24 12h-263q-16 0 -25 -12q-9 -14 -5 -31q0 -110 -6 -218q-1 -14 8 -22q8 -10 23 -10zM772 1153q4 80 4 158h199v-158h-203zM736 1084q10 0 19 5h2h250q14 0 22 8l1 1l1 1q8 9 8 22v220q0 15 -11 24q-9 11 -24 11h-262
q-16 0 -25 -12q-10 -13 -5 -30q-1 -111 -7 -219q0 -13 8 -22q9 -9 23 -9zM735 947l2 78h99v-78h-101zM714 906q5 0 10 3v0v0h131q8 0 13 5l-3 4l4 -3q5 5 5 13v115q0 9 -6 14q-5 7 -14 7h-137q-10 0 -15 -8q-6 -7 -4 -17q0 -56 -3 -114q0 -8 5 -13q5 -6 14 -6zM178 1003
q2 38 3 78h99v-78h-102zM157 962q6 0 11 2h131q8 0 13 6l-3 3l4 -3q5 6 5 14v114q0 9 -6 15t-15 6h-137q-9 0 -15 -7q-5 -8 -3 -18q0 -57 -3 -113q-1 -8 4 -14q6 -5 14 -5zM541 1302l2 78h99v-78h-101zM520 1261q5 0 10 2v0h131q8 0 13 5l-3 4l4 -3q5 5 5 13v115q0 9 -6 14
q-5 7 -14 7h-138q-9 0 -14 -7q-6 -8 -3 -18q-1 -58 -4 -113q0 -9 5 -14t14 -5zM374 1274q1 27 1 55h70v-55h-71zM357 1242q4 0 8 2h95q7 0 11 4h1q4 5 4 11v84q0 7 -5 11q-5 5 -12 5h-100q-8 0 -12 -5q-4 -6 -2 -14q-1 -42 -3 -83q0 -7 4 -11t11 -4zM1159 1142v-54h-71
q1 28 1 54h70zM1073 1173q-7 0 -12 -6q-4 -6 -2 -14q-1 -42 -3 -82q0 -7 4 -11q4 -5 11 -5q4 0 8 2h96q6 0 10 4l1 1q4 4 4 11v83q0 8 -5 12q-4 5 -12 5h-100zM364 480h-8q-6 2 -13 2q-6 0 -12 -2h-68q2 40 2 77h99v-77zM707 813v-158h-203q3 78 4 158h199zM538 591h54v-140
h-54v140zM840 617q1 40 2 78h99v-78h-101zM961 816q3 80 4 158h199v-158h-203zM1131 540v212h65q13 0 22 8l1 1v1q9 9 9 22v219q0 16 -11 25q-9 11 -24 11h-263q-16 0 -24 -12q-10 -13 -6 -30q0 -110 -6 -219q-1 -13 8 -22q8 -9 23 -9q10 0 19 5h2h120v-190
q-96 -22 -192 -47v64h86q8 0 13 5l-3 4l4 -3q5 5 5 13v115q0 9 -6 14q-6 7 -14 7h-137q-10 0 -15 -7q-6 -8 -3 -18q-1 -58 -4 -114q0 -8 5 -13q2 -2 5 -4v-129h-153v142h82q13 0 22 8l1 1v1q9 9 9 22v219q0 16 -11 25q-9 11 -24 11h-263q-16 0 -24 -12q-10 -13 -6 -30
q0 -111 -6 -219q-1 -13 8 -22t23 -9h5v-163q0 -11 7 -20q8 -17 28 -17h84v-44l-56 -43q-3 0 -6 -1q-2 0 -5 -1q-77 30 -149 63v81h8q7 0 13 5l-4 4l4 -3q6 5 6 13v115q0 9 -7 14q-5 7 -14 7h-137q-10 0 -15 -7q-6 -8 -3 -18q0 -58 -3 -114q-1 -8 4 -13q5 -6 14 -6q5 0 10 3
h59v-100q0 -9 4 -16q4 -10 15 -14q82 -39 171 -74v-194q0 -31 32 -31q33 0 33 31v194l60 43q13 1 22 10q9 10 9 22v5v5v62h180q12 0 20 7q17 8 17 27v30q114 30 226 55q11 3 17 11q14 9 14 26z" />
    <glyph glyph-name="o" unicode="o" horiz-adv-x="1337" 
d="M829 608q61 22 103 72q44 50 54 114q6 38 -32 49q-16 4 -28 -3q-14 -7 -17 -25q-13 -81 -80 -120v60q0 18 -13 29q-11 9 -27 9t-27 -9q-13 -11 -13 -29v-705q0 -18 13 -29q11 -9 27 -9t27 9q13 11 13 29v558zM690 616q0 18 -13 29q-11 9 -27 9t-27 -9q-13 -11 -13 -29
v-24q-44 27 -60 74q-12 37 -51 26q-15 -4 -23 -16q-9 -13 -3 -31q36 -105 137 -141v-135l-66 48q-13 10 -30 5q-16 -5 -24 -19q-18 -31 14 -54q62 -46 100 -73q3 -2 6 -3v-228q0 -18 13 -29q11 -9 27 -9t27 9q13 11 13 29v571zM345 1350q-4 -48 5 -89q15 -71 69 -59
q55 11 41 82q-9 41 -31 83q-28 53 -54 48t-30 -65zM989 894q42 -38 90 16q28 31 49 74q27 54 7 71q-20 18 -71 -14q-40 -25 -68 -56q-48 -54 -7 -91zM1175 831q-46 12 -88 11q-72 -2 -71 -58t73 -54q43 1 88 15q57 18 57 44q-1 27 -59 42zM1096 559q58 -14 71 8
q14 23 -28 67q-33 34 -69 55q-63 36 -91 -12t34 -85q37 -21 83 -33zM855 1061q-4 1 -7 1q-36 0 -52 -98q-6 -23 -8 -40q-9 -72 46 -79h7l1 -1h6q56 0 56 72q0 17 -3 42q-4 99 -39 103q-4 1 -7 0zM536 865q-8 -47 -3 -89q8 -71 64 -65t47 78q-5 42 -23 86q-23 55 -49 52
t-36 -62zM413 909q-47 37 -68 21q-22 -15 -1 -72q16 -44 41 -78q43 -59 88 -26t3 92q-25 34 -63 63zM271 1292q-41 44 -65 32q-23 -12 -12 -71q9 -46 28 -84q33 -64 83 -39t17 90q-19 37 -51 72zM222 611q46 9 84 29q64 34 37 83q-26 50 -89 16q-38 -20 -72 -52
q-44 -42 -31 -65q12 -24 71 -11zM375 449q37 29 61 64q42 59 -4 91t-87 -27q-25 -34 -40 -79q-20 -57 2 -72q21 -15 68 23zM298 862q-1 56 -73 55q-43 -1 -88 -15q-58 -18 -57 -44q1 -27 59 -42q46 -12 88 -11q72 1 71 57zM230 1092q-29 31 -70 55q-52 31 -71 13t9 -72
q21 -42 50 -73q49 -52 90 -14q41 39 -8 91zM518 1213q-8 -46 -4 -88q8 -72 63 -67q56 6 49 78q-5 42 -22 86q-23 56 -49 53t-37 -62zM743 1273q-1 42 -14 87q-18 58 -44 58t-42 -58q-13 -46 -12 -88q0 -72 56 -72q56 1 56 73zM922 1076q42 -38 90 16q28 31 49 74q27 54 7 72
q-19 17 -71 -15q-40 -25 -68 -56q-48 -54 -7 -91zM808 1295q-24 -41 -35 -82q-19 -69 35 -84q55 -14 73 56q11 41 10 88q-1 60 -27 67q-25 7 -56 -45zM368 1048q18 -44 43 -77q44 -57 89 -23q44 34 0 91q-26 33 -64 62q-48 35 -69 19t1 -72zM746 1032q-17 58 -43 58
q-27 0 -43 -58q-13 -46 -13 -88q0 -72 56 -72t56 72q0 42 -13 88z" />
    <glyph glyph-name="p" unicode="p" horiz-adv-x="826" 
d="M410 1072q-1 1 -1 2h4l-2 -5q-1 1 -1 3zM692 1139q-50 49 -120 49h-9q9 27 9 55q0 70 -49 119q-50 50 -120 50t-119 -50q-50 -49 -50 -119q0 -28 9 -55q-68 -2 -115 -51q-48 -49 -48 -118q0 -51 28 -93q27 -41 72 -61q-45 -20 -72 -61q-28 -42 -28 -93q0 -89 73 -139
q-73 -51 -73 -139q0 -70 50 -120q49 -49 119 -49q58 0 104 36v-201h-14q-23 0 -37 -15q-12 -14 -12 -34t12 -34q14 -16 37 -16h129q22 0 36 16q12 14 12 34t-12 34q-14 15 -36 15h-15v214q49 -49 119 -49t120 49q49 50 49 120q0 88 -73 139q73 50 73 139q0 51 -28 93
q-27 41 -72 61q45 20 72 61q28 42 28 93q0 70 -49 120z" />
    <glyph glyph-name="q" unicode="q" horiz-adv-x="910" 
d="M500 89q0 -19 -12 -30q-11 -10 -28 -10q-16 0 -27 10q-12 11 -12 30v259q-59 5 -105 44t-66 99q-7 21 7 36q12 14 32 14q29 0 38 -28q23 -70 94 -81v110q-59 6 -105 45q-46 38 -66 98q-7 22 7 37q12 14 32 14q4 0 9 -2q22 -5 29 -27q23 -69 94 -81v109q-75 7 -127 66
q-29 33 -44 77q-7 21 7 36q12 14 32 14q12 0 21 -6q12 -7 17 -22q23 -70 94 -81v161q0 19 12 30q11 10 27 10q17 0 28 -10q12 -11 12 -30v-161q71 11 94 81q2 7 7 13q11 15 31 15t32 -14q14 -15 7 -36q-18 -53 -56 -90q-49 -47 -115 -53v-109q71 12 94 81q4 14 15 22
q10 7 23 7q20 0 32 -14q14 -15 7 -37q-20 -60 -66 -98q-46 -39 -105 -45v-110q71 11 94 81q9 28 38 28q20 0 32 -14q14 -15 7 -36q-20 -60 -66 -99t-105 -44v-259zM372 89q0 -38 25 -64q26 -25 63 -25q38 0 64 25q25 26 25 64v177q142 33 214 166q66 121 66 306
q0 242 -88 440q-105 240 -287 240q-181 0 -287 -240q-87 -198 -87 -440q0 -189 69 -311q75 -134 223 -163v-175z" />
    <glyph glyph-name="r" unicode="r" horiz-adv-x="1577" 
d="M973 632q45 59 83 120q51 -37 113 -22q-12 -15 -26 -28q-60 -54 -170 -70zM313 427q-15 46 -12 104q17 -1 52 3q-16 -60 -25 -123zM1365 1344q-50 63 -140 36q-42 43 -104 38q-61 -5 -98 -52q-66 1 -115 -51q-42 -46 -45 -112q-2 -63 30 -117q-71 -72 -36 -164
q29 -79 122 -90q-172 -354 -538 -500q3 106 45 201q55 15 89 70q88 -37 143 22q41 45 6 114q71 45 73 106t-64 109q51 71 27 119q-25 48 -122 70q-22 72 -24 76q-33 55 -104 61q-71 5 -116 -43q-18 -18 -43 -28q-90 -33 -84 -126v-21q-74 -15 -104 -63q-30 -47 -5 -110
q-30 -6 -50 -30q-19 -24 -21 -55q-16 -41 3 -82q19 -42 63 -63q23 -11 25 -24q11 -50 44 -76q-19 -183 97 -285q-1 -50 3 -95q-3 -76 15 -145q1 -5 4 -10q10 -23 42 -18q8 1 108 26q0 1 -1 1q0 1 -1 2q19 14 9 35q-31 63 -46 132q254 127 446 341q22 1 45 3q119 -2 221 59
q100 60 155 162q14 6 28 14q61 37 55 109q83 59 94 167q6 55 -24 108q-28 48 -77 81q5 53 -30 98z" />
    <glyph glyph-name="s" unicode="s" horiz-adv-x="1445" 
d="M861 595h4v9q17 37 34 68q27 -24 51 -38q-45 -40 -100 -65q7 18 11 26zM549 719q16 6 32 -6q14 -11 32 -28q1 -3 0 -2q15 -48 47 -156q5 -37 7 -78q-127 105 -119 270h1zM1229 1071q10 92 -40 162q-52 70 -142 84q-27 4 -62 23q-59 31 -114 16q-29 -9 -51 12
q-73 65 -166 45q-93 -19 -129 -108q-19 -48 -65 -66q-14 -6 -19 -12q-17 -18 -50 -5q-92 40 -174 -13t-86 -153q-1 -28 -18 -56q-55 -88 -19 -178q-13 -34 -2 -70q11 -38 43 -61q65 -47 145 17q18 2 36 7q50 16 68 7q4 -3 10 -7q4 -3 3 -2h1q10 -5 21 -8q62 -220 247 -357
q-12 -136 -74 -257q-32 -20 -78 -14q-19 2 -80 19q-76 21 -134 3q-13 -4 -14 -18v0q-2 -8 -5 -22q-4 -16 -5 -22q-5 -21 17 -25q3 -1 6 -1h828q10 0 15 8q8 6 8 16v30q0 15 -14 19q-5 5 -13 5h-250q-21 25 -38 43q-58 64 -36 138q9 28 12 58q7 57 20 173q130 13 219 105
q36 0 65 19l7 3q62 -50 148 -19q34 13 57 42q24 30 25 65q0 5 -1 13q26 65 5 137t-77 113q-56 40 -50 92z" />
    <glyph glyph-name="t" unicode="t" horiz-adv-x="1463" 
d="M1196 880q3 -29 -16 -43q-101 -71 -204 -136q-37 -23 -44 24q-1 8 0 32q4 164 4 175q-1 29 10 52q59 34 125 52q55 -48 115 -13q31 18 42 52q12 34 -2 69q-12 31 -42 47q-31 16 -65 10q-37 -7 -57 -34q-21 -26 -21 -66q0 -7 -4 -26q-60 -19 -115 -51q-19 -3 -34 3
q-8 8 -24 25t-24 25q51 86 -3 139q-24 23 -58 26q-33 3 -62 -14q-29 -19 -39 -52q-11 -32 2 -65q13 -35 40 -47q28 -12 87 -6q55 -59 71 -75q25 -47 27 -90q1 -25 1 -55q-168 117 -198 138q-143 102 -155 214q23 6 41 21q16 13 25 29q14 13 15 33q3 91 -89 130
q-65 27 -129 -31l-4 -4q-9 -9 -16 -18q-10 -14 -6 -33q-7 -48 33 -88q39 -38 92 -42q13 -109 120 -202q27 -23 266 -188q1 -2 4 -2q-2 -30 -5 -70q-6 -80 -32 -149q-21 16 -31 41q22 16 28 44q5 27 -7 52q-11 24 -40 34q-28 9 -53 0q-44 -16 -45 -63q-5 -32 18 -59
q19 -23 54 -23q16 -44 56 -69q-15 -29 -33 -55q-46 -65 -98 -11q-47 50 -126 151q-22 29 -14 73q2 4 6 13q58 5 86 22q27 17 35 53q7 34 -7 64q-13 30 -43 45q-23 11 -49 10q-34 2 -64 -21q-28 -21 -39 -54q-9 -27 3 -55q11 -27 36 -43l-15 -31q-14 0 -29 12q-16 14 -49 47
q-31 31 -49 47q-40 33 -50 77q24 110 31 147q7 3 14 5q45 12 62 56q16 44 -8 85q-34 55 -97 45q-66 -11 -80 -78q-13 -61 44 -100q11 -8 17 -14l-32 -152q-16 5 -28 7q-13 91 -77 101q-35 5 -65 -10q-29 -15 -42 -45q-13 -31 -5 -64q8 -32 35 -52q30 -24 61 -18q32 5 81 43
q20 -4 39 -11q86 -77 112 -100q155 -136 246 -322q-162 24 -242 168q13 12 22 27q17 30 5 65q-11 33 -40 51q-15 9 -32 11q-13 5 -26 6q-52 1 -75 -46q-8 -4 -11 -14v-1v0q-5 -9 -2 -19q-3 -68 58 -96q29 -13 60 -5q45 -85 128 -138q82 -53 178 -59q24 -53 27 -69
q-17 -107 -55 -212q-8 -22 9 -37q4 -7 7 -8q111 -24 178 0q10 4 11 16q8 13 4 29q-32 117 -30 234q2 7 5 21t5 21l2 1q26 13 71 35q50 25 71 35q-2 2 1 0q21 -19 49 -17q27 1 48 20q22 18 21 49q-1 28 -18 51q-18 23 -51 22q-30 0 -52 -19q-3 -3 -5 -7q-3 -2 -5 -5
q-15 -23 -10 -52l-1 -1h-1q-49 -24 -105 -52q7 28 14 47q3 10 7 24q107 129 277 133h1q3 -25 18 -43q24 -29 63 -35q41 -5 69 19q29 24 33 64q5 41 -20 69q-26 30 -67 31q-40 2 -70 -25q-8 -7 -7 -17q-7 -8 -12 -17q-4 1 -8 1q-121 -3 -220 -69q16 23 34 41q97 99 248 174
q22 11 51 6q75 -12 108 47q14 27 10 60q-4 32 -25 54q-22 24 -54 29q-33 5 -62 -11q-57 -31 -48 -107z" />
    <glyph glyph-name="u" unicode="u" horiz-adv-x="1529" 
d="M837 69h-131l11 368l3 94q-4 4 -6 11q-12 41 -76 63q-6 2 -104 23q-4 -1 -8 -1h-1h-14q-25 0 -43 -10q-25 -16 -44 -21q-24 -7 -49 -7q-20 0 -40 4q-24 5 -19 30q5 24 28 24h6q11 -3 22 -3q24 0 57 16q-41 17 -74 42q-15 12 -6 29t28 17q9 0 18 -7q34 -27 217 -74
q92 -23 128 -62q11 67 1 136q-1 12 -2 23q-7 7 -19 7q8 0 -81 -28q-45 -13 -83 -14h-5q-83 0 -156 40q-19 11 -12 32q7 20 26 20q7 0 14 -4q13 -7 28 -13q-23 22 -43 32q-14 7 -36 14q-30 11 -36 13q-40 16 -61 43q-11 14 -1 27q9 13 26 13q14 0 23 -12q10 -13 66 -31
q42 -14 66 -30q33 -23 54 -47q29 -32 46 -37q5 -1 10 -4q37 2 70 15q61 24 91 24h8q-8 31 -83 45q-55 9 -91 24q-12 5 -25 11q-86 5 -105 7q-43 4 -64 25q-27 29 -35 74q-12 62 -27 78q-14 14 -5 31q8 16 25 16q11 0 19 -8q21 -21 30 -58q2 -6 7 -31q5 -20 9 -33
q13 -38 61 -41h6h7q-14 17 -23 37q-7 16 3 29t24 13t21 -14q25 -54 85 -80q14 -6 115 -32q35 -9 60 -27q12 36 6 54q-3 10 -11 24q-10 16 -13 23q-19 44 -15 113q2 27 30 27q27 0 25 -27q-3 -53 3 -71q3 -12 13 -29q13 -22 16 -28q3 -8 6 -17q84 92 85 147q1 27 28 27
q28 0 28 -27q-2 -62 -54 -125q-79 -95 -87 -110q-20 -37 -15 -94q0 -3 0 -2q1 -9 3 -25q2 -17 3 -25q-1 5 27 81q18 49 36 82q45 81 171 163q34 22 46 92q3 20 23 20q13 0 22 -9q11 -11 8 -26q-8 -48 -23 -75q57 24 89 56q8 8 19 8q16 0 25 -16q9 -17 -5 -31
q-39 -39 -124 -70q-98 -34 -131 -58q-50 -35 -84 -105q-15 -33 -47 -130q25 20 55 35q12 6 35 17q28 12 38 17q1 4 2 7q9 14 8 42q-1 36 0 43q6 41 36 73q8 8 19 8q16 0 25 -16q9 -17 -5 -32q-20 -21 -22 -89q51 37 66 87q5 20 25 20q14 0 23 -9q9 -11 5 -25
q-27 -96 -165 -161q-66 -31 -89 -45h1q12 2 30 2q8 0 24 -1h25q43 0 67 9h1q26 10 38 32q8 13 22 13q15 0 24 -12q10 -14 2 -29q-7 -12 -16 -22q11 -8 45 -39q27 -25 49 -35q20 -9 12 -30q-7 -21 -28 -21q-6 0 -12 3q-26 13 -59 45q-40 41 -66 41l-3 1q-21 -5 -100 -8l6 -6
q53 -59 91 -68q23 -6 19 -30t-27 -24h-7q-52 13 -86 49q-50 54 -82 63q-32 -15 -49 -49q-2 -4 -5 -8v-6l4 -112zM666 437l-11 -367q-1 -21 14 -37q15 -15 37 -15h131q22 0 37 15q15 16 14 37l-10 367h455q42 0 72 30t30 72v783q0 42 -30 72t-72 30h-1151q-42 0 -72 -30
t-30 -72v-783q0 -42 30 -72t72 -30h484z" />
    <glyph glyph-name="v" unicode="v" horiz-adv-x="1391" 
d="M1071 1118q15 -7 24 -15q0 -1 6 -8q-21 -57 -27 -162q-45 116 -25 160q7 16 22 25zM709 537q-2 4 -3 7q8 53 29 96q1 -43 -10 -90q-8 -6 -16 -13zM660 606q-55 82 -40 137q10 34 59 80q21 -45 32 -72q14 -31 20 -64q-19 -21 -32 -42q-15 -25 -24 -56q-8 9 -15 17z
M582 893q7 15 24 52q7 16 13 27q8 18 10 29q3 1 4 1q4 1 10 2q8 1 11 1q12 3 21 9q11 8 9 10l-10 -1q-4 -1 -11 -1q-17 -1 -23 -4q-6 -1 -10 -5v1q4 4 5 4q9 5 27 6q19 1 27 5q12 4 17 16q1 2 2 5q1 4 -1 4l-4 -4q-8 -7 -25 -6q-22 1 -27 0q-16 -4 -24 -19q-4 8 -11 14
q-3 2 -5 0q-3 -3 0 -5q17 -18 -10 -65q-5 -8 -7 -11q-50 -93 -56 -142t20 -115q-7 7 -8 7q-109 99 -91 217q3 18 9 37q2 1 1 1q6 4 15 6q5 2 14 3q12 1 15 2q18 3 31 12q15 11 12 14l-13 -1q-6 -1 -16 -2q-24 -1 -33 -4q-10 -4 -18 -12q4 8 2 5q7 5 9 6q12 7 38 8q27 2 39 7
q16 7 23 23q2 4 3 7q1 5 -1 6l-6 -5q-12 -11 -36 -9q-31 2 -38 0q-4 -1 -9 -4q19 32 68 94q15 19 23 29q29 37 39 71q4 -29 30 -62q7 -9 15 -19q66 -84 73 -129q12 -78 -60 -144q-4 -3 -6 -4l-2 4q-41 71 -15 98q3 3 0 6q-2 2 -5 0q-35 -30 -3 -99q4 -8 10 -23
q-74 -66 -89 -104q-25 80 4 150zM1201 630q-42 40 -54 46q-28 12 -59 7q6 7 15 16q71 80 154 81q4 1 4 4q0 4 -4 4q-9 1 -18 1q-74 0 -149 -68q-7 -6 -13 -11q27 54 29 145l8 6q5 3 14 7q11 5 14 7q17 9 26 22q11 15 8 18l-13 -6q-5 -3 -16 -7q-23 -9 -30 -15q-6 -4 -11 -11
v4q3 4 4 4q10 11 35 21q27 10 36 19q14 12 16 30q1 4 1 9q-1 5 -3 5l-4 -7q-9 -15 -33 -21q-32 -8 -38 -12q-8 -5 -14 -13q0 3 -1 7v7q-3 105 7 154q5 3 10 3q5 1 12 1q10 1 13 1q14 1 25 8q13 7 11 10q0 1 -11 0h-13q-20 0 -27 -2q-10 -2 -18 -9q1 4 1 3q9 6 11 7
q11 4 32 4q22 -1 32 2q13 5 21 17l2 6q2 4 0 5q0 -1 -5 -4q-10 -8 -30 -5q-25 4 -31 3q-15 -2 -26 -15q4 12 8 21q1 3 -2 5t-5 -2q-7 -12 -14 -28q-6 22 -24 33q-6 4 -38 12q-24 6 -33 20l-4 7q-2 0 -2 -5q-1 -4 0 -8q2 -19 16 -30q10 -9 37 -20q-13 -8 -22 -21
q-10 -16 -12 -40q-7 12 -18 18q-7 5 -38 13q-25 6 -33 20l-4 7q-3 0 -3 -5v-8q3 -19 16 -31q10 -8 37 -19q25 -10 35 -20q2 -2 8 -11q2 -17 6 -35q1 -4 8 -31q34 -137 17 -196q-28 -101 -151 -141q-10 -3 -34 -11q-68 -21 -98 -34q4 30 0 57q-2 14 -5 30h8q11 -1 28 -4
q22 -4 28 -5q33 -4 60 4q32 12 30 19l-25 4q-10 2 -29 7q-43 10 -60 10q-22 -1 -42 -12q2 3 6 7q18 7 23 8q25 4 72 -7q49 -12 72 -10q32 3 54 27q5 6 9 12q6 8 2 10l-13 -6q-27 -12 -69 4q-53 22 -67 22q-9 1 -20 -1q6 5 13 12q21 17 30 25q51 44 33 81q-1 3 -5 2
q-3 -1 -2 -5q12 -30 -47 -73q-10 -7 -14 -10q-61 -47 -89 -74q-11 30 -30 68q5 6 5 7q11 10 36 20q26 10 36 19q14 12 16 31q1 3 0 8q0 5 -2 5l-4 -7q-9 -14 -33 -21q-32 -8 -38 -12q-19 -11 -25 -33q-8 17 -21 40q3 3 10 9q53 47 71 73q9 14 17 35h6q6 -1 15 -3l16 -4
q19 -3 34 1q18 5 17 9l-14 4q-5 1 -16 4q-24 7 -33 8q-10 0 -20 -4q-1 -3 1 3q9 2 11 3q15 1 41 -6q27 -9 40 -8q18 1 32 14q3 3 5 6q3 4 1 5l-7 -2q-16 -6 -39 4q-30 14 -37 15q-22 2 -41 -12q22 64 77 90q3 2 2 5q-2 3 -5 2q-62 -23 -95 -98q-2 -5 -3 -8q0 53 -49 156
q-30 61 -39 92q4 6 10 10l14 7q12 5 15 7q17 9 26 22q11 16 8 18l-13 -6q-5 -2 -16 -6q-23 -10 -31 -16q-11 -8 -17 -23q0 2 -1 4q6 11 11 17q11 10 36 20q26 11 36 19q14 12 16 31q1 4 0 8q0 5 -2 5l-4 -7q-9 -14 -33 -20q-32 -8 -38 -12q-21 -14 -26 -40q-1 11 -1 21
q0 4 -4 4q-3 0 -3 -3q-6 -60 30 -156q-64 63 -64 99q0 18 15 32q3 3 1 6q-3 2 -5 0q-11 -7 -17 -17v11q-5 31 -33 52q-3 2 -5 0q-2 -3 0 -6q23 -22 23 -50q1 -56 -102 -156q49 127 50 204q7 12 11 16q10 10 36 20q26 11 36 20q14 11 16 30v8q0 6 -2 5l-4 -7q-9 -14 -33 -20
q-32 -8 -38 -12q-16 -10 -23 -28v5q-1 4 -4 3q-4 0 -4 -3q0 -62 -34 -145q-4 21 -17 35q-7 6 -39 22q-26 13 -32 31l-2 9q-3 0 -4 -5q-2 -5 -2 -9q-2 -22 10 -38q9 -12 35 -30q25 -17 34 -31q1 -1 5 -11q-2 -4 -2 -3q-3 11 -10 19t-30 24q-10 7 -16 11l-12 10q-5 -2 4 -22
q7 -17 23 -31q3 -2 14 -11q9 -6 14 -11q3 -3 5 -7q-5 -11 -17 -35q-18 -37 -28 -59q-5 49 -25 79q-21 31 -87 77q-2 1 -8 5q-23 15 -28 25q5 11 12 18q10 10 35 20q27 11 37 20q13 11 16 30v8q0 5 -2 5l-5 -7q-8 -14 -32 -20q-32 -8 -39 -12q-23 -15 -26 -43q-3 1 -4 -2
q-9 -23 22 -48q6 -5 17 -14q24 -17 34 -27q43 -35 54 -96q-23 20 -95 38l-20 5q-70 20 -89 76q-11 32 5 111l3 18q8 43 -7 65q-9 13 -27 16q-4 1 -5 -3q-1 -3 3 -4q14 -4 21 -16q12 -24 -8 -84q-8 74 -33 111q-2 3 -5 2q-3 -2 -1 -5q17 -35 19 -119v-20q-8 10 -19 15
q-8 3 -44 8q-28 3 -40 18l-5 8q-3 0 -2 -6q0 -5 1 -10q5 -20 22 -31q12 -9 43 -17q30 -8 43 -18l4 -4v-4q-6 6 -12 10q-10 6 -37 13q-12 3 -18 5q-15 5 -16 5q-3 -3 12 -19q12 -13 32 -21q4 -1 17 -6q10 -3 17 -6q4 -2 10 -6q4 -18 11 -32l-2 1q-43 35 -82 35q-8 0 -17 -1
q-3 -1 -3 -4q0 -4 4 -4q47 2 89 -41q23 -23 38 -31q21 -12 73 -25q72 -19 92 -41q29 -31 20 -104q-7 -29 -8 -55q-2 -13 -2 -19q-2 3 -7 15q-46 105 -125 140q-20 27 -54 21q-7 -1 -36 -16q-23 -11 -39 -6l-7 2q-2 -1 1 -5t6 -6q14 -13 32 -13q13 0 40 10q25 9 40 8
q2 0 9 -2q50 -26 77 -68q16 -26 34 -82q5 -16 4 -13q-33 42 -84 39q-14 -1 -68 -22q-41 -17 -68 -5l-13 6q-4 -2 1 -9q4 -7 10 -12q22 -24 53 -28q24 -2 73 10q47 12 72 7q11 -1 33 -12q2 -4 3 -7q-23 15 -49 16q-17 0 -60 -10q-19 -4 -29 -6l-25 -5q-3 -7 30 -18
q27 -9 60 -5q6 1 28 5q17 4 27 4q15 1 28 -3q6 -11 12 -19q26 -39 106 -110q51 -45 73 -69q22 -39 49 -74l3 -4q1 -5 2 -9q20 -69 -21 -229q-40 -155 -90 -225q-26 -36 -39 -55q-1 -2 0 -4t4 -2l72 -1q2 0 3 2q11 15 26 34q30 41 79 238q27 111 39 138q25 58 37 99
q34 35 152 72q67 21 97 35q13 -2 27 -8q10 -4 25 -14q18 -11 23 -14q30 -17 58 -18q34 -2 35 5q0 1 -22 14q-8 5 -25 17q-35 25 -52 31q-16 6 -36 5q4 3 6 4q17 0 20 -1q25 -5 64 -33q41 -30 64 -36q30 -9 60 5q7 4 13 8q7 5 5 8h-15q-29 -1 -62 29z" />
    <glyph glyph-name="w" unicode="w" horiz-adv-x="1505" 
d="M719 994l-200 161l197 -201l-21 -226l-338 147l331 -216l-17 -192l-436 167l423 -305l-30 -329h253l-31 329l425 305l-437 -168l-18 192l332 217l-338 -147l-21 225l198 202l-202 -162l-35 382zM329 327l1 4q6 31 7 36q-59 -43 -57 -42q3 1 32 1q11 0 17 1zM359 383
q-13 -9 -13 -10q-3 -19 -8 -46q27 1 28 5q0 4 1 10q1 7 2 10q0 5 2 15q2 9 2 14l3 15q-12 -9 -17 -13zM414 423q-14 -10 -24 -17q-4 -3 -5 -14q-5 -29 -9 -58q24 9 25 15q2 10 5 26q3 21 8 48zM420 411q-1 -9 -5 -29q-3 -19 -4 -30q52 39 35 94q-4 -3 -12 -8q-7 -5 -11 -8z
M289 379q-2 -6 -5 -17q-7 -27 -9 -30q-5 -4 55 43q-6 1 -18 2t-19 1zM353 407q-21 2 -28 3q-13 2 -21 2q-4 1 -12 -25q8 0 23 -2q15 -1 23 -2q1 0 14 10l16 13zM366 415q12 -1 16 2q6 5 22 18q-34 4 -49 5q-3 0 -12 1t-13 2q-6 0 -21 -21q29 -3 57 -7zM395 445q19 -3 19 -2
q14 11 21 17q-49 31 -100 -9q42 -5 60 -6zM109 522q9 -5 15 -7l3 3q4 5 12 14t12 14q-23 -3 -70 -8q3 -1 28 -16zM199 551q-6 0 -21 -2q-16 -2 -16 -3l-15 -18q-10 -11 -15 -17q24 -13 27 -9q2 2 6 8q4 5 6 7q9 11 19 23zM217 553q-5 0 -12 -10q-8 -9 -36 -45q25 -4 29 0
l16 20q6 7 16 19q12 15 15 19q-21 -2 -28 -3zM245 543q-9 -11 -37 -46q64 7 77 64q-20 -2 -28 -3zM115 580l-12 -12q-20 -20 -23 -22q23 3 69 10q-12 9 -30 21zM197 564l-12 9q-14 10 -23 17q-3 2 -9 5q-5 4 -8 6q-4 3 -23 -15q17 -12 38 -27q1 -1 17 2q19 3 20 3zM243 572
q-9 6 -40 28q-18 13 -21 15q-4 3 -28 -8q27 -19 47 -34q9 -7 14 -6q9 1 28 5zM282 578q-27 51 -91 41q27 -19 49 -35l15 -11zM317 738q-3 2 -10 6q-18 10 -20 11q4 -7 11 -22q7 -16 10 -23l4 12q3 8 4 13zM326 689q2 3 4 9q2 7 3 10q1 2 3 7q1 4 2 7t-15 12q-2 -5 -5 -15
q-4 -10 -6 -16l5 -11l3 -6q2 -5 3 -7zM344 717q-9 -26 -14 -39q-3 -8 -2 -11q4 -7 9 -18q9 24 12 33q4 11 6 17q1 4 -11 18zM359 694q-2 -7 -7 -20q-4 -13 -7 -20l-4 -13q1 -3 4 -9l4 -8q30 28 10 70zM275 719l3 -1q21 -10 23 -11q-8 19 -19 46q0 -2 -5 -22q-2 -7 -2 -12z
M296 683q6 -2 9 -4l10 -4q-4 8 -6 14q-4 10 -5 11q-37 16 -30 12q-4 -18 -1 -19q7 -3 13 -6q3 -1 10 -4zM295 658q36 -15 32 -13q-4 10 -7 18q-2 4 -10 7q-12 5 -38 15q2 -18 6 -20q4 -1 17 -7zM331 637l-13 5q-16 7 -39 16q18 -42 59 -39zM196 769q-4 3 -11 6
q-18 10 -19 12q4 -9 10 -23q8 -16 11 -23q5 15 8 25zM198 717q3 -5 3 -7l4 10q4 12 7 19q3 11 5 14q1 3 -16 13q-5 -15 -10 -31q-1 -1 4 -11q1 -3 3 -7zM216 681q2 6 11 32q6 16 6 18q1 4 -11 17q-7 -21 -14 -38q-3 -8 -1 -11q3 -7 9 -18zM231 705q-5 -13 -7 -20l-5 -12
q7 -15 9 -18q29 29 10 70q-2 -6 -7 -20zM160 784q0 -2 -5 -22q-1 -7 -2 -12l3 -1q16 -7 24 -11q-16 39 -20 46zM174 715q6 -3 10 -4l9 -4q-3 6 -6 13q-4 11 -5 11q-15 7 -30 13q-4 -19 -1 -20q5 -2 14 -5q3 -2 9 -4zM151 716q2 -18 6 -19q4 -2 17 -8q27 -11 31 -13
q-4 13 -7 19q-1 3 -9 6q-12 5 -38 15zM209 668l-12 5q-17 7 -39 17q17 -43 58 -40zM636 896q-4 3 -11 6q-18 10 -19 11q3 -7 10 -22t11 -23q3 9 8 25zM636 877q-4 -10 -5 -15q-1 -1 4 -11q1 -3 3 -7q3 -5 3 -7l4 10q3 9 7 19q3 8 5 14q1 3 -16 13q-2 -6 -5 -16zM647 826
q2 -5 9 -18q2 5 6 16q3 11 5 16q6 15 6 18q2 3 -11 17q-8 -22 -14 -38q-3 -8 -1 -11zM664 791q2 -6 4 -9q29 29 10 70q-2 -6 -7 -20q-5 -13 -7 -20l-5 -12q2 -3 5 -9zM593 877l3 -1q-6 3 24 -11q-5 11 -20 46q0 -2 -4 -22q-2 -7 -3 -12zM624 838l9 -4l-3 6q-2 5 -3 7
q-4 10 -5 11q-3 1 -15 6q-9 4 -15 7q-4 -19 -1 -20q-1 0 14 -5q8 -4 19 -8zM605 820q7 -3 9 -4q21 -9 32 -13q-5 12 -8 19q-1 3 -9 6q-13 5 -38 16q2 -19 6 -20q3 -2 8 -4zM649 795l-12 5q-29 12 -39 17q17 -43 58 -40zM509 943q-4 3 -11 7q-18 9 -19 11q20 -43 21 -45l4 12
q2 8 4 13zM518 894q1 3 3 10q2 6 4 10q3 9 4 13q1 3 -15 13q-7 -21 -10 -31q-1 -1 4 -11q1 -2 3 -7l3 -6zM535 923q-8 -23 -14 -39q-3 -8 -1 -11q3 -7 9 -18q1 5 5 16t6 17q5 12 6 17q1 4 -11 18zM551 900q-3 -7 -7 -20q-5 -14 -7 -20l-5 -13l9 -18q29 29 10 71zM466 924
q0 1 3 -1q11 -5 24 -10q-9 20 -20 45q0 -2 -5 -21q-2 -8 -2 -13zM487 889q6 -3 9 -4l10 -4q-6 13 -6 14q-4 10 -5 10q-6 3 -15 7q-11 5 -15 6q-4 -18 -1 -20q1 0 13 -5q3 -1 10 -4zM487 864q22 -10 31 -14q-3 10 -7 19q-1 3 -9 6q-11 5 -38 16q2 -18 6 -20q6 -3 17 -7z
M522 842l-12 6q-7 2 -40 16q18 -42 59 -40zM448 724q4 -19 12 -56q4 7 15 25l2 3q-3 4 -10 10q-18 16 -19 18zM463 659q-1 -1 2 -13q2 -11 4 -17l6 10q5 8 13 20q1 3 4 7q3 5 4 7q3 4 -14 18q-19 -31 -19 -32zM472 615q2 -10 5 -23q20 32 21 34q7 10 11 18q3 4 -7 22
q-15 -23 -26 -39q-5 -9 -4 -12zM482 571q2 -8 2 -11q41 25 29 77q-12 -19 -26 -42q-8 -12 -8 -13q1 -4 3 -11zM425 686l2 -2q4 -3 25 -18q-2 9 -6 28q-3 19 -5 28q0 -2 -11 -23q-4 -8 -5 -13zM429 648q17 -12 20 -14q10 -7 9 -7q0 2 -3 17q-2 12 -3 13q-14 11 -30 22
q-9 -20 -6 -22q4 -3 13 -9zM432 613q20 -14 33 -23q-2 12 -4 22q-1 4 -9 10q-7 5 -39 27q-2 -21 2 -24q1 0 17 -12zM414 617q10 -52 56 -59l-3 22l-13 9q-5 3 -40 28zM576 695q3 -11 7 -32q5 -21 7 -31l9 15t8 14l2 3q-3 5 -11 11q-20 17 -22 20zM593 623q-1 -2 2 -15
q1 -4 3 -10q1 -6 2 -9l7 11q1 3 14 23q5 8 10 15q2 4 -16 20q-19 -31 -22 -35zM603 573q2 -6 6 -25q18 27 24 37q9 14 12 21q3 4 -8 25q-20 -31 -29 -45q-6 -9 -5 -13zM614 524l3 -12q45 28 33 85l-29 -46q-10 -15 -10 -14q1 -4 3 -13zM550 653q0 -1 3 -3q16 -11 27 -20
q-6 35 -11 63q-1 -2 -12 -26q-5 -9 -7 -14zM556 610q2 -2 10 -8q7 -5 11 -8l11 -7q0 3 -2 9q-1 6 -1 9q-3 15 -4 15q-23 17 -34 25q-10 -22 -7 -25q5 -3 16 -10zM559 571q6 -5 18 -13q12 -9 18 -13q-2 16 -4 25q-1 5 -10 11q-16 11 -43 30q-3 -23 2 -27t19 -13zM561 560
q-15 10 -22 15q10 -58 62 -66q-3 18 -4 25l-14 10q-7 5 -22 16zM671 1145q-3 3 -9 5q-14 8 -16 9l9 -18t8 -18q1 3 4 10q2 6 3 10zM678 1106q1 2 3 8q2 4 3 7q0 2 1 6q2 3 2 5q1 3 -12 10q-1 -4 -4 -12q-3 -9 -4 -13q-1 0 3 -8l3 -6q1 -3 2 -5zM692 1128q-7 -19 -11 -31
q-3 -6 -1 -9q2 -5 7 -14q9 25 9 26q3 9 5 14q1 3 -9 14zM705 1110q-7 -18 -12 -32q-3 -10 -3 -11q8 -17 6 -14q24 23 9 57zM636 1130l3 -1q3 -2 9 -4q7 -3 10 -5q-3 7 -8 19q-6 14 -8 18q0 -1 -4 -17q-1 -7 -2 -10zM661 1098l8 -3q-1 2 -3 5q-1 4 -2 6l-4 8q-10 4 -25 11
q-3 -15 0 -16q1 -1 5 -2q3 -2 5 -3q10 -3 16 -6zM653 1081q4 -2 13 -6q8 -3 13 -5q-5 11 -6 15q-2 3 -8 5q-12 5 -31 13q2 -15 5 -16q1 0 14 -6zM681 1064l-10 4l-15 6q-11 5 -16 7q14 -34 47 -32q-6 17 -6 15zM706 1408q3 11 4 12v2q-2 1 -5 3q-9 4 -10 5zM708 1405
q-1 -1 2 -5q0 -2 1 -4t2 -3l1 5q2 3 4 9q0 1 1 3q1 3 1 4q1 1 -7 6q-1 -2 -5 -15zM723 1411q-3 -8 -7 -18q-1 -4 -1 -6q2 -3 5 -8l5 15q3 7 3 9q1 2 -5 8zM727 1391q-2 -7 -3 -10l-3 -6l4 -9q15 14 5 34zM689 1412q0 1 2 0l11 -5q-2 5 -9 22q0 -1 -3 -11q0 -3 -1 -6z
M692 1398q2 0 3 -1q7 -3 9 -4l5 -2l-3 7q-2 5 -3 5l-14 6q-2 -9 -1 -9q1 -1 4 -2zM707 1389q-11 4 -19 7q1 -9 3 -10q3 -1 8 -3q3 -1 8 -3t8 -4q-3 6 -4 9q-1 2 -4 4zM691 1383q9 -20 29 -19q-1 3 -4 9q0 -1 -6 2q-15 6 -19 8zM614 1338q-10 1 -11 1q-1 2 18 -16v6
q-1 5 -1 6v2q-2 0 -6 1zM632 1333q0 2 -9 3q1 -9 1 -16l4 -4l2 -2l3 -3v5q0 7 -1 10v7zM645 1300q-1 13 -1 17v9q0 2 -8 6v-20q0 -4 2 -5q1 -2 7 -7zM648 1297l7 -6q8 18 -8 33v-10v-10zM604 1321h2l12 -1q-10 11 -17 17q1 -1 2 -10q1 -4 1 -6zM613 1317q-6 1 -8 1
q1 -9 3 -9q3 0 7 -1h10h5l-5 5l-4 4h-8zM609 1305q4 -8 6 -8h9q11 0 17 -1q-4 5 -7 8q-1 1 -5 1h-20zM644 1294q0 -1 -7 0h-20q15 -16 33 -7zM575 1291q-10 2 -11 2q7 -7 18 -17q0 2 -1 7v6v1q-2 1 -6 1zM593 1287q0 1 -9 3v-8q1 -5 1 -8l4 -4q1 -1 2 -3q2 -1 3 -2v5
q-1 7 -1 10v7zM598 1261q3 -3 8 -7q-1 13 -1 17v9q0 2 -8 6v-20q0 -4 1 -5zM608 1257l1 -6l7 -6q8 18 -8 33v-21zM565 1274h2h12l-8 8q-5 6 -9 9q1 -1 2 -11q0 -3 1 -6zM566 1271q1 -9 3 -9h7q11 0 10 0h5q-1 0 -3 2q-1 2 -2 3l-4 4h-16zM570 1259q4 -8 6 -8q14 -1 9 -1h8h9
l-7 7q-1 1 -5 1q-14 1 -20 1zM578 1248q15 -16 33 -8l-6 7h-7zM700 1343v1q-2 2 -6 4q-11 6 -11 7q2 -5 6 -14t6 -13q2 7 5 15zM709 1327q1 1 2 4q1 2 1 4q1 2 -9 7q2 4 -6 -18l2 -6l4 -8l2 6t4 11zM716 1332q-5 -14 -9 -23q-2 -4 -1 -6q2 -3 5 -11q2 4 4 10q2 7 3 9t2 5
q1 4 2 6t-6 10zM716 1295l-3 -7l3 -6q1 -3 2 -5q18 17 6 41zM675 1333q0 1 2 0t7 -4q4 -2 7 -3q-1 3 -11 27q0 -1 -4 -13q-1 -4 -1 -7zM682 1315q3 -2 11 -5l5 -2q0 1 -1 4q-2 2 -2 4l-3 6q-3 1 -9 4q-6 2 -9 4q-2 -11 0 -12zM677 1302q6 -2 10 -4q3 -2 9 -4q6 -3 9 -4
q-2 6 -4 11q-1 2 -5 4q-9 3 -22 9q1 -11 3 -12zM677 1298q10 -25 34 -24l-4 11l-7 3q-4 2 -23 10zM606 1204q-5 11 -5 13q-4 -18 -7 -29q2 1 13 9l1 1q0 2 -2 6zM612 1183q2 1 -2 11q-3 -2 -8 -5q-6 -4 -8 -5q-1 -1 -2 -7q0 -2 -1 -4q-1 -3 -1 -5l5 4q2 1 5 3t5 3q6 4 7 5z
M593 1166q-4 -3 -5 -5l-2 -12q6 4 17 12q1 1 4 3t5 2q2 2 1 13q-11 -7 -20 -13zM591 1149l-6 -4q-1 -3 -1 -6q-1 -4 -2 -6q24 3 30 29q-5 -3 -21 -13zM587 1209l-5 -5l1 -1q1 -3 3 -7q3 -5 4 -7q1 5 4 14q2 10 3 14q-1 -1 -10 -8zM574 1189l2 -4t6 -10l3 -5l2 8q2 6 1 7
q1 -1 -9 17q-8 -7 -7 -9q0 -2 2 -4zM581 1169q-2 3 -12 20q-6 -9 -5 -11q1 -1 6 -9q0 -2 10 -18q2 10 3 11q0 2 -2 7zM578 1146l-3 7q-9 14 -13 21q-7 -25 13 -39zM407 977q-2 2 -8 5q-15 8 -17 10q13 -28 18 -38q1 4 3 10q2 7 4 11v2zM415 937q2 6 5 16q1 1 2 5q2 4 2 6
q1 3 -12 10q-2 -4 -5 -13q-3 -8 -4 -12q0 -1 4 -9q6 -13 5 -12zM429 960q-11 -31 -11 -32q-3 -7 -2 -9q2 -3 8 -15q11 33 9 27q4 10 5 14q1 3 -9 15zM442 941q-3 -9 -12 -33l-3 -11q2 -5 7 -14q24 23 8 58zM372 961l2 -1q2 0 20 -8q-7 17 -16 38q0 -2 -4 -19q-2 -6 -2 -10z
M389 932q5 -2 8 -3l8 -4q-1 2 -2 6l-3 6q-3 8 -4 8l-12 6q-9 4 -13 5q-3 -15 -1 -16t6 -2q3 -2 5 -3q3 -1 8 -3zM389 911q4 -2 13 -5q9 -4 13 -6q-4 11 -6 16q-1 2 -7 5q-11 4 -32 13q2 -15 5 -17q5 -2 14 -6zM418 893l-10 5q-23 9 -32 13q14 -35 48 -32q-2 5 -6 14z
M262 903l-1 2q-4 -2 -9 -5q-13 -10 -14 -11q10 0 37 -1zM301 888l-5 6q-4 5 -10 12l-4 4q-2 3 -3 4q-2 2 -14 -6l16 -19q1 -1 9 -1h11zM326 888q-13 16 -17 20q-5 6 -9 11q-2 2 -16 -2q14 -17 20 -24q4 -5 7 -5h15zM347 888q-8 32 -42 32q13 -15 21 -24l7 -8h14zM257 867
l2 1q5 5 16 14l-38 2q2 -1 13 -11q4 -4 7 -6zM271 872q-7 -5 -10 -8q11 -10 13 -8l8 8q3 3 12 11l7 6h-6h-6q-8 1 -8 0q-4 -3 -10 -9zM278 853q13 -5 16 -3l5 5q4 4 6 5q3 3 10 9l10 10q-8 1 -15 1q-2 0 -7 -5q-8 -7 -25 -22zM346 878q-3 0 -14 1l-8 -8q-2 -1 -25 -23
q34 -2 47 30zM497 1234q-2 2 -7 4q-10 6 -11 7q2 -4 6 -14q4 -8 6 -13q3 8 5 15q0 2 1 1zM497 1223q-2 -5 -3 -9q-1 0 2 -6q2 -3 4 -8l2 6q2 6 4 11l3 8q0 2 -9 7q-1 -2 -3 -9zM508 1183q4 10 7 19q2 7 3 10q1 2 -6 10q-5 -13 -8 -22q-2 -5 -1 -7q2 -5 5 -10zM513 1185
l-3 -7l5 -10q17 16 6 41zM476 1243q0 -1 -3 -13q-1 -4 -1 -7h1q1 -1 14 -7zM484 1202q4 -1 5 -2l6 -2l-3 8l-3 6q-3 1 -9 4q-6 2 -9 4q-2 -11 -1 -12q4 -2 8 -3zM474 1192q2 -1 10 -4q-1 0 18 -8q-3 7 -4 11q-1 2 -6 4q-9 3 -22 9q1 -11 4 -12zM504 1175l-7 3q-4 2 -11 5
q-9 4 -12 5q11 -25 35 -23zM365 1063q-2 -2 -4 -6q-7 -10 -8 -11q20 8 28 10l-15 6zM399 1063l-5 3q-8 3 -11 5q-1 0 -4 1q-2 2 -4 2q-2 1 -8 -8q3 -1 9 -4q6 -2 9 -4l6 2q5 2 8 3zM417 1070q-3 2 -9 4q-6 3 -9 4q-7 4 -10 5q-2 1 -11 -6q15 -7 22 -10q4 -2 6 -1q2 0 11 4z
M433 1076q-16 19 -41 9q4 -1 12 -5q7 -3 11 -5l7 -3q4 1 11 4zM374 1037l1 2q6 11 7 13q-12 -4 -28 -9q2 0 13 -4q4 -1 7 -2zM382 1045q-3 -6 -5 -9q11 -3 12 -1q1 1 4 7l3 6q1 3 2 5q3 6 3 5q-1 0 -4 -1t-4 -1q-6 -2 -7 -3q-1 -3 -4 -8zM393 1034q11 0 12 3l5 9q2 3 5 9
t5 9q-9 -2 -12 -3q-2 -1 -4 -5q-7 -15 -11 -22zM424 1066l-3 -7q-2 -4 -6 -11q-4 -8 -6 -11q26 8 26 32zM327 1008q-2 2 -6 4q-10 7 -11 8q-2 5 10 -28q4 10 6 14zM327 973l3 6q-2 -5 5 11q-1 -1 3 8q1 1 -8 8q-2 -5 -8 -18q0 -1 2 -7q-1 5 3 -8zM334 955q3 7 9 19q2 6 4 10
q1 2 -5 11q-2 -3 -6 -11q-3 -7 -5 -11q-2 -5 -1 -7t4 -11zM340 940q19 15 9 40q-2 -6 -10 -22q-3 -7 -3 -8q3 -6 4 -10zM307 1018q0 -1 -4 -12q-1 -5 -2 -7l2 -1q9 -5 13 -7zM317 974l5 -2q0 1 -1 4q-1 2 -1 4q-2 6 -3 6q-3 2 -8 5q-6 3 -9 4q-3 -10 -1 -11q1 -1 4 -2
q2 -1 3 -2q11 -5 11 -6zM310 962q3 -1 9 -4t9 -5q-1 4 -3 11q-1 2 -5 5q0 -1 -22 10q1 -10 3 -11q8 -5 9 -6zM323 952q-4 2 -11 6q-7 3 -11 5q8 -25 32 -26q-2 9 -3 11zM686 1250l1 2q-3 2 -8 5q-13 7 -15 8q10 -21 16 -34q4 13 6 19zM691 1250q0 -1 -8 -24l3 -8l5 -10l3 7
q1 3 2 7q2 6 3 8q1 1 2 5q1 3 2 5q1 3 -12 10zM707 1236q-9 -25 -11 -29q-2 -6 -1 -8l7 -14q5 15 9 25q2 7 4 13q1 3 -8 13zM708 1189l-3 -10q5 -10 6 -13q22 22 8 53q-3 -9 -11 -30zM655 1238l2 -1q12 -5 18 -8l-15 35q0 -2 -4 -17q-1 -6 -1 -9zM665 1228q-7 3 -11 5
q-3 -14 -1 -15l10 -4q3 -1 15 -6l7 -3q-2 3 -4 10l-4 8q-4 2 -12 5zM653 1212q2 -14 4 -15q3 -1 7 -2q5 -3 6 -3q4 -2 12 -5q8 -4 12 -5q-3 8 -5 14q-1 2 -7 5q-13 5 -29 11zM688 1180q-19 7 -30 12q14 -32 45 -30q-4 9 -6 14zM464 1057q-2 -3 -5 -9q-6 -15 -7 -17
q4 2 35 21q-4 1 -10 2q-7 2 -11 2zM502 1068q-2 1 -8 2q-5 1 -8 2q-2 1 -5 1q-4 1 -6 2q-3 0 -9 -14q5 -1 13 -2q9 -3 13 -3q1 -1 8 4q2 1 5 3l6 3zM478 1080q25 -6 32 -8t9 0q4 2 14 8q-4 2 -13 4t-14 3q-9 2 -15 3q-3 1 -13 -10zM512 1090q12 -2 17 -4l10 -2q2 1 7 4
q4 3 7 4q-26 21 -58 2q6 -1 17 -4zM483 1024v3q6 17 7 20q-11 -6 -35 -20q2 0 18 -2q6 -1 10 -1zM507 1036q4 12 5 16l2 8q-13 -7 -10 -6q-8 -4 -8 -5q-2 -4 -4 -12q-3 -9 -4 -13q15 -2 16 1zM523 1065q-2 -1 -4 -8q-2 -6 -5 -16q-3 -11 -4 -16q14 4 15 7q1 2 5 14q1 5 4 13
q3 10 4 14q-10 -5 -15 -8zM541 1066q-6 -19 -10 -33q32 18 27 51q-8 -5 -14 -8zM415 1144q-3 -2 -7 -5q-11 -9 -12 -10q14 1 34 1q-8 7 -13 12zM454 1131q0 -1 -5 5q-8 7 -11 9q-1 1 -3 4q-3 2 -4 3q-2 2 -12 -6l17 -15q0 -1 8 0h10zM477 1132q-3 2 -9 8q-6 5 -9 8
q-6 5 -9 9q-2 1 -14 -2l20 -20q4 -4 7 -4t14 1zM496 1132q-10 27 -41 26q2 -3 10 -10q7 -6 11 -10l7 -6h13zM415 1111l2 2q9 8 13 12h-34q2 0 12 -9q5 -3 7 -5zM439 1110l5 5l5 5l5 5h-10q-8 0 -8 -1q-7 -6 -17 -15q11 -8 12 -6zM477 1124h-14q-3 0 -7 -4q-7 -7 -20 -19
q12 -4 14 -2q0 -1 9 9q-1 -2 18 16zM476 1118l-21 -21q32 0 41 27h-7h-6zM548 975q-11 -13 -12 -14q29 7 39 9l-18 11l-2 1q-3 -2 -7 -7zM581 972q1 0 10 2q10 2 11 2l-7 5q-9 6 -14 8q-2 2 -5 4t-5 3t-12 -10q7 -5 22 -14zM604 982q6 -4 9 -3q4 1 15 4q-25 15 -24 14l-12 8
t-16 -6q7 -4 28 -17zM626 990l9 -6q3 1 8 2t7 2q-17 28 -53 20q18 -11 29 -18zM577 964q-23 -4 -40 -7q2 -1 17 -8q5 -3 9 -4l1 2q3 4 13 17zM590 949q1 2 4 7q4 4 5 6l5 7q-2 0 -6 -1t-6 -1l-9 -2q-3 -4 -8 -11t-8 -11q14 -6 16 -4q3 5 7 10zM614 951q7 9 16 23
q-7 -1 -16 -3q-3 0 -7 -6q-6 -10 -18 -28q15 -1 17 2q3 5 8 12zM611 938q37 7 42 40q-9 -2 -16 -3l-6 -9q-9 -12 -20 -28zM312 788q-6 -15 -7 -17q4 3 35 21q-15 3 -21 4l-2 1q-2 -3 -5 -9zM363 806q1 0 -8 2q-2 1 -8 2q-5 1 -8 2q-2 1 -6 2q-3 0 -5 1q-3 1 -9 -14
q7 -1 26 -5l8 4q7 4 10 6zM386 821q-20 4 -27 6q-8 2 -15 3q-3 1 -13 -10l32 -8q7 -2 9 0zM382 826l10 -2q2 1 7 4q4 3 7 4q-26 21 -58 2q36 -8 34 -8zM326 765q6 -1 10 -1v3q6 16 7 20q-13 -7 -35 -20q1 0 18 -2zM360 776q3 11 5 16l2 8l-10 -6q-8 -4 -8 -5q-2 -4 -4 -12
q-3 -9 -4 -13q15 -2 16 1zM383 786q1 4 4 13q2 9 4 14q-10 -6 -15 -8q-2 -1 -4 -8q-3 -10 -9 -32q14 4 15 7t5 14zM397 816q-1 0 -3 -10q-2 -6 -5 -17q-4 -11 -5 -16q32 18 27 51q-18 -10 -14 -8zM463 182l1 5q3 11 9 43q-28 -21 -68 -49q4 1 38 0q13 0 20 1zM510 256
q-7 -5 -10 -8q-15 -10 -16 -12q-6 -31 -10 -54q32 0 33 6q2 15 4 24q4 22 6 34l3 17q-3 -3 -10 -7zM531 258q-4 -21 -12 -68q29 10 31 17q2 11 5 30q4 23 11 57q-18 -12 -28 -19q-5 -3 -7 -17zM573 281q-2 -13 -6 -35q-5 -26 -6 -35q62 44 43 111q-4 -4 -13 -10t-14 -9z
M417 245q-3 -7 -7 -20q-9 -33 -11 -36q26 20 67 51q-32 3 -44 4zM436 284q-6 1 -15 -29q40 -5 54 -6q2 -1 16 11q4 2 10 8q7 5 10 7l-17 2q-4 1 -35 4q-8 1 -23 3zM509 287q14 -2 19 1q9 7 26 21q-10 2 -28 4q-20 2 -29 3q-28 3 -31 4q-7 0 -25 -24q47 -7 68 -9zM579 328
q9 7 13 10q-58 38 -119 -9q14 -1 35 -4q28 -3 36 -4l22 -3q5 4 13 10zM1176 327q6 -1 17 -1q29 0 32 -1q-10 7 -29 21t-28 21q3 -16 7 -36q1 -5 1 -4zM1129 396l2 -15q6 -34 5 -29q1 -5 3 -20q1 -4 28 -5l-8 46q0 1 -13 10q-6 4 -17 13zM1091 423q9 -54 8 -48q3 -18 4 -26
q1 -6 26 -15q-5 29 -9 58q-2 11 -6 14q-9 7 -23 17zM1081 430q-6 5 -22 16q-17 -55 35 -94q-3 19 -10 59q-2 19 -3 19zM1211 378q-6 0 -18 -1q-13 -1 -19 -2q10 -7 28 -21q18 -15 28 -22q-2 2 -9 30q-3 11 -6 17zM1180 410l-29 -3q-15 -2 -14 -1q2 -2 8 -7q5 -4 8 -6
q12 -10 14 -10l45 4q-7 26 -12 25q-14 -1 -20 -2zM1196 422q-15 21 -21 21q-5 -1 -13 -2q-10 -1 -13 -1q-16 -1 -48 -5q16 -13 22 -18q4 -3 15 -2q20 3 58 7zM1169 451q-50 40 -99 9q5 -4 21 -17l19 2zM1380 515q7 2 16 7q25 15 28 16q-10 1 -35 4q-22 2 -35 4
q21 -25 24 -28zM1306 551q0 1 9 -11q9 -11 18 -23q9 -10 13 -15q3 -4 26 9l-29 35q-1 1 -16 3q-14 2 -21 2zM1260 556q17 -21 30 -38q11 -13 17 -20q3 -4 29 0l-36 45q-7 10 -12 10q-7 1 -28 3zM1220 561q13 -57 77 -64q-31 38 -38 46l-12 15q-8 1 -27 3zM1389 580l-3 -3
l-31 -20q47 -8 70 -11q-3 1 -23 22q-8 8 -13 12zM1307 564l21 -3q16 -3 17 -2q7 5 19 13q15 11 18 14q-19 18 -23 15q-21 -15 -16 -11q-7 -5 -24 -17zM1351 607q-24 11 -28 8q-4 -2 -22 -15q-28 -20 -39 -28q19 -4 28 -5q5 -1 14 6q20 15 47 34zM1250 573q-1 0 15 11
q4 4 48 35q-63 10 -91 -41zM1198 744q-7 -4 -11 -6l1 -3q2 -5 4 -13l4 -12q4 7 21 45q-1 -1 -19 -11zM1182 679q1 2 3 7l3 6q5 10 4 11q-5 16 -10 31q-17 -9 -15 -12q0 -2 2 -7q2 -4 2 -7q8 -22 7 -19zM1175 678q-3 8 -14 39q-12 -14 -11 -18q2 -5 6 -17l11 -33l9 18
q2 3 -1 11zM1159 654q-1 3 -14 40q-19 -42 10 -70q5 10 9 17q0 1 -5 13zM1228 731q-5 20 -5 22q-9 -21 -20 -46q6 2 24 11l3 1q0 4 -2 12zM1201 700q-1 -1 -5 -11q-3 -6 -6 -14l10 4q5 3 19 8q7 3 13 6q3 1 -1 19q-37 -16 -30 -12zM1194 670q-8 -3 -9 -7q-3 -8 -7 -18
q28 12 31 13q13 5 17 7t6 20q-23 -9 -38 -15zM1186 642l-12 -5l-7 -18q41 -3 59 39zM1339 787q-2 -2 -20 -12q-7 -3 -10 -6l1 -3q1 -4 4 -12q2 -8 4 -13q17 37 21 46zM1303 710q4 9 7 14q4 10 4 11q-2 5 -5 15q-4 11 -5 16q-17 -10 -16 -13q1 -2 3 -7q1 -4 2 -7q2 -6 7 -19z
M1283 697q4 -11 6 -16l9 18q1 3 -2 11q-6 17 -14 38q-12 -13 -11 -17q1 -2 7 -18q1 -5 5 -16zM1267 725q-19 -41 10 -70q2 4 8 18l-4 12q-13 37 -14 40zM1351 750q0 5 -2 12q-5 20 -5 22q-3 -7 -9 -23q-7 -15 -10 -23l12 6v0v0v0q2 1 0 0v0h1q1 1 0 0v0q1 0 0 0q1 1 0 0t1 0
v0v1h1q-2 -1 0 0v0q2 1 0 0q1 0 0 0v0h1v0v0v1h1v0v0v0v0q-1 -1 0 0q1 0 0 0q1 0 0 0q-2 -1 1 0v0l3 2l3 1q3 1 2 1zM1312 707l9 4q4 1 10 4q6 2 9 4q16 6 13 5q4 1 -1 20q-25 -11 -30 -13l-5 -11q-3 -8 -5 -13zM1354 716q-25 -10 -38 -15q-8 -3 -9 -6q-2 -4 -8 -19
q13 5 32 13q12 6 17 8q4 1 6 19zM1288 650q41 -3 59 40q-24 -11 -39 -17l-12 -5zM870 893q5 -16 8 -25q3 8 10 23t11 22q-2 -1 -20 -11q-7 -3 -10 -6zM851 873q1 -4 2 -7l3 -9q3 -7 4 -10l3 -10q1 2 3 7q2 4 4 7q4 10 4 11q-4 12 -11 31q-16 -10 -15 -13q1 -2 3 -7zM856 837
q-6 16 -14 38q-12 -13 -11 -17q2 -5 6 -18q2 -5 6 -16t6 -16l9 18q1 3 -2 11zM845 800l-4 12q-15 41 -14 40q-20 -41 10 -70q2 4 8 18zM909 889q-5 20 -5 22q-10 -24 -19 -46q3 1 12 6q7 3 12 5l2 1q0 5 -2 12zM897 864q-11 -5 -15 -6q-1 -1 -5 -11q-1 -2 -3 -7q-2 -4 -2 -6
l9 4q10 4 19 8q6 2 13 5q4 1 -1 20q-5 -3 -15 -7zM876 828q-8 -3 -9 -6q-4 -9 -8 -19q12 5 32 13q13 6 17 8q4 1 6 19q-11 -4 -38 -15zM868 800l-12 -5l-8 -18q41 -3 59 40q-7 -3 -39 -17zM997 941q3 -9 8 -25q4 7 11 22t10 23q-2 -2 -20 -11q-6 -4 -10 -7zM990 885q1 2 4 6
q2 5 3 7q4 10 4 11q-7 22 -10 31q-17 -9 -16 -13q4 -10 5 -13q3 -9 7 -20zM983 884q-3 9 -14 39q-12 -14 -10 -18q1 -4 6 -17q2 -8 11 -33q6 11 9 18q1 3 -2 11zM968 860q-6 15 -14 40q-19 -42 10 -71q2 5 8 18zM1036 937q-5 19 -5 21q-11 -26 -19 -45q13 5 24 10q3 2 3 1
q-1 5 -3 13zM1010 905q-1 0 -6 -10q3 5 -5 -14l9 4q4 1 10 4t9 4q12 5 14 5q3 2 -1 20q-19 -8 -30 -13zM1003 875q-8 -3 -9 -6q-2 -3 -8 -19q17 7 32 14q11 5 17 7q4 2 6 20q-17 -7 -38 -16zM995 848q-12 -5 -12 -6l-8 -18q41 -2 59 40q-34 -14 -39 -16zM1027 696l2 -3
q11 -18 16 -25l12 56q-2 -2 -19 -18q-7 -6 -11 -10zM1040 646q2 12 2 13t-20 32q-16 -14 -14 -18l9 -14q2 -2 6 -10q4 -6 7 -10l6 -10zM1028 627q-11 17 -25 39q-10 -18 -8 -22q4 -7 11 -18q13 -20 21 -34q5 18 6 23q1 3 -5 12zM1023 571q2 7 2 11q0 1 -8 13q-12 19 -26 42
q-11 -52 29 -77q1 4 3 11zM1053 666q-5 -4 24 18l3 2q-2 5 -6 13q-10 21 -11 23zM1046 627l10 7q9 6 19 14q7 4 14 9q3 2 -6 22q-5 -3 -31 -22q0 -1 -3 -13q1 2 -3 -17zM1052 622q-8 -6 -8 -10q-2 -10 -4 -22q12 8 32 23q11 7 18 12q3 3 1 24q-21 -15 -39 -27zM1051 589
l-13 -9l-4 -22q47 7 56 59zM896 664l2 -3q3 -5 8 -14q6 -11 9 -15q10 47 13 63q-1 -3 -21 -20q-8 -6 -11 -11zM907 598q2 6 2 10q3 14 3 15q-12 19 -22 35q-18 -16 -16 -20q12 -18 10 -15q9 -15 14 -23l7 -11q1 3 2 9zM897 586q-9 14 -29 45q-11 -21 -9 -25q4 -7 13 -21
q6 -10 23 -37q5 17 6 25q2 4 -4 13zM893 537q0 -1 -9 14l-29 46q-12 -57 33 -85zM924 630q5 4 14 10q9 7 13 10q3 2 3 3q-1 5 -6 14q-12 24 -12 26q-7 -35 -12 -63zM917 587q-1 0 10 7q5 3 11 8q8 6 11 8l15 10q4 3 -7 25q-18 -14 -34 -25l-3 -15q-3 -16 -3 -18zM923 581
q-8 -6 -9 -11q-2 -9 -4 -25q6 4 18 13t18 13q14 10 19 13q4 4 2 27q-21 -15 -44 -30zM944 560q-15 -11 -23 -16l-14 -10q-1 -7 -4 -25q52 8 63 66q-7 -5 -22 -15zM835 1143q1 -3 3 -10t3 -10q10 21 17 36q-1 -1 -16 -9q-5 -3 -8 -5zM829 1098q0 -2 6 11l3 8q-1 5 -4 13
t-4 12q-14 -7 -13 -10q2 -4 4 -11q1 -2 3 -7t3 -8q3 -8 2 -8zM824 1097q-5 13 -11 31q-10 -11 -9 -14q2 -5 5 -14q4 -12 9 -26q4 7 7 14q1 3 -1 9zM811 1078q-1 4 -5 16q-4 10 -6 16q-16 -34 8 -57q-1 -3 7 14q0 1 -4 11zM867 1140q-4 16 -4 17q-3 -6 -8 -18q-6 -12 -8 -19
q-2 0 19 9l2 1q0 3 -1 10zM857 1120q-7 -4 -12 -6q-1 0 -4 -8l-3 -6q-1 -3 -2 -5l8 3q6 3 15 6l6 3q3 1 5 2q3 1 -1 16q-3 -1 -12 -5zM840 1090q-7 -2 -8 -5l-6 -15q25 10 26 11l14 6q3 1 4 16q-16 -7 -30 -13zM849 1074q-10 -4 -16 -6l-10 -4q1 2 -6 -15q33 -2 48 32
q-5 -2 -16 -7zM795 1420q1 -2 2 -6t2 -6l10 22q-1 -1 -9 -5q-4 -2 -5 -3v-2zM787 1407q3 -7 3 -9l2 -5q0 1 2 3q1 2 1 4q2 4 2 5l-5 15q-8 -5 -7 -6q2 -6 2 -7zM779 1394q1 -2 3 -7q2 -6 3 -8l4 8t0 6q-4 9 -7 18q-6 -6 -5 -8q0 -3 2 -9zM783 1375l-2 6q-4 11 -7 19
q-9 -20 5 -34zM802 1407l12 5h1q0 3 -1 6q-2 10 -2 11q-5 -12 -10 -22zM799 1398l-3 -7l5 2q4 2 9 4q1 1 3 1q2 1 3 2q2 0 0 9q-6 -2 -15 -6zM816 1396q-8 -4 -18 -7q-4 -2 -4 -4q-2 -4 -4 -9q4 2 15 7l9 3q1 1 2 10zM813 1383l-19 -8l-6 -2l-3 -9q20 -1 28 19zM890 1338
q-3 -1 -5 -1l-1 -2v-6v-6l17 16q-1 0 -11 -1zM872 1326v-10v-5q4 5 5 5l4 4v8q0 6 1 8q-10 -1 -10 -3v-7zM861 1317q-1 -4 -1 -17l7 7q1 1 1 5q1 2 1 20q-8 -4 -8 -6v-9zM857 1297v7q0 6 1 20q-16 -15 -8 -33zM900 1321q1 2 2 6q1 9 1 10l-17 -17h7q4 1 6 1h1zM875 1308h5h5
h5l7 1q2 0 3 9q-3 0 -8 -1h-8l-4 -4q-4 -3 -5 -5zM881 1297h9q1 0 6 8h-20q-4 0 -6 -1q0 -1 -6 -8q5 1 17 1zM861 1294l-7 -7q18 -9 34 7h-10h-11h-6zM930 1291q-4 0 -6 -1q0 1 0 -1q-1 -2 -1 -6v-7l9 9l8 8q-1 0 -10 -2zM911 1280v-10v-5l5 5q4 3 4 4q0 7 1 16q-9 -2 -9 -3
zM900 1271q0 -4 -1 -17q5 4 7 7q2 1 2 5v20q-8 -4 -8 -6v-9zM896 1251v6q0 4 1 11v10q-16 -15 -8 -33zM941 1280q1 10 1 11l-17 -17h13q2 1 2 0q0 2 1 6zM914 1262h5h10h3h4q2 0 3 9h-8h-8l-4 -4zM911 1250h9q-5 0 9 1q2 0 6 8q-7 0 -20 -1q-4 0 -5 -1q-3 -2 -7 -7h8z
M900 1247l-7 -7q18 -8 34 8q-3 0 -10 -1h-11h-6zM805 1343q1 -3 3 -8q1 -4 2 -7l12 27q-1 -1 -11 -7q-4 -2 -6 -4q-1 0 0 -1zM793 1335l2 -8l3 -6q1 -4 2 -5l2 -6l3 8l3 6q-2 6 -7 18q-9 -5 -8 -7zM785 1316q1 -3 2 -5l3 -9q2 -7 3 -10q4 7 5 11q1 2 0 6q-4 9 -9 23
q-7 -8 -6 -10q0 -2 2 -6zM789 1295l-9 23q-11 -24 7 -41q2 6 4 11zM814 1326q18 9 14 7h2q-1 3 -2 8q-3 11 -3 12q-9 -21 -11 -27zM810 1316q-2 -6 -3 -8l5 2l6 3q3 1 5 2l8 3q2 1 -1 12q-6 -3 -17 -8q-1 0 -3 -6zM809 1294q6 2 9 4q4 2 10 4q2 1 3 12q-16 -7 -22 -9
q-5 -2 -5 -4l-5 -11q4 1 10 4zM816 1293q-7 -3 -11 -5l-8 -3l-4 -11q24 -1 34 24q-3 -1 -11 -5zM898 1197q11 -8 12 -9q0 4 -3 14q-2 9 -3 15q0 -2 -5 -13l-3 -6zM900 1178q1 -1 5 -3q3 -2 5 -3l5 -4q-1 2 -1 5q-1 2 -1 4q-1 6 -2 7q-3 1 -8 5q-5 3 -8 5q-4 -10 -3 -11
q3 -2 8 -5zM919 1149q-1 6 -3 12q0 2 -4 5l-21 13q0 -11 2 -13q2 -1 9 -5q11 -8 17 -12zM920 1145q0 -1 -7 4q-16 11 -21 13q6 -26 30 -29q-1 4 -2 12zM918 1209q-10 7 -11 8l8 -28q5 9 7 14l1 1zM923 1175q1 2 6 10l4 8q1 1 -7 9l-10 -17q0 -1 2 -7q0 -3 2 -8zM938 1173
q1 3 2 5q2 2 -4 11l-12 -20q-3 -5 -2 -7q0 -1 3 -11q9 16 10 18q1 1 3 4zM930 1153l-4 -7l3 -11q20 14 14 39zM1106 982q-6 -3 -9 -5l1 -2q1 -4 4 -11q2 -6 3 -10q3 7 9 19q6 13 8 19q-1 -2 -16 -10zM1082 958q2 -3 2 -5q3 -9 6 -16l3 -9q2 6 5 12q4 8 4 9q-1 3 -5 12
q-2 8 -4 13q-14 -7 -13 -10q1 -2 2 -6zM1087 928q-4 11 -12 32q-10 -11 -8 -15q1 -4 4 -14q2 -5 5 -14t5 -13q6 12 7 15q1 2 -1 9zM1074 908l-11 33q-16 -35 8 -58q7 15 7 14zM1131 971q-4 17 -4 19q-2 -6 -16 -38q3 1 9 4q7 3 10 4l3 1q-1 4 -2 10zM1121 951q-9 -4 -12 -6
q-1 0 -5 -8q0 -2 -2 -6t-2 -6l8 4q2 1 7 3t8 3l6 3q4 1 5 2q3 1 0 16q-5 -2 -13 -5zM1103 921q-6 -3 -7 -5q-1 -3 -7 -16q4 2 27 11q9 4 14 6q3 1 5 17q-23 -10 -32 -13zM1121 908q-1 0 0 0v0v0h-1v0v0l-1 -1v0h-1q2 1 0 0q2 1 0 0l-1 -1v0q1 1 0 0v0l-4 -1l-8 -4l-8 -3
l-11 -5q-3 -9 -6 -14q34 -3 49 32zM1252 899q-5 4 -8 6l-1 -2q-8 -9 -14 -15q29 1 38 1q-2 1 -15 10zM1203 888h12t8 1l17 19q-12 8 -14 6l-4 -4q-2 -2 -3 -4q-6 -7 -10 -12zM1187 898q-6 -7 -9 -10h16q2 0 7 5q8 10 20 24q-14 4 -16 2q-4 -5 -9 -11q-3 -3 -9 -10zM1172 888
l7 8q2 3 21 24q-35 0 -43 -32h15zM1248 867q2 2 7 6q11 10 12 11l-37 -2q10 -9 16 -14zM1215 881h-5h-6l6 -6q10 -8 13 -11q1 -2 4 -4l4 -4q2 -2 13 8q-4 3 -10 8q-7 6 -10 9q-1 1 -9 0zM1179 879q12 -11 21 -19t11 -10q3 -2 15 3q-15 14 -24 22q-5 5 -8 5q-2 0 -15 -1z
M1158 878q14 -32 48 -30l-25 23l-8 8q-12 -1 -15 -1zM1009 1233q2 -7 4 -15q2 4 7 13q3 9 6 14q-1 -1 -12 -7q-4 -2 -6 -4zM999 1217q1 -2 2 -6q1 -3 2 -5l2 -6q2 5 4 8l2 6l-6 18q-10 -5 -9 -7zM988 1207q1 -4 2 -5q1 -4 3 -10q3 -7 3 -9q4 7 6 10q1 2 -1 7q-3 6 -8 22
q-7 -8 -7 -10q1 -2 2 -5zM994 1178l-2 7q-4 10 -8 24q-12 -25 5 -41zM1017 1216q16 7 14 7h2q0 3 -1 7q-3 12 -3 13q-6 -13 -12 -27zM1013 1206l-3 -8l5 2q9 4 11 5q4 1 8 3q2 1 0 12q-11 -5 -18 -8zM1034 1204q-13 -6 -22 -9q-4 -2 -5 -4q-2 -5 -4 -11l18 8q9 4 10 4
q2 1 3 12zM996 1165q24 -2 35 23q-13 -5 -23 -10l-8 -3zM1144 1057q-2 4 -4 6l-2 -1l-14 -6q4 -1 14 -5q9 -3 14 -5q-1 1 -8 11zM1105 1063q13 -4 8 -3l7 -2q10 5 18 8q-7 9 -8 8q-4 -2 -8 -3q-10 -5 -11 -5zM1098 1066q2 -1 7 1q-1 0 22 10q-9 7 -11 6l-10 -5
q-11 -4 -19 -8q7 -3 11 -4zM1082 1072q1 0 8 3q17 8 22 10q-25 10 -40 -9q7 -3 10 -4zM1123 1052q1 -2 3 -7q3 -4 4 -6l1 -2q2 1 7 2q11 4 12 4q-11 4 -27 9zM1104 1058l2 -5q5 -8 6 -11q3 -6 4 -7q1 -2 11 1q-4 8 -9 17q0 1 -6 3q1 -1 -8 2zM1085 1064q2 -3 5 -9t5 -9
q5 -11 5 -9q1 -3 11 -3q-1 4 -5 11t-5 11q-3 4 -5 5q-3 1 -11 3zM1069 1069q1 -24 26 -32q-2 3 -5 11q-4 7 -6 11l-4 7zM1194 1020q0 -1 -11 -8q-3 -2 -5 -4v-2q2 -4 6 -14q6 15 10 28zM1177 973q2 5 3 8q3 7 2 7q-4 11 -7 18q-9 -7 -9 -8l4 -8q3 -7 5 -11zM1170 955
q3 8 5 11q0 2 -2 7q-1 2 -10 21q-6 -8 -5 -10q1 -3 4 -10q5 -12 8 -19zM1169 950l-4 8q-1 4 -5 11q-3 8 -5 11q-9 -25 10 -40q1 3 4 10zM1203 999q0 2 -1 7q-4 11 -4 12q-2 -4 -10 -27q5 2 14 7zM1182 972l6 2q4 3 10 6q5 2 8 4q2 1 -2 11l-8 -4q-5 -3 -9 -5l-2 -6z
M1180 964q0 -1 -4 -11l18 9q4 2 10 6q2 1 2 11q-14 -7 -21 -10q-4 -3 -5 -5zM1175 948l-4 -11q24 1 33 26q-24 -12 -22 -11zM818 1250l7 -19q2 5 8 17q5 11 7 17q-1 -1 -14 -8q-6 -3 -8 -5v-2zM802 1240q1 -2 2 -5q1 -4 2 -5q1 -3 2 -8q2 -5 3 -7l2 -7l5 10q4 7 4 8
q-2 4 -4 12q-3 8 -4 12q-13 -7 -12 -10zM794 1210q4 -11 9 -25q5 11 6 14q1 2 -1 8q0 1 -10 29q-10 -10 -9 -13t5 -13zM797 1189l-6 15q-3 10 -5 15q-15 -31 8 -53l3 6q2 5 3 7zM848 1237l2 1q0 3 -2 9q-3 15 -3 17q-3 -6 -8 -18q-5 -11 -7 -17q6 3 18 8zM824 1215
q-5 -12 -4 -10l7 3q2 1 7 3t7 3q8 3 10 4q3 1 0 15q-4 -2 -12 -5q-7 -3 -11 -5q-1 0 -4 -8zM822 1187q8 3 13 5q1 1 6 3q4 1 6 2q3 2 5 15q-16 -6 -29 -11q-6 -3 -7 -5q-1 -4 -6 -14q4 1 12 5zM817 1180l-9 -4q-4 -10 -6 -14q31 -2 45 30q-13 -5 -30 -12zM1041 1057l-2 -1
q-8 -1 -21 -4q6 -4 17 -10q12 -7 17 -11q-1 2 -7 17q-2 6 -4 9zM1024 1073q-4 0 -5 -1q5 1 -17 -4l-8 -2q-1 1 10 -6q8 -5 9 -4q3 0 13 3q8 1 13 2q-6 14 -9 14q-2 -1 -6 -2zM1026 1080q-10 11 -13 10q-5 -1 -14 -3q-4 -1 -14 -3q-9 -2 -13 -4q8 -5 13 -8q3 -2 9 0q7 2 32 8
zM959 1088q4 -3 6 -4q1 0 11 2q11 3 33 8q-31 19 -57 -2q2 -1 7 -4zM1015 1047q1 -3 6 -20l1 -3q4 0 10 1q16 2 18 2q-25 14 -35 20zM990 1060l3 -8q1 -3 2 -8q2 -5 3 -8l3 -11q1 -3 16 -1q-2 5 -8 25q0 1 -8 5t-11 6zM979 1032q1 -4 16 -7q-6 21 -9 32q-2 7 -5 8
q-4 2 -14 8q3 -10 8 -27q3 -11 4 -14zM964 1066l-3 10q-6 3 -14 8q-6 -33 27 -51q-6 18 -10 33zM1088 1142l-14 -12q21 0 35 -1q-1 1 -13 10q-4 3 -7 5zM1066 1145q-7 -7 -10 -9l-5 -5h5h5q8 -1 8 0l17 15q-11 8 -12 6q-3 -2 -8 -7zM1045 1148q-21 -20 -17 -16q11 -1 14 -1
q2 0 6 4q-1 -2 21 20q-12 3 -14 2q-3 -3 -10 -9zM1022 1132l7 6q17 16 21 20q-31 1 -41 -26h13zM1096 1116q11 9 13 9h-35q14 -13 14 -12l1 -2q3 2 7 5zM1056 1125h-5l5 -5q13 -13 10 -10l7 -7q2 -2 13 6q-3 3 -9 8q-5 5 -8 7q0 1 -8 1h-5zM1048 1120q-4 4 -6 4h-14
q16 -15 17 -16q9 -9 10 -9q2 -2 14 2q-14 13 -21 19zM1022 1124h-7h-6q9 -27 41 -27q-4 4 -11 10q-7 7 -10 11zM957 975l-7 7l-2 -1l-19 -11q27 -6 40 -9q-2 1 -12 14zM929 993q-4 -2 -5 -4q-3 -1 -7 -4q-5 -3 -8 -4l-7 -5q4 0 12 -2l9 -2q29 17 23 14q-10 11 -12 10t-5 -3z
M900 997q-10 -6 -24 -14l16 -4q3 -1 9 3q9 6 28 17q-13 8 -16 6q1 0 -13 -8zM862 986q5 -1 8 -2l9 6q8 5 29 18q-36 8 -54 -20q3 -1 8 -2zM951 949q15 7 17 8q-18 3 -40 7q6 -8 13 -17l1 -2q3 1 9 4zM930 954q-5 7 -8 11q-1 0 -9 2q-2 0 -6 1t-6 1l5 -7q6 -9 9 -13
q1 -2 3 -5q3 -3 4 -5t15 4q-2 4 -7 11zM891 971l-16 3l16 -23q7 -10 8 -12q2 -3 17 -2q-12 18 -19 28q-4 6 -6 6zM874 966l-6 9q-8 2 -16 3q5 -33 41 -40q-13 20 -19 28zM1192 788q-2 6 -4 9l-2 -1q-4 0 -11 -2q-7 -1 -10 -2q6 -3 17 -10q12 -7 17 -11q-1 2 -7 17zM1171 814
q-3 -1 -5 -2q-3 0 -8 -2q-6 -1 -9 -2l-8 -2q1 0 11 -6q7 -4 8 -4q17 4 26 5q-6 15 -9 14q-2 -1 -6 -1zM1132 812q3 -2 9 0q8 2 33 8q-10 11 -14 10q-6 -1 -14 -3t-27 -6q10 -7 13 -9zM1106 828q5 -3 7 -4l10 3q15 3 33 7q-31 19 -57 -2q3 -1 7 -4zM1179 765q16 2 18 2
q-22 13 -35 20q1 -4 3 -10q2 -7 3 -10l1 -3q4 0 10 1zM1145 776l3 -11q1 -3 16 -1q-5 17 -8 25q0 1 -8 5q-6 4 -10 6l2 -8q1 -5 5 -16zM1142 765q-6 21 -9 32q-2 7 -5 8q-3 2 -14 8q3 -9 8 -27q5 -15 4 -14q1 -3 16 -7zM1116 789q-3 11 -5 17l-3 10q3 -2 -14 8
q-5 -33 27 -51q-2 5 -5 16zM1041 182q8 -1 21 -1q34 1 38 0q-76 54 -68 49q5 -28 8 -43zM985 263l3 -17q0 -1 6 -34q5 -30 4 -24q1 -6 33 -6l-11 54q0 2 -15 12q3 -2 -20 15zM939 294q4 -20 10 -57q5 -26 6 -30q1 -7 30 -17q-7 44 -11 68q-2 14 -7 17q-9 7 -28 19zM914 312
q-9 6 -13 10q-20 -67 43 -111q-2 12 -6 35t-7 35l-4 22q-4 3 -13 9zM1083 244q-8 -1 -22 -2q-15 -1 -22 -2q-8 6 66 -51q-1 3 -11 36q-3 12 -6 20zM1084 255q-9 30 -15 29q-19 -2 -24 -3q-35 -4 -34 -4q-18 -2 -17 -2l19 -15q15 -12 17 -11q22 2 54 6zM1064 296
q-19 24 -25 24q-11 -1 -31 -4q-30 -3 -58 -7q19 -15 27 -21q4 -3 18 -1zM926 328q9 -7 13 -10l22 3q12 1 35 4q25 3 35 4q-60 47 -118 9q5 -3 13 -10z" />
    <glyph glyph-name="x" unicode="x" horiz-adv-x="1505" 
d="M972 519q-1 -16 -4 -30q-4 -21 -34 -32q4 1 -50 -14q-23 -6 -65 -18q-46 -12 -66 -18v172q-58 5 -113 30v-176q-52 51 -97 96q0 15 1 45v44q-48 -33 -106 -48q-1 0 -7 -2q0 -11 -1 -33v-34q0 -35 30 -49q25 -24 92 -91q58 -57 92 -90v-208q0 -25 18 -41q15 -13 38 -13
t39 13q18 16 18 41v228q178 45 243 73q68 29 81 120q-57 8 -109 35zM1144 1409q-110 0 -190 -75q-65 38 -141 38q-37 0 -74 -10q-76 62 -173 62q-35 0 -69 -9q-90 -23 -148 -96q-57 -72 -60 -163q-111 -28 -169 -127q-59 -98 -31 -209q24 -93 100 -151q74 -58 168 -58
q34 0 68 9q-3 -1 6 2q65 17 114 63q17 16 31 34q28 -31 64 -52q53 -31 113 -37q14 -1 27 -1q35 0 68 8q24 6 47 17q30 -44 74 -74q7 -5 14 -9q47 -28 101 -36q20 -3 40 -3q72 0 135 35q65 36 103 100q41 69 39 148q-2 77 -43 142q13 16 23 34q59 98 31 209q-29 111 -127 170
q-66 39 -141 39z" />
    <glyph glyph-name="y" unicode="y" horiz-adv-x="1079" 
d="M547 1303q9 28 33 43q-1 -1 2 1q27 9 51 -1q23 -9 34 -31q12 -22 7 -44q-5 -26 -30 -43q-21 -14 -49 -6q-26 7 -41 28q-17 23 -7 53zM805 1063q43 32 80 0q18 -15 17 -41q-1 -30 -23 -47q-17 -13 -35 -13q-33 0 -51 35q-17 32 1 61q5 1 11 5zM675 694q-12 0 -22 12
q-9 12 -9 25q0 11 11 21q12 9 25 10q32 -4 32 -37q0 -12 -11 -21q-12 -10 -26 -10zM217 630q14 0 26 -12t13 -27q2 -16 -11 -29q-12 -12 -27 -14h-1q-17 1 -29 13q-12 11 -13 28q-1 15 12 28q12 12 28 13h2zM517 928q25 -27 22 -66q-2 -33 -33 -54q-29 -19 -60 -14
q-11 2 -22 -2q-50 26 -49 81q1 36 28 59q25 21 59 21h5q30 -2 50 -25zM205 1158q9 1 16 6q42 -9 47 -54q6 -44 -37 -61q-8 -3 -16 -3q-34 0 -55 36q-11 18 0 41q16 31 45 35zM153 1217q-37 -20 -57 -55q-23 -39 -13 -84q18 -82 102 -102l4 -185q1 -17 13 -28q1 -2 3 -3
q85 -84 197 -124v-292q-48 18 -85 60t-45 87q58 35 58 101q0 47 -37 80q-36 31 -80 32h-1q-42 0 -75 -32q-35 -34 -36 -84q-1 -42 30 -74q28 -30 69 -38q12 -71 69 -130q57 -58 133 -78v-222q0 -16 11 -26q10 -11 26 -11t27 11q10 10 10 26v276q142 58 194 133q25 35 35 58
q103 32 153 127q42 82 22 255q21 5 39 16q46 28 55 85q9 54 -18 99q-35 58 -109 58q-20 0 -39 -5q-15 5 -30 -4q-49 -30 -64 -83t12 -103q25 -49 78 -63v-1q16 -136 -6 -203q-19 -57 -78 -90q-1 10 -1 26q61 28 67 96q4 43 -27 76q-29 30 -70 36q-3 1 -7 1t-8 -1
q-42 -2 -71 -31t-33 -72q-3 -36 20 -66q21 -28 55 -40q1 -49 -3 -65q-5 -17 -31 -61q-33 -55 -135 -98v318q50 6 87 38q37 33 48 81q14 63 -22 117l38 40q8 8 10 19q4 8 4 17v120q12 2 22 6q51 20 73 74q22 53 3 105q-19 51 -72 74t-105 5q-4 -1 -8 -4q-6 -1 -10 -4
q-45 -27 -63 -77q-18 -51 2 -99q24 -57 86 -76v-3v-114l-32 -34q-26 16 -55 20q-12 2 -24 2q-57 0 -101 -38q-43 -37 -54 -95q-9 -53 19 -103q28 -49 80 -70v-4q-77 32 -138 91l-4 171q46 15 69 64q22 46 14 94q-10 54 -64 83q-48 26 -100 17q-20 -4 -26 -20z" />
    <glyph glyph-name="z" unicode="z" horiz-adv-x="1301" 
d="M149 34q4 1 14 4t16 5q39 10 72 16q4 0 10 1q7 2 11 2q6 1 21 3q16 3 45 6q-2 0 48 5q7 1 25 2q16 2 25 2q61 4 105 6q51 1 109 2q61 -1 109 -2q39 -1 105 -6q10 0 26 -1q18 -2 24 -3q50 -5 48 -5q28 -3 45 -5q12 -2 22 -4q7 -1 20 -3q34 -6 73 -16l15 -5q11 -3 14 -4
q2 -1 25 -10q29 -14 33 -17l12 -7q-3 4 -9 10q-9 10 -11 12q-13 12 -17 15q-24 17 -23 16q-19 11 -29 16q-36 19 -71 31l-21 7q1 0 -22 7q-12 4 -46 12q-10 3 -24 6l-25 5q-21 4 -51 9q-38 5 -54 7q-11 1 -27 3q-6 0 -14 1q-11 1 -14 1q-28 2 -64 3q-3 54 -35 122
q-6 13 -20 41t-20 42q-16 33 -14 39q2 7 5 22q10 48 13 56q12 32 41 48q-44 -14 -66 -54q20 101 -11 171q-66 152 -68 161q-18 84 37 154q13 15 30 32q12 11 21 9q19 -4 28 -2q45 8 68 44q-52 -27 -89 -27q174 87 222 224q12 35 14 70q0 1 -2 33q-1 32 -9 18q1 -25 1 -27
q0 -19 -6 -46q-42 38 -48 52q2 -13 20 -46q16 -29 14 -47q-5 -33 -53 -86q-28 -31 -87 -71q-81 -57 -94 -67q-158 -125 -76 -313q-13 5 -46 11q-31 5 -45 12q42 -29 71 -46q39 -22 35 -19q9 -7 18 -33q15 -42 12 -75q-1 -19 -21 -76q-16 -47 -11 -76q7 -48 52 -125
q51 -89 62 -124q-66 -1 -104 -4q-8 -1 -28 -2q-11 -1 -27 -3q-17 -2 -54 -7q-32 -5 -52 -9q-52 -11 -49 -11q-34 -8 -46 -12q-14 -4 -21 -7q-11 -3 -21 -7q-36 -13 -72 -31q-10 -5 -28 -16q-2 -1 -23 -16q-20 -17 -28 -27q-6 -6 -9 -10q4 2 11 7q5 3 33 17q30 11 25 10z
M800 641q17 17 17 32q6 8 -101 -39q-36 -16 -58 -55q-4 -8 -10 -26q-7 -24 -1 -24q1 0 5 14q3 9 11 16q13 14 35 20q64 17 73 28q7 8 5 16q0 1 8 6q9 6 16 12zM328 830q-1 -8 5 -16q9 -11 73 -28q22 -6 35 -19q8 -8 11 -17q5 -14 6 -13q6 0 -2 23q-6 19 -10 26
q-22 40 -57 55q-107 47 -101 40q0 -16 17 -32q6 -7 15 -13q8 -5 8 -6zM849 1207q3 5 8 10q9 7 23 8q41 5 48 11q4 5 4 10l5 3q6 2 11 6q12 8 13 18q4 4 -65 -15q-23 -7 -40 -29q-3 -4 -9 -15q-6 -14 -2 -15zM715 1021q-5 -1 -16 -4q-15 -4 -13 -7l9 2q6 1 12 0q12 -3 22 -12
q30 -28 39 -29q7 0 10 3q1 0 6 -2q6 -3 12 -4q14 -3 22 2q6 -1 -54 39q-20 13 -49 12zM763 1384q-1 -5 2 -11q5 -7 43 -22q13 -5 20 -15q4 -5 6 -11q2 -8 2 -9q4 0 1 15q-2 12 -4 17q-11 26 -32 38q-62 36 -59 31q-1 -9 8 -20q4 -5 9 -9zM722 1181q8 -11 8 -23q1 -7 -1 -12
l-3 -9q3 -2 9 12q5 11 5 16q6 27 -5 49q-31 65 -31 59q-6 -7 -5 -22q1 -5 2 -12q2 -5 2 -6q-4 -3 -4 -9q-1 -9 23 -43zM330 500q10 -5 10 -6q0 -11 9 -19q13 -13 95 -22q28 -4 47 -18q11 -9 16 -19q8 -16 9 -16q8 2 -5 29q-11 22 -17 30q-35 45 -81 58q-140 39 -131 31
q2 -19 26 -36q9 -7 22 -12z" />
    <glyph glyph-name="braceleft" unicode="{" 
d="M240 698q172 5 223 71t51 133v468q0 74 77 141.5t185 67.5h108v-50h-90q-61 0 -107 -33.5t-47 -91.5v-500q0 -83 -60.5 -158.5t-142.5 -76.5v-2q82 -1 143 -76t61 -158l-1 -500q1 -58 47 -91.5t107 -33.5h90v-50h-108q-108 0 -184.5 67.5t-77.5 141.5v468q0 66 -51 132
t-223 71v60z" />
    <glyph glyph-name="bar" unicode="|" 
d="M427 1577h160v-1995h-160v1995z" />
    <glyph glyph-name="braceright" unicode="}" 
d="M774 638q-172 -5 -223 -71t-51 -132v-468q-1 -74 -77.5 -141.5t-184.5 -67.5h-108v50h90q61 0 107 33.5t47 91.5l-1 500q0 83 61 158t144 76v2q-83 1 -143.5 76.5t-60.5 158.5v500q-1 58 -47 91.5t-107 33.5h-90v50h108q108 0 185 -67.5t77 -141.5v-468q0 -67 51 -133
t223 -71v-60z" />
    <glyph glyph-name="asciitilde" unicode="~" 
d="M923 878v-156q-63 -72 -122 -97.5t-116 -25.5q-60 0 -177.5 48.5t-176.5 48.5q-51 0 -107.5 -28t-129.5 -112v156q64 73 123 99t114 26q64 0 181.5 -49.5t172.5 -49.5q52 0 108.5 28t129.5 112z" />
    <glyph glyph-name="exclamdown" unicode="&#xa1;" horiz-adv-x="672" 
 />
    <glyph glyph-name="cent" unicode="&#xa2;" horiz-adv-x="1139" 
 />
    <glyph glyph-name="sterling" unicode="&#xa3;" 
d="M748 1347q-72 31 -160 31h-2q-100 0 -190 -101q-84 -93 -84 -241q0 -15 1 -30q0 -135 53 -273h360v-60h-334q14 -30 31 -60q35 -63 35 -138q0 -161 -162 -375h402q130 0 189 132l49 -1l-103 -231h-719l1 50q187 238 187 418q0 77 -34 143q-17 32 -31 62h-161v60h135
q-58 143 -58 253q0 226 123.5 347t306.5 121h4q75 0 185.5 -14t110.5 -34v-161h-58q-5 61 -77 102z" />
    <glyph glyph-name="currency" unicode="&#xa4;" 
d="M350 560q41 -40 99 -57q29 -8 58 -8t58 8q58 17 99 57q40 41 57 99q9 29 9 58t-9 58q-17 58 -57 99q-41 40 -100 57q-29 8 -58 8t-58 -9q-58 -17 -98 -56q-39 -40 -56 -98q-10 -30 -10 -60q0 -28 9 -56q16 -59 57 -100zM240 903l-118 118l80 81l118 -118q44 30 99 46
q44 14 89 14q41 0 83 -12q57 -17 102 -48l118 118l80 -81l-117 -117q31 -46 48 -102q12 -42 12 -85q0 -42 -12 -85q-17 -56 -48 -102l117 -117l-80 -81l-118 118q-45 -32 -101 -48q-42 -12 -85 -12q-42 0 -85 12q-57 16 -102 48l-118 -118l-80 81l118 117q-32 46 -48 103
q-12 42 -12 84q0 44 13 87q16 55 47 99z" />
    <glyph glyph-name="yen" unicode="&#xa5;" horiz-adv-x="1262" 
d="M547 225l-2 242q0 19 -1.5 35t-4.5 32l-484 1q-14 0 -21 6.5t-7 19.5t6.5 19t21.5 6h467l-121 172h-344q-17 0 -23.5 5.5t-6.5 18.5q0 14 6 19.5t22 5.5h307q-43 57 -108 155q-131 197 -227 197q-7 0 -13 5.5t-6 11.5q0 19 10.5 27.5t32.5 8.5q27 0 123 -8t164 -8h88
q33 0 41 -6.5t8 -26.5q0 -8 -15 -14t-38 -6q-6 0 -18.5 2t-18.5 2q-24 0 -37.5 -9.5t-13.5 -25.5q0 -18 16.5 -52t46.5 -77l158 -221q13 -19 33 -53q41 -70 71 -70q9 0 16.5 5t14.5 15l277 396q8 12 13 26.5t5 24.5q0 18 -10 27t-37 14q-15 2 -41 4q-47 3 -47 25
q0 15 8 22.5t25 7.5q3 0 15 -1q56 -7 108 -7h139q30 0 65 1t37 1q11 0 18.5 -4.5t8.5 -11.5q0 -28 -38 -34q-18 -3 -27 -5q-63 -15 -147 -117q-7 -9 -12 -15l-169 -206h323q15 0 24 -6t9 -17q0 -15 -6 -20.5t-23 -5.5h-366q-46 -57 -96.5 -112.5t-52.5 -59.5h511
q18 0 25.5 -5.5t7.5 -17.5q0 -14 -7 -21t-22 -7h-530q0 -11 -1 -30.5t-1 -29.5l2 -215q0 -114 5.5 -150t20.5 -44q30 -17 107.5 -19t77.5 -31q0 -12 -10 -20t-25 -8q-2 0 -35.5 4t-64.5 4q-91 0 -208.5 -4t-142.5 -4q-31 0 -40 4t-9 16t8 18.5t37 12.5q9 2 25 5q74 16 92 32
q17 13 24 47t7 102z" />
    <glyph glyph-name="brokenbar" unicode="&#xa6;" 
d="M427 371h160v-789h-160v789zM427 1578h160v-789h-160v789z" />
    <glyph glyph-name="section" unicode="&#xa7;" 
d="M545 321q56 16 97 53q73 65 73 166q0 5 -1 10h-2q-1 14 -4 27q-22 61 -113 127q-59 29 -126 29q-78 0 -125 -44.5t-47 -117.5q0 -123 248 -250zM466 -346q113 6 185 69q72 64 72 165q0 125 -316 276q-123 64 -175.5 137t-52.5 177q0 148 89 237q67 65 170 82l-40 19
q-123 64 -175.5 137t-52.5 177q0 148 89 237q82 79 216 86q8 1 17 1h3q66 0 163 -16.5t97 -41.5v-194h-51q-5 81 -80 132q-70 47 -149 51h-15q-78 0 -125 -44.5t-47 -117.5q0 -132 287 -269q149 -67 204.5 -143.5t55.5 -187.5q0 -171 -101 -282q-47 -39 -99 -64
q108 -56 154 -118q55 -77 55 -187q0 -171 -101 -283q-124 -102 -277 -105v1q-6 -1 -13 -1h-3q-66 0 -163 16.5t-97 41.5v194h51q5 -81 80 -132q68 -45 145 -50z" />
    <glyph glyph-name="dieresis" unicode="&#xa8;" horiz-adv-x="1024" 
d="M223 1289l71 72q13 12 25 12q11 0 27 -14l69 -73q10 -14 10 -25q0 -13 -12 -27l-69 -75q-17 -17 -25 -17q-14 0 -25 12l-76 86q-9 12 -9 23q0 13 14 26zM588 1289l71 72q13 12 25 12q11 0 27 -13l69 -74q10 -14 10 -25q0 -13 -12 -26l-69 -76q-17 -17 -25 -17
q-14 0 -25 12l-76 87q-9 11 -9 22q0 13 14 26z" />
    </font>
</defs>
</svg>
