<?xml version="1.0" standalone="no"?>
<!DOCTYPE svg PUBLIC "-//W3C//DTD SVG 1.1//EN" "http://www.w3.org/Graphics/SVG/1.1/DTD/svg11.dtd" >
<svg xmlns="http://www.w3.org/2000/svg" xmlns:xlink="http://www.w3.org/1999/xlink" version="1.1">
<metadata>
Created by FontForge 20170731 at Tue Aug 24 16:00:00 1999
 By Aleksey,,,
Freeware font, free to use for personal use only.
</metadata>
<defs>
<font id="AEZdecodings" horiz-adv-x="1139" >
  <font-face 
    font-family="AEZ deco dings"
    font-weight="400"
    font-stretch="normal"
    units-per-em="2048"
    panose-1="2 0 0 0 0 0 0 0 0 0"
    ascent="1638"
    descent="-410"
    x-height="1805"
    bbox="-3342 -472 1430 1872"
    underline-thickness="150"
    underline-position="-442"
    unicode-range="U+0020-F005"
  />
<missing-glyph horiz-adv-x="1536" 
d="M256 0v1280h1024v-1280h-1024zM288 32h960v1216h-960v-1216z" />
    <glyph glyph-name=".notdef" horiz-adv-x="1536" 
d="M256 0v1280h1024v-1280h-1024zM288 32h960v1216h-960v-1216z" />
    <glyph glyph-name=".null" horiz-adv-x="0" 
 />
    <glyph glyph-name="nonmarkingreturn" horiz-adv-x="569" 
 />
    <glyph glyph-name="space" unicode=" " horiz-adv-x="569" 
 />
    <glyph glyph-name="space" unicode="&#xa0;" horiz-adv-x="569" 
 />
    <glyph glyph-name="exclam" unicode="!" horiz-adv-x="569" 
 />
    <glyph glyph-name="quotedbl" unicode="&#x22;" horiz-adv-x="727" 
 />
    <glyph glyph-name="numbersign" unicode="#" 
 />
    <glyph glyph-name="dollar" unicode="$" 
 />
    <glyph glyph-name="percent" unicode="%" horiz-adv-x="1821" 
 />
    <glyph glyph-name="ampersand" unicode="&#x26;" horiz-adv-x="1366" 
 />
    <glyph glyph-name="quotesingle" unicode="'" horiz-adv-x="391" 
 />
    <glyph glyph-name="parenleft" unicode="(" horiz-adv-x="682" 
 />
    <glyph glyph-name="parenright" unicode=")" horiz-adv-x="682" 
 />
    <glyph glyph-name="asterisk" unicode="*" horiz-adv-x="2459" 
d="M-126 1244q-282 555 -680 414q9 156 -82 118q-30 -178 58 -276q-80 -273 -234 -295q258 371 -211 374q27 116 -24 197q-282 -677 176 -827q29 81 12 158l82 -20h70q-16 -80 -11 -158q172 -704 504 -393q27 173 12 334q96 46 70 217q-40 48 -59 118q-316 138 -105 197
l-12 79l-58 39q-260 -370 -59 -827q89 -47 141 59l11 -118l-35 -59q-268 -129 -211 236q-99 162 -59 -98q-149 284 0 649q91 138 188 178q131 51 246 -20q-91 -113 -70 -276h70q25 248 141 20q61 -121 82 -256q-208 47 -176 -256h59q33 286 117 59q54 -95 117 -98
q14 111 71 118q-29 -138 47 -157l23 98q-37 157 -129 177q8 247 59 433l47 59q12 -413 117 -708q-81 -191 -47 -394q65 -66 129 -59q78 109 35 236h-70q-11 -125 -59 -39l35 118q268 29 364 374h-70q278 183 328 630l-35 137l-82 59l-24 -59q61 -46 35 -137h-152
q-163 57 -293 0q-65 -140 12 -237q-91 -54 -141 -118q-164 527 375 394q-109 179 -246 177q-292 -136 -399 -571zM-278 1579q84 -31 93 98q79 -15 129 -98q93 65 -23 118q-86 87 -164 59q-33 -93 -35 -177zM-1170 1284v-59q-134 52 -164 256q81 -140 164 -197zM718 1421
q-207 -232 -328 -78q175 0 293 98zM496 949q-142 -296 -305 -79q-43 259 94 374q-81 -418 211 -295zM-642 1087q76 -72 106 -197q-127 104 -153 315zM-372 378q-333 170 -235 -295l59 20q13 110 -24 177q118 99 212 -39l-24 -119q-70 -5 -117 79q-119 -360 23 -669h12h-12
h24h-12h12h35h-12h12q-98 411 234 630q174 399 24 393q-16 -205 -117 -255q18 282 176 295q170 -204 117 -532q-166 383 -235 -295l-70 -59q-36 50 -12 158q-242 -339 200 -335q352 232 164 433v79q81 620 -270 669q-122 -148 -164 -335zM-243 -350q144 77 199 295
q2 -344 -199 -295z" />
    <glyph glyph-name="plus" unicode="+" horiz-adv-x="3073" 
d="M-914 1373q-143 40 -161 -137q52 -278 249 -236v-58q-95 34 -161 0q-209 62 -336 255l-73 39l-88 -39q-18 -303 292 -216q-294 -73 -526 78q-90 -4 -161 20q-84 -95 -161 -137l44 -79h73h59h73l43 20l44 -20l44 20h44l263 39q-148 -122 -277 -157q-268 -278 263 -20
q-94 -335 131 -471q168 3 264 137q-21 -170 -117 -255h131q-12 179 88 255q-23 -140 -58 -235l102 20l-29 -99h43q48 -250 205 -78q-5 -150 88 -236l-15 -78h88q12 77 -29 117q112 70 117 216q138 -7 132 158q550 85 175 687q194 -126 278 -354q358 -50 234 138
q-194 84 -307 216h58l44 -40h44q86 22 146 0l30 -19l190 -20l102 79q0 267 -410 0q-366 68 -14 59l58 117l15 157l-29 -19l-88 -40q-82 -99 -146 -137h-44h-249q-52 -33 -102 -39q15 31 29 39l322 177q-11 144 -29 235q-150 -65 -220 -235q-127 -348 -190 -79
q-76 54 -117 118q118 95 102 255q-87 223 -248 -39q68 295 -205 373q-160 -210 -117 -452zM-768 1550h88q-70 -113 -29 -235q42 107 73 157q38 -79 102 -59q-50 -144 -160 -118q9 -295 -30 -59h-44q-62 -283 -131 -79q-82 -11 -88 99l-29 -40l-15 -39v157q90 4 161 -59
l58 40q-167 246 -14 176q-27 114 -15 216q64 -65 73 -157zM-636 1668q31 -98 15 -177q-33 146 -117 118v59h102zM66 1236q-47 -71 -102 -39q-49 -20 -30 39l88 79q38 -34 44 -79zM-1382 1059q91 -57 -58 -19q-5 67 14 137q90 -18 44 -118zM-431 1000q130 35 14 -78
q-48 -70 -87 0q-54 -54 -117 -20q45 38 87 0q-78 147 -29 275q165 20 132 -177zM285 981l-43 78q49 15 87 59q91 -70 -44 -137zM-1982 922q64 73 132 98q419 -39 -132 -98zM22 981q-99 -34 -175 0h175zM724 902q-389 -66 -102 79q76 4 102 -79zM-928 883l14 -99l44 40
q0 -178 -102 -79q16 -106 0 -196q-43 160 -147 137q303 -337 -146 -333v58q64 -2 29 79q63 5 44 79q-109 -117 -58 19h-44q-52 -34 0 59l-44 59q147 145 278 20q-15 112 44 19q37 77 73 39l-15 79q-50 -30 -14 39zM-7 608q38 5 58 -20l-29 -78q29 -122 -88 -59
q108 -54 44 -157q-106 -50 -190 -40v20v-20v20q114 22 176 59q-51 25 -103 20q-29 -47 -44 78l-14 -118q-37 73 -44 138q-4 78 44 118q-38 15 -15 78l-44 118q80 7 132 98q150 -78 117 -255zM-1484 765l44 78q79 -62 -44 -78zM-431 686q63 -46 14 -98q112 -52 0 -39
q74 -49 0 -98l73 -59q-5 77 44 118q-27 -265 -190 -354q-131 9 -146 177l44 -20q73 95 102 177q-158 -191 -175 -20q-178 -57 -117 177l-44 20l-15 -118v-59q246 -235 103 -216q-219 264 -30 471q30 51 59 79l58 19q398 -166 220 -157zM-1616 667q-74 39 29 78
q31 -58 -29 -78zM285 647q69 33 117 0q-134 -116 -190 98q78 -7 73 -98zM-1221 588q147 27 44 -177q92 37 88 177q-69 22 -103 79zM-80 392q-60 100 -30 196q85 -34 30 -118q167 131 -15 118q32 66 -15 79q-89 -184 30 -275zM-329 117l15 59q-98 -88 0 118q92 -153 -15 -177
zM-578 117q-214 -249 -131 20zM-460 -79q-149 -95 -44 19l-74 -19q29 121 74 196q51 -98 44 -196zM-724 -178q107 -300 117 -19q-24 -36 -58 -39q27 75 14 117zM-621 -472q224 33 29 118z" />
    <glyph glyph-name="comma" unicode="," horiz-adv-x="2538" 
d="M-293 1796q-110 -136 -155 -287q136 -118 179 -262q146 131 191 298l-24 36q-14 12 -12 24q-14 12 -12 24l-155 203zM-627 1318q-114 26 -203 -24q-46 -121 -36 -227q-94 -9 -180 -47q210 -393 490 -132q-45 90 -36 167q217 -96 227 72q-3 241 -203 335q-46 -80 -59 -144
zM-126 1032l60 -24q95 71 179 24q-85 -124 0 -204q223 -26 347 120q85 96 -84 131q39 140 -36 239q-123 30 -215 -12q-24 108 -95 156q-233 -167 -156 -430zM567 876l-24 -24l-35 -12q-123 -100 -216 -143q171 -69 275 -191l24 12q83 44 143 60q58 66 108 95
q43 119 -263 227zM-1105 876l-275 -167q92 -112 203 -167q64 -36 131 -48q109 146 263 191l-24 12l-23 24q-160 72 -251 167q-12 -14 -24 -12zM-412 745q4 -180 167 -215q173 48 167 215q-84 114 -203 119q-85 -54 -131 -119zM-1046 374l96 -23l84 -24q-3 -130 36 -227
q108 -38 203 -24l47 -144q218 94 215 323q4 186 -238 96q14 90 47 155q-93 99 -203 119q-201 -77 -287 -251zM66 554q93 -345 -132 -156l-60 -35q-79 -323 192 -431l59 156q142 -51 251 24q27 109 0 203q86 37 132 83q-155 195 -383 180q-32 -19 -59 -24zM-257 147
q-77 -169 -191 -262q60 -191 191 -311l24 48l24 36l107 167l24 48l-12 36l-24 35l-131 203h-12h12h-12z" />
    <glyph glyph-name="hyphen" unicode="-" horiz-adv-x="3039" 
d="M-63 1654q-30 -168 -116 -174l-29 -70q2 -329 233 -568q25 -31 58 -47q244 284 247 569q-35 81 -88 128q-51 195 -203 313zM-673 1225l29 23l29 35l44 23l15 35l29 23l43 35q15 19 29 23q15 20 29 23l58 70l29 23l102 105h-43h-59h-43h-291v-418zM373 1619l29 -35l29 -23
l29 -35l29 -23l29 -23l15 -23l29 -23l29 -24l15 -34q111 -80 174 -151v46v197v35v140h-44h-58h-43h-291zM-310 1155l30 -11q26 167 -88 220q-86 -121 58 -209zM402 1329q-10 -376 116 0l-72 35zM-1254 1074q156 20 276 -12l15 -23q152 -91 218 -209q63 -71 87 -128l29 -34
l14 -35l29 -23l44 -82q54 -62 73 -116l58 -69q89 -68 131 -128q105 -73 217 -35q-160 139 -217 279l-30 23q-19 619 -668 696q-176 -23 -276 -104zM475 865q-17 197 189 267q-1 36 -44 46q-336 -148 -145 -313zM446 470l-15 -23q-93 -153 -218 -244l15 -46q129 12 218 70
q68 113 160 185l14 47l29 11q36 81 73 128l29 35l14 35l29 46l29 23q91 155 175 244q74 40 116 81q152 30 276 12q-152 113 -349 104q-620 -179 -595 -708zM-571 1132q173 -76 203 -221l44 -23q33 233 -232 279zM-1341 761q128 -45 204 46q-56 119 29 197l-59 12
q-242 -75 -174 -255zM1187 923q-44 -83 -15 -151q199 -84 203 93q-79 135 -246 151q23 -63 58 -93zM-4 261v47v46v198v34v140q-17 11 -15 23l-29 23q-77 130 -160 209q-124 -512 204 -720zM141 761l14 -337q-26 -248 117 -35q163 312 43 580q-77 -131 -174 -208zM693 412
l-15 -34l-14 -24q-88 -93 -131 -162h261q5 222 -29 360q-28 -85 -72 -140zM-644 192h262l-29 35l-29 34q-26 12 -29 24l-29 23l-58 81q-44 69 -88 116v-313zM10 41q-104 12 -160 -35q138 -34 160 -139h116q19 83 102 128q136 44 -102 46q67 120 -87 139q-70 -67 -29 -139z
M431 -342l15 -58h203h44h72h44h58h44h290v70h-174q-92 119 -233 104q-21 107 -188 70q-1 -160 -175 -186zM-629 -214h-102q-127 -118 -290 -151l-15 -35h204h43h73h43h58h44h291v46q-148 73 -175 186h-189zM-193 -342v-58h43h44h450l-14 46q-137 63 -189 163h-131
q-60 -117 -203 -151z" />
    <glyph glyph-name="hyphen" unicode="&#xad;" horiz-adv-x="3039" 
d="M-63 1654q-30 -168 -116 -174l-29 -70q2 -329 233 -568q25 -31 58 -47q244 284 247 569q-35 81 -88 128q-51 195 -203 313zM-673 1225l29 23l29 35l44 23l15 35l29 23l43 35q15 19 29 23q15 20 29 23l58 70l29 23l102 105h-43h-59h-43h-291v-418zM373 1619l29 -35l29 -23
l29 -35l29 -23l29 -23l15 -23l29 -23l29 -24l15 -34q111 -80 174 -151v46v197v35v140h-44h-58h-43h-291zM-310 1155l30 -11q26 167 -88 220q-86 -121 58 -209zM402 1329q-10 -376 116 0l-72 35zM-1254 1074q156 20 276 -12l15 -23q152 -91 218 -209q63 -71 87 -128l29 -34
l14 -35l29 -23l44 -82q54 -62 73 -116l58 -69q89 -68 131 -128q105 -73 217 -35q-160 139 -217 279l-30 23q-19 619 -668 696q-176 -23 -276 -104zM475 865q-17 197 189 267q-1 36 -44 46q-336 -148 -145 -313zM446 470l-15 -23q-93 -153 -218 -244l15 -46q129 12 218 70
q68 113 160 185l14 47l29 11q36 81 73 128l29 35l14 35l29 46l29 23q91 155 175 244q74 40 116 81q152 30 276 12q-152 113 -349 104q-620 -179 -595 -708zM-571 1132q173 -76 203 -221l44 -23q33 233 -232 279zM-1341 761q128 -45 204 46q-56 119 29 197l-59 12
q-242 -75 -174 -255zM1187 923q-44 -83 -15 -151q199 -84 203 93q-79 135 -246 151q23 -63 58 -93zM-4 261v47v46v198v34v140q-17 11 -15 23l-29 23q-77 130 -160 209q-124 -512 204 -720zM141 761l14 -337q-26 -248 117 -35q163 312 43 580q-77 -131 -174 -208zM693 412
l-15 -34l-14 -24q-88 -93 -131 -162h261q5 222 -29 360q-28 -85 -72 -140zM-644 192h262l-29 35l-29 34q-26 12 -29 24l-29 23l-58 81q-44 69 -88 116v-313zM10 41q-104 12 -160 -35q138 -34 160 -139h116q19 83 102 128q136 44 -102 46q67 120 -87 139q-70 -67 -29 -139z
M431 -342l15 -58h203h44h72h44h58h44h290v70h-174q-92 119 -233 104q-21 107 -188 70q-1 -160 -175 -186zM-629 -214h-102q-127 -118 -290 -151l-15 -35h204h43h73h43h58h44h291v46q-148 73 -175 186h-189zM-193 -342v-58h43h44h450l-14 46q-137 63 -189 163h-131
q-60 -117 -203 -151z" />
    <glyph glyph-name="period" unicode="." horiz-adv-x="1819" 
d="M-87 1810l-17 -8l-8 -25q-47 -48 -67 -101q1 -65 17 -108q70 -118 83 -226h50q0 156 76 267v84q-59 95 -134 142v-25zM-430 1426l34 -17q124 157 192 -75h42h25q-30 243 -217 267q-92 -77 -76 -175zM13 1334l59 -9q31 88 92 142q81 6 108 -58l42 42q-13 140 -142 150
q-141 -109 -159 -267zM105 1267q-186 31 -334 -17q-44 24 -75 33q-118 -56 -184 -133l8 -17q44 -22 67 -50q343 183 669 33q30 58 58 92q-98 80 -200 92zM-12 1049q224 -69 293 -267l41 8q-72 258 -317 301zM-421 782h33q87 197 276 242q10 48 -25 59q-229 -90 -284 -301z
M-597 916l-17 -67l-16 -59h25h25q40 -8 67 -8q9 113 67 192q-40 48 -76 67q-39 -79 -75 -125zM398 1041l-59 -67q67 -90 67 -184q62 -6 100 0l17 9q-36 144 -117 242h-8h8h-8zM-120 932l16 -100q186 -16 67 184h-25zM-263 849q53 -30 101 -34q-20 86 -92 101q-12 -32 -9 -67
zM164 841q12 38 8 66h-50q-189 -172 42 -66zM-831 657q99 -15 167 -9l17 -25l8 -16l17 -51q10 -12 8 -25q10 -8 9 -16q45 -74 67 -126q53 16 83 50q-76 168 -67 326h-41l-34 9q-132 -17 -234 0q-9 -66 0 -117zM414 765q10 -185 -66 -326q41 -33 75 -50q23 36 50 59v25l17 17
q16 61 33 100l25 50l25 8q91 -3 151 9l8 100l-33 17q-9 -10 -17 -9h-25l-167 9q-42 -15 -76 -9zM55 740q17 -108 125 -83q142 105 -66 108zM-363 690l59 -33q261 23 -9 100zM-95 698l16 -25q145 17 25 84q-32 -30 -41 -59zM5 373v-42q279 51 326 309l-42 8
q-77 -231 -284 -275zM-104 339v34q-218 69 -284 259h-25q50 -267 309 -293zM80 540q57 -26 109 -25q-44 112 -159 117q24 -57 50 -92zM-254 498q156 34 67 100q-55 -45 -67 -100zM-112 464q103 -118 125 42q-12 95 -100 84q-25 -69 -25 -126zM-488 306q83 -104 184 -142
q91 41 175 16q100 -18 184 0q47 3 59 -33q121 25 200 92q-40 54 -58 92q-368 -142 -669 33q-39 -42 -75 -58zM-396 38l-34 -16q-18 -145 109 -168q156 35 184 268l-59 8q-74 -253 -200 -92zM13 122q33 -236 184 -268q146 30 100 176l-25 8q-123 -159 -200 92h-34
q-12 -9 -25 -8zM-79 105q-21 -68 -25 -117q-66 -111 -75 -217q9 -13 8 -25q63 -72 84 -134q93 58 134 142v75q-79 138 -76 276h-41h-9h9h-9z" />
    <glyph glyph-name="slash" unicode="/" horiz-adv-x="3129" 
d="M-717 1577q146 -902 244 26q-99 50 -136 212q-26 -188 -108 -238zM-934 968q-33 599 -245 635q-6 -534 245 -635zM-161 1524q-199 -886 108 -344q50 207 41 423h-41zM-1423 1286q385 -563 95 291q-67 -152 -95 -291zM15 1259v-158q337 55 109 476q-43 -198 -109 -318z
M-826 810q78 -259 68 -529q186 577 0 1084q-4 -335 -68 -555zM-419 254q-7 353 41 609q-65 245 -68 476q-168 -623 27 -1085zM-1531 175q176 -156 285 -397q137 359 176 714q32 457 -217 503q-203 -334 -244 -820zM-39 69q45 -181 122 -291q106 290 258 397l13 53l-27 53
q-81 417 -163 661q-78 41 -135 53q-286 -322 -68 -926zM-636 704q43 -187 68 -27q6 125 -27 212zM-2006 730q-116 -169 54 -158l55 26l95 26q150 -3 244 53v80v-27v53v-26v26h-55q-127 49 -217 27q-86 -96 -176 -80zM368 651l40 -27q221 42 407 -79q39 78 41 159v26v-26v26
h-136q-149 106 -284 80q-72 -42 -68 -159zM-1002 651q109 -93 95 106h-82zM-188 651v106h-95q-17 -198 95 -106zM-989 307q-92 -280 -122 -503q233 -142 136 582zM-636 333q-64 -226 -81 -423q98 -83 122 -238q25 222 122 265q-40 305 -149 449zM-202 -249q153 10 95 291
q-82 198 -122 344q-19 -361 27 -635z" />
    <glyph glyph-name="zero" unicode="0" horiz-adv-x="2489" 
d="M-246 1770l-35 -24l-12 -24l-71 -82l-24 -12l-70 -59l-12 -24q-90 -94 -130 -165l35 12q68 -2 118 12h36h35l36 11h47h35h83q156 5 259 -11l-94 94l-24 24l-11 23l-24 24q-79 153 -165 236zM-588 1286q-154 -49 -284 -36l12 -141l-12 -36q7 -132 -11 -224q98 -42 189 -12
q2 120 59 201h165q149 -13 130 130q5 161 -166 129q-42 -12 -82 -11zM-211 1286q-4 -139 12 -236l36 -12h236q75 -93 59 -201q112 -30 189 12v35v36l-12 82v36v35q4 109 -12 189h-47l-48 -12h-47l-130 24q-108 31 -200 23q-18 -13 -36 -11zM-1072 967l-12 -24l-35 -12
l-12 -35l-36 -12q-97 -137 -212 -200v-36l71 -47h35l24 -24l23 -23l24 -12l24 -12l23 -23q117 -80 177 -154q0 60 -12 95v35v201v35l12 35q-10 141 24 248q-7 25 -24 36q-49 -47 -94 -71zM415 1002l12 -200q15 -112 12 -189l-12 -260q43 35 59 71l35 12l12 23l35 12l12 24
l36 23q119 87 212 130v36l-47 23l-59 71l-24 12l-12 23l-35 12q-114 153 -248 213zM-340 825q258 -15 47 177q-45 -91 -47 -177zM-447 872q7 78 -82 71q-10 -106 82 -71zM-116 872q248 12 23 71zM-600 707q49 -104 153 -106q63 150 -59 177zM-104 766q-35 -235 165 -118v71
q-64 47 -118 59zM-329 601q228 -31 48 118q-53 -57 -48 -118zM-883 483q38 -212 11 -366h130h83q137 -51 260 -47q109 78 35 259q-181 -8 -295 12q-9 234 -177 213zM143 542l-11 -35q-7 -97 -24 -166h-35q-18 -13 -36 -12h-236v-47q-22 -116 -12 -200q31 -3 48 -12h47h35
l24 12h35q184 51 331 35v165q74 285 -142 272q-12 -14 -24 -12zM-199 530h-141q54 -368 141 0zM-529 400q187 47 0 83v-83zM-10 483h-94q33 -209 94 0zM-258 -36h-82q-157 -7 -260 11l12 -23q202 -172 283 -378h47q12 21 24 24q44 79 106 118l12 35l35 12l12 23l71 59
q42 69 82 107q-22 51 -82 35q-142 -36 -260 -23z" />
    <glyph glyph-name="one" unicode="1" horiz-adv-x="2579" 
d="M-295 1561q-117 -18 -180 -96q152 -62 228 -192q124 18 155 132q232 90 0 144l-36 12q-6 159 -95 264q-76 -133 -72 -264zM-271 1057q67 -456 119 36q-45 40 -83 36zM-499 877q220 -156 168 -36q-54 145 -180 192q-43 -88 12 -156zM-8 997q-213 -386 132 -48
q-11 70 -72 84q-28 -26 -60 -36zM-1111 745q-149 -1 -264 -71q111 -119 264 -96v-36q14 -12 12 -24v-36q26 -38 36 -72l72 24q9 94 84 132q73 44 84 120q-142 81 -180 215l-36 12q-63 -88 -72 -168zM376 674q47 -109 132 -156q53 -59 60 -120q90 45 84 132l12 36
q163 -4 264 96q-136 82 -264 71q-11 119 -84 180q-74 -164 -204 -239zM-655 662q534 -16 0 119q-42 -66 0 -119zM-44 674q204 -58 312 47q-48 78 -132 60q-118 -41 -180 -107zM-176 578q93 135 -71 155q-91 -147 71 -155zM220 458q-54 34 -84 72l-36 12l-168 36
q209 -307 288 -120zM-631 398q202 -10 276 168h-60q-213 -57 -216 -168zM-271 494l-132 -204q2 -62 12 -96q181 44 132 300h-12h12h-12zM-152 458q-7 -92 0 -156l36 -84q254 -40 -36 276v-36zM-463 -58q44 -105 168 -96q-15 -168 95 -264q71 134 72 264q117 -1 168 84
q-60 35 -108 36q-65 123 -167 168q-83 -152 -228 -192z" />
    <glyph glyph-name="two" unicode="2" horiz-adv-x="2469" 
d="M-435 1540l24 -24l48 -71q74 -78 106 -143l24 -71q63 213 166 345q-73 171 -213 249q-129 -129 -155 -285zM-530 1314q-420 72 -356 -344q-268 -83 83 -226q129 -4 214 12q41 144 -36 249l36 48q181 -88 297 24q29 305 -190 368q-45 -64 -48 -131zM-173 1041
q164 -49 285 12l35 -48q-82 -126 -47 -249q487 -33 392 202l-95 12q75 435 -357 344q6 106 -95 131q-175 -186 -118 -404zM-233 851q122 -38 143 -143l71 12q-42 96 -36 179q-85 -7 -154 23zM-458 887q10 -92 -36 -155l71 -12q44 88 119 119l-12 60h-36q-55 -30 -106 -12z
M278 673q188 -51 309 -166q153 51 249 142q37 166 -249 238q-140 -157 -309 -214zM-1266 566q74 -51 154 -59q153 150 321 201l-36 12l-35 12l-83 36l-36 12q-100 66 -178 95q-349 -176 -107 -309zM-470 649q34 -75 12 -142l35 -12l24 12q85 -26 142 -24v35q-13 12 -11 24
q-93 20 -179 131zM-209 495l24 -24q71 29 142 12q-23 89 24 166l-59 12q-50 -109 -131 -166zM-874 423q-93 -425 344 -356q3 -68 36 -107q177 -36 202 250q-28 265 -273 118l-60 36q155 293 -107 285q-480 -166 -142 -226zM147 376l-59 -48q-149 93 -273 -12
q12 -505 237 -308l-12 59l72 -12q379 5 285 368q74 0 130 36q-53 183 -356 190q-171 -76 -24 -273zM-447 -159q115 -421 321 -154l59 142q-132 149 -178 321q-58 -200 -202 -309z" />
    <glyph glyph-name="three" unicode="3" 
 />
    <glyph glyph-name="four" unicode="4" 
 />
    <glyph glyph-name="five" unicode="5" 
 />
    <glyph glyph-name="six" unicode="6" 
 />
    <glyph glyph-name="seven" unicode="7" 
 />
    <glyph glyph-name="eight" unicode="8" 
 />
    <glyph glyph-name="nine" unicode="9" 
 />
    <glyph glyph-name="colon" unicode=":" horiz-adv-x="569" 
 />
    <glyph glyph-name="semicolon" unicode=";" horiz-adv-x="569" 
 />
    <glyph glyph-name="semicolon" unicode="&#x37e;" horiz-adv-x="569" 
 />
    <glyph glyph-name="less" unicode="&#x3c;" horiz-adv-x="1196" 
 />
    <glyph glyph-name="equal" unicode="=" horiz-adv-x="1196" 
 />
    <glyph glyph-name="greater" unicode="&#x3e;" horiz-adv-x="1196" 
 />
    <glyph glyph-name="question" unicode="?" 
 />
    <glyph glyph-name="at" unicode="@" horiz-adv-x="2079" 
 />
    <glyph glyph-name="A" unicode="A" horiz-adv-x="1366" 
 />
    <glyph glyph-name="B" unicode="B" horiz-adv-x="1366" 
 />
    <glyph glyph-name="C" unicode="C" horiz-adv-x="1479" 
 />
    <glyph glyph-name="D" unicode="D" horiz-adv-x="1479" 
 />
    <glyph glyph-name="E" unicode="E" horiz-adv-x="1366" 
 />
    <glyph glyph-name="F" unicode="F" horiz-adv-x="1251" 
 />
    <glyph glyph-name="G" unicode="G" horiz-adv-x="1593" 
 />
    <glyph glyph-name="H" unicode="H" horiz-adv-x="1479" 
 />
    <glyph glyph-name="I" unicode="I" horiz-adv-x="569" 
 />
    <glyph glyph-name="J" unicode="J" horiz-adv-x="1024" 
 />
    <glyph glyph-name="K" unicode="K" horiz-adv-x="1366" 
 />
    <glyph glyph-name="L" unicode="L" 
 />
    <glyph glyph-name="M" unicode="M" horiz-adv-x="1706" 
 />
    <glyph glyph-name="N" unicode="N" horiz-adv-x="1479" 
 />
    <glyph glyph-name="O" unicode="O" horiz-adv-x="1593" 
 />
    <glyph glyph-name="P" unicode="P" horiz-adv-x="1366" 
 />
    <glyph glyph-name="Q" unicode="Q" horiz-adv-x="1593" 
 />
    <glyph glyph-name="R" unicode="R" horiz-adv-x="1479" 
 />
    <glyph glyph-name="S" unicode="S" horiz-adv-x="1366" 
 />
    <glyph glyph-name="T" unicode="T" horiz-adv-x="1251" 
 />
    <glyph glyph-name="U" unicode="U" horiz-adv-x="1479" 
 />
    <glyph glyph-name="V" unicode="V" horiz-adv-x="1366" 
 />
    <glyph glyph-name="W" unicode="W" horiz-adv-x="1933" 
 />
    <glyph glyph-name="X" unicode="X" horiz-adv-x="1366" 
 />
    <glyph glyph-name="Y" unicode="Y" horiz-adv-x="1366" 
 />
    <glyph glyph-name="Z" unicode="Z" horiz-adv-x="1251" 
 />
    <glyph glyph-name="bracketleft" unicode="[" horiz-adv-x="569" 
 />
    <glyph glyph-name="backslash" unicode="\" horiz-adv-x="569" 
 />
    <glyph glyph-name="bracketright" unicode="]" horiz-adv-x="569" 
 />
    <glyph glyph-name="asciicircum" unicode="^" horiz-adv-x="961" 
 />
    <glyph glyph-name="underscore" unicode="_" 
 />
    <glyph glyph-name="grave" unicode="`" horiz-adv-x="682" 
 />
    <glyph glyph-name="a" unicode="a" horiz-adv-x="2423" 
d="M-174 1692q-16 -9 -19 -20l-20 -30l-10 -39q-88 -101 -118 -207q-17 6 -20 19l-129 20q-41 24 -59 49h-29h-30l-20 20h-29h-30q-58 48 -118 49l19 -39l70 -40l29 -19q9 -16 20 -20l10 -30l19 -9l178 -148l-20 -99q-69 -18 -118 -40v30q-59 62 -69 128l-20 10v30
q-91 93 -118 197h-50q19 -92 50 -148v-158q49 -79 29 -158l-98 -19q-69 -46 -139 -60l-78 -19q-54 -41 -109 -40v-29h99q234 15 385 -20q5 -100 -40 -168q-67 13 -108 30h-30q-67 48 -138 49q-87 57 -168 69q21 -46 49 -79l40 -10l10 -29l39 -20l20 -20l29 -10l20 -49
q64 -17 89 -69l49 -20l-19 -49q-40 -66 -50 -109q-39 -34 -59 -79q-17 -41 -49 -69q-16 -71 -50 -118l30 10l20 19l29 20q50 57 109 69q51 89 138 119l20 49q70 -19 118 -49v-99q-74 -37 -138 -39q-56 -57 -128 -50q-88 -60 -178 -69v-29h128h40h168h29h119v-70
q10 -26 10 -49v-39q16 -10 19 -30q17 -152 50 -247l19 -29v39l30 30q2 60 20 108q-2 170 39 287h99q34 -39 69 -50l-20 -49l-10 -40q-38 -30 -59 -69q-21 -56 -49 -89v-29q-67 -76 -89 -158q47 33 89 49l10 20q52 51 98 69l10 30q78 53 119 108h88l10 -19l40 -50h39l10 -20
l20 -19q61 -50 89 -99q74 -34 118 -69q-8 18 -20 20l-10 69l-19 29l-20 10v30q-19 6 -20 20q-25 36 -49 59q-24 74 -69 118q-5 82 49 129h109v-139q60 -115 49 -217l20 -108h29q0 39 20 59v79q16 50 10 89l20 10l19 227h99h119h29q134 -8 227 9q-8 18 -20 20q-41 24 -79 20
l-9 29h-40q-17 7 -20 20h-69q-92 65 -187 69q-6 79 29 138q46 13 79 30l20 -10q92 -121 197 -158q55 -86 139 -118q-37 66 -50 118q-38 31 -39 69h-30v40q-31 38 -39 79q-59 44 -69 108l19 30q45 35 89 49l50 59l69 40q50 73 118 108q-6 21 -20 30l-29 -20l-69 -29l-99 -20
q-75 -46 -158 -49q-20 -23 -39 -30q-116 70 -60 188h40h39h40h39h168h79h69q-5 27 -30 29q-17 7 -19 20h-30l-39 20q-107 17 -168 69q-92 13 -158 49q26 122 20 207q66 136 49 257q-27 -21 -49 0l29 20l-39 9q-105 -69 -217 -69q-54 -54 -129 -49q-41 -35 -88 -39
q-20 72 -69 108v30q-17 9 -20 29v30q-31 18 -50 39v30q-72 83 -98 148l-20 -30l10 -39q11 -15 10 -30l10 -59v-29q20 -67 19 -129l20 -10l10 -148q-34 -39 -79 -39q-59 22 -89 39q75 288 50 474zM616 1435l-50 -39v-30l-19 -10v-39q-96 -98 -119 -208q-97 40 -158 99l20 30
l30 19l19 30l20 20q15 10 30 10q41 50 89 69q57 78 118 118q26 -34 20 -69zM-203 1317q-52 -136 -178 -89q-20 87 49 138q74 -36 129 -49zM43 1248l-10 69q71 13 119 49q213 -223 -109 -118zM33 1149q29 -123 -88 -158q-105 -18 -168 89q3 146 118 187q140 0 138 -118z
M-243 1060q-3 -34 -29 -49q12 -126 -109 -109q-139 -1 -148 138q52 98 148 119q88 -26 138 -99zM359 1040q-45 -189 -256 -138l-10 59q-26 141 108 198q113 -24 158 -119zM-598 991q-4 -104 -99 -89q-34 68 -39 128l118 50q63 -36 20 -89zM566 1040q-35 -230 -148 -69
q-39 64 20 109zM-480 873q141 -183 30 -208q-83 -118 -217 -19q-28 133 49 227h138zM-243 833v40q61 -14 0 -40zM83 873q23 -75 -50 0h50zM458 873q140 -246 -119 -277q-50 67 -118 99q32 108 99 178h138zM172 734q-10 -114 -40 0h40zM-707 438q-151 60 -49 198
q170 -62 49 -198zM645 547q-146 -266 -138 69l40 20q66 -13 98 -89zM-272 507q-51 7 -40 60zM-391 498h50q-60 -343 -257 -158q-41 76 -40 138q64 15 89 69q99 7 158 -49zM103 517l29 30q37 -46 -29 -30zM428 478h30q-9 -110 -50 -188q-230 -33 -227 208q68 18 109 49
q103 13 138 -69zM14 429q-20 -52 -50 0h50zM-174 359q108 -184 30 -207q-19 -144 -237 -20q20 93 20 158l118 69h69zM112 320l60 -10q92 -173 -20 -207q-135 -58 -207 69q8 114 69 187q59 -1 98 -39zM-568 83q-21 96 19 158q293 -148 -19 -158zM428 221q-27 -79 -20 -138
h-78q-90 -15 -79 69q67 43 108 89zM-124 54h118q43 -77 -30 -109q-54 -81 -108 20q-72 27 -10 89h30z" />
    <glyph glyph-name="b" unicode="b" horiz-adv-x="2530" 
d="M-535 1754q7 -72 20 -123v-122l21 -11q-1 -76 20 -132q-65 -42 -102 -92l-31 20h-40h-41q-11 11 -10 21h-41l-11 20h-40l-164 51q-34 -79 -81 -112l-31 -102l82 -51q93 -111 194 -163q24 -223 -204 -225q-89 -66 -174 -82v-81q24 -59 20 -113q21 -18 21 -40h102h41h30
q120 -18 204 -11l82 -122l-10 -31l-20 -30q-30 -78 -72 -123q-28 -95 -82 -153l21 -41q112 -63 173 -122q57 65 123 82q74 99 163 153l31 -11l122 -40v-92l21 -21l10 -71q11 -15 10 -31q2 -92 21 -163h30h204v31l21 71l20 20q-2 59 10 103l11 20l20 133l153 51
q112 -81 163 -153q77 -30 123 -82q62 44 102 82q56 43 82 71q-40 70 -51 122l-21 11v30l-20 10l-31 72l-20 10q-14 50 -41 82q45 67 61 112q100 32 184 20l20 11h31h30h133l10 30v31l31 163l-71 41q-185 49 -296 133q-5 73 -21 122q17 9 21 21l71 40q88 116 184 174
q-8 72 -51 112q-12 59 -41 102h-31q-15 -11 -30 -10l-21 -20h-30l-31 -11l-41 -10h-30q-72 -53 -154 -61l-51 20q-25 35 -61 51v133q51 154 41 276l-41 10l-71 30l-102 31q-29 -53 -41 -92l-21 -10v-31q-36 -19 -40 -61q-61 -59 -82 -122h-174l-10 20q-11 15 -10 31
q-36 33 -41 71q-90 100 -122 194h-41q-106 -62 -194 -71zM424 1060q296 -578 -224 -868l-82 -51q-550 -55 -735 419q-56 585 480 734q349 6 561 -234z" />
    <glyph glyph-name="c" unicode="c" horiz-adv-x="2551" 
d="M-9 1783q-54 -89 -52 -175l-20 -20q-20 -110 -62 -176v-30q-44 -101 -51 -196q-57 -84 -62 -165h-62h-41h-185h-114h-41h-41h-41h-41h-176h-30h-124v-51l41 -31q63 -32 93 -83h31q61 -65 134 -82v-31q88 -34 133 -103h31l21 -31h31l10 -31l21 -10q73 -38 113 -93l31 -10
q-11 -112 -62 -185v-103l-31 -21v-51q-37 -72 -51 -114v-41q-7 -18 -21 -20l-10 -31v-31l-21 -31v-72q-49 -92 -62 -165h62l21 51l31 11q43 34 82 41q10 28 31 41q17 9 21 21l103 51l30 31q28 28 62 31q94 121 216 155q19 41 52 61h62l113 -82l41 -31l31 -31l103 -51l21 -31
l31 -21q17 -10 20 -20l52 -11v-31q23 -5 31 -20l82 -31l20 -52h52q51 -64 113 -82v62q-70 156 -82 278l-21 20l-10 42v31q-54 75 -52 164q-83 137 -82 278l52 21l20 31l93 72q50 40 103 62l10 31h41q105 117 227 164q42 71 113 83l31 82h-51h-320h-144h-31h-51h-31h-41h-31
h-206v52l-31 41v72q-18 10 -21 31l-10 41q-29 46 -21 93l-30 20v41l-21 31v42q-12 15 -10 30q-32 44 -41 83l-11 82q-40 76 -51 155l-52 10z" />
    <glyph glyph-name="d" unicode="d" horiz-adv-x="2769" 
d="M-596 1665l-296 -555l-74 -74l-148 -259q-91 -213 -222 -371l-37 -74l-37 -74l-37 -111l-74 -37q-145 -333 -259 -518h148h407h185h481h149h629h111h444l-74 222l-74 148q-171 179 -222 370q-131 142 -185 296l-74 112l-74 148l-37 111l-74 37l-37 148q-44 37 -37 74
q-246 268 -333 555h-75h75h-75z" />
    <glyph glyph-name="e" unicode="e" horiz-adv-x="2479" 
d="M28 1789q-35 -100 -72 -169v-543l-37 36l-48 265l-24 12l-12 37l-12 36l-12 36q-59 69 -85 145q-545 292 -338 -241l24 -13l25 -36q80 -92 120 -157q111 -91 145 -193q-513 432 -797 205q-50 -63 -60 -132q65 -69 97 -121h48q69 -44 133 -48q26 -7 36 -24q240 -7 422 -85
q-743 31 -760 -434l72 -73q100 -7 181 12l49 12q110 70 205 97q125 112 253 145q-54 -87 -132 -121l-12 -36l-25 -36l-72 -61l-12 -36q-82 -103 -121 -169q-6 -75 -24 -133q232 -601 567 423q17 -157 -24 -278l12 -36l12 -24v-145q22 -72 25 -133q374 -426 398 85
q-32 42 -24 84l-24 12v85q-114 172 -109 338q250 -501 604 -495q266 81 72 326l-36 24l-36 12l-25 36q-93 29 -157 85q-137 57 -217 144h36q301 -116 568 -96l12 24q135 56 205 157q14 313 -471 193q-188 -46 -326 -36q70 33 133 36q16 19 36 24l24 24l37 24q152 62 241 121
q214 219 85 447q-76 36 -133 24q-66 -55 -121 -73q-43 -53 -96 -84q-23 -38 -49 -60q-103 -168 -229 -254q351 605 0 845h-73q-37 -26 -72 -36z" />
    <glyph glyph-name="f" unicode="f" horiz-adv-x="2509" 
d="M-462 1672v-170q38 -37 38 -86q110 -74 142 -189q109 -88 105 -209q-82 53 -105 133q-54 30 -76 76q-129 10 -47 -152q79 -60 123 -123q-57 4 -85 47q-49 8 -85 28v48h-29l-28 76q-87 49 -124 123h-66l-9 28h-76l-10 19h-28h-190q108 -373 484 -350q33 -30 76 -29l9 -19
q83 -16 114 -76q-379 99 -285 -76h38q93 -32 162 -28q10 -14 9 -29q-15 -8 -19 -18h-38h-38h-47l-38 9q-89 24 -161 19q-44 26 -86 19q-79 -47 -151 -47q-64 -94 -152 -124v-57q219 -101 427 -47l28 47h47v29q120 31 200 76q53 1 85 -19q-171 -49 -237 -181l57 -18
q99 -1 161 66h28q44 38 86 47l-10 -19l-19 -9q-19 -60 -47 -95l-29 -19q-75 -35 -123 -76q-104 -27 -152 -104h-28q-22 -83 -66 -133q-27 -133 -29 -218h29q16 8 19 19h75v28h67q35 41 85 48q5 21 19 28q30 82 85 124q13 130 76 227q44 68 95 104q-13 -124 -76 -208
q13 -150 152 -19q2 123 76 199v-85q-30 -94 -29 -162q-98 -164 -75 -331l28 -10q0 -95 76 -142q9 -47 28 -76h29q215 283 47 550v57h-28q-6 120 9 199q39 -50 38 -104l29 -19v-76q38 -19 47 -57q47 -1 76 -19q49 141 -48 228q-4 56 -19 94q90 -36 95 -123l48 -28
q64 -400 436 -427q-41 401 -408 512l-9 19q-44 60 -67 104q203 -128 285 -76l-10 76q-29 18 -47 38q-98 23 -152 86q137 1 228 -76h47v-29q61 -13 104 -47h95v-29h95q69 42 133 29q36 27 76 28l9 67q-252 228 -531 151q-158 -63 -227 29h94q72 30 133 28q25 53 29 95l-38 29
h-67l-19 -19h-28l-161 -29q33 66 104 95q58 -10 76 29q384 -19 502 322v9v-9v19v-10v19v-9v9h-28h-38h-66q-71 1 -114 -19h-57q-27 -44 -76 -47v-28l-28 -19q-37 -43 -76 -57q-51 -95 -124 -143q-235 -153 29 114v105h-76v-29h-28l-48 -76h-28q-22 -63 -67 -95v29
q22 61 19 114q83 56 105 132q216 156 123 503q-107 -15 -152 -104q-175 -127 -123 -408q-6 -130 -76 -218v28v29v189q-42 17 -76 48v-19v19v-19l-57 -29v-218l10 -57q-76 55 -57 143q-41 73 0 142q5 363 -294 474q5 -81 -38 -133z" />
    <glyph glyph-name="g" unicode="g" horiz-adv-x="2459" 
d="M-10 1818l-124 -15q-56 -27 -110 -29q-807 -368 -746 -1199q133 -650 688 -899q555 -176 986 81l66 22q421 327 483 796l7 22v73v29v52l-7 160q-275 956 -1221 914q-11 -8 -22 -7zM92 1774q-76 -114 -255 -59l7 -22q54 -45 80 -87l-51 -8q-93 -30 -146 44q-71 27 -15 51
l73 30l30 7q11 8 22 7l21 8q81 6 139 29h95zM663 1635l-8 -15q-19 -54 -36 -87h-95q-11 64 -66 87q-68 7 -95 -51q-55 23 -95 29v22q21 74 22 132h-22q-11 -86 -29 -146q-158 35 -286 7q-27 32 -51 51v8v-8v8q168 -6 227 102q301 -6 534 -139zM-332 1664q44 -64 88 -95
q-125 -86 -227 15q-15 -33 81 -88q-96 -76 -190 -36q-83 -5 -15 43l15 15l22 7l7 15l15 15l22 14l22 8l7 14l14 7l22 8l8 14l14 8q56 23 88 44zM831 1503q-101 32 -176 30l15 95q101 -51 161 -125zM472 1591q53 -111 -87 -36q14 28 36 43zM34 1584q36 -186 -154 -190h-58
q41 89 -7 161h36q11 8 22 7q7 8 15 7l117 22zM268 1445q-110 -35 -205 0q31 81 0 146q307 19 205 -146zM436 1416q-69 -26 -117 22q16 53 7 102q173 -46 110 -124zM-222 1408q-54 -94 -132 -29q-138 31 -43 81q93 52 160 73q95 -46 15 -125zM1013 1299q105 -160 -95 -132
q-54 69 -36 146l-29 15q36 -156 -81 -139q-40 37 -58 66q116 32 80 139q-102 114 -241 44q-118 75 29 73q299 20 431 -212zM546 1291q-23 64 -74 95l22 59q95 -57 52 -154zM-551 1372q-84 11 -146 7l36 59q191 1 110 -66zM772 1394q24 -81 -44 -103q-81 -8 -109 88
q-61 37 14 59q87 4 139 -44zM129 1328q-109 -90 -227 -95q76 61 30 132q57 19 95 51q92 -10 102 -88zM165 1313q-18 39 -14 81q74 -4 124 22q172 -91 -110 -103zM-229 1036l-30 -15q-7 277 -255 344l14 21q288 -62 271 -350zM-580 1350l-29 -44q-118 19 -154 -36l124 7
q-17 -44 -36 -73q-45 37 -139 7q46 100 102 161q70 -36 132 -22zM494 1218q-110 4 -168 81q27 38 30 73q224 -2 138 -154zM-215 1226q-32 20 -36 58l-29 29l21 8q31 18 59 22l51 22q172 -80 -66 -139zM626 1313q-12 -210 -190 -212q141 91 161 234zM-302 1116q16 -67 7 -124
l-15 -7l-44 -15l-14 -15q-59 -21 -95 -44q-130 -44 -168 52h-66q-23 200 146 365q204 -29 249 -212zM297 1160h-22q-53 14 -88 15q-6 67 -51 102q68 -3 117 7q176 -42 44 -124zM1065 1153q21 -349 -278 -198q68 -260 -176 -314q144 278 -102 431q120 70 146 190
q189 -367 410 -109zM19 1160q-49 -4 -58 51q68 16 117 44q189 -66 -59 -95zM-814 1182h22l14 7q57 4 95 15l-7 -15l-22 -66l-22 22q-7 -8 -14 -7l-117 -29l7 22l37 80zM-47 1160q-24 -60 -87 -59q-69 -96 -73 74q12 32 51 29q74 6 109 -44zM487 1182q-67 -72 -146 -37
q36 23 44 59q57 -26 102 -22zM-580 1072q102 10 117 103q66 19 -44 29q-69 -54 -73 -132zM991 1131q-112 -113 -204 7q-19 27 22 22q35 6 58 22q60 -52 124 -51zM-551 1101q12 46 44 74q54 -36 -44 -74zM399 846h22q87 130 212 51q10 -103 -29 -190q-124 -40 -80 73h7h-7h7
l36 7q-56 50 -109 -58q-77 -616 -658 -446q-236 118 -212 358q65 42 124 44l-44 -66q20 -322 446 -278q256 144 263 410q-4 229 -204 277q-211 42 -183 -175q99 -65 139 29q-11 47 -59 51l-7 -29q49 -2 37 -44q-132 -16 -73 110q73 72 160 29q126 -153 8 -292
q-129 -110 -220 22q-13 66 -58 73q20 -68 58 -110q25 -274 -204 -248q-148 133 0 241q148 -46 22 -146q59 -1 80 44q12 36 7 65q-127 390 227 490q287 -26 292 -292zM1108 1123q13 -26 15 -51q48 -88 51 -175q-59 30 -109 36q47 105 36 205q8 -7 7 -15zM589 955
q-97 7 -160 -51q-39 132 -125 212q176 -45 285 -161zM-726 1109q-22 -89 0 -168q83 -26 131 -73q153 6 263 80q51 19 81 37q50 -29 95 -15l-7 -51q-8 -8 -15 -8q-67 22 -124 8q68 -36 131 -22v-22q-14 -98 0 -168q-127 92 -14 73l-15 29h-51q-52 2 -88 15h-73q-20 -8 -37 -8
q-14 -26 -43 -29q-41 41 -88 22q-190 199 -358 -7q-11 101 44 117q263 102 -22 22l7 14v22q22 66 29 110q67 -3 117 22h37zM-83 1072q-49 -51 -66 -102q-40 24 -80 22q75 61 131 88zM-756 1021q9 24 -14 29q-170 -63 14 -29zM348 773q12 -78 -80 -15q30 121 -22 219
q102 -82 102 -204zM1189 838q-68 -17 -103 -58q167 -615 -248 -658l22 29q209 78 183 293l22 29q4 139 -117 95l14 -15q76 9 81 -65q-35 -44 -88 -37q-20 61 -73 73q13 127 131 139q-158 156 44 248q81 -16 132 -73zM948 868q-64 -99 7 -190q-86 -58 -154 29q58 98 30 190
q69 -25 117 -29zM-602 765q76 45 88 -29h36q123 108 234 -7q-130 -5 -205 -88q-14 -206 132 -322q-153 -130 -132 -307q-122 129 -153 285q73 0 131 -21q-37 86 -138 51l-8 36q92 15 154 -36h36q-40 94 -190 73q37 362 -292 373q29 58 80 87l59 15q123 -10 168 -110z
M-185 860q-72 14 -125 8q57 -74 125 -8zM1189 802v-66q-109 -12 -51 66h51zM-909 729q273 21 248 -241q-55 72 -138 58q7 159 -147 175l8 37zM312 597q-51 52 -103 73q20 37 44 59q126 -29 59 -132zM1189 707q4 -128 -29 -219q-1 128 -37 219h66zM-843 480q124 84 175 -36
q-145 -6 -117 -147q81 -44 154 -14q-2 -42 -8 -73q-314 13 -299 482q163 -41 95 -212zM582 663l-29 -51q51 -18 58 -59q-80 -17 -153 15l7 22q0 60 7 102q59 -27 110 -29zM875 619q-19 -105 -154 22q26 28 51 44q64 -28 103 -66zM78 626q121 44 204 -36q15 -125 -109 -176
q-2 131 -125 125q-123 -105 0 -154q117 31 22 103q31 -94 -51 -66q17 156 132 44q-35 -181 -322 -66q180 61 176 248zM641 568l-22 44l58 14q98 -41 -36 -58zM845 466q87 40 81 -59q4 -90 -30 -153q-84 -130 -175 -198q-270 -16 -300 329q161 143 344 176q89 -7 80 -95z
M538 517l-51 -29q-37 -50 -88 -74l8 15l7 22q27 50 37 88q52 -8 87 -22zM904 202q66 110 58 220l51 7q18 -158 -109 -227zM-646 312q-231 -39 -58 110q76 -24 58 -110zM663 5q-135 -87 -220 81q-143 135 -58 255q56 -253 278 -336zM611 195l-51 7l7 -29q207 0 117 161
q-67 -60 -73 -139zM633 202q18 60 44 95q16 -69 -44 -95zM-259 276q-153 -145 -116 -337q-112 214 80 351zM217 151q-53 27 -44 81q81 18 131 51q86 -136 -87 -132zM-229 246q-50 -85 14 -160q-25 -30 -29 -59q-65 -13 -102 -51q-11 171 102 278zM-39 217q-15 -90 29 -153
q-279 10 -183 182q90 -28 154 -29zM-661 181l-7 -37q-126 -8 -146 88q74 -53 153 -51zM144 224q-2 -88 73 -117q-106 -83 -212 -14q-59 136 117 131h22zM-595 56q-1 -44 8 -80l36 -37q112 23 168 -43q-144 -54 -219 51q-52 35 -81 65l8 22q24 110 58 176q67 -80 22 -154z
M918 100q29 19 59 22q19 24 44 37q-16 -76 -103 -59zM414 49q-150 -99 -175 0q18 85 102 102q53 -46 73 -102zM-683 122q-44 -61 -87 15q47 -15 87 -15zM823 86l15 -8q53 0 88 -7h44q-69 -125 -220 -66q-39 6 0 29l51 52h22zM-558 -24q-11 57 0 102q174 -135 0 -102zM34 27
q-7 -54 7 -95h-29q-102 19 -168 15q-102 44 -22 124q111 -49 212 -44zM129 -61q-166 59 44 110q124 -62 -44 -110zM575 -53q-242 -202 -271 14h22q54 46 103 66q73 -61 146 -80zM-237 -53q68 -30 30 -103q-78 20 -125 81q21 45 59 66q36 -12 36 -44zM692 -185
q-140 -107 -110 7q17 113 102 161q30 -76 8 -168zM809 -104l-88 -59v22l7 117q218 11 81 -80zM268 -53q7 -78 58 -125q-265 -70 -234 37q56 74 147 88h29zM-127 -90h22h22h29l124 -14q-18 -58 -14 -103l-117 8q-136 8 -88 109h22zM451 -229q-92 35 -8 66q73 26 117 59
q22 -224 -109 -125zM-193 -199q-124 -48 -219 0q-41 16 -59 43q-31 8 30 15q44 3 80 15zM487 -287q-123 -31 -227 29q-22 -12 -43 -15q-41 -76 -117 -73q-42 20 -22 59q6 49 51 51q108 -2 190 29q101 -19 168 -80zM-127 -221h22q82 -22 146 -15l15 -7q-14 -54 -8 -95h-58
l-22 7h-22l-22 7q-37 8 -66 8l-168 58l8 15h29l124 22h22zM202 -338q22 35 51 51q205 -37 -51 -51z" />
    <glyph glyph-name="h" unicode="h" horiz-adv-x="2465" 
d="M-87 1812q-7 -45 -17 -75q-7 -66 -31 -114v18l-9 22l-4 13v17q-11 22 -13 36q-8 45 -18 74l-17 18l-22 -14v-122l-5 -13v-106q-169 241 -272 106q9 -41 31 -71q315 -119 118 -565q-435 -174 -626 180q2 -235 206 -299l-5 -52l-17 4h-18q-26 9 -48 9q-41 14 -75 13l9 -48
l-13 4l-13 5h-13q-49 15 -79 17v-13l-5 -88l-17 5l-13 8l-13 5l-9 9q-42 15 -66 30v-144l9 4q54 32 96 44v-18q5 -6 5 -13v-13l8 -70l9 4l35 9q27 16 48 18v-14q5 -31 5 -52h13l9 4h26h18q4 5 8 5h18q39 7 74 4l-13 -61q-235 -67 -232 -303q209 349 640 171l18 -4
q192 -416 -93 -562q-21 -23 -39 -35q-15 -36 -4 -70q140 -81 263 132q8 -35 4 -62v-166q3 -16 13 -27l27 9l4 26l9 22l4 14l9 30q10 58 26 97l5 -22q8 -26 8 -48q5 -5 5 -9l4 -13l4 -31v-13q12 -34 14 -66l39 4v14l4 13v13l5 17l4 14l5 30l4 13q7 50 22 84l4 -22v-13
q5 -7 5 -14q12 -33 13 -57q20 -49 22 -87q20 -4 35 0l4 13v22v57v17v75v13v53q155 -234 276 -119q-1 34 -13 57q-23 16 -39 35q-280 133 -97 557q470 201 684 -158q-2 252 -228 303v31q-4 13 -4 26h17l75 -4l70 -9v13l5 53h13l8 -5l14 -4l57 -22v17l4 14v13l9 70
q65 -22 105 -48v74v13v53l-13 -4l-13 -5q-24 -18 -49 -22q-23 -16 -43 -22v13l-5 88h-17q-42 -16 -75 -17l-26 -9q22 52 -22 48q-7 -5 -13 -4l-114 -22l-5 44v8q217 73 211 299q-227 -367 -636 -171q-181 403 105 548q22 23 40 35q9 33 4 61q-129 93 -272 -127v13v18v74v13
v53q-5 160 -48 35l-9 -35l-8 -31l-5 -9q-6 -41 -17 -70l-5 22l-4 13l-4 22l-22 136q-17 9 -35 9zM-65 1685v-13q5 -7 4 -14l9 -48q15 -60 18 -101q21 -4 35 0v13l9 36l4 8v13l4 14l18 52v-118q-9 -50 35 -57q69 173 215 215l26 -18l-13 -31q-319 -150 -145 -596l-70 40v13
q-6 41 -4 70q-14 113 -18 4q-3 -92 -35 -65q-22 9 -13 35q-5 6 -4 13v35q-1 68 -14 109v-39q-5 -27 -4 -48l-4 -13q-2 -50 -9 -84l-35 5v17l-5 13v44v35l-8 110q2 45 -5 74l-4 -30v-62l-4 -22q1 -40 -5 -70v-39l-4 -70l-44 -5v13l-4 14v22v13l-5 13v13v18q-6 45 -4 74
q-7 -5 -9 -13v-35l-4 -13v-49l-5 -8l-4 -70l-35 -5v18v13v13q-6 17 -5 35l-8 48h-5h5h-5v-35l-13 -109q-42 -18 -66 -35q183 431 -140 591l-13 31q90 49 188 -109q16 -21 22 -40q23 -23 27 -48q21 1 35 9v17v75q9 40 4 70l4 -9q18 -80 36 -127l30 4v18l5 13l4 13v13l9 35
l17 92q8 -2 9 -8zM308 764q10 -248 -171 -382q-172 -92 -342 -35q-182 71 -237 242q-48 181 44 320q101 162 280 184q350 -5 426 -329zM-403 667q47 -187 202 -263q368 -81 447 263q-5 360 -355 364q-302 -70 -294 -364zM207 830q66 -194 -57 -325q-122 -131 -285 -101
q-331 106 -224 434q20 -30 44 -48q309 -58 -9 -149q-72 -69 53 -48q-60 -95 31 -92q18 28 35 44q7 -55 57 -66q18 6 30 13l5 13l4 18q5 32 5 52q1 36 8 62l18 13l9 -13l8 -35q-1 -67 14 -110q20 -13 39 -9q46 22 44 70q27 -56 74 -52q32 32 5 70q-31 34 17 18q45 -12 57 26
l-22 26l-13 5q-79 26 -131 35q-55 82 57 92q75 10 109 61q-32 41 -74 13q-24 -5 -5 18l5 9q28 36 -5 65q-42 13 -74 -48q-3 49 -44 70q-22 2 -39 -9l-5 -26l-9 -35q2 -55 -8 -92l-22 -4q-30 282 -119 105q-26 34 -52 52l9 9q89 50 175 57q201 -24 285 -188zM566 909l9 -31
q19 -32 26 -57q26 4 44 4q52 16 92 13l9 -57h18q4 6 8 5l75 4v-26l-4 -88l-35 9q-42 14 -71 18l-4 -75l-18 4l-13 5h-13l-13 4l-18 5q-25 1 -43 8l-40 5v-110h-48l-13 -4l-40 -5l-17 -4l-22 -4q-11 -8 -22 -9l-9 -9h-17l-13 -9l-9 -4l-27 -9l-13 -4l-92 -44q204 289 -22 557
q179 -107 355 -92zM-363 992q-240 -282 -13 -557l-62 26q-143 79 -289 84v17l4 13v14l5 70h-18l-74 -18h-13q-28 -12 -53 -13l-4 75q-62 -21 -101 -18v13v18q-7 43 -5 74q59 -1 97 -9l4 31l5 26h13q23 0 35 -4h13l75 -13l4 17l22 71q199 -14 346 87zM-293 887q14 -22 22 -40
q-43 18 -79 0q18 44 48 70q7 -15 9 -30zM-630 869h17l18 -4h13l96 -18l-9 9l-13 4q-54 30 -92 40q-16 -19 -30 -31zM435 895q-4 -5 -9 -4l-26 -17q-35 -11 -57 -27h17q76 22 127 22q-19 25 -43 31q-5 -5 -9 -5zM-687 808h17h18l13 -5h30l14 -4h13l70 -9q-25 10 -44 13l-9 5
h-17l-9 4q-53 15 -88 18zM501 825l-14 -4h-13q-4 -5 -8 -4q-59 -18 -97 -22l22 -5q4 5 9 5l57 4q50 12 87 9q-11 24 -35 22q-4 -5 -8 -5zM-753 711h22l17 5h13h27l17 4h13l31 4l96 5l22 4l-70 9l-17 4l-13 5h-18h-13l-13 4h-13l-9 5l-88 8zM549 764h-13q-7 -5 -13 -4l-14 -5
h-22l-8 -4h-18l-9 -5h-13h-13q-42 -12 -74 -13q34 -8 61 -4h13q17 -5 35 -5h18l8 -4h18l110 -9l-9 57h-40zM-679 624h13q27 10 49 13l74 13l26 9h-13h-17h-75h-13h-52zM395 654l14 -4l127 -26l8 35h-13h-17h-75h-13h-52zM-587 589q-26 -9 -48 -9l13 -31l9 4l26 9l70 27
q27 11 -13 8q-32 -11 -57 -8zM369 593l13 -4l9 -5l13 -4l66 -31l17 9l9 22h-17q-26 7 -48 9l-75 8zM-302 369q38 -24 66 -35l4 -13q-1 -69 18 -123q2 173 44 101l4 -13l9 -149q4 -8 9 -9v44l4 13v35l5 70q21 20 48 14v-22q7 -36 4 -62l5 -39v-79q9 -51 4 -88q8 8 9 18v17v18
v22l4 17v13v14v30l4 48v14v30v13q5 21 5 36l39 -5q-1 -26 5 -48v-26l4 -14l4 -87l9 17v13v18v13l5 31v13v13l4 70l39 9v-31q5 -16 5 -30q11 -35 9 -66l8 13v18v30l9 79q28 17 48 22q-159 -425 154 -570l13 -31q-100 -36 -197 114q-95 198 -79 -92l-5 14l-4 13l-4 8
q-9 67 -35 110l-22 -13l-5 -31l-4 -13l-5 -13v-13l-13 -75q-9 -22 -8 -39q-8 3 -9 9v13q-5 6 -5 13l-4 26l-9 22l-4 44q-14 33 -13 61l-31 5l-4 -13l-5 -9l-13 -44l-13 -70l-4 13v48q-9 60 -5 101q-33 26 -70 -70q-107 -157 -202 -119l13 31q312 146 150 588z" />
    <glyph glyph-name="i" unicode="i" horiz-adv-x="2518" 
d="M-1231 1790q53 17 0 35v-35zM-1044 1731q70 -164 -23 -303q-19 110 23 210q-132 270 -70 -140q-130 128 -35 269q-96 -8 -152 -47q23 -62 93 -47l-46 -35q180 -139 175 -281q-63 184 -187 187l-59 106q-23 -39 -23 -71q149 -88 187 -233l35 -12q-64 -23 -93 47
q27 -56 58 -94l-82 35l-23 47q11 -36 0 -70q-50 17 -117 -70q134 -318 12 -409v-36l-12 -81q47 -91 140 -59q-54 -189 -11 -362q-78 -53 -106 -129q154 32 0 -187q64 -63 106 -93q-79 -106 -71 -211q70 63 82 152q36 -176 94 -58q-70 36 -82 105q216 54 47 -47q92 10 152 59
q-11 -94 0 -164q45 111 0 199h35q25 -191 128 -316h106q11 14 23 12q17 74 47 117h35l199 -71q150 162 210 12q49 -11 70 -47q32 113 -82 152q114 98 246 94q-190 -87 -129 -140h35q103 226 59 23q74 46 93 117q88 3 12 -94l-117 -93q69 -21 117 -24q88 37 140 47
q66 43 129 -11q-48 36 -70 70l35 11q65 -62 140 -81q21 116 -47 187l36 70q48 -63 46 -141q107 -61 164 -140q0 93 -35 164q-47 44 -59 105q-117 75 -23 70q-55 61 59 47q348 147 58 117q81 74 175 105v12v-12v12q-286 15 -502 -117q-24 70 -59 105q80 -148 -47 -234
q17 196 -105 281q32 -208 82 -328q-36 -52 -47 -105q-191 4 -47 35q-85 79 -175 94q32 31 70 47q-57 103 -105 163q-41 -13 0 -82h-58l35 -23l-71 -23q-165 -202 -409 -152q7 109 59 175q-69 14 -105 35q-83 18 -141 12l-82 199q-90 -112 -117 11q-30 198 129 269l47 82
q15 -84 -24 -140q-37 40 -70 -12q-7 -65 -46 -117h-12h12h-24h12h-12q117 -70 105 70q38 -63 47 -128l47 11q42 269 -70 503q61 -11 70 -70q257 25 93 257h-11h11h-11q-84 -21 -141 47l-23 35q183 0 70 82q-35 -73 -105 -70q227 274 199 584q-48 -78 -82 -117
q18 150 -117 164q-83 -43 -117 -94zM-904 1673q-37 5 -58 35q21 38 47 59q69 -39 11 -94zM-1301 948q70 351 374 515l23 35l12 23l23 23q79 84 117 152q-21 -514 -549 -748zM-997 1451q-74 -69 0 128q66 27 140 24l24 47q-44 -142 -164 -199zM-681 1170q-9 57 11 106
q-52 33 -70 81q-62 -142 59 -187zM-1254 1229q-32 -93 -35 0h35zM-880 1053q11 -61 -12 -105q9 -56 -35 12q-41 47 -82 70q143 -103 82 -234q-92 256 -117 94l-12 23l-58 105q31 65 93 12q-84 85 141 35q-61 58 -82 105q198 -49 82 -117zM-1231 843q-51 19 -35 82
q62 63 105 93q35 -116 -70 -175zM-798 948l11 70q109 -45 -11 -70zM-1161 749q-59 78 35 234q10 -130 -35 -234zM-962 703q-116 -214 -59 -410q-254 -239 -233 258q92 225 152 105l35 23q11 131 58 222q60 -93 47 -198zM-974 621l24 82q63 52 81 128q32 -151 -105 -210z
M-763 761q73 -8 128 35v12v-12v12q-65 20 -117 23q-79 -47 -11 -70zM-1254 726q-100 -35 -35 58zM-483 621q64 4 82 -47q-90 16 -152 -35q134 -79 281 -47q-48 56 -47 117q-115 59 -175 152q0 -83 11 -140zM-635 633q-57 78 -128 105q20 -107 128 -105zM-179 504l-23 105
l-94 82q8 -140 117 -187zM-775 445q225 -113 0 188q22 -110 0 -188zM-144 504q65 -24 70 -82q57 -15 82 -58q-7 56 12 93q-20 65 0 129q-60 -26 -105 0q-19 -53 -59 -82zM-565 469l-35 23q-48 -92 35 -23zM-202 422q-79 -9 -129 -47q113 -28 187 12l70 -47q-84 111 -187 152
zM43 364q93 28 71 117q-49 -55 -71 -117zM-565 364q425 95 59 105q-39 -57 -59 -105zM-459 340l70 24h-70q-34 -20 0 -24zM-681 282l-36 -47q47 -36 82 -35q22 93 106 140q-77 -51 -152 -58zM382 258q95 26 -81 82q-93 -60 81 -82zM-845 118q113 45 210 -12
q-9 -129 -82 -198q54 -115 -23 -199q-13 -107 -117 -94q-121 153 -105 328q-297 -115 -363 46q178 261 258 188q30 101 140 128q87 -86 82 -187zM-38 305q-6 -59 -59 -70q50 -41 105 -47q76 -161 47 129h-23h23h-23q-35 -28 -70 -12zM-190 165q-14 101 -106 128
q38 -84 106 -128zM745 247q-87 -12 -152 -59q-52 -71 -105 -105q-156 -357 -491 -409q31 62 81 93q165 439 597 515q46 -3 70 -35zM-565 200q17 -82 12 -140q56 -32 105 -12q64 -79 82 12q37 12 70 11q-23 88 94 82q-67 2 -117 12q-12 90 -164 105q-31 -62 -82 -70z
M-1243 130q-47 -30 12 117q65 -56 -12 -117zM-915 223q-6 32 -35 35q5 -32 35 -35zM-892 200q-76 1 -129 12q100 -266 129 -12zM-471 118l12 70q135 -65 -12 -70zM-1208 83q90 -255 246 -35q-68 66 -140 82q-51 -35 -106 -47zM-214 13q-68 -19 -35 23q44 44 82 59
q94 11 -47 -82zM523 -11l140 -11l35 -59q217 -33 140 176q-66 1 -116 11q-68 -127 -199 -117zM-869 13q201 -118 117 82h-58q-40 -47 -59 -82zM125 -69q-58 90 -140 129zM780 48q-6 -121 -58 0h58zM-1278 -46q87 20 12 59zM20 -57h-35l-35 -12h-35h-35q-113 -35 -199 -35
q209 -94 -23 -140q-220 -143 -199 46l-59 -23l12 -58q-121 6 -93 187q114 13 198 0l35 23q59 3 94 12q109 45 187 58q112 -7 187 -58zM-915 -221q134 -63 175 47q13 107 -152 163q-33 -119 -23 -210zM733 -151q-73 14 -117 47q87 -174 117 -47zM359 -268q-76 44 -12 106
q19 -59 12 -106zM686 -338q53 64 129 59q-14 55 23 93q-34 31 -70 24q-78 -90 -82 -176zM-1114 -373q18 48 58 70l-93 24q-139 -126 35 -94zM-798 -291h-35q7 -78 35 0z" />
    <glyph glyph-name="j" unicode="j" horiz-adv-x="2509" 
d="M-1423 730l35 -46l-35 -47v-1043h35h232h81h69h82h69h81h70h81h70h197h69h58h70h46h209h127h47h46h47h46h197h35h139v93v46v58v46v58v151v46v198v34v139q7 115 -23 198l23 46v162v35v209v150v47v197v35v139v46q-918 -101 -1032 -951q-36 -24 -70 -11q179 946 1079 1020
h-35h-35h-150h-82h-81h-35h-34h-360h-81h-70h-81h-69h-58h-70h-46h-209h-127h-47h-46h-47h-46h-197h-35h-139v-1055zM-1353 1773q92 -903 950 -1031v-47q-957 139 -1008 1078h58zM-333 684h-46q-134 904 -963 1031v58q969 -176 1009 -1089zM-704 1773q60 -348 382 -359
q348 12 383 359h58q-63 -397 -441 -429q-404 42 -440 429h58zM-600 1773h35q107 5 186 -11l-128 -47q247 97 81 -162q74 86 93 186q54 -56 81 -116q-103 190 128 69l-151 81h232q64 -66 -23 -104q36 -175 -198 46q226 -249 35 -173q12 -92 -81 -58q-21 117 -12 208
q-29 -117 -23 -208q-75 -27 -81 46q-179 -30 47 185q-244 -218 -198 -23q-72 0 -58 81h35zM-1226 1634q15 63 58 12q-1 -62 46 -81q-34 90 58 58q-12 -130 35 -139q-12 62 12 104q98 -53 58 -197h46q-34 78 35 127q109 -87 35 -231l35 -35l34 11q-41 201 93 70
q38 -22 -35 -186l58 -23v105q151 25 47 -186l46 -12v70q110 27 23 -162h47q21 130 58 -128q-49 38 -47 81q-62 -18 -69 58q-75 37 -82 116q-58 -97 -104 93q-71 -68 -127 128q-41 -45 -82 23l-58 127q2 -72 -46 -23q-38 59 -58 104l12 -58q-68 62 -93 128q-78 15 -116 69
l23 -23q32 -38 47 -81q105 -16 92 -104l70 -23q91 -89 -12 -47q122 -56 186 -139l-105 12q270 -80 198 -151q185 -52 92 -104q105 -16 139 -105q-283 -58 -92 58l-58 24l-58 -58q-79 11 -93 69q44 45 104 23l12 35l-70 35q-121 -128 -208 23q57 71 139 35l11 35l-46 34
q-126 -80 -209 24q-7 64 116 69v12v-12v12l-35 23q-69 -29 -127 -12q-70 68 69 93q-70 22 -127 0q-69 96 46 70l-11 46q-145 -2 -58 70q-72 31 -70 104q76 -20 116 -70zM699 1704l-12 -70l-58 -46q70 -10 12 -58q-60 -1 -81 -46h81q-15 -71 -162 -70q129 -34 81 -70l-23 -46
q-144 63 -140 -35q65 13 116 0q-67 -153 -220 -58l-46 -58l11 -11q214 7 70 -93q-81 -58 -139 35l-47 -12l-11 -58l81 12q29 -171 -162 -35l-35 -46q149 -43 11 -81l-69 46l-23 -46q136 -46 -82 -35q21 33 47 46l35 58q69 61 150 81q-133 28 105 105h-70l128 127l34 35
q45 49 93 69l23 35l35 35l35 23l12 23q56 78 127 105q-18 51 35 81l-81 -35l-35 -81q-68 -72 -58 0q-132 -235 -104 -104l-58 -105q-48 -60 -105 -69q-18 -72 -69 -116q-23 21 -23 46q-86 -243 -128 -116q-3 -156 -70 -92q2 -109 -81 -93q-6 -44 -35 -70q13 254 58 128h35
q-61 305 58 92l23 58q-70 84 -11 163q75 -37 58 -116h46l12 58q-45 59 -58 116q142 154 116 -58h46l23 35q-43 90 -23 173q110 85 93 -58q51 -4 58 47q-49 55 0 104q76 44 46 -58l58 12q-28 92 23 139q33 -21 24 -58q62 5 46 69q50 24 81 -23l35 70h58zM768 1704
q-145 -968 -1078 -1020v58q918 98 1020 962h58zM-1029 869q110 -278 -58 -487q351 282 754 290v-46q-896 -123 -1020 -951q-28 -18 -58 -23q17 302 162 522q12 20 23 23q50 103 116 162q-140 -115 -301 -127v69q345 54 371 383q-51 341 -371 382v58q274 -34 382 -255z
M768 1055q-306 -51 -359 -337q7 -354 359 -417q13 -57 -34 -69q-358 126 -395 463q57 375 418 429zM-1319 950q189 28 -46 -220q241 218 197 46q64 -15 58 -81h-209l-23 -23q127 6 209 -11q18 -302 -232 -35q211 -235 35 -209q-7 -62 -70 -46q-21 136 -11 232l46 -70
q-81 180 139 58q-108 44 -151 104q113 30 186 70q-299 -135 -128 139l-23 -12q-29 -97 -69 -162q-14 152 23 267q51 -10 69 -47zM768 974q42 -383 -81 -70l35 -104q72 -139 -116 -47q242 -95 -46 -162q110 15 174 58l23 -58q22 -92 11 -174q-40 -85 -81 0q-58 -12 -93 12
q51 117 140 197q-101 -114 -209 -128v70q-127 128 185 104l-23 12l-23 11q-17 -13 -35 -11q-86 20 -150 11q-2 58 46 81q-59 175 209 -46q-230 236 -58 209l34 58zM-635 823q27 51 70 69q156 -111 -70 -69zM768 -383h-46q-115 887 -951 1009q-30 41 23 58
q926 -198 974 -1067zM-264 672q120 -905 963 -1008v-47q-951 88 -1009 1055h46zM-333 533q-206 -930 -1078 -927v34q899 65 1032 974q55 -22 46 -81zM-484 556q47 6 -11 -23q-46 -70 -116 -81q42 -26 0 -58q-67 -27 -116 -23l58 -35l-58 -46q-57 -77 -116 -116l-35 -35
q-61 -72 -116 -116q-54 -80 -128 -93q14 -86 -92 -104q1 -32 -12 -58q-45 -40 -46 -93q-136 -3 0 81l-47 58q67 31 116 35l-11 35q-90 -25 -47 46q53 32 105 0l23 47q-135 -6 -58 69q73 32 139 0l23 35q-206 16 -46 139q92 -53 185 -23l-23 46q-96 -30 -127 47q59 32 92 69
q185 -99 174 0q-198 12 -23 93v-12v12v-12q102 -76 128 12q-66 -13 -82 35l47 34q69 -37 127 -34q-78 45 0 81zM3 533q-34 -28 -69 -23q6 -79 -70 0q-31 39 23 58q62 -6 116 -35zM-101 463q-115 -163 -81 70q37 -44 81 -70zM38 452v-47q200 81 209 -34q-89 -7 -116 -70
l69 -11q183 155 163 -70q-83 30 -116 -23q108 -29 185 23q143 -134 -35 -116v-46q224 36 151 -81q-40 11 -58 -24q67 -11 116 0q61 -89 -23 -58l-12 -46h81q20 -51 -11 -93q58 -23 46 -81q-74 19 -104 70q-10 -69 -70 -12v12v-12v12q16 84 -34 34q27 -56 -35 -34
q-52 55 -12 127q-51 0 -46 -46v-35v12v-12q-121 37 -81 197l-47 -35q52 -78 -35 -92q-86 54 -46 255l-46 -12q41 -128 -70 -127q-84 111 12 197v46l-58 23q-32 -199 -105 -23q63 50 47 116q-53 -21 -35 -81h-46q-24 94 23 174q19 -30 23 -58q33 70 58 -23q112 -45 116 -163
l12 58q54 -38 69 -81q108 -76 162 -162l24 -47q-27 54 23 70l11 -12l-11 12l11 -12l24 12q-245 69 -93 116q-162 15 -220 151q-79 33 -93 104q-57 10 -81 58q79 22 127 69q110 -67 -23 -69zM-461 498q49 -155 -81 -93q123 -271 -58 -81l-11 -46q81 -72 23 -151q-83 6 -70 93
l-35 12l-23 -47q52 -72 58 -139q-146 -142 -116 46l-34 24q-48 -88 11 -209q-134 -119 -139 70q-32 -32 -35 -70l23 -35l12 -58q-116 -76 -104 58l-35 -11q14 -217 -70 -70h-11h11h-11q-15 -71 -58 -104l-12 11l12 -11l-12 11q-20 46 12 81h34q37 81 105 116q36 49 81 70
q126 208 128 93q69 220 139 150q23 71 58 116q46 28 23 -46q27 133 93 116q22 68 58 104q17 -29 34 0zM119 -394h-58q-54 326 -348 359q-359 -13 -417 -359h-58q66 334 359 429q465 -3 522 -429zM374 -23q58 -45 70 -105q35 103 104 -104l12 35q58 -45 92 -81l-23 23l-58 69
l-34 35q-37 20 -35 58q-86 49 -139 104zM-333 -267q-3 -123 23 151l23 23q66 -11 58 -70q205 80 -35 -173l58 23q51 86 140 104q24 -58 0 -93q155 -109 -163 -92q-13 35 70 58q-187 -87 -93 92l-23 -34q-42 -142 -151 104q53 -109 70 -197l-47 -12q-133 -26 -232 -11
q-14 81 58 92q-40 165 198 -34q-245 213 -47 185q-1 31 12 58q102 -12 81 -174zM-124 -313q-21 -25 23 -12z" />
    <glyph glyph-name="k" unicode="k" horiz-adv-x="2442" 
d="M-1377 -416h83h36h36h369h83h72h83h72h59h72h47h215h131h47h48h48h47h203h35h143h36h36h238v83v96v35v60v36v47v36v238v48v59v155v48v202v36v143v48v47v36v214v155v48v202v36v143h-36h-35h-155h-84h-83h-36h-35h-370h-83h-71h-84h-71h-60h-71h-48h-214h-131h-48h-48h-47
h-48h-202h-36h-143v-2251zM-1163 1799q33 -163 -95 -95q-66 43 -36 107q78 1 131 -12zM-1008 1644q-39 19 -71 24v-35q103 -16 0 -84l-12 48q-89 -29 0 -72q-75 -86 -107 12l-36 -12v12v-12v12q159 102 179 274q152 -2 47 -167zM-901 1811q-56 -424 -464 -452v35
q391 53 417 417h47zM433 1811q52 -383 417 -417v-35q-427 54 -452 452h35zM552 1811q20 -177 155 -262q-36 -89 -107 -36q-20 30 36 60l-36 24q-96 -114 -143 214h95zM850 1740q35 -155 -83 -143q-73 65 24 131q-103 -92 -143 0q-16 62 47 83q94 -6 155 -71zM-1079 1799
q-44 -273 -286 -238q216 45 250 238h36zM707 1216q330 -673 -107 -1215q-441 -481 -1036 -381q-783 179 -917 929q2 1065 988 1250q747 6 1072 -583zM600 1799q49 -196 226 -226l24 -36q-245 38 -286 262h36zM-1055 1740h23q48 54 0 47zM481 1740q85 2 12 47zM-1353 1597
q-5 89 12 155q209 -134 -12 -155zM-1258 1073q-246 -1214 905 -1429q1170 32 1155 1191q-240 942 -1167 929q-648 -142 -893 -691zM-186 1728q-64 -157 -119 -24q20 26 48 36zM-377 1442h-107q-188 124 -357 60q-58 -162 48 -84q-54 85 59 48q-12 -57 -36 -95
q53 123 119 131q6 -86 -35 -131q72 117 166 59q-188 -181 -381 -59q-11 249 239 202q165 -91 333 -48q-30 166 -24 24q-125 -52 -47 84q-50 -43 -72 -96q-138 32 12 131h-36q-71 -138 -178 -47l23 23q107 30 179 72q363 -55 95 -274zM76 1585q-61 75 -131 95
q72 -52 107 -107q-64 -29 -107 12q-7 -59 -60 -48q-27 33 -11 72l-36 12l-12 -12l-12 -24l48 -83h131q368 209 405 -131q-96 -77 -203 -72l-12 24l-36 12q-66 61 -131 83q100 86 155 -47q-72 130 48 119q33 -178 24 0q121 -17 24 -72l11 -36q40 -1 72 12q-8 106 -95 143
q-391 -145 -465 -12q-38 122 72 191q435 -69 214 -131zM576 1656l-47 24q-11 -76 47 -24zM719 1537q70 -24 131 -24q17 -124 -107 -83l-72 36q54 24 36 71h12h-12h12zM-1186 1466q-187 -110 -179 36l83 23q55 -19 96 -59zM-281 1466l12 36q55 -27 -12 -36zM-1329 1478
q60 -14 -12 -12q75 -42 35 36zM-913 1371q-196 -21 -23 119q20 -68 23 -119zM826 1478l-35 24q-28 -89 35 -24zM505 1371q-130 -29 -96 107q69 -45 96 -107zM445 811q49 -710 -631 -834q-669 19 -774 619q-48 706 631 822q666 -11 774 -607zM-936 596q143 -616 750 -583
q622 121 619 726q-120 662 -762 655q-660 -167 -607 -798zM-865 1144q-125 -219 -131 -107q30 74 95 119l12 24q-76 -96 -178 -60q202 -416 -155 -381q-93 212 47 381l36 -23q-12 -95 -71 -155q55 55 119 47q4 -88 -95 -131q53 49 107 24q-16 -77 -84 -47l-12 -60
q69 1 120 24q12 61 11 107q-183 274 24 453q200 -20 155 -215zM-293 1275l36 84q86 -91 -36 -84zM529 894l23 -36q32 31 72 48l59 -36q-94 41 -83 119q79 -13 119 -83l-95 143q50 143 83 -24q79 -156 0 -286q-372 -39 -131 369q5 91 -12 155q-132 111 -107 -12
q164 15 12 -59l-48 24q59 -47 119 -36l12 -72q-84 -27 -143 24q72 -58 108 -107q-80 -94 -131 95q-73 159 71 239q308 -75 72 -465zM-412 1251l23 96q125 -84 -23 -96zM-186 1263l48 84q106 -107 -48 -84zM-913 1228q-121 -78 -107 47q47 3 72 -24q12 74 -60 72
q-193 -288 95 -95zM-520 1216q2 59 12 95q118 -69 -12 -95zM-19 1216q-70 49 12 95q65 -85 -12 -95zM-841 1239l12 36q68 -17 -12 -36zM267 1239l11 36q54 -37 -11 -36zM255 954h107q-32 -57 -84 -84q83 -507 -345 -690q-593 -132 -738 428q-26 -81 -108 -47q43 44 96 59
q22 536 512 643q367 -25 560 -309zM-627 1168v83q135 -59 0 -83zM28 1204l60 35q51 -118 -60 -35zM-269 1216h-48q10 -100 48 0zM-305 1204q32 -53 -12 0h12h-12h12zM-174 1204l-48 12q3 -87 48 -12zM-210 1204q26 -49 -12 0h12h-12h12zM-400 1204q-30 -97 35 -24z
M-698 1085l-24 95q140 -37 24 -95zM-138 1132q89 21 12 60zM136 1144l59 24q18 -148 -59 -24zM-520 1120q84 -4 24 48zM-43 1132q60 6 0 -35q84 21 12 59zM-662 846q-67 -498 393 -571q480 64 428 536q-156 337 -500 309q-227 -87 -321 -274zM-591 1049l12 12q44 34 0 47z
M-269 1085v-286q-155 179 -84 298zM-126 1073q-149 -549 -120 24q69 1 120 -24zM16 1073q54 15 24 -24q61 24 -12 48zM-734 1025q-56 -58 -71 48q130 19 71 -48zM207 1061l83 12q-27 -151 -83 -12zM-412 1061q31 -66 35 -119q65 -77 72 -167q-297 185 -143 286h36zM-174 775
q179 220 250 155l24 -60q-465 -293 -191 179q189 -50 -83 -274zM-662 989q88 12 23 60q-18 -32 -23 -60zM147 977q-55 47 0 24q-13 25 -35 36q-27 -59 35 -60zM-770 966q-25 -119 -95 -24l36 24h59zM-615 858q23 71 60 108q450 -343 -60 -108zM-710 906q85 17 12 60z
M159 894q80 39 -12 60zM-698 823q5 51 -48 47q4 -54 48 -47zM183 811q98 13 12 59zM-805 846l-12 -71q-122 19 -48 71h60zM-353 704q-380 -53 -274 131q171 -40 274 -131zM136 704q-537 -37 -48 131q82 -48 48 -131zM374 787q-71 -38 -72 48q96 15 72 -48zM-1186 715
q-125 -181 -96 60q46 -44 96 -60zM-770 727q100 20 12 60zM-222 644q-65 -12 -107 24q6 70 48 107q128 -30 59 -131zM683 715q58 21 84 60q48 -234 -84 -60zM255 763l-48 12q4 -112 48 -12zM-913 704l60 35q50 -120 -60 -35zM314 656v83q153 -42 0 -83zM-1055 680v47
q56 -29 0 -47zM540 715q-17 -42 -35 0h35zM-1008 442q-35 -82 -47 -143q82 30 142 -36q-114 66 -71 167q114 -136 119 -298q-136 -154 -262 0q-10 200 83 345v119l-47 48l-72 -24q31 -53 84 -24q13 -68 -48 -83q119 -172 -83 -48q135 -107 24 -190q-144 265 0 405l47 12
q180 -70 131 -250zM-627 692h96h35h155q-311 -231 -310 -12zM136 680q5 -217 -298 12q181 6 298 -12zM-770 632q85 17 12 60zM755 596q-50 -457 -131 -238q64 67 95 131q-59 -108 -131 -47q5 65 83 71l12 48q-106 -114 -107 23q159 8 12 48l-59 -71v-84q100 -161 107 -321
q-76 -143 -227 -108q-124 90 48 394h12h-12h12q61 -128 -71 -191q74 49 142 48q15 -78 -59 -96q80 -26 24 -83q-75 41 -72 -36l24 -12q225 85 36 393v96q45 82 107 119q101 -15 155 -84zM195 620q88 21 12 60zM-591 561l36 12l214 83q-267 -398 -250 -95zM-174 656l262 -95
q19 -262 -274 83l12 12l-12 -12zM302 549l12 83q141 -70 -12 -83zM-305 573q-103 -331 -215 -143l24 12l12 23l24 24l24 12l107 119q23 -22 24 -47zM-115 358l-95 262q349 -238 95 -262zM-269 573v-274q-203 -28 -12 309q12 -18 12 -35zM-257 311v35v48v214q255 -316 0 -297
zM-698 584h-48q21 -89 48 0zM183 537l12 36q17 -18 12 -36q37 39 -24 47v-47zM-865 442l36 71q114 -70 -36 -71zM255 442l35 71q109 -78 -35 -71zM-662 489l-36 12q-2 -81 36 -12zM195 477l-36 24q-26 -78 36 -24zM-662 370q84 16 11 60zM195 334l48 84q101 -110 -48 -84z
M-805 334l35 72q83 -67 -35 -72zM136 418h-48q33 -98 48 0zM-591 299q78 17 12 59zM-734 227q25 62 36 107q97 -86 -36 -107zM16 299q87 3 12 47zM40 334q30 -50 -12 0h12h-12h12zM112 263l59 59q77 -135 -59 -59zM-520 263q94 -10 24 48zM-67 251q91 -8 24 48zM-555 215
q-89 -127 -60 36zM-377 263h-35q-16 -102 35 0zM-150 203q88 12 24 60q-19 -32 -24 -60zM-341 203q90 -12 24 48zM28 203l48 36q69 -146 -48 -36zM-174 227l-48 12q4 -88 48 -12zM-520 84v96q134 -28 0 -96zM-91 144l72 36q47 -134 -72 -36zM-841 132l12 36q36 -27 -12 -36z
M267 132l11 36q62 -41 -11 -36zM-329 132q-64 -138 -83 12zM-103 144q-28 -128 -83 -12l48 12h35zM-234 60q-69 -18 -71 72q118 20 71 -72zM-722 96q118 -80 202 -119q-83 -51 -142 12q18 -61 -24 -95l-60 23q-85 -16 -83 108l-36 -12v-48q17 -59 60 -95q206 13 357 95
q218 -31 155 -226q-170 -114 -405 36q121 82 190 -48h48q-76 42 -95 119q64 31 107 -24q25 96 95 24q-57 -77 36 -48q-14 83 -72 119h-83q-248 -187 -417 -11q-50 134 84 202zM398 -94q-143 -192 -417 0q-93 -2 -155 -24q-38 -91 48 -96q-6 39 -36 60q199 91 24 -107
q87 42 95 131h59q28 -92 -59 -143q106 116 214 59q-199 -143 -393 -47q-14 269 250 190q77 -45 155 -35q-107 76 48 154q-90 -32 -119 -107q-164 9 -48 60l143 95q217 5 191 -190zM-901 -404h-47q-62 368 -417 405v36q408 -63 464 -441zM-1032 25l84 12q38 -177 -84 -12z
M850 1q-369 -65 -417 -405h-35q50 376 416 441q35 -5 36 -36zM529 13q-116 -169 -108 12q63 -16 108 -12zM-1234 -130q54 4 48 47q110 -21 35 -95l60 -24v60q76 -58 12 -143q128 61 107 -119h-95q-44 263 -298 298v83q193 5 131 -107zM850 -106q-257 -61 -298 -298h-95
q10 205 107 119q-1 55 -47 48q24 107 95 35l24 36l-12 24l-36 12q64 56 131 0q-54 89 83 107q70 -13 48 -83zM-1341 -83q92 -6 12 36zM-269 -106v47q56 -29 0 -47zM767 -83q81 -1 12 36zM-1079 -404h-36q-59 189 -226 226l-24 36q243 -45 286 -262zM850 -166
q-207 -55 -238 -238h-36q49 194 215 262zM-1353 -356q-5 95 12 166q200 -78 -12 -166zM850 -214q2 -242 -131 -35q46 42 95 59zM-329 -333q49 44 72 96q116 -125 -72 -96zM-1317 -380v12v-12v12l107 95q150 -191 -107 -107zM636 -392q8 66 47 119q241 -160 -47 -119z
M-984 -345l-60 12q11 -92 60 -12zM-1032 -380v35q42 -17 0 -35zM481 -380q87 3 12 47z" />
    <glyph glyph-name="l" unicode="l" horiz-adv-x="2437" 
d="M-1337 -404h35h233h82h70h82h70h81h70h82h70h198h71h58h70h47h210h128h47h46h47h47h198h35h140v93v94v233v35v35v362v82v70v81v70v59v70v46v210v129v47v46v47v47v198v35v140h-35h-233h-82h-70h-82h-70h-81h-70h-82h-70h-198h-71h-58h-70h-47h-210h-128h-47h-46h-47h-47
h-198h-35h-140v-2229zM-835 1802q12 -18 11 -35q59 25 105 11q-41 -44 -93 -58q-11 -38 -58 -23q10 -68 -70 -47q24 -71 -82 -93v23v-23v23l47 58l35 24q26 38 81 46q-4 19 12 35q-137 -49 -175 -163h-12h12h-12q-29 178 59 105q0 96 81 70l24 47h35zM857 856
q21 -706 -514 -1073q-545 -257 -1038 -35q-442 232 -560 665q-131 443 81 805q290 510 840 584q1003 -26 1191 -946zM448 1755q82 27 70 -58q126 26 59 -117q-66 171 -304 175q42 47 94 12l11 35q53 -8 70 -47zM-1244 1743q54 45 70 -23q49 19 70 -35q48 -64 24 -128
q-39 68 -105 116l-59 47l24 -23l35 -70q82 -47 116 -117q-132 -45 -186 -198l46 23q-2 -71 -58 -35q23 -66 -12 -117q-41 56 0 105q-54 60 24 82q-31 23 -24 58l35 47q50 58 152 58q-110 11 -105 82q-79 -20 -47 47q-67 11 -35 70q-27 26 -35 58q52 -8 70 -47zM833 1732
q26 -51 -23 -94h12h-12h12q-25 -48 -70 -23q20 -44 -105 -93q152 23 128 -70q99 -23 35 -82q51 -16 58 -58l-46 -24v35q-83 83 -105 164l-94 23l12 35l23 23l35 12l-11 23q68 40 116 117l-23 -23l-58 -35l-47 -47l-47 -58q-14 141 59 105q-20 80 46 58q26 68 70 23l24 47
q74 -14 11 -58zM-1279 530q183 -636 747 -817q698 -173 1120 326q448 605 94 1202q-370 569 -1004 537q-1027 -238 -957 -1248zM-193 1732q-47 -74 -47 11zM378 1743q164 -72 210 -233h-35l12 58q-97 14 -70 82q-85 -19 -70 47q-70 -12 -58 46h11h-11h11zM-380 1697l11 35
q75 -38 -11 -35zM-53 1720q-48 -72 -47 12zM-520 1673l23 35q84 -47 -23 -35zM63 1697q-41 -76 -46 11zM-637 1627l23 46q66 -55 -23 -46zM133 1615l24 58q60 -63 -24 -58zM693 880q78 -687 -478 -992q-443 -198 -840 -12q-442 224 -537 677q-19 948 852 1109
q839 -26 1003 -782zM-707 1557q-62 6 -35 58q31 -23 35 -58zM-1127 600q163 -674 793 -771q767 -35 981 654q129 1037 -899 1144q-893 -170 -875 -1027zM273 1615q40 -102 -23 -23zM-158 1510l-24 -82q-171 -1 -70 140q56 -18 94 -58zM-18 1405q62 -24 23 -70l-23 -58
q-21 -65 -82 -117l12 35l11 70q36 97 35 175l-35 -12l12 -81q-53 -112 -47 -187q-36 54 -11 105q-46 45 11 70q-58 87 24 82q-35 90 35 58q12 49 35 82q72 -83 0 -152zM-415 1463q80 9 35 -70q36 22 58 0l-35 -70q45 14 47 -93q-117 -136 -105 11q-78 23 -24 82
q-92 21 -11 70q-76 38 0 59q-25 45 -12 93q44 -35 47 -82zM-870 1487l23 46q55 -49 -23 -46zM355 1487l12 46q78 -43 -12 -46zM-205 1510l-35 12q-21 -87 35 -12zM-1162 1440q52 30 82 58q-14 -140 -82 -58zM-427 1347q35 -85 47 -141q2 169 -70 304q21 -96 23 -163z
M682 1440h35q-64 -83 -82 58q38 -22 47 -58zM227 1358q-158 -69 -117 94q32 -4 58 11q45 -49 59 -105zM-917 1393q-54 1 -35 59q38 -20 35 -59zM-579 1347q-126 -31 -81 105q124 3 81 -105zM507 1393q-62 -3 -47 59q49 -9 47 -59zM-1220 1358l35 59q54 -87 -35 -59z
M717 1358l11 59q81 -86 -11 -59zM-614 1405q23 -38 -11 12q-37 -55 11 -12zM180 1405l-47 12q9 -80 47 -12zM-1057 1312l23 35q72 -61 -23 -35zM542 1288v59q111 -32 0 -59zM810 1288q-65 -2 -23 59zM-824 1300l35 -35l24 -24l23 -46l35 -12l-12 -23q90 -50 140 -129
q-75 -2 -70 47q-89 -25 -58 47q-97 -5 -58 70q-99 4 -47 70q-42 26 -35 70zM343 1323l35 12q18 -152 -35 -12zM343 1277q-104 -71 -151 -152q89 67 140 140q98 -54 -24 -70q51 -74 -58 -59q52 -64 -47 -46q1 -57 -93 -47q128 123 -12 12q2 64 47 81q-9 89 58 59
q-2 105 59 46q13 48 35 82zM833 1183q-26 59 -11 105q57 -39 11 -105zM-1127 1195l12 46q96 -47 -12 -46zM670 1230q-38 -99 -47 0h47zM-882 1160q-90 -144 35 -24q5 -58 -12 -105q-183 18 -58 140zM507 1148q17 -83 -59 -105q-92 42 -35 128zM203 611q-243 -525 -735 -221
l-47 -82l-11 -70q-31 -23 -47 0l-23 -82l-35 35l-12 -58q-38 -21 -70 0q-100 -71 -23 58q-18 40 46 47q-49 59 47 58q-27 69 82 47l-35 35l105 23q-296 588 291 759q509 -64 467 -549zM-1174 1066l12 59q75 -43 -12 -59zM728 1113q-36 -113 -46 0h46zM-614 646
q41 -86 59 -151q455 -379 700 116q49 461 -409 502q-368 -115 -350 -467zM425 1090l35 11q-18 -13 -35 -11zM-252 1043l12 35q74 -37 -12 -35zM-287 1066q-26 -73 -35 0h35zM-158 1020v46q78 -27 0 -46zM-404 996l12 47q54 -35 -12 -47zM-77 996l12 35q60 -40 -12 -35z
M-1220 950l11 46q77 -44 -11 -46zM52 786q4 -186 -117 -303q-296 -100 -420 140q-53 287 210 373q237 -10 327 -210zM-905 926q61 74 93 -23l23 47l59 -47q39 -29 58 -70h-35q-137 57 -245 70l23 -23l269 -70q-214 -48 -187 23q-94 -54 -70 23q-102 8 -152 82q92 -1 94 47
q50 -19 70 -59zM-485 938l11 47q59 -32 -11 -47zM-18 950l11 35q76 -55 -11 -35zM530 938q182 18 12 -35l23 23l-58 -11l46 -47l-70 -12q-15 -67 -70 -23q-25 -55 -70 -12q-46 -45 -128 -11v11v-11v11h35q-13 86 58 70q27 78 70 24q47 100 70 11l47 59q40 -13 35 -47z
M717 938v47q100 -39 0 -47zM-450 658q207 -324 455 -35v70q-16 230 -245 257q-216 -83 -210 -292zM-544 868l12 47q56 -34 -12 -47zM-193 915l11 -70q41 64 94 11q-80 -146 -152 -35q-14 -100 -70 0q-62 68 35 59q-1 -79 35 35h47zM40 868l12 47q56 -34 -12 -47zM320 880
q-26 -28 -58 -35l46 -12q106 46 199 47l-24 46q-76 -57 -163 -46zM-1244 821l24 59q62 -56 -24 -59zM740 810l12 46q77 -41 -12 -46zM-310 740q55 -53 -70 -59q-101 77 58 59q-104 29 -47 105q144 -93 59 -105zM-579 786l12 47q56 -34 -12 -47zM-18 681q-235 -1 -47 70
l-105 -11l12 23q51 35 81 70q64 -68 59 -152zM122 821q-28 -77 -47 0h47zM-999 658q-52 -27 -81 35q17 56 46 93q167 -69 35 -128zM588 728q-87 -5 -11 -47q10 41 46 35q-33 -80 -116 -58q-28 83 46 117q40 -13 35 -47zM-590 705l11 46q56 -33 -11 -46zM-264 681q1 43 24 70
q136 -64 -24 -70zM133 740q-36 -73 -35 11zM-1255 705l11 35q75 -38 -11 -35zM-1034 705q66 -25 12 35q39 -52 -12 -35zM798 716q-40 -97 -46 12zM-345 600q-61 -5 -59 58q61 24 105 35q56 -49 -46 -93zM-30 646q-74 -106 -140 35q83 -9 140 -35zM-579 623l24 47
q46 -55 -24 -47zM-252 611q62 81 59 -70q-11 -41 -71 -23l12 82q-28 -90 -93 -47q32 61 81 105q18 -22 12 -47zM-182 553l-23 105q209 -110 23 -105zM122 658q-27 -73 -35 0h35zM-789 600q54 52 129 0l-82 -24q-121 -9 -210 -58q57 7 93 0q97 56 187 70q-37 -69 -93 -47
q-17 -67 -70 -35q-32 -64 -70 -11q-30 -32 -70 -47l-12 47q-40 -21 -82 -24q28 52 82 59q-27 79 70 35q-13 70 58 35v35q48 -1 70 -35zM378 588q78 49 82 -23q113 28 58 -47q46 16 82 -23q-34 -46 -70 -12q-48 -67 -82 12q-42 -106 -81 11q-52 -84 -70 35q-60 -47 -70 35
l46 -11l35 -24l35 12q108 -49 199 -58l-70 46q-160 16 -269 59q45 -1 70 23q136 0 105 -35zM-1185 600q-31 -74 -47 0h47zM740 541l12 59q58 -39 -12 -59zM-544 541l12 47q56 -47 -12 -47zM75 530q-48 21 -12 58q24 -27 12 -58zM-497 471l12 35q83 -41 -12 -35zM-7 460v46
q78 -27 0 -46zM-1209 425l12 58q56 -40 -12 -58zM705 425l12 46q78 -43 -12 -46zM-427 425l23 35q55 -59 -23 -35zM-53 448q0 -82 -35 0h35zM-345 378l11 47q73 -44 -11 -47zM-112 401q-61 -53 -35 24zM-205 401q-25 -68 -47 0h47zM-882 261q-101 11 -70 117l47 12
q101 -53 23 -129zM483 320q34 -42 -23 -47q-2 48 -35 70q34 -105 -23 -93q-42 76 11 140q72 -4 70 -70zM-567 390q-35 -48 -82 -59q58 -45 94 59h-12h12h-12zM192 331q81 26 58 -46q105 2 47 -59q89 -13 35 -70l35 -12q3 -107 -70 -11q-66 -66 -59 58q-73 -83 -58 47
q-73 -32 -47 58q-57 -2 -35 70h12h-12h12q86 -120 175 -186l-35 70q-89 52 -128 128q72 1 70 -47zM-1127 296q-36 22 -23 59q37 -21 23 -59zM-870 343l-47 12q-3 -82 47 -12zM717 343q-35 -84 -47 0h47zM-730 226q-27 -44 -70 -82q116 63 151 164q-39 -54 -81 -82zM-357 285
q79 -72 23 -129q33 -27 35 -70l-46 12q60 -108 -35 -70q25 -43 0 -82l-35 12q10 -55 -24 -82q-32 41 -11 93q-90 30 11 70q-75 62 24 82q-72 57 23 70q-21 49 35 82v12v-12v12zM-88 86q41 -62 46 -117l12 24l-12 23l-23 128q-31 67 -35 117q98 -35 47 -81q90 -18 35 -71
l46 -35q13 -37 -35 -35q92 -81 0 -81q29 -152 -58 -12q-59 -20 -12 70q-90 -25 -23 58q-83 22 -12 82q-32 70 0 129q24 -114 24 -199zM-1115 203l23 47q60 -54 -23 -47zM787 121q-53 -153 -199 -198q27 20 59 23l23 82l47 -12v47l46 11q-12 72 47 70l23 106q61 -95 -46 -129
zM-1255 144q61 6 46 -70q56 4 47 -58q78 5 70 -70h58q-73 -37 -93 47q-95 33 -105 128l-35 -12l12 -23q62 -67 93 -128l58 -35q-179 -42 -116 58q-80 13 -47 82q-69 24 -12 70q-40 50 -23 105q50 -43 47 -94zM600 191l23 47q60 -53 -23 -47zM-380 168l-47 -199
q67 127 58 246q-2 -30 -11 -47zM-1045 98l11 46q87 -48 -11 -46zM530 86l12 47q74 -47 -12 -47zM822 63q36 -70 -47 -82q62 -100 -117 -58l47 35l58 46l24 70l46 59q56 -51 -11 -70zM-544 63q-57 -166 -116 -35q-25 48 23 81q57 -14 93 -46zM227 51q-25 -40 -35 -82
q-156 22 -47 140q48 -21 82 -58zM-637 16q81 17 12 58zM-964 4l24 47q73 -58 -24 -47zM133 51q7 -31 35 -35q4 30 -11 47q-10 -13 -24 -12zM483 -31q-47 11 -35 59q54 -11 35 -59zM-193 4q78 -194 -106 -93q14 59 35 93q43 -14 71 0zM-870 -77l23 35q76 -57 -23 -35z
M-205 -54l-47 12q4 -64 47 -12zM343 -112l12 58q67 -41 -12 -58zM-1139 -171l-11 -23q-69 -44 -105 -105q114 75 175 163q49 -121 -47 -93q29 -92 -47 -58q-18 -76 -70 -24q-21 -42 -70 -46q20 37 47 58q-31 56 23 70q-23 69 59 47q-20 80 93 70v35q53 -38 -47 -94z
M-1022 -124q103 -29 82 -93q86 18 70 -47h70l-12 -47q-165 32 -152 129q-75 30 -58 105q9 -29 0 -47zM518 -182q14 -96 -151 -129l-12 47q70 -13 58 47q116 6 152 140q41 -81 -47 -105zM647 -112q113 10 93 -70q84 24 58 -47q56 -24 24 -70l35 -23q-5 -70 -70 11
q-41 -54 -59 24q-57 -33 -58 46q-63 3 -47 105h12h-12h12l12 -23l23 -23l140 -117l-35 35l-23 35l-12 23q-30 23 -47 47q-54 34 -81 70l35 12v-35zM-742 -171l12 59q77 -40 -12 -59zM227 -171l23 47q60 -53 -23 -47zM-812 -322q-18 -48 -70 -47l-12 47q-78 -55 -70 46
q-113 -25 -70 117q82 -138 222 -163zM530 -264q-5 -110 -82 -58q-34 -86 -81 0q151 39 221 163q37 -167 -58 -105zM-637 -229l23 58q69 -50 -23 -58zM168 -229q-56 -5 -46 47q48 -2 46 -47zM-520 -252l23 35q70 -47 -23 -35zM52 -229q-50 -77 -35 12zM-322 -252
q-63 -89 -47 11zM-135 -287l23 46q55 -49 -23 -46zM-205 -299q-56 0 -35 47q26 -21 35 -47zM-812 -346l23 47q116 -65 -23 -47zM273 -346v12v-12v12l59 35q85 -79 -59 -47z" />
    <glyph glyph-name="m" unicode="m" horiz-adv-x="2431" 
d="M-1327 1766q165 100 127 -128q-73 -106 -92 23h-35q18 -212 185 0h116q-101 -192 -301 -197v-1518l23 -127q-29 -119 -23 -209q133 29 243 0q-15 115 -92 174v127q164 -119 197 -301h69h81h70h81h151h359h162h35h58h35h46h35h232h46h197h35h139q-32 125 0 220l-23 35
l-93 -23q-77 -90 -185 -70q124 160 301 197v81v70v197v35v139v151v46v197v35v139v127v58v151v46v197v35v139q-135 -27 -243 0q2 -128 92 -197v-104q-186 102 -197 301h-81h-232h-81h-46h-58h-151h-46h-197h-35h-139h-35h-46h-47h-197h-34h-140q-20 -53 -81 -35
q-93 50 -185 35v-46zM-574 1801h35h46h209q17 -52 70 -58q48 13 58 58h46h35h232q-92 -48 -186 -35q30 -139 -139 -23q109 -138 0 -140q-7 -105 -58 -173q-44 91 -35 173q-127 -10 -23 151q-133 -121 -139 0q-116 -10 -197 47h46zM-180 1801q-48 -62 -92 0h92zM504 1673
q-606 61 -626 -487l-46 -139l-70 -11h-69q-104 111 81 92q-14 547 475 649q253 49 255 -104zM840 1777q16 -116 -104 -92q-114 -14 -104 92h208zM-272 1267h-93q-73 501 -811 406v93q871 116 904 -499zM806 1661q110 -829 -452 -915l-24 93q484 93 383 822h93zM157 1488
q79 120 173 -186q15 138 82 220q37 9 57 -23q157 64 93 -81q73 -112 -197 -162q297 -76 186 -174l34 -81q-56 -11 -92 23q-137 -81 -151 185q-31 -87 -23 -185q-82 54 -58 139q-45 -41 -58 -93q100 -187 104 -347h-81q-34 183 -139 301q-103 77 -185 104q1 58 11 93
q110 -37 174 -81l93 -81q8 57 34 104l35 35q-108 -26 -150 58q95 -7 173 11q-252 29 -185 163q-39 48 -35 104q64 -9 105 -46zM-945 1488q151 62 151 -139l35 -47q-7 206 127 186q107 57 128 -35q-23 -30 -47 -47q116 -106 -173 -139q75 -40 150 -23h12h-12h12
q-53 -76 -139 -69l35 -35q88 -2 150 11q127 96 267 105v-93q-291 -63 -394 -324h-105q249 -19 174 -221q-122 -31 -69 105q-724 21 -649 730l69 11h35q-68 -580 429 -625q30 79 58 127q133 156 23 151l-35 23q9 -81 -58 -116l-11 162q-30 -243 -174 -174q-29 -27 -70 -34
q-11 56 12 92q-67 104 174 186q-219 -1 -174 162q-40 47 -35 104q63 -3 104 -34zM-666 1372q-98 -185 -221 -12q104 -106 128 -220q-15 90 46 81q-94 23 58 139l-11 12l11 -12zM261 1233q59 -6 35 -70q14 71 69 46q-46 79 47 128q-104 -104 -186 12q94 -65 35 -116z
M504 1070l-116 105q60 -72 116 -105zM840 1001v-244l-58 -46l12 -69h46v-313q-46 89 -34 173q-127 -36 -24 140q-135 -109 -139 0q-104 17 -174 57q92 45 174 47q19 108 151 11q-110 114 0 151q-4 109 35 186q15 -45 11 -93zM-1269 908q94 -52 0 -151q134 99 151 -11
q101 -11 173 -47q-88 -52 -173 -57q-34 -103 -140 0q92 -152 -11 -151q-4 -86 -35 -151q-15 44 -12 93q-12 166 58 290l-58 34v93v232q54 -91 47 -174zM-238 920v-105q-76 -36 -104 -104q-128 -8 -197 81q-52 185 116 255q133 -26 185 -127zM64 757q-100 -101 -278 70
q9 136 116 209q277 -34 162 -279zM180 699q711 -14 637 -718l-93 -12q45 645 -567 638l-70 46q-18 111 70 174q43 -60 23 -128zM-133 746q-2 -166 -151 -104q-33 92 35 150q66 -8 116 -46zM-1316 653v93q48 -56 0 -93zM-701 699q59 -312 324 -428q18 -198 -266 58
q-2 -64 -35 -105q76 7 116 -46l-151 -46q259 -8 197 -244l-69 23q-171 -75 -163 186h-34q7 -168 -128 -220l-11 46q-60 -37 -116 -35q7 57 34 93q-74 127 140 162l34 23q-257 36 -185 151q-46 80 23 116l46 -46q149 69 151 -174q31 89 23 162q71 -58 70 -139l35 69v47
q-104 177 -116 347h81zM29 387q-137 -44 -232 46l-11 162q98 16 104 104q375 -75 139 -312zM-296 607l58 -12q4 -94 -11 -162q-142 -127 -267 -12q-94 165 58 267q120 13 162 -81zM-806 584q-482 -119 -382 -835h-93q-122 779 418 916q65 -14 57 -81zM307 537l-81 -162
q-124 -107 23 -104q78 207 70 -58q81 260 185 185q41 30 81 23q-2 -56 -23 -92q73 -154 -197 -163l12 -23q123 0 197 -69q26 -51 -23 -82q106 -121 -58 -92q-163 -7 -151 162l-35 35v-12v12v-12q-40 -266 -162 -162q-128 -52 -58 58q-28 33 -23 69q100 84 208 82
q-93 42 -185 23q48 71 127 58q16 16 12 34l-69 24l-70 -24q-105 -72 -209 -81q83 -511 835 -405v-93q-772 -115 -893 394q-63 104 -69 197q351 3 452 313q80 20 104 -35zM-122 294q-59 -37 -116 0l-23 -58q14 -389 -301 -568q76 21 139 12q2 114 139 0q-107 156 23 150
q-2 103 35 174q59 -88 58 -174q116 -5 0 -139q135 92 151 -11q88 -9 150 -47h-34h-47h-208l-58 58l-58 -35l-12 -23h-46h-47h-208q-59 6 11 35l-34 -12h-35l-35 -11h-35h-46h-209l-23 81v11v-11v11q658 -55 649 568q42 63 104 82q87 -21 116 -93zM249 178q62 -13 35 -58
l-23 -12q-38 -50 -70 -81l23 23q63 64 116 93l12 -23q90 -71 139 -128l-23 24l-128 150q110 91 163 174q-100 -148 -244 -162zM-829 97l70 46l11 -23l24 -12l11 -23l139 -127q-270 229 -92 232q-157 -27 -255 115q171 -131 92 -208zM817 -367h-35q-147 38 -11 209
q76 -11 46 -209zM-1107 -344q-117 -23 -209 -11v92q164 38 209 -81zM-272 -367l23 35q121 -30 -23 -35zM701 -344q-60 -87 -116 0h116z" />
    <glyph glyph-name="n" unicode="n" horiz-adv-x="3574" 
d="M-3273 1829q-22 -34 -52 -43l-17 -150l121 -65q27 -264 225 -236q81 -178 225 -86q107 -144 191 22q96 -50 173 -22l17 43l52 194q175 5 294 -22l104 -43l190 -150q-105 -75 -121 -215h69q88 215 277 -107q-205 -84 -398 21l-86 -172q-148 -30 -156 -193
q-121 -28 -121 -300q-28 -97 17 -172q159 53 277 0l69 86l-17 -108q149 -185 87 -429q128 -83 242 -65q-38 67 -52 129q146 77 190 258q-19 32 -17 64q-195 -38 -277 151q-90 28 -156 0l18 64q191 -15 138 193q190 96 87 344q244 35 380 -193l-173 -65q-86 -216 -242 -257
v-65q160 -29 260 129q66 -110 104 -215q-71 -41 -87 -129q167 49 156 258q119 132 225 43q19 108 -35 172q-216 -160 -311 -86l52 129q477 -29 605 451l-104 43q-31 -197 -138 -301q-297 37 -35 215l-17 64q-172 14 -190 -193q-21 -104 -70 43q-5 264 174 365
q108 -26 121 -150q133 57 225 -43h121q76 155 208 85q55 220 225 237l34 171l139 43q12 105 0 172l-87 43q-127 -52 -225 22q-163 -67 -294 0q-127 -120 -260 -129q-79 -139 -207 -193l34 -151q-239 -132 -329 -386q-118 226 -69 451q113 100 173 -65l17 129
q-250 240 -328 -193q-335 355 -727 343q16 116 -18 194q-113 -3 -190 43l-35 21q-254 -91 -467 0q-96 -109 -208 -43zM-1888 1808l-121 -43q-162 -256 34 -43q146 11 104 -151l87 -64q319 293 640 129l156 21q-202 170 -398 172q-270 -155 -502 -21zM-2961 1679l34 -22
q152 -29 260 -86l190 -21q-486 -262 -605 86l69 43h52zM-2632 1528l-139 43q-160 65 -277 65q86 -256 416 -108zM-417 1421q-6 223 -190 129l-35 -43q-166 -58 -259 -150h69l381 64q-273 -153 -537 -107q204 230 433 300q284 30 138 -193zM-2269 1314q84 -1 139 -22
q131 -378 -173 -129q-428 -294 -416 -64l-86 43q-1 -293 225 -279q57 -143 121 -215q35 -66 17 -129q61 -59 104 22q21 146 104 214v86q-51 131 -139 65q0 -48 35 -43q-17 -165 -139 -43v43q123 435 347 0h103l52 107q-32 208 70 344l-35 64q-157 -77 -294 43zM-2096 326
q-153 241 260 408q26 -334 -260 -408zM-2096 498q-56 -314 243 150h-35h35h-35q-113 -104 -208 -150zM-1732 -232l155 214q-121 -87 -190 -171q72 153 190 214q143 -80 -155 -257z" />
    <glyph glyph-name="o" unicode="o" horiz-adv-x="2489" 
d="M-1347 -410h82h94h35h58h35h47h35h235h46h59h152h47h199h94h82h47h46h35h211h152h47h199h35h141v35v234v82v71v82v70v82v70v82v70v199v71v58v70v47v211v129v47v47v46v47v199v35v141h-82h-94h-35h-58h-35h-47h-35h-235h-46h-59h-152h-47h-199h-35h-141h-47h-46h-35h-211
h-152h-47h-199h-35h-141v-2225zM538 1475q-34 104 70 106v70q-104 21 -128 105q127 5 187 -70q64 90 164 82q0 -112 -94 -140q37 -30 59 -71l-24 -58q50 -53 -11 -70q-72 52 -59 140l-47 12q-24 -59 -11 -106q-57 14 -94 0q687 -947 -141 -1651q-499 -341 -1030 -140
q-494 193 -656 655q-228 1200 902 1464q556 18 913 -328zM-1312 1780q86 -10 129 -82q25 21 35 47q325 21 35 -82v-71q75 5 70 -70q33 -36 -105 -35q18 82 -58 94q13 -141 -118 -141l36 47q-20 97 46 152q-95 34 -93 129zM-1242 1066q-211 -962 621 -1371h35l35 -11h35
q108 -36 188 -35h35h164q89 20 152 11q858 344 796 1206q-279 943 -1206 902q-625 -154 -855 -702zM-399 1710l24 35q61 -49 -24 -35zM-211 1698q-58 -1 -59 47q49 -5 59 -47zM-141 1698l12 47q75 -47 -12 -47zM-516 1686l12 35q97 -37 -12 -35zM23 1663q-50 14 -35 58
q54 -11 35 -58zM-574 1674q-37 -73 -35 12zM93 1639l24 47q54 -50 -24 -47zM702 878q81 -874 -714 -1112q28 -33 23 -71q-52 4 -47 59q-996 -80 -1147 831q-58 907 831 1089q876 -13 1054 -796zM199 1592l11 47q87 -48 -11 -47zM-750 1592l24 36q73 -46 -24 -36zM-1160 644
q28 -357 258 -562q55 75 105 117q-329 -14 -257 375l-35 93q161 -44 117 -292l35 -71q-60 264 117 188q-36 -103 -24 -199l24 93q129 120 58 -70h82q79 152 188 70q-240 -240 -35 -164l23 -58q-53 -71 -129 -47q75 -65 164 -12q77 -59 0 -117l-35 -23q192 69 234 -106
q-59 17 -93 35q-388 -65 -375 246q-72 -104 -164 -82q446 -400 972 -222q551 222 620 785q-56 991 -1007 1018q-843 -188 -843 -995zM363 1557q-37 -72 -47 12zM-797 1557q-35 -84 -47 0h47zM-328 1429q-169 32 -305 -12q-1 -26 82 12h82q118 -145 -140 -106
q-19 -10 -24 -23q182 12 82 -117q-17 38 -58 46l-24 -58l12 -23l23 -12q133 -88 59 -152q-104 31 -164 117l-59 -12q73 -104 -35 -105q-36 67 -47 128q-16 -68 -11 -117h11h-11h11q16 -45 12 -93q-188 10 -93 199l-47 -59q45 -230 -106 -293q-9 510 270 469l-106 117
q90 48 176 -59q-1 321 398 246l59 35q9 -80 -47 -128zM-141 1522q396 73 398 -246q93 108 164 59q-40 -76 -94 -117q320 -20 246 -375l35 -94q-166 46 -117 293l-35 59q56 -165 -82 -211q-37 40 -11 82q30 245 -36 12q-58 1 -93 23q124 191 -176 -35q-82 43 94 211v11v-11
v23v-12v12l-47 23q-40 -50 -82 -11q37 93 129 105q-66 14 -106 -12h-82q-36 195 199 82q-161 87 -316 36q-55 61 -58 128zM398 1452l23 47q75 -56 -23 -47zM-937 1440l12 47q58 -32 -12 -47zM-164 1405q103 -136 0 -246q-135 -48 -223 47q-13 136 82 211q87 1 141 -12z
M-972 1393q-41 -73 -47 12zM491 1358v47q102 -26 0 -47zM-270 1382q8 -141 -93 -59q25 -277 234 -94q-3 121 -94 176h-47v-23zM-164 1288q-78 22 -71 94q75 -22 71 -94zM-1101 1253l12 58q62 -44 -12 -58zM-281 1253l11 58q111 -50 -11 -58zM620 1300q-31 -77 -47 11z
M-328 1276l70 -47q-63 -99 -94 36zM-141 1241q-159 -168 -59 35q35 -10 59 -35zM-1113 1194q-36 -73 -35 12zM679 1206q-25 -80 -47 0h47zM140 714q-21 -350 -351 -398q-335 25 -398 316q-24 384 339 469q380 -37 410 -387zM679 1054l23 47q58 -56 -23 -47zM-1218 1054
l12 35q74 -38 -12 -35zM-562 609q102 -272 386 -246q290 91 281 375q-85 328 -410 316q-319 -141 -257 -445zM-270 1007l24 35q46 -47 -24 -35zM-375 972l12 47q49 -35 -12 -47zM-106 1007q-21 -50 -35 0h35zM-1242 925l12 59q58 -39 -12 -59zM725 925v47q70 -26 0 -47z
M11 726q-13 -215 -199 -258q-205 -19 -281 153q-44 244 176 339q257 -2 304 -234zM-457 948q41 -43 -24 -46l12 46h12h-12h12zM0 937q-34 -61 -36 11zM-445 656q56 -176 234 -164l82 11q273 323 -129 434q-211 -85 -187 -281zM-246 855q133 114 105 -47q149 26 59 -94
q88 -111 -59 -117q60 -110 -199 -70v70q-47 -11 -82 24v82q146 25 105 -82l36 35q146 -28 93 105l-58 47q-12 -44 -47 -47q-58 56 -59 117l47 24q49 -5 59 -47zM737 820l24 46q57 -55 -24 -46zM-1277 808l24 47q58 -55 -24 -47zM-539 820l12 35q60 -41 -12 -35zM58 855
q-25 -68 -47 0h47zM-668 738q-32 -326 -257 -117q-62 149 81 222q123 -18 176 -105zM433 784q56 -156 -70 -222q-136 -18 -200 94q11 134 118 187q92 -8 152 -59zM-434 726q7 58 35 105q202 -129 -35 -105zM-914 749l70 59q-220 -191 71 -234q86 59 82 152q-66 123 -24 -12
q-109 4 -70 106h-47q-8 -229 -82 -71zM222 703q-21 30 0 58q-45 -65 -12 -129v59q180 -62 12 -94q90 -26 164 -12q45 76 47 153q-138 -60 -94 82h-47q15 -97 -70 -117zM-1230 738q-33 -92 -35 0h35zM-844 679l24 59q80 -64 -24 -59zM-562 691v47q69 -26 0 -47zM46 691l12 47
q53 -39 -12 -47zM281 667q-1 46 23 71q79 -59 -23 -71zM749 667l12 59q67 -42 -12 -59zM-820 656q-67 -138 -82 35zM-703 667q-73 -140 -105 -11l46 35zM421 656q-61 -104 -105 -24l47 59q34 -11 58 -35zM608 667q-24 -59 -35 -105q62 -383 -257 -363q60 -70 117 -105
q-73 -98 -176 46q11 -315 -375 -246q-47 -28 -93 -35q13 85 70 129q169 -37 304 24q-190 -80 -222 70q58 22 105 0q19 5 24 23l-47 47q17 92 117 35q4 107 -129 199q39 34 82 47q74 -97 164 -129q12 14 24 12q-50 76 -12 117q98 -35 94 -140q12 109 -24 187q44 64 94 12
q68 -90 11 -188l47 71q-9 169 59 292h58zM-1218 609q-40 -74 -47 12zM-551 585l12 36q83 -42 -12 -36zM23 574l12 47q56 -34 -12 -47zM737 550l12 47q59 -32 -12 -47zM-434 515q-24 -67 -47 0h47zM-47 468v47q92 -25 0 -47zM-1253 457l11 46q79 -43 -11 -46zM714 421v59
q81 -32 0 -59zM-340 445q-31 -77 -47 12zM-141 410l23 47q38 -52 -23 -47zM-223 421q-49 -77 -35 12zM-1160 375q-43 -78 -46 11zM714 293q-56 13 -24 58q34 -21 24 -58zM-106 187q-3 -107 -58 -175q-407 -4 -117 281q122 -18 175 -106zM-1101 258q-63 -60 -47 23zM-363 82
q184 -132 234 70q-39 107 -141 117q-112 -74 -93 -187zM-176 152q-74 37 -59 106q95 -31 59 -106zM-328 152q-23 22 -24 47l71 47q35 -71 -47 -94zM679 234q-47 -75 -47 12zM-281 117l23 70q82 -66 -23 -70zM-1054 164q-4 -109 -47 0h47zM550 105l23 47q64 -63 -23 -47z
M-340 70v70q155 -91 0 -70zM-141 105q-152 -149 -59 35q35 -10 59 -35zM-1031 23l12 47q78 -44 -12 -47zM480 12l11 46q79 -43 -11 -46zM-949 -59l24 47q65 -55 -24 -47zM398 -82l23 58q43 -55 -23 -58zM-1195 -188q83 9 59 94q119 13 93 -94h-58l-12 -70q60 -26 106 -35
q56 -148 -164 -23q-57 -83 -153 -59q1 93 82 129q-55 75 -35 152l-35 47q125 -11 117 -141zM796 -117q26 -78 -35 -117q72 -65 82 -153q-103 -11 -153 71q-200 -146 -175 11l105 24l12 58q-181 91 -12 106q29 29 35 -12q3 -59 47 -70q16 99 70 152q75 -6 24 -70zM-797 -106
q-49 -77 -35 12zM292 -152l12 46q79 -43 -12 -46zM-750 -199l12 47q77 -45 -12 -47zM187 -211l23 47q60 -54 -23 -47zM-644 -246l11 35q83 -41 -11 -35zM140 -258q-82 -23 -23 47zM-527 -293l11 47q79 -44 -11 -47zM-410 -316l23 47q74 -48 -23 -47zM-164 -316l23 47
q60 -54 -23 -47zM-281 -316l11 35q83 -41 -11 -35z" />
    <glyph glyph-name="p" unicode="p" horiz-adv-x="2677" 
d="M859 1795l-25 -76l-25 -38l-26 -25q-76 -163 -164 -253l-13 -38l-25 -38l-38 -38l-25 -25q-49 -89 -114 -140q-119 -206 -279 -316q-12 -22 -25 -25q-29 -46 -63 -76q-40 -57 -89 -76l-63 -76l-25 -25q-49 -44 -89 -64q-142 -148 -278 -215l-64 -76l-38 -12
q-123 -116 -240 -165q-13 -22 -25 -25q-103 -73 -190 -101q-13 -22 -25 -26l-38 -25l-38 -13l-26 -25l-50 -13q-13 -22 -26 -25l-316 -139h51h38h63h38h50h38h253h76h216h38h151h165h51h215h101h88h140h63h164h51h215h38h152v38v253v89v88v51v63v165v50v215v38v152v51v50v38
v228v164v51v215v38v152h-13h13h-13zM847 1403v-1784h-102h-253h-38h-38h-164h-76h-38h-164h-76h-89h-76h-63h-76h-51h-228h-139h-50h-51h-51h-50h-38h-51h-38h-50h-228l-25 12q122 41 202 89l76 25q70 52 139 63q33 40 76 64l89 38q96 89 202 126q39 53 89 76q46 50 88 76
l38 13l26 38l101 63l25 38q105 67 165 126q116 124 202 190l13 26l25 25l25 25l26 25l25 26l25 12q13 23 26 26q81 98 139 152q41 71 101 113q34 64 76 102l38 38l13 25q94 158 177 240q32 101 63 165q29 -146 13 -253zM771 1441l-38 -38l-13 -38l-38 -38l-25 -38l-25 -38
l-26 -25l-12 -38l-64 -76l-25 -38l-25 -38l-26 -38l-25 -13l-164 -190q98 -65 189 -63v-177q-199 13 -341 89q-145 -180 -291 -266l38 -63q21 -72 25 -127l13 -38q-24 -246 38 -443h-140h-63h-164h-51h-215h-38h-152q-300 -37 101 152q13 22 26 25q-74 -140 63 -151
q12 22 25 25q-59 150 114 152q-212 -144 13 -165v51l-13 12l13 -12l-13 12q-33 82 76 89q-52 -94 0 -164q78 70 76 151l139 -38q-74 46 -152 38l26 38q-8 92 25 165l-25 -13q-68 -29 -102 -63l26 -114q-99 49 -190 38q61 63 126 89q30 28 64 38q66 80 139 101
q30 -119 0 -215h177q20 55 -38 101q58 15 63 76q-65 73 -50 177q-92 -149 -13 -304h-76q2 135 -51 228l-37 -13q-19 -14 -38 -12l-13 -26l-38 -25l-25 -25q-121 -68 -190 -127l-38 -12q-67 -62 -127 -76l-25 -38l-25 -13h-38l-38 -38l-38 -13l-26 -25q-144 -60 -227 -126h63
h63h63h76h51h228h50h51h51h139h38h38q226 34 379 0q-163 134 26 164l50 13q272 -324 595 -64q180 341 -88 557q118 -15 164 -114q30 132 -76 190q-118 -86 -76 0v38q-35 36 -76 51q-34 -33 -38 -76l64 38q105 -171 -89 -76q-30 273 304 38v50v51v215v38v152q-18 100 -13 177
v38v38v101q5 118 -13 203zM758 1289v-772q-69 32 -126 38q39 63 88 101q-47 112 13 215l-63 -38q-23 -62 -64 -101l-12 114h63q118 182 -51 76q47 92 139 76q-20 92 -50 152q-175 -62 -114 -241q-103 61 -190 -76l89 13q51 -18 101 -13q0 -95 13 -151q60 -140 -76 75v-50
q23 -106 114 -127q-74 -15 -127 -12v215q-102 -7 -164 25l75 101l38 51l38 25q13 22 26 26q46 109 126 177q45 98 101 164zM416 606q-33 52 13 88q-132 -10 -228 38q66 -154 215 -126zM454 517v-177q90 -9 127 -63l-38 -51q-37 -75 -114 -63q-102 -78 -202 76q-2 25 25 12
q-33 36 -76 38q-14 40 25 26l-88 75q120 14 177 102q-152 -24 -241 -26q-14 -46 -50 -63q5 -117 -13 -202q91 53 114 139q35 -41 51 13q9 -53 38 -89q79 -149 -51 -266q72 7 114 51l13 -38q0 127 -51 228q196 -154 51 -342q132 28 151 177q-19 -87 -12 -152
q-45 -67 -114 -50q105 -185 164 38q21 -145 -101 -165q59 -24 114 -12q98 62 76 164q-86 55 -127 139h51q174 -254 266 0q0 124 -51 -25q-233 -17 -12 25v63v51q-180 33 -64 139h13h-13h13q384 -545 -278 -582q-232 77 -89 279q-49 -84 -101 -127l-13 25l-25 114h-152
l-13 -50q138 19 165 -102q-95 -1 -76 89q-110 -44 -13 -127q-151 22 -63 355l-13 88l-50 127l25 25l25 13l26 38q87 63 139 126q180 -79 341 -63zM328 428q-69 -41 -63 -113l-51 -13q205 -14 202 164q-28 -63 -88 -38zM265 239q141 -96 202 38q-21 49 -101 25
q-47 -53 -101 -63zM151 175q-62 26 -102 -12q-3 -85 -63 -139q220 44 165 240v-89zM594 74q-155 -53 -13 101zM-204 -154q108 -32 -50 0l50 -25q-116 1 -189 -76q357 -75 240 177l-114 13q-14 -46 63 -89zM581 -179q106 6 25 63zM619 -331l51 -12q59 21 126 12q1 63 13 101
l-13 89q-49 -145 -177 -190zM265 -331q-106 8 -114 101l-51 13q-78 -178 165 -114z" />
    <glyph glyph-name="q" unicode="q" horiz-adv-x="2375" 
d="M-1393 590q197 -1061 1272 -986q969 237 929 1192q-165 1052 -1273 1009q-967 -274 -928 -1215zM-361 1690q59 112 126 0q57 122 91 -11q108 107 104 -23q68 81 126 0q93 27 57 -69q128 78 103 -57q130 60 92 -69q134 52 80 -80q138 40 69 -80q137 16 69 -92
q143 1 46 -92q136 -17 46 -103q121 -36 34 -126l69 -12q7 -72 -58 -80q126 -76 0 -103v-34q132 -36 -11 -92q117 -77 -12 -103q92 -110 -34 -103q77 -120 -46 -104q68 -121 -57 -103q53 -119 -69 -92q47 -122 -92 -91q35 -38 23 -81l-103 12q23 -38 12 -80q-60 1 -104 23
q8 -43 0 -81q-43 2 -68 23h-35q2 -122 -91 -34q-22 -117 -127 -23q-11 -148 -80 -11q-74 -123 -126 0q-20 -62 -80 -69l-35 80q-26 -63 -91 -57l-12 68q-41 -52 -103 -34v69q-38 -28 -92 -35q-24 44 -11 81q-51 -27 -103 -23v91q-111 -72 -81 58q-129 -33 -80 80
q-134 -27 -69 80q-132 -2 -68 103q-134 0 -46 81q-133 37 -35 114q-134 36 -34 115q-118 47 -11 115q-128 67 0 91v35q-159 57 11 80q-96 86 23 138q-106 77 34 80q-87 99 35 114l11 -22l12 34q-118 87 57 80q-82 117 57 80q-41 131 92 92q-55 121 69 57q-8 157 91 58
q7 143 104 57q13 132 114 46q24 122 115 23q-1 54 34 80q45 -22 58 -69zM-1175 1083v-35q-48 -106 -69 -183q-31 -928 814 -1112h57l92 -12q107 15 183 12q771 272 768 1020q-176 865 -1008 894q-590 -95 -837 -584zM464 1197q409 -980 -493 -1341q-418 -117 -734 103
q-385 245 -424 677q52 846 849 963q514 -35 802 -402zM-293 1576q-40 -49 -45 -92q-52 57 -115 57l-12 -57l35 23q28 -107 126 -92q-39 -92 -138 -80q-105 101 -229 126q-87 -47 -137 -103q-18 -113 91 -115l-46 -57h69q6 -83 -57 -57q-11 -26 -35 -35v58q-37 -24 -45 11
q-31 49 -69 69l-103 -58q-70 -219 91 -343l-11 -35q-39 -151 -69 -11q-115 16 -80 91h-46q-20 -105 69 -126l-103 -46q47 -44 103 -45l-58 -23q-47 -95 35 -115l-23 46q94 31 126 115q49 -62 57 -127q-207 -180 -45 -378h103q32 129 160 115q-11 -19 -23 -23q37 -70 -46 -69
q61 -21 -57 -92q122 -344 390 -34q70 -15 115 -46l11 -46q-100 11 -126 -92l-35 12q48 -111 115 0q72 -124 126 0q69 -64 138 -12l-23 35l-35 -23q-42 78 -103 115q69 58 138 11q243 -197 355 57q-22 70 -80 81l23 57l-57 -12q40 221 149 -34h91q60 63 81 115
q0 160 -104 263q25 182 69 46q73 -12 92 -69l-12 -11l12 11l-12 -11l46 11q-45 106 23 161q-27 36 -57 57q57 75 -12 126q19 -45 -114 -149q-35 60 -35 115q146 150 69 321q-103 87 -206 -11l23 -58l-58 -11q-35 52 -45 91q30 19 57 0l-23 58q90 22 69 103q-78 127 -218 115
q-128 -126 -252 -92l-23 57q89 -4 114 69q29 -5 46 -23q12 72 -57 92q-48 -39 -69 -69q-21 54 -57 92h-12h12h-12zM6 1404v11v-11v11l45 12q92 -63 -45 -23zM-625 1358q55 -24 103 -34q-61 -43 -80 -104q92 -35 0 -68q-21 101 -115 91q20 58 -34 69q104 16 103 103
q73 2 23 -57zM-166 1289q-37 -206 -104 -11q-59 -29 -68 -104q-50 61 -58 115q80 37 115 103q52 -74 115 -103zM155 1312q-22 -85 -115 -92q-7 68 -57 92l57 46q71 -20 115 -46zM-373 1140q-129 56 -114 -57h34q53 -81 138 -69l11 -34q-29 -59 -115 11q-7 -58 -34 -92
q-146 198 0 367q74 -43 80 -126zM-132 876q-37 60 -34 115q-37 -24 -69 -34q-67 42 34 46q69 33 92 91l57 -34q-19 112 -126 92q5 67 34 114q235 -179 12 -390zM-6 1174l23 35q55 -51 -23 -35zM-889 1129q71 0 46 -81l80 -57q-37 -22 -68 0q-60 -49 -69 -115q-24 12 -35 35
l23 57q-53 125 -11 229q100 7 34 -68zM327 922q-40 44 -58 81q-48 -40 -103 -46v57q108 -1 103 103q70 6 23 80q126 -91 35 -275zM-510 911q-223 69 -161 103q-38 59 80 80q67 -102 81 -183zM97 1014q46 -54 -137 -92l46 172q134 9 91 -80zM-957 1048q-55 -91 -58 23z
M-579 808q39 -48 46 -104q-63 19 -58 81q-158 85 -45 91l-23 46q-120 -27 -92 -137l-115 34q58 82 138 115q353 -24 149 -126zM-304 831q-187 51 -103 -127q-104 -9 -115 92q88 47 126 126q105 -2 92 -91zM-166 842q-186 4 -46 80zM63 899q86 -46 -23 -91l-23 -81
q-94 -52 -46 92q-43 6 -69 34q71 51 138 69q20 -5 23 -23zM155 773q38 90 -23 149q234 -84 23 -149zM372 911q-48 -70 -34 11zM-155 704q22 66 11 115q137 -89 -11 -115zM-751 762q-47 -45 -103 -58q56 -36 103 -57q-126 -82 -206 46q58 55 80 103q73 -26 126 -34zM384 704
l-80 -103q-161 18 -81 92q-72 68 35 92q76 -30 126 -81zM-338 670l23 80q155 -78 -23 -80zM-568 578q133 -49 -11 -91q-181 -57 -287 80q68 36 126 46q-43 -99 58 -138q44 14 46 46q-47 -17 -46 34q90 39 114 138q59 -34 0 -115zM-407 693q-82 -166 103 -138
q-12 -83 -92 -80q-50 90 -126 126q23 43 23 92h92zM-109 590q-38 -9 -46 103q116 -9 46 -103zM17 682v-58q131 -86 46 -126q25 -59 -161 34q24 41 69 46v35l-23 80zM132 475q65 78 11 149q236 -73 -11 -149zM-270 555q59 -10 104 12q-41 -183 -104 -12zM372 498
q-58 -51 -34 34zM-763 429v-46q-82 -22 -80 -103q-72 -28 0 -69q-162 -40 -69 207q-30 56 -11 103q57 -144 160 -92zM-52 326q-94 -23 -126 69q-74 -17 -92 46l104 -23q12 62 45 103q65 -94 69 -195zM-556 383q2 -102 -115 -57q-5 60 -34 103q107 10 183 58q18 -60 -34 -104
zM-407 406q58 41 114 46q-8 -91 -91 -57q-45 -88 -126 -57q-4 -44 23 -81h11h-11h11q59 -29 103 -11q-18 -77 -46 -126q-206 153 -46 367q45 -33 58 -81zM-6 464q64 -31 126 -35q7 -120 -69 -103q-52 -72 -91 138h34zM281 211q68 48 -12 81q-1 99 -92 80l-11 57v12v-12v12
q127 -66 149 23q125 -214 -34 -253zM-992 338q-36 7 -11 57q32 -29 11 -57zM-602 154q90 -97 -34 -126q52 -39 -12 -46v69q-105 2 -126 80q73 -69 46 23q115 -14 126 92q92 -38 0 -92zM-6 200l12 34q65 -24 -12 -34zM-166 97q-84 -35 -104 -103q-55 81 -126 114l35 103
q56 -51 68 -114q61 66 81 126q31 -67 46 -126zM166 166q-19 -42 -11 -81l57 46q-13 -96 -103 -57q-51 -43 -103 -23l-12 23q41 50 46 103q66 -21 126 -11zM-465 74q-29 -39 -45 0h45zM6 -6l45 23q35 -54 -45 -23z" />
    <glyph glyph-name="r" unicode="r" horiz-adv-x="2492" 
d="M-1420 -396h82h35h35h363h82h71h82h70h58h71h47h210h129h47h47h47h47h199h35h140h36h35h234v82v94v35v58v36v46v36v234v47v58v153v46v200v35v140v47v47v35v211v152v47v199v35v141h-35h-35h-153h-82h-82h-35h-35h-363h-82h-70h-82h-70h-59h-70h-47h-211h-129h-47h-46h-47
h-47h-199h-35h-141v-2214zM-600 1373l-12 -47q-316 331 -714 398v-93l93 -293q-159 198 -128 421q473 -61 761 -386zM-389 1759q-60 -386 -281 -644q-67 -115 -164 -94q103 88 152 176q208 241 246 527l-129 -11l-82 -24q-89 -50 -176 -58q154 120 328 128h106zM173 1631
q-226 96 -375 70q92 -416 387 -668v-35l-59 12q-331 338 -375 749q258 11 422 -128zM712 1759q39 -251 -117 -433v35l11 24q79 182 82 339q-421 -77 -667 -363q-34 -26 -59 -23q264 345 656 421h94zM-296 1584l24 -35v-36l23 -93q59 -102 82 -176l-47 -47l-11 -35l-12 -35
l-12 -35l-11 -35l-12 -24l-12 -35q-15 -91 -35 -152q-36 232 -152 398l11 23q117 246 129 446q42 -64 35 -129zM-1022 1584q-87 -114 -175 -164l-12 23l-59 211q151 -30 246 -70zM-553 1490q-12 -93 -82 -23l-94 117l70 11q73 43 129 59q72 -39 -23 -164zM-50 1631l141 -47
q-80 -111 -164 -164v35q-58 109 -70 199zM618 1654q-43 -391 -234 -70l199 70h35zM-940 1513q-353 -288 -398 -702h35q48 19 94 11q155 89 258 71q-508 -266 -410 11q97 387 363 633zM723 881q95 -227 -410 0q13 25 36 35q180 -101 351 -105v35q-18 43 -23 82
q-26 70 -36 117q-110 293 -328 457v35q368 -247 410 -656zM-741 1373q-61 -16 -93 -59q-40 19 -12 106q-97 13 -59 -106l-58 35q-59 11 -47 -46l94 -36q-87 -22 -117 -93q-144 124 140 304q98 -38 152 -105zM384 1349q160 -99 -71 -246q-100 -109 -222 59q84 27 129 82
q-22 -78 -12 -141q98 35 47 141q38 -30 58 -70q83 -4 47 58l-82 47q142 11 59 82q-45 -41 -82 -58q19 65 12 128q-100 -13 -47 -128q-57 51 -117 70q59 68 117 105q108 -41 164 -129zM-788 1127q-122 -152 -234 47q82 13 129 58l-23 -93q95 -75 70 82l58 -47q59 2 47 58
l-93 47q83 11 117 70q107 -140 -71 -222zM196 1279q-85 -26 -105 -94l-70 59q1 63 47 94q62 -49 128 -59zM-870 1244q-36 18 -23 47q43 -7 23 -47zM220 1244v47q57 -25 0 -47zM-518 799q-400 79 -656 351l12 47q332 -325 738 -375v47l-12 47l-12 35l-12 70q-64 95 -70 188
q294 -478 12 -410zM-108 1174l-35 -94q-61 -136 -71 -258q443 62 703 363h35v-46q-297 -279 -644 -340q-256 -121 -12 410q20 -12 24 -35zM-1162 1103l47 -70q59 -42 93 -82h-35q-108 -58 -211 -70l12 23q21 126 59 211zM79 951h-35q-98 -59 -187 -70l11 23l12 35l47 176
q98 -74 152 -164zM513 904l-129 47l11 24q88 72 129 140q194 -273 -11 -211zM-565 1103q128 -284 -23 -199l-141 47l129 152h35zM-823 822l24 -11l93 -24l94 -23l24 -12l35 -12l140 -23l-47 -12h-46q-18 -13 -36 -12l-46 -11q-84 -40 -153 -47q-45 -30 -93 -35l-82 -35
l-12 23l-82 47h-35l-199 70q-172 10 117 47q142 43 222 117zM337 799h35l23 -24h36l35 -11l211 -47l-36 -12l-164 -35l-35 -12l-140 -58l-35 -35l-47 11l-24 24l-35 11l-47 12l-35 12l-35 12l-35 11l-35 12l-35 12l-164 35q280 36 468 152q57 -36 94 -70zM-647 307
q86 -140 -59 -12q-284 267 -620 316q3 -180 82 -316l11 -70q-159 199 -128 422q444 -54 714 -340zM595 213v35q82 181 93 328l-11 35q-418 -88 -656 -363q-34 -26 -59 -23q264 345 656 422q263 12 -23 -434zM-424 635h46q-76 -463 -374 -750l-71 -12q322 339 399 727
l-129 -12l-82 -23q-90 -51 -176 -59q154 114 328 129h59zM173 506h-59q-169 88 -328 94q94 -443 399 -727l-71 12q-325 338 -374 750q253 -5 433 -129zM-307 565q34 -223 140 -375l-47 -94l-11 -35l-12 -47l-35 -82q-19 -126 -59 -211q-18 263 -140 457l11 23l12 24
q40 46 59 94l70 269q13 -12 12 -23zM-1022 471q-87 -114 -175 -164l-12 23l-59 211q151 -30 246 -70zM-553 377q-22 -134 -176 94l70 12q73 42 129 58q72 -39 -23 -164zM-50 518l141 -47q-80 -110 -164 -164v35q-58 109 -70 199zM618 541q-43 -391 -234 -70l199 70h35z
M-940 424q-323 -272 -398 -656v-47q220 21 375 106l12 -36q-217 -114 -434 -105q74 480 398 761zM723 -209q87 -237 -410 0q17 36 47 24l12 -24h35q151 -68 293 -70v35l-70 199q-93 297 -317 457v35q357 -259 410 -656zM-858 201q17 73 -12 129q-67 -52 -35 -129
q-62 47 -117 36q35 -74 106 -71q-88 -23 -94 -93q78 12 117 58q-18 -76 -12 -129q92 14 59 106q63 -41 117 -59q-170 -182 -304 24q-145 97 140 304q245 -95 35 -176zM384 73q-58 102 -176 82v11v-11v11q121 0 176 59q-58 43 -129 -35q20 83 0 140q-83 -45 -35 -140
q-55 49 -117 70l117 117q343 -185 164 -304zM-729 73q-27 81 -105 93q93 10 105 94q106 -111 0 -187zM196 166q-87 -25 -105 -93l-59 58q-18 61 36 94q64 -46 128 -59zM-905 143l24 47q41 -44 -24 -47zM196 14q110 -20 59 117q54 -63 129 -58q-103 -188 -246 -59
q-50 31 0 47q53 38 70 70q3 -66 -12 -117zM-389 -314l-106 12q-420 83 -679 363l12 35q345 -317 738 -363v47q-45 185 -118 293l12 46q144 -209 141 -433zM-108 84l-12 -23l-70 -199v-35l-24 -94q142 4 246 47l106 47l82 35q87 81 164 117q63 83 140 105
q-238 -327 -620 -375q-95 -25 -164 -23l11 82v35l47 141l70 175q20 -11 24 -35zM-1162 -9l47 -71q59 -42 93 -82h-35q-100 -58 -199 -70q14 133 59 234zM-50 -9l12 -24q81 -61 117 -129h-35q-98 -59 -187 -70l11 23l12 36l47 175zM384 -150q96 80 140 152
q230 -357 -140 -152zM-565 -9v-36q58 -100 70 -187l-23 12h-35l-35 11l-141 47q83 87 129 153h35z" />
    <glyph glyph-name="s" unicode="s" horiz-adv-x="2459" 
d="M-1349 1095q351 -16 443 -338q-16 -454 -443 -466v-699h47h46h58h152h47h198h93h81q11 317 280 408q276 74 443 -128q93 -136 81 -280h47h151h47h47h46h198h93h82v163v128v59v35v46v35v233q-358 9 -443 338q25 450 443 466v58v47v58v152v46v198v35v140h-47h-151h-47h-46
h-47h-198h-35h-140q-2 -352 -326 -443q-468 1 -478 443h-46h-47h-58h-152h-46h-198h-35h-140v-734zM-219 1433q361 40 361 396l-93 -23h-35q9 -64 -58 -58q5 149 -35 -24q65 -21 116 -23q10 -107 -69 -93q-39 -46 -70 105q-75 8 -82 -59q59 13 58 -46q-57 -17 -58 -70
q-71 -92 -81 81q-129 43 0 35l11 47q-61 14 -105 0q-15 -59 0 -105h-35l-81 12v105q109 -27 116 70l-46 35q21 -69 -47 -70q-26 101 -140 81q24 -380 373 -396zM-172 1794q-3 61 -117 35q43 -66 117 -35zM-242 815q1 -65 -23 -104q35 -66 23 -117q-182 -862 -990 -955h-94
q119 937 1026 1083q-965 128 -1026 1061q936 -85 1084 -968zM865 1783q-107 -982 -1026 -1061q946 -199 1026 -1083q-562 8 -851 419q-130 139 -163 315q-96 170 -47 326q-27 45 -23 93q165 849 956 991h128zM-1232 1724q85 -57 128 -140q-36 208 23 47q33 -118 116 -186
q-59 107 -23 209l47 -11q-19 -187 93 -303q-50 134 0 244q40 -14 47 -46q-46 -210 93 -338q-53 164 -12 303q76 -160 47 -326l93 -105q-82 172 -23 326q33 -22 46 -47q-53 -248 93 -396q-60 160 -23 303l47 -23q-37 -230 81 -385q-33 90 -11 175q57 -92 35 -198l58 -58
q-150 863 -967 979zM678 1736l-23 -12q-272 -69 -454 -221l-105 -93q-51 -86 -105 -140q108 -103 23 -315q46 73 105 117q75 68 93 151q-4 157 35 280q81 -145 0 -315q77 81 105 163l-12 187q20 54 59 23q36 -121 -12 -221q114 106 93 256q52 126 70 -58q-85 -155 23 -23
l12 23l70 175q19 -67 0 -117l23 12q35 90 105 140h-81q-12 -14 -24 -12zM-300 746l-24 23q-44 32 -70 58q-141 130 -349 70q-79 142 245 35l-47 35q-178 94 -350 47l-35 46q152 91 315 -12q-79 59 -116 117q-150 155 -350 93q-48 30 -12 70q127 3 222 -35q-86 116 -222 93
h-70q-40 129 175 35l-11 24l-105 81q-247 30 -47 47q28 0 -23 23q-76 46 -117 105q160 -869 991 -955zM667 1561q61 30 116 12l-12 -47q-163 11 -244 -105q108 38 198 24l-23 -59q-189 39 -292 -93q137 54 245 23l-12 -58q-238 55 -373 -93q150 62 292 35q-11 -109 -222 -58
q-119 -15 -186 -94q113 48 210 47q63 17 105 -23q-11 -34 -35 -58q-237 49 -397 -82q143 57 280 23q-65 -101 -210 -46q-115 -5 -174 -82q87 50 163 23l-12 -35q-145 10 -245 -69q894 134 979 955q-70 -100 -151 -140zM-67 1165l-59 -117l-23 -93l-35 -186l58 58
q-6 122 24 210q34 -106 0 -187q131 167 81 397zM-1337 932q165 -32 0 -58l46 -59q91 35 47 117q82 38 116 -23l12 -70q-141 6 -105 -117q50 10 23 58q60 11 59 -46q63 -5 105 -35q28 -64 -152 -93q-20 115 -46 -35l34 -35q106 38 82 -93l-105 -12q-5 126 -93 105
q-23 -29 0 -47l35 35q24 -73 -47 -81q-5 -69 -23 -117q365 23 396 361q-41 360 -396 373zM492 664q69 -336 396 -338q-31 103 -82 163q23 33 70 12q-127 155 -93 -58q-59 -9 -105 0q-34 60 -11 116q93 -36 104 58l-34 35q-35 -85 -70 -11q-82 12 -117 58l58 12q34 29 70 23
q-3 61 59 46l-24 -46q82 -7 58 81l-46 35q-96 -34 -58 94h104q-22 -145 105 -105q-8 30 -23 46l-35 -23q-16 79 58 70v35q12 55 12 93h-12h12h-12h-58q-324 -90 -326 -396zM-1349 629q84 66 0 128v-128zM888 629q3 70 -12 128q-62 -77 12 -128zM-1267 -175q-26 -61 -12 -116
q57 97 151 139q-66 -14 -116 -11v35q145 18 221 81l47 47l-70 -23q-101 -46 -140 23l47 35q190 -30 291 93q-143 -50 -268 -23l12 58q232 -61 373 82q-157 -49 -292 -24l24 58q257 -33 396 94q-168 -68 -327 -35q54 100 164 46q171 7 279 105q-157 -58 -291 -35
q69 110 210 59q117 0 186 81q-100 -63 -186 -12q170 19 268 94h-47q-760 -165 -920 -851zM-79 594q42 -48 105 -70q132 -23 233 0q146 -149 -233 -35q193 -145 419 -93l24 -58q-184 -39 -327 35q70 -77 152 -94l233 12q110 -143 -257 -46q87 -95 199 -105q178 74 174 -47
h-163v12v-12v12q-53 8 -93 23q72 -74 151 -93q80 -13 140 0q105 -127 -163 -35q107 -118 268 -128q-41 -68 -116 -24q106 -63 163 -139q-150 864 -991 967zM-359 559q-54 -68 -105 -105l-23 -23q-46 -62 -93 -93l-23 -12q-32 -58 -70 -81q13 -187 -35 -327q-84 107 0 292
q-133 -131 -93 -303l-12 -82q-126 81 -35 245q-111 -128 -93 -280q-28 -26 -58 -12l-12 47q15 85 46 140q-113 -105 -116 -245l-35 -11q-12 65 12 116q-66 -103 -140 -151q822 126 967 920l-23 47q-23 -48 -59 -82zM783 -326q-86 63 -128 139q12 -206 -58 47q-53 72 -93 105
q53 -106 23 -198q-68 12 -47 81q1 140 -93 222q87 -171 -35 -245l-12 70q40 210 -93 326q47 -163 23 -303q-99 146 -58 327l-23 11q-35 54 -70 82q31 -69 35 -128q36 -109 0 -187l-47 12l-11 23q33 192 -35 338l-58 58q118 -295 -24 -279q16 179 -23 314l-35 58
q-25 -4 -12 -34q28 -83 -23 -129q7 157 -70 257q162 -868 967 -967zM-592 -408q105 24 175 82q-6 -84 58 -47l-11 93q59 -12 105 0v47q-106 -18 11 105q26 70 47 0q29 -34 23 -70q55 8 58 -47q-122 -12 -11 -58q78 42 46 116q141 34 117 -116q-139 46 -105 -93l47 11
q-30 46 23 59q46 -100 151 -82q-46 412 -442 396q-287 -119 -292 -396zM-289 -408q206 5 35 47z" />
    <glyph glyph-name="t" unicode="t" horiz-adv-x="2469" 
d="M-1382 1812q120 -17 198 -47h-35l-151 23v-34l23 -186q13 -18 12 -35q27 -58 35 -93l34 -82l24 -35l23 -23l12 -23l11 -35q14 -12 12 -23q13 -12 12 -24q82 -74 116 -151q244 -212 523 -232q53 89 82 -12l35 58q19 10 23 23q-94 23 -117 105q-67 180 -46 12
q-99 134 -81 279q-33 -92 -12 -175q-117 89 -140 221l-23 105q15 -251 -70 -105q-71 128 -93 245v-70q12 -184 -128 93l-11 46q14 -155 -163 58q74 33 93 -58q18 79 81 47q81 -23 70 -105h35q5 110 70 23q79 -22 46 -116h35q16 101 70 12q97 -48 46 -151l47 -12q30 110 93 0
q47 -60 12 -116l23 -47q72 79 93 -70q-25 -173 58 -163h12h-12h12q-31 374 -338 594l-58 58l-128 58l-23 12l-35 11l-23 12q-104 57 -186 81q273 -53 465 -186q391 -369 419 -849q-974 70 -1105 989q-22 -411 233 -663q-71 -99 -175 -93q-86 -217 -23 -419v-93
q129 -37 198 -128q-261 -285 -233 -628q188 961 1105 1000q-127 -1001 -1105 -1093h233h58h197h47h58h151h47h198h93h81h46h47h35h233h34h210h35h360l70 12q-938 97 -1093 953q-15 66 -12 128q438 -23 756 -267q294 -339 349 -733v35v58v35v46v35v233v47v58v151v46v198v35
v140v46v47v34v210v151v47v197v35v140q-189 -958 -1105 -989q27 339 186 593q283 382 698 431q-438 -118 -663 -442q-233 -369 -58 -373q-21 340 116 233q-52 111 35 175q45 90 70 -12h35q-30 119 58 163q53 89 70 -12h35q-31 103 46 116q62 79 70 -23h35q1 111 104 116
q46 -7 24 -58q60 87 116 58q-165 -212 -174 -58q-21 -125 -105 -197q-46 -44 -23 128q-42 -184 -140 -303l-23 -12q10 84 -12 152q-9 -105 -46 -175q-33 -88 -105 -128q10 62 -12 105q-12 -126 -81 -209q4 173 -47 -47q-52 -53 -116 -70q43 -38 58 -81l35 70q25 -28 35 -58
h140q670 302 709 976q-109 -20 -186 -23l93 23q80 16 128 47h-35h-35h-35h-151h-35h-35h-360h-198h-35h-139h-47h-35h-232h-47h-35h-209h-151h-47h-198h-35h-139q10 -21 23 -23zM-893 1812h128h58h35h46h35h233q-102 -54 -198 -58q-3 -113 -81 -175l-35 12q-80 79 -163 116
l-221 105h163zM-56 1812h128h58h35h47h34h233l-35 -12q-52 -39 -104 -46l-24 -24h-35l-23 -35h-35q-83 -77 -151 -116q-93 80 -105 186q-112 -2 -186 47h163zM-370 1649l12 -58q-113 -22 -175 -93q-150 64 0 139q3 66 23 117q92 -7 163 34q31 -77 -23 -139zM-68 1754
q26 -66 24 -117q59 -37 81 -93q-99 -73 -163 35q-113 -16 -128 209q102 -41 186 -34zM-1289 1742q-24 -127 -46 23zM700 1719l47 46q40 -114 -47 -46zM-277 1579q67 -41 128 -23q37 -60 81 -93q-50 -117 -116 -186q-35 -105 -93 -163q-11 -34 -35 -58l-11 23v35
q-26 36 -35 70l-24 23q-71 154 -151 244q70 107 198 128q-4 92 35 175q49 -91 23 -175zM-1138 1521q-54 8 -93 -12q360 -102 70 -128q207 -33 326 -162q-107 10 -198 -35q179 6 302 -70q102 -47 -151 -58q164 -14 279 -82l-34 -11q-42 -22 11 -24q81 -10 116 -58l-58 24
q-87 -64 -139 0q-103 1 -47 81q-20 12 -23 23q-100 -64 -151 24q-90 29 11 93q-291 2 -151 162q-231 19 -93 152q-206 50 -70 151q-91 11 -58 70q101 -66 151 -140zM654 1579q143 -72 -70 -139q23 -30 58 -35q-18 -141 -140 -93l-11 -47q69 -13 35 -70q-69 -96 -175 -58
l-11 -35q112 -39 0 -81q-63 -80 -140 -12l-23 -35q73 -44 -70 -104q-66 -8 -105 35l-70 -24v12v-12v12q76 50 163 46q-44 29 -81 24q141 98 291 81q-99 36 -186 23q45 60 104 82q92 45 186 35q104 35 -151 35q75 89 175 128q256 41 11 46l58 58q78 50 152 58q-42 30 -94 12
l128 140q78 -34 -34 -82zM805 1370v-593q-40 80 -24 151q-123 44 -197 116l11 23q149 173 198 361zM-1184 858q58 -108 -198 -116q40 106 47 186q117 9 174 105q110 -97 -23 -175zM654 928q56 10 104 -12l-23 -58q39 -62 46 -116q-243 4 -186 116q-146 74 -35 175
q70 -52 94 -105zM-1045 916l82 -46l23 -12q165 -111 303 -140l-35 -23l-24 -23l-46 -12q-12 -20 -23 -23l-47 -12q-137 -112 -256 -151q-81 80 -81 186l-82 24q-272 -7 70 69q-1 124 93 186q20 -11 23 -23zM572 753q109 -8 186 -58l-81 -35q-131 44 -128 -93
q-37 -61 -82 -93l-46 12l-23 23l-35 23l-47 24q-19 11 -23 23l-81 46q-101 37 -163 93l81 12l82 47l34 11l24 35q112 50 186 116q108 -69 116 -186zM-1184 532q88 -48 70 -128q-78 -74 -128 47q-56 12 -93 12l-12 23q-1 93 -35 174q244 -9 198 -128zM735 544l23 -70
q-125 -30 -186 -116q-128 88 12 163q-48 109 163 139q91 -29 -12 -116zM-463 625l-23 -81l-58 70l-140 -12q-633 -311 -686 -953h128q694 166 860 790q-29 37 -69 47q-12 -20 -24 -23q61 -298 -104 -221q47 -164 -93 -221q-7 43 -35 69q-20 -85 0 -139q-147 -119 -140 -23
l-35 11q34 -101 -46 -116q-66 -87 -70 23h-35q8 -86 -70 -104q-62 -32 -81 34q-20 -47 -58 -81q-19 92 70 116q49 76 69 -23q124 374 128 70q43 189 163 302q-12 -92 12 -163v47q36 173 151 279q-16 -103 0 -174q45 380 116 186q-3 179 140 197v35q-49 15 -58 58h-12h12h-12
zM-184 532q157 -21 140 -197q29 44 23 81q100 -125 81 -267q41 94 12 174q94 -77 128 -174q51 -270 35 11q97 -90 139 -186q19 -203 24 23q103 -88 128 -209q19 132 162 -58q-61 -47 -81 46q-25 -27 -12 -58q-139 6 -139 128h-35q-5 -110 -70 -23q-80 19 -46 116
q-38 -25 -35 -70q-161 47 -128 210q-54 -1 -47 -58q-142 72 -93 221q-159 -78 -104 221q-42 19 -82 11q-4 -83 0 -139q319 -654 977 -686q-99 823 -826 965l-58 -70l-35 81q-25 -56 -58 -93zM805 556v-489q10 -208 -58 35l-163 221q83 102 197 128q-11 87 12 151zM-498 544
q-85 -69 -174 -70q47 -16 93 -11q-143 -96 -303 -93q108 -21 198 0q-140 -158 -349 -140h12h-12h12q98 -36 186 -23l-58 -70q-141 -78 -268 -93q92 -12 163 0q-66 -80 -151 -105q-108 -57 11 -35q-68 -148 -174 -128q33 42 81 47q-70 46 -23 93q17 79 93 58q-69 59 -23 116
q28 68 93 24l23 46q-68 11 -35 58q64 106 186 82q-110 60 24 151q67 -8 128 -35q-54 76 93 151q91 -37 174 -23zM130 521q104 -10 58 -105q105 67 163 -23q95 -34 -11 -93q130 18 174 -70q57 -52 -23 -70l11 -46q75 40 105 -24q46 -61 -23 -116q84 13 93 -58q47 -50 -23 -93
q53 -12 81 -47q-95 -18 -128 82q-34 22 -47 46q40 -7 82 12q-110 25 -186 81q-50 43 11 47q63 -10 117 12q-208 9 -326 151q115 -5 198 23l-23 12q-146 -7 -256 46q-78 50 -24 70q88 -2 152 23q-179 -8 -303 82q57 3 93 23q-108 1 -174 58q96 -22 151 23q38 -21 58 -46z
M-230 253q37 -48 46 -93q102 -119 140 -221q-63 -80 -152 -70l-46 -46q5 -90 -35 -163q-42 91 -23 175l-47 34q-108 10 -163 82l24 35l23 35l23 46l47 82l116 209q36 -50 47 -105zM-451 -177q47 22 93 12q8 -123 35 -198l-163 35q-49 46 -47 104q-135 51 -23 140
q70 -38 105 -93zM60 -154q-113 -61 -104 -174l-82 11q-60 -49 -116 -46q6 69 35 128q-7 39 0 70q108 -5 163 81q63 -30 104 -70zM95 -189l24 -11q179 -132 314 -186h-59h-151h-46h-198h-35h-140q84 40 163 35q16 123 105 186q19 -12 23 -24zM-556 -340q108 -14 174 -46h-34
h-210h-35h-360q65 38 128 46q27 33 69 35l12 23l23 24q78 38 117 81q122 -41 116 -163zM-1277 -305q-104 -63 -23 47zM700 -305l23 47q82 -111 -23 -47z" />
    <glyph glyph-name="u" unicode="u" horiz-adv-x="2490" 
d="M-1440 -402h35h34h35h150h81h232h57h70h58h46h35h231h46h35h208h150h47h196h35h139h46h35h231v93v161v35v58v35v46v35v231v196v35v139v46v35v231v46v35v208v151v46v197v34v139h-93h-161h-35h-58h-35h-46h-35h-231h-196h-35h-139h-46h-35h-231h-46h-35h-208h-151h-46h-197
h-34h-139v-2232zM-1382 1818h46h46h47h196h93h81q-77 -43 -151 -46l-23 -69q-32 22 -58 23l-23 -116q-63 21 -46 93q-68 -14 -69 58q-51 -12 -70 34q-39 -27 -58 12q-46 -31 -57 11h46zM-654 1818h93h81l-81 -11q-17 -13 -35 -12l-208 -81q-91 -75 -104 0q82 32 58 104h196z
M-98 1818h57h47h57h47h58h150h46h197h34h139q-31 -44 -69 -23q-24 -68 -70 -23q1 -83 -69 -69q-7 -57 -35 -93l-46 104q-54 13 -81 81l-23 -46q-60 61 -150 58q53 -86 69 -150l-46 11l-23 12l-70 57h-34l-24 12l-23 12l-23 11q-100 21 -162 46h47zM-1405 1691q67 -3 23 -58
l69 -11l-11 -46q64 -13 104 -47q-142 -45 -81 -69q-53 -34 -93 -46q42 -42 -23 -70q22 -38 -11 -69v116v46v46v35v46v208q43 -38 23 -81zM769 1737v-404q-48 28 -23 69q-78 26 -70 93q-75 9 -115 57q61 21 104 24l-12 34q31 30 70 35q-26 43 34 58q-33 33 0 69
q13 -17 12 -35zM538 1275q306 -564 23 -1064q-210 -371 -579 -474q-1078 -214 -1329 844q13 973 913 1156q632 1 972 -462zM-411 1691h-34h-35q-66 -32 -139 -34q58 -40 46 -105q-128 -15 -57 93q-88 -30 -139 -58q57 -61 11 -116q-89 18 -46 93q-262 -152 -382 -393
q65 7 105 -35q60 109 138 174q30 -41 12 -93q67 -11 35 -58l69 -34q48 -62 104 -81q-59 -81 -81 -151q-66 21 -92 70q-32 -6 -35 -35q-112 62 -220 23q29 109 58 174q-65 -58 -116 11q-193 -470 12 -879q35 82 104 46q-5 -104 -93 -57q425 -686 1203 -475q570 288 648 856
q-7 670 -544 949q14 -76 -58 -81q-39 73 35 104q-92 44 -162 58q54 -82 -46 -93q-27 73 35 104l-174 23q61 -84 -35 -104q-32 67 24 104q-68 16 -116 12q-17 -13 -35 -12zM-411 1599q-52 -12 -81 23l35 58q84 -15 46 -81zM-920 1645q-82 -39 -34 12zM-1024 1564
q-105 -69 -34 23q25 -6 34 -23zM-364 1587h34l81 -11q70 -16 127 -12q-6 -59 -57 -81q25 -70 -47 -69q15 -56 -23 -93l23 -81l-23 -11q-61 1 -92 11l-81 -11v46l11 46q-43 34 -23 104q-65 -12 -35 70l-46 -12l-23 81l139 23h35zM445 1541q-52 2 -81 46q52 -10 81 -46z
M-561 1495l-35 -35q32 -59 12 -116q44 -27 23 -69q43 -43 58 -81l-174 -81q-8 83 -81 104q-6 63 -58 35l-34 81q-35 -34 -70 0l24 46q-118 3 -35 92q62 -32 46 -92l23 12l23 11q118 104 255 139zM260 1344l-35 -58l-46 24q-44 -88 -127 -116q-20 -61 -35 -93q-59 33 -92 47
q-46 38 -81 46q24 53 58 81q-21 52 34 92l-46 24l46 46q-30 52 -23 104q211 -64 347 -197zM-411 1483q24 -57 12 -104q50 7 58 -46q40 50 92 58q-20 55 0 104q-56 5 -92 34q-27 -36 -70 -46zM191 1414l23 81q162 -85 -23 -81zM-1186 1402q-45 20 12 81q55 -21 -12 -81z
M549 1391q-49 44 -69 92q68 -25 69 -92zM-781 1333q46 -23 46 -70q59 10 105 0q6 55 34 93q-33 25 -46 58q-56 -10 -93 11q-13 -59 -46 -92zM-64 1344q34 -44 35 -92q60 28 116 11q-9 59 34 93q-52 13 -46 69q-54 -22 -93 0q4 -61 -46 -81zM-1232 1333l-46 -47l-46 -80
l-12 -35l-58 -151q-10 -103 -34 -173v35v358q126 28 173 139q32 -18 23 -46zM318 1298l35 81q142 -102 -35 -81zM-1070 1333q141 -70 -23 -81l12 81h11h-11h11zM503 940q-46 9 -70 23q-57 -16 -92 11q-34 -44 -81 -23q-99 -114 -139 23q-44 39 -58 81l116 46l-23 47l69 11
q-29 58 47 70q-13 48 23 81q160 -175 208 -370zM676 1252q161 -36 81 -370v34l-11 35v35l-23 92q-82 130 -104 232q42 -11 57 -58zM526 1194v-46q-128 -25 -69 81q38 -11 69 -35zM-1035 1125q24 -45 11 -93q59 0 70 -46q40 54 92 46q-24 57 -11 104q-56 -8 -93 35
q-14 -56 -69 -46zM295 1171q-32 -45 -81 -46q20 -45 11 -93l70 -35q37 33 81 35q-22 54 0 93q-60 -4 -70 46h-11h11h-11zM-330 1067h35q69 163 81 -23h46q18 78 81 34l-35 -69q36 -13 70 -12q92 98 23 -92l69 11q0 86 35 -57q-48 -19 -69 -58q-132 301 -428 231
q-275 -114 -243 -405q-50 4 -81 -23q-42 110 69 104q-26 76 -81 23q-1 103 104 104q-21 47 -69 35q21 70 58 104q10 -65 69 -46q-72 158 46 69l35 23v24l-11 23q-64 92 115 -12q-3 69 47 93q51 -4 34 -81zM584 986q-46 -15 -81 11l23 70q77 -5 58 -81zM-1232 1020
q143 -82 -23 -80v69zM-87 801q63 -194 -92 -301q-285 -124 -405 150q-3 239 208 324q218 4 289 -173zM-1081 905l-24 -46q85 -24 151 -24q-2 -32 23 -46l104 23l-12 -81v-115l-81 11q-79 -43 -185 -58q-128 -170 -57 359q46 -29 81 -23zM514 905l12 -81v-35l12 -81
q-3 -44 -12 -115q-11 -55 -12 -93q-106 39 -138 116q-69 -12 -104 23l-93 -12l12 93q-39 130 115 69l12 46q70 -36 69 35q55 -14 93 35h34zM-492 882q0 -45 -23 -70q61 -72 151 -58q-9 59 23 93q-56 15 -81 58q-34 -30 -70 -23zM-307 847q33 -45 23 -93q57 6 93 -23
q38 79 35 162q-60 -13 -93 12q-5 -59 -58 -58zM549 812l23 81q165 -87 -23 -81zM-1290 754q3 57 35 93q109 -94 -35 -93zM29 708q17 -36 58 -46q37 23 11 -69q-44 4 -69 23q-29 -71 46 -58l-23 -81q-46 -14 -81 35l-23 -58q144 -27 -104 -151l-70 70q274 137 243 428
q50 -15 70 23q80 -102 -58 -116zM-1128 720q33 -38 35 -81q63 15 104 0q3 63 35 104q-40 19 -47 58q-58 -22 -92 0q-3 -54 -35 -81zM341 789q-8 -52 -46 -69q42 -36 46 -81q44 18 81 0q20 46 58 69q-38 44 -47 93q-41 -33 -92 -12zM549 639q10 53 46 81q121 -114 -46 -81z
M-515 639q21 -40 23 -93q57 11 93 -23q11 50 58 58q-42 52 -23 104q-60 -13 -93 12q-16 -47 -58 -58zM-284 674q13 -56 -23 -93q48 -18 58 -58q45 33 93 23q-8 53 23 81q-55 27 -81 70q-27 -44 -70 -23zM-1220 569q-98 13 -47 93q91 -18 47 -93zM-654 627q55 -169 197 -231
l-35 -81q-162 32 -34 69l-12 47q-58 1 -69 -47q-81 45 -12 81l-23 58q-60 -58 -81 12q-14 53 58 46v46h11h-11h11zM-1405 500l23 -139l46 -81l81 -173q-33 12 -58 0q-37 87 -115 92v35v359zM225 477q108 19 185 -23q38 43 93 23q-63 -221 -220 -359q-17 80 -81 116
q46 48 -34 58q-11 73 -93 69v35q63 78 81 150q46 -34 69 -69zM595 535q48 -119 -69 -70l23 70h46zM-804 523q36 -86 93 -139q-66 -42 -116 -57q5 -50 -58 -47q30 -55 -35 -69q19 -54 -23 -93q-164 174 -219 370q211 -87 323 35h35zM-1174 408q-46 -15 -81 11l23 69
q69 -12 58 -80zM676 165q-18 -56 -69 -47q34 64 69 104l23 93l12 23l12 23l34 127q65 -350 -81 -323zM-1024 396q24 -47 12 -81q45 -9 58 -46q53 38 92 46q-25 46 0 81q-66 3 -92 46q-27 -36 -70 -46zM214 384q41 -30 11 -69q45 -9 58 -46q41 37 93 34q-23 56 0 105
q-54 3 -81 34q-36 -43 -81 -58zM-64 396l-46 35q-32 -117 46 -35zM-226 373q-32 -60 35 -81q-136 -50 -116 58h-57q19 -86 -58 -58h-35q37 41 12 92q133 -20 219 -11zM561 338v-46q-129 -36 -58 81zM52 211q62 13 58 -58q62 39 58 -35q57 23 92 -23q-151 -163 -347 -208
q25 127 0 220q-26 89 -69 127q101 31 162 93q37 -60 46 -116zM-503 234q-27 -56 -70 -81l35 -46q-55 -103 -23 -220q-233 74 -370 220l92 11q63 82 151 104q0 56 11 93q110 -41 174 -81zM-237 211q14 -72 -12 -127q32 -4 46 0l-11 -81q56 14 35 -58q58 -16 69 -69
q-242 -37 -428 11q22 54 69 46q-39 88 35 81v47q-13 37 35 23q-26 71 -23 127q104 -15 185 0zM376 130l23 81q154 -76 -23 -81zM-989 142q-32 -107 -104 -24l46 58zM-769 72q39 -19 34 -58q45 20 93 12q47 74 12 150q-56 -20 -105 0q-5 -61 -34 -104zM-52 84q39 -19 34 -58
q57 17 105 0q-1 48 34 69q-43 31 -34 81h-105q-6 -54 -34 -92zM-1394 130q-22 -98 70 -139v-69l104 -23q-43 -38 -93 -47q-11 -28 12 -46l-81 -23q59 -35 -12 -58q7 -51 -34 -81v47v46v46v197v34v139zM248 14l35 70q180 -141 -35 -70zM769 37v-416q-34 68 -35 139
q-68 96 -162 139q64 31 116 34q-32 75 58 81q-25 42 11 70zM-411 26q28 -35 12 -69q52 -8 69 -47q32 37 81 47q-12 56 0 92q-54 3 -81 35q-36 -44 -81 -58zM-966 -9l46 58q154 -147 -46 -58zM-1186 -43l-11 80q108 -82 11 -80zM503 -55q-17 50 35 92q4 -55 -35 -92z
M179 -124q-87 18 -46 92q92 -17 46 -92zM-804 -136l23 81q150 -80 -23 -81zM-1001 -148l70 -34q215 -160 451 -185q-397 -94 -440 150q-58 0 -69 46q-86 -2 -92 70q47 -21 80 -47zM-52 -182q14 48 46 81q98 -114 -46 -81zM376 -148l34 47q63 -37 -34 -47zM-619 -217
q2 57 35 93q125 -97 -35 -93zM-226 -217q18 44 47 69q124 -147 -47 -69zM-399 -240l35 81q113 -106 -35 -81zM-1093 -298q62 -1 69 -58q45 25 70 -23h-47h-34h-81h-35h-35q-107 -4 -185 12q38 16 70 0q20 59 81 34q-15 72 58 58q0 56 11 93q52 -56 58 -116zM538 -298l46 23
l11 -69l47 23l23 -58h-35h-46h-35h-46h-208q42 34 92 35q17 59 81 58q1 58 12 92q60 -43 58 -104zM283 -252q-85 -59 -115 -127h-35h-93q-107 -4 -185 12q222 29 382 138z" />
    <glyph glyph-name="v" unicode="v" horiz-adv-x="2549" 
d="M-1355 -414h35h48h212h35q111 32 189 35q7 55 47 71q40 -37 12 -82l82 11q42 73 -35 71q-2 28 11 47q98 19 130 94q26 -57 12 -106l71 -11v-36q-88 -8 -48 -82q91 -12 59 59q246 -107 484 -47q2 30 11 47h36q2 -94 94 -36v47q-125 40 0 59q-12 56 0 95q56 -86 130 -59
q18 -37 23 -71l-59 12q10 -92 95 -94q-18 68 47 82q19 -37 23 -71l36 12l106 -47h200h94h83v35v236v83v70v83v70v83v71v82v71v200v71v59v70v48v212v129v47v48v47v47v200v36v141h-35h-36h-35h-153h-36h-35h-365h-201h-35h-142h-47h-35h-236h-47h-35h-212h-154h-47h-200h-36
h-141v-2239zM-1237 1801q233 -15 401 -94l117 -71q-20 41 0 71q109 -5 -23 83l-35 -12q31 -97 -59 -47v47q-93 -5 -154 35h48h47h212q28 -36 59 -59q87 100 212 59q162 8 -24 -47q-50 -45 -59 35h-47l-35 -70q54 3 71 -47q-84 -27 -59 -118q-59 36 -83 94l-59 -35l24 -12
l118 -106l35 35l24 24l23 23l24 24l23 23l24 12q12 21 23 24l130 141h83q48 -47 70 -94q145 -100 224 -212q364 284 766 294q6 -442 -294 -742l12 -35l35 -24l12 -23l35 -12l24 -24l23 -23q82 -94 153 -142v-129l-23 -36l-36 -12q-33 -53 -70 -82q-12 -21 -24 -24l-129 -141
q298 -334 282 -742q-445 50 -766 282l-23 -35l-71 -59q-12 -21 -24 -23l-11 -24l-165 -153h-95l-23 35l-36 24l-11 23l-36 24l-59 71q-83 56 -129 117q-357 -288 -766 -294q17 457 306 754l-24 24l-23 35l-35 23l-24 24l-24 24q-94 115 -176 176v71l11 35l36 12q12 21 23 24
l12 23l24 24l23 23q92 114 177 177q-304 349 -306 766zM177 1754l59 59h47h47h213q-79 -42 -154 -35q-4 -77 -70 -71q20 84 -59 71l-36 -47v-36l48 12q16 -94 -71 -47q-30 -62 -71 -94q-14 58 0 94q-57 -1 -71 59q67 3 59 59l-47 23l-47 -11q33 -52 -35 -47q0 43 -118 70
q209 43 306 -59zM-247 1731l-47 -36l-24 -23l-23 -24l-24 -23l-24 -36l-70 -47q-46 -76 -106 -118q-313 288 -707 319q55 -428 330 -708l-36 -11l-23 -36l-36 -23q-12 -21 -23 -24l-12 -35l-35 -24l-189 -176l24 -36l35 -23l23 -36l36 -23l59 -71l177 -153
q-269 -343 -330 -707q414 71 707 318l59 -71l47 -23l12 -24l23 -24l71 -58l12 -24l117 -106l83 71l24 23q11 20 23 24l24 35l23 12l24 23l130 142h35q327 -255 695 -307q-60 421 -330 684q37 57 71 94l24 24l23 23l35 12l12 36q115 90 177 165q-61 43 -94 94l-24 12l-23 35
l-59 59l-24 12l-12 23q-78 60 -118 118q280 315 330 684q-421 -61 -707 -319l-23 36q-54 37 -71 82l-35 12q-127 143 -224 212zM-1178 1672q117 49 129 -71q99 62 95 -47q101 53 106 -59q104 50 106 -59q121 19 94 -94q119 23 83 -94q126 0 70 -106q117 -25 59 -118
q103 -35 71 -154q51 -70 118 -70q9 158 -47 271l35 47q-87 58 -35 118q-94 19 -71 106l-82 35q15 41 47 47q-70 119 70 95q-47 107 83 82q-41 115 59 83q-17 -45 -12 -83h83q9 -62 0 -94q105 18 59 -83q31 -11 47 -35q-32 -31 -71 -24q-1 -62 0 -94l-83 -35q30 -80 -35 -118
l35 -24q-55 -160 -47 -294l59 -12q37 57 71 94q-29 110 71 142q-62 104 47 94q-35 107 71 118q-10 99 82 94q-4 55 12 94h82l12 83l106 -24q-6 48 12 83l82 -36q0 105 95 59l23 59q28 53 95 12q39 61 70 0l-47 -35q44 -80 -35 -106l-24 -24q46 -77 -47 -82q43 -82 -59 -118
q25 -36 36 -71l-83 -24q-10 -104 -118 -94q36 -113 -82 -71q-20 -112 -130 -82q0 -93 -94 -47q-59 -97 -177 -83q-44 -50 -59 -94l83 -12q144 38 259 12q34 77 118 47q-2 111 106 59q12 112 106 35q90 72 47 -58q121 45 106 -95q234 9 -12 -47q4 -39 -12 -71l-70 12
q28 -63 -24 -94q-59 20 -94 -24l-47 71q-93 -9 -106 83l-71 -36l-47 71l-71 -24q-158 63 -283 -11q115 -93 236 -106v-48l106 24q14 -90 106 -59l12 -82q110 16 94 -83q109 14 106 -106q45 2 83 -12l-24 -94q48 7 83 -12l-36 -82q56 4 95 -12l-48 -83q137 -7 83 -129
q45 -10 47 -59q-54 10 -82 47q-106 -61 -106 59q-105 -66 -107 47q-89 -47 -106 59q-107 -55 -106 71q-58 -22 -94 0q16 74 -35 59q-74 46 -47 117q-117 11 -71 106l-36 12l-47 24l24 82l-47 12q-12 157 -118 224q-51 -168 23 -295q-30 -14 -47 -35l83 -47l-24 -94h71
q-1 -62 -12 -95q49 -6 83 -35l-47 -35q54 -114 -59 -83q30 -124 -83 -94q10 -84 -35 -118v94q-112 7 -59 95q-119 -24 -71 94q-45 12 -47 47l71 24q-48 111 59 106q-26 96 47 141l-36 35q47 160 36 283q-80 1 -118 -70q12 -101 -71 -142q46 -99 -47 -106q34 -104 -71 -106
q-5 -109 -106 -118q29 -112 -71 -71q-8 -117 -106 -70q-9 -121 -106 -59q-18 -102 -94 -47q-19 -116 -130 -71q-13 -60 -70 -59q2 58 47 83q-66 114 71 117q-61 96 47 106q-58 92 47 95q-46 105 71 106q-23 72 35 106q31 -13 59 -12l-12 94l83 -11l35 11q-25 109 106 59
q-4 109 106 59q63 96 189 94q36 44 23 95h-94l-189 -36l-35 36q-23 -103 -118 -47q-16 -108 -106 -71q-12 -117 -82 -35q-135 -69 -71 47q-21 11 -24 23q-42 -20 -82 -23q-3 62 -12 106q-220 -4 12 23v71q38 32 94 12q-18 44 -12 82q61 8 95 -12q6 32 23 48q49 -31 47 -83
l83 12l23 -71l83 24q30 -31 35 -71q124 26 224 -12h94l24 36q-95 97 -212 94l-24 71q-92 -49 -118 47q-86 -41 -94 59q-110 -14 -106 94q-135 -17 -82 94q-115 2 -71 106q-98 1 -59 95q-109 12 -47 94q-115 19 -71 129q-45 21 -47 71q51 6 59 -35zM-1296 1295q77 -5 71 -71
q-87 21 -71 -71l47 -11q105 96 71 -36q62 -30 94 -71q-58 -10 -106 0q3 -36 -12 -70q-51 18 -47 70l-71 -35v-47q70 5 48 -59h-36q3 -68 -23 -106q-41 204 59 306l-59 48v35v47v212q43 -70 35 -141zM896 1365q32 -207 -47 -247q77 -166 47 -330q-30 56 -23 106q-88 47 11 47
q-8 79 -70 94q14 -77 -59 -58q14 79 -83 47v11v-11v11q-8 49 59 71l12 94q81 -91 141 -11l-11 47l-71 -24q-21 95 71 83q-14 73 11 129zM-1308 505q88 -39 -12 -59q5 -85 83 -82l-12 59q72 10 59 -59q175 6 12 -71q43 -82 -36 -94q-47 147 -94 -36q82 17 83 -58h-71
q3 -89 -24 -154h-11h11h-11q-40 273 59 330q-101 150 -59 318q28 -43 23 -94zM849 293q41 -36 24 -82q-40 44 -83 47q-2 -61 -59 -59q-4 56 24 94q-169 65 0 71q-2 61 47 70q18 -89 82 -47q5 69 -59 59q43 89 59 153q53 -174 -35 -306zM-683 -414q128 -15 35 59zM142 -402
q105 -34 47 47q-21 -31 -47 -47z" />
    <glyph glyph-name="w" unicode="w" horiz-adv-x="2469" 
d="M-1470 1064v-574q61 -610 725 -900h199h129h47h199h93h82q887 367 760 1298v152q-241 578 -772 772h-163h-129h-59h-35h-47h-35h-234q-552 -227 -760 -748zM121 1601q33 -233 152 -315q267 -8 35 210h-12h12h-12q-70 -63 12 -93q75 -3 59 -82q-260 4 -129 199
q-90 64 -105 152q679 -411 596 -1158l-47 -70q-144 -113 -292 -106h-94q-110 24 -187 24q-908 332 -1076 -246q37 -43 35 -82q164 -223 410 -245l11 -47q44 53 106 70l-12 -70l35 23l12 36l93 70q12 13 24 11l163 141l94 -12q-26 80 47 70q22 57 58 82q182 40 258 -117
q-51 -200 -234 -140v35l35 58q48 -112 140 -35q-17 140 -140 70q-95 -88 -24 -175q314 5 223 292q-122 82 -246 59q-12 -14 -23 -12q-105 -73 -188 -105q-498 -506 -830 12q9 158 129 222q71 92 152 23q52 78 117 12q98 97 152 -12l46 12q135 34 246 0q190 -32 23 -70
q-171 -51 -315 0q74 -49 70 -117l-129 11q52 -36 82 -70q-11 -50 -82 -35q-76 -13 0 -47q-60 -40 -117 -46q-208 -46 -222 152q28 72 82 46q-59 -149 93 -140q78 143 -58 211q-139 -29 -164 -164q93 -196 304 -152q59 28 106 35q313 352 737 316q28 -44 23 -94q59 65 105 94
q-99 -154 47 -176q63 45 70 117l-11 12q-44 -38 -36 -82q-139 5 -23 105q41 58 94 12q39 84 93 129q-122 -362 -374 -585l-82 -12q-151 6 -246 94q-344 -69 -117 -211q127 -7 129 94l-59 12q-49 -74 -116 -47q23 105 128 105q98 -11 82 -94q112 29 199 12
q-652 -333 -1217 12l-58 117q-37 191 47 351l23 23l12 35l117 175q658 677 199 1053q-332 -5 -480 -269l-47 23q29 -66 24 -128l-71 35q120 -241 106 -468l-35 -23l70 -24l-24 -58q103 -181 -82 -269q-147 -6 -163 128q-23 126 93 129l24 -58q-113 7 -82 -106q70 -32 128 0
q-4 117 -70 199q-157 -35 -128 -187q73 -179 257 -129l105 129v211q-267 761 363 830q134 -102 140 -246q39 -93 -47 -105q55 -96 -35 -93q50 -159 -82 -164q-21 -239 -198 -363q1 244 152 386q-199 -86 -82 105l-94 -58q-31 70 12 129v35q-105 -82 -23 163q229 209 233 -70
q-65 124 -163 59q-13 -119 105 -141q129 55 105 188q-180 169 -327 -47l-35 -199q183 -445 -47 -807l-94 23q42 -63 59 -128q-97 134 -187 35q0 -106 81 -141v59q-76 29 -46 105q98 -19 117 -105q27 -65 -35 -59q54 -90 46 -175q-310 305 -351 713q2 662 492 1018
q90 46 175 35q190 -13 304 -129l12 -35l23 -11l129 -199q128 -552 527 -842l234 -12q11 14 23 12q12 13 23 11q45 48 82 71q101 278 -23 502l23 36q-64 3 -105 35l47 58q-361 7 -445 176q-59 -63 -93 0q-67 -19 -117 0q-105 132 -47 268q146 66 245 -46q13 -87 -81 -82
q75 207 -106 82q60 -197 234 -59q-104 263 -339 105q-33 -152 35 -268l24 -12l35 -12l140 -82q803 -169 491 -737q-326 -84 -339 117q-99 0 -58 82q-149 19 -106 152q-132 104 -175 258q-77 133 82 0q136 -84 140 -234q62 210 105 23h35q-12 189 117 12q-17 126 164 -47
q54 -131 -35 -210q-89 -49 -140 35q202 -2 93 140q-245 -55 -58 -234h105q191 183 -23 386l-47 12l-59 23l-35 23l-82 36q-158 10 -269 81q-336 240 -198 386q-88 -8 -141 24q137 -17 152 105q-90 65 -175 58l-12 -11l23 -47q69 28 129 12q-31 -172 -199 -47l24 35
q-152 9 -258 58q133 53 223 71q511 52 643 -188zM-651 549q293 55 538 -23h82q-260 235 -293 549l-46 59q-48 -359 -281 -585zM-698 1064q55 -6 23 35z" />
    <glyph glyph-name="x" unicode="x" horiz-adv-x="1899" 
d="M464 1377l-37 -64l-46 -46q-94 -165 -238 -256q-56 -69 -119 -101q-59 -76 -128 -119l-45 -46q-65 -94 -128 -146q-14 -47 -28 -73l-18 -9l-37 -64l-9 -28l-9 -18l-37 -82l-9 -28l-46 -119q2 142 46 247l92 174q52 101 109 156l10 36q40 56 54 101l19 18l9 28l18 18l9 27
l10 19l9 27l36 110q6 454 -430 476q-369 -122 -329 -485q90 -307 402 -147l28 46q-342 45 -229 339q152 216 375 82q134 -169 101 -357q-37 -91 -46 -165q-48 -61 -64 -119l-36 -54q-32 -29 -46 -55l-19 -28l-9 -27l-9 -18q-50 -104 -91 -165l-10 -18q-19 -104 -45 -165
v-128l9 -19l9 -18v-27l18 -73l9 -64l10 -19v-27l27 -55q-377 272 -549 -9l9 -64q257 150 540 -64q88 -20 147 -64q245 -100 448 -19q-453 -35 -558 366q-39 189 100 293q106 127 257 137q209 5 302 -155q65 -193 -83 -311q-231 -110 -366 91q35 -162 247 -210q439 3 394 421
q-98 350 -504 301q467 119 568 -301q-2 -144 -18 -193q-50 -136 -165 -192q-43 -27 0 -27q327 163 256 485q-102 339 -430 338q-72 -30 -128 -36q-37 -30 -73 -37l-55 -46l-28 -27l-27 -18l-28 -10l-18 -18l-119 -82q146 258 375 393l46 46l27 9l19 18l27 10q43 49 92 73
q-11 -78 64 -73q34 37 18 82l-73 9l91 73q-18 -70 46 -91q49 18 46 64q-20 44 -64 46q30 55 73 82q-18 -104 82 -82l-9 -19l-18 -18l-37 -55l-18 -18l-18 -9l-55 -46q-91 -93 -174 -137q438 193 485 576l-9 37q-30 -173 -128 -284q-16 57 -64 73l-28 -9l19 37q9 15 18 18
q35 86 73 137l18 64l9 55q35 -57 83 -18q-27 50 -73 27q19 236 -165 339l-18 9l-28 9q114 -224 37 -448zM683 1349l-64 19q-9 -156 64 -19zM610 1175q59 67 -27 92q-62 -73 27 -92zM180 800q123 -3 28 64q-29 -36 -28 -64zM-113 50v28q-17 85 19 146q-8 17 -19 18
q-72 -106 0 -192z" />
    <glyph glyph-name="y" unicode="y" horiz-adv-x="2509" 
d="M162 1598q-2 -190 183 -195q23 31 34 57q-197 216 126 172q54 126 171 91q83 -113 -23 -194q132 -282 -183 -160l-45 -57q22 -102 103 -149q405 19 274 652h-149q-402 21 -491 -217zM-1348 1781v-35l11 -91q-28 -224 35 -412l91 -57q211 -62 263 137l-57 46
q-98 -101 -206 -34q-69 99 12 194q-111 108 -23 217q117 18 171 -80q137 58 218 -45q31 -119 -80 -161l22 -80q121 -13 195 58q116 440 -618 366zM-513 1666q118 127 -80 138q-81 -156 80 -138zM47 1643q72 41 69 115q-56 51 -114 46q-93 -124 45 -161zM-284 1758
q-374 -298 -526 -675q2 -96 34 -172q139 -294 412 -148q27 201 -183 160l-12 34q3 173 149 217q-46 290 160 435q211 -194 137 -446q141 -60 137 -194q-220 -22 -171 -206q160 -63 309 -23l91 114q100 576 -526 927zM-1222 1621q191 -33 46 80q-36 -48 -46 -80zM562 1643
q69 -105 103 12q-40 27 -69 34zM-1005 1540q201 -25 57 92q-50 -40 -57 -92zM470 1575l-80 23q6 -161 80 -23zM-262 1483q-113 -190 -34 -377q-118 1 -171 -92q209 -4 205 -194q32 145 138 206l45 23l-45 34q-66 26 -92 69q77 190 -34 331h-12h12h-12zM539 1426l46 -46
q100 54 -12 103zM-1199 1415q86 -124 114 34l-80 11zM368 1312q-16 39 -46 34q-101 -127 46 -34zM-902 1277q119 -119 92 35h-81zM-993 1106q173 8 45 80q-38 -45 -45 -80zM333 1094l46 -45q152 32 23 125q-54 -35 -69 -80zM-1096 694l22 -69q-163 -124 -171 -297
q53 3 80 23q19 173 172 206q207 97 366 -23q-125 4 -206 -34q-47 -140 103 -161q42 291 354 12q-103 393 -617 309l-23 57q178 63 125 229q-89 171 -274 137q-309 -257 69 -389zM516 671l-23 -68q-507 38 -617 -252h57q182 236 217 -23l92 -23q99 92 11 217q282 25 423 -194
l57 -11q-24 199 -194 251q17 58 34 92q193 10 229 183q-32 178 -217 194q-314 -120 -69 -366zM-856 717q139 28 11 80zM265 694q97 -50 103 46q-30 31 -69 34zM-376 660q42 -75 57 -126l12 -46l-12 -160l12 -446l91 -11q32 52 23 102v35v34v34v35q-28 136 0 251l12 183
q24 65 57 103q-87 46 -138 92q-47 -66 -114 -80zM-1325 614q186 8 23 80zM768 625l-69 12q-11 -215 69 -12zM333 122l69 -57q354 148 229 -194q100 -62 80 -172q-160 -124 -263 57q-149 -111 -263 12q-37 137 91 183q-17 71 -69 103q-233 -3 -228 -229q79 -132 183 -195h34
q140 -30 240 -23h34h35h46q178 -13 285 0q63 561 -263 744h-34q-196 -48 -206 -229zM-1268 214q-105 -330 -57 -618h34h46h194h92h80q389 19 400 332q-103 173 -297 148q-49 -41 -69 -103q143 -63 103 -194q-99 -132 -251 -23q-48 -132 -172 -103q-96 64 -46 160
q32 54 80 69q-128 142 -23 274q133 3 229 -80q181 255 -183 263zM-810 122l114 12q192 164 354 -23q-46 168 -251 171q-153 -45 -217 -160zM-159 122q195 122 344 -23l91 -23q-11 202 -286 172q-104 -51 -149 -126zM-1154 8q111 -62 126 57q-39 36 -80 34q-40 -47 -46 -91z
M573 -49q79 97 -45 114q-75 -109 45 -114zM-879 -221q95 -18 103 80l-80 46q-62 -64 -23 -126zM230 -164l23 -80q191 14 46 126zM-444 -347q170 -94 285 -11q141 -12 35 183q-133 -16 -229 11zM-1188 -267q106 -61 137 46q-38 46 -91 46q-36 -57 -46 -92zM528 -232
q76 -149 137 11q-47 36 -92 34z" />
    <glyph glyph-name="z" unicode="z" horiz-adv-x="3159" 
d="M745 1154q73 -23 122 -23q166 418 441 534q-570 -742 -45 -767l60 116l31 186l15 47v70v69l61 396l-107 23h-167q-521 -114 -411 -651zM-1477 1596q97 44 152 -70v-23v23v-47v24v-24q-294 -688 46 -1302q463 -715 913 -465q86 119 183 163l-76 93q-377 -709 -975 233
q424 -321 838 -233l30 23l107 24h60l274 69l-274 -23q-474 -187 -852 70q174 23 259 186q-481 -329 -624 395q-68 832 456 1000q518 -77 320 -628q40 -37 76 23q42 370 -152 535q-318 224 -594 -93q-20 203 -137 233q-31 -87 -30 -186zM-259 1572q258 -153 365 -511l61 -70
q435 -30 106 349l-45 46l-107 93h-46l-30 47l-30 23q-114 50 -183 116q419 -19 670 -441l91 -24v210q-229 379 -533 372q-222 -14 -319 -210zM-518 1572q195 33 15 163zM684 1689l-76 23q14 -231 76 -23zM-1127 1479q127 46 0 117v-117zM-701 1526h-61q34 -282 61 0z
M-1355 945v-70l106 -23q464 -529 563 0l-61 69h-76h-106h-46q-165 81 -289 70q229 141 457 23q262 317 -168 396q-264 -138 -380 -465zM-412 1107q-280 -425 -106 -767q359 -106 259 837q110 -357 60 -697q36 -116 46 -186q111 -9 183 23q283 768 -442 1046q22 -145 0 -256z
M517 1038q-28 -42 -31 -93q14 -347 -45 -605q181 209 198 512q210 172 0 232q-91 -953 -122 -46zM791 619q-95 43 45 326q-334 -563 -45 -326zM1217 689q351 -33 15 163q-22 -86 -15 -163zM197 642q180 -119 122 163h-91zM867 666q210 -52 46 139zM-1203 573q43 121 -61 116
q-16 -123 61 -116zM-777 456q156 -18 30 117zM958 410q390 -149 365 -674q-180 802 -593 488v-209l137 -140l350 -139l91 -140q298 768 -243 977q-69 -82 -107 -163zM-1066 363q295 6 30 163zM578 387q198 -48 319 93h-137zM182 108q254 -79 426 -303l61 -93
q-105 33 -167 70q-197 193 -411 209l-61 -93q-3 -160 76 -232h45l107 -23h46h61h258q134 -31 229 0q-205 561 -533 697q-92 -100 -137 -232zM-716 201q177 -69 61 116zM-305 317q-127 -234 -305 -256q213 0 335 233zM91 224q83 18 15 93zM-259 154q116 25 15 93zM-1462 -55
q147 46 31 163zM-1249 -241q219 58 15 186q-21 -95 -15 -186zM-1447 -288q101 -176 137 70l-76 23z" />
    <glyph glyph-name="braceleft" unicode="{" horiz-adv-x="684" 
 />
    <glyph glyph-name="bar" unicode="|" horiz-adv-x="532" 
 />
    <glyph glyph-name="braceright" unicode="}" horiz-adv-x="684" 
 />
    <glyph glyph-name="asciitilde" unicode="~" horiz-adv-x="1196" 
 />
    <glyph glyph-name="exclamdown" unicode="&#xa1;" horiz-adv-x="682" 
 />
    <glyph glyph-name="cent" unicode="&#xa2;" 
 />
    <glyph glyph-name="sterling" unicode="&#xa3;" 
 />
    <glyph glyph-name="yen" unicode="&#xa5;" 
 />
    <glyph glyph-name="brokenbar" unicode="&#xa6;" horiz-adv-x="532" 
 />
    <glyph glyph-name="section" unicode="&#xa7;" 
 />
    <glyph glyph-name="dieresis" unicode="&#xa8;" horiz-adv-x="682" 
 />
    <glyph glyph-name="copyright" unicode="&#xa9;" horiz-adv-x="1509" 
 />
    <glyph glyph-name="ordfeminine" unicode="&#xaa;" horiz-adv-x="758" 
 />
    <glyph glyph-name="guillemotleft" unicode="&#xab;" 
 />
    <glyph glyph-name="logicalnot" unicode="&#xac;" horiz-adv-x="1196" 
 />
    <glyph glyph-name="registered" unicode="&#xae;" horiz-adv-x="1509" 
 />
    <glyph glyph-name="overscore" unicode="&#xaf;" horiz-adv-x="1131" 
 />
    <glyph glyph-name="degree" unicode="&#xb0;" horiz-adv-x="819" 
 />
    <glyph glyph-name="plusminus" unicode="&#xb1;" horiz-adv-x="1124" 
 />
    <glyph glyph-name="twosuperior" unicode="&#xb2;" horiz-adv-x="682" 
 />
    <glyph glyph-name="threesuperior" unicode="&#xb3;" horiz-adv-x="682" 
 />
    <glyph glyph-name="acute" unicode="&#xb4;" horiz-adv-x="682" 
 />
    <glyph glyph-name="mu1" unicode="&#xb5;" horiz-adv-x="1180" 
 />
    <glyph glyph-name="paragraph" unicode="&#xb6;" horiz-adv-x="1100" 
 />
    <glyph glyph-name="periodcentered" unicode="&#xb7;" horiz-adv-x="569" 
 />
    <glyph glyph-name="periodcentered" unicode="&#x2219;" horiz-adv-x="569" 
 />
    <glyph glyph-name="cedilla" unicode="&#xb8;" horiz-adv-x="682" 
 />
    <glyph glyph-name="onesuperior" unicode="&#xb9;" horiz-adv-x="682" 
 />
    <glyph glyph-name="ordmasculine" unicode="&#xba;" horiz-adv-x="748" 
 />
    <glyph glyph-name="guillemotright" unicode="&#xbb;" 
 />
    <glyph glyph-name="onequarter" unicode="&#xbc;" horiz-adv-x="1708" 
 />
    <glyph glyph-name="onehalf" unicode="&#xbd;" horiz-adv-x="1708" 
 />
    <glyph glyph-name="threequarters" unicode="&#xbe;" horiz-adv-x="1708" 
 />
    <glyph glyph-name="questiondown" unicode="&#xbf;" horiz-adv-x="1251" 
 />
    <glyph glyph-name="Agrave" unicode="&#xc0;" horiz-adv-x="1366" 
 />
    <glyph glyph-name="Aacute" unicode="&#xc1;" horiz-adv-x="1366" 
 />
    <glyph glyph-name="Acircumflex" unicode="&#xc2;" horiz-adv-x="1366" 
 />
    <glyph glyph-name="Atilde" unicode="&#xc3;" horiz-adv-x="1366" 
 />
    <glyph glyph-name="Adieresis" unicode="&#xc4;" horiz-adv-x="1366" 
 />
    <glyph glyph-name="Aring" unicode="&#xc5;" horiz-adv-x="1366" 
 />
    <glyph glyph-name="AE" unicode="&#xc6;" horiz-adv-x="2048" 
 />
    <glyph glyph-name="Ccedilla" unicode="&#xc7;" horiz-adv-x="1479" 
 />
    <glyph glyph-name="Egrave" unicode="&#xc8;" horiz-adv-x="1366" 
 />
    <glyph glyph-name="Eacute" unicode="&#xc9;" horiz-adv-x="1366" 
 />
    <glyph glyph-name="Ecircumflex" unicode="&#xca;" horiz-adv-x="1366" 
 />
    <glyph glyph-name="Edieresis" unicode="&#xcb;" horiz-adv-x="1366" 
 />
    <glyph glyph-name="Igrave" unicode="&#xcc;" horiz-adv-x="569" 
 />
    <glyph glyph-name="Iacute" unicode="&#xcd;" horiz-adv-x="569" 
 />
    <glyph glyph-name="Icircumflex" unicode="&#xce;" horiz-adv-x="569" 
 />
    <glyph glyph-name="Idieresis" unicode="&#xcf;" horiz-adv-x="569" 
 />
    <glyph glyph-name="Eth" unicode="&#xd0;" horiz-adv-x="1479" 
 />
    <glyph glyph-name="Ntilde" unicode="&#xd1;" horiz-adv-x="1479" 
 />
    <glyph glyph-name="Ograve" unicode="&#xd2;" horiz-adv-x="1593" 
 />
    <glyph glyph-name="Oacute" unicode="&#xd3;" horiz-adv-x="1593" 
 />
    <glyph glyph-name="Ocircumflex" unicode="&#xd4;" horiz-adv-x="1593" 
 />
    <glyph glyph-name="Otilde" unicode="&#xd5;" horiz-adv-x="1593" 
 />
    <glyph glyph-name="Odieresis" unicode="&#xd6;" horiz-adv-x="1593" 
 />
    <glyph glyph-name="multiply" unicode="&#xd7;" horiz-adv-x="1196" 
 />
    <glyph glyph-name="Oslash" unicode="&#xd8;" horiz-adv-x="1593" 
 />
    <glyph glyph-name="Ugrave" unicode="&#xd9;" horiz-adv-x="1479" 
 />
    <glyph glyph-name="Uacute" unicode="&#xda;" horiz-adv-x="1479" 
 />
    <glyph glyph-name="Ucircumflex" unicode="&#xdb;" horiz-adv-x="1479" 
 />
    <glyph glyph-name="Udieresis" unicode="&#xdc;" horiz-adv-x="1479" 
 />
    <glyph glyph-name="Yacute" unicode="&#xdd;" horiz-adv-x="1366" 
 />
    <glyph glyph-name="Thorn" unicode="&#xde;" horiz-adv-x="1366" 
 />
    <glyph glyph-name="germandbls" unicode="&#xdf;" horiz-adv-x="1251" 
 />
    <glyph glyph-name="agrave" unicode="&#xe0;" 
 />
    <glyph glyph-name="aacute" unicode="&#xe1;" 
 />
    <glyph glyph-name="acircumflex" unicode="&#xe2;" 
 />
    <glyph glyph-name="atilde" unicode="&#xe3;" 
 />
    <glyph glyph-name="adieresis" unicode="&#xe4;" 
 />
    <glyph glyph-name="aring" unicode="&#xe5;" 
 />
    <glyph glyph-name="ae" unicode="&#xe6;" horiz-adv-x="1821" 
 />
    <glyph glyph-name="ccedilla" unicode="&#xe7;" horiz-adv-x="1024" 
 />
    <glyph glyph-name="egrave" unicode="&#xe8;" 
 />
    <glyph glyph-name="eacute" unicode="&#xe9;" 
 />
    <glyph glyph-name="ecircumflex" unicode="&#xea;" 
 />
    <glyph glyph-name="edieresis" unicode="&#xeb;" 
 />
    <glyph glyph-name="igrave" unicode="&#xec;" horiz-adv-x="569" 
 />
    <glyph glyph-name="iacute" unicode="&#xed;" horiz-adv-x="569" 
 />
    <glyph glyph-name="icircumflex" unicode="&#xee;" horiz-adv-x="569" 
 />
    <glyph glyph-name="idieresis" unicode="&#xef;" horiz-adv-x="569" 
 />
    <glyph glyph-name="eth" unicode="&#xf0;" 
 />
    <glyph glyph-name="ntilde" unicode="&#xf1;" 
 />
    <glyph glyph-name="ograve" unicode="&#xf2;" 
 />
    <glyph glyph-name="oacute" unicode="&#xf3;" 
 />
    <glyph glyph-name="ocircumflex" unicode="&#xf4;" 
 />
    <glyph glyph-name="otilde" unicode="&#xf5;" 
 />
    <glyph glyph-name="odieresis" unicode="&#xf6;" 
 />
    <glyph glyph-name="divide" unicode="&#xf7;" horiz-adv-x="1124" 
 />
    <glyph glyph-name="oslash" unicode="&#xf8;" horiz-adv-x="1251" 
 />
    <glyph glyph-name="ugrave" unicode="&#xf9;" 
 />
    <glyph glyph-name="uacute" unicode="&#xfa;" 
 />
    <glyph glyph-name="ucircumflex" unicode="&#xfb;" 
 />
    <glyph glyph-name="udieresis" unicode="&#xfc;" 
 />
    <glyph glyph-name="yacute" unicode="&#xfd;" horiz-adv-x="1024" 
 />
    <glyph glyph-name="thorn" unicode="&#xfe;" 
 />
    <glyph glyph-name="ydieresis" unicode="&#xff;" horiz-adv-x="1024" 
 />
    <glyph glyph-name="Amacron" unicode="&#x100;" horiz-adv-x="1366" 
 />
    <glyph glyph-name="amacron" unicode="&#x101;" 
 />
    <glyph glyph-name="Abreve" unicode="&#x102;" horiz-adv-x="1366" 
 />
    <glyph glyph-name="abreve" unicode="&#x103;" 
 />
    <glyph glyph-name="Aogonek" unicode="&#x104;" horiz-adv-x="1366" 
 />
    <glyph glyph-name="aogonek" unicode="&#x105;" 
 />
    <glyph glyph-name="Cacute" unicode="&#x106;" horiz-adv-x="1479" 
 />
    <glyph glyph-name="cacute" unicode="&#x107;" horiz-adv-x="1024" 
 />
    <glyph glyph-name="Ccircumflex" unicode="&#x108;" horiz-adv-x="1479" 
 />
    <glyph glyph-name="ccircumflex" unicode="&#x109;" horiz-adv-x="1024" 
 />
    <glyph glyph-name="Cdot" unicode="&#x10a;" horiz-adv-x="1479" 
 />
    <glyph glyph-name="cdot" unicode="&#x10b;" horiz-adv-x="1024" 
 />
    <glyph glyph-name="Ccaron" unicode="&#x10c;" horiz-adv-x="1479" 
 />
    <glyph glyph-name="ccaron" unicode="&#x10d;" horiz-adv-x="1024" 
 />
    <glyph glyph-name="Dcaron" unicode="&#x10e;" horiz-adv-x="1479" 
 />
    <glyph glyph-name="dcaron" unicode="&#x10f;" horiz-adv-x="1259" 
 />
    <glyph glyph-name="Dslash" unicode="&#x110;" horiz-adv-x="1479" 
 />
    <glyph glyph-name="dmacron" unicode="&#x111;" 
 />
    <glyph glyph-name="Emacron" unicode="&#x112;" horiz-adv-x="1366" 
 />
    <glyph glyph-name="emacron" unicode="&#x113;" 
 />
    <glyph glyph-name="Ebreve" unicode="&#x114;" horiz-adv-x="1366" 
 />
    <glyph glyph-name="ebreve" unicode="&#x115;" 
 />
    <glyph glyph-name="Edot" unicode="&#x116;" horiz-adv-x="1366" 
 />
    <glyph glyph-name="edot" unicode="&#x117;" 
 />
    <glyph glyph-name="Eogonek" unicode="&#x118;" horiz-adv-x="1366" 
 />
    <glyph glyph-name="eogonek" unicode="&#x119;" 
 />
    <glyph glyph-name="Ecaron" unicode="&#x11a;" horiz-adv-x="1366" 
 />
    <glyph glyph-name="ecaron" unicode="&#x11b;" 
 />
    <glyph glyph-name="Gcircumflex" unicode="&#x11c;" horiz-adv-x="1593" 
 />
    <glyph glyph-name="gcircumflex" unicode="&#x11d;" 
 />
    <glyph glyph-name="Gbreve" unicode="&#x11e;" horiz-adv-x="1593" 
 />
    <glyph glyph-name="gbreve" unicode="&#x11f;" 
 />
    <glyph glyph-name="Gdot" unicode="&#x120;" horiz-adv-x="1593" 
 />
    <glyph glyph-name="gdot" unicode="&#x121;" 
 />
    <glyph glyph-name="Gcedilla" unicode="&#x122;" horiz-adv-x="1593" 
 />
    <glyph glyph-name="gcedilla" unicode="&#x123;" 
 />
    <glyph glyph-name="Hcircumflex" unicode="&#x124;" horiz-adv-x="1479" 
 />
    <glyph glyph-name="hcircumflex" unicode="&#x125;" 
 />
    <glyph glyph-name="Hbar" unicode="&#x126;" horiz-adv-x="1479" 
 />
    <glyph glyph-name="hbar" unicode="&#x127;" 
 />
    <glyph glyph-name="Itilde" unicode="&#x128;" horiz-adv-x="569" 
 />
    <glyph glyph-name="itilde" unicode="&#x129;" horiz-adv-x="569" 
 />
    <glyph glyph-name="Imacron" unicode="&#x12a;" horiz-adv-x="569" 
 />
    <glyph glyph-name="imacron" unicode="&#x12b;" horiz-adv-x="569" 
 />
    <glyph glyph-name="Ibreve" unicode="&#x12c;" horiz-adv-x="569" 
 />
    <glyph glyph-name="ibreve" unicode="&#x12d;" horiz-adv-x="569" 
 />
    <glyph glyph-name="Iogonek" unicode="&#x12e;" horiz-adv-x="569" 
 />
    <glyph glyph-name="iogonek" unicode="&#x12f;" horiz-adv-x="455" 
 />
    <glyph glyph-name="Idotaccent" unicode="&#x130;" horiz-adv-x="569" 
 />
    <glyph glyph-name="dotlessi" unicode="&#x131;" horiz-adv-x="569" 
 />
    <glyph glyph-name="IJ" unicode="&#x132;" horiz-adv-x="1505" 
 />
    <glyph glyph-name="ij" unicode="&#x133;" horiz-adv-x="909" 
 />
    <glyph glyph-name="Jcircumflex" unicode="&#x134;" horiz-adv-x="1024" 
 />
    <glyph glyph-name="jcircumflex" unicode="&#x135;" horiz-adv-x="455" 
 />
    <glyph glyph-name="Kcedilla" unicode="&#x136;" horiz-adv-x="1366" 
 />
    <glyph glyph-name="kcedilla" unicode="&#x137;" horiz-adv-x="1024" 
 />
    <glyph glyph-name="kgreenlandic" unicode="&#x138;" horiz-adv-x="1024" 
 />
    <glyph glyph-name="Lacute" unicode="&#x139;" 
 />
    <glyph glyph-name="lacute" unicode="&#x13a;" horiz-adv-x="455" 
 />
    <glyph glyph-name="Lcedilla" unicode="&#x13b;" 
 />
    <glyph glyph-name="lcedilla" unicode="&#x13c;" horiz-adv-x="455" 
 />
    <glyph glyph-name="Lcaron" unicode="&#x13d;" 
 />
    <glyph glyph-name="lcaron" unicode="&#x13e;" horiz-adv-x="597" 
 />
    <glyph glyph-name="Ldot" unicode="&#x13f;" 
 />
    <glyph glyph-name="ldot" unicode="&#x140;" horiz-adv-x="684" 
 />
    <glyph glyph-name="Lslash" unicode="&#x141;" 
 />
    <glyph glyph-name="lslash" unicode="&#x142;" horiz-adv-x="455" 
 />
    <glyph glyph-name="Nacute" unicode="&#x143;" horiz-adv-x="1479" 
 />
    <glyph glyph-name="nacute" unicode="&#x144;" 
 />
    <glyph glyph-name="Ncedilla" unicode="&#x145;" horiz-adv-x="1479" 
 />
    <glyph glyph-name="ncedilla" unicode="&#x146;" 
 />
    <glyph glyph-name="Ncaron" unicode="&#x147;" horiz-adv-x="1479" 
 />
    <glyph glyph-name="ncaron" unicode="&#x148;" 
 />
    <glyph glyph-name="napostrophe" unicode="&#x149;" horiz-adv-x="1237" 
 />
    <glyph glyph-name="Eng" unicode="&#x14a;" horiz-adv-x="1481" 
 />
    <glyph glyph-name="eng" unicode="&#x14b;" 
 />
    <glyph glyph-name="Omacron" unicode="&#x14c;" horiz-adv-x="1593" 
 />
    <glyph glyph-name="omacron" unicode="&#x14d;" 
 />
    <glyph glyph-name="Obreve" unicode="&#x14e;" horiz-adv-x="1593" 
 />
    <glyph glyph-name="obreve" unicode="&#x14f;" 
 />
    <glyph glyph-name="Odblacute" unicode="&#x150;" horiz-adv-x="1593" 
 />
    <glyph glyph-name="odblacute" unicode="&#x151;" 
 />
    <glyph glyph-name="OE" unicode="&#x152;" horiz-adv-x="2048" 
 />
    <glyph glyph-name="oe" unicode="&#x153;" horiz-adv-x="1933" 
 />
    <glyph glyph-name="Racute" unicode="&#x154;" horiz-adv-x="1479" 
 />
    <glyph glyph-name="racute" unicode="&#x155;" horiz-adv-x="682" 
 />
    <glyph glyph-name="Rcedilla" unicode="&#x156;" horiz-adv-x="1479" 
 />
    <glyph glyph-name="rcedilla" unicode="&#x157;" horiz-adv-x="682" 
 />
    <glyph glyph-name="Rcaron" unicode="&#x158;" horiz-adv-x="1479" 
 />
    <glyph glyph-name="rcaron" unicode="&#x159;" horiz-adv-x="682" 
 />
    <glyph glyph-name="Sacute" unicode="&#x15a;" horiz-adv-x="1366" 
 />
    <glyph glyph-name="sacute" unicode="&#x15b;" horiz-adv-x="1024" 
 />
    <glyph glyph-name="Scircumflex" unicode="&#x15c;" horiz-adv-x="1366" 
 />
    <glyph glyph-name="scircumflex" unicode="&#x15d;" horiz-adv-x="1024" 
 />
    <glyph glyph-name="Scedilla" unicode="&#x15e;" horiz-adv-x="1366" 
 />
    <glyph glyph-name="scedilla" unicode="&#x15f;" horiz-adv-x="1024" 
 />
    <glyph glyph-name="Scaron" unicode="&#x160;" horiz-adv-x="1366" 
 />
    <glyph glyph-name="scaron" unicode="&#x161;" horiz-adv-x="1024" 
 />
    <glyph glyph-name="Tcedilla" unicode="&#x162;" horiz-adv-x="1251" 
 />
    <glyph glyph-name="tcedilla" unicode="&#x163;" horiz-adv-x="569" 
 />
    <glyph glyph-name="Tcaron" unicode="&#x164;" horiz-adv-x="1251" 
 />
    <glyph glyph-name="tcaron" unicode="&#x165;" horiz-adv-x="768" 
 />
    <glyph glyph-name="Tbar" unicode="&#x166;" horiz-adv-x="1251" 
 />
    <glyph glyph-name="tbar" unicode="&#x167;" horiz-adv-x="569" 
 />
    <glyph glyph-name="Utilde" unicode="&#x168;" horiz-adv-x="1479" 
 />
    <glyph glyph-name="utilde" unicode="&#x169;" 
 />
    <glyph glyph-name="Umacron" unicode="&#x16a;" horiz-adv-x="1479" 
 />
    <glyph glyph-name="umacron" unicode="&#x16b;" 
 />
    <glyph glyph-name="Ubreve" unicode="&#x16c;" horiz-adv-x="1479" 
 />
    <glyph glyph-name="ubreve" unicode="&#x16d;" 
 />
    <glyph glyph-name="Uring" unicode="&#x16e;" horiz-adv-x="1479" 
 />
    <glyph glyph-name="uring" unicode="&#x16f;" 
 />
    <glyph glyph-name="Udblacute" unicode="&#x170;" horiz-adv-x="1479" 
 />
    <glyph glyph-name="udblacute" unicode="&#x171;" 
 />
    <glyph glyph-name="Uogonek" unicode="&#x172;" horiz-adv-x="1479" 
 />
    <glyph glyph-name="uogonek" unicode="&#x173;" 
 />
    <glyph glyph-name="Wcircumflex" unicode="&#x174;" horiz-adv-x="1933" 
 />
    <glyph glyph-name="wcircumflex" unicode="&#x175;" horiz-adv-x="1479" 
 />
    <glyph glyph-name="Ycircumflex" unicode="&#x176;" horiz-adv-x="1366" 
 />
    <glyph glyph-name="ycircumflex" unicode="&#x177;" horiz-adv-x="1024" 
 />
    <glyph glyph-name="Ydieresis" unicode="&#x178;" horiz-adv-x="1366" 
 />
    <glyph glyph-name="Zacute" unicode="&#x179;" horiz-adv-x="1251" 
 />
    <glyph glyph-name="zacute" unicode="&#x17a;" horiz-adv-x="1024" 
 />
    <glyph glyph-name="Zdot" unicode="&#x17b;" horiz-adv-x="1251" 
 />
    <glyph glyph-name="zdot" unicode="&#x17c;" horiz-adv-x="1024" 
 />
    <glyph glyph-name="Zcaron" unicode="&#x17d;" horiz-adv-x="1251" 
 />
    <glyph glyph-name="zcaron" unicode="&#x17e;" horiz-adv-x="1024" 
 />
    <glyph glyph-name="longs" unicode="&#x17f;" horiz-adv-x="455" 
 />
    <glyph glyph-name="florin" unicode="&#x192;" 
 />
    <glyph glyph-name="Aringacute" unicode="&#x1fa;" horiz-adv-x="1366" 
 />
    <glyph glyph-name="aringacute" unicode="&#x1fb;" 
 />
    <glyph glyph-name="AEacute" unicode="&#x1fc;" horiz-adv-x="2048" 
 />
    <glyph glyph-name="aeacute" unicode="&#x1fd;" horiz-adv-x="1821" 
 />
    <glyph glyph-name="Oslashacute" unicode="&#x1fe;" horiz-adv-x="1593" 
 />
    <glyph glyph-name="oslashacute" unicode="&#x1ff;" horiz-adv-x="1251" 
 />
    <glyph glyph-name="circumflex" unicode="&#x2c6;" horiz-adv-x="682" 
 />
    <glyph glyph-name="caron" unicode="&#x2c7;" horiz-adv-x="682" 
 />
    <glyph glyph-name="macron" unicode="&#x2c9;" horiz-adv-x="682" 
 />
    <glyph glyph-name="breve" unicode="&#x2d8;" horiz-adv-x="682" 
 />
    <glyph glyph-name="dotaccent" unicode="&#x2d9;" horiz-adv-x="682" 
 />
    <glyph glyph-name="ring" unicode="&#x2da;" horiz-adv-x="682" 
 />
    <glyph glyph-name="ogonek" unicode="&#x2db;" horiz-adv-x="682" 
 />
    <glyph glyph-name="tilde" unicode="&#x2dc;" horiz-adv-x="682" 
 />
    <glyph glyph-name="hungarumlaut" unicode="&#x2dd;" horiz-adv-x="682" 
 />
    <glyph glyph-name="tonos" unicode="&#x384;" horiz-adv-x="682" 
 />
    <glyph glyph-name="dieresistonos" unicode="&#x385;" horiz-adv-x="682" 
 />
    <glyph glyph-name="Alphatonos" unicode="&#x386;" horiz-adv-x="1367" 
 />
    <glyph glyph-name="anoteleia" unicode="&#x387;" horiz-adv-x="569" 
 />
    <glyph glyph-name="Epsilontonos" unicode="&#x388;" horiz-adv-x="1606" 
 />
    <glyph glyph-name="Etatonos" unicode="&#x389;" horiz-adv-x="1716" 
 />
    <glyph glyph-name="Iotatonos" unicode="&#x38a;" horiz-adv-x="786" 
 />
    <glyph glyph-name="Omicrontonos" unicode="&#x38c;" horiz-adv-x="1586" 
 />
    <glyph glyph-name="Upsilontonos" unicode="&#x38e;" horiz-adv-x="1752" 
 />
    <glyph glyph-name="Omegatonos" unicode="&#x38f;" horiz-adv-x="1541" 
 />
    <glyph glyph-name="iotadieresistonos" unicode="&#x390;" horiz-adv-x="455" 
 />
    <glyph glyph-name="Alpha" unicode="&#x391;" horiz-adv-x="1366" 
 />
    <glyph glyph-name="Beta" unicode="&#x392;" horiz-adv-x="1366" 
 />
    <glyph glyph-name="Gamma" unicode="&#x393;" horiz-adv-x="1128" 
 />
    <glyph glyph-name="uni0394" unicode="&#x394;" horiz-adv-x="1368" 
 />
    <glyph glyph-name="Epsilon" unicode="&#x395;" horiz-adv-x="1366" 
 />
    <glyph glyph-name="Zeta" unicode="&#x396;" horiz-adv-x="1251" 
 />
    <glyph glyph-name="Eta" unicode="&#x397;" horiz-adv-x="1479" 
 />
    <glyph glyph-name="Theta" unicode="&#x398;" horiz-adv-x="1593" 
 />
    <glyph glyph-name="Iota" unicode="&#x399;" horiz-adv-x="569" 
 />
    <glyph glyph-name="Kappa" unicode="&#x39a;" horiz-adv-x="1366" 
 />
    <glyph glyph-name="Lambda" unicode="&#x39b;" horiz-adv-x="1368" 
 />
    <glyph glyph-name="Mu" unicode="&#x39c;" horiz-adv-x="1706" 
 />
    <glyph glyph-name="Nu" unicode="&#x39d;" horiz-adv-x="1479" 
 />
    <glyph glyph-name="Xi" unicode="&#x39e;" horiz-adv-x="1331" 
 />
    <glyph glyph-name="Omicron" unicode="&#x39f;" horiz-adv-x="1593" 
 />
    <glyph glyph-name="Pi" unicode="&#x3a0;" horiz-adv-x="1479" 
 />
    <glyph glyph-name="Rho" unicode="&#x3a1;" horiz-adv-x="1366" 
 />
    <glyph glyph-name="Sigma" unicode="&#x3a3;" horiz-adv-x="1266" 
 />
    <glyph glyph-name="Tau" unicode="&#x3a4;" horiz-adv-x="1251" 
 />
    <glyph glyph-name="Upsilon" unicode="&#x3a5;" horiz-adv-x="1366" 
 />
    <glyph glyph-name="Phi" unicode="&#x3a6;" horiz-adv-x="1634" 
 />
    <glyph glyph-name="Chi" unicode="&#x3a7;" horiz-adv-x="1366" 
 />
    <glyph glyph-name="Psi" unicode="&#x3a8;" horiz-adv-x="1711" 
 />
    <glyph glyph-name="Omega" unicode="&#x3a9;" horiz-adv-x="1531" 
 />
    <glyph glyph-name="Iotadieresis" unicode="&#x3aa;" horiz-adv-x="569" 
 />
    <glyph glyph-name="Upsilondieresis" unicode="&#x3ab;" horiz-adv-x="1366" 
 />
    <glyph glyph-name="alphatonos" unicode="&#x3ac;" horiz-adv-x="1184" 
 />
    <glyph glyph-name="epsilontonos" unicode="&#x3ad;" horiz-adv-x="913" 
 />
    <glyph glyph-name="etatonos" unicode="&#x3ae;" 
 />
    <glyph glyph-name="iotatonos" unicode="&#x3af;" horiz-adv-x="455" 
 />
    <glyph glyph-name="upsilondieresistonos" unicode="&#x3b0;" horiz-adv-x="1120" 
 />
    <glyph glyph-name="alpha" unicode="&#x3b1;" horiz-adv-x="1184" 
 />
    <glyph glyph-name="beta" unicode="&#x3b2;" horiz-adv-x="1178" 
 />
    <glyph glyph-name="gamma" unicode="&#x3b3;" horiz-adv-x="1024" 
 />
    <glyph glyph-name="delta" unicode="&#x3b4;" horiz-adv-x="1140" 
 />
    <glyph glyph-name="epsilon" unicode="&#x3b5;" horiz-adv-x="913" 
 />
    <glyph glyph-name="zeta" unicode="&#x3b6;" horiz-adv-x="903" 
 />
    <glyph glyph-name="eta" unicode="&#x3b7;" 
 />
    <glyph glyph-name="theta" unicode="&#x3b8;" 
 />
    <glyph glyph-name="iota" unicode="&#x3b9;" horiz-adv-x="455" 
 />
    <glyph glyph-name="kappa" unicode="&#x3ba;" horiz-adv-x="1024" 
 />
    <glyph glyph-name="lambda" unicode="&#x3bb;" horiz-adv-x="1024" 
 />
    <glyph glyph-name="mu" unicode="&#x3bc;" horiz-adv-x="1180" 
 />
    <glyph glyph-name="nu" unicode="&#x3bd;" horiz-adv-x="1024" 
 />
    <glyph glyph-name="xi" unicode="&#x3be;" horiz-adv-x="917" 
 />
    <glyph glyph-name="omicron" unicode="&#x3bf;" 
 />
    <glyph glyph-name="pi" unicode="&#x3c0;" horiz-adv-x="1413" 
 />
    <glyph glyph-name="rho" unicode="&#x3c1;" horiz-adv-x="1165" 
 />
    <glyph glyph-name="sigma1" unicode="&#x3c2;" horiz-adv-x="987" 
 />
    <glyph glyph-name="sigma" unicode="&#x3c3;" horiz-adv-x="1264" 
 />
    <glyph glyph-name="tau" unicode="&#x3c4;" horiz-adv-x="809" 
 />
    <glyph glyph-name="upsilon" unicode="&#x3c5;" horiz-adv-x="1120" 
 />
    <glyph glyph-name="phi" unicode="&#x3c6;" horiz-adv-x="1328" 
 />
    <glyph glyph-name="chi" unicode="&#x3c7;" horiz-adv-x="1075" 
 />
    <glyph glyph-name="psi" unicode="&#x3c8;" horiz-adv-x="1460" 
 />
    <glyph glyph-name="omega" unicode="&#x3c9;" horiz-adv-x="1599" 
 />
    <glyph glyph-name="iotadieresis" unicode="&#x3ca;" horiz-adv-x="455" 
 />
    <glyph glyph-name="upsilondieresis" unicode="&#x3cb;" horiz-adv-x="1120" 
 />
    <glyph glyph-name="omicrontonos" unicode="&#x3cc;" 
 />
    <glyph glyph-name="upsilontonos" unicode="&#x3cd;" horiz-adv-x="1120" 
 />
    <glyph glyph-name="omegatonos" unicode="&#x3ce;" horiz-adv-x="1599" 
 />
    <glyph glyph-name="afii10023" unicode="&#x401;" horiz-adv-x="1367" 
 />
    <glyph glyph-name="afii10051" unicode="&#x402;" horiz-adv-x="1771" 
 />
    <glyph glyph-name="afii10052" unicode="&#x403;" horiz-adv-x="1109" 
 />
    <glyph glyph-name="afii10053" unicode="&#x404;" horiz-adv-x="1472" 
 />
    <glyph glyph-name="afii10054" unicode="&#x405;" horiz-adv-x="1366" 
 />
    <glyph glyph-name="afii10055" unicode="&#x406;" horiz-adv-x="569" 
 />
    <glyph glyph-name="afii10056" unicode="&#x407;" horiz-adv-x="569" 
 />
    <glyph glyph-name="afii10057" unicode="&#x408;" horiz-adv-x="1024" 
 />
    <glyph glyph-name="afii10058" unicode="&#x409;" horiz-adv-x="2165" 
 />
    <glyph glyph-name="afii10059" unicode="&#x40a;" horiz-adv-x="2069" 
 />
    <glyph glyph-name="afii10060" unicode="&#x40b;" horiz-adv-x="1749" 
 />
    <glyph glyph-name="afii10061" unicode="&#x40c;" horiz-adv-x="1193" 
 />
    <glyph glyph-name="afii10062" unicode="&#x40e;" horiz-adv-x="1301" 
 />
    <glyph glyph-name="afii10145" unicode="&#x40f;" horiz-adv-x="1472" 
 />
    <glyph glyph-name="afii10017" unicode="&#x410;" horiz-adv-x="1366" 
 />
    <glyph glyph-name="afii10018" unicode="&#x411;" horiz-adv-x="1344" 
 />
    <glyph glyph-name="afii10019" unicode="&#x412;" horiz-adv-x="1366" 
 />
    <glyph glyph-name="afii10020" unicode="&#x413;" horiz-adv-x="1109" 
 />
    <glyph glyph-name="afii10021" unicode="&#x414;" horiz-adv-x="1387" 
 />
    <glyph glyph-name="afii10022" unicode="&#x415;" horiz-adv-x="1366" 
 />
    <glyph glyph-name="afii10024" unicode="&#x416;" horiz-adv-x="1891" 
 />
    <glyph glyph-name="afii10025" unicode="&#x417;" horiz-adv-x="1237" 
 />
    <glyph glyph-name="afii10026" unicode="&#x418;" horiz-adv-x="1472" 
 />
    <glyph glyph-name="afii10027" unicode="&#x419;" horiz-adv-x="1472" 
 />
    <glyph glyph-name="afii10028" unicode="&#x41a;" horiz-adv-x="1193" 
 />
    <glyph glyph-name="afii10029" unicode="&#x41b;" horiz-adv-x="1344" 
 />
    <glyph glyph-name="afii10030" unicode="&#x41c;" horiz-adv-x="1706" 
 />
    <glyph glyph-name="afii10031" unicode="&#x41d;" horiz-adv-x="1479" 
 />
    <glyph glyph-name="afii10032" unicode="&#x41e;" horiz-adv-x="1593" 
 />
    <glyph glyph-name="afii10033" unicode="&#x41f;" horiz-adv-x="1472" 
 />
    <glyph glyph-name="afii10034" unicode="&#x420;" horiz-adv-x="1366" 
 />
    <glyph glyph-name="afii10035" unicode="&#x421;" horiz-adv-x="1479" 
 />
    <glyph glyph-name="afii10036" unicode="&#x422;" horiz-adv-x="1251" 
 />
    <glyph glyph-name="afii10037" unicode="&#x423;" horiz-adv-x="1301" 
 />
    <glyph glyph-name="afii10038" unicode="&#x424;" horiz-adv-x="1557" 
 />
    <glyph glyph-name="afii10039" unicode="&#x425;" horiz-adv-x="1366" 
 />
    <glyph glyph-name="afii10040" unicode="&#x426;" horiz-adv-x="1515" 
 />
    <glyph glyph-name="afii10041" unicode="&#x427;" horiz-adv-x="1365" 
 />
    <glyph glyph-name="afii10042" unicode="&#x428;" horiz-adv-x="1877" 
 />
    <glyph glyph-name="afii10043" unicode="&#x429;" horiz-adv-x="1920" 
 />
    <glyph glyph-name="afii10044" unicode="&#x42a;" horiz-adv-x="1621" 
 />
    <glyph glyph-name="afii10045" unicode="&#x42b;" horiz-adv-x="1813" 
 />
    <glyph glyph-name="afii10046" unicode="&#x42c;" horiz-adv-x="1344" 
 />
    <glyph glyph-name="afii10047" unicode="&#x42d;" horiz-adv-x="1472" 
 />
    <glyph glyph-name="afii10048" unicode="&#x42e;" horiz-adv-x="2069" 
 />
    <glyph glyph-name="afii10049" unicode="&#x42f;" horiz-adv-x="1479" 
 />
    <glyph glyph-name="afii10065" unicode="&#x430;" 
 />
    <glyph glyph-name="afii10066" unicode="&#x431;" horiz-adv-x="1173" 
 />
    <glyph glyph-name="afii10067" unicode="&#x432;" horiz-adv-x="1088" 
 />
    <glyph glyph-name="afii10068" unicode="&#x433;" horiz-adv-x="747" 
 />
    <glyph glyph-name="afii10069" unicode="&#x434;" horiz-adv-x="1195" 
 />
    <glyph glyph-name="afii10070" unicode="&#x435;" 
 />
    <glyph glyph-name="afii10072" unicode="&#x436;" horiz-adv-x="1370" 
 />
    <glyph glyph-name="afii10073" unicode="&#x437;" horiz-adv-x="939" 
 />
    <glyph glyph-name="afii10074" unicode="&#x438;" horiz-adv-x="1144" 
 />
    <glyph glyph-name="afii10075" unicode="&#x439;" horiz-adv-x="1144" 
 />
    <glyph glyph-name="afii10076" unicode="&#x43a;" horiz-adv-x="896" 
 />
    <glyph glyph-name="afii10077" unicode="&#x43b;" horiz-adv-x="1195" 
 />
    <glyph glyph-name="afii10078" unicode="&#x43c;" horiz-adv-x="1408" 
 />
    <glyph glyph-name="afii10079" unicode="&#x43d;" horiz-adv-x="1131" 
 />
    <glyph glyph-name="afii10080" unicode="&#x43e;" 
 />
    <glyph glyph-name="afii10081" unicode="&#x43f;" horiz-adv-x="1109" 
 />
    <glyph glyph-name="afii10082" unicode="&#x440;" 
 />
    <glyph glyph-name="afii10083" unicode="&#x441;" horiz-adv-x="1024" 
 />
    <glyph glyph-name="afii10084" unicode="&#x442;" horiz-adv-x="938" 
 />
    <glyph glyph-name="afii10085" unicode="&#x443;" horiz-adv-x="1024" 
 />
    <glyph glyph-name="afii10086" unicode="&#x444;" horiz-adv-x="1685" 
 />
    <glyph glyph-name="afii10087" unicode="&#x445;" horiz-adv-x="1024" 
 />
    <glyph glyph-name="afii10088" unicode="&#x446;" horiz-adv-x="1173" 
 />
    <glyph glyph-name="afii10089" unicode="&#x447;" horiz-adv-x="1067" 
 />
    <glyph glyph-name="afii10090" unicode="&#x448;" horiz-adv-x="1643" 
 />
    <glyph glyph-name="afii10091" unicode="&#x449;" horiz-adv-x="1685" 
 />
    <glyph glyph-name="afii10092" unicode="&#x44a;" horiz-adv-x="1280" 
 />
    <glyph glyph-name="afii10093" unicode="&#x44b;" horiz-adv-x="1472" 
 />
    <glyph glyph-name="afii10094" unicode="&#x44c;" horiz-adv-x="1067" 
 />
    <glyph glyph-name="afii10095" unicode="&#x44d;" horiz-adv-x="1045" 
 />
    <glyph glyph-name="afii10096" unicode="&#x44e;" horiz-adv-x="1536" 
 />
    <glyph glyph-name="afii10097" unicode="&#x44f;" horiz-adv-x="1109" 
 />
    <glyph glyph-name="afii10071" unicode="&#x451;" 
 />
    <glyph glyph-name="afii10099" unicode="&#x452;" 
 />
    <glyph glyph-name="afii10100" unicode="&#x453;" horiz-adv-x="747" 
 />
    <glyph glyph-name="afii10101" unicode="&#x454;" horiz-adv-x="1045" 
 />
    <glyph glyph-name="afii10102" unicode="&#x455;" horiz-adv-x="1024" 
 />
    <glyph glyph-name="afii10103" unicode="&#x456;" horiz-adv-x="455" 
 />
    <glyph glyph-name="afii10104" unicode="&#x457;" horiz-adv-x="569" 
 />
    <glyph glyph-name="afii10105" unicode="&#x458;" horiz-adv-x="455" 
 />
    <glyph glyph-name="afii10106" unicode="&#x459;" horiz-adv-x="1856" 
 />
    <glyph glyph-name="afii10107" unicode="&#x45a;" horiz-adv-x="1664" 
 />
    <glyph glyph-name="afii10108" unicode="&#x45b;" 
 />
    <glyph glyph-name="afii10109" unicode="&#x45c;" horiz-adv-x="896" 
 />
    <glyph glyph-name="afii10110" unicode="&#x45e;" horiz-adv-x="1024" 
 />
    <glyph glyph-name="afii10193" unicode="&#x45f;" horiz-adv-x="1131" 
 />
    <glyph glyph-name="afii10050" unicode="&#x490;" horiz-adv-x="1001" 
 />
    <glyph glyph-name="afii10098" unicode="&#x491;" horiz-adv-x="842" 
 />
    <glyph glyph-name="Wgrave" unicode="&#x1e80;" horiz-adv-x="1933" 
 />
    <glyph glyph-name="wgrave" unicode="&#x1e81;" horiz-adv-x="1479" 
 />
    <glyph glyph-name="Wacute" unicode="&#x1e82;" horiz-adv-x="1933" 
 />
    <glyph glyph-name="wacute" unicode="&#x1e83;" horiz-adv-x="1479" 
 />
    <glyph glyph-name="Wdieresis" unicode="&#x1e84;" horiz-adv-x="1933" 
 />
    <glyph glyph-name="wdieresis" unicode="&#x1e85;" horiz-adv-x="1479" 
 />
    <glyph glyph-name="Ygrave" unicode="&#x1ef2;" horiz-adv-x="1366" 
 />
    <glyph glyph-name="ygrave" unicode="&#x1ef3;" horiz-adv-x="1024" 
 />
    <glyph glyph-name="endash" unicode="&#x2013;" 
 />
    <glyph glyph-name="emdash" unicode="&#x2014;" horiz-adv-x="2048" 
 />
    <glyph glyph-name="afii00208" unicode="&#x2015;" horiz-adv-x="2048" 
 />
    <glyph glyph-name="underscoredbl" unicode="&#x2017;" horiz-adv-x="1131" 
 />
    <glyph glyph-name="quoteleft" unicode="&#x2018;" horiz-adv-x="455" 
 />
    <glyph glyph-name="quoteright" unicode="&#x2019;" horiz-adv-x="455" 
 />
    <glyph glyph-name="quotesinglbase" unicode="&#x201a;" horiz-adv-x="455" 
 />
    <glyph glyph-name="quotereversed" unicode="&#x201b;" horiz-adv-x="455" 
 />
    <glyph glyph-name="quotedblleft" unicode="&#x201c;" horiz-adv-x="682" 
 />
    <glyph glyph-name="quotedblright" unicode="&#x201d;" horiz-adv-x="682" 
 />
    <glyph glyph-name="quotedblbase" unicode="&#x201e;" horiz-adv-x="682" 
 />
    <glyph glyph-name="dagger" unicode="&#x2020;" 
 />
    <glyph glyph-name="daggerdbl" unicode="&#x2021;" 
 />
    <glyph glyph-name="bullet" unicode="&#x2022;" horiz-adv-x="717" 
 />
    <glyph glyph-name="ellipsis" unicode="&#x2026;" horiz-adv-x="2048" 
 />
    <glyph glyph-name="perthousand" unicode="&#x2030;" horiz-adv-x="2048" 
 />
    <glyph glyph-name="minute" unicode="&#x2032;" horiz-adv-x="384" 
 />
    <glyph glyph-name="second" unicode="&#x2033;" horiz-adv-x="725" 
 />
    <glyph glyph-name="guilsinglleft" unicode="&#x2039;" horiz-adv-x="682" 
 />
    <glyph glyph-name="guilsinglright" unicode="&#x203a;" horiz-adv-x="682" 
 />
    <glyph glyph-name="exclamdbl" unicode="&#x203c;" horiz-adv-x="1024" 
 />
    <glyph glyph-name="radicalex" unicode="&#x203e;" horiz-adv-x="682" 
 />
    <glyph glyph-name="fraction" unicode="&#x2044;" horiz-adv-x="342" 
 />
    <glyph glyph-name="fraction" unicode="&#x2215;" horiz-adv-x="342" 
 />
    <glyph glyph-name="nsuperior" unicode="&#x207f;" horiz-adv-x="747" 
 />
    <glyph glyph-name="franc" unicode="&#x20a3;" 
 />
    <glyph glyph-name="afii08941" unicode="&#x20a4;" 
 />
    <glyph glyph-name="peseta" unicode="&#x20a7;" horiz-adv-x="2240" 
 />
    <glyph glyph-name="Euro" unicode="&#x20ac;" 
 />
    <glyph glyph-name="afii61248" unicode="&#x2105;" horiz-adv-x="1813" 
 />
    <glyph glyph-name="afii61289" unicode="&#x2113;" horiz-adv-x="662" 
 />
    <glyph glyph-name="afii61352" unicode="&#x2116;" horiz-adv-x="2197" 
 />
    <glyph glyph-name="trademark" unicode="&#x2122;" horiz-adv-x="2048" 
 />
    <glyph glyph-name="Ohm" unicode="&#x2126;" horiz-adv-x="1573" 
 />
    <glyph glyph-name="estimated" unicode="&#x212e;" horiz-adv-x="1229" 
 />
    <glyph glyph-name="oneeighth" unicode="&#x215b;" horiz-adv-x="1708" 
 />
    <glyph glyph-name="threeeighths" unicode="&#x215c;" horiz-adv-x="1708" 
 />
    <glyph glyph-name="fiveeighths" unicode="&#x215d;" horiz-adv-x="1708" 
 />
    <glyph glyph-name="seveneighths" unicode="&#x215e;" horiz-adv-x="1708" 
 />
    <glyph glyph-name="arrowleft" unicode="&#x2190;" horiz-adv-x="2048" 
 />
    <glyph glyph-name="arrowup" unicode="&#x2191;" horiz-adv-x="1024" 
 />
    <glyph glyph-name="arrowright" unicode="&#x2192;" horiz-adv-x="2048" 
 />
    <glyph glyph-name="arrowdown" unicode="&#x2193;" horiz-adv-x="1024" 
 />
    <glyph glyph-name="arrowboth" unicode="&#x2194;" horiz-adv-x="2048" 
 />
    <glyph glyph-name="arrowupdn" unicode="&#x2195;" horiz-adv-x="1024" 
 />
    <glyph glyph-name="arrowupdnbse" unicode="&#x21a8;" horiz-adv-x="1024" 
 />
    <glyph glyph-name="partialdiff" unicode="&#x2202;" horiz-adv-x="1012" 
 />
    <glyph glyph-name="Delta" unicode="&#x2206;" horiz-adv-x="1253" 
 />
    <glyph glyph-name="product" unicode="&#x220f;" horiz-adv-x="1686" 
 />
    <glyph glyph-name="summation" unicode="&#x2211;" horiz-adv-x="1460" 
 />
    <glyph glyph-name="minus" unicode="&#x2212;" horiz-adv-x="1196" 
 />
    <glyph glyph-name="radical" unicode="&#x221a;" horiz-adv-x="1124" 
 />
    <glyph glyph-name="infinity" unicode="&#x221e;" horiz-adv-x="1460" 
 />
    <glyph glyph-name="orthogonal" unicode="&#x221f;" horiz-adv-x="2005" 
 />
    <glyph glyph-name="intersection" unicode="&#x2229;" horiz-adv-x="1472" 
 />
    <glyph glyph-name="integral" unicode="&#x222b;" horiz-adv-x="561" 
 />
    <glyph glyph-name="approxequal" unicode="&#x2248;" horiz-adv-x="1124" 
 />
    <glyph glyph-name="notequal" unicode="&#x2260;" horiz-adv-x="1124" 
 />
    <glyph glyph-name="equivalence" unicode="&#x2261;" horiz-adv-x="1195" 
 />
    <glyph glyph-name="lessequal" unicode="&#x2264;" horiz-adv-x="1124" 
 />
    <glyph glyph-name="greaterequal" unicode="&#x2265;" horiz-adv-x="1124" 
 />
    <glyph glyph-name="house" unicode="&#x2302;" horiz-adv-x="1237" 
 />
    <glyph glyph-name="revlogicalnot" unicode="&#x2310;" horiz-adv-x="1196" 
 />
    <glyph glyph-name="integraltp" unicode="&#x2320;" horiz-adv-x="1237" 
 />
    <glyph glyph-name="integralbt" unicode="&#x2321;" horiz-adv-x="1237" 
 />
    <glyph glyph-name="SF100000" unicode="&#x2500;" horiz-adv-x="1451" 
 />
    <glyph glyph-name="SF110000" unicode="&#x2502;" horiz-adv-x="1280" 
 />
    <glyph glyph-name="SF010000" unicode="&#x250c;" horiz-adv-x="1451" 
 />
    <glyph glyph-name="SF030000" unicode="&#x2510;" horiz-adv-x="1451" 
 />
    <glyph glyph-name="SF020000" unicode="&#x2514;" horiz-adv-x="1451" 
 />
    <glyph glyph-name="SF040000" unicode="&#x2518;" horiz-adv-x="1451" 
 />
    <glyph glyph-name="SF080000" unicode="&#x251c;" horiz-adv-x="1451" 
 />
    <glyph glyph-name="SF090000" unicode="&#x2524;" horiz-adv-x="1451" 
 />
    <glyph glyph-name="SF060000" unicode="&#x252c;" horiz-adv-x="1451" 
 />
    <glyph glyph-name="SF070000" unicode="&#x2534;" horiz-adv-x="1451" 
 />
    <glyph glyph-name="SF050000" unicode="&#x253c;" horiz-adv-x="1451" 
 />
    <glyph glyph-name="SF430000" unicode="&#x2550;" horiz-adv-x="1451" 
 />
    <glyph glyph-name="SF240000" unicode="&#x2551;" horiz-adv-x="1451" 
 />
    <glyph glyph-name="SF510000" unicode="&#x2552;" horiz-adv-x="1451" 
 />
    <glyph glyph-name="SF520000" unicode="&#x2553;" horiz-adv-x="1451" 
 />
    <glyph glyph-name="SF390000" unicode="&#x2554;" horiz-adv-x="1451" 
 />
    <glyph glyph-name="SF220000" unicode="&#x2555;" horiz-adv-x="1451" 
 />
    <glyph glyph-name="SF210000" unicode="&#x2556;" horiz-adv-x="1451" 
 />
    <glyph glyph-name="SF250000" unicode="&#x2557;" horiz-adv-x="1451" 
 />
    <glyph glyph-name="SF500000" unicode="&#x2558;" horiz-adv-x="1451" 
 />
    <glyph glyph-name="SF490000" unicode="&#x2559;" horiz-adv-x="1451" 
 />
    <glyph glyph-name="SF380000" unicode="&#x255a;" horiz-adv-x="1451" 
 />
    <glyph glyph-name="SF280000" unicode="&#x255b;" horiz-adv-x="1451" 
 />
    <glyph glyph-name="SF270000" unicode="&#x255c;" horiz-adv-x="1451" 
 />
    <glyph glyph-name="SF260000" unicode="&#x255d;" horiz-adv-x="1451" 
 />
    <glyph glyph-name="SF360000" unicode="&#x255e;" horiz-adv-x="1451" 
 />
    <glyph glyph-name="SF370000" unicode="&#x255f;" horiz-adv-x="1451" 
 />
    <glyph glyph-name="SF420000" unicode="&#x2560;" horiz-adv-x="1451" 
 />
    <glyph glyph-name="SF190000" unicode="&#x2561;" horiz-adv-x="1451" 
 />
    <glyph glyph-name="SF200000" unicode="&#x2562;" horiz-adv-x="1451" 
 />
    <glyph glyph-name="SF230000" unicode="&#x2563;" horiz-adv-x="1451" 
 />
    <glyph glyph-name="SF470000" unicode="&#x2564;" horiz-adv-x="1451" 
 />
    <glyph glyph-name="SF480000" unicode="&#x2565;" horiz-adv-x="1451" 
 />
    <glyph glyph-name="SF410000" unicode="&#x2566;" horiz-adv-x="1451" 
 />
    <glyph glyph-name="SF450000" unicode="&#x2567;" horiz-adv-x="1451" 
 />
    <glyph glyph-name="SF460000" unicode="&#x2568;" horiz-adv-x="1451" 
 />
    <glyph glyph-name="SF400000" unicode="&#x2569;" horiz-adv-x="1451" 
 />
    <glyph glyph-name="SF540000" unicode="&#x256a;" horiz-adv-x="1451" 
 />
    <glyph glyph-name="SF530000" unicode="&#x256b;" horiz-adv-x="1451" 
 />
    <glyph glyph-name="SF440000" unicode="&#x256c;" horiz-adv-x="1451" 
 />
    <glyph glyph-name="upblock" unicode="&#x2580;" horiz-adv-x="1451" 
 />
    <glyph glyph-name="dnblock" unicode="&#x2584;" horiz-adv-x="1451" 
 />
    <glyph glyph-name="block" unicode="&#x2588;" horiz-adv-x="1451" 
 />
    <glyph glyph-name="lfblock" unicode="&#x258c;" horiz-adv-x="1451" 
 />
    <glyph glyph-name="rtblock" unicode="&#x2590;" horiz-adv-x="1451" 
 />
    <glyph glyph-name="ltshade" unicode="&#x2591;" horiz-adv-x="1451" 
 />
    <glyph glyph-name="shade" unicode="&#x2592;" horiz-adv-x="1451" 
 />
    <glyph glyph-name="dkshade" unicode="&#x2593;" horiz-adv-x="1493" 
 />
    <glyph glyph-name="filledbox" unicode="&#x25a0;" horiz-adv-x="1237" 
 />
    <glyph glyph-name="H22073" unicode="&#x25a1;" horiz-adv-x="1237" 
 />
    <glyph glyph-name="H18543" unicode="&#x25aa;" horiz-adv-x="726" 
 />
    <glyph glyph-name="H18551" unicode="&#x25ab;" horiz-adv-x="726" 
 />
    <glyph glyph-name="filledrect" unicode="&#x25ac;" horiz-adv-x="2048" 
 />
    <glyph glyph-name="triagup" unicode="&#x25b2;" horiz-adv-x="2027" 
 />
    <glyph glyph-name="triagrt" unicode="&#x25ba;" horiz-adv-x="2027" 
 />
    <glyph glyph-name="triagdn" unicode="&#x25bc;" horiz-adv-x="2027" 
 />
    <glyph glyph-name="triaglf" unicode="&#x25c4;" horiz-adv-x="2027" 
 />
    <glyph glyph-name="lozenge" unicode="&#x25ca;" horiz-adv-x="1012" 
 />
    <glyph glyph-name="circle" unicode="&#x25cb;" horiz-adv-x="1237" 
 />
    <glyph glyph-name="H18533" unicode="&#x25cf;" horiz-adv-x="1237" 
 />
    <glyph glyph-name="invbullet" unicode="&#x25d8;" horiz-adv-x="1237" 
 />
    <glyph glyph-name="invcircle" unicode="&#x25d9;" horiz-adv-x="1237" 
 />
    <glyph glyph-name="openbullet" unicode="&#x25e6;" horiz-adv-x="726" 
 />
    <glyph glyph-name="smileface" unicode="&#x263a;" horiz-adv-x="2091" 
 />
    <glyph glyph-name="invsmileface" unicode="&#x263b;" horiz-adv-x="2155" 
 />
    <glyph glyph-name="sun" unicode="&#x263c;" horiz-adv-x="1877" 
 />
    <glyph glyph-name="female" unicode="&#x2640;" horiz-adv-x="1536" 
 />
    <glyph glyph-name="male" unicode="&#x2642;" horiz-adv-x="1536" 
 />
    <glyph glyph-name="spade" unicode="&#x2660;" horiz-adv-x="1088" 
 />
    <glyph glyph-name="club" unicode="&#x2663;" horiz-adv-x="1344" 
 />
    <glyph glyph-name="heart" unicode="&#x2665;" horiz-adv-x="1216" 
 />
    <glyph glyph-name="diamond" unicode="&#x2666;" horiz-adv-x="1045" 
 />
    <glyph glyph-name="musicalnote" unicode="&#x266a;" horiz-adv-x="1024" 
 />
    <glyph glyph-name="musicalnotedbl" unicode="&#x266b;" horiz-adv-x="1536" 
 />
    <glyph glyph-name="fi" unicode="&#xf001;" horiz-adv-x="1024" 
 />
    <glyph glyph-name="fi" unicode="&#xfb01;" horiz-adv-x="1024" 
 />
    <glyph glyph-name="fl" unicode="&#xf002;" horiz-adv-x="1024" 
 />
    <glyph glyph-name="fl" unicode="&#xfb02;" horiz-adv-x="1024" 
 />
    <glyph glyph-name="commaaccent" unicode="&#xf004;" horiz-adv-x="682" 
 />
    <glyph glyph-name="undercommaaccent" unicode="&#xf005;" horiz-adv-x="682" 
 />
    <glyph glyph-name="pi1" horiz-adv-x="1124" 
 />
    <glyph glyph-name="middot" horiz-adv-x="682" 
 />
  </font>
</defs>
</svg>
